<svg version="1.2" xmlns="http://www.w3.org/2000/svg" viewBox="0 0 3710 1829" width="3710" height="1829">
	<style>
		.s0 { fill: #eef5ff } 
	</style>
	<path id="网络无限" fill-rule="evenodd" class="s0" d="m128.86 690.59h125.93l192.09-524.09 509.91-2.76-160.48 526.85h287.31l54.1-167.42 274.39 0.17-35.05 167.25h81.74l145.53-192.29-291.75-0.6-28.9-62.73-70.05 62.73h-182.8l18.63-69.69h153.3l52.46-45.34-45-95.47-69.22-0.2 37.48-123.26 84.55-0.06-19.98 54.33 277.54-0.68-22.32 69.87h-39.87l-121.68 107.47 20.23 33.34h307.27l134.55-198.63-224.29 0.48 23.85-66.18 407.94 0.75-19.75 64.95h-110.15l-124.52 198.63h206.77l-26.06 70.29h-241.27l-203.88 274.92h-888.09l29.02-82.63 91.66 0.41 108-352-122 94 32 99-59 43-36-94-74 70 30 88-55 46-30.78-88.23-119.43 106.94-26.79-55.71 128-109-40-122 60-48 38.93 115.94 71.65-62.97-31.58-113.97 58-47 36.01 112.12 147.65-117.25 11.34 24.13 17.03-50.62h-367.48l-197.79 543.84h-201.48zm872.53-526.86h70.46l-52.13 176.1 111.44 0.49-21.16 57.67-177.65-0.32zm-72.83 264.27h76.76l-36.69 141.16 113.38-1.17-25 64-186.78 0.17zm788.44 91.99h64l-36.63 170.59h165.17l172.18-526.85h233.04l-21.41 65.64-89.2 98.73 61.58-0.26-17.01 55.82-188.24 187.11-23.66-27.67-66.6 230.1h-334.46zm641.01-356.26h426.34l-17.39 65.64h-172.14l-71.3 268.92h-203.22l-60.57 192.3h95.88l-23.13 82.62h-222.94l20.6-82.62h58.8zm-46.34 394.25l54.05-37.26 86.9 169.86h152.43l-24.57 82.62-160.81-0.22zm314.48-8.21l-16.6 60.46-177.07 0.2 18.67-60.66zm-1469.8 140.81h152.44l26.55-109.07h-149.2zm151.37-342.92l71.49-60.47h-99.68zm915.61-118.3h-95.43l-29.68 99.3 41-0.5zm-172.85 268.06l114.67-110.66-82.67 1zm333.21-193.66h136l23.4-74.41h-137.8zm-16.42 54.8l-20.19 69.42h134.45l23.29-69.42z"/>
	<path id="开拓不懈" fill-rule="evenodd" class="s0" d="m995.98 978.23h447.55l-17.25 92.24-68.89-0.03-47.01 220.35h177.03l25.75-106.15-115.31-0.89 17.22-86.68h120.56l29.84-119.16h87.87l-31.06 119.16h62.12l-20.85 87.57h-66.61l-23.71 106.15 79.6 0.43-17.03 82.24h-83.7l-41.76 237.14h-181.48l14.27-77.3h99.32l30.81-159.84h-176.65l-40.7 237.14h-89.23l48.18-236.66-164-0.48-44.48 237.28h-263.38l16.23-77.36h189.08l36.37-159.92h-126.04l20.63-82.67h127.48l52.15-220.32h-82.1zm292.2 92.21l-164.8 0.03-45.36 220.32h158.77zm455.43-92.53l329.21 0.32-23.41 92.24h-63.78l-181.06 220.74h232.8l-32.36 161.79 341.86-382.53h-211.39l22-92.24h466.68l-20.86 92.24h-165.46l-105.84 114.17h59.68l-76.67 423.36-104-2 85-381-310 353-7 32.74h-312.19l32.73-178.89-80.54 105.15-64.19-49.55 341.18-416.98-176.96-0.03zm704.05 206.73h77.59l-5.35 210.49h49.4l101.34-179.28 65.37 36.15 47.75-274.09h86.26l-104.34 632.69h-100.22l69.01-340.21-10.46 0.61-108.6 202.7-189.61 0.37zm449.82 165.39l-65.85 0.53 26.02-165.92h62.13zm65.88-371.8l84.78-0.33-8.06 47.08h447.13l-40.14 216.29h-117.73l7.58-57.53h50.39l14.28-80.72h-78.05l-33.22 208h45.51l8.29-41.65h71.34l-7.25 41.65h84.73l-8.71 54.69h-85.46l-13.69 86.4h193.55l-11.59 66.55-189.17 0.45-13.46 91.62h-82.79l18.29-91.18-103.89 0.44 10.23-67.88h102.57l16.84-86.4h-106.27l40.82-262.69h-82.94l-46.38 80.72h83.39l-63.99 426.99h-138.27l9.16-77.35h86.6l6.97-45.79h-151.89l-15.71 123.14h-142.71l13.82-77.35h79.83l45.04-349.64h111.5l38.35-80.72h-68.02l-10.9 51.79h-77.15zm-1208.32 555.15h168.46l26.97-159.92h-171.1zm1213.56-100.21h48.72l8.07-67.46h-48.14zm13.84-122.16h53.33l8.64-70.97h-53.04zm110.98 0h46.7l9.51-70.98h-46.41zm-17.35 122.16h45.6l9.51-67.47h-46.69z"/>
</svg>
