<?xml version="1.0" encoding="utf-8"?>
<!-- Generator: Adobe Illustrator 23.0.2, SVG Export Plug-In . SVG Version: 6.00 Build 0)  -->
<svg version="1.1" id="图层_1" xmlns="http://www.w3.org/2000/svg" xmlns:xlink="http://www.w3.org/1999/xlink" x="0px" y="0px"
	 viewBox="0 0 700 487" style="enable-background:new 0 0 700 487;" xml:space="preserve">
<style type="text/css">
	.st0{fill:#155BCD;}
	.st1{fill:#050F64;}
	.st2{fill:#FFBD00;}
	.st3{fill:#FFFFFF;}
	.st4{fill:#84A9FF;}
	.st5{fill:#E5E6EB;}
	.st6{fill:#FF654F;}
	.st7{clip-path:url(#SVGID_2_);}
	.st8{fill:#F5BDC8;}
	.st9{fill:#EA8096;}
	.st10{clip-path:url(#SVGID_4_);}
	.st11{clip-path:url(#SVGID_6_);}
	.st12{opacity:0;}
	.st13{fill:#E9EBED;}
	.st14{fill:#DA5544;}
</style>
<g>
	<g>
		<g>
			<g>
				<g>
					<g>
						<path class="st0" d="M187,433c-0.3,1.3-0.5,2-0.5,2c-0.8-0.5-1.5-1-2.3-1.5c-129.9-89-78-249.6-78-249.6
							C230.5,256.1,192.3,413.6,187,433z"/>
					</g>
				</g>
				<g>
					<g>
						<path class="st1" d="M187,433c-0.3,1.3-0.5,2-0.5,2c-0.8-0.5-1.5-1-2.3-1.5c-10.9-32.1-21.6-64.2-32-96.5
							c-5.4-16.7-10.7-33.4-15.9-50.2l-3.9-12.6l-3.7-12.6c-1.2-4.2-2.4-8.4-3.6-12.7c-0.6-2.1-1.1-4.2-1.7-6.4l-1.7-6.4l1.8,6.3
							c0.6,2.1,1.2,4.2,1.8,6.3c1.3,4.2,2.5,8.4,3.8,12.6l3.9,12.6l4,12.5c5.4,16.7,11,33.3,16.6,49.9
							C164.5,368.7,175.6,400.9,187,433z"/>
					</g>
				</g>
				<g>
					<g>
						<g>
							<g>
								<path class="st1" d="M138.3,262.8c-0.1,0-0.3,0-0.4-0.1c-0.3-0.2-0.4-0.5-0.3-0.8c4-7.8,6.5-16.5,7.2-25.1
									c0-0.3,0.3-0.6,0.7-0.6c0.3,0,0.6,0.3,0.6,0.7c-0.8,8.8-3.3,17.7-7.4,25.6C138.7,262.6,138.5,262.8,138.3,262.8z"/>
							</g>
						</g>
					</g>
					<g>
						<g>
							<g>
								<path class="st1" d="M155.7,311.8c-0.1,0-0.2,0-0.3,0c-0.3-0.1-0.5-0.5-0.3-0.8c3.7-8.9,8.2-17.6,13.3-25.9
									c0.2-0.3,0.6-0.4,0.8-0.2c0.3,0.2,0.4,0.6,0.2,0.8c-5.1,8.2-9.5,16.8-13.2,25.7C156.1,311.6,156,311.8,155.7,311.8z"/>
							</g>
						</g>
					</g>
					<g>
						<g>
							<g>
								<path class="st1" d="M137.9,322.3c-0.1,0-0.3,0-0.4,0c-10.2-4.2-19.7-10-28-17.3c-0.3-0.2-0.3-0.6-0.1-0.9
									c0.2-0.3,0.6-0.3,0.9-0.1c8.2,7.2,17.6,12.9,27.7,17.1c0.3,0.1,0.5,0.5,0.3,0.8C138.2,322.1,138,322.3,137.9,322.3z"/>
							</g>
						</g>
					</g>
					<g>
						<g>
							<g>
								<path class="st1" d="M125.6,268.8c-0.2,0.1-0.4,0.1-0.6-0.1l-20.7-16.1c-0.3-0.2-0.3-0.6-0.1-0.9c0.2-0.3,0.6-0.3,0.9-0.1
									l20.7,16.1c0.3,0.2,0.3,0.6,0.1,0.9C125.7,268.7,125.6,268.8,125.6,268.8z"/>
							</g>
						</g>
					</g>
					<g>
						<g>
							<g>
								<path class="st1" d="M173.7,363.3c-0.1,0-0.2,0-0.3,0c-0.3-0.1-0.5-0.5-0.3-0.8l10.9-25.2c0.1-0.3,0.5-0.5,0.8-0.3
									c0.3,0.1,0.5,0.5,0.3,0.8L174.2,363C174.1,363.1,173.9,363.2,173.7,363.3z"/>
							</g>
						</g>
					</g>
					<g>
						<g>
							<g>
								<path class="st1" d="M153.1,366.7c-0.1,0-0.2,0-0.3,0l-26.1-10.8c-0.3-0.1-0.5-0.5-0.3-0.8c0.1-0.3,0.5-0.5,0.8-0.3
									l26.1,10.8c0.3,0.1,0.5,0.5,0.3,0.8C153.5,366.5,153.3,366.7,153.1,366.7z"/>
							</g>
						</g>
					</g>
				</g>
			</g>
			<g>
				<g>
					<g>
						<path class="st2" d="M186.1,432.9c0.3,1.3,0.4,2,0.4,2c-0.9-0.1-1.8-0.2-2.7-0.4C27.8,413.4,2,246.6,2,246.6
							C145.5,255.4,182.1,413.3,186.1,432.9z"/>
					</g>
				</g>
				<g>
					<g>
						<path class="st3" d="M186.1,432.9c0.3,1.3,0.4,2,0.4,2c-0.9-0.1-1.8-0.2-2.7-0.4c-24.1-23.8-48.1-47.7-71.9-71.8
							c-12.3-12.5-24.6-25-36.8-37.7l-9.1-9.5l-9-9.6c-3-3.2-5.9-6.5-8.9-9.7c-1.5-1.6-2.9-3.3-4.4-4.9l-4.3-4.9l4.4,4.9
							c1.5,1.6,2.9,3.3,4.4,4.8c3,3.2,6,6.4,9,9.6l9.1,9.5l9.2,9.4c12.3,12.5,24.8,24.9,37.2,37.2
							C137.1,385.7,161.5,409.4,186.1,432.9z"/>
					</g>
				</g>
				<g>
					<g>
						<g>
							<g>
								<path class="st3" d="M66.2,302.7c-0.1,0.1-0.2,0.1-0.4,0.1c-0.3,0-0.6-0.3-0.6-0.6c0.1-8.7-1.6-17.6-4.8-25.7
									c-0.1-0.3,0-0.7,0.3-0.8c0.3-0.1,0.7,0,0.8,0.3c3.3,8.3,5,17.3,4.9,26.2C66.4,302.4,66.3,302.6,66.2,302.7z"/>
							</g>
						</g>
					</g>
					<g>
						<g>
							<g>
								<path class="st3" d="M103.7,338.7c-0.1,0.1-0.2,0.1-0.3,0.1c-0.3,0-0.6-0.2-0.7-0.6c-0.7-9.6-0.6-19.4,0.2-29.1
									c0-0.3,0.3-0.6,0.7-0.6c0.3,0,0.6,0.3,0.6,0.7c-0.9,9.6-0.9,19.3-0.2,28.9C104,338.4,103.9,338.6,103.7,338.7z"/>
							</g>
						</g>
					</g>
					<g>
						<g>
							<g>
								<path class="st3" d="M92.5,356.1c-0.1,0.1-0.2,0.1-0.3,0.1c-11,0.8-22.1-0.1-32.8-2.9c-0.3-0.1-0.5-0.4-0.4-0.7
									c0.1-0.3,0.4-0.5,0.7-0.4c10.6,2.7,21.5,3.7,32.4,2.8c0.3,0,0.6,0.2,0.7,0.6C92.7,355.8,92.6,356,92.5,356.1z"/>
							</g>
						</g>
					</g>
					<g>
						<g>
							<g>
								<path class="st3" d="M57.5,313.9c-0.1,0.2-0.4,0.2-0.6,0.2L31.2,309c-0.3-0.1-0.5-0.4-0.5-0.7c0.1-0.3,0.4-0.5,0.7-0.5
									l25.7,5.1c0.3,0.1,0.5,0.4,0.5,0.7C57.6,313.7,57.5,313.8,57.5,313.9z"/>
							</g>
						</g>
					</g>
					<g>
						<g>
							<g>
								<path class="st3" d="M142.9,376.6c-0.1,0.1-0.2,0.1-0.3,0.1c-0.3,0-0.6-0.2-0.6-0.6l-1.6-27.4c0-0.3,0.2-0.6,0.6-0.6
									c0.3,0,0.6,0.2,0.6,0.6l1.6,27.4C143.1,376.3,143,376.5,142.9,376.6z"/>
							</g>
						</g>
					</g>
					<g>
						<g>
							<g>
								<path class="st3" d="M126,389c-0.1,0.1-0.2,0.1-0.3,0.1l-28.2,2.1c-0.3,0-0.6-0.2-0.7-0.6c0-0.3,0.2-0.6,0.6-0.7l28.2-2.1
									c0.3,0,0.6,0.2,0.7,0.6C126.3,388.6,126.2,388.8,126,389z"/>
							</g>
						</g>
					</g>
				</g>
			</g>
			<g>
				<g>
					<g>
						<path class="st4" d="M269.2,390c1.2,0.5,1.9,0.8,1.9,0.8c-0.6,0.7-1.2,1.4-1.8,2.1C166.5,512.1,12.7,442.8,12.7,442.8
							C98.3,327.2,250.6,382.7,269.2,390z"/>
					</g>
				</g>
				<g>
					<g>
						<path class="st3" d="M269.2,390c1.2,0.5,1.9,0.8,1.9,0.8c-0.6,0.7-1.2,1.4-1.8,2.1c-33.1,7.3-66.2,14.3-99.4,21.2
							c-17.2,3.5-34.4,7-51.6,10.3l-12.9,2.4l-13,2.3c-4.3,0.8-8.6,1.5-13,2.2c-2.2,0.4-4.3,0.7-6.5,1l-6.5,1l6.5-1
							c2.2-0.4,4.3-0.7,6.5-1.1c4.3-0.8,8.6-1.5,12.9-2.4l12.9-2.5l12.9-2.6c17.2-3.5,34.3-7.2,51.5-11
							C202.9,405.3,236.1,397.8,269.2,390z"/>
					</g>
				</g>
				<g>
					<g>
						<g>
							<g>
								<path class="st3" d="M94.7,419.6c0,0.1,0,0.3-0.1,0.4c-0.2,0.3-0.6,0.4-0.8,0.2c-7.3-4.8-15.6-8.3-24.2-10
									c-0.3-0.1-0.6-0.4-0.5-0.7s0.4-0.5,0.7-0.5c8.7,1.8,17.2,5.3,24.6,10.2C94.6,419.2,94.7,419.4,94.7,419.6z"/>
							</g>
						</g>
					</g>
					<g>
						<g>
							<g>
								<path class="st3" d="M145.3,407.7c0,0.1,0,0.2-0.1,0.3c-0.2,0.3-0.5,0.4-0.8,0.2c-8.5-4.7-16.6-10.1-24.2-16
									c-0.3-0.2-0.3-0.6-0.1-0.9c0.2-0.3,0.6-0.3,0.9-0.1c7.6,5.9,15.7,11.3,24.1,15.9C145.2,407.3,145.3,407.5,145.3,407.7z"/>
							</g>
						</g>
					</g>
					<g>
						<g>
							<g>
								<path class="st3" d="M153.8,426.6c0,0.1,0,0.3-0.1,0.4c-5.3,9.7-12.1,18.4-20.3,25.9c-0.2,0.2-0.6,0.2-0.9,0
									c-0.2-0.3-0.2-0.6,0-0.9c8-7.4,14.8-16,20-25.6c0.2-0.3,0.5-0.4,0.8-0.2C153.7,426.3,153.8,426.5,153.8,426.6z"/>
							</g>
						</g>
					</g>
					<g>
						<g>
							<g>
								<path class="st3" d="M99.3,433c0.1,0.2,0,0.4-0.2,0.6l-18.3,18.8c-0.2,0.2-0.6,0.2-0.9,0c-0.2-0.2-0.2-0.6,0-0.9l18.3-18.8
									c0.2-0.2,0.6-0.2,0.9,0C99.2,432.8,99.3,432.9,99.3,433z"/>
							</g>
						</g>
					</g>
					<g>
						<g>
							<g>
								<path class="st3" d="M198.5,395.6c0,0.1,0,0.2-0.1,0.3c-0.2,0.3-0.5,0.4-0.8,0.2l-23.9-13.6c-0.3-0.2-0.4-0.5-0.2-0.8
									s0.5-0.4,0.8-0.2l23.9,13.6C198.4,395.2,198.5,395.4,198.5,395.6z"/>
							</g>
						</g>
					</g>
					<g>
						<g>
							<g>
								<path class="st3" d="M199.6,416.4c0,0.1,0,0.2-0.1,0.3l-13.6,24.8c-0.2,0.3-0.5,0.4-0.8,0.2s-0.4-0.5-0.2-0.8l13.6-24.8
									c0.2-0.3,0.5-0.4,0.8-0.2C199.5,416,199.6,416.2,199.6,416.4z"/>
							</g>
						</g>
					</g>
				</g>
			</g>
		</g>
		<g>
			<g>
				<g>
					<g>
						<path class="st4" d="M491.9,405.8c-1.2,0.6-1.8,0.9-1.8,0.9c-0.1-0.9-0.2-1.8-0.3-2.7c-18.3-156.4,136.7-222.9,136.7-222.9
							C653.8,322.3,510,397,491.9,405.8z"/>
					</g>
				</g>
				<g>
					<g>
						<path class="st3" d="M491.9,405.8c-1.2,0.6-1.8,0.9-1.8,0.9c-0.1-0.9-0.2-1.8-0.3-2.7c17-29.3,34.2-58.5,51.6-87.6
							c9-15.1,18.1-30.1,27.3-45l6.9-11.2l7-11.1c2.3-3.7,4.8-7.4,7.2-11c1.2-1.8,2.4-3.6,3.7-5.5l3.7-5.4l-3.6,5.5
							c-1.2,1.8-2.4,3.7-3.6,5.5c-2.3,3.7-4.7,7.4-7,11.1l-6.9,11.2l-6.8,11.3c-9,15.1-17.9,30.2-26.7,45.3
							C525.5,346.5,508.6,376.1,491.9,405.8z"/>
					</g>
				</g>
				<g>
					<g>
						<g>
							<g>
								<path class="st3" d="M588.1,257.2c-0.1-0.1-0.2-0.2-0.2-0.3c-0.1-0.3,0.1-0.7,0.4-0.7c8.5-2.1,16.7-5.9,23.7-11.1
									c0.3-0.2,0.7-0.1,0.9,0.1c0.2,0.3,0.1,0.7-0.1,0.9c-7.2,5.2-15.5,9.1-24.1,11.3C588.5,257.4,588.3,257.3,588.1,257.2z"/>
							</g>
						</g>
					</g>
					<g>
						<g>
							<g>
								<path class="st3" d="M562.7,302.5c-0.1-0.1-0.2-0.2-0.2-0.3c-0.1-0.3,0.1-0.7,0.4-0.8c9.2-3.1,18.6-5.5,28.2-7
									c0.3-0.1,0.6,0.2,0.7,0.5c0.1,0.3-0.2,0.6-0.5,0.7c-9.5,1.6-18.9,3.9-28,7C563,302.7,562.8,302.7,562.7,302.5z"/>
							</g>
						</g>
					</g>
					<g>
						<g>
							<g>
								<path class="st3" d="M543,296c-0.1-0.1-0.2-0.2-0.2-0.3c-3.6-10.5-5.4-21.4-5.4-32.5c0-0.3,0.3-0.6,0.6-0.6s0.6,0.3,0.6,0.6
									c0,10.9,1.8,21.7,5.3,32.1c0.1,0.3-0.1,0.7-0.4,0.8C543.3,296.1,543.1,296.1,543,296z"/>
							</g>
						</g>
					</g>
					<g>
						<g>
							<g>
								<path class="st3" d="M575.2,251.5c-0.2-0.1-0.3-0.3-0.3-0.5l-1.5-26.2c0-0.3,0.2-0.6,0.6-0.6c0.3,0,0.6,0.2,0.6,0.6
									l1.5,26.2c0,0.3-0.2,0.6-0.6,0.6C575.4,251.6,575.3,251.6,575.2,251.5z"/>
							</g>
						</g>
					</g>
					<g>
						<g>
							<g>
								<path class="st3" d="M535.7,349.9c-0.1-0.1-0.2-0.2-0.2-0.3c-0.1-0.3,0.1-0.7,0.4-0.8l26.1-8.3c0.3-0.1,0.7,0.1,0.8,0.4
									s-0.1,0.7-0.4,0.8l-26.2,8.4C536.1,350.1,535.8,350.1,535.7,349.9z"/>
							</g>
						</g>
					</g>
					<g>
						<g>
							<g>
								<path class="st3" d="M519.5,336.7c-0.1-0.1-0.2-0.2-0.2-0.3l-9.1-26.8c-0.1-0.3,0.1-0.7,0.4-0.8c0.3-0.1,0.7,0.1,0.8,0.4
									l9.1,26.8c0.1,0.3-0.1,0.7-0.4,0.8C519.9,336.8,519.7,336.8,519.5,336.7z"/>
							</g>
						</g>
					</g>
				</g>
			</g>
			<g>
				<g>
					<g>
						<path class="st0" d="M464.5,396c-1.3-0.1-2-0.2-2-0.2c0.4-0.8,0.8-1.7,1.2-2.5c67.7-142.2,234.4-116,234.4-116
							C646,411.4,484.5,398.2,464.5,396z"/>
					</g>
				</g>
				<g>
					<g>
						<path class="st1" d="M464.5,396c-1.3-0.1-2-0.2-2-0.2c0.4-0.8,0.8-1.7,1.2-2.5c30-15.8,60.1-31.3,90.3-46.7
							c15.6-7.9,31.3-15.8,47.1-23.6l11.8-5.8l11.9-5.7c4-1.9,8-3.7,11.9-5.5c2-0.9,4-1.8,6-2.7l6-2.6l-6,2.7c-2,0.9-4,1.8-6,2.8
							c-3.9,1.9-7.9,3.8-11.9,5.7l-11.8,5.8l-11.7,5.9c-15.6,8-31.2,16-46.7,24.2C524.4,363.7,494.4,379.8,464.5,396z"/>
					</g>
				</g>
				<g>
					<g>
						<g>
							<g>
								<path class="st1" d="M625,321.4c0-0.1,0-0.3,0-0.4c0.1-0.3,0.5-0.5,0.8-0.4c8.3,2.7,17.3,3.8,26,3.2c0.3,0,0.6,0.2,0.7,0.6
									c0,0.3-0.2,0.6-0.6,0.7c-8.9,0.6-18-0.5-26.4-3.3C625.2,321.8,625.1,321.6,625,321.4z"/>
							</g>
						</g>
					</g>
					<g>
						<g>
							<g>
								<path class="st1" d="M579.3,346.3c0-0.1,0-0.2,0-0.3c0.1-0.3,0.4-0.5,0.7-0.5c9.4,2.3,18.7,5.3,27.6,9.1
									c0.3,0.1,0.5,0.5,0.3,0.8c-0.1,0.3-0.5,0.5-0.8,0.3c-8.9-3.7-18.1-6.8-27.4-9C579.6,346.6,579.4,346.5,579.3,346.3z"/>
							</g>
						</g>
					</g>
					<g>
						<g>
							<g>
								<path class="st1" d="M566.1,330.2c0-0.1-0.1-0.2,0-0.4c2.5-10.8,6.8-21,12.7-30.4c0.2-0.3,0.6-0.4,0.8-0.2
									c0.3,0.2,0.4,0.6,0.2,0.8c-5.8,9.3-10,19.4-12.5,30c-0.1,0.3-0.4,0.5-0.7,0.5C566.4,330.6,566.2,330.4,566.1,330.2z"/>
							</g>
						</g>
					</g>
					<g>
						<g>
							<g>
								<path class="st1" d="M617,309.7c-0.1-0.2-0.1-0.4,0-0.6l12.7-22.9c0.2-0.3,0.5-0.4,0.8-0.2c0.3,0.2,0.4,0.5,0.2,0.8
									L618,309.7c-0.2,0.3-0.5,0.4-0.8,0.2C617.2,309.9,617.1,309.8,617,309.7z"/>
							</g>
						</g>
					</g>
					<g>
						<g>
							<g>
								<path class="st1" d="M531.3,372c0-0.1,0-0.2,0-0.3c0.1-0.3,0.4-0.5,0.7-0.4l26.6,6.8c0.3,0.1,0.5,0.4,0.4,0.7
									c-0.1,0.3-0.4,0.5-0.7,0.4l-26.6-6.8C531.5,372.4,531.3,372.2,531.3,372z"/>
							</g>
						</g>
					</g>
					<g>
						<g>
							<g>
								<path class="st1" d="M524.7,352.2c0-0.1,0-0.2,0-0.3l6.6-27.5c0.1-0.3,0.4-0.5,0.7-0.5c0.3,0.1,0.5,0.4,0.5,0.7l-6.6,27.5
									c-0.1,0.3-0.4,0.5-0.7,0.5C524.9,352.6,524.7,352.4,524.7,352.2z"/>
							</g>
						</g>
					</g>
				</g>
			</g>
			<g>
				<g>
					<g>
						<path class="st2" d="M405.6,392.7c-1-0.9-1.5-1.3-1.5-1.3c0.8-0.5,1.6-0.9,2.4-1.4c136-79.3,259,36.3,259,36.3
							C546.8,507.6,420.8,405.7,405.6,392.7z"/>
					</g>
				</g>
				<g>
					<g>
						<path class="st3" d="M405.6,392.7c-1-0.9-1.5-1.3-1.5-1.3c0.8-0.5,1.6-0.9,2.4-1.4c33.7,3.9,67.3,8,100.9,12.3
							c17.4,2.2,34.8,4.6,52.2,7.1l13,1.9l13,2c4.3,0.7,8.7,1.4,13,2.1c2.2,0.3,4.3,0.8,6.5,1.2l6.5,1.2l-6.5-1.1
							c-2.2-0.4-4.3-0.8-6.5-1.1c-4.3-0.7-8.7-1.4-13-2l-13-1.8l-13-1.7c-17.4-2.2-34.8-4.3-52.2-6.4
							C473.3,399.8,439.5,396.1,405.6,392.7z"/>
					</g>
				</g>
				<g>
					<g>
						<g>
							<g>
								<path class="st3" d="M580.2,421.5c0-0.1,0.1-0.2,0.2-0.3c0.3-0.2,0.7-0.2,0.9,0.1c5.3,6.9,12.1,12.9,19.6,17.3
									c0.3,0.2,0.4,0.5,0.2,0.8s-0.5,0.4-0.8,0.2c-7.7-4.5-14.6-10.6-20-17.6C580.2,421.9,580.2,421.7,580.2,421.5z"/>
							</g>
						</g>
					</g>
					<g>
						<g>
							<g>
								<path class="st3" d="M528.5,416.3c0-0.1,0.1-0.2,0.2-0.3c0.3-0.2,0.6-0.2,0.9,0c6.5,7.2,12.5,14.9,17.7,23
									c0.2,0.3,0.1,0.7-0.2,0.8c-0.3,0.2-0.7,0.1-0.8-0.2c-5.2-8.1-11.1-15.8-17.6-22.9C528.5,416.7,528.4,416.5,528.5,416.3z"/>
							</g>
						</g>
					</g>
					<g>
						<g>
							<g>
								<path class="st3" d="M526.6,395.6c0-0.1,0.1-0.2,0.2-0.3c8.2-7.5,17.5-13.5,27.6-17.9c0.3-0.1,0.7,0,0.8,0.3s0,0.7-0.3,0.8
									c-10,4.4-19.2,10.3-27.3,17.7c-0.2,0.2-0.6,0.2-0.9,0C526.6,396,526.6,395.8,526.6,395.6z"/>
							</g>
						</g>
					</g>
					<g>
						<g>
							<g>
								<path class="st3" d="M580.2,407.3c0-0.2,0.1-0.4,0.3-0.5l23.4-11.8c0.3-0.2,0.7,0,0.8,0.3c0.2,0.3,0,0.7-0.3,0.8L581,407.9
									c-0.3,0.2-0.7,0-0.8-0.3C580.3,407.5,580.2,407.4,580.2,407.3z"/>
							</g>
						</g>
					</g>
					<g>
						<g>
							<g>
								<path class="st3" d="M474.3,410.5c0-0.1,0.1-0.2,0.2-0.3c0.3-0.2,0.6-0.2,0.9,0.1l18.1,20.6c0.2,0.3,0.2,0.6-0.1,0.9
									c-0.3,0.2-0.6,0.2-0.9-0.1l-18.1-20.6C474.3,410.9,474.2,410.6,474.3,410.5z"/>
							</g>
						</g>
					</g>
					<g>
						<g>
							<g>
								<path class="st3" d="M480,390.3c0-0.1,0.1-0.2,0.2-0.3l20.9-19c0.3-0.2,0.6-0.2,0.9,0c0.2,0.3,0.2,0.6,0,0.9l-20.9,19
									c-0.3,0.2-0.6,0.2-0.9,0C480,390.8,479.9,390.5,480,390.3z"/>
							</g>
						</g>
					</g>
				</g>
			</g>
		</g>
		<g>
			<g>
				<g>
					<path class="st0" d="M114.1,445.3L114.1,445.3c0,12.6,7.8,22.8,17.5,22.8h438c9.7,0,17.5-10.2,17.5-22.8l0,0H114.1z"/>
				</g>
			</g>
			<g>
				<g>
					<rect x="160.8" y="187.9" class="st4" width="379.5" height="238.3"/>
				</g>
			</g>
			<g>
				<g>
					<path class="st1" d="M547,162.7H154.2c-7.3,0-13.3,5.9-13.3,13.3v251.6c0,7.3,5.9,13.3,13.3,13.3H547c7.3,0,13.3-5.9,13.3-13.3
						V176C560.2,168.7,554.3,162.7,547,162.7z"/>
				</g>
			</g>
			<g>
				<g>
					<rect x="160.8" y="182.6" class="st3" width="379.5" height="238.3"/>
				</g>
			</g>
			<g>
				<g>
					<g>
						<polygon class="st5" points="295.8,445.3 200.4,445.3 200.7,441 201.2,435.8 295.1,435.8 						"/>
					</g>
				</g>
				<g>
					<g>
						<polygon class="st5" points="500.7,445.3 405.3,445.3 405.7,441 406.1,435.8 500,435.8 						"/>
					</g>
				</g>
			</g>
		</g>
		<g>
			<g>
				<g>
					<g>
						<g>
							<polygon class="st6" points="334.7,388.9 334.7,410 304.8,388.9 							"/>
						</g>
					</g>
					<g>
						<g>
							<rect x="104.3" y="311.1" class="st6" width="230.4" height="79.4"/>
						</g>
					</g>
					<g>
						<g>
							<g>
								<rect x="192.1" y="324.7" class="st3" width="71" height="6"/>
							</g>
						</g>
						<g>
							<g>
								<rect x="266.9" y="324.7" class="st3" width="40.2" height="6"/>
							</g>
						</g>
						<g>
							<g>
								<rect x="306.7" y="324.7" class="st3" width="11.3" height="6"/>
							</g>
						</g>
						<g>
							<g>
								<rect x="192.1" y="340.1" class="st3" width="48.9" height="6"/>
							</g>
						</g>
						<g>
							<g>
								<rect x="244.8" y="340.1" class="st3" width="46" height="6"/>
							</g>
						</g>
						<g>
							<g>
								<rect x="294.6" y="340.1" class="st3" width="23.5" height="6"/>
							</g>
						</g>
						<g>
							<g>
								<rect x="192.1" y="355.5" class="st3" width="43.2" height="6"/>
							</g>
						</g>
						<g>
							<g>
								<rect x="232" y="355.5" class="st3" width="21.2" height="6"/>
							</g>
						</g>
						<g>
							<g>
								<rect x="257" y="355.5" class="st3" width="43.5" height="6"/>
							</g>
						</g>
						<g>
							<g>
								<rect x="304.3" y="355.5" class="st3" width="13.7" height="6"/>
							</g>
						</g>
						<g>
							<g>
								<rect x="192.1" y="371" class="st3" width="48.6" height="6"/>
							</g>
						</g>
						<g>
							<g>
								<rect x="244.5" y="371" class="st3" width="50.1" height="6"/>
							</g>
						</g>
					</g>
				</g>
				<g>
					<g>
						
							<ellipse transform="matrix(0.2228 -0.9749 0.9749 0.2228 -225.403 419.0755)" class="st3" cx="150.1" cy="350.9" rx="29.2" ry="29.2"/>
					</g>
				</g>
				<g>
					<g>
						<defs>
							<path id="SVGID_1_" d="M186.5,337.4c-3.5,0-6.7,0.8-9.5,2.1c-4.4-10.5-14.8-17.9-26.9-17.9c-16.1,0-29.2,13.1-29.2,29.2
								S134,380,150.1,380c10,0,18.9-5.1,24.1-12.8c3.4,2.3,7.6,3.7,12.3,3.7c10.8,0,19.5-7.5,19.5-16.8S197.3,337.4,186.5,337.4z"
								/>
						</defs>
						<clipPath id="SVGID_2_">
							<use xlink:href="#SVGID_1_"  style="overflow:visible;"/>
						</clipPath>
						<g class="st7">
							<g>
								<g>
									<path class="st1" d="M160.5,458.9h12.8c0-0.4-0.1-0.9-0.4-1.2c-0.3-0.4-0.8-0.6-1.3-0.7c-0.5-0.1-1-0.1-1.5-0.1
										c-1.2-0.1-2.4-0.4-3.5-1c-0.6-0.3-1.1-0.7-1.7-0.9l-3.5,0.1c-0.5,0.5-0.8,1.2-0.9,1.9C160.5,457.6,160.5,458.2,160.5,458.9
										z"/>
								</g>
							</g>
							<g>
								<g>
									<polygon class="st8" points="160.6,451.3 161.5,455.1 165,455 164.8,450.9 									"/>
								</g>
							</g>
							<g>
								<g>
									<path class="st0" d="M166,418.9c0.1-2.4-0.2-4.9-0.6-7.3c-1.7-8.2-4.8-24.1-4.8-24.1c-0.5-3.4-3.3-4.4-6.7-3.9
										c-2,0.3-20.7,4.1-20.6,4.3l4.1,63.3l5.2-0.2l5.6-49.9l8.5,15.7l0,0l3.6,34.5l5-0.3L166,418.9z"/>
								</g>
							</g>
							<g>
								<g>
									<path class="st1" d="M137.1,458.9h12.8c0-0.4-0.1-0.9-0.4-1.2c-0.3-0.4-0.8-0.6-1.3-0.7c-0.5-0.1-1-0.1-1.5-0.1
										c-1.2-0.1-2.4-0.4-3.5-1c-0.6-0.3-1.1-0.7-1.7-0.9l-3.5,0.1c-0.5,0.5-0.8,1.2-0.9,1.9C137.1,457.6,137,458.2,137.1,458.9z"
										/>
								</g>
							</g>
							<g>
								<g>
									<polygon class="st8" points="137.7,451.2 138.1,455.1 141.6,455 142.2,451 									"/>
								</g>
							</g>
							<g>
								<g>
									<g>
										<g>
											<path class="st9" d="M189.3,339c-0.7-0.1-1.3,0.3-1.5,0.9c-0.5,1.8-1.1,3.5-1.9,5.1c-0.8,1.6-1.7,3.1-2.8,4.3
												c-1.1,1.2-2.4,2.1-3.8,2.6c-0.7,0.3-1.4,0.4-2.2,0.5s-1.5,0.1-2.3,0.1c-1.6-0.1-3.2-0.4-4.9-0.9
												c-1.6-0.5-3.3-1.1-4.9-1.9c-1.6-0.7-3.2-1.6-4.8-2.5s-3.1-1.8-4.6-2.9c-1-0.6-2.1-0.7-3.2-0.4c-1.1,0.3-2.1,1-2.8,2.1
												l0,0c-0.7,1.1-0.8,2.4-0.5,3.5s1,2.1,2.2,2.7c1.8,0.8,3.6,1.6,5.5,2.4c1.9,0.7,3.8,1.4,5.7,2c2,0.6,4,1.1,6.1,1.4
												s4.2,0.4,6.5,0.2c1.1-0.1,2.2-0.3,3.3-0.6c1.1-0.3,2.2-0.8,3.2-1.3c2-1.1,3.7-2.7,4.9-4.5s2.1-3.7,2.7-5.7
												c0.6-1.9,1-3.9,1.2-5.8C190.5,339.7,190,339.1,189.3,339z"/>
										</g>
									</g>
								</g>
								<g>
									<g>
										<path class="st6" d="M163.1,360.2l-10.6-5.5c-3.2-1.6-4.7-5.4-3-8.6l0,0c1.6-3.2,5.8-4.6,9-3l10.6,5.5L163.1,360.2z"/>
									</g>
								</g>
							</g>
							<g>
								<g>
									<path class="st6" d="M147.4,342.5L147.4,342.5c7-0.6,13.1,4.9,13.1,11.9l0.2,33.1c-11.2,5.4-17.5,3.6-27.4,0.4l0.7-31.1
										C134.1,349.3,139.9,343.2,147.4,342.5z"/>
								</g>
							</g>
							<g>
								<g>
									<path class="st3" d="M160.7,354.4c0-6.7-5.5-12.2-12.2-12.2c-0.4,0-0.7,0-1.1,0c-0.2,0-0.4,0-0.5,0.1c0,0.1,0,0.2,0,0.2
										c0.2,0,0.4,0,0.6-0.1c0.4,0,0.7,0,1.1,0C155.1,342.4,160.6,347.7,160.7,354.4l0,12.1h0.2L160.7,354.4z M145.5,390.9v0.2
										c0.7,0.1,1.3,0.1,2,0.1c1.5,0,2.9-0.1,4.4-0.4l-0.1-0.2C149.6,391,147.5,391.1,145.5,390.9z M133.7,356.8l-0.2,7.5h0.2
										l0.2-7.5c0.1-3.8,1.7-7.3,4.2-9.9c-0.1-0.1-0.1-0.1-0.2-0.2C135.4,349.4,133.8,352.9,133.7,356.8z M133.4,380.9h-0.2
										l-0.2,7.2l0.2,0.1c1.2,0.4,2.4,0.8,3.5,1.1c0-0.1,0-0.2,0-0.2c-1.1-0.3-2.2-0.7-3.4-1.1L133.4,380.9z M160.8,375.7h-0.2
										l0.1,11.8c-0.8,0.4-1.5,0.7-2.2,1l0.1,0.2c0.7-0.3,1.5-0.7,2.3-1l0.1-0.1L160.8,375.7z"/>
								</g>
							</g>
							<g>
								<g>
									<g>
										<path class="st8" d="M150.8,338.7l-0.3,8.6c-1.9,1.2-3.8,1.1-5.6-0.2l0.3-8.6L150.8,338.7z"/>
									</g>
								</g>
								<g>
									<g>
										<path class="st9" d="M150.8,338.7l-0.1,3.9c-0.4,0.1-0.8,0.2-1.3,0.2c-0.1,0-0.3,0-0.4,0c-1.5,0-3-0.8-3.8-2l0.1-2.3
											L150.8,338.7z"/>
									</g>
								</g>
								<g>
									<g>
										<path class="st8" d="M153.5,333.6l-0.3,5c-0.1,2-1.7,3.6-3.7,3.7l0,0c-1.8,0.1-3.5-0.9-4.3-2.6c-0.5-1.1-0.9-2.4-1.3-3.7
											c-0.7-2.1-0.1-4.5,1.5-6.1c1.4-1.3,3-1.7,5-1.1C152.3,329.5,153.7,331.5,153.5,333.6z"/>
									</g>
								</g>
							</g>
							<g>
								<g>
									<g>
										<g>
											<path class="st8" d="M147.1,399.5c0.5-0.5,0.7-1.1,0.4-1.7c-0.9-1.6-1.6-3.3-2.1-5.1c-0.6-1.8-1-3.6-1.3-5.4
												c-0.1-0.5-0.2-0.9-0.2-1.4l-0.2-1.4l-0.1-1.4c0-0.5-0.1-0.9-0.1-1.4V381v-0.7c0-0.5,0-0.9,0-1.4c0-0.9,0-1.9,0-2.8
												c0.1-7.5,1.3-15,3.1-22.3c0.1-0.3,0.1-0.6,0.1-0.9s0-0.6-0.1-0.8c-0.1-0.6-0.3-1.1-0.7-1.6c-0.7-0.9-1.7-1.7-3-1.9l0,0
												c-1.3-0.3-2.5,0-3.5,0.7c-0.5,0.3-0.9,0.8-1.2,1.3c-0.2,0.3-0.3,0.5-0.4,0.8c-0.1,0.3-0.2,0.6-0.2,0.9
												c-0.8,8-1,16.1,0,24.1c0.1,1,0.3,2,0.4,3c0.1,0.5,0.2,1,0.3,1.5l0.1,0.7l0.2,0.7c0.1,0.5,0.2,1,0.3,1.5l0.4,1.5l0.4,1.5
												c0.1,0.5,0.3,1,0.4,1.5c0.6,1.9,1.3,3.8,2.2,5.7c0.9,1.8,1.9,3.6,3.2,5.3C145.7,399.8,146.6,399.9,147.1,399.5z"/>
										</g>
									</g>
								</g>
								<g>
									<g>
										<path class="st6" d="M134.7,366.2l1.1-11.8c0.3-3.6,3.3-6.3,6.9-6l0,0c3.6,0.3,6.4,3.6,6.1,7.2l-1.1,11.8L134.7,366.2z"/>
									</g>
								</g>
								<g>
									<g>
										<path class="st3" d="M142.7,348.2c-0.2,0-0.4,0-0.6,0c-2.1,0-4.1,1.1-5.3,2.8l0.2,0.1c1.2-1.8,3.3-2.9,5.7-2.7
											c1.7,0.2,3.3,1,4.4,2.3l0.2-0.1C146.1,349.2,144.4,348.3,142.7,348.2z M148.5,358.1l-0.6,6h0.2l0.6-6H148.5z M147.6,367.5
											l-7-0.7v0.2l7.3,0.7l0.1-1.1h-0.2L147.6,367.5z M135.2,357.9l-0.7,6.8h0.2l0.7-6.9h-0.2V357.9z"/>
									</g>
								</g>
							</g>
							<g>
								<g>
									<g>
										<path class="st1" d="M152.5,330.9c0,0,1,1.7,0.9,4.7c0,0,0.6-3.1,0-5.5L152.5,330.9z"/>
									</g>
								</g>
								<g>
									<g>
										<path class="st1" d="M142,336c0,0-2.8-4,0-7.2c3-3.4,5-3.1,7.2-2.6c2.7,0.7,4.2,1.6,5.3,1.3c0.6-0.1,1-0.6,1.1-0.3
											c0.1,0.3,0.3,2.2-1.3,3.6c-1.5,1.4-3.6,1.3-5.6,0.3s-3-0.8-3.8,0.4c-0.9,1.3,0.4,3.7,0.4,3.7l-0.6,0.2
											C144.6,335.6,142.3,334.3,142,336z"/>
									</g>
								</g>
							</g>
							<g>
								<g>
									<path class="st8" d="M145.9,335.6c0,1-1,1.8-2.1,1.8c-1.2,0-2.1-0.9-2-1.9s1-1.8,2.1-1.8S146,334.6,145.9,335.6z"/>
								</g>
							</g>
						</g>
					</g>
				</g>
			</g>
			<g>
				<g>
					<g>
						<g>
							<polygon class="st4" points="334.7,274 334.7,295.1 304.8,274 							"/>
						</g>
					</g>
					<g>
						<g>
							<rect x="104.3" y="196.2" class="st4" width="230.4" height="79.4"/>
						</g>
					</g>
					<g>
						<g>
							<g>
								<rect x="192.1" y="209.8" class="st3" width="71" height="6"/>
							</g>
						</g>
						<g>
							<g>
								<rect x="266.9" y="209.8" class="st3" width="40.2" height="6"/>
							</g>
						</g>
						<g>
							<g>
								<rect x="306.7" y="209.8" class="st3" width="11.3" height="6"/>
							</g>
						</g>
						<g>
							<g>
								<rect x="192.1" y="225.2" class="st3" width="48.9" height="6"/>
							</g>
						</g>
						<g>
							<g>
								<rect x="244.8" y="225.2" class="st3" width="46" height="6"/>
							</g>
						</g>
						<g>
							<g>
								<rect x="294.6" y="225.2" class="st3" width="23.5" height="6"/>
							</g>
						</g>
						<g>
							<g>
								<rect x="192.1" y="240.7" class="st3" width="43.2" height="6"/>
							</g>
						</g>
						<g>
							<g>
								<rect x="232" y="240.7" class="st3" width="21.2" height="6"/>
							</g>
						</g>
						<g>
							<g>
								<rect x="257" y="240.7" class="st3" width="43.5" height="6"/>
							</g>
						</g>
						<g>
							<g>
								<rect x="304.3" y="240.7" class="st3" width="13.7" height="6"/>
							</g>
						</g>
						<g>
							<g>
								<rect x="192.1" y="256.1" class="st3" width="48.6" height="6"/>
							</g>
						</g>
						<g>
							<g>
								<rect x="244.5" y="256.1" class="st3" width="50.1" height="6"/>
							</g>
						</g>
					</g>
				</g>
				<g>
					<g>
						
							<ellipse transform="matrix(0.7071 -0.7071 0.7071 0.7071 -122.8946 175.2405)" class="st3" cx="150.1" cy="236" rx="29.2" ry="29.2"/>
					</g>
				</g>
				<g>
					<g>
						<defs>
							<path id="SVGID_3_" d="M186.5,222.6c-3.5,0-6.7,0.8-9.5,2.1c-4.4-10.5-14.8-17.9-26.9-17.9c-16.1,0-29.2,13.1-29.2,29.2
								s13.1,29.2,29.2,29.2c10,0,18.9-5.1,24.1-12.8c3.4,2.3,7.6,3.7,12.3,3.7c10.8,0,19.5-7.5,19.5-16.8
								C206,230.1,197.3,222.6,186.5,222.6z"/>
						</defs>
						<clipPath id="SVGID_4_">
							<use xlink:href="#SVGID_3_"  style="overflow:visible;"/>
						</clipPath>
						<g class="st10">
							<g>
								<g>
									<path class="st1" d="M158,218.1c0.2-2.4-1.4-4.7-3.8-5.2c-1.3-0.3-2.5,0-3.6,0.6c-0.6-0.5-1.4-0.9-2.2-1.1
										c-2.3-0.5-4.6,0.7-5.5,2.8c-1.9,0.3-3.5,1.8-3.9,3.8c-0.2,1.1-0.1,2.1,0.3,3c-1.4,0.6-2.5,1.9-2.9,3.5
										c-0.5,2.4,0.8,4.7,2.9,5.6c0,0.1-0.1,0.3-0.1,0.5c-0.6,2.6,1.1,5.3,3.7,5.8c1.4,0.3,2.9,0,4-0.8c0.1,0,0.1,0,0.2,0
										c0.8,0.2,1.6,0.1,2.4-0.1c0.6,0.5,1.3,0.9,2.1,1c2.6,0.6,5.3-1.1,5.8-3.7c0.2-0.7,0.1-1.5,0-2.2c0.4-0.6,0.8-1.2,0.9-2
										c0.3-1.3,0-2.5-0.6-3.6c1-0.7,1.7-1.7,2-3C160.1,221.1,159.4,219.2,158,218.1z"/>
								</g>
							</g>
							<g>
								<g>
									<g>
										<g>
											<path class="st9" d="M184.5,267.7c-0.2-0.7-0.8-1.1-1.4-1c-3.6,0.5-7.4,0.2-10.7-0.9c-1.6-0.6-3.1-1.4-4.4-2.5
												c-0.7-0.5-1.3-1.1-1.8-1.7c-0.6-0.6-1.1-1.3-1.5-2c-0.5-0.7-0.9-1.4-1.2-2.2l-0.1-0.3l-0.1-0.3c-0.1-0.2-0.2-0.4-0.3-0.6
												c-0.2-0.4-0.3-0.8-0.4-1.2c-0.6-1.6-1-3.3-1.3-5c-0.6-3.5-0.6-7.1-0.4-10.7c0-0.6-0.1-1.1-0.3-1.6
												c-0.1-0.3-0.2-0.5-0.4-0.7s-0.3-0.4-0.5-0.7c-0.8-0.8-1.9-1.4-3.2-1.4s-2.5,0.4-3.3,1.3c-0.2,0.2-0.4,0.4-0.6,0.7
												c-0.2,0.3-0.3,0.5-0.4,0.8c-0.2,0.6-0.3,1.2-0.3,1.8c0.2,2.1,0.4,4.1,0.8,6.2c0.4,2.1,0.8,4.1,1.5,6.1c0.6,2,1.4,4,2.4,6
												c0.2,0.5,0.5,1,0.8,1.4c0.1,0.2,0.3,0.5,0.4,0.7l0.2,0.3l0.2,0.3c0.6,0.9,1.3,1.8,2,2.6c1.5,1.7,3.2,3.1,5.1,4.2
												c1.9,1.1,4,1.9,6.1,2.3s4.2,0.6,6.3,0.5s4.1-0.5,6.1-1C184.3,269.1,184.7,268.4,184.5,267.7z"/>
										</g>
									</g>
								</g>
								<g>
									<g>
										<path class="st4" d="M163.1,250.4l-0.8-10.3c-0.2-3.1-2.7-5.5-5.8-5.3l0,0c-3.1,0.2-5.7,3-5.4,6.2l0.8,10.3L163.1,250.4z"
											/>
									</g>
								</g>
							</g>
							<g>
								<g>
									<path class="st1" d="M149.6,343.7c-0.2-0.3-0.6-0.4-0.9-0.5c-0.4-0.1-0.7,0-1.1-0.1c-0.9,0-1.8-0.3-2.6-0.7
										c-0.4-0.2-0.8-0.5-1.2-0.7l-2.6,0.1c-0.4,0.4-0.6,0.9-0.7,1.4c-0.1,0.5-0.1,0.9-0.1,1.4v0.5h9.4v-0.5l0,0
										C149.8,344.3,149.8,344,149.6,343.7z"/>
								</g>
							</g>
							<g>
								<g>
									<polygon class="st8" points="140.9,339 141.2,341.8 143.8,341.7 144,339.1 									"/>
								</g>
							</g>
							<g>
								<g>
									<path class="st0" d="M151.7,283.9c2.5,6.4,5.8,12.2,9.4,16.4l3.9,39.4l12.7-0.7l-5.9-38.5c-0.3-1.7-0.7-3.4-1.2-5.1
										l-9.1-28.2c-1-3.7-20.9-1-20.9-1c-5.5,7.6-2,32-2,32l-2.9,40.9l13.5,0.2l-0.1-40.5L151.7,283.9z"/>
								</g>
							</g>
							<g>
								<g>
									<polygon class="st8" points="170,339.4 170.8,341.8 173.3,341.7 172.9,339.2 									"/>
								</g>
							</g>
							<g>
								<g>
									<path class="st1" d="M179.1,343.7c-0.2-0.3-0.6-0.4-0.9-0.5c-0.4-0.1-0.7,0-1.1-0.1c-0.9,0-1.8-0.3-2.6-0.7
										c-0.4-0.2-0.8-0.5-1.2-0.7l-2.6,0.1c-0.4,0.4-0.6,0.9-0.7,1.4c-0.1,0.5-0.1,0.9-0.1,1.4v0.5h9.4v-0.5l0,0
										C179.4,344.3,179.3,344,179.1,343.7z"/>
								</g>
							</g>
							<g>
								<g>
									<path class="st4" d="M148.6,232.4L148.6,232.4c7.8-0.5,14.2,6.1,13.5,14l-0.5,20.7c-8.5,3.6-15.2,1.8-20.9-1l-2-21.6
										C137.8,238.3,142.4,232.8,148.6,232.4z"/>
								</g>
							</g>
							<g>
								<g>
									<path class="st0" d="M140.8,236.1c-0.8,0.9-1.3,1.9-1.8,3c0.1,0,0.2,0,0.2,0c1.1-2.8,3.3-5,6.1-6.1v-0.2
										C143.6,233.5,142,234.6,140.8,236.1z M160,267.7c-4.8,1.7-9,1.7-12.7,0.8v0.2c1.7,0.4,3.3,0.6,5,0.6c2.6,0,5.2-0.5,7.8-1.4
										L160,267.7z M159,236.4c-1.4-1.5-3-2.6-4.9-3.4v0.2c5.1,2,8.6,7.2,8.1,13.1v1.8h0.2v-1.8
										C162.7,242.7,161.5,239.1,159,236.4z M161.6,264.2h0.2l0.2-6.7h-0.2L161.6,264.2z M140.7,266.1l-0.5-5l-0.2,0.1l0.5,5
										l0.1,0.1c0.8,0.4,1.5,0.7,2.2,1v-0.2C142.1,266.7,141.4,266.4,140.7,266.1z"/>
								</g>
							</g>
							<g>
								<g>
									<g>
										<path class="st8" d="M152.5,228v7.9c-1.7,1.1-3.4,1.1-5.1,0V228H152.5z"/>
									</g>
								</g>
								<g>
									<g>
										<path class="st9" d="M152.5,228.7v2c-0.8,0.5-1.7,0.7-2.6,0.8c-0.1,0-0.1,0-0.2,0c-0.9,0-1.7-0.3-2.4-0.9v-1.8
											L152.5,228.7z"/>
									</g>
								</g>
								<g>
									<g>
										<path class="st8" d="M154.6,220.6l-0.1,4.6v1c-0.1,2.5-2.1,4.6-4.7,4.7c-0.3,0-0.5,0-0.8-0.1c-0.1,0-0.2-0.1-0.3-0.1
											c0,0,0,0-0.1,0c-0.4-0.1-0.7-0.4-1-0.6c-0.6-0.6-1-1.3-1.4-2.1c-0.3-0.6-0.6-1.3-0.8-1.9c-0.2-0.8-0.4-1.6-0.3-2.4l0.1-4
											l7.8-1L154.6,220.6z"/>
									</g>
								</g>
								<g>
									<g>
										<path class="st1" d="M156.2,221.8c0-0.5-0.5-1.7-0.5-1.7s-0.4-0.5-1-0.8c-0.2-0.1-0.4-0.1-0.6-0.1
											c-0.3-0.3-0.6-0.6-0.9-0.7c-1.8-1-4.3-1.1-5.6-0.5c-0.9,0.4-2.7,0.6-2.4,1c-0.6,0-0.2,0.8-0.7,2.4
											c-0.4,1.5-0.3,3.9,0.4,4.4s1.8,0.3,1.1-1.5c0,0,0-0.1,0-0.2c0.3-0.1,0.6-0.3,0.8-0.5c0.3-0.4,0.4-0.8,0.5-1.3
											s0.1-0.9,0.2-1.4c0.2-0.6,0.6-1.1,1-1.4c0.1,0,0.1-0.1,0.2-0.1c0.2,0.1,0.3,0.2,0.4,0.2c0.5,0.4,0.8,1,1.2,1.6
											c0.8,1.1,1.9,1.8,3.2,2.2c0.3,0.1,0.6,0.1,0.9,0.1c0,0.1,0,0.2,0,0.2s1-0.1,1.3-0.6C156.2,222.7,156.2,222.3,156.2,221.8z
											"/>
									</g>
								</g>
								<g>
									<g>
										<ellipse class="st8" cx="145.1" cy="224.6" rx="1.9" ry="1.9"/>
									</g>
								</g>
							</g>
							<g>
								<g>
									<g>
										<g>
											<path class="st8" d="M191.2,246.3c-0.3-0.6-0.9-1-1.5-0.8c-0.9,0.2-1.7,0.4-2.6,0.6c-0.4,0.1-0.9,0.1-1.3,0.2
												c-0.5,0.1-0.9,0.1-1.4,0.2c-1.8,0.2-3.6,0.3-5.4,0.2c-3.6,0-7.2-0.5-10.8-1.2l-0.7-0.1l-0.7-0.1l-1.3-0.3l-1.3-0.3
												c-0.4-0.1-0.9-0.2-1.3-0.4c-0.9-0.3-1.7-0.5-2.6-0.8l-1.3-0.4c-0.4-0.1-0.9-0.3-1.3-0.5c-3.4-1.2-6.7-2.7-9.9-4.3
												c-1-0.5-2.2-0.5-3.2,0c-1,0.4-2,1.3-2.5,2.5l0,0c-0.5,1.2-0.6,2.4-0.2,3.5c0.4,1.1,1.3,2,2.5,2.4
												c3.7,1.3,7.5,2.3,11.4,3.1c0.5,0.1,1,0.2,1.4,0.3l1.5,0.3c1,0.2,1.9,0.3,2.9,0.4c0.5,0.1,1,0.1,1.5,0.2l1.5,0.2l1.5,0.1
												l0.7,0.1h0.7c3.9,0.2,7.9,0.1,11.8-0.4c1.9-0.3,3.9-0.6,5.8-1.1c0.5-0.1,0.9-0.3,1.4-0.4s0.9-0.3,1.4-0.4
												c0.9-0.3,1.9-0.6,2.8-1C191.2,247.7,191.5,246.9,191.2,246.3z"/>
										</g>
									</g>
								</g>
								<g>
									<g>
										<path class="st4" d="M155,251.7l-9.6-3.7c-2.9-1.1-4.5-4.2-3.4-7.1l0,0c1.1-2.9,4.5-4.5,7.5-3.4l9.6,3.7L155,251.7z"/>
									</g>
								</g>
								<g>
									<g>
										<path class="st0" d="M154.1,239.3l4.9,1.9l-0.6,1.6l0.2,0.1l0.7-1.8l-5.2-2L154.1,239.3z M144.9,237.5
											c-1.5,0.7-2.6,1.9-3.2,3.3c-0.1,0.4-0.2,0.8-0.3,1.1h0.2c0.1-0.4,0.2-0.7,0.3-1.1c1-2.7,4-4.3,6.7-3.7v-0.2
											C147.4,236.8,146.1,236.9,144.9,237.5z M145.3,248.2l3.4,1.3v-0.2l-3.3-1.3c-1-0.4-1.8-1-2.4-1.7l-0.2,0.1
											C143.3,247.2,144.2,247.9,145.3,248.2z M152.4,250.8l-0.1,0.2l2.7,1l2.4-6.2l-0.2-0.1l-2.3,6L152.4,250.8z"/>
									</g>
								</g>
							</g>
						</g>
					</g>
				</g>
			</g>
		</g>
		<g>
			<g>
				<g>
					<g>
						<polygon class="st0" points="366.5,341.3 366.5,362.4 396.4,341.3 						"/>
					</g>
				</g>
				<g>
					<g>
						<rect x="366.4" y="263.5" class="st0" width="230.4" height="79.4"/>
					</g>
				</g>
				<g>
					<g>
						<g>
							<rect x="383.1" y="277.1" class="st3" width="71" height="6"/>
						</g>
					</g>
					<g>
						<g>
							<rect x="457.9" y="277.1" class="st3" width="40.2" height="6"/>
						</g>
					</g>
					<g>
						<g>
							<rect x="497.7" y="277.1" class="st3" width="11.3" height="6"/>
						</g>
					</g>
					<g>
						<g>
							<rect x="383.1" y="292.5" class="st3" width="48.9" height="6"/>
						</g>
					</g>
					<g>
						<g>
							<rect x="435.8" y="292.5" class="st3" width="46" height="6"/>
						</g>
					</g>
					<g>
						<g>
							<rect x="485.6" y="292.5" class="st3" width="23.5" height="6"/>
						</g>
					</g>
					<g>
						<g>
							<rect x="383.1" y="307.9" class="st3" width="43.2" height="6"/>
						</g>
					</g>
					<g>
						<g>
							<rect x="423" y="307.9" class="st3" width="21.2" height="6"/>
						</g>
					</g>
					<g>
						<g>
							<rect x="448" y="307.9" class="st3" width="43.5" height="6"/>
						</g>
					</g>
					<g>
						<g>
							<rect x="495.3" y="307.9" class="st3" width="13.7" height="6"/>
						</g>
					</g>
					<g>
						<g>
							<rect x="383.1" y="323.3" class="st3" width="48.6" height="6"/>
						</g>
					</g>
					<g>
						<g>
							<rect x="435.5" y="323.3" class="st3" width="50.1" height="6"/>
						</g>
					</g>
				</g>
			</g>
			<g>
				<g>
					<ellipse class="st3" cx="551" cy="303.2" rx="29.2" ry="29.2"/>
				</g>
			</g>
			<g>
				<g>
					<defs>
						<path id="SVGID_5_" d="M509,272.5c3.5,0,12.3,18.1,15.1,19.5c4.4-10.5,14.8-17.9,26.9-17.9c16.1,0,29.2,13.1,29.2,29.2
							s-13.1,29.2-29.2,29.2c-4.4,0-8.6-1-12.4-2.7c-0.6-0.3-16.7,8.2-17.3,7.9c-4-2.2,8.1-14.1,5.6-17.9c-3.4,2.3-7.6,3.7-12.3,3.7
							c-10.8,0-19.5-7.5-19.5-16.8C495.1,297.3,498.3,272.5,509,272.5z"/>
					</defs>
					<clipPath id="SVGID_6_">
						<use xlink:href="#SVGID_5_"  style="overflow:visible;"/>
					</clipPath>
					<g class="st11">
						<g class="st12">
							<g>
								<polygon class="st4" points="547.2,332.5 547.2,332.5 547.2,332.5 								"/>
							</g>
						</g>
						<g>
							<g>
								<path class="st1" d="M536,402.4c0.2-0.3,0.6-0.5,0.9-0.5c0.4-0.1,0.7-0.1,1.1-0.1c0.9-0.1,1.8-0.4,2.5-0.8
									c0.4-0.2,0.8-0.5,1.2-0.7h2.6c0.4,0.4,0.6,0.9,0.7,1.4c0.1,0.5,0.1,0.9,0.1,1.4v0.5l-9.4,0.3v-0.5l0,0
									C535.7,403,535.8,402.7,536,402.4z"/>
							</g>
						</g>
						<g>
							<g>
								<path class="st8" d="M534.5,360l1.5-7.4l12.1,3l-3.2,6.7l-0.5,35.5l-0.1,2.3h-2.6l-0.4-2.1l-6.9-36l0,0l0,0
									c0-0.2-0.1-0.3-0.1-0.5l0,0C534.3,361.1,534.4,360.6,534.5,360z"/>
							</g>
						</g>
						<g>
							<g>
								<path class="st1" d="M536,352.6l4.8-22.8c0.6-3.8,19.7-0.2,19.7-0.2c3.1,3.9,3.8,9.7,3.9,16.5c0.1,2.6-0.1,5.2-0.4,7.6
									l-14,2.1l-0.1-1.8c-0.3,0.6-0.6,1.2-0.9,1.8L536,352.6z"/>
							</g>
						</g>
						<g class="st12">
							<g>
								<polygon class="st4" points="554,332.5 554,332.5 554,332.5 								"/>
							</g>
						</g>
						<g>
							<g>
								<path class="st1" d="M552.2,403.2c0.2-0.3,0.6-0.4,0.9-0.5c0.4-0.1,0.7,0,1.1-0.1c0.9,0,1.8-0.3,2.5-0.7
									c0.4-0.2,0.8-0.5,1.2-0.7l2.6,0.1c0.4,0.4,0.6,0.9,0.7,1.4c0.1,0.5,0.1,0.9,0.1,1.4v0.5h-9.4v-0.5l0,0
									C551.9,403.7,552,403.4,552.2,403.2z"/>
							</g>
						</g>
						<g>
							<g>
								<polygon class="st8" points="550.7,355.8 563,354 560.5,401.2 558,401.2 								"/>
							</g>
						</g>
						<g>
							<g>
								<path class="st1" d="M550.7,295c0,0,5.6,1.8,6.2-7.4c0,0-2-2-2.2-2.1c-0.1-0.1-3.3,5.7-3.3,5.7L550.7,295z"/>
							</g>
						</g>
						<g>
							<g>
								<g>
									<g>
										<path class="st9" d="M506.9,280.8c0.5-0.4,1.3-0.5,1.7,0l1,1l1,0.9c0.6,0.6,1.3,1.2,2,1.8c1.3,1.2,2.7,2.4,4.1,3.5
											c1.4,1.1,2.8,2.1,4.3,3s2.9,1.6,4.5,2.2c1.5,0.6,3.1,1,4.7,1.3c1.6,0.3,3.3,0.5,5.1,0.6c1.8,0.2,3.6,0.3,5.4,0.4
											c1.8,0.1,3.7,0.3,5.6,0.5c1.2,0.1,2.2,0.8,2.8,1.8s0.9,2.2,0.6,3.4l0,0c-0.3,1.3-1,2.3-1.9,3s-2,1-3.1,0.7
											c-1.7-0.4-3.5-0.8-5.2-1.2c-1.8-0.4-3.6-0.8-5.4-1.2c-1.8-0.4-3.7-0.9-5.6-1.6c-1.9-0.6-3.8-1.4-5.5-2.4
											c-1.8-1-3.4-2.1-4.9-3.4c-1.5-1.2-2.9-2.6-4.2-3.9c-1.3-1.4-2.5-2.8-3.7-4.2c-0.6-0.7-1.2-1.4-1.7-2.2l-0.8-1.1l-0.8-1.1
											C506.2,282,506.3,281.2,506.9,280.8z"/>
									</g>
								</g>
							</g>
							<g>
								<g>
									<path class="st0" d="M532.8,303.8l10.1,1.9c3.1,0.6,6.1-1.2,6.6-4.3l0,0c0.6-3.1-1.5-6.2-4.6-6.8l-10.1-1.9L532.8,303.8z"
										/>
								</g>
							</g>
						</g>
						<g>
							<g>
								<path class="st0" d="M552.7,293.9L552.7,293.9c-7.8-0.5-14.3,6.1-13.6,13.9l1.7,22c5.5,2.4,13.1,1.2,19.7-0.2l2-23.7
									C563.4,299.9,558.9,294.3,552.7,293.9z"/>
							</g>
						</g>
						<g>
							<g>
								<path class="st4" d="M541.2,299.1l0.2,0.1c1.5-2.1,3.6-3.7,6-4.6l-0.1-0.2c-1.9,0.7-3.7,1.9-5.1,3.4
									C541.9,298.3,541.5,298.7,541.2,299.1z M540,322.8l0.6,7.2l0.1,0.1c0.9,0.4,1.8,0.7,2.8,0.9v-0.2c-1-0.2-1.9-0.5-2.7-0.9
									l-0.5-7L540,322.8z M560.5,329.7c-2.7,0.6-5.6,1.1-8.4,1.4v0.2c2.9-0.3,5.9-0.8,8.5-1.4h0.2l0.5-5.6l-0.2-0.1L560.5,329.7z
									 M562.5,306l-0.6,7.2l0.2,0.1l0.6-7.3c0.1-0.7,0.1-1.4,0.1-2.1l-0.2,0.1C562.6,304.7,562.6,305.3,562.5,306z M538.9,307.8
									l0.4,5.3h0.2l-0.4-5.3c-0.2-2.5,0.3-4.8,1.3-6.9l-0.2-0.1C539.1,303,538.7,305.4,538.9,307.8z M557.2,295.2
									c2,1.2,3.6,3,4.6,5.1h0.2c-0.4-1-0.9-1.9-1.6-2.7c-0.9-1.1-1.9-2-3.1-2.6L557.2,295.2z"/>
							</g>
						</g>
						<g>
							<g>
								<g>
									<path class="st8" d="M548.4,291.8l0.3,5.9c1.8,1,3.5,0.9,5.1-0.3l-0.3-5.9L548.4,291.8z"/>
								</g>
							</g>
							<g>
								<g>
									<path class="st9" d="M548.5,292.5l0.1,1.9c0.8,0.4,1.7,0.6,2.7,0.6c0.1,0,0.1,0,0.2,0c0.9-0.1,1.7-0.5,2.3-1.1l-0.1-1.8
										L548.5,292.5z"/>
								</g>
							</g>
							<g>
								<g>
									<path class="st8" d="M545.4,287.2l0.5,1.9l0.4,1c0.3,2.5,2.4,4.4,4.9,4.4c0.3,0,0.5,0,0.8-0.1c0.1,0,0.2-0.1,0.3-0.1
										c0,0,0,0,0.1,0c0.4-0.2,0.7-0.4,0.9-0.7c0.6-0.7,0.9-1.4,1.2-2.2c0.3-0.7,0.5-1.3,0.7-2c0.2-0.8,0.3-1.6,0.2-2.4l-0.3-4.8
										l-7.6,1.7L545.4,287.2z"/>
								</g>
							</g>
							<g>
								<g>
									<path class="st1" d="M546.1,285.6c0,0,0.1-1.6,1-3.3c0.8-1.4,3.6-3.2,6.1-1.7c0.1-0.8,0.5-1.6,1.2-2.1
										c1.4-0.9,3.3-0.5,4.2,0.9c1,1.4,0.7,3.3-0.7,4.3c-0.4,0.3-0.9,0.4-1.3,0.5c0,0.1,0.1,0.2,0.1,0.2c0.4,1.3,0.7,4-0.9,5
										c-0.5,0.3-1.8-0.1-1.9-1.8c0-0.1,0.2-3-0.1-3.8c-0.2,0.3-0.9,0.9-2.7,0.6c-0.9-0.2-1.7-0.1-2.4,0.1c-1,0.8-1.7,1.7-2.5,2.5
										c-0.8,0.7-0.3,1.5,0.2,2.2c0.7,1,0,2.5-0.8,2.9c0,0,1.4-1.4-0.1-2.7C544.4,288.2,545.1,285.9,546.1,285.6z"/>
								</g>
							</g>
							<g>
								<g>
									<path class="st8" d="M553.7,288c0.1,1,1,1.8,2,1.7c1-0.1,1.8-1,1.7-2s-1-1.8-2-1.7C554.4,286.1,553.6,287,553.7,288z"/>
								</g>
							</g>
						</g>
						<g>
							<g>
								<g>
									<g>
										<path class="st8" d="M523.9,332.1c-0.2-0.6,0-1.3,0.6-1.6l1.2-0.5l1.2-0.6c0.8-0.4,1.6-0.8,2.4-1.2
											c1.6-0.8,3.2-1.6,4.7-2.5s3-1.8,4.3-2.9c1.4-1,2.6-2.1,3.7-3.4c1.1-1.2,2.1-2.5,2.9-3.9c0.9-1.4,1.7-2.9,2.5-4.5
											s1.6-3.2,2.4-4.9c0.8-1.7,1.6-3.3,2.5-5c0.6-1,1.6-1.7,2.7-1.9c1.1-0.2,2.4,0,3.4,0.7s1.8,1.7,2.1,2.8
											c0.3,1.1,0.2,2.2-0.5,3.1c-1,1.4-2.1,2.9-3.1,4.4s-2,3-3.1,4.6c-1.1,1.5-2.2,3.1-3.5,4.6s-2.7,3-4.3,4.2
											c-1.6,1.3-3.2,2.4-4.9,3.3s-3.5,1.7-5.2,2.4c-1.8,0.7-3.5,1.3-5.3,1.9c-0.9,0.3-1.8,0.6-2.7,0.8l-1.3,0.4l-1.3,0.4
											C524.8,333.1,524.2,332.7,523.9,332.1z"/>
									</g>
								</g>
							</g>
							<g>
								<g>
									<path class="st0" d="M554.9,316.5l5.5-8.7c1.7-2.6,1.1-6.1-1.6-7.7l0,0c-2.6-1.7-6.4-0.9-8,1.7l-5.5,8.7L554.9,316.5z"/>
								</g>
							</g>
							<g>
								<g>
									<path class="st4" d="M545,310.6l1.7,1.1l0.1-0.2l-1.6-1l1.3-2l-0.2-0.2L545,310.6z M548.1,306.1l2.3-3.6l-0.2-0.1l-2.3,3.6
										L548.1,306.1z M552.2,300l0.1,0.2c1.9-1.3,4.5-1.4,6.5-0.2c1.2,0.7,1.9,1.8,2.3,3.1h0.2c-0.4-1.3-1.2-2.5-2.4-3.2
										c-0.3-0.2-0.6-0.4-1-0.5C556,298.6,553.9,298.9,552.2,300z M548.5,312.5l-0.1,0.2l3.4,2.1l0.1-0.2L548.5,312.5z M560,308.4
										l-4.3,6.8l0.2,0.1l4.3-6.9H560z"/>
								</g>
							</g>
						</g>
					</g>
				</g>
			</g>
		</g>
		<g>
			<g>
				<g>
					<rect x="104.3" y="110.8" class="st4" width="51.7" height="37.6"/>
				</g>
			</g>
			<g>
				<g>
					<polygon class="st0" points="104.3,148.4 104.3,162.7 124.7,148.4 					"/>
				</g>
			</g>
			<g>
				<g>
					<g>
						<rect x="142.5" y="127.5" class="st3" width="4.3" height="4.3"/>
					</g>
				</g>
				<g>
					<g>
						<rect x="132.8" y="127.5" class="st3" width="4.3" height="4.3"/>
					</g>
				</g>
				<g>
					<g>
						<rect x="123.2" y="127.5" class="st3" width="4.3" height="4.3"/>
					</g>
				</g>
				<g>
					<g>
						<rect x="113.5" y="127.5" class="st3" width="4.3" height="4.3"/>
					</g>
				</g>
			</g>
		</g>
		<g>
			<g>
				<g>
					<rect x="545.2" y="110.8" class="st0" width="51.7" height="37.6"/>
				</g>
			</g>
			<g>
				<g>
					<polygon class="st1" points="596.8,148.4 596.8,162.7 576.5,148.4 					"/>
				</g>
			</g>
			<g>
				<g>
					<g>
						<path class="st13" d="M580.5,135c-0.1-0.4-0.3-0.9-0.5-1.3c-0.9-1.2-2.5-1.5-3.8-1.8c-1.7-0.4-2.9-1.4-4-2.7
							c-0.9-1.2-1.8-2.6-2.2-4c-0.5-1.7-0.6-3.5-0.6-5.2c0-0.7,0-2.1-1.1-1.7c-0.6,0.2-1,0.8-1.4,1.3c-0.4,0.6-0.6,1.3-0.7,2.1
							c-0.1,0.6-0.1,1.2,0,1.8c0.2,0.7,0.6,1.7,0.1,2.3c-0.4,0.5-2.1,0.9-2.8,0.8c-0.8-0.1-1.6-0.2-2.2,0c-1.3,0.3-1.5,1.8-0.3,3.2
							c1.2,1.5-0.9,2-0.6,3.9c0.3,1.9,1.9,2.4,1,4.5c-1.4,3.4,14.9,1.3,16.3,0.9C579.6,138.7,580.8,136.8,580.5,135z"/>
					</g>
				</g>
				<g>
					<g>
						<rect x="578.3" y="130.1" class="st4" width="3.4" height="10.8"/>
					</g>
				</g>
			</g>
		</g>
		<g>
			<g>
				<g>
					<g>
						<rect x="419.2" y="358.1" class="st6" width="51.7" height="37.6"/>
					</g>
				</g>
				<g>
					<g>
						<polygon class="st14" points="470.8,395.7 470.8,410 450.5,395.7 						"/>
					</g>
				</g>
				<g>
					<g>
						<g>
							<path class="st3" d="M435.8,378.3l9,9.2l9.2-9c8-7.8-1.1-17-9-9.2C437.2,361.4,428.1,370.5,435.8,378.3z"/>
						</g>
					</g>
				</g>
			</g>
			<g>
				<g>
					<g>
						<g>
							<rect x="471.8" y="196.3" class="st6" width="51.7" height="37.6"/>
						</g>
					</g>
					<g>
						<g>
							<polygon class="st14" points="471.9,233.8 471.9,248.2 492.2,233.8 							"/>
						</g>
					</g>
					<g>
						<g>
							<polygon class="st3" points="508.4,219.8 503.6,215 508.4,210.2 502.5,204.3 497.7,209.1 492.9,204.3 487,210.2 491.8,215 
								487,219.8 492.9,225.7 497.7,220.9 502.5,225.7 							"/>
						</g>
					</g>
				</g>
				<g>
					<g>
						<g>
							<rect x="366.4" y="196.3" class="st0" width="51.7" height="37.6"/>
						</g>
					</g>
					<g>
						<g>
							<polygon class="st1" points="366.5,233.8 366.5,248.2 386.8,233.8 							"/>
						</g>
					</g>
					<g>
						<g>
							<polygon class="st3" points="405.4,209.4 398.6,204.6 391.1,215.2 384.6,210.5 379.8,217.3 393,226.8 397.9,220 397.9,220 
															"/>
						</g>
					</g>
				</g>
			</g>
		</g>
		<g>
			<g>
				<g>
					<polygon class="st0" points="309.4,83.7 271.7,98.9 266.5,111.9 278.3,105.6 276.3,101.4 					"/>
				</g>
			</g>
			<g>
				<g>
					<polygon class="st4" points="271.7,98.9 257,89.4 309.4,83.7 					"/>
				</g>
			</g>
			<g>
				<g>
					<polygon class="st4" points="276.3,101.4 284.6,118.4 309.4,83.7 					"/>
				</g>
			</g>
		</g>
		<g>
			<g>
				<g>
					<polygon class="st0" points="359.1,17 386.3,47.2 385.4,61.2 377.4,50.3 381.1,47.4 					"/>
				</g>
			</g>
			<g>
				<g>
					<polygon class="st4" points="386.3,47.2 403.7,45 359.1,17 					"/>
				</g>
			</g>
			<g>
				<g>
					<polygon class="st4" points="381.1,47.4 366.3,59.1 359.1,17 					"/>
				</g>
			</g>
		</g>
		<g>
			<g>
				<g>
					<path class="st4" d="M255.5,120.9l-0.8-0.9c1-0.8,1.9-1.8,2.7-2.8l0.9,0.8C257.5,119.1,256.5,120,255.5,120.9z"/>
				</g>
			</g>
			<g>
				<g>
					<path class="st4" d="M53.4,356.7l-0.7-0.9c2-1.6,4.1-3.4,6-5.1l0.8,0.9C57.5,353.3,55.5,355.1,53.4,356.7z M65.1,345.9
						l-0.9-0.8c1.8-1.9,3.5-3.9,5.1-6l0.9,0.7C68.7,341.9,66.9,343.9,65.1,345.9z M75,333.3l-1-0.7c1.5-2.2,2.9-4.4,4.2-6.7l1,0.6
						C77.9,328.8,76.5,331.1,75,333.3z M82.9,319.4l-1.1-0.5c1.1-2.4,2.1-4.8,3.1-7.3L86,312C85.1,314.5,84,317,82.9,319.4z
						 M88.5,304.5l-1.1-0.3c0.7-2.5,1.3-5.1,1.9-7.7l1.2,0.2C89.8,299.3,89.2,301.9,88.5,304.5z M91.6,288.8l-1.2-0.1
						c0.3-2.6,0.5-5.2,0.6-7.9l1.2,0.1C92.2,283.5,91.9,286.2,91.6,288.8z M91.1,272.9c-0.1-2.6-0.3-5.3-0.6-7.9l1.2-0.1
						c0.3,2.6,0.5,5.3,0.6,8H91.1z M89.4,257.2c-0.5-2.6-1.1-5.2-1.8-7.7l1.2-0.3c0.7,2.6,1.3,5.2,1.8,7.8L89.4,257.2z M85.3,242
						c-0.7-1.9-1.4-3.7-2.2-5.5c-0.3-0.6-0.5-1.2-0.8-1.8l1.1-0.5c0.3,0.6,0.5,1.2,0.8,1.8c0.8,1.8,1.5,3.7,2.2,5.6L85.3,242z
						 M78.8,227.5c-1.1-2.2-2.4-4.4-3.8-6.9l1-0.6c1.5,2.5,2.7,4.8,3.9,7L78.8,227.5z M70.9,213.8c-0.7-1.2-1.4-2.3-2.1-3.5
						c-0.7-1.1-1.3-2.2-2-3.3l1-0.6c0.7,1.1,1.3,2.2,2,3.3c0.7,1.2,1.4,2.3,2.1,3.5L70.9,213.8z M62.7,200.2c-1.5-2.5-2.7-4.8-3.9-7
						l1.1-0.6c1.1,2.2,2.4,4.4,3.9,6.9L62.7,200.2z M55.3,186.1c-1.1-2.5-2.1-5-3-7.4l1.1-0.4c0.8,2.4,1.8,4.8,2.9,7.3L55.3,186.1z
						 M50.1,171c-0.6-2.6-1.1-5.2-1.4-7.9l1.2-0.1c0.3,2.6,0.8,5.2,1.4,7.8L50.1,171z M48.1,155.1c0-0.5,0-1,0-1.6
						c0-2.1,0.1-4.3,0.3-6.4l1.2,0.1c-0.2,2.1-0.3,4.2-0.3,6.3c0,0.5,0,1,0,1.5L48.1,155.1z M50.5,139.4l-1.2-0.2
						c0.5-2.6,1.1-5.2,1.8-7.8l1.1,0.3C51.6,134.2,51,136.8,50.5,139.4z M232.9,128.2c-2.6-0.1-5.1-0.4-7.6-1l-0.4-0.1l0.3-1.2
						l0.4,0.1c2.4,0.6,4.9,0.9,7.4,1L232.9,128.2z M240.9,127.6l-0.2-1.2c2.6-0.5,5.1-1.2,7.4-2.3l0.5,1.1
						C246.3,126.3,243.7,127.1,240.9,127.6z M217.3,124.5c-2.3-1-4.8-2.2-7.2-3.6l0.6-1c2.4,1.4,4.7,2.6,7,3.5L217.3,124.5z
						 M54.8,124.2l-1.1-0.4c1-2.5,2.1-4.9,3.3-7.3l1.1,0.5C56.9,119.4,55.8,121.8,54.8,124.2z M203.4,116.6c-2-1.5-4.1-3.1-6.3-4.9
						l0.8-0.9c2.2,1.8,4.3,3.4,6.3,4.8L203.4,116.6z M62,110.2l-1-0.6c1.4-2.3,3-4.4,4.6-6.5l0.9,0.7C64.9,105.8,63.4,108,62,110.2z
						 M191,106.5c-1.2-1.1-2.4-2.1-3.6-3.2c-0.8-0.7-1.6-1.4-2.3-2.1l0.8-0.9c0.8,0.7,1.6,1.4,2.3,2.1c1.2,1.1,2.4,2.1,3.6,3.2
						L191,106.5z M71.8,97.9l-0.9-0.8c1.9-1.9,3.9-3.7,5.9-5.4l0.8,0.9C75.6,94.2,73.6,96,71.8,97.9z M179.1,96
						c-2.2-1.9-4.2-3.5-6.2-4.9l0.7-1c2,1.5,4,3.1,6.2,5L179.1,96z M83.9,87.9l-0.6-1c2.2-1.4,4.6-2.8,7-4l0.5,1.1
						C88.4,85.2,86.1,86.5,83.9,87.9z M166.4,86.7c-2.2-1.4-4.6-2.6-6.9-3.7l0.5-1.1c2.4,1.1,4.8,2.4,7.1,3.8L166.4,86.7z M98,80.9
						l-0.4-1.1c2.5-0.9,5-1.8,7.6-2.4l0.3,1.2C103,79.1,100.5,79.9,98,80.9z M152.2,80c-2.5-0.8-5-1.6-7.6-2.2l0.3-1.2
						c2.6,0.6,5.2,1.3,7.7,2.2L152.2,80z M113.2,76.8l-0.2-1.2c2.6-0.4,5.3-0.7,8-0.9l0.1,1.2C118.5,76.1,115.8,76.4,113.2,76.8z
						 M136.8,76.4c-2.6-0.3-5.2-0.5-7.9-0.6v-1.2c2.7,0.1,5.3,0.3,8,0.6L136.8,76.4z"/>
				</g>
			</g>
			<g>
				<g>
					<path class="st4" d="M43.6,363.6l-0.6-1c1.1-0.7,2.2-1.4,3.3-2.1l0.7,1C45.8,362.2,44.7,363,43.6,363.6z"/>
				</g>
			</g>
		</g>
		<g>
			<g>
				<path class="st4" d="M360.6,142.2l-0.1-1.2c2.6-0.1,5.2-0.4,7.8-1l0.2,1.2C366,141.8,363.3,142.1,360.6,142.2z M352.6,141.9
					c-0.4-0.1-0.9-0.1-1.3-0.2c-2.2-0.3-4.4-0.9-6.6-1.6l0.4-1.1c2.1,0.7,4.2,1.2,6.4,1.5c0.4,0.1,0.8,0.1,1.3,0.2L352.6,141.9z
					 M500.4,140.2c-2.5-0.6-5.1-1.4-7.7-2.2l0.4-1.1c2.5,0.8,5.1,1.6,7.6,2.2L500.4,140.2z M376.3,139.1l-0.4-1.1
					c2.5-0.9,4.9-2,7.1-3.3l0.6,1C381.3,137,378.9,138.1,376.3,139.1z M337.3,137c-2.5-1.4-4.6-3-6.5-4.8l0.8-0.9
					c1.8,1.7,3.9,3.3,6.3,4.6L337.3,137z M485.2,135.2c-2.4-1-4.8-2-7.3-3.2l0.5-1.1c2.5,1.2,4.9,2.2,7.3,3.2L485.2,135.2z
					 M390.3,131.1l-0.8-0.9c2-1.7,3.9-3.5,5.6-5.5l0.9,0.8C394.3,127.4,392.4,129.3,390.3,131.1z M470.7,128.4
					c-2.3-1.2-4.5-2.4-7-3.8l0.6-1c2.5,1.4,4.7,2.6,7,3.8L470.7,128.4z M325.9,125.7c-0.9-1.7-1.5-3.4-1.9-5.2
					c-0.2-0.8-0.3-1.7-0.4-2.6l1.2-0.1c0.1,0.8,0.2,1.6,0.4,2.4c0.4,1.7,1,3.4,1.8,4.9L325.9,125.7z M456.8,120.5
					c-2-1.2-4.2-2.5-6.8-4.1l0.6-1c2.6,1.6,4.8,2.9,6.8,4.1L456.8,120.5z M400.5,118.7l-1.1-0.6c1.2-2.3,2.2-4.7,2.9-7.3l1.2,0.3
					C402.8,113.8,401.8,116.4,400.5,118.7z M443.2,112.2c-2-1.2-4.4-2.7-6.8-4.2l0.6-1c2.4,1.4,4.8,2.9,6.8,4.2L443.2,112.2z
					 M325.5,110.1l-1.1-0.3c0.7-2.5,1.8-5,3.4-7.4l1,0.6C327.3,105.3,326.2,107.7,325.5,110.1z M429.6,104c-2.3-1.4-4.7-2.7-6.9-3.9
					l0.6-1.1c2.3,1.2,4.6,2.5,7,3.9L429.6,104z M404.9,103.3l-1.2-0.1c0.1-1,0.1-2,0.1-3c0-1.6-0.1-3.2-0.3-4.8l1.2-0.1
					c0.2,1.6,0.3,3.3,0.3,5C405,101.2,405,102.2,404.9,103.3z M333.7,97l-0.8-0.9c1.9-1.8,4-3.5,6.3-5l0.6,1
					C337.7,93.6,335.6,95.2,333.7,97z M415.5,96.5c-2.4-1.2-4.9-2.3-7.2-3.3l0.5-1.1c2.4,1,4.8,2.1,7.3,3.3L415.5,96.5z M400.9,90.4
					c-2.5-0.9-5.1-1.7-7.5-2.4l0.3-1.1c2.5,0.7,5.1,1.5,7.6,2.4L400.9,90.4z M346.8,88.5l-0.5-1.1c0.6-0.3,1.3-0.5,1.9-0.7
					c1.9-0.7,3.8-1.2,5.7-1.7l0.3,1.2c-1.9,0.5-3.8,1-5.6,1.7C348.1,88,347.5,88.3,346.8,88.5z M401.9,87.7
					c-0.8-2.5-1.9-4.9-3.2-7.2l1-0.6c1.3,2.3,2.4,4.8,3.3,7.4L401.9,87.7z M385.7,86.1c-2.6-0.5-5.3-0.9-7.8-1.2l0.1-1.2
					c2.6,0.3,5.2,0.7,7.9,1.2L385.7,86.1z M362.1,84.8l-0.1-1.2c2.5-0.3,5-0.4,7.6-0.4h0.4v1.2h-0.4C367,84.4,364.5,84.5,362.1,84.8
					z M394.1,74.2c-1.8-1.9-3.8-3.6-6-5l0.6-1c2.3,1.4,4.3,3.2,6.2,5.2L394.1,74.2z"/>
			</g>
		</g>
		<g>
			<g>
				<path class="st1" d="M648.7,476H52.5c-2.2,0-4-1.8-4-4l0,0c0-2.2,1.8-4,4-4h596.2c2.2,0,4,1.8,4,4l0,0
					C652.7,474.2,650.9,476,648.7,476z"/>
			</g>
		</g>
	</g>
	<g>
		<g>
			<g>
				<path class="st5" d="M515.4,101.1c-5.4,0-9.8-4.4-9.8-9.8s4.4-9.8,9.8-9.8c5.4,0,9.8,4.4,9.8,9.8S520.8,101.1,515.4,101.1z
					 M515.4,84.9c-3.5,0-6.4,2.9-6.4,6.4s2.9,6.4,6.4,6.4s6.4-2.9,6.4-6.4C521.8,87.8,518.9,84.9,515.4,84.9z"/>
			</g>
		</g>
		<g>
			<g>
				<path class="st4" d="M36.2,204.6c-3.5,0-6.4-2.9-6.4-6.4s2.9-6.4,6.4-6.4s6.4,2.9,6.4,6.4C42.6,201.7,39.7,204.6,36.2,204.6z
					 M36.2,194c-2.3,0-4.2,1.9-4.2,4.2c0,2.3,1.9,4.2,4.2,4.2s4.2-1.9,4.2-4.2S38.5,194,36.2,194z"/>
			</g>
		</g>
		<g>
			<g>
				<path class="st5" d="M225.9,71.9h-12.8V59.1h12.8V71.9z M215.3,69.7h8.4v-8.4h-8.4V69.7z"/>
			</g>
		</g>
		<g>
			<g>
				<path class="st4" d="M675.6,248.2l-10.3-10.3l10.3-10.3l10.3,10.3L675.6,248.2z M668.9,237.9l6.8,6.8l6.8-6.8l-6.8-6.8
					L668.9,237.9z"/>
			</g>
		</g>
		<g>
			<g>
				
					<rect x="313.3" y="19" transform="matrix(0.7071 -0.7071 0.7071 0.7071 76.3403 231.8714)" class="st4" width="9.5" height="9.5"/>
			</g>
		</g>
	</g>
</g>
</svg>
