<svg xmlns="http://www.w3.org/2000/svg" xmlns:xlink="http://www.w3.org/1999/xlink" width="1120" height="760" viewBox="0 0 1120 760" fill="none"><defs><rect id="path_0" x="0" y="0" width="1120" height="760" /><filter id="filter_3" x="0" y="0" width="1120" height="1184" filterUnits="userSpaceOnUse" color-interpolation-filters="sRGB"><feFlood flood-opacity="0" result="BackgroundImageFix"/>
          <feBlend mode="normal" in="SourceGraphic" in2="BackgroundImageFix" result="shape"/>
          <feGaussianBlur stdDeviation="50" result="effect1_foregroundBlur" /></filter><filter id="filter_5" x="0" y="0" width="1452" height="374" filterUnits="userSpaceOnUse" color-interpolation-filters="sRGB"><feFlood flood-opacity="0" result="BackgroundImageFix"/>
          <feBlend mode="normal" in="SourceGraphic" in2="BackgroundImageFix" result="shape"/>
          <feGaussianBlur stdDeviation="50" result="effect1_foregroundBlur" /></filter><filter id="filter_7" x="0" y="0" width="1998" height="854" filterUnits="userSpaceOnUse" color-interpolation-filters="sRGB"><feFlood flood-opacity="0" result="BackgroundImageFix"/>
          <feBlend mode="normal" in="SourceGraphic" in2="BackgroundImageFix" result="shape"/>
          <feGaussianBlur stdDeviation="50" result="effect1_foregroundBlur" /></filter><linearGradient id="linear_0" x1="5.566%" y1="36.11%" x2="75.785%" y2="90.277%" gradientUnits="objectBoundingBox"><stop offset="0" stop-color="#F0844C" stop-opacity="1" /><stop offset="0.481" stop-color="#FDB28E" stop-opacity="1" /><stop offset="1" stop-color="#FAEDEC" stop-opacity="1" /></linearGradient><linearGradient id="linear_1" x1="5.566%" y1="36.11%" x2="75.785%" y2="90.277%" gradientUnits="objectBoundingBox"><stop offset="0" stop-color="#F0844C" stop-opacity="1" /><stop offset="0.481" stop-color="#FDB28E" stop-opacity="1" /><stop offset="1" stop-color="#FAEDEC" stop-opacity="1" /></linearGradient></defs><g opacity="1" transform="translate(0 0)  rotate(0 560 380)"><rect fill="#FADAC5" opacity="1" transform="translate(0 0)  rotate(0 560 380)" x="0" y="0" width="1120" height="760" rx="0" /><mask id="bg-mask-0" fill="white"><use xlink:href="#path_0"></use></mask><g mask="url(#bg-mask-0)" ><g id="圆形 1" filter="url(#filter_3)"><path id="圆形 1" fill-rule="evenodd" style="fill:#FB8144" transform="translate(287 319)  rotate(0 273 273)" opacity="1" d="M273,0C122.23,0 0,122.23 0,273C0,423.77 122.23,546 273,546C423.77,546 546,423.77 546,273C546,122.23 423.77,0 273,0Z " /></g><g id="圆形 1" filter="url(#filter_5)"><path id="圆形 1" fill-rule="evenodd" style="fill:#FB8144" transform="translate(453 -86)  rotate(0 273 273)" opacity="1" d="M273,0C122.23,0 0,122.23 0,273C0,423.77 122.23,546 273,546C423.77,546 546,423.77 546,273C546,122.23 423.77,0 273,0Z " /></g><g id="圆形 1" filter="url(#filter_7)"><path id="圆形 1" fill-rule="evenodd" style="fill:#F8A24F" transform="translate(726 154)  rotate(0 273 273)" opacity="1" d="M273,0C122.23,0 0,122.23 0,273C0,423.77 122.23,546 273,546C423.77,546 546,423.77 546,273C546,122.23 423.77,0 273,0Z " /></g><path id="圆形 2 (轮廓)" fill-rule="evenodd" fill="url(#linear_0)" transform="translate(453 -345)  rotate(0 402.5 402.5)" opacity="0.5" d="M483.57 796.82C456.93 802.27 429.91 805 402.5 805C375.09 805 348.07 802.27 321.43 796.82C295.45 791.51 270.24 783.68 245.81 773.35C221.84 763.21 199.04 750.84 177.42 736.23C156.02 721.77 136.18 705.4 117.89 687.11C99.6 668.82 83.23 648.98 68.77 627.58C54.16 605.96 41.79 583.16 31.65 559.19C21.32 534.76 13.49 509.55 8.18 483.57C2.73 456.93 0 429.91 0 402.5C0 375.09 2.73 348.07 8.18 321.43C13.49 295.45 21.32 270.24 31.65 245.81C41.79 221.84 54.16 199.04 68.77 177.42C83.23 156.02 99.6 136.18 117.89 117.89C136.18 99.6 156.02 83.23 177.42 68.77C199.04 54.16 221.84 41.79 245.81 31.65C270.24 21.32 295.45 13.49 321.43 8.18C348.07 2.73 375.09 0 402.5 0C429.91 0 456.93 2.73 483.57 8.18C509.55 13.49 534.76 21.32 559.19 31.65C583.16 41.79 605.96 54.16 627.58 68.77C648.98 83.23 668.82 99.6 687.11 117.89C705.4 136.18 721.77 156.02 736.23 177.42C750.84 199.04 763.21 221.84 773.35 245.81C783.68 270.24 791.51 295.45 796.82 321.43C802.27 348.07 805 375.09 805 402.5C805 429.91 802.27 456.93 796.82 483.57C791.51 509.55 783.68 534.76 773.35 559.19C763.21 583.16 750.84 605.96 736.23 627.58C721.77 648.98 705.4 668.82 687.11 687.11C668.82 705.4 648.98 721.77 627.58 736.23C605.96 750.84 583.16 763.21 559.19 773.35C534.76 783.68 509.55 791.51 483.57 796.82ZM284.38 122.83C266.32 130.47 249.14 139.79 232.84 150.8C216.69 161.72 201.7 174.08 187.89 187.89C174.08 201.7 161.72 216.69 150.8 232.84C139.79 249.14 130.47 266.32 122.83 284.38C115.06 302.76 109.17 321.73 105.17 341.28C101.06 361.37 99 381.78 99 402.5C99 423.22 101.06 443.63 105.17 463.72C109.17 483.27 115.06 502.24 122.83 520.62C130.47 538.68 139.79 555.86 150.8 572.16C161.72 588.31 174.08 603.3 187.89 617.11C201.7 630.92 216.69 643.28 232.84 654.2C249.14 665.21 266.32 674.53 284.38 682.17C302.76 689.94 321.73 695.83 341.28 699.83C361.37 703.94 381.78 706 402.5 706C423.22 706 443.63 703.94 463.72 699.83C483.27 695.83 502.24 689.94 520.62 682.17C538.68 674.53 555.86 665.21 572.16 654.2C588.31 643.28 603.3 630.92 617.11 617.11C630.92 603.3 643.28 588.31 654.2 572.16C665.21 555.86 674.53 538.68 682.17 520.62C689.94 502.24 695.83 483.28 699.83 463.72C703.94 443.63 706 423.22 706 402.5C706 381.78 703.94 361.37 699.83 341.28C695.83 321.73 689.94 302.76 682.17 284.38C674.53 266.32 665.21 249.14 654.2 232.84C643.28 216.69 630.92 201.7 617.11 187.89C603.3 174.08 588.31 161.72 572.16 150.8C555.86 139.79 538.68 130.47 520.62 122.83C502.24 115.06 483.27 109.17 463.72 105.17C443.63 101.06 423.22 99 402.5 99C381.78 99 361.37 101.06 341.28 105.17C321.73 109.17 302.76 115.06 284.38 122.83Z" /><path id="圆形 2 (轮廓)" fill-rule="evenodd" fill="url(#linear_1)" transform="translate(-315 380)  rotate(0 402.5 402.5)" opacity="0.5" d="M483.57 796.82C456.93 802.27 429.91 805 402.5 805C375.09 805 348.07 802.27 321.43 796.82C295.45 791.51 270.24 783.68 245.81 773.35C221.84 763.21 199.04 750.84 177.42 736.23C156.02 721.77 136.18 705.4 117.89 687.11C99.6 668.82 83.23 648.98 68.77 627.58C54.16 605.96 41.79 583.16 31.65 559.19C21.32 534.76 13.49 509.55 8.18 483.57C2.73 456.93 0 429.91 0 402.5C0 375.09 2.73 348.07 8.18 321.43C13.49 295.45 21.32 270.24 31.65 245.81C41.79 221.84 54.16 199.04 68.77 177.42C83.23 156.02 99.6 136.18 117.89 117.89C136.18 99.6 156.02 83.23 177.42 68.77C199.04 54.16 221.84 41.79 245.81 31.65C270.24 21.32 295.45 13.49 321.43 8.18C348.07 2.73 375.09 0 402.5 0C429.91 0 456.93 2.73 483.57 8.18C509.55 13.49 534.76 21.32 559.19 31.65C583.16 41.79 605.96 54.16 627.58 68.77C648.98 83.23 668.82 99.6 687.11 117.89C705.4 136.18 721.77 156.02 736.23 177.42C750.84 199.04 763.21 221.84 773.35 245.81C783.68 270.24 791.51 295.45 796.82 321.43C802.27 348.07 805 375.09 805 402.5C805 429.91 802.27 456.93 796.82 483.57C791.51 509.55 783.68 534.76 773.35 559.19C763.21 583.16 750.84 605.96 736.23 627.58C721.77 648.98 705.4 668.82 687.11 687.11C668.82 705.4 648.98 721.77 627.58 736.23C605.96 750.84 583.16 763.21 559.19 773.35C534.76 783.68 509.55 791.51 483.57 796.82ZM284.38 122.83C266.32 130.47 249.14 139.79 232.84 150.8C216.69 161.72 201.7 174.08 187.89 187.89C174.08 201.7 161.72 216.69 150.8 232.84C139.79 249.14 130.47 266.32 122.83 284.38C115.06 302.76 109.17 321.73 105.17 341.28C101.06 361.37 99 381.78 99 402.5C99 423.22 101.06 443.63 105.17 463.72C109.17 483.27 115.06 502.24 122.83 520.62C130.47 538.68 139.79 555.86 150.8 572.16C161.72 588.31 174.08 603.3 187.89 617.11C201.7 630.92 216.69 643.28 232.84 654.2C249.14 665.21 266.32 674.53 284.38 682.17C302.76 689.94 321.73 695.83 341.28 699.83C361.37 703.94 381.78 706 402.5 706C423.22 706 443.63 703.94 463.72 699.83C483.27 695.83 502.24 689.94 520.62 682.17C538.68 674.53 555.86 665.21 572.16 654.2C588.31 643.28 603.3 630.92 617.11 617.11C630.92 603.3 643.28 588.31 654.2 572.16C665.21 555.86 674.53 538.68 682.17 520.62C689.94 502.24 695.83 483.28 699.83 463.72C703.94 443.63 706 423.22 706 402.5C706 381.78 703.94 361.37 699.83 341.28C695.83 321.73 689.94 302.76 682.17 284.38C674.53 266.32 665.21 249.14 654.2 232.84C643.28 216.69 630.92 201.7 617.11 187.89C603.3 174.08 588.31 161.72 572.16 150.8C555.86 139.79 538.68 130.47 520.62 122.83C502.24 115.06 483.27 109.17 463.72 105.17C443.63 101.06 423.22 99 402.5 99C381.78 99 361.37 101.06 341.28 105.17C321.73 109.17 302.76 115.06 284.38 122.83Z" /></g></g></svg>