<?xml version="1.0" encoding="utf-8"?>
<!-- Generator: Adobe Illustrator 23.0.2, SVG Export Plug-In . SVG Version: 6.00 Build 0)  -->
<svg version="1.1" id="图层_1" xmlns="http://www.w3.org/2000/svg" xmlns:xlink="http://www.w3.org/1999/xlink" x="0px" y="0px"
	 viewBox="0 0 4535.4 2778" style="enable-background:new 0 0 4535.4 2778;" xml:space="preserve">
<style type="text/css">
	.st0{fill-rule:evenodd;clip-rule:evenodd;fill:url(#SVGID_1_);}
	.st1{opacity:0.93;fill-rule:evenodd;clip-rule:evenodd;fill:url(#SVGID_2_);enable-background:new    ;}
	.st2{fill-rule:evenodd;clip-rule:evenodd;fill:url(#SVGID_3_);}
	.st3{fill-rule:evenodd;clip-rule:evenodd;fill:url(#SVGID_4_);}
	.st4{opacity:0.9;fill-rule:evenodd;clip-rule:evenodd;fill:url(#SVGID_5_);enable-background:new    ;}
	.st5{fill-rule:evenodd;clip-rule:evenodd;fill:url(#SVGID_6_);}
	.st6{opacity:0.88;fill-rule:evenodd;clip-rule:evenodd;fill:url(#SVGID_7_);enable-background:new    ;}
	.st7{fill-rule:evenodd;clip-rule:evenodd;fill:#EB1F5D;}
	.st8{fill-rule:evenodd;clip-rule:evenodd;fill:url(#SVGID_8_);}
	.st9{fill-rule:evenodd;clip-rule:evenodd;fill:url(#SVGID_9_);}
	.st10{fill-rule:evenodd;clip-rule:evenodd;fill:#313EF2;}
	.st11{fill-rule:evenodd;clip-rule:evenodd;fill:url(#SVGID_10_);}
</style>
<g transform="translate(86.3207297124427 94.34741210937503)  rotate(0 1380.3778578739305 1201.8497314453125)">
	
		<linearGradient id="SVGID_1_" gradientUnits="userSpaceOnUse" x1="7593.3921" y1="61.7206" x2="7592.3765" y2="61.7966" gradientTransform="matrix(-444.9719 494.1913 -104.7834 -94.3474 3388385.75 -3746089.75)">
		<stop  offset="0" style="stop-color:#5BA8E8"/>
		<stop  offset="1" style="stop-color:#32EE71"/>
	</linearGradient>
	<path class="st0" d="M3525.1,164.4c-13.9-12.5-32.2-19-50.9-18s-36.2,9.3-48.7,23.2L3074.9,559c-12.5,13.9-19,32.2-18,50.9
		s9.3,36.2,23.2,48.7l0,0c13.9,12.5,32.2,19,50.9,18s36.2-9.3,48.7-23.2L3530.3,264c12.5-13.9,19-32.2,18-50.9
		S3539,176.9,3525.1,164.4z"/>
	
		<linearGradient id="SVGID_2_" gradientUnits="userSpaceOnUse" x1="7588.9512" y1="-92.9787" x2="7587.9111" y2="-92.9787" gradientTransform="matrix(303.7619 -349.4381 69.4182 60.3443 -2295738.75 2657965.25)">
		<stop  offset="0" style="stop-color:#73019C;stop-opacity:0.9098"/>
		<stop  offset="1" style="stop-color:#2A46FC"/>
	</linearGradient>
	<path class="st1" d="M2737.2,835.3c19.2,16.7,48.2,14.6,64.9-4.5l243.4-280c16.7-19.2,14.6-48.2-4.5-64.9l0,0
		c-19.2-16.7-48.2-14.6-64.9,4.5l-243.4,280C2716,789.6,2718,818.6,2737.2,835.3z"/>
	
		<linearGradient id="SVGID_3_" gradientUnits="userSpaceOnUse" x1="7589.7397" y1="-52.3466" x2="7588.7002" y2="-52.3466" gradientTransform="matrix(238.5124 -294.5383 126.2862 102.2646 -1801002.625 2242573.5)">
		<stop  offset="0" style="stop-color:#F16310"/>
		<stop  offset="1" style="stop-color:#FCDF43"/>
	</linearGradient>
	<path class="st2" d="M2395.3,2045.9c16.7,13.6,38.2,19.9,59.6,17.7c21.4-2.2,41.1-12.9,54.7-29.7l136.2-168.3
		c13.6-16.7,19.9-38.2,17.7-59.6s-12.9-41.1-29.7-54.7l0,0c-16.7-13.6-38.2-19.9-59.6-17.7c-21.4,2.2-41.1,12.9-54.7,29.7
		l-136.2,168.3c-13.6,16.7-19.9,38.2-17.7,59.6C2367.9,2012.7,2378.5,2032.3,2395.3,2045.9z"/>
	
		<linearGradient id="SVGID_4_" gradientUnits="userSpaceOnUse" x1="7590.4175" y1="-60.3965" x2="7589.3779" y2="-60.3965" gradientTransform="matrix(501.9272 -598.1735 108.0123 90.6331 -3800660.5 4547740)">
		<stop  offset="0" style="stop-color:#F04071"/>
		<stop  offset="1" style="stop-color:#FE642A"/>
	</linearGradient>
	<path class="st3" d="M2151,2477.5c14.3,12,32.8,17.9,51.5,16.2s35.8-10.6,47.9-24.9l411.3-490.2c12-14.3,17.9-32.8,16.2-51.5
		c-1.6-18.6-10.6-35.8-24.9-47.9l0,0c-14.3-12-32.8-17.9-51.5-16.2c-18.6,1.6-35.8,10.6-47.9,24.9l-411.3,490.2
		c-12,14.3-17.9,32.8-16.2,51.5C2127.7,2448.3,2136.7,2465.5,2151,2477.5z"/>
	
		<linearGradient id="SVGID_5_" gradientUnits="userSpaceOnUse" x1="7589.7803" y1="-68.9512" x2="7588.7407" y2="-68.9512" gradientTransform="matrix(513.7358 -550.9141 89.9565 83.8858 -3891196 4188734)">
		<stop  offset="0" style="stop-color:#73019C"/>
		<stop  offset="1" style="stop-color:#2A46FC;stop-opacity:0.8902"/>
	</linearGradient>
	<path class="st4" d="M1229.4,2183.6c11.9,11.1,27.8,17.1,44.1,16.5c16.3-0.6,31.7-7.6,42.8-19.5l429.8-461
		c11.1-11.9,17.1-27.8,16.5-44.1c-0.6-16.3-7.6-31.7-19.5-42.8l0,0c-11.9-11.1-27.8-17.1-44.1-16.5c-16.3,0.6-31.7,7.6-42.8,19.5
		l-429.8,461c-11.1,11.9-17.1,27.8-16.5,44.1C1210.4,2157.1,1217.5,2172.5,1229.4,2183.6z"/>
	
		<linearGradient id="SVGID_6_" gradientUnits="userSpaceOnUse" x1="7593.8892" y1="84.0083" x2="7592.8428" y2="83.9493" gradientTransform="matrix(-301.8381 335.2252 -77.2871 -69.5896 2300410.75 -2537897.75)">
		<stop  offset="0" style="stop-color:#5AA6EE"/>
		<stop  offset="1" style="stop-color:#1FF647"/>
	</linearGradient>
	<path class="st5" d="M2105.5,1576.6c-10.2-9.2-23.7-14-37.5-13.3s-26.7,6.9-35.9,17.1l-232.2,257.9c-9.2,10.2-14,23.7-13.3,37.5
		s6.9,26.7,17.1,35.9l0,0c10.2,9.2,23.7,14,37.5,13.3s26.7-6.9,35.9-17.1l232.2-257.9c9.2-10.2,14-23.7,13.3-37.5
		S2115.7,1585.8,2105.5,1576.6z"/>
	
		<linearGradient id="SVGID_7_" gradientUnits="userSpaceOnUse" x1="7594.2261" y1="91.8675" x2="7593.1797" y2="91.8086" gradientTransform="matrix(-265.0359 294.3522 -70.5988 -63.5674 2020456.875 -2227240)">
		<stop  offset="0" style="stop-color:#5AA6EE"/>
		<stop  offset="1" style="stop-color:#32F435;stop-opacity:0.9412"/>
	</linearGradient>
	<path class="st6" d="M1503.1,1996.8c-9.4-8.4-21.7-12.8-34.3-12.1c-12.6,0.7-24.4,6.3-32.8,15.7l-201.5,223.8
		c-8.4,9.4-12.8,21.7-12.1,34.3c0.7,12.6,6.3,24.4,15.7,32.8l0,0c9.4,8.4,21.7,12.8,34.3,12.1c12.6-0.7,24.4-6.3,32.8-15.7
		l201.5-223.8c8.4-9.4,12.8-21.7,12.1-34.3C1518.1,2017,1512.5,2005.2,1503.1,1996.8z"/>
	<path class="st7" d="M2504.8,567.7c-30.1,0-54.5,24.4-54.5,54.5s24.4,54.5,54.5,54.5s54.5-24.4,54.5-54.5
		C2559.3,592.1,2534.9,567.7,2504.8,567.7z"/>
	
		<linearGradient id="SVGID_8_" gradientUnits="userSpaceOnUse" x1="7593.1392" y1="72.5542" x2="7592.0996" y2="72.5542" gradientTransform="matrix(-568.3209 588.5135 -86.3208 -83.359 4322351.5 -4460354)">
		<stop  offset="0" style="stop-color:#F04071"/>
		<stop  offset="1" style="stop-color:#FE642A"/>
	</linearGradient>
	<path class="st8" d="M1316.9,1674.2c-11.4-11.1-26.8-17.1-42.7-16.8c-15.9,0.3-31.1,6.9-42.1,18.3l-485,502.2
		c-11.1,11.4-17.1,26.8-16.8,42.7s6.9,31.1,18.3,42.1l0,0c11.4,11.1,26.8,17.1,42.7,16.8s31.1-6.9,42.1-18.3l485-502.2
		c11.1-11.4,17.1-26.8,16.8-42.7C1334.9,1700.4,1328.3,1685.3,1316.9,1674.2z"/>
	
		<linearGradient id="SVGID_9_" gradientUnits="userSpaceOnUse" x1="7593.0464" y1="87.0894" x2="7592.0068" y2="87.0894" gradientTransform="matrix(-397.8856 474.1815 -77.1254 -64.7159 3030204 -3593892.75)">
		<stop  offset="0" style="stop-color:#F36C12"/>
		<stop  offset="1" style="stop-color:#FCDF43"/>
	</linearGradient>
	<path class="st9" d="M2721.4,479c-21.3-17.9-53.1-15.1-70.9,6.2l-333.2,397.1c-17.9,21.3-15.1,53.1,6.2,70.9l0,0
		c21.3,17.9,53.1,15.1,70.9-6.2l333.2-397C2745.4,528.7,2742.6,496.9,2721.4,479z"/>
	<path class="st10" d="M2415.8,382.7c-20.2,0-36.5,16.3-36.5,36.5s16.3,36.5,36.5,36.5s36.5-16.3,36.5-36.5
		C2452.3,399.1,2436,382.7,2415.8,382.7z"/>
	
		<linearGradient id="SVGID_10_" gradientUnits="userSpaceOnUse" x1="7592.0532" y1="-59.2111" x2="7591.0137" y2="-59.2111" gradientTransform="matrix(238.5124 -294.5383 126.2862 102.2646 -1801002.625 2242573.5)">
		<stop  offset="0" style="stop-color:#F16310"/>
		<stop  offset="1" style="stop-color:#FCDF43"/>
	</linearGradient>
	<path class="st11" d="M2080.2,662.5c16.7,13.6,38.2,19.9,59.6,17.7c21.4-2.2,41.1-12.9,54.7-29.7l136.2-168.3
		c13.6-16.7,19.9-38.2,17.7-59.6s-12.9-41.1-29.7-54.7l0,0c-16.7-13.6-38.2-19.9-59.6-17.7c-21.4,2.2-41.1,12.9-54.7,29.7
		l-136.2,168.3c-13.6,16.7-19.9,38.2-17.7,59.6C2052.8,629.3,2063.5,649,2080.2,662.5z"/>
</g>
</svg>
