<?xml version="1.0" encoding="utf-8"?>
<!-- Generator: Adobe Illustrator 23.0.2, SVG Export Plug-In . SVG Version: 6.00 Build 0)  -->
<svg version="1.1" id="图层_1" xmlns="http://www.w3.org/2000/svg" xmlns:xlink="http://www.w3.org/1999/xlink" x="0px" y="0px"
	 viewBox="0 0 3886.2 2173.2" style="enable-background:new 0 0 3886.2 2173.2;" xml:space="preserve">
<style type="text/css">
	.st0{fill-rule:evenodd;clip-rule:evenodd;fill:url(#SVGID_1_);}
	.st1{opacity:0.93;fill-rule:evenodd;clip-rule:evenodd;fill:url(#SVGID_2_);enable-background:new    ;}
	.st2{fill-rule:evenodd;clip-rule:evenodd;fill:url(#SVGID_3_);}
	.st3{fill-rule:evenodd;clip-rule:evenodd;fill:url(#SVGID_4_);}
	.st4{opacity:0.9;fill-rule:evenodd;clip-rule:evenodd;fill:url(#SVGID_5_);enable-background:new    ;}
	.st5{fill-rule:evenodd;clip-rule:evenodd;fill:url(#SVGID_6_);}
	.st6{opacity:0.88;fill-rule:evenodd;clip-rule:evenodd;fill:url(#SVGID_7_);enable-background:new    ;}
	.st7{fill-rule:evenodd;clip-rule:evenodd;fill:#EB1F5D;}
	.st8{fill-rule:evenodd;clip-rule:evenodd;fill:url(#SVGID_8_);}
	.st9{fill-rule:evenodd;clip-rule:evenodd;fill:url(#SVGID_9_);}
	.st10{fill-rule:evenodd;clip-rule:evenodd;fill:#313EF2;}
	.st11{fill-rule:evenodd;clip-rule:evenodd;fill:url(#SVGID_10_);}
</style>
<g transform="translate(86.3207297124427 94.34741210937503)  rotate(0 1380.3778578739305 1201.8497314453125)">
	
		<linearGradient id="SVGID_1_" gradientUnits="userSpaceOnUse" x1="10734.707" y1="65.8055" x2="10733.6914" y2="65.7296" gradientTransform="matrix(-444.9719 494.1913 104.7834 94.3474 4772501.5 -5310718.5)">
		<stop  offset="0" style="stop-color:#5BA8E8"/>
		<stop  offset="1" style="stop-color:#32EE71"/>
	</linearGradient>
	<path class="st0" d="M3206.8-22.3c-13.9-12.5-32.2-19-50.9-18s-36.2,9.3-48.7,23.2l-350.6,389.4c-12.5,13.9-19,32.2-18,50.9
		c1,18.7,9.3,36.2,23.2,48.7l0,0c13.9,12.5,32.2,19,50.9,18s36.2-9.3,48.7-23.2L3212,77.3c12.5-13.9,19-32.2,18-50.9
		S3220.7-9.8,3206.8-22.3z"/>
	
		<linearGradient id="SVGID_2_" gradientUnits="userSpaceOnUse" x1="10729.4072" y1="305.8525" x2="10728.3672" y2="305.8525" gradientTransform="matrix(303.7619 -349.4381 -69.4182 -60.3443 -3235230.75 3768019.5)">
		<stop  offset="0" style="stop-color:#73019C;stop-opacity:0.9098"/>
		<stop  offset="1" style="stop-color:#2A46FC"/>
	</linearGradient>
	<path class="st1" d="M2418.9,648.6c19.2,16.7,48.2,14.6,64.9-4.5l243.4-280c16.7-19.2,14.6-48.2-4.5-64.9l0,0
		c-19.2-16.7-48.2-14.6-64.9,4.5l-243.4,280C2397.7,602.9,2399.7,631.9,2418.9,648.6z"/>
	
		<linearGradient id="SVGID_3_" gradientUnits="userSpaceOnUse" x1="10730.5391" y1="242.8202" x2="10729.499" y2="242.8202" gradientTransform="matrix(238.5124 -294.5383 -126.2862 -102.2646 -2526386.25 3186951)">
		<stop  offset="0" style="stop-color:#F16310"/>
		<stop  offset="1" style="stop-color:#FCDF43"/>
	</linearGradient>
	<path class="st2" d="M2077,1859.2c16.7,13.6,38.2,19.9,59.6,17.7c21.4-2.2,41.1-12.9,54.7-29.7l136.2-168.3
		c13.6-16.7,19.9-38.2,17.7-59.6s-12.9-41.1-29.7-54.7l0,0c-16.7-13.6-38.2-19.9-59.6-17.7c-21.4,2.2-41.1,12.9-54.7,29.7
		L2065,1744.9c-13.6,16.7-19.9,38.2-17.7,59.6C2049.6,1826,2060.2,1845.6,2077,1859.2z"/>
	
		<linearGradient id="SVGID_4_" gradientUnits="userSpaceOnUse" x1="10731.1563" y1="255.3239" x2="10730.1162" y2="255.3239" gradientTransform="matrix(501.9272 -598.1735 -108.0123 -90.6331 -5356346.5 6443927)">
		<stop  offset="0" style="stop-color:#F04071"/>
		<stop  offset="1" style="stop-color:#FE642A"/>
	</linearGradient>
	<path class="st3" d="M1832.7,2290.8c14.3,12,32.8,17.9,51.5,16.2s35.8-10.6,47.9-24.9l411.3-490.2c12-14.3,17.9-32.8,16.2-51.5
		c-1.6-18.6-10.6-35.8-24.9-47.9l0,0c-14.3-12-32.8-17.9-51.5-16.2c-18.6,1.6-35.8,10.6-47.9,24.9L1824,2191.4
		c-12,14.3-17.9,32.8-16.2,51.5C1809.4,2261.6,1818.4,2278.8,1832.7,2290.8z"/>
	
		<linearGradient id="SVGID_5_" gradientUnits="userSpaceOnUse" x1="10730.1836" y1="268.7147" x2="10729.1436" y2="268.7147" gradientTransform="matrix(513.7358 -550.9141 -89.9565 -83.8858 -5486882 5935397)">
		<stop  offset="0" style="stop-color:#73019C"/>
		<stop  offset="1" style="stop-color:#2A46FC;stop-opacity:0.8902"/>
	</linearGradient>
	<path class="st4" d="M911.1,1996.9c11.9,11.1,27.8,17.1,44.1,16.5s31.7-7.6,42.8-19.5l429.8-461c11.1-11.9,17.1-27.8,16.5-44.1
		c-0.6-16.3-7.6-31.7-19.5-42.8l0,0c-11.9-11.1-27.8-17.1-44.1-16.5c-16.3,0.6-31.7,7.6-42.8,19.5l-429.8,461
		c-11.1,11.9-17.1,27.8-16.5,44.1C892.1,1970.4,899.2,1985.8,911.1,1996.9z"/>
	
		<linearGradient id="SVGID_6_" gradientUnits="userSpaceOnUse" x1="10735.4063" y1="31.5367" x2="10734.3594" y2="31.5958" gradientTransform="matrix(-301.8381 335.2252 77.2871 69.5896 3239391.5 -3599240.5)">
		<stop  offset="0" style="stop-color:#5AA6EE"/>
		<stop  offset="1" style="stop-color:#1FF647"/>
	</linearGradient>
	<path class="st5" d="M1787.2,1389.9c-10.2-9.2-23.7-14-37.5-13.3s-26.7,6.9-35.9,17.1l-232.2,257.9c-9.2,10.2-14,23.7-13.3,37.5
		s6.9,26.7,17.1,35.9l0,0c10.2,9.2,23.7,14,37.5,13.3s26.7-6.9,35.9-17.1l232.2-257.9c9.2-10.2,14-23.7,13.3-37.5
		S1797.4,1399.1,1787.2,1389.9z"/>
	
		<linearGradient id="SVGID_7_" gradientUnits="userSpaceOnUse" x1="10735.8301" y1="19.3526" x2="10734.7842" y2="19.4115" gradientTransform="matrix(-265.0359 294.3522 70.5988 63.5674 2844924.25 -3159234.5)">
		<stop  offset="0" style="stop-color:#5AA6EE"/>
		<stop  offset="1" style="stop-color:#32F435;stop-opacity:0.9412"/>
	</linearGradient>
	<path class="st6" d="M1184.8,1810.1c-9.4-8.4-21.7-12.8-34.3-12.1c-12.6,0.7-24.4,6.3-32.8,15.7l-201.5,223.8
		c-8.4,9.4-12.8,21.7-12.1,34.3s6.3,24.4,15.7,32.8l0,0c9.4,8.4,21.7,12.8,34.3,12.1s24.4-6.3,32.8-15.7l201.5-223.8
		c8.4-9.4,12.8-21.7,12.1-34.3C1199.8,1830.3,1194.2,1818.5,1184.8,1810.1z"/>
	<path class="st7" d="M2186.5,381c-30.1,0-54.5,24.4-54.5,54.5s24.4,54.5,54.5,54.5s54.5-24.4,54.5-54.5S2216.6,381,2186.5,381z"/>
	
		<linearGradient id="SVGID_8_" gradientUnits="userSpaceOnUse" x1="10734.5762" y1="49.1866" x2="10733.5361" y2="49.1866" gradientTransform="matrix(-568.3209 588.5135 86.3208 83.359 6096868.5 -6319467)">
		<stop  offset="0" style="stop-color:#F04071"/>
		<stop  offset="1" style="stop-color:#FE642A"/>
	</linearGradient>
	<path class="st8" d="M998.6,1487.5c-11.4-11.1-26.8-17.1-42.7-16.8c-15.9,0.3-31.1,6.9-42.1,18.3l-485,502.2
		c-11.1,11.4-17.1,26.8-16.8,42.7c0.3,15.9,6.9,31.1,18.3,42.1l0,0c11.4,11.1,26.8,17.1,42.7,16.8c15.9-0.3,31.1-6.9,42.1-18.3
		l485-502.2c11.1-11.4,17.1-26.8,16.8-42.7C1016.6,1513.7,1010,1498.6,998.6,1487.5z"/>
	
		<linearGradient id="SVGID_9_" gradientUnits="userSpaceOnUse" x1="10734.124" y1="26.8783" x2="10733.085" y2="26.8783" gradientTransform="matrix(-397.8856 474.1815 77.1254 64.7159 4270885.5 -5090896)">
		<stop  offset="0" style="stop-color:#F36C12"/>
		<stop  offset="1" style="stop-color:#FCDF43"/>
	</linearGradient>
	<path class="st9" d="M2403.1,292.3c-21.3-17.9-53.1-15.1-70.9,6.2L1999,695.6c-17.9,21.3-15.1,53.1,6.2,70.9l0,0
		c21.3,17.9,53.1,15.1,70.9-6.2l333.2-397C2427.1,342,2424.3,310.2,2403.1,292.3z"/>
	<path class="st10" d="M2097.5,196c-20.2,0-36.5,16.3-36.5,36.5s16.3,36.5,36.5,36.5s36.5-16.3,36.5-36.5
		C2134,212.4,2117.7,196,2097.5,196z"/>
	
		<linearGradient id="SVGID_10_" gradientUnits="userSpaceOnUse" x1="10732.8525" y1="249.6847" x2="10731.8125" y2="249.6847" gradientTransform="matrix(238.5124 -294.5383 -126.2862 -102.2646 -2526386.25 3186951)">
		<stop  offset="0" style="stop-color:#F16310"/>
		<stop  offset="1" style="stop-color:#FCDF43"/>
	</linearGradient>
	<path class="st11" d="M1761.9,475.8c16.7,13.6,38.2,19.9,59.6,17.7c21.4-2.2,41.1-12.9,54.7-29.7l136.2-168.3
		c13.6-16.7,19.9-38.2,17.7-59.6s-12.9-41.1-29.7-54.7l0,0c-16.7-13.6-38.2-19.9-59.6-17.7s-41.1,12.9-54.7,29.7l-136.2,168.3
		c-13.6,16.7-19.9,38.2-17.7,59.6C1734.5,442.6,1745.2,462.3,1761.9,475.8z"/>
</g>
</svg>
