<svg xmlns="http://www.w3.org/2000/svg" version="1.1" xmlns:xlink="http://www.w3.org/1999/xlink" xmlns:svgjs="http://svgjs.dev/svgjs" viewBox="0 0 800 800"><defs><symbol id="bbburst-shape-1" viewBox="0 0 194 167"><path d="m97 0 96.129 166.5H.871L97 0Z"></path></symbol><symbol id="bbburst-shape-4" viewBox="0 0 149 143"><path d="M71.647 2.781c.898-2.764 4.808-2.764 5.706 0l15.445 47.534a3 3 0 0 0 2.853 2.073h49.98c2.906 0 4.115 3.719 1.764 5.427L106.96 87.193a2.999 2.999 0 0 0-1.09 3.354l15.445 47.534c.898 2.764-2.266 5.062-4.617 3.354l-40.435-29.378a3 3 0 0 0-3.526 0l-40.435 29.378c-2.351 1.708-5.515-.59-4.617-3.354L43.13 90.547a3 3 0 0 0-1.09-3.354L1.605 57.815c-2.35-1.708-1.142-5.427 1.764-5.427h49.98a3 3 0 0 0 2.853-2.073L71.647 2.781Z"></path></symbol><symbol id="bbburst-shape-8" viewBox="0 0 87 168"><path d="m12 12 31.2546 18.0749c16.4102 9.4902 20.014 31.6325 7.4603 45.8369L36.3296 92.1884c-12.5684 14.2206-8.9394 36.3916 7.5068 45.8636L75 156" stroke-width="14" stroke-linecap="round" stroke-linejoin="round"></path></symbol><symbol id="bbburst-shape-9" viewBox="0 0 182 172"><path d="M13.5809 69.845 91 13.5967l77.419 56.2483-29.571 91.012H43.1524L13.5809 69.845Z" stroke-width="22"></path></symbol><symbol id="bbburst-shape-10" viewBox="0 0 145 145"><circle cx="72.5" cy="72.5" r="61.5" fill="none" stroke-width="22"></circle></symbol><symbol id="bbburst-shape-12" viewBox="0 0 170 151"><path d="M69.3728 54.2122 85 10.0031l15.627 44.2091c1.413 3.9958 5.19 6.6672 9.428 6.6673h49.312l-39.149 26.1447c-3.803 2.5401-5.399 7.3367-3.875 11.6488l15.179 42.94-40.9683-27.36c-3.3621-2.245-7.7453-2.245-11.1074 0l-40.9682 27.36 15.1785-42.94c1.5243-4.3121-.0712-9.1087-3.8746-11.6488L10.6333 60.8795h49.3112c4.2381-.0001 8.0159-2.6715 9.4283-6.6673Z" stroke-width="12"></path></symbol></defs><use xlink:href="#bbburst-shape-10" width="30.54872590613459" opacity="0.03797802199105427" transform="matrix(0.9933811195185721,-0.11486492669230362,0.11486492669230362,0.9933811195185721,-20.437467377423445,245.8588083246616)" fill="none" stroke="#00a19d"></use><use xlink:href="#bbburst-shape-12" width="25.781897580430318" opacity="0.2619915773599464" transform="matrix(0.7279788515439232,-0.6855995855488761,0.6855995855488761,0.7279788515439232,442.8092826965847,56.67645313561741)" fill="none" stroke="#00a19d"></use><use xlink:href="#bbburst-shape-4" width="10.330750432491996" opacity="0.8135956263975437" transform="matrix(0.8943468900518396,-0.44737416136227914,0.44737416136227914,0.8943468900518396,252.5813274401786,120.2747300634789)" fill="#ffa6d5"></use><use xlink:href="#bbburst-shape-4" width="27.220646154680097" opacity="0.06783522659504793" transform="matrix(0.8986983273970336,-0.4385673452661225,0.4385673452661225,0.8986983273970336,416.91770579107947,412.72437071983006)" fill="#ffa6d5"></use><use xlink:href="#bbburst-shape-10" width="24.112721790085132" opacity="0.5254209145532783" transform="matrix(0.708889599004302,-0.7053194570005281,0.7053194570005281,0.708889599004302,7.586967020297891,312.71721523153394)" fill="none" stroke="#2c2891"></use><use xlink:href="#bbburst-shape-8" width="11.54995251893433" opacity="0.905965822982923" transform="matrix(0.9998864651974593,-0.015068401206831592,0.015068401206831592,0.9998864651974593,429.48908464428723,-9.12294521546221)" fill="none" stroke="#ffa6d5"></use><use xlink:href="#bbburst-shape-4" width="9.96772800045047" opacity="0.9047493126147594" transform="matrix(0.8468069297265023,0.5319003889518926,-0.5319003889518926,0.8468069297265023,646.5016788311692,78.52739358271452)" fill="#ffbd9b"></use><use xlink:href="#bbburst-shape-8" width="10.618007979094138" opacity="0.8438516053766336" transform="matrix(0.7202013199301025,-0.6937651322824879,0.6937651322824879,0.7202013199301025,188.0551304406497,104.50406758984298)" fill="none" stroke="#2c2891"></use><use xlink:href="#bbburst-shape-9" width="11.27145543906946" opacity="0.9079062130481941" transform="matrix(0.9989261272639115,0.046331331402451006,-0.046331331402451006,0.9989261272639115,373.8932995275665,-13.887352287246586)" fill="none" stroke="#2c2891"></use><use xlink:href="#bbburst-shape-10" width="32.124836549770386" opacity="0.4085514620297632" transform="matrix(0.9008920845793658,0.4340431452542995,-0.4340431452542995,0.9008920845793658,703.894107315084,-190.67813508728042)" fill="none" stroke="#00a19d"></use><use xlink:href="#bbburst-shape-9" width="21.989918611757854" opacity="0.5622031751691694" transform="matrix(0.9137272787955015,0.4063280201819312,-0.4063280201819312,0.9137272787955015,612.8415022000827,217.4606532921548)" fill="none" stroke="#ffa6d5"></use><use xlink:href="#bbburst-shape-8" width="40.436257848178734" opacity="0.19089766457046242" transform="matrix(0.9997249706479278,0.02345171769828303,-0.02345171769828303,0.9997249706479278,56.0546414826471,-147.33814895020777)" fill="none" stroke="#00a19d"></use><use xlink:href="#bbburst-shape-9" width="10.038747319501237" opacity="0.937599486792712" transform="matrix(0.9916054900796213,0.12930023992226067,-0.12930023992226067,0.9916054900796213,420.2808859468852,12.011803233820217)" fill="none" stroke="#2c2891"></use><use xlink:href="#bbburst-shape-12" width="12.849070614388292" opacity="0.8619021139406812" transform="matrix(0.8313927900527777,0.5556851884369943,-0.5556851884369943,0.8313927900527777,554.8300876887348,65.73391246144035)" fill="none" stroke="#ffa6d5"></use><use xlink:href="#bbburst-shape-10" width="31.538046314459223" opacity="0.413712312108346" transform="matrix(0.9632914589203562,-0.26845775304708897,0.26845775304708897,0.9632914589203562,345.22044535608507,273.8873120580952)" fill="none" stroke="#2c2891"></use><use xlink:href="#bbburst-shape-8" width="31.937927705155406" opacity="0.32987110909426054" transform="matrix(0.8972813134062957,-0.44145922191282067,0.44145922191282067,0.8972813134062957,-90.47602210606094,13.513106756517857)" fill="none" stroke="#00a19d"></use><use xlink:href="#bbburst-shape-4" width="25.048169888039382" opacity="0.5860724761243659" transform="matrix(0.9034980977606094,0.4285920990206893,-0.4285920990206893,0.9034980977606094,455.73677719212014,-121.02360944654995)" fill="#2c2891"></use><use xlink:href="#bbburst-shape-4" width="27.45477601042069" opacity="0.09767618056017657" transform="matrix(0.9983623611133736,-0.0572066072419063,0.0572066072419063,0.9983623611133736,731.2437638678621,-170.5064490695141)" fill="#2c2891"></use><use xlink:href="#bbburst-shape-8" width="8.334367392569842" opacity="0.9457668158846555" transform="matrix(0.7191396286883643,-0.6948655945216754,0.6948655945216754,0.7191396286883643,132.3301013103008,135.71964643217763)" fill="none" stroke="#2c2891"></use><use xlink:href="#bbburst-shape-4" width="10.28585270979144" opacity="0.9616750881999335" transform="matrix(0.822939198363079,-0.5681294533797142,0.5681294533797142,0.822939198363079,156.02134147364595,61.87168659311044)" fill="#ffbd9b"></use><use xlink:href="#bbburst-shape-10" width="13.682567897372468" opacity="0.8414452870011035" transform="matrix(0.9106850889802887,0.4131012814177218,-0.4131012814177218,0.9106850889802887,626.9410987336162,54.721070803917655)" fill="none" stroke="#ff5c58"></use><use xlink:href="#bbburst-shape-8" width="31.779151357044817" opacity="0.40402977635038984" transform="matrix(0.9824653615104968,0.1864452022231973,-0.1864452022231973,0.9824653615104968,212.17010159864867,-100.90245789618501)" fill="none" stroke="#2c2891"></use><use xlink:href="#bbburst-shape-10" width="10.521071403356167" opacity="0.943058402452585" transform="matrix(0.7160447023167047,0.6980544278809366,-0.6980544278809366,0.7160447023167047,684.0990758168057,85.78830605799214)" fill="none" stroke="#ffbd9b"></use><use xlink:href="#bbburst-shape-12" width="42.8076457339134" opacity="0.19446262399143321" transform="matrix(0.7319028133504902,0.6814090341414893,-0.6814090341414893,0.7319028133504902,1007.8816287457785,183.41568912206486)" fill="none" stroke="#00a19d"></use><use xlink:href="#bbburst-shape-10" width="31.389878228340162" opacity="0.16647930646153297" transform="matrix(0.970919930925678,0.23940444384195714,-0.23940444384195714,0.970919930925678,749.9679720817416,-253.06175769518154)" fill="none" stroke="#ffa6d5"></use><use xlink:href="#bbburst-shape-12" width="37.63630792791609" opacity="0.1869346318552737" transform="matrix(0.9824746050408188,-0.18639648722518104,0.18639648722518104,0.9824746050408188,197.73567596090345,359.65288852107716)" fill="none" stroke="#ffbd9b"></use><use xlink:href="#bbburst-shape-4" width="30.145949591676114" opacity="0.32388554968096195" transform="matrix(0.9692470635106886,-0.24608967852371896,0.24608967852371896,0.9692470635106886,-11.930082401893799,72.89520650492324)" fill="#ffbd9b"></use><use xlink:href="#bbburst-shape-4" width="32.76411130498459" opacity="-0.09642286147537482" transform="matrix(0.9649032759540546,0.2626055369811031,-0.2626055369811031,0.9649032759540546,144.23839999253659,362.4928125952049)" fill="#ffa6d5"></use><use xlink:href="#bbburst-shape-4" width="19.600722479556744" opacity="0.7216960720841585" transform="matrix(0.8473898650546468,-0.530971201293128,0.530971201293128,0.8473898650546468,76.0394935197998,137.10185612544956)" fill="#ffa6d5"></use><use xlink:href="#bbburst-shape-4" width="38.877519797140934" opacity="0.03838575908133812" transform="matrix(0.9293392905969858,0.3692268719265853,-0.3692268719265853,0.9293392905969858,772.2560662353402,-337.17653421472767)" fill="#ffbd9b"></use><use xlink:href="#bbburst-shape-4" width="29.713366487894312" opacity="0.5586054327776857" transform="matrix(0.9997506088754834,0.022332040952410016,-0.022332040952410016,0.9997506088754834,471.7033989389705,-183.0366463152388)" fill="#00a19d"></use><use xlink:href="#bbburst-shape-8" width="9.347059887040196" opacity="0.8867201642439353" transform="matrix(0.997213964071243,-0.07459430180193191,0.07459430180193191,0.997213964071243,396.1181805684647,-39.29454800496825)" fill="none" stroke="#2c2891"></use><use xlink:href="#bbburst-shape-8" width="34.582187984303914" opacity="0.3967417629710439" transform="matrix(0.987718969223923,0.15624096081127695,-0.15624096081127695,0.987718969223923,380.8200953960458,265.8792983634768)" fill="none" stroke="#00a19d"></use><use xlink:href="#bbburst-shape-8" width="28.84490366858113" opacity="0.36816634095989464" transform="matrix(0.9448679209632863,0.3274516940474074,-0.3274516940474074,0.9448679209632863,469.35138326957696,-262.91364372607796)" fill="none" stroke="#ffa6d5"></use><use xlink:href="#bbburst-shape-4" width="30.020718370245127" opacity="0.4681979332783738" transform="matrix(0.7590854937965084,-0.6509909470243892,0.6509909470243892,0.7590854937965084,-46.518413943875345,269.6625405784152)" fill="#2c2891"></use><use xlink:href="#bbburst-shape-10" width="20.657880441650697" opacity="0.5827046656373345" transform="matrix(0.9627432628573912,-0.2704171034211855,0.2704171034211855,0.9627432628573912,111.7063577649693,-61.6784533759469)" fill="none" stroke="#2c2891"></use><use xlink:href="#bbburst-shape-10" width="35.1382293833428" opacity="0.12742450162013896" transform="matrix(0.8487697042149397,-0.5287626964970995,0.5287626964970995,0.8487697042149397,422.4783708532434,373.4793289457231)" fill="none" stroke="#ffa6d5"></use><use xlink:href="#bbburst-shape-8" width="35.03411023635975" opacity="0.17004528617666503" transform="matrix(0.994396896034156,-0.10571098882157852,0.10571098882157852,0.994396896034156,-0.022016476489547188,157.94420097084634)" fill="none" stroke="#00a19d"></use><use xlink:href="#bbburst-shape-9" width="21.967010176439153" opacity="0.6751555501715163" transform="matrix(0.9390408058828258,-0.3438057080487947,0.3438057080487947,0.9390408058828258,108.46728030040128,0.9184140391841424)" fill="none" stroke="#ffbd9b"></use><use xlink:href="#bbburst-shape-8" width="33.53663301071553" opacity="0.37974265624515446" transform="matrix(0.9987218923257071,0.050542870806461644,-0.050542870806461644,0.9987218923257071,263.52808929691406,241.162825117703)" fill="none" stroke="#2c2891"></use><use xlink:href="#bbburst-shape-8" width="26.812016610484065" opacity="0.18674173936733462" transform="matrix(0.9998255600963332,0.018677509953250824,-0.018677509953250824,0.9998255600963332,759.9698646991832,-7.00828312491717)" fill="none" stroke="#ffbd9b"></use><use xlink:href="#bbburst-shape-1" width="10.898682437990798" opacity="0.8386830610589155" transform="matrix(0.9933193534209629,0.11539784278469108,-0.11539784278469108,0.9933193534209629,416.42103134593293,-66.33892810399402)" fill="#ffa6d5"></use><use xlink:href="#bbburst-shape-4" width="18.06591169156511" opacity="0.7199741311914306" transform="matrix(0.7960060959841917,0.6052886048456603,-0.6052886048456603,0.7960060959841917,568.1201276843572,-30.708943876141177)" fill="#2c2891"></use><use xlink:href="#bbburst-shape-8" width="38.65246847236379" opacity="0.11039195251250367" transform="matrix(0.7157366546564173,-0.6983702751271996,0.6983702751271996,0.7157366546564173,-173.72625912438482,412.7773278959339)" fill="none" stroke="#2c2891"></use><use xlink:href="#bbburst-shape-8" width="39.24147904561636" opacity="0.2519462373114192" transform="matrix(0.863653331286472,-0.5040862261139253,0.5040862261139253,0.863653331286472,42.98971874988405,-242.4142431167453)" fill="none" stroke="#ffa6d5"></use><use xlink:href="#bbburst-shape-8" width="33.653310421009415" opacity="0.49937056192048335" transform="matrix(0.9023133608009823,0.4310807336451449,-0.4310807336451449,0.9023133608009823,478.71358987958695,-179.3298144174022)" fill="none" stroke="#00a19d"></use><use xlink:href="#bbburst-shape-4" width="24.185938391017636" opacity="0.5165831674877885" transform="matrix(0.9963915478487793,-0.08487569366735041,0.08487569366735041,0.9963915478487793,350.7992216753399,220.00565242283415)" fill="#2c2891"></use><use xlink:href="#bbburst-shape-8" width="26.792602023441322" opacity="0.5495039327664095" transform="matrix(0.8742121383663066,-0.485544165996266,0.485544165996266,0.8742121383663066,335.48485019283845,-88.43484952830534)" fill="none" stroke="#ffa6d5"></use><use xlink:href="#bbburst-shape-1" width="24.251278880913652" opacity="0.5080754863462845" transform="matrix(0.8202220980421236,-0.5720451991611999,0.5720451991611999,0.8202220980421236,-43.65942424149662,162.61913462810003)" fill="#00a19d"></use><use xlink:href="#bbburst-shape-10" width="22.209784326499484" opacity="0.6296012239394813" transform="matrix(0.8503581892520634,-0.5262042853986956,0.5262042853986956,0.8503581892520634,27.653480054754453,133.15145343630093)" fill="none" stroke="#ffa6d5"></use><use xlink:href="#bbburst-shape-8" width="32.759149219794736" opacity="0.4639162819705043" transform="matrix(0.9051841383660962,0.42501961795948656,-0.42501961795948656,0.9051841383660962,314.9268036258214,52.72186680572702)" fill="none" stroke="#ffa6d5"></use><use xlink:href="#bbburst-shape-4" width="15.219846043158713" opacity="0.7446216021347334" transform="matrix(0.9679143252284605,0.25128043898706837,-0.25128043898706837,0.9679143252284605,525.2320438138216,121.28467833738824)" fill="#2c2891"></use><use xlink:href="#bbburst-shape-9" width="16.330123448164546" opacity="0.7297816879377729" transform="matrix(0.8626523004374789,0.5057973987180299,-0.5057973987180299,0.8626523004374789,672.2686528422407,144.87761031143094)" fill="none" stroke="#2c2891"></use><use xlink:href="#bbburst-shape-12" width="29.2216905008874" opacity="0.22492868734553695" transform="matrix(0.7480117456092733,-0.6636854890914581,0.6636854890914581,0.7480117456092733,421.9417733059303,-70.1523517519135)" fill="none" stroke="#ff5c58"></use><use xlink:href="#bbburst-shape-4" width="16.282160816679294" opacity="0.748681941096825" transform="matrix(0.9803297871001777,-0.19736643211073235,0.19736643211073235,0.9803297871001777,245.32920376911107,100.04605323230965)" fill="#ffa6d5"></use><use xlink:href="#bbburst-shape-12" width="36.9234520754858" opacity="0.05194689820466014" transform="matrix(0.9043322212444195,0.4268292792430416,-0.4268292792430416,0.9043322212444195,199.34242758849373,-206.69677649045494)" fill="none" stroke="#ffbd9b"></use><use xlink:href="#bbburst-shape-8" width="29.477637618234862" opacity="0.32785467645007493" transform="matrix(0.984248586674845,-0.176790043918118,0.176790043918118,0.984248586674845,522.2336780521599,229.0134465250423)" fill="none" stroke="#2c2891"></use><use xlink:href="#bbburst-shape-4" width="12.971408001211483" opacity="0.8278242273618053" transform="matrix(0.9829076733830397,-0.18409917328641037,0.18409917328641037,0.9829076733830397,249.0267846265557,-23.063233952616997)" fill="#2c2891"></use><use xlink:href="#bbburst-shape-8" width="9.301675363982502" opacity="0.957457195354628" transform="matrix(0.9992562242331444,-0.03856161733277965,0.03856161733277965,0.9992562242331444,398.5898130060194,-3.793799401234139)" fill="none" stroke="#ffbd9b"></use><use xlink:href="#bbburst-shape-12" width="30.46303994421394" opacity="0.07369362409211766" transform="matrix(0.9266216718040938,-0.37599504962563834,0.37599504962563834,0.9266216718040938,31.299646368543677,-328.38632049642985)" fill="none" stroke="#00a19d"></use><use xlink:href="#bbburst-shape-12" width="20.61601124982917" opacity="0.6524569498345463" transform="matrix(0.9927261639070373,0.12039420041853427,-0.12039420041853427,0.9927261639070373,591.5498597447822,-27.69219926772962)" fill="none" stroke="#ffbd9b"></use><use xlink:href="#bbburst-shape-4" width="30.436708046781042" opacity="0.42073670889933" transform="matrix(0.8383326313483237,-0.545159058639399,0.545159058639399,0.8383326313483237,231.86456265685422,-180.03592481663637)" fill="#ff5c58"></use><use xlink:href="#bbburst-shape-12" width="29.43073057307782" opacity="0.055202520175988146" transform="matrix(0.9568156595014643,-0.2906953624204865,0.2906953624204865,0.9568156595014643,50.675816205564786,385.9461197143937)" fill="none" stroke="#2c2891"></use><use xlink:href="#bbburst-shape-10" width="26.53220014295198" opacity="0.1395984658817352" transform="matrix(0.9962151631891204,0.08692150845489374,-0.08692150845489374,0.9962151631891204,725.5413982415008,240.15191366031883)" fill="none" stroke="#2c2891"></use><use xlink:href="#bbburst-shape-10" width="9.789524908370005" opacity="0.9268521168185357" transform="matrix(0.8506939203270301,0.5256613490819243,-0.5256613490819243,0.8506939203270301,596.9891373518535,88.77981701712804)" fill="none" stroke="#2c2891"></use><use xlink:href="#bbburst-shape-10" width="18.15760511512813" opacity="0.6603474036571686" transform="matrix(0.9891376375126069,0.1469922925053511,-0.1469922925053511,0.9891376375126069,578.1201020166425,-80.05239290309612)" fill="none" stroke="#ffbd9b"></use><use xlink:href="#bbburst-shape-10" width="17.207463423383437" opacity="0.7543497295418095" transform="matrix(0.9845410471383113,-0.17515400794671418,0.17515400794671418,0.9845410471383113,405.207071472521,-64.47162191914447)" fill="none" stroke="#ffbd9b"></use><use xlink:href="#bbburst-shape-8" width="28.98350440285936" opacity="0.5334663078015427" transform="matrix(0.9852258248977098,0.17126025211539098,-0.17126025211539098,0.9852258248977098,644.8269642394752,-84.5853564312606)" fill="none" stroke="#00a19d"></use><use xlink:href="#bbburst-shape-12" width="14.36743529286925" opacity="0.8055519603466608" transform="matrix(0.7653893087399397,0.6435675613846593,-0.6435675613846593,0.7653893087399397,569.8206291561246,119.40124973705866)" fill="none" stroke="#ffa6d5"></use><use xlink:href="#bbburst-shape-4" width="17.892287663099285" opacity="0.6460528227994944" transform="matrix(0.8877380398206551,0.4603489683439954,-0.4603489683439954,0.8877380398206551,597.9777497948635,-116.97819636143592)" fill="#00a19d"></use><use xlink:href="#bbburst-shape-1" width="18.23641863095156" opacity="0.67578865898996" transform="matrix(0.9773554641655905,-0.21160410361253174,0.21160410361253174,0.9773554641655905,385.73133840398435,-111.464689563874)" fill="#00a19d"></use><use xlink:href="#bbburst-shape-9" width="13.882020999574792" opacity="0.8694250618821179" transform="matrix(0.9385704887556248,0.34508757966207304,-0.34508757966207304,0.9385704887556248,489.830809415108,-19.286026143819242)" fill="none" stroke="#ffbd9b"></use><use xlink:href="#bbburst-shape-10" width="53.44918188315543" opacity="-0.08203666994658732" transform="matrix(0.7446929498753088,-0.6674072298125118,0.6674072298125118,0.7446929498753088,459.03257929931283,462.6584144556623)" fill="none" stroke="#00a19d"></use><use xlink:href="#bbburst-shape-4" width="34.776424267173205" opacity="0.49681319885009634" transform="matrix(0.9941844968758583,0.10769023248046478,-0.10769023248046478,0.9941844968758583,252.82711215430896,-145.65789491784918)" fill="#ffbd9b"></use><use xlink:href="#bbburst-shape-10" width="32.84480934801252" opacity="0.33889361427374065" transform="matrix(0.989401351606359,-0.1452066301499695,0.1452066301499695,0.989401351606359,334.93986025574236,303.9774863734051)" fill="none" stroke="#ffa6d5"></use><use xlink:href="#bbburst-shape-10" width="25.99650686568267" opacity="0.1723538627771115" transform="matrix(0.9838355669355524,0.17907422269159867,-0.17907422269159867,0.9838355669355524,90.80858112443255,61.26828522902332)" fill="none" stroke="#00a19d"></use><use xlink:href="#bbburst-shape-10" width="17.092456017162906" opacity="0.7713307686015912" transform="matrix(0.9691790801238255,-0.2463572825193836,0.2463572825193836,0.9691790801238255,395.91642260809886,20.1514464823116)" fill="none" stroke="#2c2891"></use><use xlink:href="#bbburst-shape-1" width="10.289835803476494" opacity="0.8566748257118204" transform="matrix(0.9004501471491023,-0.434959230847168,0.434959230847168,0.9004501471491023,222.64310782985137,106.55384397366385)" fill="#ffbd9b"></use><use xlink:href="#bbburst-shape-12" width="19.0681432608598" opacity="0.779528732031347" transform="matrix(0.7362708915152654,-0.6766869101048995,0.6766869101048995,0.7362708915152654,23.467897903649657,103.04253055736723)" fill="none" stroke="#00a19d"></use><use xlink:href="#bbburst-shape-10" width="37.10561079139634" opacity="0.25950060187898494" transform="matrix(0.9388571726680138,0.3443068534459099,-0.3443068534459099,0.9388571726680138,556.0161780514272,-313.23629825190204)" fill="none" stroke="#ffa6d5"></use><use xlink:href="#bbburst-shape-4" width="34.38515960541763" opacity="0.14983567523408636" transform="matrix(0.755167489131615,-0.6555318934717457,0.6555318934717457,0.755167489131615,239.13897508091043,-255.86897003931625)" fill="#2c2891"></use><use xlink:href="#bbburst-shape-4" width="19.20774229331773" opacity="0.5990403069300629" transform="matrix(0.9725506465336178,0.23269129748884454,-0.23269129748884454,0.9725506465336178,437.71461272961994,183.2269702383029)" fill="#00a19d"></use><use xlink:href="#bbburst-shape-12" width="23.445564490497834" opacity="0.6008635622679102" transform="matrix(0.7367076614595409,-0.6762113734231437,0.6762113734231437,0.7367076614595409,-14.84338908758889,230.88789241376895)" fill="none" stroke="#ffa6d5"></use><use xlink:href="#bbburst-shape-4" width="13.583851706685195" opacity="0.8325529474287813" transform="matrix(0.9527668532618705,-0.30370268903233866,0.30370268903233866,0.9527668532618705,285.4011851842402,-53.1914443218958)" fill="#00a19d"></use><use xlink:href="#bbburst-shape-10" width="31.56180260241282" opacity="0.5213428405071703" transform="matrix(0.9503852023918901,0.31107550060158407,-0.31107550060158407,0.9503852023918901,504.78553246033323,-200.40872624590753)" fill="none" stroke="#00a19d"></use><use xlink:href="#bbburst-shape-12" width="8.208866618758625" opacity="0.9137342172595124" transform="matrix(0.9621384722259575,-0.272561112895256,0.272561112895256,0.9621384722259575,269.71310014799076,-18.49790004401001)" fill="none" stroke="#ffa6d5"></use><use xlink:href="#bbburst-shape-10" width="31.385039702377437" opacity="0.3674652796305209" transform="matrix(0.9695912679948159,-0.24473000026193198,0.24473000026193198,0.9695912679948159,550.9085381795643,-90.37237886686859)" fill="none" stroke="#00a19d"></use><use xlink:href="#bbburst-shape-9" width="30.21080781498582" opacity="0.46431162315669505" transform="matrix(0.8173147592138554,-0.576191447672731,0.576191447672731,0.8173147592138554,288.0483626873737,283.9770418198082)" fill="none" stroke="#00a19d"></use><use xlink:href="#bbburst-shape-10" width="29.167900770563953" opacity="0.31235070928923814" transform="matrix(0.9252758450711128,-0.37929488597651567,0.37929488597651567,0.9252758450711128,-6.939689526409808,-157.76839541578346)" fill="none" stroke="#ffa6d5"></use><use xlink:href="#bbburst-shape-12" width="37.41883912395631" opacity="0.4543270374425199" transform="matrix(0.808423997454783,-0.5886005779297444,0.5886005779297444,0.808423997454783,393.4557873573526,60.562416747340535)" fill="none" stroke="#00a19d"></use><use xlink:href="#bbburst-shape-8" width="18.035200605588084" opacity="0.718751914927716" transform="matrix(0.918695979055402,0.39496543907972037,-0.39496543907972037,0.918695979055402,514.6165022626494,150.5612598606142)" fill="none" stroke="#ff5c58"></use><use xlink:href="#bbburst-shape-10" width="28.099333086256163" opacity="0.3926520061613704" transform="matrix(0.7999439664809551,-0.6000747040916794,0.6000747040916794,0.7999439664809551,417.30191715877015,139.1115052804363)" fill="none" stroke="#2c2891"></use><use xlink:href="#bbburst-shape-12" width="15.245037411350246" opacity="0.8383420303196807" transform="matrix(0.7521798967102247,-0.6589578157856509,0.6589578157856509,0.7521798967102247,190.41137367268203,62.628560870028764)" fill="none" stroke="#ffa6d5"></use><use xlink:href="#bbburst-shape-10" width="25.328587813138185" opacity="0.5488105680672812" transform="matrix(0.9486800361055112,-0.31623755168361317,0.31623755168361317,0.9486800361055112,451.4459411532032,96.22867968843144)" fill="none" stroke="#00a19d"></use><use xlink:href="#bbburst-shape-4" width="33.5265190349807" opacity="0.2465884430162819" transform="matrix(0.8220800309409719,0.569371954637819,-0.569371954637819,0.8220800309409719,778.5035661831762,-234.77558326535984)" fill="#2c2891"></use><use xlink:href="#bbburst-shape-4" width="18.968816475044072" opacity="0.5704291592858675" transform="matrix(0.8949673395219363,-0.4461316635131688,0.4461316635131688,0.8949673395219363,406.0860638644989,56.800052674986716)" fill="#ff5c58"></use><use xlink:href="#bbburst-shape-4" width="29.259491313369008" opacity="0.4872261148604855" transform="matrix(0.9296080850405353,0.3685496007693795,-0.3685496007693795,0.9296080850405353,719.3149054766236,160.02198577564775)" fill="#ff5c58"></use><use xlink:href="#bbburst-shape-9" width="29.23922891627622" opacity="0.23304571023186715" transform="matrix(0.9994046295729396,0.03450197658359992,-0.03450197658359992,0.9994046295729396,210.9801041257022,288.8269905398694)" fill="none" stroke="#2c2891"></use><use xlink:href="#bbburst-shape-8" width="33.661574293429375" opacity="0.17944605964448668" transform="matrix(0.8973437703938447,0.44133225322353103,-0.44133225322353103,0.8973437703938447,505.33476459993824,-331.3289917815674)" fill="none" stroke="#ff5c58"></use><use xlink:href="#bbburst-shape-1" width="25.696176498713342" opacity="0.5173178927835731" transform="matrix(0.9917725161114924,0.1280127973519812,-0.1280127973519812,0.9917725161114924,224.4868109140409,-35.67031669772416)" fill="#00a19d"></use><use xlink:href="#bbburst-shape-9" width="15.857890965956202" opacity="0.7573536771853266" transform="matrix(0.8612963663323064,0.5081029121573358,-0.5081029121573358,0.8612963663323064,699.9602674275673,16.55201581151232)" fill="none" stroke="#2c2891"></use><use xlink:href="#bbburst-shape-12" width="18.430561472170986" opacity="0.7683215193001272" transform="matrix(0.9509135723040694,-0.30945658501300854,0.30945658501300854,0.9509135723040694,357.3134707719387,75.30017446739896)" fill="none" stroke="#ffbd9b"></use><use xlink:href="#bbburst-shape-10" width="13.15338853130544" opacity="0.7777617536795702" transform="matrix(0.8072004870768028,-0.5902773701091483,0.5902773701091483,0.8072004870768028,158.0556243273712,181.00771704210274)" fill="none" stroke="#00a19d"></use><use xlink:href="#bbburst-shape-8" width="38.3048739675817" opacity="0.32355854785684957" transform="matrix(0.7225591730916344,0.6913090780404474,-0.6913090780404474,0.7225591730916344,930.2368405525821,242.90656900647883)" fill="none" stroke="#00a19d"></use><use xlink:href="#bbburst-shape-4" width="28.228393644850104" opacity="0.38370825427625754" transform="matrix(0.9797696491232595,0.20012854533245641,-0.20012854533245641,0.9797696491232595,678.109633617726,-173.63310843968338)" fill="#00a19d"></use><use xlink:href="#bbburst-shape-10" width="21.302126567739737" opacity="0.6507419929690805" transform="matrix(0.9989644176209483,-0.045498267299311786,0.045498267299311786,0.9989644176209483,333.72169079461867,-151.7429214703913)" fill="none" stroke="#2c2891"></use><use xlink:href="#bbburst-shape-10" width="11.88578631186392" opacity="0.8844533608876383" transform="matrix(0.9237585837876116,0.3829752980006755,-0.3829752980006755,0.9237585837876116,502.7848305137278,54.41565947203242)" fill="none" stroke="#ffbd9b"></use><use xlink:href="#bbburst-shape-8" width="34.44126140659903" opacity="0.15587302712508133" transform="matrix(0.9813501706674622,-0.19222862047817643,0.19222862047817643,0.9813501706674622,49.827873106766546,-269.5155666731158)" fill="none" stroke="#00a19d"></use><use xlink:href="#bbburst-shape-8" width="12.701480865525518" opacity="0.7929192028503328" transform="matrix(0.7203961934738692,-0.6935627761265448,0.6935627761265448,0.7203961934738692,166.33071707054114,36.572939013740324)" fill="none" stroke="#ffbd9b"></use><use xlink:href="#bbburst-shape-4" width="16.71378401880058" opacity="0.8105545036208374" transform="matrix(0.7975061283881537,-0.6033108445762746,0.6033108445762746,0.7975061283881537,121.31341245863828,165.57971247098692)" fill="#ffbd9b"></use><use xlink:href="#bbburst-shape-10" width="8.86938861488819" opacity="0.9849202130450351" transform="matrix(0.9869772037500549,-0.1608601854957356,0.1608601854957356,0.9869772037500549,328.76433387698864,12.225264106565533)" fill="none" stroke="#ff5c58"></use><use xlink:href="#bbburst-shape-10" width="31.128390576761745" opacity="0.29116490767378056" transform="matrix(0.9534139721884409,0.3016650421176753,-0.3016650421176753,0.9534139721884409,264.43396907092836,222.4458612978392)" fill="none" stroke="#00a19d"></use><use xlink:href="#bbburst-shape-12" width="26.066925249699693" opacity="0.6074622613223908" transform="matrix(0.9705848631865521,0.24075926431425612,-0.24075926431425612,0.9705848631865521,307.85796218691974,25.73686348603394)" fill="none" stroke="#ffa6d5"></use><use xlink:href="#bbburst-shape-8" width="38.754342226829834" opacity="0.28312055658310886" transform="matrix(0.9737283154960246,-0.22771290609290099,0.22771290609290099,0.9737283154960246,433.0097167641791,304.10894673152427)" fill="none" stroke="#00a19d"></use><use xlink:href="#bbburst-shape-9" width="46.0878816011276" opacity="-0.07123466126427602" transform="matrix(0.9999180167726534,0.01280467623346017,-0.01280467623346017,0.9999180167726534,735.2281240480526,-328.6989414660861)" fill="none" stroke="#2c2891"></use><use xlink:href="#bbburst-shape-4" width="22.745353190940392" opacity="0.6896442433831742" transform="matrix(0.7673297050196677,-0.6412527768317497,0.6412527768317497,0.7673297050196677,270.8898324928234,131.6905342543423)" fill="#2c2891"></use><use xlink:href="#bbburst-shape-9" width="17.849711480717648" opacity="0.7202211530207665" transform="matrix(0.7184269928418079,-0.6956023691422255,0.6956023691422255,0.7184269928418079,-8.045763410355846,144.16260077481513)" fill="none" stroke="#2c2891"></use><use xlink:href="#bbburst-shape-12" width="37.192337315650455" opacity="0.17226598629565393" transform="matrix(0.998453539350584,0.055592533296224406,-0.055592533296224406,0.998453539350584,36.38643121197414,-62.4656452463426)" fill="none" stroke="#ffa6d5"></use><use xlink:href="#bbburst-shape-8" width="14.095720777784328" opacity="0.7442226084287905" transform="matrix(0.9836571648119882,0.1800516095847,-0.1800516095847,0.9836571648119882,490.46832911576126,-106.99852362579043)" fill="none" stroke="#ff5c58"></use><use xlink:href="#bbburst-shape-10" width="16.936893167662042" opacity="0.6542274401701891" transform="matrix(0.7231278269681509,0.6907142287982201,-0.6907142287982201,0.7231278269681509,551.2274137003003,4.5740579256742535)" fill="none" stroke="#ffa6d5"></use><use xlink:href="#bbburst-shape-10" width="23.18245758281231" opacity="0.5981657954494253" transform="matrix(0.995689350657734,-0.09275083280909109,0.09275083280909109,0.995689350657734,466.66394398491997,142.09203497511328)" fill="none" stroke="#ff5c58"></use><use xlink:href="#bbburst-shape-10" width="46.11941481146064" opacity="-0.08204836421782158" transform="matrix(0.9899347905119564,0.14152424009352224,-0.14152424009352224,0.9899347905119564,94.51802296084824,-348.5119441274776)" fill="none" stroke="#00a19d"></use><use xlink:href="#bbburst-shape-1" width="16.145144243987072" opacity="0.7632740573318976" transform="matrix(0.9859268897251369,-0.167177056191685,0.167177056191685,0.9859268897251369,306.7970165709389,-97.9303461436827)" fill="#2c2891"></use><use xlink:href="#bbburst-shape-10" width="8.857359405674258" opacity="0.8913801667909609" transform="matrix(0.920646054511895,0.39039831238323885,-0.39039831238323885,0.920646054511895,572.0854954939209,74.61097658970886)" fill="none" stroke="#ffbd9b"></use><use xlink:href="#bbburst-shape-12" width="27.672866759071702" opacity="0.3897142736030954" transform="matrix(0.9940170193577136,0.1092252957295465,-0.1092252957295465,0.9940170193577136,273.3522719956589,-224.77942666284994)" fill="none" stroke="#00a19d"></use><use xlink:href="#bbburst-shape-8" width="24.748517953217867" opacity="0.6554979757285917" transform="matrix(0.9664522064579397,0.2568465157104137,-0.2568465157104137,0.9664522064579397,619.8493134278953,96.11290283286843)" fill="none" stroke="#ffa6d5"></use><use xlink:href="#bbburst-shape-12" width="28.99020361854359" opacity="0.07819465923527624" transform="matrix(0.7566879067996125,0.653776270373299,-0.653776270373299,0.7566879067996125,1015.632366022965,284.7947954158849)" fill="none" stroke="#ffa6d5"></use><use xlink:href="#bbburst-shape-4" width="28.493629075751816" opacity="0.3679758172750691" transform="matrix(0.9098211987842396,-0.4150004653525213,0.4150004653525213,0.9098211987842396,-33.079156787392236,169.71302144458787)" fill="#00a19d"></use><use xlink:href="#bbburst-shape-10" width="19.594841857737645" opacity="0.6649453815331137" transform="matrix(0.8684416739534335,0.49579134617393067,-0.49579134617393067,0.8684416739534335,650.3814450767269,185.83772682395846)" fill="none" stroke="#2c2891"></use><use xlink:href="#bbburst-shape-10" width="10.594756118126996" opacity="0.8763595980098504" transform="matrix(0.9643872779235053,0.26449419309181754,-0.26449419309181754,0.9643872779235053,474.1074677184192,61.721691770250686)" fill="none" stroke="#00a19d"></use><use xlink:href="#bbburst-shape-1" width="20.141802485369478" opacity="0.6517611407886262" transform="matrix(0.8423854116092204,-0.5388755128115994,0.5388755128115994,0.8423854116092204,90.05626638259079,199.545465642667)" fill="#00a19d"></use><use xlink:href="#bbburst-shape-9" width="10.23215693032296" opacity="0.8908313519894797" transform="matrix(0.9889250956886604,0.14841548139319546,-0.14841548139319546,0.9889250956886604,456.89922610436827,-45.455531093046375)" fill="none" stroke="#2c2891"></use><use xlink:href="#bbburst-shape-12" width="31.985074695375097" opacity="0.18035684101419325" transform="matrix(0.9187707506696965,-0.39479147370965656,0.39479147370965656,0.9187707506696965,314.7040513611188,397.10224248422526)" fill="none" stroke="#00a19d"></use><use xlink:href="#bbburst-shape-12" width="34.59412770667353" opacity="0.1892016226057912" transform="matrix(0.7892357794676299,-0.6140902901106015,0.6140902901106015,0.7892357794676299,123.36691393360246,459.32674874311914)" fill="none" stroke="#2c2891"></use><use xlink:href="#bbburst-shape-4" width="13.996495544537968" opacity="0.8392457811461883" transform="matrix(0.9660554729673456,0.258334711469129,-0.258334711469129,0.9660554729673456,548.4677048671191,62.17668346584372)" fill="#ff5c58"></use><use xlink:href="#bbburst-shape-8" width="22.21209190552216" opacity="0.6588707820748736" transform="matrix(0.9088996446071356,-0.4170149110439848,0.4170149110439848,0.9088996446071356,230.16878595784738,194.4168279289715)" fill="none" stroke="#ffa6d5"></use><use xlink:href="#bbburst-shape-8" width="14.720039709524574" opacity="0.8199597286182212" transform="matrix(0.7439894366672721,0.6681913783696368,-0.6681913783696368,0.7439894366672721,602.437543551787,152.62199850369672)" fill="none" stroke="#00a19d"></use><use xlink:href="#bbburst-shape-10" width="16.4063640869334" opacity="0.795480907302986" transform="matrix(0.803558710414606,0.5952255025759694,-0.5952255025759694,0.803558710414606,569.2120619137557,5.93988231552612)" fill="none" stroke="#ff5c58"></use><use xlink:href="#bbburst-shape-10" width="18.491056111112073" opacity="0.7362649739212331" transform="matrix(0.9590069781745653,-0.2833824550188117,0.2833824550188117,0.9590069781745653,173.20257582402752,-37.09503695910013)" fill="none" stroke="#00a19d"></use></svg>