<svg viewBox="0 0 1731.33 1072.54" xmlns="http://www.w3.org/2000/svg"><defs><style>.cls-1,.cls-12,.cls-13,.cls-14,.cls-24,.cls-3,.cls-30,.cls-5{fill:none;}.cls-2{fill:#edf3ff;}.cls-12,.cls-13,.cls-15,.cls-17,.cls-3,.cls-5{stroke:#016efc;}.cls-14,.cls-17,.cls-3,.cls-5{stroke-miterlimit:10;}.cls-13,.cls-14,.cls-15,.cls-24,.cls-3,.cls-5{stroke-width:1.77px;}.cls-3{opacity:0.25;isolation:isolate;}.cls-4{fill:#c6ddff;}.cls-17,.cls-6{fill:#8dbffc;}.cls-15,.cls-7{fill:#fff;}.cls-8{fill:#007bff;}.cls-9{fill:#ff5925;}.cls-10{fill:#6aacef;}.cls-11{fill:#e72822;}.cls-12,.cls-13,.cls-15,.cls-24,.cls-30{stroke-linecap:round;stroke-linejoin:round;}.cls-12,.cls-30{stroke-width:2.38px;}.cls-14,.cls-30{stroke:#fff;}.cls-16{fill:#d32502;}.cls-17{stroke-width:1.16px;}.cls-18{fill:#f38171;}.cls-19{fill:#fac897;}.cls-20{fill:#f29d59;}.cls-21{fill:#013bff;}.cls-22{fill:#5b2f2e;}.cls-23{fill:#2b0d0d;}.cls-24{stroke:#035c8e;}.cls-25{fill:#c7ddff;}.cls-26{fill:#dcecff;}.cls-27{fill:#5d9fff;}.cls-28{fill:#fcbc29;}.cls-29{fill:#ccd5dd;}</style></defs><g id="图层_2"><g id="图层_1-2"><g id="图层_2-2"><g id="图层_1-2-2"><rect height="1072.49" width="1731.33" class="cls-1"></rect><path d="M81.39,906.72s32-367.91,333.49-432.71c107.56-23.18,206-84.68,279.86-176.94,10.07-12.63,20.26-26,30.51-40.27C827.81,112.14,999.8,56.86,1152,122.58a394.75,394.75,0,0,1,140.32,102C1347.63,287,1383.5,368.34,1396.07,456c12.21,85.42,43.2,229.17,114.58,267.36a107.57,107.57,0,0,1,20.2,13.61c26,22.33,79.31,80.6,61.38,171.63Z" class="cls-2"></path><path d="M884.67,694.94h203" class="cls-3"></path><path d="M608.35,723.74H1016.7" class="cls-3"></path><path d="M738.61,752.6H978.87" class="cls-3"></path><path d="M826.77,666h152.1" class="cls-3"></path><path d="M826.77,815.38h152.1" class="cls-3"></path><path d="M890.77,784.2H1131" class="cls-3"></path><path d="M898.77,728.25V748" class="cls-3"></path><path d="M834.76,728.25V748" class="cls-3"></path><path d="M898.77,790.49V810.2" class="cls-3"></path><path d="M964,790.49V810.2" class="cls-3"></path><path d="M898.77,671.15v19.76" class="cls-3"></path><path d="M964,728.25V748" class="cls-3"></path><path d="M964,670.54V690.3" class="cls-3"></path><path d="M930.43,699.39v19.77" class="cls-3"></path><path d="M997.6,699.39v19.77" class="cls-3"></path><path d="M1005.78,170h203" class="cls-3"></path><path d="M976.19,198.9h162" class="cls-3"></path><path d="M930.43,227.7h217.75" class="cls-3"></path><path d="M948.12,141.06h152.11" class="cls-3"></path><path d="M1020.06,203.48v19.65" class="cls-3"></path><path d="M956.06,203.48v19.65" class="cls-3"></path><path d="M1020.06,146v19.77" class="cls-3"></path><path d="M1085.46,203.48v19.65" class="cls-3"></path><path d="M1085.46,145.7v19.71" class="cls-3"></path><path d="M1051.72,174.62v19.65" class="cls-3"></path><path d="M1119,174.62v19.65" class="cls-3"></path><path d="M276.08,841H451.49" class="cls-3"></path><path d="M113.73,869.87H408.35" class="cls-3"></path><path d="M218.36,812.09h152.1" class="cls-3"></path><path d="M290.29,817v19.71" class="cls-3"></path><path d="M355.76,816.66v19.77" class="cls-3"></path><path d="M322,845.64v19.65" class="cls-3"></path><path d="M389.13,845.64v19.65" class="cls-3"></path><path d="M997.6,758.33V778" class="cls-3"></path><path d="M1063.19,758.33V778" class="cls-3"></path><path d="M930.43,758.33V778" class="cls-3"></path><path d="M865.64,758.33V778" class="cls-3"></path><path d="M1590.46,907.27s388.28,39-274.19,97.07c0,0-55.4,4,20.8,21.11,74.2,16.53-39,24-46.55,24.41-206.46,10.61-981.13,46.67-1084-2.63,0,0-67.12-24.4,63.81-32.64,87.92-5.55,5.37-9.64,0-10.07-100.48-9-272.84-34.41-190.48-98.9Z" class="cls-4"></path><path d="M54.91,906.35H1677.4" class="cls-5"></path><path d="M1205.78,989.7c93.28,0,168.88-6.53,168.88-14.65s-75.6-14.58-168.88-14.58S1037.2,967,1037.2,975.05,1112.49,989.7,1205.78,989.7Z" class="cls-6"></path><path d="M466.13,979.69c80.6,0,146-6.53,146-14.58s-65.4-14.58-146-14.58-146,6.52-146,14.58S385.53,979.69,466.13,979.69Z" class="cls-6"></path><path d="M734.46,989.15c132,0,239-10.44,239-23.31s-107-23.25-239-23.25-239,10.44-239,23.25S602.43,989.15,734.46,989.15Z" class="cls-6"></path><path d="M639.83,476.21h-63v69h63Z" class="cls-6"></path><path d="M738.24,342.22H478.82v157H738.24Z" class="cls-4"></path><path d="M713.35,484.32H503.47A11.35,11.35,0,0,1,493,472.18V369.31a11.33,11.33,0,0,1,10.43-12.19H713.35a11.29,11.29,0,0,1,10.44,12.07.53.53,0,0,1,0,.13V472.36A11.27,11.27,0,0,1,713.35,484.32Z" class="cls-7"></path><path d="M566.92,379.08H513.17v61.44h53.75Z" class="cls-8"></path><path d="M533.91,402.69a6.11,6.11,0,0,1,12.21,0,6.54,6.54,0,0,1-6,7H540A6.64,6.64,0,0,1,533.91,402.69Zm16.29,12.2a14.37,14.37,0,0,0-5.49-4,9.9,9.9,0,0,0,3.66-7.87,8.42,8.42,0,1,0-16.71-2,8.53,8.53,0,0,0,0,2,9.93,9.93,0,0,0,3.66,7.87,13.59,13.59,0,0,0-5.49,4,17.64,17.64,0,0,0-4.21,11.65h2.32a12.2,12.2,0,1,1,24.4,0h2.26A18.28,18.28,0,0,0,550.2,414.89Z" class="cls-7"></path><path d="M566.92,448.45H513.17v12.93h53.75Z" class="cls-9"></path><path d="M589.25,382.61h50.58" class="cls-5"></path><path d="M589.25,393.6H703.59" class="cls-5"></path><path d="M589.25,404.46H703.59" class="cls-5"></path><path d="M589.25,415.44H703.59" class="cls-5"></path><path d="M589.25,426.3H703.59" class="cls-5"></path><path d="M589.25,437.22H703.59" class="cls-5"></path><path d="M589.25,448.08H703.59" class="cls-5"></path><path d="M589.25,459.06h93.41" class="cls-5"></path><path d="M680.71,594.76H794V901.17L680.71,816.54Z" class="cls-10"></path><path d="M794,901.17v63.27H680.71V816.54Z" class="cls-6"></path><path d="M831.29,947.11H635.62v21H831.29Z" class="cls-4"></path><path d="M608.35,532.89H447.83v12.2H608.35Z" class="cls-6"></path><path d="M416.89,594.76h635.2V562.12H416.89Z" class="cls-6"></path><path d="M400.91,562.05h667.22V540.7H400.91Z" class="cls-4"></path><path d="M1004.8,258A18.29,18.29,0,0,0,975,265.47l-1,2.32a31.22,31.22,0,0,0-2.62,15.31,1,1,0,0,1-1.89.79,25.86,25.86,0,0,0-10.68-9.76l-2.07-1c-11.72-5.49-23.86,1.77-27.09,16.23s3.84,30.5,15.55,35.75l43.26,19.1a1.47,1.47,0,0,0,1.89-.8L1012.8,297A33.72,33.72,0,0,0,1004.8,258Z" class="cls-11"></path><path d="M842,540.33H764.48a18.31,18.31,0,0,1,16.9-19.28h43.87A18.3,18.3,0,0,1,842,540.33Z" class="cls-6"></path><path d="M818.05,487.68H788.52v33.8h29.53Z" class="cls-4"></path><path d="M826.77,328.62h-12.2a12.2,12.2,0,0,0-11.29,13.05h0V486.52" class="cls-12"></path><path d="M865.76,326.48H821.59a25.14,25.14,0,0,0,2,9.64h40.14A22.73,22.73,0,0,0,865.76,326.48Z" class="cls-6"></path><path d="M823.66,336.12A18.31,18.31,0,0,0,840,347.78h7.44a18.3,18.3,0,0,0,16.29-11.41Z" class="cls-7"></path><path d="M1035.13,494.82,898.46,516.66v23.8h136.67" class="cls-4"></path><path d="M1035.25,494.82,898.58,516.66v23.8h136.67" class="cls-13"></path><path d="M902.43,521.48,1031.1,504.4" class="cls-14"></path><path d="M902.43,526.18l128.12-11.41" class="cls-14"></path><path d="M902.43,530.82l128.12-5.74" class="cls-14"></path><path d="M902.43,534.66h128.12" class="cls-14"></path><path d="M893.76,467.54h138l2.87,23.56-135.2,21.41" class="cls-4"></path><path d="M894.07,467.54H1032l2.93,23.56L899.56,512.51" class="cls-13"></path><path d="M1028.35,472.79l-129.28,3.48" class="cls-14"></path><path d="M1028.9,477.49l-128.12,9" class="cls-14"></path><path d="M1029.45,482,902.06,496.59" class="cls-14"></path><path d="M1029.94,485.85,903.4,506.41" class="cls-14"></path><path d="M735.74,0h-163V230.45h163Z" class="cls-6"></path><path d="M723.91,16.66H584.55V213.55H723.91Z" class="cls-7"></path><path d="M517.69,18.67h-136V210.92h136Z" class="cls-15"></path><path d="M368,961.45l-8.36-2.81,60.47-259.43,8.36,2.81Z" class="cls-16"></path><path d="M562.77,961.45l8.36-2.81L510.67,699.21,502.31,702Z" class="cls-16"></path><path d="M564.42,707.33h-188a10.08,10.08,0,0,1-9-9.34L330,423.43a11.1,11.1,0,0,1,7.51-12.81A9.41,9.41,0,0,1,347.74,419l0,.43,36.6,265.46H564.3A10.32,10.32,0,0,1,573.45,696,10.43,10.43,0,0,1,564.42,707.33Z" class="cls-9"></path><path d="M271.62,702.14H137.4V890.79H271.62Z" class="cls-4"></path><path d="M277.66,889.94H131.24v16.6H277.66Z" class="cls-10"></path><path d="M277.66,889.94H131.24v16.6H277.66Z" class="cls-6"></path><path d="M271.62,694.27H137.4c0-30.51,21.47-54.91,48.08-54.91h38.31C250.15,639.3,271.62,663.89,271.62,694.27Z" class="cls-4"></path><path d="M185.78,639.3h0v54.91h37.71V639.3Z" class="cls-6"></path><path d="M229.59,885.12H177.67v11.77h51.92Z" class="cls-17"></path><path d="M653.93,59a7.93,7.93,0,0,0,7.38-8.42,7.45,7.45,0,0,0-14.77-1.9,7.55,7.55,0,0,0,0,1.9A7.94,7.94,0,0,0,653.93,59Z" class="cls-4"></path><path d="M653.93,149.06a20.81,20.81,0,0,1-19.41-22.12V84.81a19.53,19.53,0,1,1,38.75-4.87,19.84,19.84,0,0,1,0,4.87v42.1A20.94,20.94,0,0,1,653.93,149.06Z" class="cls-4"></path><path d="M665.82,191.89a8.11,8.11,0,0,1-7.45-8.73s0-.08,0-.12V128.13a7.57,7.57,0,1,1,15-2.35,7.72,7.72,0,0,1,0,2.35V183a8.12,8.12,0,0,1-7.33,8.83Z" class="cls-4"></path><path d="M642,191.89a8.12,8.12,0,0,1-7.52-8.67c0-.06,0-.12,0-.18V128.13a7.57,7.57,0,1,1,15-2.35,7.72,7.72,0,0,1,0,2.35V183A8.3,8.3,0,0,1,642,191.89Z" class="cls-4"></path><path d="M680.65,128.13a4.16,4.16,0,0,1-3.85-4.4V79.32a4.16,4.16,0,0,1,3.85-4.4,4.22,4.22,0,0,1,3.84,4.4v44.41A4.15,4.15,0,0,1,680.65,128.13Z" class="cls-4"></path><path d="M627.38,128.13a4.16,4.16,0,0,1-3.84-4.4V79.32a4.16,4.16,0,0,1,3.84-4.4,4.22,4.22,0,0,1,3.85,4.4v44.41A4.16,4.16,0,0,1,627.38,128.13Z" class="cls-4"></path><path d="M680.65,117.39a2.56,2.56,0,1,0-2.14-2.14A2.57,2.57,0,0,0,680.65,117.39Z" class="cls-18"></path><path d="M680.65,88.1A2.56,2.56,0,1,0,678.51,86,2.56,2.56,0,0,0,680.65,88.1Z" class="cls-18"></path><path d="M642,166a2.33,2.33,0,0,0,2.2-2.43.22.22,0,0,0,0-.08,2.2,2.2,0,0,0-4.39,0A2.32,2.32,0,0,0,642,166Z" class="cls-18"></path><path d="M665.82,166a2.39,2.39,0,0,0,2.26-2.5h0a2.44,2.44,0,0,0-2.26-2.56,2.39,2.39,0,0,0-2.2,2.55h0a2.31,2.31,0,0,0,2.12,2.5Z" class="cls-18"></path><path d="M627.38,117.39a2.56,2.56,0,1,0-2.13-2.14A2.57,2.57,0,0,0,627.38,117.39Z" class="cls-18"></path><path d="M627.38,88.1A2.56,2.56,0,1,0,625.25,86,2.55,2.55,0,0,0,627.38,88.1Z" class="cls-18"></path><path d="M468,39.29H431.35V81H468Z" class="cls-4"></path><path d="M498.77,101H400.66a1.89,1.89,0,0,1-1.7-2,1.77,1.77,0,0,1,1.7-1.83h98.17A1.84,1.84,0,0,1,500.6,99,2.07,2.07,0,0,1,498.77,101Z" class="cls-8"></path><path d="M498.77,117.82H400.66a1.83,1.83,0,0,1-1.7-1.95h0A1.75,1.75,0,0,1,400.6,114h98.23a1.83,1.83,0,0,1,1.77,1.89h0A2,2,0,0,1,498.77,117.82Z" class="cls-8"></path><path d="M498.77,134.6H400.66a1.83,1.83,0,0,1-1.7-1.95h0a1.77,1.77,0,0,1,1.64-1.89h98.23a1.83,1.83,0,0,1,1.77,1.89h0A2,2,0,0,1,498.77,134.6Z" class="cls-8"></path><path d="M498.77,151.5H400.66a2,2,0,0,1,0-3.85h98.17a1.84,1.84,0,0,1,1.78,1.89.13.13,0,0,0,0,.06A2,2,0,0,1,498.77,151.5Z" class="cls-8"></path><path d="M498.77,168.27H400.66a2,2,0,0,1,0-3.84h98.17a1.84,1.84,0,0,1,1.78,1.89.13.13,0,0,0,0,.06A2,2,0,0,1,498.77,168.27Z" class="cls-8"></path><path d="M498.77,185.05H400.66a2,2,0,0,1,0-3.84h98.17a1.84,1.84,0,0,1,1.78,1.89.13.13,0,0,0,0,.06A2,2,0,0,1,498.77,185.05Z" class="cls-8"></path><path d="M1448.6,207.45c36.61,0,67.12-34.23,67.12-76.45s-30-76.45-67.12-76.45-67.11,34.22-67.11,76.45S1411.63,207.45,1448.6,207.45Z" class="cls-6"></path><path d="M1448.6,198.35c32.65,0,59.12-30.5,59.12-67.6s-26.47-67.54-59.12-67.54-59.12,30.51-59.12,67.54S1416,198.35,1448.6,198.35Z" class="cls-2"></path><path d="M1448.6,92v38.92h25.2" class="cls-5"></path><path d="M1048.79,378.59l-7-4.76a.38.38,0,0,1-.37-.31L1018.9,351h0a3.09,3.09,0,0,0-2-.92H1006.7a3.78,3.78,0,0,0,0,7.51h6.77a3.09,3.09,0,0,1-.37,1c-2,2.51-6.71,5.07-4.7,5.37a158.93,158.93,0,0,1-44.84-5.37,2.88,2.88,0,0,0-2.88,2.86,3.16,3.16,0,0,0,.13.87c1.84,8.78,11.78,30.5,79.32,36.6a2.67,2.67,0,0,0,2.56-1.52l7.45-13.91a3.49,3.49,0,0,0-1.17-4.78Z" class="cls-19"></path><path d="M1020.91,368.46a4.95,4.95,0,0,0-1.77-9.34c-2,0-4.15-.67-6.1-.85a2.58,2.58,0,0,1-2.26,1.28l-47.22-1.28a2.79,2.79,0,0,0-2.32,1.28C980.46,365.71,1001.08,377.49,1020.91,368.46Z" class="cls-20"></path><path d="M1166.79,944.67a34.21,34.21,0,0,0,26.72-31.24H1221a29.43,29.43,0,0,0-1,10.19,43.81,43.81,0,0,0,6.84,22.15,22.16,22.16,0,0,1,3.23,10.55h-84.38C1151.54,946.86,1166.79,944.67,1166.79,944.67Z" class="cls-21"></path><path d="M1230.06,956.44a30.28,30.28,0,0,1-1,10.07h-85.41a15,15,0,0,1,2.07-10.07Z" class="cls-7"></path><path d="M1230.61,552.23V919.9H1209l-21.72-367.67Z" class="cls-21"></path><path d="M1181.68,552.23h5.55l32.09,367.67h-39L1152,596.53l-3.85-44.6Z" class="cls-8"></path><path d="M1226.34,960.59A34.17,34.17,0,0,0,1253,929.35h27.46a32.74,32.74,0,0,0-1,10.19,44.62,44.62,0,0,0,6.83,22.15,24.34,24.34,0,0,1,3.3,11h-84.38C1210.78,962.79,1226.34,960.59,1226.34,960.59Z" class="cls-21"></path><path d="M1289.79,972.67a31.3,31.3,0,0,1-1.1,9.77h-85.41a14.91,14.91,0,0,1,2-9.77Z" class="cls-7"></path><path d="M1285.34,552.23l.3,53.39,2.08,328.43h-50.28l-27.27-322.94-4.94-58.88Z" class="cls-8"></path><path d="M1170.63,126.05a35.83,35.83,0,0,1,5-13.6c5.31-8.12,16-19,33.31-9.89a41.39,41.39,0,0,1,11.59,9.34,51.4,51.4,0,0,0,20.87,15,31.2,31.2,0,0,1,7.87,4.15c12.81,9.45,56.62,43.68,31.24,112.26a37,37,0,0,1-33.93,25.87c-2.68,0-5.3-4-8.11-4.82-4.76-20.32,2.62-29.53-.37-47.41-6.89-33.92-27.76-46.12-51.06-63.51a29.92,29.92,0,0,0-.55-9.76s-7.14-3.05-11.72,14.7C1174.78,158.27,1166.73,151.5,1170.63,126.05Z" class="cls-22"></path><path d="M1176.43,190.12a168.77,168.77,0,0,0,7.75-21.85c12.57,3.48,14.76,27.77,12.2,39.72-3.54,16.78,4.15,34-13.79,54.43a27.37,27.37,0,0,1-8.36-5.49C1164.41,247.47,1159.23,228.37,1176.43,190.12Z" class="cls-22"></path><path d="M1188.57,206.1a53.36,53.36,0,0,0-4.39-37.7,89.53,89.53,0,0,0,2.81-15c23.3,17.33,56.68,27.21,63.51,61a68.82,68.82,0,0,1-12.2,50.15,25.13,25.13,0,0,1-13.91-12.2,112.07,112.07,0,0,0-18.92,8.54,25.14,25.14,0,0,1-23,2.08C1179.48,245.15,1185,222.88,1188.57,206.1Z" class="cls-23"></path><path d="M1253.18,271.94s-23.12-4-23.3-39.91c-10.86-23.91-31-11.77-34.54,12.21a116.75,116.75,0,0,1-1.77,36.3s5,50.64,25.08,60.4C1218.65,340.7,1260.87,300.55,1253.18,271.94Z" class="cls-19"></path><path d="M1229.88,233.86a133,133,0,0,1,1.4-19.22,74.52,74.52,0,0,0-39,14.28,73.91,73.91,0,0,1,3.18,15.07C1206.08,268.89,1217.67,237.28,1229.88,233.86Z" class="cls-20"></path><path d="M1174.91,150.82s-3.6,73.22,25.38,85.91a9.61,9.61,0,0,0,6.1.55c6.1-1.52,21.23-7.44,28.49-31.6a21.62,21.62,0,0,0,11.71-9c2.87-6.1-.79-13.3-6.52-12.88a12.22,12.22,0,0,0-4.21,1.35,59.22,59.22,0,0,0-.86-11.29,12.51,12.51,0,0,0-7.93-9.15c-8.36-2.87-28.13-10.74-34-22.82a8.72,8.72,0,0,0-10.19-5.8C1179.12,136.67,1176.25,139.66,1174.91,150.82Z" class="cls-19"></path><path d="M1182,174.62s7.39-3.72,10.25,3.11l2,28.25,8.12-.73" class="cls-24"></path><path d="M1203.4,217.88a14.29,14.29,0,0,0,11-9.76" class="cls-24"></path><path d="M1195.41,266.57s6.1,55.4,41.85-6.59c0,0,62.11,15.68,65.34,99.27h-42.71l-2,225.32s-67.11,12.93-91.09-7.57l4.7-221.48s-26,3.05-38.56-8.35C1132.75,347.17,1158.25,265.1,1195.41,266.57Z" class="cls-8"></path><path d="M1039.46,398.29V370.78s75,15.56,94-32.71a189.28,189.28,0,0,0,6.65-19.52c3.9-13.36,16.29-51.13,55.46-52l5.18,53a242.05,242.05,0,0,1,1.53,27.45l.36,362s-55.58-8.23-81.45-51.92c0,0,41.43-186.76,36.61-262.36l-.49.61c-.3-4.39-.67-6.1-1.16-10.18C1131.59,428,1067.71,428.92,1039.46,398.29Z" class="cls-7"></path><path d="M1307.12,338.5c-12.63-41.24-37.59-65.59-71.69-74.37,1.16-2.63,1.71-4.15,1.71-4.15,21.84,4.15,49.48,24.4,61,37.7a113.16,113.16,0,0,1,21.48,51.25c7.5,43.2.91,73.22-2.93,100.37C1316.27,402.69,1317.86,373.71,1307.12,338.5Z" class="cls-25"></path><path d="M1218.83,306.35c6.59-18.31,13.43-34.72,16.6-42.22a104.26,104.26,0,0,1,74.13,74.37c8.24,31.73,12.2,88.78,4.7,123.74-7.2,26.66-17.39,54.91-17.39,54.91L1319,663.58c-35.76,34.84-107.26,45.64-107.26,45.64l-1.65-351.38A148.81,148.81,0,0,1,1218.83,306.35Z" class="cls-7"></path><path d="M1296.87,516.9,1319,663.34s-37-18.31-81.76-37.4a63.44,63.44,0,0,0,47.41-17l-4.52-57.59-17.57,10-5.74-8.54,25.57-7.69Z" class="cls-25"></path><path d="M1233.72,318.79l19.4-21.53-24.4,14Z" class="cls-26"></path><path d="M1191.07,276.33l-12.2,22.82,15.74,12.2-7.38,12,11.9,70.35" class="cls-5"></path><path d="M1146.66,562.54,1139,607.39a41.25,41.25,0,0,0,40.39,15.43l.91-32.64" class="cls-5"></path><path d="M1253,554.06l-7.87,23.13,27.33-14.65.92-14.7Z" class="cls-19"></path><path d="M1195.83,266.57s-27,16.78-28.37,83.34h-3.17s-3.17-62.66,32-89.2Z" class="cls-27"></path><path d="M1266.91,382.49c6.1-41.79,3.36-109.82-33.8-130.2l2.93,6.1s39.72,27,27.21,122.64a2.65,2.65,0,0,1-1.34,2.07c-12.2,5.74-19.83,28.43-24.41,50.46a2.33,2.33,0,0,0,1.53,2.75l3.29.91a2,2,0,0,0,2.35-1.45.32.32,0,0,0,0-.14,2.19,2.19,0,0,0-1.28-2.8l-1.89-.8c2.32-11,8.54-36.6,17.94-42.7a3.59,3.59,0,0,1,5,.95,3.83,3.83,0,0,1,.37.69,35.17,35.17,0,0,1,1.34,17.33,115,115,0,0,1-2.75,17l-2.8,12.21-1.53-.49a2.09,2.09,0,0,0-2.44,1.63v.81a2.32,2.32,0,0,0,1.34,2.74l3.3,1.22a2.07,2.07,0,0,0,2.54-1.45.25.25,0,0,0,0-.07c2.32-8.91,10.31-41.49,4.82-54.3A19.87,19.87,0,0,1,1266.91,382.49Z" class="cls-27"></path><path d="M1166.42,363.21a9.52,9.52,0,1,0-8.15-10.71,9.13,9.13,0,0,0-.08,1.38A8.83,8.83,0,0,0,1166.42,363.21Z" class="cls-27"></path><path d="M1166.42,358.45a4.76,4.76,0,1,0-4.1-5.33,3.33,3.33,0,0,0,0,.63A4.45,4.45,0,0,0,1166.42,358.45Z" class="cls-7"></path><path d="M1239,268.89l14.15,28.24-24.4,14,7.87,12.2s-19.16,39-21.17,70.35" class="cls-5"></path><path d="M1266.73,702.57c.67,24.4,1.34,49.3,2,73.95,1,39.29,2.2,78.58,3.24,117.93.3,9,.48,18.31.79,27.09a.69.69,0,0,0,.44.85.67.67,0,0,0,.84-.45.68.68,0,0,0,0-.4c-.67-24.4-1.4-49.23-2.07-73.94-1-39.24-2.2-78.53-3.24-117.88,0-9-.49-18.31-.79-27.15a.61.61,0,1,0-1.22,0Z" class="cls-7"></path><path d="M1156,374.19a128.72,128.72,0,0,1,2.2,20.63c-4.82,6.53-52.41,53.75-118.73,3.84v-5.49C1073.81,417,1132.44,414.52,1156,374.19Z" class="cls-25"></path><path d="M1474.72,798.36s3.23-36.61,33.74-52.9a42.74,42.74,0,0,0,21.6-30.51,38.64,38.64,0,0,0,0-14.46,92.6,92.6,0,0,1-3.12-31.91,43,43,0,0,1,8-21.53,63.41,63.41,0,0,0,12.2-33,41.61,41.61,0,0,0-7.69-26,58.58,58.58,0,0,1-9.76-41.37s5.37-43.56-20-47.29c0,0-28.8,2.57-25.14,53.21,0,0,3.91,25-4.94,41.91,0,0-19.1,21.6-7.38,63.09,0,0,8.84,23.12-4.58,39.48C1467.58,696.89,1446,723.43,1474.72,798.36Z" class="cls-28"></path><path d="M1448.48,820.63s3.18-56.19-35.81-80c0,0-11.29-29.84-4.21-52.23a131.68,131.68,0,0,0,7.69-57.47s-21.91-36-5.25-75.84c0,0,21.29-16.66,22.15-54.37,0,0,1.46-54.42,27.33-53.2,0,0,28.49,9.64,16.9,70.72,0,0-7.87,29.71-1.65,52.34,0,0,15.74,30.51-2.5,78.65,0,0-12.2,26.3-1.52,48.81C1471.54,698.42,1489.12,735.7,1448.48,820.63Z" class="cls-9"></path><path d="M1455.13,498l-7.5,347.1" class="cls-14"></path><path d="M1504.13,551.86,1470.39,841" class="cls-14"></path><path d="M1430.36,818.68s-3.66-33.5-31.66-47.29a38.86,38.86,0,0,1-20.38-27.58,33.68,33.68,0,0,1,0-13.12,83,83,0,0,0-.55-43,54.89,54.89,0,0,1-14.4-53.75,51.86,51.86,0,0,0,12.2-43.44s-5.73-39.48,17.27-43.57c0,0,26.3,1.53,23.92,47.84,0,0-3,22.94,5.3,38.07,0,0,17.82,19.22,7.87,57.29,0,0-7.62,21.36,4.89,35.82C1434.94,726.06,1455.13,749.67,1430.36,818.68Z" class="cls-28"></path><path d="M1397.6,612.33l32.76,206.35" class="cls-14"></path><path d="M1491.19,906.84h-79.31l-8.67-94.63h97Z" class="cls-29"></path><path d="M1491.19,906.84h-79.31l-8.67-94.63h97Z" class="cls-6"></path><path d="M1414,826.67h73.21" class="cls-14"></path><path d="M1414,893.36h73.21" class="cls-14"></path><path d="M1214.14,188.65l-11,.49a5.49,5.49,0,0,1,0-10.86l10.92-.49a5.19,5.19,0,0,1,4.89,5.31,5.07,5.07,0,0,1-4.55,5.53Z" class="cls-30"></path><path d="M1182.71,189.75l-10.92.49a5.49,5.49,0,0,1-.36-10.86l11-.49a5.18,5.18,0,0,1,4.88,5.31,5.07,5.07,0,0,1-4.53,5.55Z" class="cls-30"></path></g></g></g></g></svg>