<?xml version="1.0" encoding="utf-8"?>
<!-- Generator: Adobe Illustrator 24.2.0, SVG Export Plug-In . SVG Version: 6.00 Build 0)  -->
<svg version="1.1" id="图层_1" xmlns="http://www.w3.org/2000/svg" xmlns:xlink="http://www.w3.org/1999/xlink" x="0px" y="0px"
	 viewBox="0 0 700 700" style="enable-background:new 0 0 700 700;" xml:space="preserve">
<style type="text/css">
	.st0{fill:#D1E3FF;}
	.st1{fill:#E3EEFF;}
	.st2{fill:#F5FCFF;}
	.st3{fill:#FFFFFF;}
	.st4{fill:#E2EEFF;}
	.st5{fill:#D3E2F9;}
	.st6{fill:#E2EEFA;}
	.st7{fill:none;stroke:#1E2889;stroke-width:1.004;stroke-miterlimit:10;}
	.st8{fill-rule:evenodd;clip-rule:evenodd;fill:#B0D8FF;}
	.st9{fill:#1E2889;}
	.st10{fill:#0542BF;}
	.st11{fill:#006DFE;}
	.st12{fill:url(#SVGID_1_);}
	.st13{fill:#0E2354;}
	.st14{fill:#EA756C;}
	.st15{fill:#FFACA6;}
	.st16{clip-path:url(#SVGID_3_);fill:#EA756C;}
	.st17{clip-path:url(#SVGID_5_);fill:#266ABC;}
	.st18{clip-path:url(#SVGID_7_);fill:#2976E5;}
	.st19{clip-path:url(#SVGID_9_);fill:#FE8E00;}
	.st20{clip-path:url(#SVGID_11_);fill:#EA756C;}
	.st21{fill:#FFAB00;}
	.st22{fill:#FE8E00;}
	.st23{clip-path:url(#SVGID_13_);fill:#162172;}
	.st24{clip-path:url(#SVGID_15_);fill:#2735A0;}
	.st25{clip-path:url(#SVGID_17_);fill:#0542BF;}
	.st26{clip-path:url(#SVGID_17_);fill:#004DE8;}
	.st27{clip-path:url(#SVGID_19_);fill:#EA756C;}
	.st28{fill:#7A99CE;}
	.st29{fill:#B0D8FF;}
	.st30{clip-path:url(#SVGID_21_);fill:#EA756C;}
	.st31{fill:#FFB655;}
	.st32{fill:#E89400;}
	.st33{fill:#F6C33A;}
	.st34{fill:#DAEBFF;}
	.st35{fill:#EBF5FF;}
	.st36{fill:#00D967;}
	.st37{opacity:0.45;fill:url(#SVGID_22_);}
	.st38{fill:#99CCFF;}
</style>
<g>
	<g>
		
			<rect x="18.6" y="180" transform="matrix(-1 -1.224647e-16 1.224647e-16 -1 173.5046 522.6796)" class="st0" width="136.3" height="162.6"/>
		
			<rect x="12.4" y="180" transform="matrix(-1 -1.224647e-16 1.224647e-16 -1 164.3572 522.6796)" class="st1" width="139.6" height="162.6"/>
		
			<rect x="18.6" y="342.6" transform="matrix(-1 -1.224647e-16 1.224647e-16 -1 173.5046 696.8463)" class="st0" width="136.3" height="11.6"/>
		
			<rect x="2" y="342.6" transform="matrix(-1 -1.224647e-16 1.224647e-16 -1 143.5854 696.8463)" class="st1" width="139.6" height="11.6"/>
		
			<rect x="9.6" y="200.3" transform="matrix(-1.836970e-16 1 -1 -1.836970e-16 343.5185 179.1612)" class="st2" width="145.1" height="122.1"/>
		<polygon class="st3" points="128.2,333.9 77,188.8 52.8,188.8 104.1,333.9 		"/>
		<path class="st4" d="M139.2,284.7c0.3,0,0.6-0.3,0.6-0.6v-89.6c0-0.3-0.3-0.6-0.6-0.6c-0.3,0-0.6,0.3-0.6,0.6V284
			C138.6,284.4,138.9,284.7,139.2,284.7z"/>
		<polygon class="st3" points="98.9,333.9 47.6,188.8 38.2,188.8 89.4,333.9 		"/>
		
			<rect x="-50.9" y="260.8" transform="matrix(-1.836970e-16 1 -1 -1.836970e-16 283.0078 239.6718)" class="st0" width="145.1" height="1.1"/>
		<polygon class="st0" points="10.3,199.9 146.6,199.9 147.4,192.2 11.1,192.2 		"/>
		<polygon class="st0" points="10.3,205.6 146.6,205.6 147.4,197.9 11.1,197.9 		"/>
		<polygon class="st0" points="10.3,212.5 146.6,212.5 147.4,204.7 11.1,204.7 		"/>
		<polygon class="st0" points="10.3,220.1 146.6,220.1 147.4,212.3 11.1,212.3 		"/>
		<polygon class="st0" points="10.3,229.2 146.6,229.2 147.4,221.4 11.1,221.4 		"/>
		<polygon class="st0" points="10.3,239.4 146.6,239.4 147.4,231.6 11.1,231.6 		"/>
	</g>
	<rect x="3.2" y="452.1" class="st5" width="694.3" height="3.6"/>
	<ellipse class="st6" cx="116.5" cy="518" rx="45.6" ry="12.3"/>
	<ellipse class="st6" cx="421.6" cy="527.7" rx="53.5" ry="14.4"/>
	<ellipse class="st6" cx="496" cy="477.5" rx="76.4" ry="10.8"/>
	<ellipse class="st6" cx="246.3" cy="493.4" rx="85.7" ry="10.8"/>
	<ellipse class="st6" cx="649.5" cy="486" rx="25.3" ry="6.8"/>
	<path class="st7" d="M317.4,460.7c0,0,15.5,1.6,22.3,16.8c6.8,15.2,35,24.4,24.9-68.5"/>
	<g>
		<g>
			<g>
				<g>
					<g>
						<path class="st8" d="M694.2,381.8c-1.6-0.4-3.1-0.8-4.6-1c-0.5-0.1-1.4,0.2-1.7,0.6c-0.5,0.9-1.9,1.6-0.9,2.9
							c0.7,0.9,1.3,1.8,2,2.6c0.9,0.9,0.8,1.6-0.1,2.5c-0.6,0.5-1,1.1-1.6,1.7c-1.4-0.9-2.7-1.8-4-2.6c-0.5-0.2-1.3-0.1-1.8,0.2
							c-0.8,0.6-2.2,0.8-1.7,2.4c0.4,1.1,0.7,2.2,1.1,3.2c0.4,0.9,0.2,1.4-0.7,1.8c-3,1.6-2.1,1.5-4.1-0.8c-0.2-0.2-0.4-0.5-0.6-0.8
							c-1.1-1.4-3.2-1.5-4.4-0.3c-0.2,0.3-0.3,0.8-0.3,1.2c0,0.7,0,1.4,0,2.1c0,0.7,0,1.4,0,2.3c-1,0.2-2.1,0.5-3.1,0.6
							c-0.4,0-0.9-0.5-1.1-0.9c-0.4-0.7-0.6-1.5-0.9-2.3c-0.8-2.1-1.7-2.6-3.9-2c-0.3,0.1-0.7,0.5-0.9,0.8c-0.2,0.4-0.3,0.8-0.4,1.2
							c-1.2,3.4-1.2,3.4-5,2.6c0-1.4-0.1-2.9,0-4.4c0.1-1.1-0.7-1.4-1.5-1.5c-0.9-0.2-1.8-1.2-2.8,0.1c-0.9,1.2-1.8,2.3-2.8,3.5
							c-1.2-0.6-2.3-1.2-3.5-1.8c0.4-1.3,0.7-2.5,1.2-3.6c1-1.8-0.6-2.3-1.5-3.2c-1-1-1.7-0.3-2.6,0.2c-1,0.7-2,1.3-2.9,1.8
							c-0.3-0.1-0.3-0.1-0.4-0.1c-2.6-2.4-2.6-2.4-0.6-5.3c1.2-1.7,1.1-2.9-0.5-4.3c-0.3-0.3-0.9-0.4-1.3-0.3
							c-1.3,0.2-2.7,0.6-4,0.9c-0.1-0.1-0.2-0.1-0.3-0.2c-2.1-3.9-2-3,1.2-5.2c1.1-0.7,1.6-1.4,1.1-2.8c-0.4-1.3-0.7-2.4-2.5-2.3
							c-1.1,0.1-2.1-0.2-3.2-0.3c-0.1-0.2-0.2-0.3-0.2-0.4c-0.5-3.5-0.5-3.6,2.9-4.4c1.9-0.4,1.7-1.7,1.9-3c0.2-1.4-0.6-1.8-1.6-2.2
							c-1-0.4-2-0.9-3.1-1.4c0.3-1.3,0.6-2.5,0.9-3.9c1.4,0.1,2.8,0.1,4.1,0.3c0.9,0.1,1.5-0.3,1.7-1.1c0.2-1,1.6-2,0.2-3.2
							c-1-0.9-2-1.9-3-2.9c0.7-1.1,1.3-2.1,2-3.3c1.2,0.5,2.4,0.9,3.6,1.5c1,0.5,1.7,0.4,2.4-0.5c0.7-1,2-1.7,0.8-3.1
							c0,0-0.1-0.1-0.1-0.1c-1.7-3.2-1.7-3.2,1.4-5.7c1,0.9,2.1,1.7,3.1,2.7c1.3,1.3,2.1-0.2,3.2-0.5c0.8-0.3,1.3-0.8,1.1-1.8
							c-0.3-1.3-0.4-2.6-0.6-4c1-0.4,1.9-0.8,2.9-1.1c0.3-0.1,0.9,0.2,1.1,0.5c0.6,0.8,1,1.7,1.4,2.6c0.5,1.1,1.1,1.2,2.3,1.2
							c2-0.1,2.9-0.9,3-2.9c0-1,0.3-1.9,0.4-2.8c0.2-0.1,0.2-0.1,0.3-0.1c3.6-0.4,3.6-0.4,4.2,3.1c0.4,2.2,1.5,3,3.8,2.7
							c0.4-0.1,0.8-0.5,1-0.9c0.7-1.2,1.4-2.5,2.1-3.8c1.2,0.4,2.4,0.8,3.7,1.2c-0.2,1.4-0.4,2.8-0.7,4.2c-0.2,0.9,0,1.3,0.8,1.8
							c2.4,1.3,2.4,1.3,4.5-0.5c0.7-0.6,1.5-1.3,2.3-2c1,0.8,1.9,1.5,3,2.3c-0.7,1.4-1.3,2.8-2.1,4.1c-0.9,1.6,0.7,2,1.2,2.9
							c0.5,0.8,1.2,1,2.1,0.5c1.3-0.6,2.6-1.1,3.8-1.7c0.2,0.1,0.3,0.1,0.4,0.2c2.2,2.6,2.2,2.6-0.2,4.9c-0.9,0.9-2.3,1.5-1.5,3.5
							c0.7,1.7,1.4,2.4,3.2,1.9c0.4-0.1,0.9-0.1,1.3-0.1c2.3-0.2,2.3-0.1,2.9,2.1c0.3,1.1,0.2,1.8-0.9,2.1c-0.7,0.2-1.3,0.7-1.9,0.9
							c-1.7,0.4-2.2,1.3-2,3.1c0.2,1.3,0.6,2,1.9,2.1c0.6,0.1,1.2,0.3,1.7,0.5c2.5,0.7,2.6,0.9,2,3.5c-0.1,0.4-0.6,0.9-1,1
							c-0.8,0.2-1.7,0.2-2.6,0.3c-2.2,0.2-3.2,1.4-3.1,3.5c0,0.3,0.4,0.7,0.7,1c0.9,0.7,1.9,1.3,2.9,1.9c1,0.5,1.2,1.1,0.7,2.1
							C694.9,380.2,694.6,380.9,694.2,381.8z M645.6,375.3c5,9.6,17.3,13.5,26.8,8.4c9.8-5.2,13.6-17.5,8.4-27.4
							c-5-9.5-17.4-13.3-27.1-8.2C644,353.3,640.4,365.4,645.6,375.3z"/>
					</g>
				</g>
				<g>
					<g>
						<path class="st8" d="M671.3,381c-8.5,4.6-18.7,1.5-23.4-7c-4.6-8.4-1.5-18.9,7-23.4c8.2-4.5,19-1.3,23.4,6.9
							C682.9,365.9,679.8,376.4,671.3,381z M669.9,362.2c-2.1-3.9-7-5.3-10.8-3.2c-3.8,2.1-5.1,7-3,10.9c2.1,3.8,6.9,5.1,10.7,3
							C670.7,370.8,672.1,366.1,669.9,362.2z"/>
					</g>
				</g>
			</g>
			<g>
				<g>
					<path class="st8" d="M574.5,446.3c0.3-0.1,0.4,0,0.6,0.2c1.1,1.2,2.2,2.4,3.3,3.5c0.2,0.2,0.2,0.4,0.1,0.6
						c-0.9,2.3-1.8,4.6-2.6,6.9c-0.1,0.2-0.1,0.4-0.2,0.6c3.5,2.1,7,4.3,10.4,6.4c1.1-1.2,2.1-2.3,3.1-3.5c0.8-0.8,1.5-1.7,2.3-2.5
						c0.2-0.2,0.3-0.2,0.6-0.2c1.5,0.5,3,0.9,4.6,1.4c0.3,0.1,0.4,0.2,0.5,0.5c0.4,2.5,0.8,4.9,1.2,7.4c0.1,0.4,0.2,0.5,0.5,0.5
						c3.8,0.1,7.6,0.2,11.4,0.3c0.1,0,0.2,0,0.4,0c0.1-0.5,0.2-0.9,0.3-1.4c0.5-2.1,0.9-4.3,1.4-6.4c0.1-0.3,0.2-0.4,0.5-0.5
						c1.5-0.3,3-0.7,4.5-1.1c0.2,0,0.5,0,0.6,0.1c1.6,2,3.3,4,4.9,6l10.9-5.9c-0.2-0.7-0.4-1.3-0.6-1.9c-0.6-1.8-1.2-3.6-1.7-5.4
						c-0.1-0.3,0-0.4,0.2-0.6c1.2-1.1,2.3-2.1,3.4-3.2c0.2-0.2,0.4-0.3,0.7-0.2c2.3,0.9,4.7,1.8,7,2.7c0.1,0.1,0.3,0.1,0.5,0.2
						c2.1-3.5,4.2-6.9,6.4-10.4c-0.1-0.1-0.2-0.2-0.4-0.4c-1.8-1.7-3.7-3.3-5.5-5c-0.2-0.2-0.3-0.4-0.2-0.7c0.5-1.5,0.9-3,1.3-4.5
						c0.1-0.3,0.2-0.5,0.5-0.5c2.5-0.4,5-0.8,7.5-1.2c0.2,0,0.4,0,0.4-0.4c0.1-3.9,0.2-7.9,0.3-11.8c0,0,0-0.1,0-0.1
						c-0.6-0.1-1.2-0.3-1.8-0.4c-2-0.4-4-0.9-6-1.3c-0.3-0.1-0.4-0.2-0.5-0.5c-0.3-1.5-0.7-3.1-1.1-4.6c-0.1-0.3,0-0.5,0.2-0.6
						c2-1.6,4-3.2,6-4.8c0.1-0.1,0.2-0.2,0.3-0.3l-5.8-10.7c-1.9,0.6-3.9,1.2-5.8,1.8c-0.6,0.2-1.3,0.4-1.9,0.6
						c-0.3,0.1-0.4,0-0.6-0.1c-1.1-1.2-2.2-2.4-3.3-3.5c-0.2-0.2-0.2-0.4-0.1-0.6c0.9-2.3,1.8-4.6,2.6-6.9c0.1-0.2,0.1-0.4,0.2-0.6
						c-3.5-2.1-6.9-4.3-10.4-6.4c-0.7,0.8-1.5,1.6-2.2,2.4c-1.1,1.2-2.1,2.4-3.2,3.6c-0.2,0.2-0.3,0.3-0.6,0.2
						c-1.5-0.5-3.1-0.9-4.7-1.4c-0.3-0.1-0.4-0.2-0.4-0.5c-0.4-2.5-0.8-4.9-1.2-7.4c-0.1-0.4-0.2-0.5-0.6-0.5
						c-3.8-0.1-7.5-0.2-11.3-0.3c-0.2,0-0.3,0-0.5,0c-0.3,1.4-0.6,2.8-0.9,4.2c-0.3,1.2-0.5,2.5-0.8,3.7c-0.1,0.3-0.2,0.4-0.5,0.4
						c-1.5,0.4-3.1,0.7-4.6,1.1c-0.3,0.1-0.5,0-0.6-0.2c-1.6-2-3.2-4-4.8-5.9c-0.1-0.1-0.2-0.2-0.3-0.3l-10.7,5.8
						c0.7,2.1,1.3,4.2,2,6.3c0.1,0.5,0.3,0.9,0.5,1.4c0.1,0.3,0.1,0.4-0.2,0.7c-1.2,1.1-2.3,2.1-3.4,3.2c-0.3,0.3-0.4,0.3-0.8,0.2
						c-2.4-0.9-4.7-1.8-7.1-2.7c-0.1,0-0.2-0.1-0.3-0.1c-2.1,3.5-4.3,6.9-6.4,10.4c0.7,0.6,1.3,1.2,2,1.8c1.3,1.2,2.7,2.4,4,3.6
						c0.2,0.2,0.2,0.4,0.2,0.7c-0.5,1.5-0.9,3-1.3,4.5c-0.1,0.3-0.2,0.4-0.6,0.5c-2.5,0.4-4.9,0.8-7.4,1.2c-0.4,0.1-0.5,0.2-0.5,0.6
						c-0.1,3.8-0.2,7.5-0.3,11.3c0,0.1,0,0.3,0,0.4c1.4,0.3,2.8,0.6,4.2,0.9c1.2,0.3,2.4,0.5,3.7,0.8c0.3,0.1,0.4,0.2,0.5,0.5
						c0.3,1.5,0.7,3.1,1.1,4.6c0.1,0.3,0,0.4-0.2,0.6c-2,1.6-4,3.2-5.9,4.8c-0.1,0.1-0.2,0.2-0.3,0.3l5.8,10.7
						c1.9-0.6,3.9-1.2,5.8-1.8C573.3,446.7,573.9,446.5,574.5,446.3z M592.6,396.2c13.5-7.3,30.4-2.3,37.7,11.2
						c7.3,13.5,2.3,30.3-11.2,37.6c-13.5,7.3-30.4,2.3-37.7-11.2C574.1,420.4,579.1,403.5,592.6,396.2z"/>
				</g>
			</g>
		</g>
	</g>
	<g>
		<rect x="461.2" y="409" class="st9" width="69.5" height="48.1"/>
		<rect x="427.5" y="456.7" class="st10" width="136.9" height="20.9"/>
	</g>
	<path class="st11" d="M649.9,413.1H342c-4.4,0-8-3.6-8-8V165.9c0-4.4,3.6-8,8-8h307.9c4.4,0,8,3.6,8,8v239.2
		C657.9,409.5,654.3,413.1,649.9,413.1z"/>
	<linearGradient id="SVGID_1_" gradientUnits="userSpaceOnUse" x1="344.7531" y1="285.4847" x2="647.1489" y2="285.4847">
		<stop  offset="0" style="stop-color:#B0D8FF"/>
		<stop  offset="1.537955e-02" style="stop-color:#B3D9FF"/>
		<stop  offset="0.145" style="stop-color:#C4E1FF"/>
		<stop  offset="0.3014" style="stop-color:#D1E7FF"/>
		<stop  offset="0.5117" style="stop-color:#D8EAFF"/>
		<stop  offset="1" style="stop-color:#DAEBFF"/>
	</linearGradient>
	<path class="st12" d="M639.7,403.1H352.2c-4.1,0-7.4-3.3-7.4-7.4V175.3c0-4.1,3.3-7.4,7.4-7.4h287.6c4.1,0,7.4,3.3,7.4,7.4v220.4
		C647.1,399.8,643.8,403.1,639.7,403.1z"/>
	<g>
		<path class="st10" d="M494.5,309.6c-4.3-4.3-8.6-8.6-13-12.9c-0.8-0.7-0.9-1.3-0.3-2.2c0.9-1.3,1.7-2.6,2.6-4.1
			c-0.2-0.3-0.5-0.6-0.8-0.9c-18-18-36-36-54.1-54c-0.5-0.5-1.1-1-1.8-1.3c-3.4-1.9-6.8-3.6-10.2-5.5c-0.5-0.3-0.9-0.7-1.1-1.2
			c-1.8-4.5-3.5-8.9-5.2-13.4c-0.1-0.4,0-1,0.3-1.3c1.5-1.6,3-3.1,4.6-4.6c0.3-0.3,0.9-0.4,1.3-0.2c4.5,1.7,9,3.4,13.4,5.2
			c0.5,0.2,0.9,0.6,1.2,1c1.5,2.7,3.1,5.4,4.5,8.1c1.1,2.1,2.5,3.9,4.2,5.6c17.4,17.4,34.8,34.8,52.2,52.2c0.3,0.3,0.5,0.6,0.6,0.8
			c1.9-1.1,3.6-2.1,5.4-3.1c4.7,4.7,9.3,9.3,13.9,14c0.4-0.3,0.6-0.6,0.9-0.7c0.8-0.5,1.6-1.2,2.5-1.5c1.6-0.6,3.2-0.6,4.5,0.6
			c1.3,1.2,1.5,2.8,1,4.4c-0.2,0.8-0.1,1.2,0.5,1.7c4.8,4,9.6,8.1,14.5,12.1c0.4,0.3,0.9,0.6,1.4,0.8c13,6.4,24.1,15,33.3,26.1
			c2.7,3.2,4.9,6.7,6.4,10.7c2,5.6,1.6,11.1-1.6,16.2c-2.6,4.3-6.2,7.9-10.5,10.5c-6,3.7-12.1,3.6-18.4,0.8c-4.8-2.2-8.8-5.4-12.7-9
			c-9.3-8.7-16.8-18.7-22.3-30.2c-0.2-0.4-0.5-0.8-0.8-1.2c-4-4.8-8.1-9.6-12.1-14.5c-0.4-0.4-0.7-0.7-1.4-0.5
			c-1.8,0.6-3.5,0.5-4.8-1.1c-1.3-1.6-1.1-3.4-0.2-5.1C493,311.4,493.8,310.6,494.5,309.6z M570.3,355c-0.3-0.4-0.7-1.2-1.3-1.8
			c-9.6-9.7-19.3-19.3-28.9-28.9c-3-3-6-6-9-9c-0.8-0.8-1.7-1.1-2.8-0.5c-1,0.5-1.6,1.7-1.3,2.7c0.2,0.6,0.6,1.2,1.1,1.6
			c5.4,5.5,10.9,10.9,16.3,16.3c7.2,7.2,14.4,14.4,21.6,21.6c0.7,0.7,1.5,1.2,2.5,0.8C569.6,357.3,570.2,356.5,570.3,355z
			 M560.5,364.8c-0.3-0.4-0.7-1.1-1.2-1.7c-8.3-8.3-16.6-16.6-24.9-25c-4.4-4.4-8.7-8.7-13.1-13.1c-1-1-2.2-1-3.2-0.1
			c-1,1-1.1,2.3-0.2,3.4c0.2,0.3,0.5,0.6,0.8,0.8c7.6,7.6,15.1,15.1,22.7,22.7c5,5,10,10,15,15c0.7,0.7,1.5,1.1,2.5,0.7
			C559.8,367.2,560.3,366.3,560.5,364.8z"/>
		<path class="st10" d="M489.8,270.8c3.3-3.3,6.5-6.4,9.6-9.6c6-6,11.9-11.9,17.9-17.9c0.6-0.6,0.8-1.1,0.4-1.9
			c-2.1-5.3-3.8-10.7-4.1-16.5c-0.5-9.5,3.2-16.9,10.9-22.3c8.7-6.1,18.3-8.5,28.9-6.9c1.2,0.2,2.1,0.7,2.5,1.9
			c0.4,1.1-0.2,1.9-0.9,2.7c-5.8,5.8-11.5,11.7-17.4,17.4c-2.4,2.3-2.9,4.8-2.2,7.9c1.1,4.4,3.4,8.1,6.3,11.5c3.7,4.4,8,8,13.4,10.1
			c1.6,0.6,3.4,0.9,5.1,1.1c1.9,0.2,3.5-0.5,4.8-1.9c5.9-6,11.9-11.9,17.9-17.9c0.8-0.8,1.7-1.4,2.9-1c1.2,0.4,1.7,1.4,1.8,2.6
			c1.6,11.2-1.1,21.3-8,30.2c-5.7,7.4-13.4,10.2-22.6,9.4c-5.2-0.5-10.2-2-15-4c-0.9-0.4-1.4-0.2-2.1,0.5
			c-6,6.1-12.1,12.1-18.1,18.2c-0.6,0.6-1.1,0.7-1.9,0.5c-2.1-0.6-4.2-0.5-6.2,0.3c-0.7,0.3-1.2,0.2-1.7-0.4
			c-3.9-3.9-7.8-7.8-11.7-11.8c-0.6-0.6-1.1-0.7-1.8-0.4c-1.3,0.7-2.6,1.2-3.9,1.8c-0.5,0.3-0.9,0.3-1.3-0.2
			C492.2,273.1,491.1,272,489.8,270.8z"/>
		<path class="st10" d="M473.4,287.3c1.4,1.4,2.7,2.7,4,3.9c-0.7,1.6-1.4,3.3-2.2,4.9c-0.3,0.7-0.2,1.1,0.3,1.6
			c3.9,3.8,7.7,7.7,11.6,11.6c0.7,0.6,0.9,1.2,0.5,2.1c-0.8,2-0.9,4-0.2,6.1c0.3,0.8,0.1,1.3-0.5,1.8c-8.9,8.9-17.9,17.8-26.8,26.8
			c-8.1,8.1-16.5,16-24.3,24.4c-7.7,8.3-19.6,5.5-25-2.5c-3.1-4.5-4.1-9.5-2-14.7c0.7-1.7,1.8-3.3,3.1-4.6
			c20.2-20.3,40.5-40.5,60.7-60.8C473,287.7,473.2,287.4,473.4,287.3z M436.3,355.8c0-4.8-3.8-8.7-8.6-8.7c-4.8,0-8.8,3.9-8.8,8.6
			c0,4.8,4,8.8,8.7,8.7C432.4,364.4,436.3,360.5,436.3,355.8z"/>
		<path class="st3" d="M570.3,355c-0.1,1.5-0.7,2.3-1.7,2.8c-1,0.4-1.8,0-2.5-0.8c-7.2-7.2-14.4-14.4-21.6-21.6
			c-5.4-5.4-10.9-10.9-16.3-16.3c-0.5-0.5-0.9-1-1.1-1.6c-0.3-1,0.3-2.1,1.3-2.7c1.1-0.6,1.9-0.3,2.8,0.5c3,3,6,6,9,9
			c9.6,9.6,19.3,19.3,28.9,28.9C569.6,353.8,570,354.6,570.3,355z"/>
		<path class="st3" d="M560.5,364.8c-0.1,1.5-0.6,2.3-1.7,2.8c-1,0.5-1.8,0-2.5-0.7c-5-5-10-10-15-15c-7.6-7.6-15.1-15.1-22.7-22.7
			c-0.3-0.3-0.6-0.5-0.8-0.8c-0.9-1-0.8-2.4,0.2-3.4c1-0.9,2.2-0.9,3.2,0.1c4.4,4.4,8.7,8.7,13.1,13.1c8.3,8.3,16.6,16.6,24.9,25
			C559.8,363.7,560.2,364.4,560.5,364.8z"/>
		<path class="st3" d="M436.3,355.8c0,4.7-3.9,8.7-8.7,8.7c-4.8,0-8.7-3.9-8.7-8.7c0-4.8,4-8.7,8.8-8.6
			C432.5,347.1,436.4,351,436.3,355.8z"/>
	</g>
	<g>
		<g>
			<path class="st13" d="M436.1,526.8c0,0,1.4,3.7,3.4,5.6c11.4-4.7,21.9-12.1,25.9-15c-0.2-0.9-0.7-1.8-1.3-2.9
				c-1.2-2-4.5-7.7-6.8-11.6c-0.9,1.9-3.4,5.2-9.9,7.1c2.1,4.9-4.6,9.8-8.3,12.3C435.2,524.8,436.1,526.8,436.1,526.8z"/>
			<path class="st14" d="M444.3,504.4c0,0,0.2,0.3,2.8,5.3c0.1,0.1,0.1,0.3,0.2,0.4c6.5-2,9-5.2,9.9-7.1c-1.3-2.3-2.3-3.9-2.3-3.9
				L444.3,504.4z"/>
			<path class="st13" d="M439.5,532.4c0.5,0.5,1,0.8,1.6,1c2.9,0.8,20-9.8,22.5-11.6c1.7-1.2,2.1-2.7,1.7-4.4
				C461.5,520.3,451,527.7,439.5,532.4z"/>
		</g>
		<g>
			<path class="st13" d="M382.5,525.9c0,0-0.4,4,0.6,6.6c12.4,0.8,25-1.1,29.8-2c0.2-0.9,0.2-2,0.1-3.2c-0.2-2.3-0.7-8.9-1-13.4
				c-1.7,1.3-5.4,3.1-12.1,2c-0.3,5.3-8.5,6.8-12.9,7.3C382.7,523.7,382.5,525.9,382.5,525.9z"/>
			<path class="st15" d="M399.8,509.5c0,0,0.1,0.3,0.2,6c0,0.1,0,0.3,0,0.4c6.7,1.1,10.4-0.7,12.1-2c-0.2-2.6-0.3-4.5-0.3-4.5
				L399.8,509.5z"/>
			<path class="st13" d="M383.1,532.5c0.2,0.6,0.6,1.2,1,1.6c2.2,2,22.3,0.1,25.4-0.4c2.1-0.3,3.1-1.4,3.5-3.2
				C408.2,531.3,395.5,533.3,383.1,532.5z"/>
		</g>
		<polygon class="st3" points="358.4,294.5 384.5,284.6 397.5,332.2 373.8,343.2 		"/>
		<g>
			<defs>
				<path id="SVGID_2_" d="M409.7,263.4c0,0-0.5,15.8,2,20.1c2.5,4.3,6.2,2.8,7.8-1.9v-15.5L409.7,263.4z"/>
			</defs>
			<use xlink:href="#SVGID_2_"  style="overflow:visible;fill:#FFACA6;"/>
			<clipPath id="SVGID_3_">
				<use xlink:href="#SVGID_2_"  style="overflow:visible;"/>
			</clipPath>
			<path class="st16" d="M408.3,267.1c0,0,5.4,2.5,5.4,5.4c0,2.9,3.2,14.7,3.2,14.7l3.8-1.8c0,0,0.1-7.1,0-10.8S418,266,418,266
				s-3.5-3.8-5.3-4.4c-1.8-0.6-3.1,0-3.1,0L408.3,267.1z"/>
		</g>
		<path class="st14" d="M417.5,283.4c0,0,1.4,7.6-0.6,13.2c0,0,1.7,3,5.1,3.2c3.5,0.2,5.2-2.5,5.2-2.5s-0.9-3.6,0-9.5L417.5,283.4z"
			/>
		<path class="st14" d="M442.9,331.5c0,0,6.4,6.8,3.7,11.1s-5.6,9.6-5.6,9.6l0.5,11.8c0,0,14.6-15.8,15.6-21.1s-2.4-11.8-5.7-16.8
			L442.9,331.5z"/>
		<g>
			<defs>
				<path id="SVGID_4_" d="M419.1,411.5V445c0,0,5.7,24.9,13.8,42.7c8.1,17.9,9.7,19.2,9.7,19.2s10.6,0.9,16-6.8
					c0,0-16.7-42.5-17-58.3s3.6-40.2,0-52.9c-0.4-2.3-1.6-4.4-1.6-4.4l-16.3,1.7L419.1,411.5z"/>
			</defs>
			<use xlink:href="#SVGID_4_"  style="overflow:visible;fill:#2976E5;"/>
			<clipPath id="SVGID_5_">
				<use xlink:href="#SVGID_4_"  style="overflow:visible;"/>
			</clipPath>
			<path class="st17" d="M445.1,390.2c0,0-9.9,25.5-11,41.7s-2.5,42,2.7,66.3l-21.5-49.3v-42.6l8.6-20.1l18.8-3.5L445.1,390.2z"/>
		</g>
		<g>
			<defs>
				<path id="SVGID_6_" d="M403.2,386.2l-3,1.1c0,0-3.2,27.4-4.3,47.5c-1.1,20.1,1.6,74,1.6,74s9.5,6.3,17.9,0
					c0,0-1.1-33.6,1.6-48.3s18.8-66.8,18.1-73.2L403.2,386.2z"/>
			</defs>
			<use xlink:href="#SVGID_6_"  style="overflow:visible;fill:#3D85FB;"/>
			<clipPath id="SVGID_7_">
				<use xlink:href="#SVGID_6_"  style="overflow:visible;"/>
			</clipPath>
			<path class="st18" d="M417.1,388c0,0,2,8.7-2.7,28.1c-4.7,19.4-7,33.8-7.2,49.7c-0.2,15.9,2.7,50.8,2.7,50.8l7.2-1.2L441,392.7
				l-9.9-17.8L417.1,388z"/>
		</g>
		<path class="st13" d="M408.3,259.5c0,0-0.5,5.9,3.5,7.6c4,1.7,5,3.3,4.3,6.2c-0.7,2.9,0.4,10.2,3.4,12.7c3,2.5,10.7,5.3,15.5,0
			c4.9-5.3,12.8-6.8,12.3-19.4c-0.5-12.7-8.1-20.3-15.5-21.2c-7.4-0.9-12.1,0.3-14.2,2C417.6,247.5,407.9,248.2,408.3,259.5z"/>
		<g>
			<defs>
				<path id="SVGID_8_" d="M416.9,296.6c0,0-13.5,5.2-14.9,12.2c-1.4,7-1.8,78.5-1.8,78.5s9.5,7.4,24.9,5.7
					c15.4-1.7,16.3-7.4,16.3-7.4s0.2-48.1-0.8-51.8c0,0,7.8,0,11.9-7.2c0,0-8.6-20.4-11.7-26c-3.9-7-13.5-5.1-13.5-5.1
					S424.1,301.5,416.9,296.6z"/>
			</defs>
			<use xlink:href="#SVGID_8_"  style="overflow:visible;fill:#FFAB00;"/>
			<clipPath id="SVGID_9_">
				<use xlink:href="#SVGID_8_"  style="overflow:visible;"/>
			</clipPath>
			<path class="st19" d="M408.3,308.8c0,0,3.9-2.2,4.7,1.5s5.9,31.6-3.3,43.2c-9.2,11.5-11.9,7.8-14.3,1.3
				C392.9,348.3,401.9,312.5,408.3,308.8z"/>
			<path class="st19" d="M425.2,295.3c0,0,4.4-0.8,5,11.9c0.6,12.7-0.8,89.2-2.1,91.2s16.3-7.5,16.3-7.5s26.9-69.6,25.6-71.6
				c-1.4-2-41.9-28.5-41.9-28.5L425.2,295.3z"/>
		</g>
		<g>
			<defs>
				<path id="SVGID_10_" d="M396.8,332.9c0,0-1.2,10-3.4,13.1c-2.2,3-20.4-11.2-20.4-11.2s0.4-12.1-7.2-16.9
					c-7.6-4.8-2.1,14.2,1.1,19.3c0,0,11.5,16,22.5,20.7c11,4.7,12.3-0.5,14.1-3.3c1.8-2.8,4.9-18.9,4.9-18.9L396.8,332.9z"/>
			</defs>
			<use xlink:href="#SVGID_10_"  style="overflow:visible;fill:#FFACA6;"/>
			<clipPath id="SVGID_11_">
				<use xlink:href="#SVGID_10_"  style="overflow:visible;"/>
			</clipPath>
			<path class="st20" d="M395.6,337.3c0,0,8.3,0.7,7.2,5.9c-1.1,5.2-0.5,12.5-8.8,12.6c-8.4,0-14.2-4.4-14.2-4.4l7.5,9.4h11.4
				l7.6-3.5c0,0,5-12.2,5-13c0-0.8-1.6-10.1-1.6-10.1l-12.4-2.8l-2,4.2L395.6,337.3z"/>
		</g>
		<path class="st21" d="M395.3,333c0,0,2-17,4.6-22.3c2.6-5.3,8.8-4.9,10.7,0c1.9,4.9,1.6,26.2,1.6,26.2S401.9,342,395.3,333z"/>
	</g>
	<path class="st14" d="M135.4,318.9c0,0,1.3,10.2,8.9,15.1s20.7,10.7,20.7,10.7l-6.7,8.3c0,0-16.9-5.4-26.2-14.4
		c-5-5.2-8.3-16.3-8.3-16.3L135.4,318.9z"/>
	<g>
		<path class="st22" d="M87.1,509.1c2.3,4.7,9.2,12.9,16.3,16.8c0.3-0.5,0.6-1.1,0.8-1.8c1.3-5.3-10.1-8-11.6-16
			c-1.5-7.9,0.2-8.4,0.2-8.4l-10-2.2c0,0-1.3,4.2-2.7,7.4c0,0,0,0.1-0.1,0.1C82,505,85.4,505.5,87.1,509.1z"/>
		<path class="st21" d="M87.1,509.1c-1.8-3.6-5.1-4.1-7-4.1c-1.5,3.1-4.7,4.7-4.9,8.2c-0.2,3.5,8.9,7.7,15.1,11.3
			c5.4,3.2,10.9,4.5,13.1,1.3C96.3,522,89.4,513.9,87.1,509.1z"/>
	</g>
	<g>
		<path class="st22" d="M134.7,503.8c3.8,5,11.7,8.6,18.6,9.8c0-0.2,0-0.5,0-0.8c-0.1-5.4-11.9-5-15.5-12.3c-3.5-7.3-2-8.1-2-8.1
			l-10.2,0.5c0,0-0.1,3.8-0.5,7.1C127.7,499.8,132,500.2,134.7,503.8z"/>
		<path class="st21" d="M134.7,503.8c-2.7-3.6-7-4-9.6-3.8c0,0.3-0.1,0.5-0.1,0.8c-0.5,3.5-3.3,5.9-2.5,9.3c0.7,3.4,10.6,5,17.6,6.8
			c6.6,1.8,12.8,1.3,13.3-3.4C146.4,512.5,138.5,508.9,134.7,503.8z"/>
	</g>
	<g>
		<defs>
			<path id="SVGID_12_" d="M111.3,372.7l4,0.5c0,0,26.1,37.8,32.4,48.5s-11.2,73.5-11.2,73.5s-6.5,5.8-13-1c0,0,3-45.6,5.7-59.9
				l-21.7-24.5L96.7,379L111.3,372.7z"/>
		</defs>
		<use xlink:href="#SVGID_12_"  style="overflow:visible;fill:#1E2889;"/>
		<clipPath id="SVGID_13_">
			<use xlink:href="#SVGID_12_"  style="overflow:visible;"/>
		</clipPath>
		<path class="st23" d="M104.2,367.8c0,0,6.3,17.2,21.8,38.1c15.5,20.9,13,26.1,10.1,42.2c-2.9,16.2-9.7,55.7-9.7,55.7l-6.5-6.3
			l-11.2-51.8l-12.1-23.3l-6.8-40.8l1.6-10.7L104.2,367.8z"/>
	</g>
	<g>
		<defs>
			<path id="SVGID_14_" d="M66.7,374.6l-1.4,4.8c0,0,3.7,11.3,12.9,26.2C87.4,420.4,98,437,98,437s-7.4,16.4-10.8,33.3
				c-3.4,16.9-6.3,27.6-6.3,27.6s5.5,8.8,12.7,4.9c0,0,22.9-58.4,22.9-66.9s-15-56.2-15-56.2L66.7,374.6z"/>
		</defs>
		<use xlink:href="#SVGID_14_"  style="overflow:visible;fill:#1E2889;"/>
		<clipPath id="SVGID_15_">
			<use xlink:href="#SVGID_14_"  style="overflow:visible;"/>
		</clipPath>
		<path class="st24" d="M73.5,372.7c0,0,14.3,32.9,21.9,49.7c7.6,16.9,7,13.6,4.3,24.4c-2.7,10.8-15.1,56.1-15.1,56.1l-12.7-7.4
			c0,0,2.5-16.2,3.4-25.4c0.9-9.2,5.3-14.6,0-40.3c-5.3-25.7-11.2-37-12.4-42.7c-1.3-5.7-3.2-16.2-3.2-16.2s6.8-3,7.6-3
			S73.5,372.7,73.5,372.7z"/>
	</g>
	<g>
		<defs>
			<path id="SVGID_16_" d="M100.1,283.5l-1.1-0.1c0,0-16.7,1.4-20.6,9.7c-3.9,8.3-11.8,31.6-14.6,51.3c-2.9,19.6,1.4,35.1,1.4,35.1
				s27.6,16.3,50.1-6.2c0,0-6-7.7-2-22.9c4-15.1,7.3-20.2,8.9-24.9c0,0,6.6,1.5,12-1.1s6-4.3,6-4.3s-7.9-24.7-11.4-30.2
				c-3.5-5.5-13.5-5.9-13.5-5.9L100.1,283.5z"/>
		</defs>
		<use xlink:href="#SVGID_16_"  style="overflow:visible;fill:#006DFE;"/>
		<clipPath id="SVGID_17_">
			<use xlink:href="#SVGID_16_"  style="overflow:visible;"/>
		</clipPath>
		<path class="st25" d="M124.5,284.6c0,0,4.1,3.8,0.9,20.5c-3.2,16.8-15.1,30.8-19.1,53c-4,22.2-0.9,29-0.9,29l22.9-14.5
			c0,0-5.9-20-5.4-22.2s11.1-23.3,11.1-23.3l6.3-3l5.2-4.6c0,0-5.4-13.4-5.2-14.7c0.2-1.3-5.6-17-5.6-17L124.5,284.6z"/>
		<path class="st26" d="M127,283.4c0,0,5.5,7.2-4.7,42s-0.9,51.6-0.9,51.6l-11.1,6.1c0,0-10.3,1.9-11.4,2c-1.1,0.1-2.7-9.1-1.4-18.1
			s5.2-23.9,5.2-23.9s4.3-8.7,7.9-18.4c3.6-9.7,13.9-42.9,13.9-42.9L127,283.4z"/>
		<path class="st26" d="M81.6,300.6l-3.2-0.1c0,0-2,7.7,2.3,21.4c4.3,13.7,6.5,18.3,6.5,18.3l4.2-0.7c0,0,8.2,13.2,13.8,15.6
			l2.6-6.5l-15-29.6L81.6,300.6z"/>
	</g>
	<g>
		<defs>
			<path id="SVGID_18_" d="M100,269.8c0,0,1.9,9.4-1,13.5c0,0,2.9,4.4,8.2,4.6c5.2,0.2,8.1-4,8.1-4s-2.7-2.5-1.3-9.8l-11.2-7
				L100,269.8z"/>
		</defs>
		<use xlink:href="#SVGID_18_"  style="overflow:visible;fill:#FFACA6;"/>
		<clipPath id="SVGID_19_">
			<use xlink:href="#SVGID_18_"  style="overflow:visible;"/>
		</clipPath>
		<path class="st27" d="M99.3,277.5c0,0,12.5-0.4,16,4.4l1.6-10.6l-12.7-5l-5.2,1.6l-1.5,4.7l1.8,5.5"/>
	</g>
	<rect x="176.6" y="256.8" class="st28" width="143.5" height="231.9"/>
	<rect x="168.6" y="252.4" class="st9" width="158.7" height="9.3"/>
	<rect x="168.6" y="484.1" class="st9" width="158.7" height="9.3"/>
	<g>
		<g>
			<rect x="176.6" y="443" class="st29" width="143.5" height="41.1"/>
			<g>
				<rect x="187.5" y="453.9" class="st9" width="7" height="20"/>
			</g>
			<g>
				<rect x="201.7" y="453.9" class="st11" width="7" height="20"/>
			</g>
			<g>
				<rect x="215.8" y="453.9" class="st11" width="7" height="20"/>
			</g>
			<g>
				<rect x="230" y="453.9" class="st11" width="7" height="20"/>
			</g>
			<g>
				
					<ellipse transform="matrix(0.2298 -0.9732 0.9732 0.2298 -241.4835 622.6821)" class="st10" cx="272.7" cy="463.9" rx="3.2" ry="3.2"/>
			</g>
			<g>
				<circle class="st10" cx="286.5" cy="463.9" r="3.2"/>
			</g>
			<g>
				<circle class="st10" cx="300.4" cy="463.9" r="3.2"/>
			</g>
		</g>
	</g>
	<g>
		<g>
			<rect x="176.6" y="401.9" class="st29" width="143.5" height="41.1"/>
			<g>
				<rect x="187.5" y="412.8" class="st9" width="7" height="20"/>
			</g>
			<g>
				<rect x="201.7" y="412.8" class="st9" width="7" height="20"/>
			</g>
			<g>
				<rect x="215.8" y="412.8" class="st9" width="7" height="20"/>
			</g>
			<g>
				<rect x="230" y="412.8" class="st11" width="7" height="20"/>
			</g>
			<g>
				<circle class="st10" cx="272.7" cy="422.8" r="3.2"/>
			</g>
			<g>
				
					<ellipse transform="matrix(0.2298 -0.9732 0.9732 0.2298 -190.7583 604.5198)" class="st10" cx="286.5" cy="422.8" rx="3.2" ry="3.2"/>
			</g>
			<g>
				
					<ellipse transform="matrix(0.2298 -0.9732 0.9732 0.2298 -180.0606 618.037)" class="st10" cx="300.4" cy="422.8" rx="3.2" ry="3.2"/>
			</g>
		</g>
	</g>
	<g>
		<g>
			<rect x="176.6" y="360.7" class="st29" width="143.5" height="41.1"/>
			<g>
				<rect x="187.5" y="371.6" class="st9" width="7" height="20"/>
			</g>
			<g>
				<rect x="201.7" y="371.6" class="st9" width="7" height="20"/>
			</g>
			<g>
				<rect x="215.8" y="371.6" class="st9" width="7" height="20"/>
			</g>
			<g>
				<rect x="230" y="371.6" class="st11" width="7" height="20"/>
			</g>
			<g>
				<circle class="st10" cx="272.7" cy="381.6" r="3.2"/>
			</g>
			<g>
				
					<ellipse transform="matrix(0.2298 -0.9732 0.9732 0.2298 -150.7305 572.8412)" class="st10" cx="286.5" cy="381.6" rx="3.2" ry="3.2"/>
			</g>
			<g>
				
					<ellipse transform="matrix(0.2298 -0.9732 0.9732 0.2298 -140.0329 586.3583)" class="st10" cx="300.4" cy="381.6" rx="3.2" ry="3.2"/>
			</g>
		</g>
	</g>
	<g>
		<g>
			<rect x="140.3" y="319.6" class="st29" width="143.5" height="41.1"/>
			<g>
				<rect x="151.3" y="330.5" class="st9" width="7" height="20"/>
			</g>
			<g>
				<rect x="165.4" y="330.5" class="st11" width="7" height="20"/>
			</g>
			<g>
				<rect x="179.6" y="330.5" class="st11" width="7" height="20"/>
			</g>
			<g>
				<rect x="193.7" y="330.5" class="st11" width="7" height="20"/>
			</g>
			<g>
				
					<ellipse transform="matrix(0.2298 -0.9732 0.9732 0.2298 -149.3321 492.3523)" class="st10" cx="236.4" cy="340.5" rx="3.2" ry="3.2"/>
			</g>
			<g>
				<circle class="st10" cx="250.3" cy="340.5" r="3.2"/>
			</g>
			<g>
				<circle class="st10" cx="264.2" cy="340.5" r="3.2"/>
			</g>
		</g>
	</g>
	<path class="st9" d="M90.3,249.6l-2,6.4c0,0,2.5,10,7.8,14.2c5.2,4.2,4.5,3.9,4.5,3.9l3.6-8.7l-4.3-16.8L90.3,249.6z"/>
	<g>
		<defs>
			<path id="SVGID_20_" d="M123.4,246.6c0.4,0,4.3,25.7-6.1,29c-10.5,3.2-17.5-10.5-17.5-10.5s-5.6,1-6.7-5.2
				c-1-6.2,5.6-5.5,5.6-5.5l1-6.9l5.1-5.7l17.2,1.7L123.4,246.6z"/>
		</defs>
		<use xlink:href="#SVGID_20_"  style="overflow:visible;fill:#FFACA6;"/>
		<clipPath id="SVGID_21_">
			<use xlink:href="#SVGID_20_"  style="overflow:visible;"/>
		</clipPath>
		<path class="st30" d="M91.3,260c0,0,3.2-2.8,8.7-1.7c5.4,1,17.5,3.9,26.1-1.6v-16.4l-24.5,2.7l-8,2.8l-5.3,9.3L91.3,260z"/>
	</g>
	<g>
		<path class="st31" d="M130.5,247.8c-2.4-0.5-3.8-1.1-4.7-1.5c-0.1,0.1-0.2,0.3-0.3,0.4c-0.1,0.1-3.7,3-11.1,3c-0.6,0-1.3,0-2-0.1
			c-1.1-0.1-2.3-0.1-3.4-0.1c-3,0-5.5,0.3-7.5,0.5c2,1.2,3.8,2.5,5.3,3.2c0.3,0.2,0.7,0.3,1,0.4c0.1,0,0.2,0.1,0.3,0.1
			c0.2,0.1,0.5,0.2,0.7,0.2c0.1,0,0.3,0.1,0.4,0.1c0.2,0.1,0.4,0.1,0.6,0.2c0.1,0,0.3,0.1,0.4,0.1c0.2,0,0.4,0.1,0.6,0.1
			c0.1,0,0.3,0.1,0.4,0.1c0.2,0,0.4,0.1,0.6,0.1c0.1,0,0.3,0,0.4,0.1c0.2,0,0.4,0,0.5,0.1c0.1,0,0.3,0,0.4,0c0.2,0,0.4,0,0.5,0
			c0.1,0,0.3,0,0.4,0c0.2,0,0.4,0,0.5,0c0.1,0,0.2,0,0.2,0c0.1,0,0.1,0,0.2,0c0.1,0,0.2,0,0.2,0c0.2,0,0.4,0,0.6,0
			c0.1,0,0.1,0,0.2,0c0.2,0,0.5,0,0.7-0.1c0.1,0,0.1,0,0.2,0c0.2,0,0.4,0,0.5-0.1c0.1,0,0.1,0,0.2,0c0.2,0,0.4-0.1,0.6-0.1
			c0,0,0,0,0.1,0c0.2,0,0.4-0.1,0.7-0.1c0.1,0,0.1,0,0.2,0c0.2,0,0.3-0.1,0.5-0.1c0.1,0,0.1,0,0.2,0c0.2-0.1,0.4-0.1,0.6-0.2
			c0,0,0.1,0,0.1,0c0.2,0,0.3-0.1,0.5-0.1c0.1,0,0.1,0,0.2-0.1c0.1,0,0.3-0.1,0.4-0.1c0,0,0.1,0,0.1,0c0.2-0.1,0.4-0.1,0.5-0.2
			c0,0,0.1,0,0.1-0.1c0.1,0,0.3-0.1,0.4-0.2c0.1,0,0.1,0,0.2-0.1c0.1-0.1,0.3-0.1,0.4-0.2c0,0,0.1,0,0.1,0c0.1-0.1,0.3-0.1,0.4-0.2
			c0,0,0.1,0,0.1-0.1c0.1,0,0.2-0.1,0.3-0.1c0,0,0.1,0,0.1-0.1c0.1-0.1,0.2-0.1,0.4-0.2c0,0,0,0,0.1,0c0.1-0.1,0.2-0.1,0.3-0.2
			c0,0,0.1,0,0.1-0.1c0.1,0,0.1-0.1,0.2-0.1c0,0,0.1,0,0.1,0c0.1,0,0.2-0.1,0.2-0.1c0,0,0,0,0.1,0c0.1,0,0.1-0.1,0.2-0.1
			c0,0,0,0,0.1,0c0,0,0.1-0.1,0.1-0.1c0,0,0,0,0,0c0,0,0.1-0.1,0.1-0.1c0,0,0,0,0,0c0,0,0,0,0.1,0c0,0,0,0,0,0c0,0,0,0,0,0h0
			C129.9,250.2,133,248.4,130.5,247.8z"/>
		<path class="st32" d="M132.4,248.4c0-0.5-0.4-1.2-1.8-1.5c-2.1-0.4-3.4-1-4.2-1.3c0-0.1,0-0.1,0.1-0.2c0-0.1,0.1-0.1,0.1-0.2
			c0.2-0.4,0.5-0.8,0.4-1.3c-2.1-10.4-10.5-17.9-20.1-17.9c-1.2,0-2.5,0.1-3.7,0.4c-1.6,0.3-3,0.8-4.5,1.6c0,0,0,0,0,0c0,0,0,0,0,0
			c-0.5,0.2-1,0.5-1.4,0.8c0,0,0,0-0.1,0c-0.1,0-0.1,0.1-0.2,0.2c-7.4,4.4-11.7,14.6-10,25.5c0,0.2,0.1,0.4,0.1,0.6l0,0.1
			c0.1,0.3,0.3,0.6,0.6,0.8c0.1,0,0.3,0.1,0.4,0.1c0.2,0,0.4-0.1,0.6-0.2c2.6-1.9,7.3-4.9,8.8-5.2c0.3,0,0.6-0.1,0.9-0.2
			c0.4-0.1,0.8-0.1,1.3-0.2c1.2,0.6,2.3,1.3,3.4,2c1.1,0.7,2.2,1.4,3.2,1.9c2.7,1.2,5.6,1.9,8.5,1.9c6.6,0,11.4-3.1,12.2-3.6
			C132.6,250.2,132.5,249,132.4,248.4z M103.5,227.3c1.2-0.2,2.3-0.4,3.5-0.4c8.9,0,17.1,7,19.1,17c0,0.2-0.6,0.9-0.5,1.1
			c0,0-1.3,0.8-3.4,1.3c0,0,0,0,0,0c-2.6-9.7-11.6-17.8-20.5-18.6C102.2,227.6,102.8,227.4,103.5,227.3z M99.2,228.8
			c0.3,0,0.6,0,0.8,0c9,0,18.4,8.3,21,17.9c-0.7,0.1-1.4,0.2-2.2,0.3c-0.2-0.6-0.3-1.2-0.5-1.8c-2.9-8.7-10.2-15.8-18.3-15.8
			c-0.8,0-1.5,0.1-2.3,0.2C98.3,229.3,98.8,229,99.2,228.8z M99.3,249.3c-0.7,0.1-1.3,0.2-1.8,0.3c-2.4,0.4-9.2,5.3-9.2,5.3
			c0-0.3-0.1-0.5-0.1-0.8c-0.1-0.5-0.1-0.9-0.2-1.4c0-0.1,0-0.3,0-0.4c0-0.3-0.1-0.6-0.1-1c0-0.1,0-0.3,0-0.4c0-0.3,0-0.6,0-0.9
			c0-0.1,0-0.3,0-0.4c0-0.4,0-0.8,0-1.1c0-0.1,0-0.1,0-0.2c0-0.5,0-0.9,0.1-1.3c0,0,0-0.1,0-0.1c0-0.4,0.1-0.8,0.1-1.2
			c0-0.1,0-0.2,0-0.3c0-0.3,0.1-0.7,0.2-1c0-0.1,0-0.2,0-0.3c0.1-0.4,0.2-0.8,0.2-1.1c0,0,0-0.1,0-0.1c0.2-0.9,0.5-1.7,0.7-2.5
			c0,0,0,0,0,0c0.1-0.4,0.3-0.8,0.4-1.2c0,0,0-0.1,0-0.1c0.2-0.4,0.3-0.7,0.5-1.1c0,0,0,0,0,0c0.5-1.1,1.2-2.2,1.9-3.2c0,0,0,0,0,0
			c0.2-0.3,0.5-0.6,0.7-0.9c0,0,0,0,0,0c0,0,0,0,0,0c1.2-1.5,2.5-2.7,4.1-3.7c0.1,0.2,0.3,0.3,0.6,0.4c0,0,0,0,0,0
			c0.1,0,0.2,0,0.3,0c0.1,0,0.1,0,0.2,0c0.7-0.1,1.4-0.2,2.1-0.2c3.9,0,7.7,1.7,11,4.9c3.2,3.1,5.6,7.3,6.8,11.9
			c0.1,0.5,0.5,0.8,1,0.8c0,0,0,0,0.1,0c0,0,0,0,0.1,0c0.2,0,0.4,0,0.6,0c0.1,0,0.2,0,0.4,0c0.1,0,0.2,0,0.3,0c0.1,0,0.2,0,0.4,0
			c-1.6,0.4-3.6,0.8-6.2,0.8c-0.6,0-1.2,0-1.9-0.1c-1.2-0.1-2.3-0.1-3.3-0.1c0,0,0,0,0,0C105,248.4,101.7,248.9,99.3,249.3z
			 M126.7,251.5L126.7,251.5C126.7,251.5,126.7,251.5,126.7,251.5C126.7,251.5,126.7,251.5,126.7,251.5
			C126.7,251.5,126.6,251.5,126.7,251.5c-0.1,0.1-0.1,0.1-0.1,0.1c0,0-0.1,0-0.1,0.1c0,0,0,0,0,0c0,0-0.1,0.1-0.1,0.1c0,0,0,0-0.1,0
			c0,0-0.1,0.1-0.2,0.1c0,0,0,0-0.1,0c-0.1,0-0.2,0.1-0.2,0.1c0,0,0,0-0.1,0c-0.1,0-0.1,0.1-0.2,0.1c0,0-0.1,0-0.1,0.1
			c-0.1,0-0.2,0.1-0.3,0.2c0,0,0,0-0.1,0c-0.1,0.1-0.2,0.1-0.4,0.2c0,0-0.1,0-0.1,0.1c-0.1,0-0.2,0.1-0.3,0.1c0,0-0.1,0-0.1,0.1
			c-0.1,0.1-0.3,0.1-0.4,0.2c0,0-0.1,0-0.1,0c-0.1,0.1-0.3,0.1-0.4,0.2c-0.1,0-0.1,0-0.2,0.1c-0.1,0.1-0.3,0.1-0.4,0.2
			c0,0-0.1,0-0.1,0.1c-0.2,0.1-0.3,0.1-0.5,0.2c0,0-0.1,0-0.1,0c-0.1,0-0.3,0.1-0.4,0.1c-0.1,0-0.1,0-0.2,0.1
			c-0.2,0.1-0.3,0.1-0.5,0.1c0,0-0.1,0-0.1,0c-0.2,0.1-0.4,0.1-0.6,0.2c-0.1,0-0.1,0-0.2,0c-0.2,0-0.3,0.1-0.5,0.1
			c-0.1,0-0.1,0-0.2,0c-0.2,0-0.4,0.1-0.7,0.1c0,0,0,0-0.1,0c-0.2,0-0.4,0.1-0.6,0.1c-0.1,0-0.1,0-0.2,0c-0.2,0-0.4,0-0.5,0.1
			c-0.1,0-0.1,0-0.2,0c-0.2,0-0.5,0-0.7,0.1c-0.1,0-0.1,0-0.2,0c-0.2,0-0.4,0-0.6,0c-0.1,0-0.2,0-0.2,0c-0.1,0-0.1,0-0.2,0
			c-0.1,0-0.2,0-0.2,0c-0.2,0-0.4,0-0.5,0c-0.1,0-0.3,0-0.4,0c-0.2,0-0.4,0-0.5,0c-0.1,0-0.3,0-0.4,0c-0.2,0-0.4,0-0.5-0.1
			c-0.1,0-0.3,0-0.4-0.1c-0.2,0-0.4-0.1-0.6-0.1c-0.1,0-0.3-0.1-0.4-0.1c-0.2,0-0.4-0.1-0.6-0.1c-0.1,0-0.3-0.1-0.4-0.1
			c-0.2-0.1-0.4-0.1-0.6-0.2c-0.1,0-0.3-0.1-0.4-0.1c-0.2-0.1-0.4-0.2-0.7-0.2c-0.1,0-0.2-0.1-0.3-0.1c-0.3-0.1-0.7-0.3-1-0.4
			c-1.5-0.7-3.3-2-5.3-3.2c2-0.3,4.5-0.5,7.5-0.5c1.1,0,2.3,0,3.4,0.1c0.7,0,1.3,0.1,2,0.1c7.4,0,10.9-2.8,11.1-3
			c0.1-0.1,0.2-0.2,0.3-0.4c0.9,0.4,2.3,1,4.7,1.5C133,248.4,129.9,250.2,126.7,251.5z"/>
		<path class="st33" d="M90.3,238c0.5-1.1,1.2-2.2,1.9-3.2C91.5,235.8,90.8,236.9,90.3,238z"/>
		<path class="st31" d="M109.2,248.4c1.1,0,2.2,0,3.3,0.1c0.7,0,1.3,0.1,1.9,0.1c2.5,0,4.6-0.3,6.2-0.8c-0.1,0-0.2,0-0.4,0
			c-0.1,0-0.2,0-0.3,0c-0.1,0-0.2,0-0.4,0c-0.2,0-0.4,0-0.6,0c0,0,0,0-0.1,0c0,0,0,0-0.1,0c-0.5,0-0.9-0.3-1-0.8
			c-1.2-4.6-3.6-8.8-6.8-11.9c-3.3-3.2-7.1-4.9-11-4.9c-0.7,0-1.4,0.1-2.1,0.2c-0.1,0-0.1,0-0.2,0c-0.1,0-0.2,0-0.3,0c0,0,0,0,0,0
			c-0.2-0.1-0.4-0.2-0.6-0.4c-1.5,1-2.9,2.2-4.1,3.7C100.1,236,106.6,241.3,109.2,248.4z"/>
		<path class="st33" d="M88.5,242.9c0.2-0.9,0.5-1.7,0.7-2.5C89,241.2,88.8,242,88.5,242.9z"/>
		<path class="st33" d="M99.3,249.3c-0.7,0.1-1.3,0.2-1.8,0.3C98.1,249.5,98.7,249.4,99.3,249.3z"/>
		<path class="st21" d="M109.2,248.4c-2.6-7.1-9-12.4-16.3-14.6c0,0,0,0,0,0c0,0,0,0,0,0c-0.2,0.3-0.5,0.6-0.7,0.9c0,0,0,0,0,0
			c-0.7,1-1.3,2.1-1.9,3.2c0,0,0,0,0,0c-0.2,0.4-0.3,0.7-0.5,1.1c0,0,0,0.1,0,0.1c-0.2,0.4-0.3,0.8-0.4,1.2c0,0,0,0,0,0
			c-0.3,0.8-0.5,1.6-0.7,2.5c0,0,0,0.1,0,0.1c-0.1,0.4-0.2,0.7-0.2,1.1c0,0.1,0,0.2,0,0.3c-0.1,0.3-0.1,0.7-0.2,1c0,0.1,0,0.2,0,0.3
			c-0.1,0.4-0.1,0.8-0.1,1.2c0,0,0,0.1,0,0.1c0,0.4-0.1,0.9-0.1,1.3c0,0.1,0,0.1,0,0.2c0,0.4,0,0.8,0,1.1c0,0.1,0,0.3,0,0.4
			c0,0.3,0,0.6,0,0.9c0,0.1,0,0.3,0,0.4c0,0.3,0.1,0.6,0.1,1c0,0.1,0,0.3,0,0.4c0.1,0.5,0.1,0.9,0.2,1.4c0,0.3,0.1,0.5,0.1,0.8
			c0,0,6.9-4.9,9.2-5.3c0.5-0.1,1.1-0.2,1.8-0.3C101.7,248.9,105,248.4,109.2,248.4C109.2,248.4,109.2,248.4,109.2,248.4z"/>
		<path class="st31" d="M122.1,246.4C122.1,246.4,122.1,246.4,122.1,246.4c2.1-0.5,3.4-1.3,3.4-1.3c0-0.2,0.6-0.9,0.5-1.1
			c-2-10-10.2-17-19.1-17c-1.2,0-2.3,0.1-3.5,0.4c-0.6,0.1-1.2,0.3-1.8,0.5C110.5,228.6,119.5,236.7,122.1,246.4z"/>
		<path class="st21" d="M118.4,245.2c0.2,0.6,0.4,1.2,0.5,1.8c0.8,0,1.5-0.1,2.2-0.3c-2.6-9.6-12-17.9-21-17.9c-0.3,0-0.6,0-0.8,0
			c-0.5,0.2-0.9,0.5-1.4,0.8c0.8-0.1,1.5-0.2,2.3-0.2C108.2,229.4,115.5,236.5,118.4,245.2z"/>
	</g>
	<path class="st15" d="M104.4,327.3c0,0,4.5,11,9.2,14.6c4.7,3.6,30.1,19.3,30.1,19.3s6.6-3.4,14.4-2.9c7.8,0.5,14.3,4.5,1.8,9.8
		c-12.5,5.3-16,1.5-16,1.5s-26.9-10.3-38.3-17.7c-7.8-5.2-13-14.6-14.1-18.9L104.4,327.3z"/>
	<path class="st10" d="M87,334.1c0,0-3.1-9-5.3-16.2c-2.2-7.2-5.3-19.6-1.5-23.7s9.6-5.5,15-1.8s13.5,33.3,13.5,33.3
		S96.4,337.6,87,334.1z"/>
	<g>
		<g>
			<rect x="191.6" y="206.3" class="st34" width="134.5" height="3.3"/>
			<rect x="207.9" y="209.1" class="st34" width="2.4" height="16"/>
			<rect x="306.6" y="209.1" class="st34" width="2.4" height="16"/>
		</g>
		<g>
			<rect x="207.4" y="184.1" class="st29" width="7.8" height="23.3"/>
			<rect x="216.4" y="184.1" class="st29" width="7.8" height="23.3"/>
			<rect x="225.4" y="184.1" class="st29" width="7.8" height="23.3"/>
			<rect x="234.3" y="184.1" class="st29" width="7.8" height="23.3"/>
			<rect x="243.3" y="184.1" class="st29" width="7.8" height="23.3"/>
			<rect x="252.3" y="184.1" class="st29" width="7.8" height="23.3"/>
		</g>
		<rect x="268" y="159.3" class="st29" width="52.3" height="47.8"/>
		<rect x="272.5" y="163.4" class="st34" width="43.3" height="39.6"/>
		<circle class="st35" cx="294" cy="183.3" r="10.8"/>
	</g>
	<g>
		<g>
			<path class="st36" d="M660.7,452.3c0,0,19.9-1.1,19.9-5.1c0-3.1-12.1-0.5-12.1-0.5s13.3-3.9,19.4-7c1.3-0.7,2.7-1.4,3.7-2.6
				c0.9-1.2,1.4-2.9,0.6-4.2c-1-1.8-3.5-1.9-5.6-1.7c-8.2,1-13.9,5.4-21.3,9.1c5.4-2.7,10.2-6.2,14.7-10.2
				c4.1-3.7,8.9-7.2,11.7-12.1c1.7-3.1,2.4-7.7-0.6-10.2c-3-2.5-7.2-1.3-10.5-0.2c-8.7,3.1-16.4,9.2-21.4,16.9
				c1.3-3.6,2.3-7.4,3-11.2c0.3-1.5,0.4-3.4-0.9-4.3c-1.6-1.2-3.8,0.4-5.1,2c-3.1,3.8-5.4,8.2-6.9,12.8c1-10.4,2-21.1-0.3-31.3
				c-0.5-2.3-1.2-4.7-2.7-6.6c-1.5-1.9-3.8-3.3-6.2-3c-2.3,0.2-4.1,1.8-5.6,3.5c-4.9,5.5-7.7,12.7-7.9,20
				c-0.2,7.3,2.3,14.7,6.9,20.3c-2.4-2.5-5.2-4.8-8.1-6.7c-0.7-0.4-1.6-0.8-2.1-0.2c-0.3,0.3-0.3,0.8-0.2,1.2c0.5,5,3.8,9.1,7,12.9
				c-6.5-7.5-16.6-11.7-26.5-11c-1.2,0.1-2.6,0.4-3.2,1.4c-0.4,0.6-0.4,1.3-0.3,2c0.5,5,4.9,8.6,9.2,11.1c3.6,2.1,7.5,3.9,11.3,5.7
				c-2.2-0.3-4.4-0.4-6.6-0.2c-0.5,0-1.1,0.1-1.4,0.5c-0.6,0.8,0.2,1.8,1,2.3c5.5,4,12.5,5.9,19.2,5.4"/>
			
				<linearGradient id="SVGID_22_" gradientUnits="userSpaceOnUse" x1="650.0711" y1="403.5015" x2="650.0711" y2="458.9345" gradientTransform="matrix(0.9992 -3.960000e-02 3.960000e-02 0.9992 -15.4724 21.797)">
				<stop  offset="0.3656" style="stop-color:#86CF94"/>
				<stop  offset="0.9892" style="stop-color:#008166"/>
			</linearGradient>
			<path class="st37" d="M683.3,415.2c0.2-0.2,0.5,0.2,0.2,0.4c-6.3,4.8-12.2,10.1-17.3,16.1c-5.2,6-9.4,12.7-13.5,19.5
				c-0.1,0.2-0.5,0.1-0.4-0.2C659.1,436.8,670.6,424.3,683.3,415.2L683.3,415.2z M654.7,420.3c-3.6,9.3-5.8,21-5.1,31
				c0,0.3,0.4,0.2,0.4,0c0.2-10.1,1.7-21.3,5.2-30.8C655.3,420.2,654.8,420,654.7,420.3L654.7,420.3z M642.1,399.8
				c-1.7,17.1-0.3,35.3,4.2,51.8c0.1,0.3,0.5,0.1,0.4-0.1c-1.7-8.7-3.3-17.4-4-26.2c-0.7-8.5-0.6-17-0.3-25.5
				C642.4,399.6,642.1,399.6,642.1,399.8L642.1,399.8z M626.7,425.3c5.1,7.3,10.8,20.8,17.5,26.6c0.3,0.2,0.6-0.1,0.4-0.4
				c-6.1-6.7-12.1-19.2-17.5-26.5C626.9,424.8,626.5,425,626.7,425.3L626.7,425.3z M681.9,436.6c-10.2,4.6-20.7,10-29.3,17.2
				c-0.3,0.2,0,0.7,0.3,0.5c9.5-6.3,18.7-12.5,29.1-17.2C682.3,436.9,682.2,436.4,681.9,436.6L681.9,436.6z M618.7,435.3
				c7.4,4.4,15.3,13.9,23.4,17c0.3,0.1,0.5-0.3,0.2-0.4c-7.8-3.8-15.8-12.6-23.4-17C618.6,434.8,618.4,435.2,618.7,435.3
				L618.7,435.3z"/>
		</g>
		<g>
			<rect x="628" y="451.1" class="st29" width="43.4" height="36.3"/>
			<rect x="662.9" y="451.1" class="st34" width="8.5" height="36.3"/>
		</g>
	</g>
	<rect x="176.6" y="359.5" class="st38" width="107.3" height="1.3"/>
	<rect x="176.6" y="400.6" class="st38" width="143.5" height="1.3"/>
	<rect x="176.6" y="442.4" class="st38" width="143.5" height="1.3"/>
</g>
</svg>
