<?xml version="1.0" encoding="UTF-8"?>
<svg  viewBox="0 0 600 400" version="1.1" xmlns="http://www.w3.org/2000/svg" xmlns:xlink="http://www.w3.org/1999/xlink">
    <title>团队合作视频制作</title>
    <g id="团队合作视频制作" stroke="none" stroke-width="1" fill="none" fill-rule="evenodd">
<!--        <rect fill="#FFFFFF" x="0" y="0" width="600" height="400"></rect>-->
        <g id="plant_24_" transform="translate(45.701571, 87.581454)" fill-rule="nonzero">
            <path d="M116.644817,137.942376 C116.644817,137.942376 83.7198743,15.2993383 0.211623037,86.185193 L21.3514136,82.7526491 L14.4011728,90.2025739 L33.596733,103.813982 L50.337466,90.7271278 C50.337466,90.7271278 40.4560209,104.210772 36.0272461,108.248847 C39.9319162,112.600935 61.3859895,119.564095 61.3859895,119.564095 L65.702199,102.542637 C65.702199,102.542637 64.8863246,117.595444 62.4954346,123.894589 L82.922911,129.693474 L87.0283979,118.773216 L93.2384084,129.315579 L116.644817,137.942376 Z" id="Path" fill="#8AE6B9"></path>
            <path d="M114.829361,141.545872 C114.829361,141.545872 108.396921,8.24080451 15.6105759,40.3870501 L35.7877068,52.4409925 L35.2545969,60.4829524 L48.9686702,79.7924737 L61.8785759,66.7407093 C61.8785759,66.7407093 58.7969843,80.2756391 53.8206911,82.250589 C56.6240209,88.1790376 66.5036649,99.5329749 66.5036649,99.5329749 L73.9735079,84.9228446 C73.9735079,84.9228446 74.3346178,95.4966992 70.8234764,100.55599 L84.7446702,118.783113 L90.795288,109.995261 L86.9095288,121.546243 L114.829361,141.545872 Z" id="Path" fill="#1EAF69"></path>
            <path d="M114.888796,141.55487 C114.888796,141.55487 113.363309,-23.9765213 38.6765864,3.73306015 L52.7922932,26.2672832 L66.6666597,23.5185489 L52.2033508,31.2995815 L59.1788063,48.9661604 L77.9583246,47.6660226 L70.3921257,53.6259624 L75.7907644,76.890782 L86.1972147,70.1804511 C86.1972147,70.1804511 84.6402094,80.6508346 80.3897382,84.2111429 L90.3576335,107.488559 L97.694199,101.283887 L91.9200419,111.03807 L114.888796,141.55487 Z" id="Path" fill="#2CCD7F"></path>
        </g>
        <g id="cloud_4_" transform="translate(305.952880, 56.090226)" fill="#E7F4FE" fill-rule="nonzero">
            <path d="M89.1887539,22.674584 C88.5142618,22.674584 87.8793927,22.8131454 87.2211099,22.8725288 C82.7121885,9.94133083 70.5335079,0.60373183 56.0539895,0.60373183 C41.5753717,0.60373183 29.3966911,9.94223058 24.8868691,22.8725288 C24.2285864,22.8131454 23.5928168,22.674584 22.9192251,22.674584 C10.7198325,22.674584 0.829382199,32.5556316 0.829382199,44.7454361 C0.829382199,56.9343409 10.7198325,66.8162882 22.9192251,66.8162882 C28.5556021,66.8162882 83.552377,66.8162882 89.1887539,66.8162882 C101.388147,66.8162882 111.278597,56.9343409 111.278597,44.7454361 C111.278597,32.5556316 101.389047,22.674584 89.1887539,22.674584 Z" id="Path"></path>
        </g>
        <g id="browser" transform="translate(124.947644, 110.075188)" fill-rule="nonzero">
            <path d="M332.941571,26.3806516 L332.941571,214.878145 C332.941571,217.362353 330.925298,219.376892 328.438953,219.376892 L4.7547644,219.376892 C2.26841885,219.376892 0.252146597,217.362353 0.252146597,214.878145 L0.252146597,26.3806516 L332.941571,26.3806516 Z" id="Path" fill="#F3F9FF"></path>
            <path d="M332.941571,8.36317043 L332.941571,28.6300251 L0.252146597,28.6300251 L0.252146597,8.36317043 C0.252146597,4.08216291 3.72546597,0.611829574 8.01015707,0.611829574 L325.18266,0.611829574 C329.468251,0.611829574 332.941571,4.08216291 332.941571,8.36317043 Z" id="Path" fill="#224380"></path>
            <ellipse id="Oval" fill="#FFCB01" cx="24.0908063" cy="14.1890476" rx="4.9078534" ry="4.90363409"></ellipse>
            <ellipse id="Oval" fill="#44D690" cx="41.5636649" cy="14.1890476" rx="4.9078534" ry="4.90363409"></ellipse>
            <path d="M129.70601,179.338045 L43.7951623,179.338045 C38.1749948,179.338045 33.6201466,174.786213 33.6201466,169.171777 L33.6201466,83.334787 C33.6201466,77.7194511 38.1758953,73.1685188 43.7951623,73.1685188 L129.70601,73.1685188 C135.326178,73.1685188 139.881026,77.7203509 139.881026,83.334787 L139.881026,169.171777 C139.881026,174.786213 135.325277,179.338045 129.70601,179.338045 Z" id="Path" fill="#DAE7FF"></path>
            <path d="M108.993969,171.465238 L23.0831204,171.465238 C17.4629529,171.465238 12.9081047,166.913406 12.9081047,161.29897 L12.9081047,75.4619799 C12.9081047,69.8466441 17.4638534,65.2957118 23.0831204,65.2957118 L108.993969,65.2957118 C114.614136,65.2957118 119.168984,69.8475439 119.168984,75.4619799 L119.168984,161.29897 C119.168984,166.913406 114.613236,171.465238 108.993969,171.465238 Z" id="Path" fill="#7266D5"></path>
            <polygon id="Path" fill="#FFFFFF" points="51.906178 100.73414 51.906178 136.02591 80.1700105 118.380025"></polygon>
            <g id="Group" transform="translate(152.188482, 68.380952)">
                <path d="M51.7801047,17.1033358 L4.93036649,17.1033358 C2.34226178,17.1033358 0.243141361,15.0069198 0.243141361,12.4201404 L0.243141361,4.76057393 C0.243141361,2.17469424 2.34136126,0.0773784461 4.93036649,0.0773784461 L51.7801047,0.0773784461 C54.3691099,0.0773784461 56.4673298,2.17379449 56.4673298,4.76057393 L56.4673298,12.4201404 C56.4673298,15.0069198 54.3691099,17.1033358 51.7801047,17.1033358 Z" id="Path" fill="#BADDFE"></path>
                <path d="M148.336942,17.1033358 L68.4397906,17.1033358 C65.8516859,17.1033358 63.7525654,15.0069198 63.7525654,12.4201404 L63.7525654,4.76057393 C63.7525654,2.17469424 65.8507853,0.0773784461 68.4397906,0.0773784461 L148.336942,0.0773784461 C150.925047,0.0773784461 153.024168,2.17379449 153.024168,4.76057393 L153.024168,12.4201404 C153.024168,15.0069198 150.925047,17.1033358 148.336942,17.1033358 Z" id="Path" fill="#BADDFE"></path>
                <path d="M150.322597,32.694193 L2.94471204,32.694193 C1.4525445,32.694193 0.243141361,31.4858296 0.243141361,29.9949449 L0.243141361,29.9949449 C0.243141361,28.5040602 1.4525445,27.2956967 2.94471204,27.2956967 L150.321696,27.2956967 C151.813864,27.2956967 153.023268,28.5040602 153.023268,29.9949449 L153.023268,29.9949449 C153.023268,31.4849298 151.813864,32.694193 150.322597,32.694193 Z" id="Path" fill="#DAE7FF"></path>
                <path d="M150.322597,47.9944311 L2.94471204,47.9944311 C1.4525445,47.9944311 0.243141361,46.7860677 0.243141361,45.295183 L0.243141361,45.295183 C0.243141361,43.8042982 1.4525445,42.5959348 2.94471204,42.5959348 L150.321696,42.5959348 C151.813864,42.5959348 153.023268,43.8042982 153.023268,45.295183 L153.023268,45.295183 C153.023268,46.7860677 151.813864,47.9944311 150.322597,47.9944311 Z" id="Path" fill="#DAE7FF"></path>
                <path d="M150.322597,63.2946692 L2.94471204,63.2946692 C1.4525445,63.2946692 0.243141361,62.0863058 0.243141361,60.5954211 L0.243141361,60.5954211 C0.243141361,59.1045363 1.4525445,57.8961729 2.94471204,57.8961729 L150.321696,57.8961729 C151.813864,57.8961729 153.023268,59.1045363 153.023268,60.5954211 L153.023268,60.5954211 C153.023268,62.0863058 151.813864,63.2946692 150.322597,63.2946692 Z" id="Path" fill="#DAE7FF"></path>
                <path d="M150.322597,78.595807 L2.94471204,78.595807 C1.4525445,78.595807 0.243141361,77.3874436 0.243141361,75.8965589 L0.243141361,75.8965589 C0.243141361,74.4056742 1.4525445,73.1973108 2.94471204,73.1973108 L150.321696,73.1973108 C151.813864,73.1973108 153.023268,74.4056742 153.023268,75.8965589 L153.023268,75.8965589 C153.023268,77.3874436 151.813864,78.595807 150.322597,78.595807 Z" id="Path" fill="#DAE7FF"></path>
            </g>
        </g>
        <g id="woman_11_" transform="translate(43.000000, 213.546366)" fill-rule="nonzero">
            <g id="Group" transform="translate(28.816754, 0.000000)">
                <g transform="translate(12.607330, 3.598997)" id="Path">
                    <path d="M7.88948691,0.809774436 C-2.28102618,1.74371429 3.47962304,11.7300326 3.10500524,15.9831479 C2.73128796,20.2371629 0.38182199,26.6631729 0.38182199,26.6631729 L10.6252775,28.3385063 C10.6252775,28.3385063 11.1133613,24.8825689 11.0638325,23.0821704 C11.0143037,21.2817719 12.3551832,20.437807 14.5722723,20.5880652 C16.7893613,20.7383233 16.9649634,16.4258246 17.3062618,15.6385439 C17.8645864,14.3501028 20.029445,15.2669474 19.664733,13.7013835 C19.3000209,12.1358195 17.6259476,11.5518822 17.3918115,7.42833083 C17.1576754,3.30477945 12.7162932,0.366197995 7.88948691,0.809774436 Z" fill="#F1B282"></path>
                    <path d="M14.0040419,20.5718697 C12.9432251,20.5808672 12.1273508,20.8624887 11.6248586,21.4032381 L10.5361257,19.1970526 C11.694199,19.9348471 13.3322513,20.5268822 14.0040419,20.5718697 Z" fill="#CD916A"></path>
                </g>
                <path d="M22.7580314,0.119666667 C9.26458639,-0.183548872 9.97960209,12.6567744 4.32341361,12.0512431 C1.32467016,11.7300326 0.886115183,10.9598471 0.886115183,10.9598471 C0.886115183,10.9598471 1.13015707,13.7598672 3.09509948,15.6745338 C2.21168586,15.806797 1.27874346,15.821193 0.377319372,15.6997268 C0.377319372,15.6997268 1.02389529,24.2851353 8.64412565,25.1021078 C14.1751414,25.6950426 16.4426597,22.8167444 17.3674974,20.3343358 C19.778199,20.6087594 23.5126702,20.154386 24.0772984,14.8962506 C24.3780733,12.0971303 24.8481466,10.0564987 25.3290262,8.57371178 C34.2757277,9.45906516 33.7038953,0.365298246 22.7580314,0.119666667 Z" id="Path" fill="#0B224E"></path>
            </g>
            <path d="M11.0440209,155.384917 C10.9467644,153.988506 12.3101571,150.439895 14.3615497,145.892561 L7.97233508,144.204632 C7.55629319,145.89706 7.10062827,147.635376 6.56931937,149.442972 C5.76875393,152.167414 5.13928796,153.260609 5.04023037,154.521158 C4.9420733,155.781707 9.70944503,161.661569 9.70944503,161.661569 L13.245801,161.339459 C13.245801,161.339459 11.3547016,159.839576 11.0440209,155.384917 Z" id="Path" fill="#F1B282"></path>
            <path d="M58.5880628,158.144449 C57.6425131,156.63197 57.3939686,151.080516 57.3687539,144.204632 L49.4315393,144.204632 C50.2023874,147.593088 51.0389738,151.086815 51.8458429,154.997125 C52.4194764,157.778251 52.3762513,159.038799 52.8823455,160.198576 C53.3875393,161.358353 60.3593927,164.31313 60.3593927,164.31313 L63.3302199,162.369672 C63.3293194,162.368772 60.9555393,161.932393 58.5880628,158.144449 Z" id="Path" fill="#F1B282"></path>
            <path d="M16.1670995,165.689747 C15.767267,166.441038 13.1791623,165.675351 13.1791623,165.675351 L5.71112042,161.707456 C4.93396859,161.294471 4.51522513,160.432511 4.66110995,159.565153 C4.89704712,158.165143 5.11587435,156.209987 4.55935079,155.955358 C3.68043979,155.552271 1.47415707,159.456283 1.47415707,159.456283 L0.00540314136,158.676201 C0.00540314136,158.676201 1.68758115,156.034536 2.40349738,154.809977 C3.11941361,153.585419 2.40349738,152.756749 3.33734031,151.001338 C4.27118325,149.246827 6.13886911,148.274198 6.74041885,148.593609 C7.34196859,148.91302 6.74672251,152.950195 7.28253403,154.703807 C7.96242932,156.926188 9.39966492,159.007308 12.308356,160.117599 C13.053089,160.40282 16.5669319,164.938456 16.1670995,165.689747 Z" id="Path" fill="#0B224E"></path>
            <path d="M67.9535079,164.840383 C67.9535079,165.691546 65.3086702,166.228697 65.3086702,166.228697 L56.8500524,166.228697 C55.9702408,166.228697 55.1948901,165.664554 54.9166283,164.830486 C54.467267,163.483561 53.7423455,161.655271 53.1308901,161.691261 C52.1655288,161.747945 52.0520628,166.229596 52.0520628,166.229596 L50.3887958,166.229596 C50.3887958,166.229596 50.6328377,163.108366 50.6895707,161.691261 C50.7463037,160.274155 49.7242094,159.878266 49.7242094,157.890719 C49.7242094,155.903173 50.9165026,154.168456 51.598199,154.168456 C52.2798953,154.168456 53.6504921,158.013085 54.9481466,159.308724 C56.5934031,160.952566 58.8393089,162.115942 61.9290052,161.731749 C62.7196649,161.632777 67.9535079,163.989221 67.9535079,164.840383 Z" id="Path" fill="#0B224E"></path>
            <path d="M40.9179895,68.2261955 C40.9179895,68.2261955 55.5496963,92.0767519 57.9423874,106.107444 C60.2972565,119.916797 57.7325654,150.283338 57.7325654,150.283338 L50.1609634,150.088992 C50.1609634,150.088992 43.323288,121.443672 45.7204817,113.080501 C40.1606492,103.279531 30.5691728,92.0083709 29.6344293,83.9133258 C29.2742199,80.7938947 36.1659267,70.672614 40.9179895,68.2261955 Z" id="Path" fill="#0B224E"></path>
            <path d="M22.4518534,66.038005 C22.4518534,66.038005 18.6903665,71.0442105 17.5394974,80.7327118 C16.2148272,91.8833058 17.6250471,101.451241 16.627267,109.92418 C9.94808377,117.973338 6.78544503,147.008251 6.78544503,147.008251 L13.4123979,148.894125 C13.4123979,148.894125 26.9976963,121.273619 29.7226806,114.347348 C31.8506178,108.938055 40.1606492,89.1210752 38.5766283,71.0837995 C38.5766283,71.0828997 30.9464921,64.623599 22.4518534,66.038005 Z" id="Path" fill="#102B5E"></path>
            <path d="M66.6540524,44.4008321 C66.6540524,44.4008321 70.4290471,50.8970226 73.3656545,51.6303183 C76.3022618,52.363614 87.3129634,52.1539724 89.6201047,51.6303183 C91.9272461,51.1066642 91.8822199,39.8076115 93.9795393,39.7032406 C96.0768586,39.5988697 96.3317068,54.2494887 94.3388482,56.6599173 C92.3459895,59.0694461 90.6683141,58.0221378 89.2004607,58.3361504 C87.7326073,58.6501629 75.0343246,61.7255063 68.9008586,60.4685564 C62.7664921,59.2116065 57.7325654,50.3931629 57.7325654,50.3931629 C57.7325654,50.3931629 61.7254869,44.2964612 66.6540524,44.4008321 Z" id="Path" fill="#F1B282"></path>
            <path d="M63.0357487,43.1429825 C62.3450471,45.8188371 59.1202723,45.7936441 58.7645654,49.7723358 C58.6628063,50.9105188 58.4277696,51.8615539 58.0927749,52.6578321 C57.2904084,54.5886942 55.9108063,55.6117093 54.4609634,56.1884486 C52.0709738,57.1376842 49.4873717,56.8767569 48.963267,57.47599 C44.5597068,62.505589 47.7079372,75.2388421 45.1909738,75.5546541 C42.6740105,75.8686667 35.4554136,71.4005113 31.838911,71.2439549 C28.2206073,71.0873985 16.9235393,74.5793258 17.1333613,69.0260727 C17.2603351,65.6412155 29.3129424,59.5454135 31.3517277,51.6510125 C34.9232042,37.8254637 35.6652356,25.6464561 48.5337173,27.0707594 C57.6875393,28.0829774 64.2937801,38.2726391 63.0357487,43.1429825 Z" id="Path" fill="#1B90FB"></path>
            <path d="M58.0927749,52.6578321 C57.2904084,54.5886942 55.9108063,55.6117093 54.4609634,56.1884486 C48.8570052,46.0518722 48.657089,36.643193 48.657089,36.643193 L58.0927749,52.6578321 Z" id="Path" fill="#1277D7"></path>
            <path d="M56.5997068,31.3183718 C60.2432251,31.2788872 65.6040419,42.5149574 68.1741361,44.0868195 C69.3808377,44.8201153 60.466555,51.8408596 58.2647749,52.9925388 C56.0620942,54.1451178 51.0290681,45.0297569 49.5603141,41.7816617 C48.0924607,38.5335664 45.1189319,31.4444411 56.5997068,31.3183718 Z" id="Path" fill="#1B90FB"></path>
        </g>
        <g id="man_7_" transform="translate(315.858639, 264.832080)" fill-rule="nonzero">
            <path d="M41.1413194,77.2146917 L1.28864921,12.0593409 C0.510596859,10.7870952 0.912230366,9.12615789 2.18467016,8.34877444 L2.18467016,8.34877444 C3.45801047,7.57139098 5.12037696,7.9726792 5.89842932,9.24402506 L45.7510995,74.3993759 C46.5291518,75.6716216 46.1275183,77.3325589 44.8550785,78.1099424 L44.8550785,78.1099424 C43.5817382,78.8873258 41.9193717,78.4860376 41.1413194,77.2146917 Z" id="Path" fill="#DAE7FF"></path>
            <g id="man_6_" transform="translate(20.712042, 0.000000)">
                <g id="Group" transform="translate(41.424084, 0.000000)">
                    <path d="M25.0822827,32.4098722 C25.0822827,32.4098722 17.3269738,26.8773133 17.7394136,24.0691955 C18.1518534,21.2619774 18.4157068,11.067817 14.714555,10.1860627 C11.0134031,9.30430827 3.73987435,9.27551629 2.51246073,11.8586967 C1.35618848,14.2925188 2.31074346,15.4666917 2.09281675,16.467213 C1.87489005,17.4677343 0.756439791,19.5506541 0.846492147,20.4800952 C0.936544503,21.4086366 2.36657592,21.4014386 2.86816754,22.5792105 C3.36975916,23.7569825 2.8285445,25.4053233 4.09197906,26.569599 C5.35541361,27.7338747 8.86475393,27.1580351 9.3681466,28.296218 C10.6090681,31.0962381 7.63553927,37.1596491 7.63553927,37.1596491 L8.14613613,45.4481404 C8.14703665,45.4499398 20.0492565,49.7048546 25.0822827,32.4098722 Z" id="Path" fill="#F1B282"></path>
                    <path d="M24.6230157,13.0049774 C24.596,12.1160251 24.2177801,11.3242456 23.6306387,10.7457068 C24.1817592,10.1329774 24.5113508,9.31960401 24.4852356,8.43065163 C24.4294031,6.59696241 22.896712,5.15556391 21.0623455,5.21134837 C21.0470366,5.21134837 21.0326283,5.21674687 21.0173194,5.21674687 C20.7489634,3.60169674 19.3351414,2.38883459 17.6520628,2.43922055 C17.0586178,2.45721554 16.5147016,2.64256391 16.0401257,2.92958396 C15.5349319,1.67533333 14.2976126,0.801676692 12.8657801,0.844864662 C11.7842513,0.877255639 10.8486073,1.4306015 10.2659686,2.24847368 C9.63470157,1.46749123 8.66753927,0.971729323 7.58601047,1.00502005 C6.01639791,1.05270677 4.74125654,2.18369173 4.43868063,3.65658145 C4.40536126,3.65658145 4.37384293,3.64848371 4.34052356,3.64938346 C2.50525654,3.70516792 1.0626178,5.23654135 1.11845026,7.06933083 C1.12025131,7.12151629 1.13465969,7.16920301 1.13826178,7.22048872 C0.497089005,8.36137093 0.328691099,9.44826817 0.349403141,10.113183 C0.407036649,12.0071554 2.4386178,12.5380075 8.12452356,12.3661554 C13.8104293,12.1943033 12.994555,20.495391 14.0607749,20.463 C15.1269948,20.430609 14.3390366,17.9077118 16.3526073,17.8465288 C18.366178,17.7853459 15.9734869,24.9068622 18.1059267,24.8420802 C19.7881047,24.7907945 22.1555812,20.818401 22.9876649,15.9498571 C23.9926492,15.3533233 24.6608377,14.2556291 24.6230157,13.0049774 Z" id="Path" fill="#0B224E"></path>
                </g>
                <path d="M39.2862408,47.4914712 C39.2862408,47.4914712 35.4572147,51.5988271 32.9960838,54.0281504 C27.3516021,52.3690125 16.1166702,49.0111479 13.5618848,47.8270777 C10.1146806,46.2291228 9.19794764,43.5181779 7.9579267,44.3594436 C6.71790576,45.2007093 9.54374869,47.8909599 7.04569634,48.5738697 C6.09204188,48.834797 1.22741361,46.1247519 0.895120419,48.4802957 C0.563727749,50.8349398 4.33872251,54.3799524 5.91824084,54.8010351 C8.12812565,55.3903709 10.3263037,54.5985915 12.0111832,54.3934486 C13.6960628,54.1883058 29.3192461,62.9968521 34.5683979,62.9392682 C36.214555,62.9212732 42.8316021,59.9907895 48.5112042,53.3605363 C54.1926073,46.7284837 41.9346806,45.0036642 39.2862408,47.4914712 Z" id="Path" fill="#F1B282"></path>
                <path d="M93.6994764,92.0560576 L86.4052356,94.1542732 L84.412377,102.81886 L92.365801,100.782727 C92.3667016,100.783627 95.4906178,98.4172857 93.6994764,92.0560576 Z" id="Path" fill="#F1B282"></path>
                <path d="M92.7521257,92.3601729 C92.976356,91.5611955 94.3568586,91.1509098 96.9539686,92.1874211 C99.5510785,93.2239323 101.150408,93.2068371 100.471414,95.6847469 C100.044565,97.2413133 97.1052565,104.922474 94.9782199,110.419043 C94.2100733,112.404789 91.5409215,113.707627 89.5768796,114.422028 C89.1761466,114.567787 88.7258848,114.461617 88.4332147,114.151203 C88.1405445,113.840789 88.0603979,113.386416 88.2296963,112.995025 C90.1162932,108.63304 90.5125236,108.696922 89.7921047,104.301647 C89.5300524,102.705491 89.2328796,101.34417 89.4697173,100.645965 C89.9289843,99.2882431 91.3383037,99.127188 92.0163979,96.8886115 C92.6944921,94.6491353 92.3649005,93.7412882 92.7521257,92.3601729 Z" id="Path" fill="#0B224E"></path>
                <path d="M33.712,72.5314962 C22.8886073,76.9843559 44.2139058,103.501769 44.2139058,103.501769 L52.2834974,98.9103484 C52.2834974,98.9103484 50.6445445,91.4919148 49.0704293,85.9197669 C51.4325026,86.8231153 54.9922723,87.8425313 59.1436859,87.8992155 C66.660356,88.0008872 69.4780942,77.5386015 69.4780942,77.5386015 C69.4780942,77.5386015 44.5353927,68.0777368 33.712,72.5314962 Z" id="Path" fill="#0B224E"></path>
                <path d="M88.8060314,92.1145414 C87.6380524,91.2453835 80.2411518,93.354396 72.4813403,95.9267794 C79.8566283,90.3051454 85.5893613,83.1827293 83.363267,75.3837018 C80.6553927,67.0772155 74.1896335,71.8791779 74.1896335,71.8791779 C67.5212565,73.7173659 31.9406702,101.977594 34.6800628,111.539231 C37.4194555,121.100867 80.9390576,108.867875 82.520377,107.724293 C84.1007958,106.581612 91.3914346,94.040005 88.8060314,92.1145414 Z" id="Path" fill="#102B5E"></path>
                <path d="M72.718178,95.6919449 C72.718178,95.6919449 58.5772565,105.335459 56.072,106.76516 C56.072,106.76516 71.9797487,104.579669 75.5206073,102.252917 C79.0623665,99.9261654 80.0070157,94.0013158 80.0070157,94.0013158 L72.718178,95.6919449 Z" id="Path" fill="#0B224E"></path>
                <path d="M70.7802513,78.1819223 C63.1960419,78.4428496 59.014911,82.0922331 55.8954974,79.9220376 C52.7760838,77.7527419 59.0779476,72.0582281 49.689089,57.6262481 C49.2973613,56.4079875 48.8570052,55.1825288 48.3608168,53.9588697 C48.1771099,53.5044962 47.7844817,52.8683734 47.2900942,52.0900902 C44.3138639,47.4050952 37.6553927,37.5771328 50.7111832,31.4300451 C53.4694869,30.130807 56.7744084,28.2134411 60.1297592,28.1477594 C64.4423665,28.063183 68.837822,31.0404536 72.2580105,42.3269098 C78.337445,62.3922206 88.2414031,73.0992381 88.7033717,77.4054386 C89.1644398,81.7116391 78.3644607,77.9200952 70.7802513,78.1819223 Z" id="Path" fill="#FFCB01"></path>
                <path d="M56.6339267,39.1462957 C58.1981361,47.9728371 51.0056545,56.2055439 49.689089,57.6253484 C49.2973613,56.4070877 48.8570052,55.1816291 48.3608168,53.9579699 C48.1771099,53.5035965 47.7844817,52.8674737 47.2900942,52.0891905 C47.2963979,51.2623208 47.3855497,50.4102581 47.5647539,49.5770902 C48.3085864,46.1076566 56.6339267,39.1462957 56.6339267,39.1462957 Z" id="Path" fill="#F0B701"></path>
                <path d="M45.3071414,35.1703033 C45.3071414,35.1703033 40.5631832,44.7760276 37.5374241,47.4230902 C34.5116649,50.0701529 44.7713298,52.0019148 46.3400419,55.2734035 C47.9087539,58.5448922 53.9089424,48.533381 55.5650052,43.3274311 C57.2210681,38.1205815 60.2702408,24.7152155 45.3071414,35.1703033 Z" id="Path" fill="#FFCB01"></path>
                <path d="M49.0713298,85.9215664 C49.0713298,85.9215664 47.4683979,85.1936692 46.0266597,84.5323534 C46.0266597,84.5323534 48.5895497,89.4971704 50.5725026,91.4406291 L49.0713298,85.9215664 Z" id="Path" fill="#102B5E"></path>
            </g>
        </g>
        <g id="bulb_3_" transform="translate(426.623037, 45.293233)" fill-rule="nonzero">
            <path d="M62.4062827,31.7665514 C62.4062827,12.5425063 44.9568377,-2.60927318 25.0201466,1.26054887 C12.7748272,3.63678697 2.95551832,13.5619223 0.679895288,25.815609 C-0.896921466,34.3065439 0.986073298,42.318812 5.15729843,48.7079323 C10.684712,57.1754737 13.472733,67.133 13.472733,77.242584 L13.472733,78.4365514 L49.0614241,78.4365514 L49.0614241,78.5400226 C49.0614241,68.1074286 51.4685236,57.6064536 57.2408796,48.9130752 C60.5034764,43.9986441 62.4062827,38.1070852 62.4062827,31.7665514 Z" id="Path" fill="#FFCB01"></path>
            <path d="M25.0201466,1.25964912 C24.7797068,1.30643609 24.5572775,1.40090977 24.3186387,1.45309524 C38.4244398,4.41866917 49.0605236,16.7893233 49.0605236,31.7656516 C49.0605236,38.1061855 47.1577173,43.9977444 43.8942199,48.9121754 C38.1407749,57.5758622 35.736377,68.0372481 35.7201675,78.4356516 L49.059623,78.4356516 L49.059623,78.5391228 C49.059623,68.1074286 51.4667225,57.6046541 57.2390785,48.9121754 C60.5025759,43.9977444 62.4053822,38.1061855 62.4053822,31.7656516 C62.4062827,12.5425063 44.9568377,-2.60927318 25.0201466,1.25964912 Z" id="Path" fill="#F0B701"></path>
            <polygon id="Path" fill="#0B224E" points="40.1633508 107.058479 22.3690052 107.058479 17.9204188 98.1689549 44.6119372 98.1689549"></polygon>
            <path d="M46.3049215,98.4379799 L16.2274346,98.4379799 C12.2489215,98.4379799 9.02324607,95.2150777 9.02324607,91.239985 L9.02324607,76.2141704 L53.5091099,76.2141704 L53.5091099,91.239985 C53.5091099,95.2150777 50.2834346,98.4379799 46.3049215,98.4379799 Z" id="Path" fill="#102B5E"></path>
            <polygon id="Path" fill="#03193F" points="44.6128377 98.1716541 20.696733 103.728506 17.9213194 98.1716541"></polygon>
        </g>
        <g id="plant_23_" transform="translate(472.549738, 136.167920)" fill-rule="nonzero">
            <path d="M50.396,142.005644 C77.1532565,139.157038 87.0554136,126.841268 85.8433089,101.084143 C84.6312042,75.3279173 67.5302618,64.8638321 63.4211728,45.4103509 C59.3120838,25.9559699 51.0731937,1.50438095 45.2017801,0.807974937 C39.329466,0.111568922 37.6707016,12.8646165 31.7128377,21.0649323 C22.8102618,33.318619 7.32395812,28.669614 15.710534,59.1972105 C22.9039162,85.380817 0.664586387,84.2174411 0.126973822,110.926501 C-0.398031414,136.936456 22.9849634,144.924431 50.396,142.005644 Z" id="Path" fill="#F3F9FF"></path>
            <path d="M43.0297173,192.526571 C45.2954346,181.111451 47.3036021,167.806857 47.9051518,156.205489 C48.5364188,144.623915 48.275267,132.919975 46.6092984,121.182744 C46.2743037,119.241085 45.9140942,117.316521 45.5583874,115.388358 C54.1160628,105.815925 58.8816335,94.363015 59.5975497,82.519614 C58.0918743,93.4272757 52.9453822,103.658326 44.9712461,112.143862 C43.3728168,103.480175 41.8590366,94.9100627 41.6789319,86.2589724 C41.1962513,74.6711003 41.8779476,63.1012231 44.510178,51.9002431 C41.4267853,63.0040501 40.2786178,74.5478346 40.304733,86.1608997 C40.2678115,88.0071855 40.3830785,89.8705664 40.4605236,91.7294486 C36.9854031,89.1804586 34.035288,85.9494586 31.7740733,82.616787 C29.2129843,78.6812832 27.4380524,74.4749549 26.4609843,70.2101429 C26.9859895,74.4812531 28.3178639,78.7901529 30.5340524,82.954193 C32.8907225,87.0921404 35.8867644,91.0771303 40.5379686,94.4763835 C41.1278115,103.381203 42.7046283,112.3661 43.8744084,121.148554 C46.1365236,144.316201 43.1620942,170.34415 38.0444188,192.526571 L43.0297173,192.526571 L43.0297173,192.526571 Z" id="Path" fill="#D0E7FE"></path>
        </g>
        <path d="M155.111581,21.8952506 C167.680188,21.8952506 178.058723,31.1455739 179.872377,43.1986165 C182.498304,40.4705764 186.181445,38.7655514 190.268021,38.7655514 C197.254283,38.7655514 203.07977,43.7258697 204.413445,50.3129348 C207.514848,45.9203584 212.623518,43.0429599 218.412984,43.0429599 C227.874785,43.0429599 235.545445,50.7070251 235.545445,60.1606917 C235.545445,61.8963083 235.282492,63.5689424 234.801613,65.1471028 C236.462178,63.9099474 238.515372,63.1685539 240.745969,63.1685539 C246.250869,63.1685539 250.713864,67.6277118 250.713864,73.1278797 C250.713864,78.6280476 246.25177,83.0872055 240.745969,83.0872055 L128.666806,83.0872055 C121.340147,83.0872055 115.400293,77.1524586 115.400293,69.8320977 C115.400293,62.5117368 121.340147,56.57699 128.666806,56.57699 C129.887016,56.57699 131.063099,56.7551404 132.186052,57.0637544 C130.815455,53.9677168 130.039204,50.5495689 130.039204,46.9460727 C130.039204,33.1106266 141.26423,21.8952506 155.111581,21.8952506 Z" id="cloud_3_" fill="#F3F9FF" fill-rule="nonzero"></path>
    </g>
</svg>