<?xml version="1.0" encoding="utf-8"?>
<!-- Generator: Adobe Illustrator 23.0.2, SVG Export Plug-In . SVG Version: 6.00 Build 0)  -->
<svg version="1.1" id="图层_1" xmlns="http://www.w3.org/2000/svg" xmlns:xlink="http://www.w3.org/1999/xlink" x="0px" y="0px"
	 viewBox="0 0 700 634" style="enable-background:new 0 0 700 634;" xml:space="preserve">
<style type="text/css">
	.st0{fill:#E5E6EB;}
	.st1{fill:#3579FF;}
	.st2{fill:#84A9FF;}
	.st3{fill:#155DFF;}
	.st4{fill:#FFFFFF;}
	.st5{fill:#155BCD;}
	.st6{fill:#050F64;}
	.st7{opacity:0.81;}
	.st8{fill:#FF654F;}
	.st9{fill:#3615FF;}
	.st10{opacity:0.6;}
	.st11{fill:#0AA2FF;}
	.st12{fill:#DA5544;}
	.st13{fill:#F5BDC8;}
	.st14{opacity:0;}
	.st15{fill:#EA8096;}
</style>
<g>
	<g>
		<g>
			<path class="st0" d="M685,541c-0.4,23.2-8.9,47.5-25.2,63.2c-3.1,3-6.4,5.6-10.1,7.9H94.4c-3.8-2.4-7.6-5.1-11.2-7.9
				c-19.2-14.7-36.3-34-47.3-51.3c-28.8-45.2-27.6-106,2.2-150.3c11.8-17.6,28-33,34.3-53.3c6.9-22.1,0.9-45.9-1.2-69
				s1.7-49.9,21.1-62.6c21.8-14.2,50.7-3.4,76.5-6.5c29-3.5,52.7-24.5,71.9-46.5s36.9-46.5,62-61.3c32.5-19.1,73.4-19,109.5-8.4
				c89.8,26.3,155.3,119,150.1,212.4c-1.2,22.4-6,45.6,1.9,66.6c12.7,33.8,51.7,48,78.7,72C669.9,469.7,685.6,505.3,685,541z"/>
		</g>
		<g>
			<g>
				<path class="st1" d="M63.2,576.4L63.2,576.4c0,15.2,9.5,27.6,21.2,27.6h530.2c11.7,0,21.2-12.4,21.2-27.6l0,0H63.2z"/>
			</g>
			<g>
				<rect x="119.8" y="264.9" class="st2" width="459.4" height="288.5"/>
			</g>
			<g>
				<path class="st3" d="M587.2,234.4H111.8c-8.9,0-16.1,7.2-16.1,16.1v304.6c0,8.9,7.2,16.1,16.1,16.1h475.4
					c8.9,0,16.1-7.2,16.1-16.1V250.5C603.3,241.6,596.1,234.4,587.2,234.4z"/>
			</g>
			<g>
				<rect x="119.8" y="258.6" class="st4" width="459.4" height="288.5"/>
			</g>
			<g>
				<g>
					<polygon class="st0" points="283.3,576.4 167.7,576.4 168.1,571.3 168.7,565 282.3,565 					"/>
				</g>
				<g>
					<polygon class="st0" points="531.3,576.4 415.8,576.4 416.2,571.3 416.7,565 530.4,565 					"/>
				</g>
			</g>
		</g>
		<g>
			<rect x="149.4" y="146.8" class="st2" width="400.3" height="400.3"/>
		</g>
		<g>
			<rect x="152.6" y="148.3" class="st4" width="393.8" height="398.8"/>
		</g>
		<g>
			<rect x="149.4" y="146.8" class="st5" width="400.3" height="33.8"/>
		</g>
		<g>
			<rect x="149.4" y="180.6" class="st6" width="400.3" height="33.8"/>
		</g>
		<g>
			<circle class="st4" cx="176.2" cy="163.7" r="4.2"/>
		</g>
		<g>
			<circle class="st4" cx="200.2" cy="163.7" r="4.2"/>
		</g>
		<g>
			<circle class="st4" cx="224.1" cy="163.7" r="4.2"/>
		</g>
		<g>
			<path class="st4" d="M483.1,205.3H196.2c-1.8,0-3.2-1.4-3.2-3.2v-10.8c0-1.8,1.4-3.2,3.2-3.2h286.9c1.8,0,3.2,1.4,3.2,3.2v10.8
				C486.3,203.9,484.9,205.3,483.1,205.3z"/>
		</g>
		<g>
			<g>
				<path class="st4" d="M514,199.9c-1.6,0-3.3-0.6-4.5-1.9c-2.5-2.5-2.5-6.5,0-9s6.5-2.5,9,0l0,0l0,0c1.2,1.2,1.9,2.8,1.9,4.5
					s-0.7,3.3-1.9,4.5C517.3,199.3,515.7,199.9,514,199.9z M514,189.1c-1.1,0-2.2,0.4-3.1,1.3c-1.7,1.7-1.7,4.5,0,6.2
					c1.7,1.7,4.5,1.7,6.2,0c0.8-0.8,1.3-1.9,1.3-3.1c0-1.2-0.5-2.3-1.3-3.1l0,0C516.3,189.6,515.2,189.1,514,189.1z"/>
			</g>
			<g>
				<path class="st4" d="M523.4,203.9c-0.3,0-0.5-0.1-0.7-0.3l-5.6-5.6c-0.4-0.4-0.4-1,0-1.4s1-0.4,1.4,0l5.6,5.6
					c0.4,0.4,0.4,1,0,1.4C523.9,203.8,523.7,203.9,523.4,203.9z"/>
			</g>
		</g>
		<g>
			<g class="st7">
				<rect x="172.8" y="237" class="st8" width="353.5" height="214.1"/>
			</g>
			<g>
				<g>
					<ellipse class="st4" cx="349.5" cy="331.2" rx="65.1" ry="65.1"/>
				</g>
				<g>
					<polygon class="st8" points="381.6,331.2 333.5,303.4 333.5,358.9 					"/>
				</g>
			</g>
			<g>
				<rect x="187.6" y="416.4" class="st4" width="326.2" height="5.7"/>
			</g>
			<g>
				<circle class="st9" cx="432.8" cy="419.2" r="6.1"/>
			</g>
			<g>
				<rect x="187.6" y="416.4" class="st6" width="245.3" height="5.7"/>
			</g>
		</g>
		<g>
			<g>
				<g>
					<rect x="349.4" y="478.3" class="st0" width="176.6" height="5.6"/>
				</g>
				<g>
					<rect x="349.4" y="504.7" class="st0" width="176.6" height="5.6"/>
				</g>
				<g>
					<rect x="349.4" y="531.1" class="st0" width="176.6" height="5.6"/>
				</g>
			</g>
			<g>
				<rect x="172.8" y="465" class="st0" width="160.6" height="82"/>
			</g>
		</g>
		<g>
			<g>
				<g>
					<g>
						<path class="st0" d="M204.7,463.1v60.3c0,0.4,0,0.9-0.1,1.3c-0.1,0.6-0.2,1.3-0.5,1.8c-1.3,3.5-4.7,6.1-8.6,6.1H78.8
							c-5.1,0-9.2-4.1-9.2-9.2v-58.5c0-9.4,7.6-17,17-17h102.8c6.3,0,11.7,3.8,14,9.3c0.3,0.6,0.5,1.3,0.7,1.9
							C204.5,460.4,204.7,461.7,204.7,463.1z"/>
					</g>
				</g>
				<g>
					<g>
						<path class="st0" d="M338.7,464.9v58.5c0,5.1-4.1,9.2-9.2,9.2H212.8c-4,0-7.4-2.5-8.6-6.1c-0.2-0.6-0.4-1.2-0.5-1.8
							c-0.1-0.4-0.1-0.8-0.1-1.3v-60.3c0-1.4,0.2-2.8,0.5-4.1c0.2-0.7,0.4-1.3,0.7-1.9c2.3-5.4,7.7-9.3,14-9.3h102.8
							C331,447.9,338.7,455.5,338.7,464.9z"/>
					</g>
				</g>
				<g class="st10">
					<g>
						<rect x="69.8" y="524.7" class="st11" width="269.7" height="53.4"/>
					</g>
				</g>
				<g class="st10">
					<g>
						<path class="st11" d="M341.7,474.8h20.4c1.5,0,2.8,1.3,2.8,2.8v76.3c0,13.4-10.8,24.2-24.2,24.2h-3.2V479
							C337.6,476.7,339.4,474.8,341.7,474.8z"/>
					</g>
				</g>
				<g class="st10">
					<g>
						<path class="st11" d="M65.7,474.8H45.2c-1.5,0-2.8,1.3-2.8,2.8v76.3c0,13.4,10.8,24.2,24.2,24.2h3.2V479
							C69.8,476.7,68,474.8,65.7,474.8z"/>
					</g>
				</g>
				<g>
					<g>
						<g>
							<rect x="87.3" y="578.1" class="st2" width="9.5" height="25.9"/>
						</g>
					</g>
					<g>
						<g>
							<rect x="312.6" y="578.1" class="st2" width="9.5" height="25.9"/>
						</g>
					</g>
				</g>
			</g>
			<g>
				<g>
					<path class="st8" d="M299.1,469.3c6-2.3,12.8-1.4,19,0.4c5.9,1.7,11.8,4.4,15.4,9.4c3.3,4.4,4.3,10.1,4.1,15.6
						c-0.3,5.5-1.8,10.8-3.3,16.1c-1.5,5.4-3.4,11.2-8.2,14.2c-4.3,2.7-9.9,2.2-14.9,1.3c-6.5-1.2-13-2.8-19.2-4.8
						c-3.4-1.1-6.9-2.5-8.9-5.4c-3.4-4.7-1.5-11.3,1.1-16.5c3.1-6.2,4.2-10.5,4.7-17.2C289.3,476.3,293.5,471.4,299.1,469.3z"/>
				</g>
				<g>
					<path class="st12" d="M337.5,494.3c0,0.1,0,0.2,0,0.3c-0.2,3.1-0.7,6.2-1.5,9.3c-9.6-7.1-21.1-11.6-33-13.1
						c-5.1-0.6-10.3-0.7-15.4-1.2c0.5-2.2,0.8-4.6,1-7.4c0-0.4,0.1-0.8,0.2-1.2c10.4,0.1,21,0.6,30.7,4.2
						C325.9,487.5,331.7,491.1,337.5,494.3z"/>
				</g>
				<g>
					<path class="st12" d="M333.2,514c-0.8,2.5-1.8,4.9-3.2,7c-6.5-3-13.5-4.9-20.6-5.4c-6.7-0.5-13.6,0.2-20.1-1.6
						c-2.8-0.8-5.4-2-8.1-3.2c-0.2-3.1,0.7-6.4,2-9.3C299.8,505.6,316.5,509.8,333.2,514z"/>
				</g>
			</g>
		</g>
		<g>
			<g>
				<g>
					<g>
						<g>
							<path class="st13" d="M139.7,504.3L139.7,504.3c4.9,1.2,7.9,6.1,6.8,10.9c-1,4.3-4.9,7.1-9.2,6.9h-0.5
								c-0.4,0-0.8-0.1-1.2-0.2c-4.9-1.2-7.9-6-6.7-10.9c1.1-4.6,5.4-7.5,10-6.9l0,0C139.2,504.1,139.4,504.2,139.7,504.3z"/>
						</g>
						<g class="st14">
							<path class="st2" d="M137.7,513.1L137.7,513.1L137.7,513.1z"/>
						</g>
						<g>
							<polygon class="st13" points="139.8,504.3 137.3,522.1 211.7,523.9 211.8,519.5 							"/>
						</g>
					</g>
					<g>
						<g>
							<path class="st6" d="M141.8,503.7l-6.4,19.2c-14.6,0.4-44.1-5.6-55-15.8l12.9-19.4L141.8,503.7z"/>
						</g>
						<g>
							<ellipse class="st5" cx="88.7" cy="498.7" rx="11.9" ry="11.9"/>
						</g>
						<g class="st14">
							<path class="st5" d="M88.7,498.7L88.7,498.7L88.7,498.7z"/>
						</g>
					</g>
					<g>
						<path class="st5" d="M215.6,509.7c-0.5,0.4-0.8,1-0.9,1.6c-0.1,0.6-0.1,1.2-0.2,1.9c-0.1,1.5-0.7,3-1.5,4.3
							c-0.4,0.7-0.9,1.3-1.2,2.1l-0.1,4.4c0.6,0.6,1.5,1.1,2.3,1.3s1.6,0.3,2.4,0.2h0.9l0.7-16.1h-0.9l0,0
							C216.6,509.3,216.1,509.4,215.6,509.7z"/>
					</g>
				</g>
				<g>
					<g>
						<g>
							<path class="st15" d="M143.1,459.2c1,0.6,1.4,1.7,0.9,2.7c-1.4,2.7-2.9,5.5-4.5,8.2s-3.4,5.4-5.7,7.9
								c-1.1,1.3-2.4,2.5-3.9,3.6s-3.3,2.1-5.4,2.6s-4.3,0.6-6.4,0.2s-3.9-1.1-5.5-1.9c-1.7-0.8-3.1-1.7-4.5-2.7s-2.7-2-4-3
								c-2.5-2.1-4.9-4.2-7.2-6.3c-4.6-4.3-8.9-8.6-13.2-12.9c-2.7-2.8-2.2-7.4,1-10.2s7.9-2.5,10.2,0.5c3.6,4.9,7.3,9.7,10.9,14.4
								c1.8,2.3,3.7,4.6,5.6,6.7c1,1,1.9,2,2.9,3c1,0.9,2,1.8,3,2.4c1,0.7,2,1.2,2.9,1.6c0.9,0.3,1.8,0.5,2.7,0.4
								c1.8-0.1,4-1.3,6.1-3.1c2.1-1.7,4.1-3.9,5.9-6.2c1.9-2.3,3.7-4.7,5.4-7.1C141,458.9,142.2,458.7,143.1,459.2z"/>
						</g>
					</g>
					<g>
						<path class="st4" d="M96.5,471.9l-11.7-12.7c-3.5-3.8-4.1-9.3-0.8-12.3l0,0c3.2-3,9.1-2.4,12.6,1.4l11.7,12.7L96.5,471.9z"/>
					</g>
				</g>
				<g>
					<path class="st4" d="M76.4,444.4L76.4,444.4c13-3.4,26.1,5.5,27.6,18.9l3.5,29.1c-8.4,6-21,16.7-32.6,16.5l-11-40.8
						C60.3,458,66.1,447.1,76.4,444.4z"/>
				</g>
				<g>
					<path class="st2" d="M69,487.1l-0.6,0.2l5.3,19.7l0.6-0.2L69,487.1z M106.7,481.3h-0.6l1.3,11c-8.1,5.7-20,15.8-31.2,16.5
						l0.1,0.6c9.7-0.6,20-8.2,27.6-13.8c1.3-1,2.6-1.9,3.8-2.7l0.3-0.2L106.7,481.3z M103.9,463.3l0.8,6.3l0.6-0.2l-0.8-6.2
						c-0.7-6.5-4.1-12.1-9.1-15.8l-0.5,0.4C99.7,451.3,103.2,456.8,103.9,463.3z M82,443.7c2.3,0,4.5,0.4,6.6,1l0.1-0.6
						c-2.1-0.7-4.4-1-6.8-1c-1.7,0-3.3,0.2-5,0.6l0.1,0.6C78.8,443.8,80.4,443.7,82,443.7z M67.2,449.2c-1.1,1.2-2.1,2.5-2.8,4
						c-2.4,4.6-2.9,10.1-1.1,15l2.5,9.3l0.6-0.2l-2.5-9.3c-2.3-6.7-0.6-13.7,3.9-18.5L67.2,449.2z"/>
				</g>
				<g>
					<g>
						<path class="st13" d="M83.5,437.4v10.9c-3,1.9-5.9,1.8-8.8-0.2v-10.9L83.5,437.4z"/>
					</g>
					<g>
						<path class="st15" d="M83.5,440.7v1.2c-1.3,0.8-3,1.2-4.6,1.3c-0.1,0-0.2,0-0.3,0c-1.5,0-2.9-0.6-3.9-1.6v-3.2L83.5,440.7z"/>
					</g>
					<g>
						<path class="st13" d="M87.4,424.8l-0.3,7.9l-0.1,1.7c-0.2,4.4-3.8,7.8-8.1,7.9c-0.4,0-0.9,0-1.3-0.1c-0.2,0-0.3-0.1-0.5-0.2
							H77c-0.6-0.2-1.2-0.6-1.7-1.1c-1-1.1-1.7-2.3-2.3-3.6c-0.5-1.1-1-2.2-1.4-3.3c-0.4-1.3-0.6-2.7-0.5-4.1l-0.1-5.4l13.8-3
							L87.4,424.8z"/>
					</g>
					<g>
						<path class="st6" d="M87.7,437c0,0-0.3-4.6-0.6-6.9l0,0c-0.3-2.2-0.9-4.2-2.4-3.8c-3.1,0.7-4.4-1.8-4.4-1.8s0,0,0-0.1
							c-0.9,0.1-1.8,0.3-2.8,0.6c-4.6,1.4-5.3,0.3-5.9-0.4c-1,3.7-0.3,8.3-0.2,8.7l0,0l0,0c0.1,0.2,0.1,0.4,0.2,0.6
							c0.3,1.1,0.8,2.2,1.4,3.3c0.5,1,1,2,1.7,2.9v0.7c-3.3-0.4-7.6-3.7-8.7-6.6c-4-10.5,1.4-17.3,9.6-19.3
							c7.1-1.8,11.4,4.6,13.2,10.5C89.8,429.1,88.4,436.1,87.7,437z"/>
					</g>
					<g>
						
							<ellipse transform="matrix(0.7331 -0.6801 0.6801 0.7331 -274.4744 163.3593)" class="st13" cx="70.9" cy="431.4" rx="3.2" ry="3.2"/>
					</g>
				</g>
			</g>
			<g>
				<g>
					<g>
						<path class="st13" d="M146,510.9L146,510.9c1.6,4.8-1,9.9-5.7,11.5c-4.2,1.4-8.7-0.5-10.7-4.2l-0.3-0.5
							c-0.2-0.3-0.3-0.7-0.4-1.1c-1.6-4.7,1-9.9,5.7-11.4c4.4-1.5,9.2,0.7,11.1,4.9l0,0C145.8,510.3,145.9,510.6,146,510.9z"/>
					</g>
					<g class="st14">
						<path class="st2" d="M137.4,513.8L137.4,513.8L137.4,513.8z"/>
					</g>
					<g>
						<polygon class="st13" points="146,510.9 129.5,518.2 167.1,582.4 170.9,580.2 						"/>
					</g>
				</g>
				<g>
					<path class="st6" d="M89.2,496.9L89.2,496.9c-6.4-1.4-12.7,2.7-14.1,9.1c-1.1,4.9,1.1,9.7,5,12.3l0,0c0,0,0,0,0.1,0
						c0.3,0.2,0.6,0.4,0.9,0.5c13,7.5,38.2,8.4,52.1,5.5l6.7-20.6L89.2,496.9z"/>
				</g>
				<g>
					<path class="st5" d="M181.3,578.3c-0.6-0.2-1.2-0.2-1.8,0s-1.1,0.5-1.7,0.8c-1.4,0.7-2.9,1-4.4,1c-0.8,0-1.6-0.1-2.4,0
						l-3.8,2.2c-0.2,0.9-0.1,1.8,0.1,2.6c0.2,0.8,0.6,1.5,1.1,2.2l0.4,0.8l14.1-7.9l-0.4-0.8l0,0
						C182.1,578.9,181.8,578.5,181.3,578.3z"/>
				</g>
			</g>
			<g>
				<g>
					<path class="st8" d="M119.1,471.3c-6.2,1.8-11.1,6.5-15,11.7c-3.7,4.9-6.8,10.6-6.8,16.7c0,5.5,2.6,10.7,6.1,14.9
						s7.9,7.6,12.3,10.9c4.5,3.4,9.5,6.9,15,6.4c5.1-0.5,9.2-4.2,12.7-7.9c4.5-4.8,8.7-10,12.5-15.4c2-2.9,4-6.1,3.9-9.6
						c-0.1-5.8-5.6-9.9-10.8-12.5c-6.2-3.1-9.6-5.9-14.1-10.9C131.1,471.1,124.7,469.7,119.1,471.3z"/>
				</g>
				<g>
					<path class="st12" d="M103.3,514.4c0.1,0.1,0.1,0.2,0.2,0.2c2,2.4,4.3,4.6,6.8,6.6c3.5-11.4,9.9-22,18.6-30.2
						c3.7-3.5,7.8-6.7,11.5-10.2c-1.8-1.5-3.4-3.2-5.2-5.3c-0.3-0.3-0.6-0.6-0.9-0.9c-8.3,6.3-16.5,13-22.1,21.7
						C108.5,502,106,508.3,103.3,514.4z"/>
				</g>
				<g>
					<path class="st12" d="M118.5,527.6c2.1,1.5,4.4,2.8,6.8,3.7c3.4-6.3,7.9-12,13.3-16.7c5.1-4.4,11-8,15.1-13.4
						c1.8-2.3,3.1-4.9,4.5-7.4c-1.7-2.6-4.4-4.6-7.2-6.3C140.2,500.9,129.3,514.2,118.5,527.6z"/>
				</g>
			</g>
			<g>
				<g>
					<g>
						<path class="st13" d="M143.4,505.3c0.1-1.2-0.7-2.2-1.9-2.4c-3.4-0.6-6.8-1.2-10.2-1.8c-3.4-0.7-6.7-1.4-9.9-2.3
							c-3.2-0.9-6.3-2-9.2-3.3c-2.9-1.3-5.5-3-7.8-4.9c-4.6-3.9-8.2-9.2-11.5-14.9c-0.4-0.7-0.8-1.4-1.2-2.2l-1.2-2.2
							c-0.8-1.5-1.6-3-2.3-4.5c-1.5-3-3-6.1-4.5-9.2c-2-3.9-6.8-5.4-10.7-3.3c-3.9,2.1-5.2,7.1-2.9,10.9c1.9,3,3.9,5.9,5.9,8.9
							c1,1.5,2,2.9,3.1,4.4l1.6,2.2c0.5,0.7,1.1,1.5,1.6,2.2c2.2,2.9,4.6,5.8,7.3,8.5c2.7,2.7,5.6,5.3,8.9,7.4s6.9,3.7,10.6,4.9
							c3.6,1.1,7.3,1.8,10.8,2.3c3.6,0.5,7.1,0.8,10.6,1c3.5,0.2,7,0.4,10.5,0.5C142.3,507.3,143.3,506.4,143.4,505.3z"/>
					</g>
				</g>
				<g>
					<path class="st4" d="M78.5,482.4l-9-15.3c-2.7-4.6-1.6-10.5,3.1-13.2l0,0c4.6-2.7,11-1.2,13.7,3.4l9,15.3L78.5,482.4z"/>
				</g>
				<g>
					<path class="st2" d="M72.3,453.4c-1.8,1.1-3.2,2.6-4,4.4l0.5,0.3c0.7-1.7,2-3.2,3.7-4.2c1.4-0.8,3-1.3,4.6-1.3l0.1-0.6
						C75.5,452,73.8,452.5,72.3,453.4z M92.4,466.6L92,467l3.2,5.5l-4.4,2.6l0.3,0.5l4.9-2.9L92.4,466.6z M83,453.3l-0.4,0.5
						c1.5,0.8,2.8,2,3.7,3.5l2.5,4.3l0.4-0.5l-2.4-4.1C85.9,455.4,84.6,454.2,83,453.3z M78.5,482.4l-2-3.4l-0.6,0.2l2.4,4.1
						l9.6-5.6l-0.6-0.4L78.5,482.4z M68.2,463.5l-0.6-0.1c0.2,1.4,0.7,2.7,1.4,4l4.3,7.3l0.6-0.2l-4.4-7.4
						C68.9,465.9,68.4,464.7,68.2,463.5z"/>
				</g>
			</g>
		</g>
		<g>
			<g>
				<rect x="33.1" y="358.5" class="st8" width="46" height="33.4"/>
			</g>
			<g>
				<polygon class="st12" points="79.1,391.9 79.1,404.7 61,391.9 				"/>
			</g>
			<g>
				<g>
					<path class="st4" d="M47.9,376.5l8,8.2l8.2-8c7.1-7-1-15.1-8-8.2C49.2,361.4,41.1,369.5,47.9,376.5z"/>
				</g>
			</g>
		</g>
		<g>
			<g>
				<g>
					<g>
						<g>
							<path class="st5" d="M592.5,492.2c0-14.6,1.7-27.8,5.1-39.2c4-13.5,10.2-24.1,18.6-31.4l2,2.3
								c-19.7,17.3-22.6,50.3-22.6,68.4L592.5,492.2z"/>
						</g>
					</g>
					<g>
						<g>
							<g>
								<path class="st5" d="M644.2,387.3l-27.5,35.5c-2.1,2-4.4,3.6-6.9,4c-4.3,0.7-11.3-2.8-13.6-6.5c-1.8-2.9-1.9-6.7-0.9-10
									s2.9-6.3,4.8-9.2c1.5,5,4.5,9.5,8.5,12.8c1.2,1,2.6,1.9,4.1,2.1s3.3-0.6,3.8-2s-0.3-3-1.4-4c-1.1-1-2.5-1.7-3.6-2.6
									c-2.4-1.9-3.8-4.9-3.6-8c0.1-3,1.8-6,4.3-7.6c0.2,6.6,5.7,12.6,12.3,13.3c0.5-1.8-0.6-3.7-1.8-5.2c-1.3-1.4-2.8-2.7-3.7-4.3
									c-1.3-2.4-1.2-5.5,0.4-7.7c1.6-2.2,4.4-3.4,7.1-3c0.6,1.7,0.4,3.6,0.3,5.4c-0.1,1.8,0,3.8,1.1,5.2c1.1,1.4,3.6,1.8,4.7,0.3
									c1.1-1.5-0.1-3.6,0-5.5c0.2-2.4,2.5-4.1,4.9-4.4C639.7,385.6,642,386.5,644.2,387.3z"/>
							</g>
						</g>
						<g>
							<g>
								<path class="st2" d="M641.9,433.4c-2.3,2.6-4.7,5.2-7.7,7s-6.6,2.7-9.9,1.7c-4.1-1.3-9.3-7.2-9.7-11.6
									c-0.2-2.5,0.8-5.2,2.2-7.7l27.5-35.5c1.3,2,2.7,4,3,6.3s-0.8,5.1-3,5.8c-1.8,0.6-4.1,0-5.3,1.4s-0.2,3.7,1.5,4.4
									c1.7,0.7,3.6,0.3,5.3-0.3c1.7-0.6,3.5-1.3,5.3-1.1c1.1,2.5,0.7,5.5-1.1,7.6s-4.7,3-7.3,2.3c-1.8-0.5-3.4-1.7-5.1-2.5
									c-1.7-0.9-3.8-1.4-5.5-0.5c2.3,6.2,9.5,10.1,16,8.6c-1,2.9-3.4,5.2-6.3,6c-2.9,0.9-6.2,0.3-8.6-1.5
									c-1.2-0.9-2.2-2.1-3.4-2.9c-1.3-0.8-3-1.2-4.2-0.4c-1.3,0.8-1.6,2.7-1,4.2c0.6,1.4,1.8,2.5,3,3.4
									C631.6,431.4,636.7,433.2,641.9,433.4z"/>
							</g>
						</g>
					</g>
				</g>
				<g>
					<g>
						<g>
							<path class="st5" d="M597.3,492.7c2.6-19.9,24.6-27.3,43.5-31.6l0.7,2.9c-17.9,4-38.7,11-41.1,29L597.3,492.7z"/>
						</g>
					</g>
					<g>
						<g>
							<g>
								<path class="st5" d="M670.1,456.3l-30.1,6.5c-1.9,0.7-3.6,1.6-4.6,3.1c-1.7,2.5-1.6,7.9,0,10.4c1.3,2,3.6,3.1,6,3.5
									s4.7,0,7.1-0.3c-2.6-2.4-4.5-5.6-5.4-9.1c-0.3-1-0.4-2.1-0.1-3.2c0.3-1,1.3-1.9,2.4-1.7c1,0.1,1.7,1.1,2.1,2.1
									c0.3,1,0.3,2,0.5,3c0.5,2,1.9,3.8,3.9,4.6c1.9,0.8,4.2,0.7,6-0.4c-4.1-2.1-6.1-7.3-4.6-11.6c1.3,0.3,2.2,1.5,2.7,2.7
									s0.8,2.5,1.6,3.6c1.1,1.5,3,2.3,4.9,2c1.8-0.3,3.4-1.7,3.9-3.5c-0.9-0.9-2.1-1.3-3.3-1.8s-2.4-1.1-2.9-2.2
									c-0.6-1.1-0.1-2.8,1.2-3s2.2,1.2,3.4,1.6c1.5,0.6,3.3-0.4,4.1-1.7C669.8,459.6,670,457.9,670.1,456.3z"/>
							</g>
						</g>
						<g>
							<g>
								<path class="st2" d="M640.8,444.1c-2.3,0.7-4.6,1.4-6.6,2.7c-2,1.3-3.7,3.3-4,5.7c-0.4,3,1.7,7.9,4.3,9.5
									c1.5,0.9,3.4,1.1,5.4,0.9l30.1-6.5c-0.8-1.4-1.7-2.9-3-3.8c-1.4-0.9-3.4-1-4.5,0.1c-0.9,0.9-1.2,2.5-2.4,2.9
									c-1.2,0.3-2.3-1-2.3-2.2s0.9-2.3,1.7-3.2c0.9-0.9,1.8-1.8,2.2-3c-1.2-1.4-3.2-2-5-1.6c-1.8,0.5-3.3,2-3.6,3.9
									c-0.2,1.3,0,2.6,0.1,3.9c0,1.3-0.3,2.8-1.3,3.5c-3.2-3.2-3.5-8.9-0.6-12.4c-2.1-0.2-4.2,0.6-5.6,2.1c-1.4,1.5-2,3.8-1.6,5.8
									c0.2,1,0.6,2,0.8,3c0.1,1-0.1,2.2-1,2.7c-0.9,0.6-2.2,0.2-2.9-0.6c-0.7-0.8-1-1.9-1.2-2.9
									C639,451.1,639.4,447.4,640.8,444.1z"/>
							</g>
						</g>
					</g>
				</g>
				<g>
					<g>
						<g>
							<path class="st5" d="M593.9,492.9c-15.8-42.7-21.8-49-50.6-79.2l2.2-2.1c29.2,30.6,35.3,36.9,51.3,80.2L593.9,492.9z"/>
						</g>
					</g>
					<g>
						<g>
							<g>
								<path class="st5" d="M507.6,369.3l37.5,44.2c2,3.2,3.4,6.5,3.3,9.8c-0.3,5.7-6.6,13.6-11.9,15.5c-4.2,1.5-9,0.6-12.9-1.6
									s-7.1-5.4-10.3-8.5c6.7-0.6,13.2-3.2,18.4-7.4c1.6-1.3,3.1-2.7,3.7-4.6c0.6-1.9,0.2-4.3-1.6-5.3c-1.7-1-3.8-0.4-5.4,0.7
									c-1.6,1.1-2.8,2.7-4.3,3.9c-3,2.5-7.2,3.4-11,2.5c-3.8-1-7.1-3.8-8.5-7.4c8.4,1.6,17.5-3.9,20.1-12c-2.2-1.1-4.9-0.3-7,0.9
									c-2.1,1.2-4.1,2.8-6.4,3.5c-3.3,1-7.2,0-9.6-2.6s-3.1-6.5-1.8-9.8c2.3-0.3,4.6,0.5,6.9,1.1s4.8,1.1,6.9,0
									c2.1-1,3.3-4.1,1.7-5.8c-1.7-1.8-4.6-0.8-6.9-1.5c-2.9-0.8-4.5-4.3-4.2-7.3C504.3,374.6,506,371.9,507.6,369.3z"/>
							</g>
						</g>
						<g>
							<g>
								<path class="st2" d="M565.3,384.6c2.6,3.6,5.3,7.3,6.7,11.5c1.5,4.2,1.7,9.1-0.5,13c-2.8,4.9-11.6,9.8-17.2,9.2
									c-3.3-0.4-6.4-2.3-9.2-4.8l-37.5-44.2c2.8-1.2,5.8-2.3,8.8-2.1c3,0.2,6.2,2.3,6.5,5.3c0.3,2.4-1.1,5.2,0.3,7.1
									c1.4,1.9,4.6,1.2,6-0.7c1.4-1.9,1.3-4.4,1.1-6.8s-0.7-4.7,0-7c3.4-0.7,7.2,0.7,9.3,3.4c2.1,2.8,2.5,6.8,0.9,9.9
									c-1.1,2.2-3,3.9-4.6,5.8c-1.5,1.9-2.7,4.4-2,6.8c8.5-1.2,15.3-9.3,15.2-17.9c3.3,2,5.6,5.7,5.9,9.6
									c0.3,3.9-1.3,7.9-4.3,10.5c-1.5,1.3-3.2,2.2-4.5,3.6c-1.4,1.4-2.3,3.4-1.6,5.2c0.7,1.9,3,2.7,5,2.4c2-0.3,3.7-1.6,5.2-2.9
									C559.9,397.1,563.6,391.1,565.3,384.6z"/>
							</g>
						</g>
					</g>
				</g>
				<g>
					<g>
						<g>
							<path class="st5" d="M584,496.7c-5.3-19-28.7-31.4-47.2-36.1l0.8-2.9c19.2,5,43.7,18,49.3,38.3L584,496.7z"/>
						</g>
					</g>
					<g>
						<g>
							<g>
								<path class="st5" d="M505.3,448.2l33.1,9.7c2,0.9,3.8,2.1,4.8,3.8c1.7,2.9,1.2,8.9-0.8,11.6c-1.6,2.1-4.3,3.2-7,3.4
									c-2.7,0.2-5.3-0.3-7.9-0.9c3.1-2.5,5.5-5.9,6.7-9.7c0.4-1.1,0.6-2.4,0.3-3.5c-0.3-1.2-1.3-2.2-2.5-2.1
									c-1.1,0.1-2,1.1-2.5,2.1c-0.4,1.1-0.5,2.2-0.8,3.3c-0.7,2.2-2.5,4.1-4.7,4.8c-2.2,0.8-4.8,0.4-6.7-0.9
									c4.7-2,7.4-7.7,6.1-12.6c-1.4,0.2-2.5,1.5-3.2,2.8s-1.1,2.7-2,3.9c-1.3,1.6-3.6,2.4-5.6,1.9s-3.7-2.2-4.1-4.2
									c1-0.9,2.5-1.3,3.8-1.7c1.3-0.4,2.7-1,3.4-2.2s0.3-3.1-1.1-3.4c-1.4-0.3-2.6,1.1-3.9,1.5c-1.7,0.5-3.6-0.7-4.5-2.3
									C505.4,451.9,505.3,450,505.3,448.2z"/>
							</g>
						</g>
					</g>
				</g>
			</g>
			<g>
				<g>
					<g>
						<polygon class="st8" points="552.9,499.7 553.4,503.4 563.1,576.4 619.5,576.4 629.2,503.4 629.7,499.7 						"/>
					</g>
				</g>
				<g>
					<g>
						<rect x="546.5" y="484.1" class="st8" width="89.6" height="15.6"/>
					</g>
				</g>
				<g>
					<g>
						<polygon class="st12" points="552.9,499.7 553.4,503.4 629.2,503.4 629.7,499.7 						"/>
					</g>
				</g>
			</g>
		</g>
		<g>
			<path class="st2" d="M671.3,608.1c0,1.1-0.4,2.1-1.2,2.8c-0.7,0.7-1.7,1.2-2.8,1.2H32.6c-2.2,0-4-1.8-4-4c0-1.1,0.4-2.1,1.2-2.8
				c0.7-0.7,1.7-1.2,2.8-1.2h634.7C669.6,604.2,671.3,605.9,671.3,608.1z"/>
		</g>
	</g>
</g>
</svg>
