<?xml version="1.0" encoding="utf-8"?>
<!-- Generator: Adobe Illustrator 24.2.0, SVG Export Plug-In . SVG Version: 6.00 Build 0)  -->
<svg version="1.1" id="图层_1" xmlns="http://www.w3.org/2000/svg" xmlns:xlink="http://www.w3.org/1999/xlink" x="0px" y="0px"
	 viewBox="0 0 700 700" style="enable-background:new 0 0 700 700;" xml:space="preserve">
<style type="text/css">
	.st0{fill:#E5E6EB;}
	.st1{fill:#FF654F;}
	.st2{fill:#84A9FF;}
	.st3{fill:#155BCD;}
	.st4{fill:#6292FF;}
	.st5{fill:#DA5544;}
	.st6{fill:#777EEB;}
	.st7{clip-path:url(#SVGID_2_);}
	.st8{fill:#050F64;}
	.st9{fill:#F4BCC7;}
	.st10{fill:#EA8096;}
	.st11{fill:#FFFFFF;}
	.st12{opacity:0.5;}
	.st13{fill:#155BCC;}
</style>
<g>
	<g>
		<g>
			<g>
				<rect x="20.7" y="284.1" class="st0" width="40.7" height="4.6"/>
			</g>
		</g>
		<g>
			<g>
				<rect x="76.4" y="284.1" class="st0" width="40.7" height="4.6"/>
			</g>
		</g>
		<g>
			<g>
				<rect x="187.2" y="284.1" class="st0" width="29.4" height="4.6"/>
			</g>
		</g>
		<g>
			<g>
				<rect x="241.9" y="284.1" class="st0" width="45.8" height="4.6"/>
			</g>
		</g>
		<g>
			<g>
				<rect x="203.4" y="299.9" class="st0" width="20.8" height="4.6"/>
			</g>
		</g>
		<g>
			<g>
				<rect x="203.4" y="312" class="st0" width="20.8" height="4.6"/>
			</g>
		</g>
		<g>
			<g>
				<rect x="203.4" y="324.2" class="st0" width="20.8" height="4.6"/>
			</g>
		</g>
		<g>
			<g>
				<rect x="203.4" y="336.3" class="st0" width="20.8" height="4.6"/>
			</g>
		</g>
		<g>
			<g>
				<rect x="46.4" y="299.9" class="st1" width="15" height="4.6"/>
			</g>
		</g>
		<g>
			<g>
				<rect x="46.4" y="312" class="st2" width="15" height="4.6"/>
			</g>
		</g>
		<g>
			<g>
				<rect x="46.4" y="324.2" class="st3" width="15" height="4.6"/>
			</g>
		</g>
		<g>
			<g>
				<rect x="46.4" y="336.3" class="st2" width="15" height="4.6"/>
			</g>
		</g>
		<g>
			<g>
				<rect x="271.4" y="299.9" class="st0" width="20.8" height="4.6"/>
			</g>
		</g>
		<g>
			<g>
				<rect x="271.4" y="312" class="st0" width="20.8" height="4.6"/>
			</g>
		</g>
		<g>
			<g>
				<rect x="271.4" y="324.2" class="st0" width="20.8" height="4.6"/>
			</g>
		</g>
		<g>
			<g>
				<rect x="271.4" y="336.3" class="st0" width="20.8" height="4.6"/>
			</g>
		</g>
		<g>
			<g>
				<g>
					<rect x="75.9" y="299.9" class="st0" width="20.8" height="4.6"/>
				</g>
			</g>
			<g>
				<g>
					<rect x="75.9" y="312" class="st0" width="30.9" height="4.6"/>
				</g>
			</g>
		</g>
		<g>
			<g>
				<rect x="75.9" y="324.2" class="st0" width="39" height="4.6"/>
			</g>
		</g>
		<g>
			<g>
				<rect x="75.9" y="336.3" class="st0" width="17.9" height="4.6"/>
			</g>
		</g>
		<g>
			<g>
				<g>
					<rect x="11.6" y="152.2" class="st3" width="21.1" height="8.9"/>
				</g>
			</g>
			<g>
				<g>
					<rect x="53.9" y="152.2" class="st3" width="21.1" height="8.9"/>
				</g>
			</g>
			<g>
				<g>
					<rect x="96.2" y="152.2" class="st3" width="21.1" height="8.9"/>
				</g>
			</g>
			<g>
				<g>
					<rect x="138.5" y="152.2" class="st3" width="21.1" height="8.9"/>
				</g>
			</g>
			<g>
				<g>
					<rect x="180.9" y="152.2" class="st3" width="21.1" height="8.9"/>
				</g>
			</g>
			<g>
				<g>
					<rect x="223.2" y="152.2" class="st3" width="21.1" height="8.9"/>
				</g>
			</g>
			<g>
				<g>
					<rect x="265.5" y="152.2" class="st3" width="21.1" height="8.9"/>
				</g>
			</g>
		</g>
		<g>
			<g>
				<rect x="11.6" y="170.4" class="st0" width="295.8" height="2.7"/>
			</g>
		</g>
		<g>
			<g>
				<g>
					<g>
						<g>
							<path class="st0" d="M304.5,277.5H12.4V170.4H10v109.5h296.9V170.4h-2.4V277.5z"/>
						</g>
					</g>
				</g>
				<g>
					<g>
						<g>
							<rect x="277.7" y="170.4" class="st0" width="2.4" height="108.3"/>
						</g>
					</g>
				</g>
				<g>
					<g>
						<g>
							<rect x="250.9" y="170.4" class="st0" width="2.4" height="108.3"/>
						</g>
					</g>
				</g>
				<g>
					<g>
						<g>
							<rect x="224.2" y="170.4" class="st0" width="2.4" height="108.3"/>
						</g>
					</g>
				</g>
				<g>
					<g>
						<g>
							<rect x="197.4" y="170.4" class="st0" width="2.4" height="108.3"/>
						</g>
					</g>
				</g>
				<g>
					<g>
						<g>
							<rect x="170.7" y="170.4" class="st0" width="2.4" height="108.3"/>
						</g>
					</g>
				</g>
				<g>
					<g>
						<g>
							<rect x="143.9" y="170.4" class="st0" width="2.4" height="108.3"/>
						</g>
					</g>
				</g>
				<g>
					<g>
						<g>
							<rect x="117.1" y="170.4" class="st0" width="2.4" height="108.3"/>
						</g>
					</g>
				</g>
				<g>
					<g>
						<g>
							<rect x="90.3" y="170.4" class="st0" width="2.4" height="108.3"/>
						</g>
					</g>
				</g>
				<g>
					<g>
						<g>
							<rect x="63.5" y="170.4" class="st0" width="2.4" height="108.3"/>
						</g>
					</g>
				</g>
				<g>
					<g>
						<g>
							<rect x="36.8" y="170.4" class="st0" width="2.4" height="108.3"/>
						</g>
					</g>
				</g>
				<g>
					<g>
						<g>
							<rect x="10" y="170.4" class="st0" width="296.9" height="2.4"/>
						</g>
					</g>
				</g>
				<g>
					<g>
						<g>
							<rect x="11.2" y="197.2" class="st0" width="294.5" height="2.4"/>
						</g>
					</g>
				</g>
				<g>
					<g>
						<g>
							<rect x="11.2" y="224" class="st0" width="294.5" height="2.4"/>
						</g>
					</g>
				</g>
				<g>
					<g>
						<g>
							<rect x="11.2" y="250.8" class="st0" width="294.5" height="2.4"/>
						</g>
					</g>
				</g>
			</g>
			<g>
				<g>
					<g>
						<g>
							<rect x="39.2" y="218.3" class="st2" width="19.2" height="59.3"/>
						</g>
					</g>
				</g>
				<g>
					<g>
						<g>
							<rect x="92.7" y="206" class="st2" width="19.2" height="71.7"/>
						</g>
					</g>
				</g>
				<g>
					<g>
						<g>
							<rect x="146.3" y="235.3" class="st2" width="19.2" height="42.4"/>
						</g>
					</g>
				</g>
				<g>
					<g>
						<g>
							<rect x="199.8" y="191.7" class="st2" width="19.2" height="86"/>
						</g>
					</g>
				</g>
				<g>
					<g>
						<g>
							<rect x="253.4" y="214.9" class="st2" width="19.2" height="62.8"/>
						</g>
					</g>
				</g>
			</g>
			<g>
				<g>
					<g>
						<rect x="36.8" y="218.3" class="st1" width="19.2" height="59.3"/>
					</g>
				</g>
				<g>
					<g>
						<rect x="90.3" y="206" class="st1" width="19.2" height="71.7"/>
					</g>
				</g>
				<g>
					<g>
						<rect x="143.9" y="235.3" class="st1" width="19.2" height="42.4"/>
					</g>
				</g>
				<g>
					<g>
						<rect x="197.4" y="191.7" class="st1" width="19.2" height="86"/>
					</g>
				</g>
				<g>
					<g>
						<rect x="251" y="214.9" class="st1" width="19.2" height="62.8"/>
					</g>
				</g>
			</g>
		</g>
		<g>
			<g>
				<g>
					<rect x="10" y="307" class="st0" width="296.9" height="2.4"/>
				</g>
			</g>
		</g>
		<g>
			<g>
				<g>
					<rect x="10" y="319.2" class="st0" width="296.9" height="2.4"/>
				</g>
			</g>
		</g>
		<g>
			<g>
				<g>
					<rect x="10" y="331.3" class="st0" width="296.9" height="2.4"/>
				</g>
			</g>
		</g>
		<g>
			<g>
				<g>
					<rect x="10" y="343.5" class="st0" width="296.9" height="2.4"/>
				</g>
			</g>
		</g>
	</g>
	<g>
		<g>
			<g>
				<g>
					<path class="st1" d="M522.8,263c1.5-8.9,8.6-15.8,17.6-17.1l-0.3-8.3l-0.8-20.2c-23.6,1.9-42.4,20.4-44.9,43.8l20.2,1.3
						L522.8,263z"/>
				</g>
			</g>
			<g>
				<g>
					<path class="st2" d="M551.1,285.9c-2.4,1-5,1.5-7.7,1.5c-4.6,0-8.9-1.5-12.4-4.1l-5.6,6.1l-13.7,14.9
						c8.6,7.2,19.6,11.6,31.7,11.6c7.5,0,14.6-1.7,21-4.7l-9.4-17.9L551.1,285.9z"/>
				</g>
			</g>
			<g>
				<g>
					<path class="st2" d="M591.5,277.1l-19.9-3.5c-1.9,7.3-6.5,13.5-12.7,17.5l9.4,17.9l4.4,8.4c14.2-8.2,24.6-22.2,28.1-38.7
						L591.5,277.1z"/>
				</g>
			</g>
			<g>
				<g>
					<path class="st1" d="M514.3,267l-20.2-1.3l-9.5-0.6c0,0.5,0,0.9,0,1.4c0,16.3,6.6,31,17.3,41.6l6.4-7l13.7-14.9
						C517.3,281.2,514.4,274.4,514.3,267z"/>
				</g>
			</g>
			<g>
				<g>
					<path class="st3" d="M558.9,241.9l-3.8,7.3c5.6,3.8,9.2,10.1,9.2,17.3c0,0.4,0,0.9,0,1.3l8.1,1.4l20,3.5c0.2-2,0.4-4.1,0.4-6.2
						c0-18.2-9.8-34-24.4-42.6L558.9,241.9z"/>
				</g>
			</g>
			<g>
				<g>
					<path class="st3" d="M544.6,237.4c3.6,0.1,7.1,1,10.3,2.3l9.4-17.9l4.4-8.4c-7.6-3.6-16.2-5.7-25.2-5.7l0.3,9.5L544.6,237.4z"
						/>
				</g>
			</g>
		</g>
		<g>
			<g>
				<rect x="395.9" y="155.7" class="st3" width="217.6" height="17.4"/>
			</g>
		</g>
		<g>
			<g>
				<g>
					<rect x="395.9" y="205.3" class="st0" width="66.4" height="4.6"/>
				</g>
			</g>
			<g>
				<g>
					<rect x="395.9" y="245.9" class="st0" width="4.6" height="4.6"/>
				</g>
			</g>
			<g>
				<g>
					<rect x="405" y="245.9" class="st0" width="57.3" height="4.6"/>
				</g>
			</g>
			<g>
				<g>
					<rect x="395.9" y="263.2" class="st3" width="4.6" height="4.6"/>
				</g>
			</g>
			<g>
				<g>
					<rect x="405" y="263.2" class="st0" width="57.3" height="4.6"/>
				</g>
			</g>
			<g>
				<g>
					<rect x="395.9" y="280.6" class="st4" width="4.6" height="4.6"/>
				</g>
			</g>
			<g>
				<g>
					<rect x="405" y="280.6" class="st0" width="57.3" height="4.6"/>
				</g>
			</g>
			<g>
				<g>
					<rect x="395.9" y="297.9" class="st5" width="4.6" height="4.6"/>
				</g>
			</g>
			<g>
				<g>
					<rect x="405" y="297.9" class="st0" width="57.3" height="4.6"/>
				</g>
			</g>
			<g>
				<g>
					<rect x="395.9" y="315.3" class="st2" width="4.6" height="4.6"/>
				</g>
			</g>
			<g>
				<g>
					<rect x="405" y="315.3" class="st0" width="57.3" height="4.6"/>
				</g>
			</g>
			<g>
				<g>
					<rect x="395.9" y="217.8" class="st0" width="66.4" height="15.4"/>
				</g>
			</g>
		</g>
		<g>
			<g>
				<g>
					<rect x="623.6" y="205.3" class="st0" width="66.4" height="4.6"/>
				</g>
			</g>
			<g>
				<g>
					<rect x="623.6" y="245.9" class="st0" width="66.4" height="4.6"/>
				</g>
			</g>
			<g>
				<g>
					<rect x="623.6" y="263.2" class="st0" width="66.4" height="4.6"/>
				</g>
			</g>
			<g>
				<g>
					<rect x="623.6" y="280.6" class="st0" width="66.4" height="4.6"/>
				</g>
			</g>
			<g>
				<g>
					<rect x="623.6" y="297.9" class="st0" width="66.4" height="4.6"/>
				</g>
			</g>
			<g>
				<g>
					<rect x="623.6" y="315.3" class="st0" width="66.4" height="4.6"/>
				</g>
			</g>
			<g>
				<g>
					<rect x="623.6" y="217.8" class="st0" width="66.4" height="15.4"/>
				</g>
			</g>
		</g>
		<g>
			<g>
				<rect x="395.9" y="245.9" class="st6" width="4.6" height="4.6"/>
			</g>
		</g>
	</g>
	<g>
		<g>
			<g>
				<defs>
					<circle id="SVGID_1_" cx="350" cy="351" r="206.3"/>
				</defs>
				<use xlink:href="#SVGID_1_"  style="overflow:visible;fill:#155BCD;"/>
				<clipPath id="SVGID_2_">
					<use xlink:href="#SVGID_1_"  style="overflow:visible;"/>
				</clipPath>
				<g class="st7">
					<g>
						<g>
							<path class="st0" d="M424.6,433.4c0-1-0.2-2,0.1-3c0.5-1.7,2.1-3.2,2.2-4.9c0-0.3,0.1-0.9,0-1.2c-0.1-0.4-0.2-0.4-0.4-0.7
								c-0.7-1-1.6-1.8-2.3-2.8c-1.4-1.8-2.8-3.7-3.4-5.9c-0.4-1.5-0.3-2.3,0.7-3.3c1.1-1-0.7-2.7,0.1-4c1-1.7,2.9-2.7,3.9-4.5
								c0.8-1.6,0.9-3,0.9-4.8c0-1.9,0-3.8,0.2-5.7c0.2-2.3,1.1-3,2.9-4.4c0.9-0.7,1-0.8,1-1.8c0-1.2-0.1-2.3,0.2-3.5
								c0.4-1.5,1.1-3.1,2.2-4.1c1.3-1.2,1.6-3.5,1.9-5.2c0.2-1,0.3-1.6,1-2.3c0.6-0.6,0.9-1.3,1.3-2.2c1.3-3.6,1.9-7.4,2.8-11.1
								c0.3-1.4,0.9-2.7,1.4-4.1c0.3-0.7,1-3.3,1.8-3.7c0.4-0.2,0.8,0,1.3-0.2c1.3-0.6,2-3,3.5-3.3c0.6-0.1,1.1,0.3,1.6,0.5
								c0.9,0.3,1.2,0.1,1.9-0.5c1.4-1.1,2.7-2.4,3.8-3.7c1-1.3,2.5-2.2,3.7-3.4c1-0.9,1.9-1.9,2.9-2.8c0.3-0.3,2-2.1,2.8-2.5
								c0.7-0.4,0.7,0.1,1.3,0.4c2.1,1.2,3.5-3.3,4.8-4.2c0.2-0.1,0.5-0.1,0.6-0.2c0.6-0.4,0.9-1.5,1.2-2.1c0.4-1,0.5-2.7,1.6-1.4
								c0.7,0.8,1,2,1.4,3c0.2,0.5,0.6,2.6,1.1,2.9c0.4,0.3,0.8,0.1,1.3,0.2c2,0.3,3.1,2,4.9,2.4c1.9,0.5,3.9-0.9,5.4-1.9
								c0.8-0.5,1.6-1.4,2.7-1.3c1.2,0.2,2.5,1.4,3.6,2c1.2-0.5,1.7-1.9,2.5-2.8c0.8-0.9,1.1-1.7,1.5-2.8c1.1-2.7,1.1-6.1,3.1-8.3
								c0.7-0.8,1.4-1.1,2.3-1.6c1.6-0.8,3.2-1.8,4.8-2.6c1.9-0.9,4.6-1.4,6.2-2.8c0.9-0.9,0.6-2.7,0.6-3.8c0-2.6-0.2-5.3,0-7.9
								c0-0.6,0.3-1.2,0.4-1.9c0.2-1.8-0.5-3.9-0.8-5.7c-0.3-1.5-0.3-3.3-1.3-4.5c-0.9-1.1-1.8-0.2-2.9,0.4c-1.4,0.8-3,1.6-4.3,2.6
								c-0.7,0.5-1.5,1.7-2.3,2.1c-0.7,0.3-1.8,0-2.5,0c-1,0-2.1,0-3.1-0.3c-2.5-0.8-4.8-3.9-4.8-6.5c0-0.4,0-0.9,0-1.3
								c0-1.1,0.5-2.1,0.7-3.2c0.2-1.4,0.1-3.3-0.1-4.6c-0.2-1.6-0.7-3.4-1.2-4.9c-0.3-0.9-0.8-1.8-0.7-2.8c0.3-2.2,2.5-1.8,4-1.4
								c1,0.3,3.8,1.2,4.4-0.1c0.4-0.9,0.4-2.2,0.4-3.1c0-1.8,0-3.4-0.7-5c-1-0.1-1.4,1.3-2.3,1.5c-1.4,0.3-3.5,0-4.8,0
								c-1.4,0-2.8,0-4.2,0c-0.7,0-1.6,0.1-2.2-0.4c-0.9-0.7-1.4-2-2-3c-0.2-0.4-0.7-1.6-1.1-1.8c-0.4,1.8,0,3.9,0,5.7
								c0,1-0.2,1.9-0.3,2.8c-0.1,0.6-0.1,1.2-0.2,1.8c-0.1,0.7-0.1,1.2,0,1.9c0.2,1,0.3,1.8,0.2,2.8c0,0.9-0.2,2.2,0.3,3
								c0.3,0.5,0.7,0.8,1.2,0.9c0.5,0.3,0.9,0.7,1.2,1.3c0.3,0.5,0.8,0.9,1,1.5c0.4,1,0.1,2.3,0.5,3.4c0.3,0.7,0.8,1.1,1.2,1.7
								c0.6,0.9,0.3,2.4,0.3,3.4c0,1.7,0,3.4,0,5.2c0,1.1-0.1,2.2,0.2,3.3c0.2,0.7,0.4,1.1,0.4,1.8c0,0.6-0.2,1.2,0.1,1.7
								c0.4,0.9,1.6,1.7,2.4,2.2c0.7,0.5,2.7,1.9,1.9,2.8c-0.5,0.7-3.6,0.3-3.9,0.2c-2.1-0.1-3-0.4-4.5-1.9
								c-1.7-1.7-2.9-3.7-4.4-5.5c-0.7-0.8-1.4-1.6-2.2-2.3c-0.3-0.2-0.5-0.5-0.8-0.7c-0.6-0.1-0.8,0.4-1.2,0.6
								c-0.4,0.1-0.9,0.1-1.3,0.1c-2.4,0-4.8-0.2-7.1,0.5c-1.6,0.5-3.1,1.3-4.6,2.3c1.5,2,4.8,3.7,7.3,3.9c2.4,0.2,5.1,0.6,7.2,1.9
								c1.1,0.7,1.9,1.7,2.3,2.9c0.5,1.3,0.2,2.4,0.4,3.7c0.2,1.6,1.3,3.1,1.4,4.7c-2.1-0.8-4.1-1.8-5.8-3.2
								c-1.8-1.5-3.3-3.9-4.7-5.7c-0.3-0.4-1.4-2-2.3-1.9c-0.6,0.1-1.2,1.1-1.5,1.4c-1.5,1.6-2.8,1.9-4.8,0.9
								c-1.1-0.5-2.1-1.1-3.1-1.8c-0.6-0.4-1.5-0.7-1.6-1.5c-1.9,1.9-3,4.9-4,7.4c-0.5,1.3-1.2,2.6-1.7,3.9
								c-0.2,0.6-0.3,0.7-0.1,1.4c0.2,0.7,0.5,1.4,0.8,2.1c0.3,0.9,0.4,2,0.4,3c-0.1,1.5-0.9,2-1.6,3.2c-0.4,0.7-0.4,1.3-0.3,2.2
								c0,1.8,0,3.6,0,5.4c0,1.7,0.3,3.6,0,5.2c-0.2,2-2.9,3-4.4,3.8c-0.9,0.5-2.1,0.5-3.2,0.6c-2.2,0.3-3.9,1.7-5.8,2.8
								c-0.6,0.4-1,1.1-1.6,1.3c-2.4,0.7-5-2.2-6.3-3.8c-1.5-1.9-3-4.3-3.8-6.7c-0.5-1.3-0.4-2.5-0.4-3.8c0-1.5,0-3,0-4.5
								c0-1.1-0.4-2.3,0.8-2.6c1.7-0.4,3.8-0.1,5.3-1.3c1.6-1.2,2.9-2.1,4.7-3c1-0.4,1.9-0.9,2.9-1.3c1,0,1.7-0.4,2-1.1
								c-0.9-0.4-1.8-0.8-2.6-1.4c-1.1-0.7-1.7-1.8-2.5-2.9c-1.3-1.8-1.7-4.3-2.1-6.4c-0.2-1.1-0.1-2.2-0.1-3.2
								c0-1.1-0.2-1.6-0.7-2.6c-0.9-1.8-1.4-4.2-1.5-6.2c-0.1-2.2-0.1-4.6,0-6.8c0.1-1.2,0.4-2.4,1-3.4c0.7-1.1,1.6-1.8,2.4-2.8
								c0.2-0.3,0.3-0.6,0.5-0.9c0.4-0.6,0.9-0.8,1.5-1.1c1.1-0.5,2.4-0.8,3.1-1.7c0.2-0.2,0.4-0.5,0.6-0.8c0.5-0.6,1.4-0.9,1.9-1.4
								c0.3-0.3,0.3-0.9,0.2-1.4c-0.3-1.1-1.6-1.6-1.6-2.9c0-0.7,0.3-1.2,0.7-1.7c0.5-0.8,1-1.7,1.5-2.6c0.5-0.9,0.9-1.3,1.7-1.8
								c0.5-0.3,1.2-0.7,1.6-1.2c-0.5-0.4,1.1-3.1,1-3.4c-0.3-1.7-0.9-3.2-1.6-4.8c-0.8-1.9-1.8-3.4-3.2-4.7
								c-1.8-1.7-4.3-2.6-6.2-4.1c-1-0.8-1.8-1.4-1.9-2.7c-0.1-1.3-0.1-2.7,0.2-4c0.2-0.8,0.5-1.3,0.5-2.1c0-0.6-0.2-1.3-0.3-1.9
								c-0.1-0.7,0-1.3-0.8-1.6c-0.8-0.4-1.6,0.1-2.3,0.4c-2,0.7-3.7,1.3-5.9,1.1c-1.8-0.2-3.2-1.3-4.6-2.5
								c-0.5-0.4-1.1-1.3-1.8-1.3c-0.4,0.4-0.3,1-0.3,1.5c-0.1,2.7,1.3,5,2.6,7.3c1.4,2.4,3.8,4.3,5,6.9c0.4,0.8,0.4,1.9,0.4,2.8
								c0,2,0.1,3.2,1.7,4.8c0.8,0.9,1.6,1.6,2.6,2.2c0.7,0.3,1.2,0.8,1.5,1.3c0.2,0.5,0.1,0.6,0.2,1.1c0.1,0.4,0.3,0.6,0.5,0.9
								c0.5,1,0.3,2.6-0.5,3.5c-1,0.9-2.9,0.9-4.1,0.8c-2.7-0.3-5.5-1.2-8-2.3c-2-0.9-3.7-2-5-3.9c-1-1.5-1.3-2.7-1.5-4.4
								c-0.2-1.6-0.9-3.1-0.9-4.7c0-0.5,0.1-1,0-1.5c-0.2-1.5-2-3.9-2.6-4.9c-1.4-2.5-3-5-4.3-7.5c-1.5-2.9-1.2-5.8-1.2-8.9
								c0-1.6-0.3-3.5,0.1-5c0.5-1.6,1.9-2.9,2.7-4.3c0.2-0.4,0.1-0.9,0.3-1.2c0.3-0.6,1.4-0.3,2-0.3c1,0,2.2,0,3.1-0.4
								c0.4-0.1,0.7-0.4,1.1-0.5c0.6-0.2,1.3-0.2,1.9,0c1,0.8,2,1.7,2.9,2.6c0.9,0.6,1.7,1.3,2.6,1.9c1,0.6,2.2,1.6,3.4,1
								c0.8-0.4,1.3-1.2,2-1.7c2.7-1.7,4.9,2.9,5.9,4.7c-0.3-2.6-0.8-5.3-1.4-7.9c-0.5-2.6-0.9-5.6-2-8c-0.4-0.8-0.8-1.7-1.4-2.3
								c-1.1-1.2-2.9-1.9-4.2-2.9c-0.9-0.7-1.7-1.6-2.4-2.5c-0.8-1-1.8-1.7-2.8-2.4c-2.6-1.8-6-3-8.9-4.3c-1.2-0.5-3.9-1.5-5.2-2.5
								c-1.3-1.1-1.8-2.9-3.1-4c-0.8-0.7-1.7-0.3-2.8-0.4c-1.3-0.1-2.4-0.8-3.4-1.6c-1.5-1.1-3-2.1-4.7-3c-1.4-0.8-2.8-1.6-4.2-2.4
								c-0.7-0.4-1.4-0.2-2.2-0.4c-0.3-0.1-0.6-0.3-0.9-0.5c-0.6-0.3-1.3-0.4-1.9-0.6c-1-0.4-1.9-0.9-2.8-1.2
								c-1.2-0.4-2.6-0.7-3.8-1c-2.8-0.7-5.7-0.9-8.4-1.7c-0.9-0.2-1.4-0.7-2.2-1.1c-0.9-0.5-1.3-1-1.8-1.9c-0.4-0.7-0.9-1.3-1.2-2
								c-0.7-1.3-1.1-3.1-2.7-3.3c-2.8-0.5-5.6-1.4-8.4-1.5c-1.8-0.1-4.3,0.6-5.7-0.7c-1.3-1.1-2-4-4.1-3.8
								c-1.3,0.2-2.4,1.4-3.6,1.9c-1.2,0.5-2.2,0.9-3.5,1.2c-1.7,0.3-3.3,0.9-5,1.5c-1.5,0.5-3.6,2-5.4,1.9c-2.3,0-4.2-1.3-6.2-2.1
								c-1.7-0.7-3.8,0.1-5.3,0.7c-0.9,0.4-1.9,1.1-2.8,1.3c-0.2,0-0.5,0-0.7,0c-1.1,0.1-2.3,0.8-3.4,1.1c-3.2,0.9-6,2.9-9.2,3.6
								c-0.8,0.2-1.7,0.1-2.5,0.1c-1.5,0-3.1,0-4.7,0c-1.3,0-2.5,0.1-3.5-0.9c-0.7-0.7-0.6-1.6-0.6-2.5c0-2,0.2-4.3-0.1-6.3
								c3.3-1.4,7.2-1.2,10.6-2.7c2-1,4.2-1.6,6.2-2.6c1.9-0.9,3.5-1.9,5.2-3c0.7-0.4,2.7-1.7,2.7-2.7c-0.1-2.3,4.4-3.3,6.3-4.3
								c5.7-3.1,11.9-6,18.3-7.2c2.7-0.5,6.5-1,9.2,0.3c1.5,0.7,2.9,1.7,4.5,2.3c4.4,1.7,8.9,3,13.7,2.7c3.2-0.2,6.5-0.3,9.5-1.3
								c1.3-0.4,2.6-0.9,3.9-1.4c3-1,6.1-1.6,9.2-2.2c3-0.6,5.9-0.5,8.9-0.5c3,0,6-0.2,9,0.1c4,0.4,7.9,1.7,11.9,2.1
								c5.1,0.6,10.2,0.2,15.3,0.9c3.9,0.5,7.6,1.6,11.5,2.3c1.5,0.3,3,0.5,4.5,0.9c1.3,0.3,2.8,0.4,4,1.1c1.4,0.8,2.6,1.7,3.9,2.6
								c0.1,0.8,2.3,1.1,2.8,1.6c1.8,2.1,4,3.8,6.2,5.5c6.3,5,13.4,9.1,19.7,14.1c7.7,6.1,14.6,13.1,21.2,20.4
								c11.5,12.8,23,26.3,31.6,41.3c7,12.2,10.8,25.8,17,38.4c2.8,5.7,5.6,11.2,9.1,16.5c3.1,4.8,6.6,9.5,9.6,14.4
								c4.6,7.6,8.1,15.9,10.3,24.5c2.8,11,6.4,21.8,8.8,32.9c1.5,7.3,4,14.5,3.9,22c-0.1,7.9-1.6,15.9-3.4,23.6
								c-1.1,4.6-2.4,9.1-3.4,13.7c-1.2,5.4-2.3,10.7-4.2,15.9c-1.9,5.2-4.2,10.2-6.4,15.3c-1.3,3.1-2.5,6.4-4.3,9.3
								c-1.2,1.9-2.7,3.6-4.1,5.4c-2,2.6-3.8,5.4-5.9,7.9c-8.2,9.8-18.7,17.5-28.2,25.9c-3.8,3.3-7.6,6.5-11.3,9.9
								c-1.8,1.7-3.7,3.2-5.6,4.8c-0.8,0.6-2.1,2.1-3.2,2.2c-0.5,0-1.3-0.3-1.4-0.6c-0.5-1.1-1-2.3-1.5-3.3c-0.8-1.5-1.8-3-2.9-4.3
								c-0.5-0.7-1-1.2-1.8-1.5c-1.3-0.5-2.9-0.3-4.2-0.3c-0.9,0-2.4-0.3-3.3,0.1c-0.4-0.6-0.2-2-0.2-2.6c0-0.9,0.1-1.7,0.3-2.7
								c0.4-1.4,0.8-2.8,1.6-4.1c0.2-0.4,0.5-0.6,0.7-1c0.2-0.4,0.4-0.8,0.6-1.2c0.1-0.1,0.2-0.2,0.2-0.3c0.1-0.6,0-1.1,0.2-1.8
								c0.5-1.6,0.6-3.1,0.6-4.8c0-0.6,0.1-1.3,0-1.9c-0.1-0.7-0.5-1.2-0.6-1.9c-0.1-1.5,0-2.6,0.9-3.9c1.3-2,3-3.8,4.2-5.8
								c0.2-0.4,0.4-0.7,0.5-1.1c0.3-0.9,0.8-1.6,1.2-2.5c0.5-1.2,0.9-2.6,1.1-3.9c0.2-1.3-0.1-2.5-0.3-3.7c-0.5-2.4-0.6-5-0.4-7.4
								c0.1-1.2,0.2-2.3,0.2-3.5c0-0.3,0.1-0.8,0-1c-0.1-0.5-0.5-0.8-0.9-1.2c-0.7-0.6-1.2-1.1-1.6-2c-0.5-1-0.8-2.1-1.2-3.1
								c-0.5-1.3-1-2.5-1.5-3.8c-0.3-0.7-0.6-1.4-0.8-2.1c-0.4-1.6,0.2-3.3-0.1-4.8c-0.3-1.6-1.5-1.5-2.8-1.5
								c-2.5,0.1-5,0.9-7.5,1.2c-2.7,0.4-5.2,1.9-7.7,3c-2.3,1-4.6,1.8-6.9,2.8c0.3-0.1-3.1,1.3-3.3,1.8c-0.2,0.7,0.2,1.6-0.1,2.3
								c-0.6,2-2.2,3.7-4,4.8c-0.9,0.6-1.9,1.1-2.8,1.7c-0.5,0.3-0.8,0.6-1.4,0.8c-1.2,0.6-2.5,1.2-3.8,1.2c-0.9,0-1.7,0-2.6-0.2
								c-0.4-0.1-0.8-0.3-1.2-0.4c-0.1,0-0.3,0-0.5,0c-0.7,0.1-1.3,0.3-1.9,0.8c-1.1,0.7-2.2,1.3-3.4,1.8c-1.1,0.4-1.7,0.2-2.5-0.6
								c-0.7-0.7-1.1-1.6-1.8-2.3c-0.6-0.7-1.4-1.4-2.2-2c-0.7-0.6-1.7-1.5-2.7-1.5c-1.3,0-2.8,0.2-4.1-0.2
								c-0.4-0.1-0.9-0.3-1.3-0.4c-1.6-0.6-2.5-1.8-3.8-2.9c-0.9-0.8-2.1-1.3-2.7-2.3c-0.4-0.6-0.9-0.7-1.4-1.1
								c-0.3-0.3-0.6-0.6-1-0.8c-0.2-0.1-0.5-0.3-0.7-0.5c-0.6-0.6-0.9-1.4-1.1-2.2c-0.2-0.8-0.4-2.2-1.2-2.6c-0.3-0.1-1,0-1.4,0
								c-0.2,0-0.4,0-0.6,0C425.4,433.6,425,433.4,424.6,433.4z"/>
						</g>
						<g>
							<path class="st8" d="M514.5,515.3c-0.5,0-1.4-0.3-1.6-0.7c-0.4-1.1-1-2.2-1.5-3.3c-0.7-1.3-1.6-2.7-2.9-4.3
								c-0.5-0.6-0.9-1.2-1.7-1.5c-1-0.4-2.1-0.3-3.2-0.3c-0.3,0-0.6,0-1,0c0,0,0,0,0,0c-0.2,0-0.5,0-0.9,0
								c-0.8-0.1-1.7-0.1-2.3,0.1l-0.1,0.1l-0.1-0.1c-0.4-0.5-0.3-1.5-0.3-2.3c0-0.2,0-0.3,0-0.4c0-0.9,0.1-1.7,0.3-2.7
								c0.4-1.7,0.9-3,1.6-4.1c0.1-0.2,0.3-0.4,0.4-0.5c0.1-0.1,0.2-0.3,0.3-0.4c0.2-0.3,0.3-0.6,0.4-0.9c0-0.1,0.1-0.2,0.1-0.3
								c0-0.1,0.1-0.2,0.1-0.2c0,0,0.1-0.1,0.1-0.1c0-0.2,0.1-0.5,0.1-0.7c0-0.3,0-0.7,0.2-1.1c0.4-1.5,0.6-3,0.6-4.8
								c0-0.2,0-0.4,0-0.6c0-0.4,0-0.9,0-1.3c-0.1-0.3-0.2-0.5-0.3-0.8c-0.1-0.4-0.3-0.7-0.3-1.2c-0.1-1.4,0-2.6,0.9-4
								c0.6-0.9,1.3-1.8,2-2.7c0.8-1,1.6-2,2.2-3.1c0.2-0.4,0.4-0.7,0.5-1.1c0.2-0.5,0.5-1,0.7-1.5c0.2-0.3,0.4-0.7,0.5-1
								c0.5-1.1,0.9-2.5,1.1-3.9c0.2-1.2-0.1-2.4-0.3-3.7c-0.5-2.4-0.6-5-0.4-7.5c0.1-0.9,0.2-2.2,0.2-3.4c0-0.1,0-0.3,0-0.4
								c0-0.2,0-0.4,0-0.6c-0.1-0.4-0.4-0.7-0.7-1l-0.1-0.1c-0.7-0.6-1.2-1.2-1.7-2c-0.4-0.7-0.6-1.5-0.9-2.2
								c-0.1-0.3-0.2-0.6-0.3-0.9c-0.5-1.2-1-2.5-1.5-3.8c-0.3-0.7-0.6-1.4-0.8-2.1c-0.2-0.9-0.1-1.8-0.1-2.6c0.1-0.8,0.1-1.5,0-2.3
								c-0.3-1.3-1.2-1.4-2.6-1.3c-1.6,0.1-3.1,0.4-4.7,0.7c-0.9,0.2-1.9,0.4-2.8,0.5c-1.9,0.3-3.8,1.2-5.6,2
								c-0.7,0.3-1.4,0.6-2,0.9c-1,0.4-2.1,0.8-3.1,1.2c-1.2,0.5-2.5,1-3.8,1.5l0,0c-0.5,0.2-3.1,1.3-3.2,1.7c-0.1,0.3-0.1,0.7,0,1
								c0,0.4,0.1,0.9,0,1.3c-0.6,1.9-2.1,3.6-4.1,4.9c-0.4,0.2-0.7,0.4-1.1,0.7c-0.6,0.3-1.2,0.7-1.7,1.1c-0.5,0.3-0.9,0.6-1.4,0.8
								c-0.2,0.1-0.3,0.2-0.5,0.2c-1.1,0.5-2.2,1-3.4,1c0,0,0,0,0,0l-0.1,0c-0.9,0-1.7,0-2.5-0.3c-0.2-0.1-0.4-0.1-0.6-0.2
								c-0.2-0.1-0.4-0.2-0.7-0.2c-0.1,0-0.3,0-0.4,0c-0.6,0.1-1.3,0.3-1.8,0.7c-1.1,0.7-2.3,1.3-3.5,1.8c-1.1,0.4-1.8,0.3-2.8-0.7
								c-0.4-0.4-0.7-0.9-1-1.3c-0.2-0.3-0.5-0.7-0.7-1c-0.6-0.7-1.4-1.4-2.1-2c-0.1-0.1-0.2-0.2-0.3-0.3c-0.6-0.5-1.5-1.2-2.2-1.2
								c-0.3,0-0.7,0-1.1,0c-1,0-2.1,0.1-3-0.2l-0.4-0.1c-0.3-0.1-0.6-0.2-0.9-0.3c-1.2-0.4-2-1.2-2.8-2c-0.3-0.3-0.7-0.6-1-1
								c-0.3-0.2-0.6-0.5-1-0.7c-0.7-0.4-1.4-0.9-1.8-1.6c-0.2-0.3-0.5-0.5-0.8-0.7c-0.2-0.1-0.4-0.2-0.6-0.4
								c-0.1-0.1-0.2-0.2-0.3-0.3c-0.2-0.2-0.4-0.3-0.6-0.5c-0.1,0-0.1-0.1-0.2-0.1c-0.2-0.1-0.4-0.2-0.5-0.4
								c-0.7-0.6-1-1.5-1.2-2.3c0-0.1-0.1-0.3-0.1-0.5c-0.2-0.7-0.4-1.7-1-2c-0.2-0.1-0.6-0.1-0.9,0c-0.2,0-0.3,0-0.4,0
								c-0.1,0-0.1,0-0.2,0c-0.1,0-0.3,0-0.4,0c-0.3,0-0.6,0-0.9-0.1c-0.1,0-0.2-0.1-0.3-0.1l-0.2,0l0-0.2c0-0.3,0-0.6,0-0.9
								c0-0.7-0.1-1.4,0.1-2.1c0.2-0.7,0.6-1.4,1-2.1c0.5-0.9,1.1-1.8,1.1-2.7c0-0.1,0-0.1,0-0.2c0-0.3,0.1-0.8,0-1
								c-0.1-0.2-0.1-0.3-0.2-0.5c0-0.1-0.1-0.1-0.2-0.2c-0.4-0.5-0.9-1.1-1.3-1.6c-0.3-0.4-0.7-0.8-1-1.2c-1.4-1.7-2.8-3.6-3.5-5.9
								c-0.5-1.6-0.3-2.5,0.8-3.5c0.5-0.4,0.3-1.1,0.1-1.8c-0.2-0.7-0.4-1.5,0-2.2c0.5-0.9,1.2-1.5,1.9-2.2c0.7-0.7,1.5-1.4,2-2.3
								c0.7-1.5,0.9-2.8,0.8-4.7c0-1.7,0-3.7,0.2-5.7c0.3-2.3,1.1-3.1,3-4.5c0.9-0.6,1-0.7,0.9-1.7l0,0c0-1.2-0.1-2.3,0.2-3.5
								c0.3-1.3,1-3,2.2-4.2c1.1-1,1.5-3,1.8-4.6l0.1-0.5c0.2-1,0.3-1.7,1-2.4c0.6-0.6,0.9-1.3,1.2-2.1c0.9-2.6,1.5-5.3,2.1-7.9
								c0.2-1,0.5-2.1,0.7-3.2c0.3-1.3,0.8-2.5,1.3-3.8l0.1-0.3c0-0.1,0.1-0.3,0.2-0.5c0.5-1.5,1-2.9,1.7-3.2
								c0.2-0.1,0.5-0.1,0.7-0.1c0.2,0,0.4,0,0.6-0.1c0.6-0.3,1-0.9,1.5-1.5c0.6-0.8,1.2-1.6,2.1-1.8c0.5-0.1,0.9,0.1,1.2,0.3
								c0.2,0.1,0.3,0.2,0.5,0.2c0.8,0.2,1,0.1,1.8-0.5c1.4-1.1,2.7-2.4,3.8-3.7c0.7-0.8,1.5-1.5,2.3-2.1c0.5-0.4,1-0.8,1.5-1.3
								c0.4-0.4,0.8-0.8,1.3-1.2c0.6-0.5,1.1-1.1,1.7-1.6c0.1-0.1,0.2-0.1,0.3-0.3c0.6-0.6,1.9-1.9,2.6-2.3c0.6-0.3,0.8-0.2,1.1,0.1
								c0.1,0.1,0.2,0.2,0.4,0.3c1.2,0.7,2.2-0.9,3.1-2.4c0.5-0.8,0.9-1.5,1.4-1.8c0.1-0.1,0.3-0.1,0.4-0.1c0.1,0,0.2,0,0.3-0.1
								c0.4-0.3,0.7-1.1,1-1.7c0-0.1,0.1-0.2,0.1-0.3c0.1-0.2,0.2-0.5,0.2-0.7c0.2-0.6,0.4-1.2,0.8-1.3c0.3-0.1,0.6,0.1,1,0.5
								c0.6,0.7,0.9,1.6,1.2,2.5c0.1,0.2,0.1,0.4,0.2,0.6c0.1,0.1,0.1,0.4,0.2,0.7c0.2,0.7,0.5,1.9,0.8,2.1c0.2,0.2,0.4,0.2,0.7,0.2
								c0.2,0,0.3,0,0.5,0c1.1,0.1,1.9,0.7,2.7,1.3c0.7,0.5,1.4,1,2.2,1.2c1.9,0.5,3.9-0.9,5.3-1.8c0.2-0.1,0.3-0.2,0.5-0.4
								c0.7-0.5,1.4-1.1,2.3-1c0.9,0.1,1.9,0.8,2.7,1.4c0.3,0.2,0.6,0.4,0.8,0.6c0.7-0.3,1.2-1,1.6-1.7c0.2-0.3,0.4-0.7,0.7-1
								c0.7-0.9,1-1.6,1.5-2.7c0.4-1,0.6-2,0.9-3c0.4-1.9,0.9-3.9,2.3-5.3c0.7-0.8,1.4-1.1,2.3-1.6l0.1,0c0.7-0.4,1.4-0.8,2.1-1.2
								c0.9-0.5,1.8-1,2.7-1.4c0.6-0.3,1.3-0.5,2.1-0.8c1.5-0.5,3.1-1.1,4.1-2c0.7-0.6,0.6-2,0.6-3c0-0.2,0-0.4,0-0.6
								c0-0.8,0-1.6,0-2.4c0-1.8-0.1-3.7,0-5.5c0-0.3,0.1-0.7,0.2-1c0.1-0.3,0.2-0.6,0.2-0.9c0.1-1.3-0.2-2.7-0.5-4
								c-0.1-0.6-0.2-1.1-0.3-1.6c-0.1-0.3-0.1-0.6-0.1-0.9c-0.2-1.3-0.3-2.5-1.1-3.4c-0.7-0.7-1.2-0.4-2.2,0.2
								c-0.1,0.1-0.3,0.2-0.5,0.3c-0.5,0.3-1,0.6-1.5,0.9c-1,0.5-1.9,1.1-2.8,1.7c-0.3,0.2-0.5,0.5-0.8,0.8c-0.5,0.5-1,1-1.5,1.3
								c-0.5,0.2-1.2,0.2-1.8,0.1c-0.3,0-0.5,0-0.8,0c-1.1,0-2.1,0-3.1-0.3c-2.7-0.9-5-4-4.9-6.7c0-0.2,0-0.4,0-0.6
								c0-0.2,0-0.5,0-0.7c0-0.7,0.2-1.3,0.4-1.9c0.1-0.4,0.3-0.9,0.3-1.3c0.2-1.3,0.1-3.2-0.1-4.5c-0.2-1.5-0.7-3.2-1.2-4.8
								c-0.1-0.2-0.2-0.4-0.2-0.6c-0.3-0.7-0.5-1.4-0.4-2.2c0.1-0.7,0.4-1.2,0.8-1.5c0.7-0.5,1.8-0.5,3.4-0.1l0.2,0.1
								c1,0.3,3.5,1,4,0c0.4-0.8,0.4-2,0.4-2.9l0-0.3c0-1.7,0-3.2-0.6-4.7c-0.4,0-0.7,0.3-1,0.7c-0.3,0.3-0.6,0.7-1.1,0.8
								c-1,0.2-2.3,0.2-3.5,0.1c-0.5,0-1-0.1-1.4-0.1c-0.6,0-1.2,0-1.8,0c-0.8,0-1.6,0-2.3,0c-0.1,0-0.2,0-0.3,0c-0.7,0-1.4,0-2-0.4
								c-0.7-0.5-1.2-1.5-1.6-2.3c-0.1-0.2-0.2-0.5-0.4-0.7c-0.1-0.1-0.1-0.2-0.2-0.4c-0.1-0.3-0.4-0.8-0.6-1.1
								c-0.2,1.1-0.1,2.3,0,3.5c0,0.6,0.1,1.2,0.1,1.8c0,0.8-0.1,1.5-0.2,2.2c0,0.2-0.1,0.4-0.1,0.6c0,0.2-0.1,0.5-0.1,0.7
								c0,0.3-0.1,0.7-0.1,1.1c-0.1,0.6-0.1,1.2,0,1.8c0.2,1,0.3,1.9,0.2,2.8c0,0.2,0,0.3,0,0.5c0,0.8-0.1,1.8,0.3,2.4
								c0.2,0.5,0.6,0.7,1.1,0.8l0.1,0c0.5,0.3,1,0.8,1.3,1.3c0.1,0.1,0.2,0.2,0.3,0.3c0.3,0.4,0.6,0.7,0.8,1.2
								c0.2,0.5,0.2,1.1,0.3,1.7c0,0.6,0.1,1.1,0.2,1.6c0.1,0.4,0.4,0.7,0.7,1c0.2,0.2,0.3,0.4,0.5,0.6c0.5,0.7,0.4,1.8,0.3,2.7
								c0,0.3,0,0.6,0,0.8l0,1.3c0,1.3,0,2.6,0,3.9c0,0.2,0,0.3,0,0.5c0,0.9,0,1.9,0.2,2.7c0,0.1,0.1,0.3,0.1,0.4
								c0.2,0.4,0.3,0.8,0.3,1.4c0,0.2,0,0.3,0,0.5c0,0.4-0.1,0.8,0.1,1.2c0.4,0.8,1.5,1.6,2.3,2.1c1.3,0.9,2.1,1.7,2.2,2.4
								c0,0.3,0,0.5-0.2,0.8c-0.5,0.6-2.3,0.5-3.9,0.3c-0.1,0-0.2,0-0.2,0c-2.1-0.1-3-0.4-4.6-1.9c-1-1-1.9-2.2-2.8-3.3
								c-0.5-0.7-1.1-1.5-1.7-2.2c-0.7-0.8-1.4-1.6-2.2-2.3c-0.2-0.2-0.5-0.4-0.7-0.6c-0.2,0-0.4,0.1-0.6,0.3
								c-0.1,0.1-0.3,0.2-0.5,0.3c-0.3,0.1-0.7,0.1-1,0.1c-0.1,0-0.2,0-0.3,0c-0.4,0-0.8,0-1.2,0c-1.9,0-4-0.1-5.9,0.5
								c-1.6,0.4-3,1.3-4.3,2.1c1.5,1.8,4.5,3.4,7,3.6c2,0.2,5,0.6,7.3,1.9c1.1,0.7,1.9,1.7,2.4,3c0.3,0.8,0.3,1.6,0.3,2.4
								c0,0.4,0,0.9,0.1,1.4c0.1,0.7,0.4,1.4,0.7,2.1c0.3,0.8,0.7,1.7,0.7,2.6l0,0.3l-0.3-0.1c-2.5-1-4.3-2-5.9-3.3
								c-1.2-1-2.3-2.5-3.3-3.9c-0.5-0.7-1-1.3-1.4-1.9c0-0.1-0.1-0.1-0.2-0.2c-0.4-0.5-1.3-1.7-2-1.6c-0.4,0-0.8,0.6-1.1,1
								c-0.1,0.2-0.2,0.3-0.3,0.4c-1.6,1.7-2.9,2-5,1c-1.2-0.6-2.2-1.2-3.1-1.8c-0.1-0.1-0.3-0.2-0.4-0.3c-0.4-0.3-0.9-0.5-1.1-1
								c-1.6,1.8-2.6,4.4-3.5,6.6l-0.2,0.5c-0.3,0.6-0.5,1.3-0.8,1.9c-0.3,0.7-0.6,1.3-0.9,2c-0.2,0.5-0.2,0.7-0.1,1.3
								c0.1,0.5,0.3,0.9,0.5,1.3c0.1,0.2,0.2,0.5,0.3,0.7c0.3,0.8,0.5,2,0.4,3.1c-0.1,1.1-0.5,1.7-1,2.3c-0.2,0.3-0.4,0.6-0.6,1
								c-0.4,0.6-0.3,1.1-0.3,1.8l0,0.2c0,1.2,0,2.5,0,3.7c0,0.6,0,1.1,0,1.7c0,0.6,0,1.2,0.1,1.8c0.1,1.2,0.1,2.3,0,3.4
								c-0.2,1.8-2.3,2.8-3.9,3.6c-0.2,0.1-0.5,0.2-0.7,0.3c-0.7,0.4-1.6,0.5-2.4,0.5c-0.3,0-0.6,0.1-0.8,0.1c-1.7,0.2-3,1.1-4.5,2
								c-0.4,0.3-0.8,0.5-1.3,0.8c-0.2,0.1-0.4,0.4-0.7,0.6c-0.3,0.3-0.6,0.6-1,0.7c-2.3,0.7-4.8-1.8-6.5-3.9
								c-1.7-2.2-3.1-4.6-3.9-6.7c-0.4-1.2-0.4-2.3-0.4-3.4l0-0.4c0-1.1,0-2.3,0-3.3l0-1.1c0-0.2,0-0.4,0-0.7
								c-0.1-0.9-0.2-1.9,1-2.1c0.5-0.1,1.1-0.2,1.7-0.2c1.2-0.1,2.5-0.2,3.5-1c1.6-1.2,2.9-2.1,4.8-3l3-1.3c0.8,0,1.4-0.3,1.8-0.8
								c-0.9-0.4-1.7-0.8-2.4-1.3c-0.9-0.6-1.5-1.4-2.1-2.2c-0.2-0.2-0.3-0.5-0.5-0.7c-1.2-1.6-1.6-3.9-2-5.8c0-0.2-0.1-0.5-0.1-0.7
								c-0.2-0.8-0.1-1.7-0.1-2.5c0-0.3,0-0.5,0-0.8c0-1-0.2-1.6-0.7-2.5c-0.8-1.7-1.4-4.1-1.5-6.3c-0.1-2.7-0.1-4.9,0-6.9
								c0.1-1.4,0.4-2.6,1-3.5c0.4-0.7,1-1.2,1.5-1.8c0.3-0.3,0.7-0.7,1-1.1c0.1-0.1,0.2-0.3,0.3-0.5c0.1-0.1,0.1-0.3,0.2-0.4
								c0.4-0.6,1-0.9,1.6-1.2c0.3-0.1,0.6-0.2,0.9-0.4c0.8-0.3,1.7-0.7,2.2-1.3c0.1-0.1,0.2-0.2,0.3-0.3c0.1-0.1,0.2-0.3,0.3-0.4
								c0.3-0.3,0.6-0.5,1-0.8c0.4-0.2,0.7-0.4,0.9-0.7c0.2-0.3,0.3-0.7,0.1-1.2c-0.1-0.5-0.4-0.8-0.7-1.2c-0.4-0.5-0.9-1-0.9-1.8
								c0-0.7,0.3-1.3,0.7-1.8c0.4-0.7,0.8-1.3,1.1-2l0.3-0.6c0.5-0.9,0.9-1.3,1.8-1.9c0.1-0.1,0.2-0.2,0.4-0.2
								c0.4-0.2,0.8-0.5,1.1-0.8c-0.2-0.4,0.1-1.2,0.7-2.4c0.2-0.4,0.4-0.9,0.4-1c-0.4-1.7-1-3.4-1.6-4.7c-0.8-1.9-1.8-3.4-3.2-4.7
								c-1-0.9-2.2-1.6-3.4-2.3c-1-0.6-2-1.1-2.8-1.8c-1-0.8-1.9-1.5-2-2.9c-0.1-1.5-0.1-2.9,0.2-4.1c0.1-0.3,0.2-0.6,0.3-0.9
								c0.1-0.4,0.3-0.7,0.2-1.2c0-0.4-0.1-0.7-0.2-1.1c-0.1-0.2-0.1-0.5-0.1-0.7c0-0.1,0-0.2,0-0.3c-0.1-0.6-0.1-0.9-0.7-1.2
								c-0.6-0.3-1.1,0-1.7,0.2c-0.2,0.1-0.3,0.1-0.5,0.2c-2.1,0.8-3.8,1.3-6,1.1c-1.8-0.2-3.2-1.3-4.7-2.5
								c-0.1-0.1-0.3-0.2-0.4-0.4c-0.4-0.4-0.8-0.8-1.2-0.9c-0.2,0.3-0.2,0.7-0.2,1.1l0,0.2c-0.1,2.5,1.1,4.7,2.5,7.2
								c0.6,1,1.4,2,2.2,2.9c1,1.2,2.1,2.5,2.8,4c0.4,0.8,0.4,1.9,0.4,2.9c0,1.9,0.1,3.1,1.6,4.6c0.8,0.8,1.6,1.6,2.6,2.2
								c0.7,0.3,1.2,0.8,1.6,1.4c0.2,0.3,0.2,0.6,0.2,0.8c0,0.1,0,0.2,0,0.4c0,0.2,0.1,0.4,0.3,0.6c0.1,0.1,0.1,0.2,0.2,0.3
								c0.6,1.2,0.3,2.8-0.5,3.7c-1.1,1-3.1,1-4.3,0.9c-3.1-0.3-6.1-1.4-8-2.3c-1.6-0.7-3.6-1.8-5-3.9c-1-1.6-1.4-2.8-1.6-4.4
								c-0.1-0.7-0.3-1.3-0.4-2c-0.2-0.9-0.5-1.8-0.5-2.8c0-0.2,0-0.4,0-0.6c0-0.3,0-0.6,0-0.9c-0.2-1.1-1.2-2.8-2-4
								c-0.2-0.4-0.4-0.7-0.6-0.9c-0.4-0.8-0.9-1.5-1.3-2.3c-1-1.7-2.1-3.5-3-5.3c-1.3-2.6-1.3-5.1-1.3-7.8c0-0.4,0-0.8,0-1.2
								c0-0.4,0-0.9-0.1-1.4c-0.1-1.3-0.2-2.6,0.2-3.7c0.3-1,1-1.9,1.6-2.7c0.4-0.5,0.8-1.1,1.1-1.7c0.1-0.2,0.1-0.4,0.1-0.6
								c0-0.2,0.1-0.5,0.2-0.7c0.3-0.5,1.1-0.5,1.7-0.4c0.2,0,0.3,0,0.4,0c1,0,2.1,0,3-0.4c0.1-0.1,0.3-0.1,0.4-0.2
								c0.2-0.1,0.4-0.2,0.7-0.3c0.5-0.1,1.3-0.3,2,0l0,0c1,0.8,2,1.7,2.9,2.6l2.6,1.9c0.1,0.1,0.2,0.1,0.3,0.2
								c0.9,0.6,1.9,1.3,2.9,0.8c0.4-0.2,0.7-0.5,1.1-0.9c0.3-0.3,0.6-0.6,0.9-0.8c0.6-0.4,1.2-0.5,1.8-0.3c1.6,0.4,3,2.7,3.8,4.2
								c-0.3-2.1-0.7-4.2-1.1-6.3l-0.1-0.6c-0.1-0.6-0.2-1.2-0.3-1.8c-0.4-2.1-0.8-4.3-1.7-6.2c-0.4-0.8-0.8-1.7-1.4-2.2
								c-0.6-0.6-1.5-1.1-2.3-1.6c-0.7-0.4-1.3-0.8-1.9-1.3c-0.8-0.7-1.6-1.4-2.4-2.5c-0.8-0.9-1.8-1.7-2.8-2.4
								c-1.9-1.3-4.3-2.3-6.6-3.3c-0.8-0.3-1.5-0.6-2.2-0.9c-0.3-0.1-0.6-0.3-1-0.4c-1.4-0.6-3.2-1.3-4.2-2.1
								c-0.7-0.6-1.2-1.3-1.6-2.1c-0.4-0.7-0.9-1.4-1.4-1.9c-0.5-0.4-1-0.4-1.7-0.3c-0.3,0-0.6,0-0.9,0c-1.3-0.1-2.5-0.8-3.5-1.6
								c-1.4-1.1-2.9-2-4.7-3c-0.5-0.3-0.9-0.5-1.4-0.8c-0.9-0.5-1.9-1.1-2.8-1.6c-0.3-0.2-0.7-0.2-1.1-0.2c-0.3,0-0.7-0.1-1.1-0.2
								c-0.2-0.1-0.4-0.2-0.5-0.3c-0.1-0.1-0.2-0.1-0.3-0.2c-0.3-0.1-0.7-0.2-1-0.3c-0.3-0.1-0.5-0.1-0.8-0.2
								c-0.5-0.2-1-0.4-1.4-0.6c-0.5-0.2-0.9-0.4-1.4-0.6c-1-0.4-2.1-0.6-3.1-0.9l-0.7-0.2c-1.2-0.3-2.5-0.5-3.7-0.7
								c-1.6-0.3-3.2-0.5-4.8-1c-0.6-0.2-1-0.4-1.4-0.7c-0.2-0.2-0.5-0.3-0.8-0.5c-1-0.5-1.4-1.1-1.9-2c-0.2-0.4-0.4-0.7-0.6-1
								c-0.2-0.3-0.4-0.7-0.6-1c-0.1-0.3-0.3-0.6-0.4-0.9c-0.5-1.1-1-2.2-2.1-2.4c-0.9-0.2-1.9-0.4-2.8-0.6
								c-1.8-0.4-3.7-0.9-5.6-0.9c-0.5,0-1,0-1.5,0.1c-1.5,0.1-3.2,0.2-4.3-0.8c-0.4-0.4-0.8-0.9-1.2-1.5c-0.7-1.2-1.5-2.3-2.8-2.2
								c-0.8,0.1-1.5,0.6-2.2,1.1c-0.4,0.3-0.9,0.6-1.4,0.8c-1,0.4-2.1,0.9-3.5,1.2c-1.7,0.3-3.4,0.9-4.9,1.4
								c-0.5,0.2-1,0.4-1.6,0.7c-1.2,0.6-2.6,1.2-3.8,1.2c-1.7,0-3.3-0.7-4.7-1.4c-0.5-0.2-1.1-0.5-1.6-0.7c-1.5-0.6-3.5,0-5.2,0.7
								c-0.3,0.1-0.6,0.3-1,0.5c-0.6,0.3-1.3,0.7-1.9,0.8c-0.2,0-0.3,0-0.4,0c-0.1,0-0.2,0-0.3,0c-0.7,0.1-1.3,0.4-2,0.6
								c-0.4,0.2-0.9,0.4-1.4,0.5c-1.5,0.4-2.9,1.1-4.2,1.7c-1.6,0.7-3.2,1.5-5,1.9c-0.6,0.1-1.2,0.1-1.8,0.1c-0.2,0-0.5,0-0.7,0
								l-1.1,0c-1.2,0-2.4,0-3.6,0l-0.3,0c-1.2,0-2.4,0-3.4-1c-0.7-0.7-0.7-1.6-0.6-2.4l0-0.2c0-0.5,0-1,0-1.6
								c0.1-1.6,0.1-3.2-0.1-4.7l0-0.1l0.1-0.1c1.6-0.7,3.4-1,5.1-1.3c1.8-0.3,3.7-0.6,5.4-1.4c1-0.5,2.1-0.9,3.1-1.3
								c1-0.4,2.1-0.8,3.1-1.3c1.8-0.8,3.3-1.8,5.1-3l0.1-0.1c0.6-0.4,2.6-1.7,2.5-2.5c-0.1-1.9,2.5-2.9,4.6-3.7
								c0.7-0.3,1.3-0.5,1.8-0.8c5-2.7,11.5-6,18.4-7.3c2.7-0.5,6.6-1,9.3,0.3c0.7,0.3,1.3,0.7,1.9,1c0.8,0.5,1.6,0.9,2.5,1.3
								c5.1,2,9.5,2.9,13.6,2.7l0.5,0c3-0.2,6.1-0.3,8.9-1.2c0.8-0.2,1.5-0.5,2.3-0.8c0.5-0.2,1.1-0.4,1.6-0.6
								c2.7-0.9,5.6-1.5,8.3-2l0.9-0.2c2.7-0.5,5.2-0.5,7.9-0.5l1.1,0c0.9,0,1.8,0,2.7,0c2.1,0,4.2-0.1,6.4,0.1
								c2.1,0.2,4.2,0.7,6.3,1.1c1.8,0.4,3.8,0.8,5.7,1c2.4,0.3,4.8,0.3,7.2,0.4c2.7,0.1,5.4,0.2,8.1,0.5c2.5,0.3,5.1,0.9,7.5,1.5
								c1.3,0.3,2.6,0.6,3.9,0.9c0.6,0.1,1.1,0.2,1.7,0.3c0.9,0.2,1.9,0.3,2.8,0.6c0.3,0.1,0.7,0.1,1.1,0.2c1,0.2,2.1,0.4,3,0.9
								c1.3,0.8,2.6,1.6,3.9,2.6l0.1,0.1l0,0.1c0,0.3,0.8,0.6,1.4,0.9c0.5,0.2,1.1,0.4,1.3,0.7c1.9,2.1,4.2,4,6.1,5.5
								c3.1,2.4,6.4,4.6,9.6,6.8c3.4,2.3,6.9,4.7,10.1,7.3c6.9,5.5,13.6,12,21.2,20.4c11.3,12.6,23,26.2,31.6,41.3c4,7,7,14.6,10,22
								c2.2,5.4,4.4,11.1,7,16.4c2.6,5.3,5.5,11,9,16.5c1.3,2.1,2.7,4.1,4.1,6.1c1.8,2.7,3.7,5.5,5.5,8.3
								c4.6,7.5,8.1,15.7,10.3,24.5c1.1,4.2,2.3,8.4,3.4,12.4c1.9,6.7,3.9,13.5,5.3,20.4c0.4,1.9,0.9,3.9,1.4,5.8
								c1.3,5.3,2.7,10.8,2.6,16.3c-0.1,8.9-2,17.7-3.4,23.7c-0.5,2.2-1.1,4.4-1.6,6.5c-0.6,2.4-1.3,4.8-1.8,7.2
								c-0.2,0.7-0.3,1.3-0.5,2c-1,4.6-2.1,9.3-3.7,13.9c-1.5,4.1-3.3,8.2-5,12.1c-0.5,1.1-0.9,2.1-1.4,3.2c-0.3,0.8-0.7,1.6-1,2.4
								c-1,2.4-2,4.8-3.3,7c-0.8,1.4-1.9,2.6-2.9,3.9c-0.4,0.5-0.8,1-1.3,1.6c-0.8,1.1-1.6,2.2-2.4,3.3c-1.1,1.6-2.3,3.2-3.5,4.7
								c-5.9,7.1-13.2,13.2-20.3,19.1c-2.6,2.2-5.4,4.5-8,6.8c-1.3,1.1-2.5,2.2-3.8,3.3c-2.5,2.1-5,4.3-7.5,6.7
								c-1.8,1.7-3.8,3.3-5.6,4.8c-0.2,0.1-0.4,0.3-0.6,0.5C516.4,514.3,515.4,515.2,514.5,515.3z M504.6,504.8
								c0.8,0,1.6,0.1,2.3,0.3c0.9,0.3,1.4,0.9,1.9,1.6c1.3,1.6,2.2,3,2.9,4.4c0.6,1.1,1.1,2.3,1.6,3.4c0.1,0.1,0.7,0.4,1.2,0.5
								c0.8-0.1,1.7-0.9,2.4-1.6c0.2-0.2,0.4-0.4,0.6-0.6c1.8-1.5,3.8-3,5.6-4.8c2.4-2.3,5-4.5,7.5-6.7c1.2-1.1,2.5-2.2,3.8-3.3
								c2.6-2.3,5.3-4.6,8-6.8c7-5.9,14.3-12,20.2-19.1c1.2-1.5,2.4-3.1,3.5-4.6c0.8-1.1,1.6-2.2,2.4-3.3c0.4-0.5,0.8-1,1.3-1.6
								c1-1.2,2-2.5,2.8-3.8c1.3-2.1,2.3-4.6,3.3-6.9c0.3-0.8,0.7-1.6,1-2.4c0.5-1.1,0.9-2.1,1.4-3.2c1.7-3.9,3.5-8,5-12.1
								c1.6-4.5,2.7-9.3,3.7-13.9c0.2-0.7,0.3-1.3,0.5-2c0.6-2.4,1.2-4.9,1.8-7.2c0.6-2.1,1.1-4.3,1.6-6.5
								c1.4-5.9,3.2-14.8,3.4-23.6c0.1-5.5-1.3-11-2.6-16.2c-0.5-1.9-1-3.9-1.4-5.8c-1.5-6.9-3.4-13.8-5.3-20.4
								c-1.2-4.1-2.4-8.3-3.4-12.5c-2.2-8.7-5.7-16.9-10.3-24.4c-1.7-2.8-3.6-5.6-5.5-8.3c-1.4-2-2.8-4-4.1-6.1
								c-3.5-5.5-6.4-11.2-9.1-16.5c-2.6-5.4-4.9-11-7-16.4c-2.9-7.4-5.9-15-9.9-22c-8.6-15.1-20.3-28.6-31.6-41.2
								c-7.6-8.4-14.3-14.9-21.1-20.4c-3.2-2.6-6.7-5-10.1-7.3c-3.2-2.2-6.5-4.4-9.6-6.8c-2-1.6-4.3-3.4-6.2-5.6
								c-0.2-0.2-0.7-0.4-1.2-0.6c-0.8-0.3-1.5-0.6-1.7-1.1c-1.3-1-2.5-1.8-3.8-2.5c-0.8-0.5-1.9-0.7-2.8-0.9
								c-0.4-0.1-0.7-0.1-1.1-0.2c-0.9-0.2-1.9-0.4-2.8-0.6c-0.6-0.1-1.1-0.2-1.7-0.3c-1.3-0.3-2.7-0.6-3.9-0.9
								c-2.4-0.6-5-1.1-7.5-1.5c-2.7-0.4-5.4-0.4-8.1-0.5c-2.4-0.1-4.8-0.1-7.2-0.4c-1.9-0.2-3.8-0.6-5.7-1c-2-0.4-4.1-0.9-6.2-1.1
								c-2.1-0.2-4.2-0.2-6.3-0.1c-0.9,0-1.8,0-2.7,0l-1.1,0c-2.7,0-5.2,0-7.8,0.5l-0.9,0.2c-2.7,0.5-5.6,1.1-8.3,2
								c-0.5,0.2-1.1,0.4-1.6,0.6c-0.8,0.3-1.5,0.6-2.3,0.8c-2.9,0.9-6,1.1-9,1.2l-0.5,0c-4.2,0.2-8.5-0.7-13.8-2.7
								c-0.9-0.4-1.8-0.8-2.6-1.3c-0.6-0.3-1.2-0.7-1.9-1c-2.7-1.2-6.5-0.7-9.1-0.2c-6.8,1.3-13.3,4.5-18.3,7.2
								c-0.5,0.3-1.2,0.5-1.9,0.8c-2,0.8-4.4,1.7-4.3,3.3c0,0.9-1.4,2-2.7,2.8l-0.1,0.1c-1.8,1.2-3.4,2.1-5.2,3
								c-1,0.5-2.1,0.9-3.1,1.3c-1,0.4-2.1,0.8-3.1,1.3c-1.7,0.8-3.7,1.2-5.5,1.5c-1.6,0.3-3.3,0.6-4.9,1.2c0.2,1.5,0.2,3.1,0.1,4.6
								c0,0.5,0,1,0,1.5l0,0.2c0,0.8,0,1.5,0.5,2.2c0.8,0.9,1.9,0.9,3.1,0.9l0.3,0c1.2,0,2.4,0,3.6,0l1.1,0c0.2,0,0.5,0,0.7,0
								c0.6,0,1.2,0,1.7-0.1c1.7-0.4,3.3-1.1,4.9-1.8c1.4-0.6,2.8-1.3,4.3-1.7c0.4-0.1,0.9-0.3,1.3-0.5c0.7-0.3,1.4-0.6,2.1-0.6
								c0.1,0,0.3,0,0.4,0c0.1,0,0.2,0,0.3,0c0.5-0.1,1.2-0.4,1.8-0.8c0.4-0.2,0.7-0.4,1-0.5c1.8-0.7,3.8-1.4,5.5-0.7
								c0.6,0.2,1.1,0.5,1.6,0.7c1.5,0.7,2.9,1.3,4.5,1.4c1.1,0,2.5-0.6,3.7-1.2c0.6-0.3,1.2-0.6,1.7-0.7c1.6-0.6,3.3-1.1,5-1.5
								c1.3-0.3,2.5-0.7,3.4-1.1c0.4-0.2,0.9-0.5,1.3-0.8c0.7-0.5,1.5-1,2.4-1.1c1.5-0.2,2.4,1.2,3.2,2.3c0.4,0.6,0.7,1.1,1.1,1.5
								c1,0.9,2.5,0.8,4,0.7c0.6,0,1.1-0.1,1.6-0.1c1.9,0.1,3.8,0.5,5.7,0.9c0.9,0.2,1.9,0.4,2.8,0.6c1.4,0.3,1.9,1.4,2.4,2.6
								c0.1,0.3,0.3,0.6,0.4,0.9c0.2,0.3,0.4,0.7,0.6,1c0.2,0.3,0.4,0.7,0.6,1.1c0.4,0.8,0.8,1.4,1.7,1.8c0.3,0.2,0.6,0.3,0.8,0.5
								c0.4,0.3,0.8,0.5,1.3,0.7c1.5,0.4,3.2,0.7,4.7,1c1.2,0.2,2.5,0.4,3.7,0.7l0.7,0.2c1.1,0.2,2.2,0.5,3.2,0.9
								c0.5,0.2,1,0.4,1.4,0.6c0.5,0.2,0.9,0.4,1.4,0.6c0.2,0.1,0.5,0.2,0.8,0.2c0.4,0.1,0.8,0.2,1.1,0.4c0.1,0.1,0.3,0.1,0.4,0.2
								c0.2,0.1,0.3,0.2,0.5,0.2c0.3,0.1,0.7,0.1,1,0.2c0.4,0,0.8,0.1,1.2,0.3c0.9,0.5,1.9,1.1,2.8,1.6c0.5,0.3,0.9,0.5,1.4,0.8
								c1.8,1,3.2,2,4.7,3c1,0.8,2.1,1.4,3.3,1.5c0.3,0,0.6,0,0.9,0c0.7-0.1,1.4-0.1,2,0.4c0.6,0.6,1.1,1.3,1.5,2
								c0.4,0.7,0.9,1.5,1.6,2c1,0.8,2.8,1.5,4.1,2.1c0.4,0.2,0.8,0.3,1,0.4c0.7,0.3,1.4,0.6,2.2,0.9c2.3,1,4.7,2,6.7,3.3
								c1,0.7,2.1,1.4,2.9,2.4c0.9,1,1.6,1.8,2.4,2.5c0.5,0.5,1.2,0.8,1.8,1.2c0.8,0.5,1.7,1,2.4,1.7c0.6,0.6,1,1.5,1.4,2.3
								c0.9,1.9,1.3,4.2,1.7,6.3c0.1,0.6,0.2,1.2,0.3,1.8l0.1,0.6c0.5,2.4,1,4.9,1.3,7.3l0.1,1l-0.5-0.8c-0.1-0.1-0.2-0.3-0.3-0.5
								c-0.8-1.5-2.2-4-3.8-4.5c-0.5-0.1-1,0-1.5,0.3c-0.3,0.2-0.6,0.5-0.9,0.7c-0.3,0.3-0.7,0.7-1.2,1c-1.2,0.6-2.3-0.2-3.3-0.8
								c-0.1-0.1-0.2-0.1-0.3-0.2l-2.6-1.9c-0.9-0.9-1.9-1.8-2.9-2.6c-0.6-0.2-1.3-0.1-1.7,0c-0.2,0.1-0.4,0.2-0.6,0.3
								c-0.1,0.1-0.3,0.2-0.5,0.2c-1,0.4-2.2,0.4-3.2,0.4c-0.1,0-0.3,0-0.5,0c-0.5,0-1.1-0.1-1.3,0.2c-0.1,0.1-0.1,0.3-0.1,0.5
								c0,0.2-0.1,0.5-0.2,0.7c-0.3,0.6-0.8,1.2-1.2,1.7c-0.6,0.8-1.2,1.6-1.5,2.6c-0.3,1.1-0.2,2.3-0.2,3.6c0,0.5,0.1,1,0.1,1.4
								c0,0.4,0,0.8,0,1.2c0,2.6,0,5.1,1.2,7.6c0.9,1.8,2,3.5,3,5.2c0.5,0.8,0.9,1.5,1.3,2.3c0.1,0.2,0.3,0.6,0.6,0.9
								c0.8,1.2,1.9,2.9,2.1,4.1c0.1,0.3,0,0.6,0,1c0,0.2,0,0.4,0,0.6c0,0.9,0.3,1.8,0.5,2.7c0.2,0.7,0.3,1.3,0.4,2
								c0.2,1.6,0.5,2.8,1.5,4.3c1.1,1.6,2.5,2.8,4.9,3.8c1.9,0.9,4.8,1.9,7.9,2.3c0.9,0.1,3,0.2,4-0.8c0.7-0.7,1-2.2,0.5-3.2
								c-0.1-0.1-0.1-0.2-0.2-0.3c-0.1-0.2-0.2-0.4-0.3-0.7c0-0.2,0-0.4,0-0.5c0-0.2,0-0.3-0.1-0.6c-0.3-0.5-0.8-1-1.5-1.2
								c-1-0.7-1.9-1.4-2.6-2.3c-1.6-1.7-1.7-2.9-1.7-4.9c0-0.9-0.1-1.9-0.4-2.7c-0.6-1.4-1.7-2.7-2.7-3.9c-0.8-0.9-1.6-1.9-2.2-3
								c-1.1-1.9-2.7-4.5-2.6-7.4l0-0.2c0-0.5,0-1,0.4-1.4l0.1-0.1l0.1,0c0.6,0,1.1,0.5,1.6,1c0.1,0.1,0.3,0.3,0.4,0.4
								c1.4,1.2,2.7,2.3,4.5,2.5c2.1,0.2,3.7-0.3,5.8-1c0.2-0.1,0.3-0.1,0.5-0.2c0.6-0.3,1.3-0.5,2-0.2c0.8,0.4,0.8,0.9,0.9,1.5
								c0,0.1,0,0.2,0,0.3c0,0.2,0.1,0.5,0.1,0.7c0.1,0.4,0.2,0.8,0.2,1.2c0,0.5-0.1,0.9-0.3,1.3c-0.1,0.2-0.2,0.5-0.2,0.8
								c-0.2,1.1-0.3,2.5-0.2,4c0.1,1.2,0.9,1.8,1.8,2.6c0.9,0.7,1.8,1.3,2.8,1.8c1.2,0.7,2.4,1.4,3.4,2.4c1.4,1.3,2.4,2.8,3.3,4.8
								c0.6,1.4,1.2,3.1,1.6,4.8c0,0.2-0.1,0.5-0.4,1.2c-0.2,0.5-0.9,1.9-0.6,2.1l0.2,0.1l-0.1,0.2c-0.3,0.4-0.8,0.7-1.3,1
								c-0.1,0.1-0.2,0.1-0.4,0.2c-0.8,0.5-1.2,0.9-1.6,1.8l-0.3,0.6c-0.4,0.7-0.7,1.4-1.2,2c-0.3,0.5-0.6,1-0.6,1.6
								c0,0.7,0.4,1.1,0.8,1.5c0.3,0.4,0.7,0.8,0.8,1.3c0.2,0.6,0.1,1.2-0.2,1.6c-0.3,0.3-0.6,0.5-1,0.8c-0.3,0.2-0.7,0.4-0.9,0.7
								c-0.1,0.1-0.2,0.2-0.3,0.4c-0.1,0.1-0.2,0.3-0.3,0.4c-0.6,0.7-1.5,1.1-2.4,1.4c-0.3,0.1-0.6,0.2-0.8,0.3
								c-0.6,0.3-1.1,0.5-1.4,1c-0.1,0.1-0.1,0.2-0.2,0.3c-0.1,0.2-0.2,0.4-0.3,0.5c-0.3,0.4-0.7,0.8-1,1.1c-0.5,0.5-1,1.1-1.4,1.7
								c-0.5,0.9-0.9,2-1,3.3c-0.2,1.9-0.2,4.1,0,6.8c0.1,2.2,0.7,4.5,1.5,6.2c0.5,1,0.7,1.6,0.7,2.7c0,0.3,0,0.5,0,0.8
								c0,0.8,0,1.6,0.1,2.4c0,0.2,0.1,0.5,0.1,0.7c0.4,1.9,0.8,4.1,1.9,5.7c0.2,0.2,0.3,0.5,0.5,0.7c0.6,0.8,1.1,1.6,1.9,2.1
								c0.8,0.5,1.6,0.9,2.6,1.3l0.2,0.1l-0.1,0.2c-0.4,0.8-1.2,1.2-2.2,1.2l-2.9,1.3c-1.8,0.9-3.1,1.8-4.7,3
								c-1,0.8-2.4,0.9-3.7,1.1c-0.6,0.1-1.2,0.1-1.7,0.2c-0.8,0.2-0.8,0.8-0.7,1.7c0,0.2,0,0.5,0,0.7l0,1.1c0,1.1,0,2.2,0,3.4
								l0,0.4c0,1.1,0,2.2,0.3,3.3c0.7,2.1,2.1,4.4,3.8,6.6c1.3,1.7,3.8,4.4,6,3.8c0.3-0.1,0.6-0.4,0.9-0.6c0.2-0.2,0.5-0.5,0.7-0.6
								c0.4-0.2,0.8-0.5,1.3-0.8c1.4-0.9,2.9-1.8,4.6-2c0.3,0,0.6-0.1,0.9-0.1c0.8-0.1,1.6-0.1,2.2-0.5c0.2-0.1,0.4-0.2,0.7-0.3
								c1.5-0.7,3.5-1.7,3.7-3.3c0.1-1.1,0.1-2.2,0-3.4c0-0.6-0.1-1.2-0.1-1.8c0-0.6,0-1.1,0-1.7c0-1.2,0-2.5,0-3.7l0-0.2
								c0-0.7,0-1.3,0.4-2c0.2-0.4,0.5-0.7,0.7-1c0.5-0.6,0.8-1.1,0.9-2.1c0.1-1,0-2.1-0.3-2.9c-0.1-0.2-0.2-0.5-0.3-0.7
								c-0.2-0.4-0.4-0.9-0.5-1.4c-0.2-0.7-0.1-0.9,0.1-1.5c0.3-0.7,0.6-1.4,0.9-2c0.3-0.6,0.6-1.2,0.8-1.9l0.2-0.5
								c1-2.4,2-5.1,3.8-7l0.3-0.3l0.1,0.4c0.1,0.5,0.6,0.8,1.1,1.1c0.2,0.1,0.3,0.2,0.4,0.3c0.9,0.6,1.9,1.2,3,1.8
								c1.9,0.9,3.1,0.7,4.6-0.9c0.1-0.1,0.2-0.2,0.3-0.4c0.4-0.5,0.8-1.1,1.3-1.1c0.9-0.1,1.8,1.1,2.3,1.8c0.1,0.1,0.1,0.2,0.2,0.2
								c0.5,0.6,1,1.2,1.5,1.9c1,1.4,2.1,2.8,3.3,3.8c1.4,1.2,3.2,2.2,5.5,3.1c-0.1-0.7-0.4-1.5-0.7-2.2c-0.3-0.7-0.6-1.4-0.7-2.2
								c-0.1-0.5-0.1-1-0.1-1.4c0-0.8,0-1.5-0.3-2.2c-0.5-1.3-1.2-2.2-2.2-2.9c-2.2-1.3-5.1-1.7-7.1-1.9c-2.6-0.2-6-2-7.4-4
								l-0.1-0.2l0.2-0.1c1.4-0.9,2.9-1.8,4.6-2.3c2-0.5,4-0.5,6-0.5c0.4,0,0.8,0,1.2,0c0.1,0,0.2,0,0.3,0c0.3,0,0.6,0,0.9-0.1
								c0.1,0,0.2-0.1,0.3-0.2c0.2-0.2,0.5-0.4,1-0.3l0,0l0,0c0.3,0.2,0.5,0.4,0.8,0.7c0.8,0.7,1.6,1.5,2.3,2.3
								c0.6,0.7,1.2,1.4,1.7,2.2c0.8,1.1,1.7,2.3,2.7,3.3c1.5,1.5,2.3,1.7,4.3,1.8c0,0,0.1,0,0.2,0c2.6,0.3,3.4,0,3.5-0.2
								c0.1-0.1,0.1-0.3,0.1-0.5c-0.1-0.4-0.5-1-2-2.1c-0.9-0.6-2-1.4-2.4-2.3c-0.2-0.4-0.2-0.9-0.1-1.3c0-0.2,0-0.3,0-0.5
								c0-0.5-0.1-0.9-0.3-1.3c0-0.1-0.1-0.3-0.1-0.4c-0.3-0.9-0.3-1.9-0.3-2.9c0-0.2,0-0.3,0-0.5c0-1.3,0-2.6,0-3.9l0-1.3
								c0-0.3,0-0.5,0-0.8c0.1-0.9,0.1-1.9-0.3-2.5c-0.1-0.2-0.3-0.4-0.4-0.6c-0.3-0.3-0.6-0.7-0.7-1.2c-0.2-0.6-0.2-1.2-0.3-1.8
								c0-0.6-0.1-1.1-0.2-1.6c-0.1-0.4-0.4-0.7-0.7-1c-0.1-0.1-0.2-0.2-0.3-0.4c-0.3-0.5-0.7-0.9-1.1-1.2c-0.6-0.1-1.1-0.5-1.3-1
								c-0.4-0.7-0.3-1.7-0.3-2.6c0-0.2,0-0.4,0-0.5c0-1,0-1.8-0.2-2.8c-0.1-0.7-0.1-1.3,0-2c0.1-0.3,0.1-0.7,0.1-1
								c0-0.2,0-0.5,0.1-0.8c0-0.2,0.1-0.4,0.1-0.6c0.1-0.7,0.2-1.4,0.2-2.2c0-0.6,0-1.2-0.1-1.8c-0.1-1.3-0.2-2.7,0.1-3.9l0-0.2
								l0.2,0.1c0.4,0.1,0.7,0.7,1,1.5c0.1,0.2,0.1,0.3,0.2,0.4c0.1,0.2,0.2,0.5,0.4,0.7c0.4,0.8,0.9,1.7,1.5,2.2
								c0.5,0.4,1.1,0.4,1.8,0.4c0.1,0,0.2,0,0.3,0c0.8,0,1.6,0,2.3,0c0.6,0,1.2,0,1.8,0c0.4,0,0.9,0,1.4,0.1
								c1.1,0.1,2.4,0.2,3.4-0.1c0.4-0.1,0.6-0.4,0.9-0.7c0.4-0.4,0.8-0.9,1.5-0.8l0.1,0l0,0.1c0.7,1.6,0.7,3.3,0.7,5l0,0.3
								c0,1,0,2.2-0.4,3c-0.6,1.4-3.2,0.6-4.5,0.3l-0.2-0.1c-1.5-0.4-2.5-0.4-3.1,0c-0.4,0.3-0.6,0.7-0.7,1.3
								c-0.1,0.7,0.2,1.4,0.4,2c0.1,0.2,0.2,0.4,0.2,0.6c0.5,1.6,1,3.4,1.2,4.9c0.2,1.4,0.2,3.3,0.1,4.7c-0.1,0.5-0.2,0.9-0.3,1.4
								c-0.2,0.6-0.3,1.1-0.3,1.8c0,0.2,0,0.5,0,0.7c0,0.2,0,0.4,0,0.7c0,2.5,2.1,5.5,4.7,6.3c1,0.3,1.9,0.3,3,0.3
								c0.2,0,0.5,0,0.8,0c0.6,0,1.2,0.1,1.6-0.1c0.5-0.2,0.9-0.7,1.4-1.2c0.3-0.3,0.6-0.6,0.9-0.9c0.9-0.6,1.9-1.2,2.8-1.7
								c0.5-0.3,1-0.6,1.5-0.8c0.2-0.1,0.3-0.2,0.4-0.3c0.9-0.6,1.8-1.1,2.7-0.1c0.9,1,1.1,2.4,1.2,3.7c0,0.3,0.1,0.6,0.1,0.9
								c0.1,0.5,0.2,1,0.3,1.6c0.3,1.4,0.6,2.8,0.5,4.1c0,0.3-0.1,0.7-0.2,1c-0.1,0.3-0.2,0.6-0.2,0.9c-0.1,1.8-0.1,3.7,0,5.5
								c0,0.8,0,1.6,0,2.4c0,0.2,0,0.4,0,0.6c0.1,1.1,0.1,2.6-0.7,3.4c-1.1,1-2.7,1.5-4.2,2.1c-0.7,0.3-1.4,0.5-2,0.8
								c-0.9,0.4-1.8,0.9-2.7,1.4c-0.7,0.4-1.4,0.8-2.2,1.2l-0.1,0c-0.9,0.5-1.5,0.8-2.2,1.5c-1.3,1.4-1.7,3.3-2.2,5.1
								c-0.2,1-0.5,2.1-0.9,3.1c-0.5,1.2-0.8,1.9-1.6,2.9c-0.2,0.3-0.5,0.6-0.7,1c-0.5,0.8-1,1.6-1.9,1.9l-0.1,0l-0.1-0.1
								c-0.3-0.2-0.6-0.4-0.9-0.6c-0.8-0.6-1.7-1.2-2.6-1.4c-0.7-0.1-1.4,0.4-2,0.9c-0.2,0.1-0.3,0.3-0.5,0.4
								c-1.4,1-3.6,2.4-5.6,1.9c-0.9-0.2-1.6-0.7-2.3-1.2c-0.8-0.6-1.6-1.1-2.6-1.2c-0.2,0-0.3,0-0.5,0c-0.3,0-0.6,0-1-0.2
								c-0.4-0.3-0.6-1.2-0.9-2.3c-0.1-0.3-0.1-0.6-0.2-0.7c-0.1-0.2-0.1-0.4-0.2-0.6c-0.3-0.8-0.6-1.7-1.2-2.3
								c-0.4-0.4-0.5-0.4-0.6-0.4c-0.2,0-0.4,0.6-0.5,1c-0.1,0.2-0.1,0.5-0.2,0.7c0,0.1-0.1,0.2-0.1,0.3c-0.2,0.6-0.6,1.5-1.1,1.9
								c-0.1,0.1-0.3,0.1-0.4,0.1c-0.1,0-0.2,0-0.2,0.1c-0.4,0.3-0.8,1-1.3,1.7c-1,1.5-2.1,3.4-3.7,2.5c-0.2-0.1-0.3-0.2-0.4-0.3
								c-0.2-0.2-0.3-0.2-0.6,0c-0.6,0.3-1.9,1.6-2.5,2.2c-0.1,0.1-0.2,0.2-0.3,0.3c-0.6,0.5-1.1,1.1-1.7,1.6
								c-0.4,0.4-0.8,0.8-1.3,1.2c-0.5,0.5-1,0.9-1.5,1.3c-0.8,0.6-1.6,1.3-2.2,2.1c-1.1,1.4-2.4,2.7-3.8,3.8
								c-0.8,0.6-1.1,0.8-2.1,0.5c-0.2-0.1-0.4-0.1-0.5-0.2c-0.3-0.2-0.7-0.3-1-0.3c-0.8,0.2-1.3,0.9-1.9,1.6
								c-0.5,0.6-1,1.3-1.6,1.6c-0.3,0.1-0.5,0.1-0.8,0.1c-0.2,0-0.4,0-0.5,0.1c-0.6,0.3-1.2,2.1-1.5,3c-0.1,0.2-0.1,0.4-0.2,0.5
								l-0.1,0.3c-0.5,1.3-1,2.4-1.3,3.7c-0.3,1.1-0.5,2.1-0.7,3.2c-0.6,2.6-1.2,5.3-2.1,8c-0.3,0.9-0.7,1.6-1.3,2.2
								c-0.6,0.7-0.7,1.2-0.9,2.2l-0.1,0.5c-0.3,1.6-0.7,3.7-1.9,4.8c-1.1,1.1-1.8,2.7-2.1,4c-0.3,1.1-0.3,2.2-0.2,3.4l0,0
								c0,1.2-0.1,1.3-1.1,2c-1.8,1.3-2.6,2.1-2.8,4.2c-0.2,2-0.2,4-0.2,5.6c0,1.9-0.1,3.3-0.9,4.9c-0.5,1-1.3,1.7-2,2.4
								c-0.7,0.7-1.4,1.3-1.8,2.1c-0.3,0.6-0.1,1.2,0.1,1.9c0.2,0.8,0.5,1.6-0.2,2.2c-1,0.9-1.1,1.6-0.7,3.1c0.6,2.2,2,4.1,3.4,5.8
								c0.3,0.4,0.7,0.8,1,1.2c0.5,0.5,0.9,1.1,1.3,1.6c0.1,0.1,0.1,0.1,0.1,0.2c0.1,0.2,0.2,0.3,0.3,0.6c0.1,0.3,0,0.7,0,1.1
								c0,0.1,0,0.1,0,0.2c-0.1,1-0.6,2-1.2,2.9c-0.4,0.7-0.8,1.4-1,2c-0.2,0.6-0.1,1.3-0.1,2c0,0.3,0,0.5,0,0.8c0,0,0.1,0,0.2,0
								c0.2,0.1,0.5,0.1,0.7,0.1c0.1,0,0.3,0,0.5,0c0.1,0,0.1,0,0.2,0c0.1,0,0.2,0,0.4,0c0.4,0,0.8-0.1,1.1,0.1
								c0.8,0.3,1,1.4,1.2,2.2c0,0.2,0.1,0.3,0.1,0.5c0.2,0.7,0.5,1.5,1.1,2.1c0.1,0.1,0.3,0.2,0.5,0.3c0.1,0,0.1,0.1,0.2,0.1
								c0.3,0.2,0.5,0.3,0.7,0.5c0.1,0.1,0.2,0.2,0.3,0.3c0.2,0.1,0.4,0.3,0.5,0.4c0.3,0.2,0.7,0.4,0.9,0.8c0.4,0.6,1,1.1,1.7,1.5
								c0.3,0.2,0.7,0.5,1,0.7c0.4,0.3,0.7,0.7,1.1,1c0.8,0.8,1.5,1.5,2.7,1.9c0.3,0.1,0.6,0.2,0.9,0.3l0.4,0.1
								c0.9,0.3,1.9,0.2,2.9,0.2c0.4,0,0.8,0,1.1,0c0.9,0,1.8,0.7,2.5,1.3c0.1,0.1,0.2,0.2,0.3,0.3c0.7,0.6,1.5,1.3,2.2,2
								c0.3,0.3,0.5,0.7,0.8,1c0.3,0.5,0.6,0.9,1,1.3c0.8,0.8,1.4,1,2.3,0.6c1.2-0.5,2.3-1.1,3.4-1.8c0.6-0.5,1.2-0.7,2-0.8
								c0.1,0,0.4,0,0.5,0c0.3,0.1,0.5,0.1,0.7,0.2c0.2,0.1,0.4,0.1,0.5,0.2c0.8,0.2,1.6,0.2,2.4,0.2l0.1,0c0,0,0,0,0,0
								c1.1,0,2.2-0.5,3.2-1c0.2-0.1,0.3-0.2,0.5-0.2c0.5-0.2,0.9-0.5,1.3-0.8c0.6-0.4,1.2-0.7,1.7-1.1c0.4-0.2,0.7-0.4,1.1-0.6
								c1.9-1.2,3.3-2.9,3.9-4.7c0.1-0.4,0.1-0.7,0-1.1c0-0.4-0.1-0.8,0-1.2c0.2-0.6,2.8-1.8,3.4-1.9l0,0c1.2-0.6,2.5-1.1,3.8-1.5
								c1-0.4,2.1-0.8,3.1-1.2c0.7-0.3,1.3-0.6,2-0.9c1.8-0.9,3.7-1.8,5.7-2.1c0.9-0.1,1.9-0.3,2.8-0.5c1.5-0.3,3.1-0.6,4.7-0.7
								c1.2-0.1,2.6-0.2,3,1.6c0.2,0.8,0.1,1.6,0,2.4c-0.1,0.9-0.1,1.7,0.1,2.5c0.3,0.7,0.5,1.4,0.8,2.1c0.5,1.3,1,2.5,1.5,3.8
								c0.1,0.3,0.2,0.6,0.4,1c0.3,0.7,0.5,1.5,0.9,2.2c0.4,0.8,0.9,1.3,1.6,1.9l0.1,0.1c0.4,0.3,0.8,0.6,0.9,1.2c0,0.2,0,0.5,0,0.7
								c0,0.1,0,0.3,0,0.4c0,1.3-0.1,2.5-0.2,3.5c-0.2,2.4-0.1,5,0.4,7.4c0.3,1.3,0.5,2.5,0.3,3.8c-0.2,1.4-0.6,2.8-1.1,4
								c-0.2,0.4-0.4,0.7-0.5,1c-0.3,0.5-0.5,0.9-0.7,1.4c-0.2,0.4-0.3,0.8-0.6,1.1c-0.7,1.1-1.5,2.2-2.3,3.2
								c-0.7,0.9-1.3,1.7-1.9,2.7c-0.8,1.3-0.9,2.4-0.8,3.7c0,0.4,0.2,0.7,0.3,1c0.1,0.3,0.2,0.6,0.3,0.9c0.1,0.4,0.1,0.9,0.1,1.4
								c0,0.2,0,0.4,0,0.6c0,1.8-0.2,3.4-0.6,4.9c-0.1,0.4-0.1,0.7-0.2,1.1c0,0.2,0,0.5-0.1,0.7c0,0.1-0.1,0.2-0.2,0.3
								c0,0-0.1,0.1-0.1,0.1c0,0.1-0.1,0.2-0.1,0.3c-0.1,0.3-0.3,0.6-0.4,0.9c-0.1,0.2-0.2,0.3-0.4,0.5c-0.1,0.2-0.3,0.3-0.4,0.5
								c-0.7,1.1-1.2,2.3-1.6,4c-0.2,0.9-0.3,1.7-0.3,2.6c0,0.1,0,0.3,0,0.4c0,0.6-0.1,1.4,0.1,1.9c0.7-0.2,1.5-0.1,2.3-0.1
								c0.3,0,0.6,0,0.8,0c0.3,0,0.6,0,0.9,0C503.9,504.8,504.3,504.8,504.6,504.8z"/>
						</g>
					</g>
					<g>
						<g>
							<path class="st0" d="M212.2,456c-0.5,3.1-2.2,5.9-2.9,8.9c-0.4,1.7-1,4.2,0,5.8c1.3,2.2,5.1,4.2,7,5.2c2.5,1.3,5,2.2,7.7,3.3
								c1.8,0.7,1.4,0.3,1.6,1.5c0.2,1.2-0.2,2.6,0.1,3.8c0.6,2.9,2.3,5.7,4.2,7.9c1.1,1.3,2.6,2.3,3.7,3.6c1.6,1.9,2.5,4.5,3.9,6.5
								c1.4,2.1,3.4,4.1,4.4,6.5c0.9,2.2,0.8,4.6,1.7,6.8c1.5,3.5,4.5,6.2,6.3,9.6c0.8,1.6,1.9,3.6,2,5.4c0.1,1.4-0.3,1.9,0.6,3.1
								c1.7,2.5,5.1,4,7.6,5.6c2.6,1.7,4.1,4.5,6.9,6c6.7,3.7,14.5,3.1,21.8,3.4c2.3,0.1,4,1.3,6.3,1.4c3.1,0.2,6.8-0.1,9.6-1.1
								c2.6-0.8,4.8-2.2,6.6-4.2c1.2-1.1,2.3-2.3,3.3-3.5c1-0.7,1.4-0.6,2.6-0.7c1.9-0.1,3.3-0.8,5.2-1.4c1.6-0.5,3.2-0.9,4.9-1
								c1.3-0.1,1.8-0.3,3.3-0.8c2.8-0.9,5.9-1.6,8.5-3.1c2.6-1.5,4.9-4.6,7.8-5.5c0.9-0.3,2.2,0.4,3-0.1c1.6-0.9,0.6-5.3,0.7-6.8
								c0-1-0.2-1.7,0.6-2.4c0.4-0.4,1.4-0.6,1.9-1c1.1-0.9,2.1-2.1,3.2-3c0.9-0.8,2.4-1.5,3.2-2.4c1-1.2,0.5-2.5,0.8-4
								c0.2-1,0.6-1.9,0.7-2.9c0.2-2.8-1.6-4.4-3.6-6c-5.7-4.8-11.9-8.8-19.4-9c-0.9,0-2,0.2-2.9-0.1c-0.5-0.1-2.2-1.6-2.3-1.7
								c-2.4-1.6-5.4-1.5-8.2-2.3c-4.1-1.1-4.8-5.5-6.8-8.8c-2.8-4.9-6.6-9.8-11.6-12.6c-1.9-1.1-3.9-1.7-6-2.3
								c-3.7-1.1-7-2.9-10.4-4.7c-2-1.1-4-2.4-6.2-3c-1.2-0.3-2.4-0.2-3.6-0.5c-1.2-0.3-2.2-1.6-3.1-2.3c-2.5-1.9-4.9-3.8-7.3-5.8
								c-1.2-1-2.4-2.1-3.9-2.5c-0.8-0.2-1.2,0-1.9-0.3c-0.9-0.4-1.2-0.9-2.3-1.3c-3.5-1.1-6.8-1.9-9.9-3.8
								c-2.5-1.5-4.9-3.1-7.4-4.6c-1.9-1.1-4.1-2.9-6.3-3.2c-2.1-0.3-2.1,1.4-3.8,1.9c-1.1,0.4-2.6-0.2-3.8,0
								c-0.7,1.5,0,3.3-0.7,4.9c-0.3,0.7-0.8,1-1.3,1.6c-1.3,1.5-2.5,3.1-3.9,4.5c-1.1,1-2.8,1.5-4.1,2.3
								C219.1,447.1,214.2,449.3,212.2,456z"/>
						</g>
						<g>
							<path class="st8" d="M296.8,550.7c-0.6,0-1.2,0-1.8-0.1c-1.1-0.1-2.2-0.4-3.1-0.7c-1-0.3-2-0.7-3.1-0.7
								c-1.3-0.1-2.6-0.1-3.8-0.1c-6.1-0.1-12.5-0.2-18.1-3.3c-1.6-0.8-2.7-2.1-3.9-3.3c-0.9-1-1.9-2-3.1-2.8
								c-0.6-0.4-1.3-0.8-2-1.3c-2.1-1.3-4.3-2.6-5.6-4.4c-0.7-1-0.7-1.5-0.7-2.3c0-0.3,0-0.6,0-0.9c-0.1-1.5-0.9-3.1-1.6-4.5
								c-0.1-0.3-0.3-0.5-0.4-0.8c-0.8-1.6-1.9-3.1-3-4.5c-1.2-1.6-2.5-3.2-3.3-5.1c-0.5-1.1-0.7-2.3-0.9-3.5
								c-0.2-1.1-0.4-2.2-0.8-3.3c-0.6-1.5-1.7-3-2.8-4.3c-0.5-0.7-1.1-1.4-1.6-2.1c-0.6-0.9-1.1-1.8-1.6-2.8
								c-0.7-1.3-1.4-2.7-2.3-3.8c-0.6-0.7-1.2-1.3-1.9-1.8c-0.6-0.6-1.3-1.1-1.8-1.8c-1.5-1.8-3.5-4.6-4.2-8
								c-0.1-0.7-0.1-1.4,0-2.1c0-0.6,0.1-1.2,0-1.7c0-0.2-0.1-0.3-0.1-0.5c-0.1-0.4-0.1-0.4-0.5-0.5c-0.2-0.1-0.5-0.2-0.9-0.3
								c-0.5-0.2-1.1-0.4-1.6-0.6c-2.1-0.8-4.1-1.6-6.1-2.7c-1.5-0.8-5.6-2.9-7-5.2c-1-1.6-0.5-4-0.1-5.7l0.1-0.3
								c0.3-1.5,0.9-2.9,1.4-4.2c0.6-1.5,1.2-3.1,1.5-4.7l0,0c1.8-6.3,6.2-8.6,7.7-9.4c0.1-0.1,0.2-0.1,0.3-0.2
								c0.5-0.3,1-0.5,1.6-0.8c0.9-0.4,1.8-0.8,2.5-1.5c0.9-0.9,1.8-1.9,2.7-3c0.4-0.5,0.8-1,1.2-1.5c0.2-0.2,0.3-0.3,0.5-0.5
								c0.3-0.3,0.6-0.6,0.8-1.1c0.3-0.7,0.3-1.5,0.3-2.3c0-0.8,0-1.7,0.4-2.5l0-0.1l0.1,0c0.5-0.1,1.2,0,1.7,0.1
								c0.7,0.1,1.5,0.2,2.1,0c0.6-0.2,1-0.6,1.4-1c0.6-0.6,1.1-1.1,2.5-1c1.7,0.2,3.5,1.4,5,2.3c0.5,0.3,1,0.6,1.4,0.9
								c1.7,1,3.3,2,5,3.1c0.8,0.5,1.6,1,2.4,1.5c2.5,1.6,5.1,2.3,7.9,3.2c0.7,0.2,1.3,0.4,2,0.6c0.7,0.2,1,0.5,1.4,0.7
								c0.3,0.2,0.5,0.4,0.9,0.5c0.4,0.2,0.7,0.2,1,0.2c0.2,0,0.5,0,0.8,0.1c1.4,0.3,2.5,1.2,3.5,2.1c0.2,0.1,0.3,0.3,0.5,0.4
								c1.8,1.5,3.7,3,5.5,4.4c0.6,0.5,1.2,0.9,1.8,1.4c0.3,0.2,0.6,0.5,0.9,0.8c0.7,0.6,1.4,1.3,2.1,1.5c0.5,0.1,1.1,0.2,1.6,0.2
								c0.6,0,1.2,0.1,1.9,0.3c1.7,0.5,3.2,1.3,4.8,2.2c0.5,0.3,1,0.6,1.5,0.8l0.2,0.1c3.4,1.8,6.6,3.5,10.2,4.6l0.4,0.1
								c2,0.6,3.9,1.1,5.7,2.2c4.4,2.5,8.2,6.6,11.6,12.7c0.5,0.9,0.9,1.8,1.3,2.7c1.2,2.7,2.3,5.2,5.3,6c0.9,0.2,1.8,0.4,2.6,0.5
								c1.9,0.3,3.9,0.7,5.6,1.8c0,0,0.1,0.1,0.3,0.2c0.4,0.4,1.6,1.3,2,1.4c0.6,0.2,1.2,0.1,1.9,0.1c0.3,0,0.7,0,1,0
								c7.9,0.3,14.3,4.7,19.6,9.1c2,1.6,3.9,3.2,3.6,6.2c0,0.6-0.2,1.2-0.4,1.8c-0.1,0.4-0.2,0.8-0.3,1.1c-0.1,0.5-0.1,1-0.1,1.5
								c0,0.9,0,1.8-0.7,2.6c-0.5,0.5-1.2,1-1.9,1.5c-0.5,0.3-0.9,0.6-1.3,0.9c-0.5,0.4-0.9,0.9-1.4,1.3c-0.6,0.6-1.2,1.2-1.8,1.7
								c-0.3,0.2-0.6,0.4-0.9,0.5c-0.4,0.2-0.7,0.3-0.9,0.5c-0.6,0.5-0.5,1-0.5,1.7c0,0.2,0,0.4,0,0.6c0,0.4,0,0.9,0.1,1.6
								c0.2,2,0.4,4.7-0.9,5.4c-0.5,0.3-1.1,0.2-1.7,0.1c-0.5-0.1-0.9-0.1-1.3,0c-1.7,0.5-3.2,1.8-4.6,3.1c-1,0.9-2,1.8-3.1,2.4
								c-1.9,1.1-4.1,1.8-6.2,2.4c-0.8,0.2-1.6,0.5-2.3,0.7c-1.4,0.5-2,0.6-3.3,0.8c-1.7,0.2-3.2,0.5-4.8,1c-0.5,0.2-1,0.3-1.4,0.5
								c-1.2,0.5-2.4,0.9-3.8,0.9c-0.2,0-0.3,0-0.4,0c-0.9,0-1.2,0-2,0.6c-1,1.2-2.1,2.4-3.3,3.5c-1.8,2-4,3.5-6.6,4.3
								C302.6,550.2,299.7,550.7,296.8,550.7z M212.4,456c-0.3,1.6-0.9,3.2-1.5,4.7c-0.5,1.4-1.1,2.7-1.4,4.2l-0.1,0.3
								c-0.4,1.6-0.9,3.9,0,5.4c1.4,2.3,5.4,4.3,6.9,5.1c2,1,4,1.8,6,2.6c0.5,0.2,1.1,0.4,1.6,0.6c0.4,0.2,0.7,0.3,0.9,0.3
								c0.6,0.2,0.7,0.3,0.8,0.8c0,0.1,0,0.3,0.1,0.4c0.1,0.6,0.1,1.2,0,1.8c0,0.7-0.1,1.3,0,2c0.7,3.3,2.6,6,4.2,7.8
								c0.5,0.6,1.2,1.2,1.8,1.7c0.7,0.6,1.3,1.2,1.9,1.9c1,1.1,1.7,2.5,2.4,3.8c0.5,0.9,1,1.9,1.6,2.7c0.5,0.7,1,1.4,1.5,2.1
								c1.1,1.4,2.2,2.8,2.9,4.4c0.5,1.1,0.7,2.2,0.9,3.4c0.2,1.1,0.4,2.3,0.9,3.4c0.8,1.9,2,3.5,3.2,5.1c1.1,1.4,2.2,2.9,3,4.6
								c0.1,0.2,0.3,0.5,0.4,0.8c0.7,1.5,1.6,3.1,1.7,4.7c0,0.4,0,0.7,0,1c0,0.8,0,1.2,0.6,2.1c1.3,1.8,3.4,3.1,5.5,4.3
								c0.7,0.4,1.4,0.9,2.1,1.3c1.2,0.8,2.2,1.8,3.1,2.8c1.1,1.2,2.3,2.4,3.8,3.2c5.5,3,11.8,3.1,17.9,3.2c1.3,0,2.6,0,3.8,0.1
								c1.2,0,2.2,0.4,3.2,0.7c1,0.3,1.9,0.6,3,0.7c3.4,0.2,7-0.2,9.5-1.1c2.6-0.8,4.8-2.2,6.5-4.2c1.2-1.1,2.3-2.3,3.3-3.5l0,0
								c0.9-0.7,1.4-0.7,2.3-0.7c0.1,0,0.3,0,0.4,0c1.4-0.1,2.5-0.5,3.7-0.9c0.5-0.2,0.9-0.4,1.5-0.5c1.6-0.5,3.2-0.9,4.9-1
								c1.3-0.1,1.8-0.3,3.2-0.7c0.8-0.3,1.6-0.5,2.3-0.7c2.1-0.6,4.3-1.3,6.1-2.4c1-0.6,2-1.5,3-2.4c1.5-1.3,3-2.6,4.8-3.2
								c0.4-0.1,1-0.1,1.5,0c0.6,0.1,1.1,0.1,1.5-0.1c1.1-0.6,0.8-3.3,0.7-5c-0.1-0.7-0.1-1.2-0.1-1.6c0-0.2,0-0.4,0-0.6
								c0-0.8,0-1.3,0.7-2c0.3-0.2,0.7-0.4,1-0.6c0.3-0.1,0.6-0.3,0.9-0.5c0.6-0.5,1.2-1.1,1.8-1.6c0.4-0.5,0.9-0.9,1.4-1.4
								c0.4-0.3,0.9-0.7,1.3-1c0.7-0.4,1.4-0.9,1.8-1.4c0.6-0.7,0.6-1.5,0.6-2.4c0-0.5,0-1,0.1-1.5c0.1-0.4,0.2-0.8,0.3-1.2
								c0.2-0.6,0.3-1.2,0.4-1.7c0.2-2.8-1.6-4.3-3.5-5.8c-5.2-4.3-11.5-8.7-19.3-9c-0.3,0-0.6,0-1,0c-0.7,0-1.4,0.1-2-0.1
								c-0.4-0.1-1.3-0.8-2.1-1.5c-0.1-0.1-0.2-0.2-0.2-0.2c-1.6-1.1-3.6-1.4-5.4-1.7c-0.9-0.1-1.8-0.3-2.7-0.5
								c-3.2-0.8-4.4-3.6-5.6-6.2c-0.4-0.9-0.8-1.8-1.3-2.7c-3.4-6-7.2-10.1-11.5-12.5c-1.8-1-3.6-1.6-5.6-2.1l-0.4-0.1
								c-3.7-1.1-6.9-2.8-10.3-4.6l-0.2-0.1c-0.5-0.3-1-0.6-1.5-0.8c-1.5-0.9-3-1.7-4.7-2.2c-0.6-0.2-1.2-0.2-1.8-0.3
								c-0.6,0-1.1-0.1-1.7-0.2c-0.9-0.2-1.6-0.9-2.3-1.6c-0.3-0.3-0.6-0.6-0.9-0.8c-0.6-0.5-1.2-0.9-1.8-1.4
								c-1.8-1.4-3.7-2.9-5.5-4.4c-0.2-0.1-0.3-0.3-0.5-0.4c-1-0.9-2.1-1.8-3.4-2c-0.3-0.1-0.5-0.1-0.7-0.1c-0.4,0-0.7,0-1.2-0.3
								c-0.4-0.2-0.7-0.4-0.9-0.6c-0.4-0.3-0.7-0.5-1.3-0.7c-0.7-0.2-1.3-0.4-2-0.6c-2.8-0.8-5.4-1.6-8-3.2c-0.8-0.5-1.6-1-2.4-1.5
								c-1.6-1-3.3-2.1-4.9-3.1c-0.5-0.3-0.9-0.6-1.4-0.9c-1.5-1-3.2-2.1-4.8-2.3c-1.2-0.2-1.6,0.3-2.1,0.8
								c-0.4,0.4-0.8,0.8-1.5,1.1c-0.7,0.2-1.5,0.1-2.2,0c-0.5-0.1-1.1-0.1-1.5-0.1c-0.3,0.7-0.3,1.5-0.3,2.3c0,0.8,0,1.7-0.3,2.5
								c-0.2,0.6-0.6,0.9-0.9,1.2c-0.1,0.1-0.3,0.3-0.4,0.5c-0.4,0.5-0.8,1-1.2,1.5c-0.9,1-1.7,2.1-2.7,3c-0.7,0.7-1.7,1.1-2.6,1.5
								c-0.5,0.2-1.1,0.5-1.5,0.8c-0.1,0-0.2,0.1-0.3,0.2C218.4,447.6,214.2,449.9,212.4,456z"/>
						</g>
					</g>
					<g>
						<g>
							<path class="st0" d="M209.7,383.1c4.4-0.3,8.3,2.4,11.7,5c1.3,1,3.5,2.5,4.3,4.1c0.4,0.8,0.1,1.4,0.4,2.2
								c0.3,0.8,1.3,1.7,1.8,2.5c0.6,0.5,1,1.1,1.2,1.9c0.1,1,0.1,2.1,0.2,3.1c0.5,2.6,2.8,4.9,4.8,6.4c0.9,0.7,2.2,1.4,3,2.2
								c0.6,0.6,0.9,1.5,1.5,2.1c1,1,1.9,0.7,3.2,0.9c2.9,0.4,5.7,0.9,8.7,1.2c1.1,0.1,1.1,0.1,2,0.6c1.9,1,4.1,1.3,5.8,2.5
								c1.2,0.9,2.3,1.8,3.5,2.7c1.1,0.7,1.7,1.8,3.1,2.1c-0.3-0.4-0.8-0.7-1.1-1.2c-0.3-0.6-0.1-1.6-0.2-2.2c-0.2-1-1-2.3-1.6-3
								c-0.9-1-2.3-1.4-3.5-2.1c-1.1-0.7-2.1-1.4-3.1-2.2c-1.3-1.1-2.9-1.6-4.2-2.7c-1.3-1.1-2.2-1.9-3.8-2.6
								c-0.9-0.4-1.8-0.8-2.7-1.3c-1.2-0.7-3.6-1.4-4.5-2.3c-0.9-0.8-1-3-1.4-4.1c-0.5-1.3-1.1-2.7-1.9-3.9
								c-1.9-2.7-3.4-4.8-6.3-6.4c-3.4-1.9-6.9-4-10.2-6.2c-1.5-1-1.9-2.3-2.9-3.8c-1.1-1.7-2.6-2.6-4.7-2.1
								C212.4,377.4,212.8,379.3,209.7,383.1z"/>
						</g>
						<g>
							<path class="st8" d="M265.3,422.7l-0.5-0.1c-0.9-0.2-1.6-0.8-2.2-1.3c-0.3-0.3-0.6-0.6-1-0.8c-0.7-0.5-1.3-1-2-1.5
								c-0.5-0.4-1-0.8-1.6-1.2c-1-0.7-2.2-1.1-3.4-1.5c-0.8-0.3-1.7-0.6-2.5-1c-0.9-0.4-0.9-0.5-2-0.5c-2.3-0.2-4.6-0.5-6.8-0.9
								c-0.6-0.1-1.3-0.2-1.9-0.3c-0.3,0-0.6-0.1-0.9-0.1c-0.8,0-1.6-0.1-2.4-0.8c-0.3-0.3-0.6-0.7-0.8-1.1c-0.2-0.4-0.4-0.7-0.7-1
								c-0.5-0.4-1.1-0.9-1.8-1.3c-0.4-0.3-0.8-0.6-1.2-0.8c-1.6-1.2-4.3-3.7-4.9-6.6c-0.1-1.1-0.1-2.1-0.2-3.1
								c-0.2-0.7-0.6-1.3-1.1-1.7l0,0c-0.2-0.3-0.4-0.6-0.7-0.9c-0.5-0.6-0.9-1.1-1.1-1.6c-0.1-0.4-0.2-0.7-0.2-1
								c0-0.4-0.1-0.7-0.2-1.1c-0.7-1.4-2.3-2.6-3.7-3.6c-0.2-0.2-0.4-0.3-0.6-0.4c-3.5-2.7-7.3-5.3-11.6-5l-0.5,0l0.3-0.4
								c2.4-2.8,2.7-4.6,2.9-5.8c0.1-0.4,0.1-0.7,0.3-1l0-0.1l0.1,0c2-0.5,3.6,0.3,4.9,2.2c0.3,0.4,0.5,0.8,0.7,1.2
								c0.5,1,1,1.8,2.1,2.5c3.1,2,6.5,4.1,10.2,6.2c3,1.7,4.5,3.7,6.4,6.4c0.8,1.2,1.4,2.6,1.9,4c0.2,0.4,0.3,0.9,0.4,1.5
								c0.2,1,0.4,2.1,1,2.6c0.6,0.5,1.7,1,2.7,1.5c0.7,0.3,1.3,0.5,1.7,0.8c1,0.5,1.9,1,2.7,1.3c1.6,0.7,2.5,1.4,3.9,2.6
								c0.6,0.6,1.4,1,2.1,1.4c0.7,0.4,1.4,0.8,2.1,1.3c0.9,0.7,1.9,1.5,3.1,2.2c0.4,0.2,0.8,0.4,1.2,0.6c0.8,0.4,1.7,0.8,2.3,1.5
								c0.7,0.7,1.5,2.1,1.7,3.1c0.1,0.3,0.1,0.7,0.1,1c0,0.4,0,0.9,0.1,1.2c0.1,0.2,0.3,0.4,0.5,0.6c0.2,0.2,0.4,0.4,0.5,0.6
								L265.3,422.7z M228,396.7c0.6,0.5,1,1.2,1.2,1.9c0.1,1.1,0.2,2.1,0.2,3.1c0.5,2.7,3.2,5.1,4.7,6.3c0.4,0.3,0.8,0.5,1.2,0.8
								c0.6,0.4,1.3,0.9,1.8,1.3c0.3,0.3,0.6,0.7,0.8,1.1c0.2,0.4,0.4,0.7,0.7,1c0.7,0.7,1.3,0.7,2.1,0.7c0.3,0,0.6,0,1,0.1
								c0.6,0.1,1.3,0.2,1.9,0.3c2.2,0.3,4.5,0.7,6.8,0.9c1.1,0.1,1.2,0.1,2.1,0.6c0.8,0.4,1.6,0.7,2.4,1c1.2,0.4,2.4,0.9,3.5,1.6
								c0.6,0.4,1.1,0.8,1.6,1.2c0.6,0.5,1.2,1,1.9,1.4c0.4,0.3,0.7,0.6,1,0.8c0.4,0.4,0.8,0.7,1.3,1c-0.2-0.2-0.4-0.4-0.5-0.7
								c-0.2-0.4-0.2-0.9-0.2-1.4c0-0.3,0-0.6,0-0.9c-0.2-0.9-0.9-2.2-1.6-2.9c-0.6-0.6-1.4-1-2.2-1.4c-0.4-0.2-0.8-0.4-1.2-0.6
								c-1.2-0.7-2.2-1.5-3.1-2.2c-0.6-0.5-1.3-0.9-2-1.3c-0.7-0.4-1.5-0.8-2.2-1.4c-1.3-1.1-2.2-1.9-3.8-2.5
								c-0.9-0.4-1.8-0.8-2.8-1.4c-0.5-0.3-1.1-0.5-1.7-0.8c-1.1-0.5-2.2-1-2.8-1.6c-0.6-0.6-0.8-1.7-1.1-2.8
								c-0.1-0.5-0.2-1.1-0.4-1.4c-0.5-1.4-1.1-2.7-1.9-3.9c-1.8-2.7-3.3-4.7-6.2-6.3c-3.7-2-7.1-4.1-10.2-6.2
								c-1.2-0.8-1.7-1.7-2.2-2.7c-0.2-0.4-0.4-0.8-0.7-1.2c-1.2-1.8-2.6-2.5-4.4-2.1c-0.1,0.2-0.1,0.5-0.2,0.8
								c-0.2,1.2-0.5,2.9-2.7,5.6c4.2-0.1,7.9,2.4,11.4,5.1c0.2,0.1,0.4,0.3,0.6,0.4c1.4,1,3.1,2.3,3.8,3.7c0.2,0.4,0.2,0.9,0.3,1.2
								c0,0.3,0,0.6,0.2,0.9c0.2,0.5,0.6,1,1,1.5C227.6,396.2,227.9,396.5,228,396.7z"/>
						</g>
					</g>
					<g>
						<g>
							<path class="st0" d="M214.7,427.7c-0.8-2.8-2.6-5.1-4.1-7.7c-1.1-1.9-2.9-4.2-3-6.4c-0.1-3,2.7-4.5,3.2-7
								c0.5-2.4,1.8-6.6-0.5-8.3c-2.1-1.6-5.5-2-8-2.7c-1.8-0.5-1.9-0.9-3.4-1.8c-1.9-1.3-2.9-2.2-3.2-4.6c-0.2-2,0.1-4.1,0-6.1
								c0-2.5-0.4-4-2.8-5.1c-1.9-0.8-3.8-1-4.7-3.1c-0.9-1.8-0.9-4.8-1.1-6.8c-0.2-2.6-0.1-5.1-0.1-7.7c0-2.1,0-4.2,0-6.3
								c0-0.6-0.2-2.4,0.1-3.1c0.5-1.1,1.9-1.5,2.9-1.9c1.5-0.5,3-0.9,4.6-1.2c1.4-0.1,2.8-0.2,4.2-0.1c0.7-0.1,1.2-0.5,1.9-0.7
								c1.8-0.4,4.5,0.1,6.3,0c2.6,0,5.7,1.8,7.7,3.3c1.6,1.2,2,2.4,2.3,4.3c0.6,3.5,0.2,7.4,0.1,10.9c0,1.4-0.1,2.4,0.6,3.6
								c0.9,1.8,2.9,3.3,5,2.2c0.6-3.8,0.1-8.1,0.1-11.9c0-1-0.5-2.9,0.3-3.6c1-0.9,5.2-0.1,6.6-0.1c2.1,0,7.4,1.1,8.7-1.1
								c0.4-0.8,0.2-1.9,0.5-2.8c0.4-1.5,0.9-3,1.3-4.6c0.4-1.5,0.7-4.4,1.9-5.4c0.9-0.8,1.3-0.6,2.5-0.6c1.8,0,3.3-0.8,5-1.5
								c5.2-2.3,10.1-5.3,15.5-7.1c1.8-0.6,3.4-0.6,4.9-1.7c1.3-0.9,1.9-1.6,3.5-1.6c1.7,0,3.5,0,5.3,0c2.3,0.1,4.4-0.6,6.5-1.5
								c1-0.4,2.4-1.8,3.5-1.7c0.4-1.5,0.2-3.5,0-5c-0.2-1.2-1.1-3.8-0.4-4.9c1-1.5,4-0.7,5.6-0.7c2.7,0,5.4,0.3,8.1,0.6
								c1.1,0.2,4.2,0,5.2,0.7c1,0.7,0.6,2.9,0.5,3.9c0,2.1-0.4,4.7,0.1,6.7c3.4,1,5-4.9,5-7.5c0-2-1-2.3-2-3.7
								c-0.6-0.8-0.8-0.7-1.2-2.2c-0.7-2.4-1.3-5.4-1.2-7.9c0-1.5,0.1-2.6-0.7-3.9c-1.2-2.2-3.7-3.4-5-5.6c-0.7-1.2-0.6-1.6-0.7-2.9
								c-0.1-4.1-0.1-8.1,1.1-12.1c0.6-1.9,0.8-2.6,0.8-4.5c0-1.8-0.6-2.8-1.5-4.4c-0.5-1.1-0.9-2-1.7-2.9c-1.2-1.1-2.1-0.3-3.4-0.8
								c-1.6-0.7-2.9-3.5-3.6-5.1c-2.2,0.6-4.2,4.6-5.5,6.3c-0.7,0.9-1,2.1-1.7,2.9c-1.1,1.2-3,1.5-4.4,2.2
								c-1.8,0.9-1.5,1.1-1.5,3.1c0.1,3.1-0.3,8.5-3.8,9.5c-0.9,0.3-2.4-0.1-3.4-0.1c-2.1,0.1-2.9-0.4-3.7-2.7
								c-0.2-0.7-0.1-1.7-0.4-2.3c-0.3-0.7-0.5-0.5-0.9-1.1c-1-1.5-1.3-3.1-2.4-4.6c-1-1.5-1.8-2.3-2.4-4c-0.7-1.9-1.8-3.8-2.4-5.7
								c-0.7-2-0.3-5.6,0.5-7.5c0.9-2.1,2-3.8,4-5c1.2-0.7,2.2-2,3.6-2.4c1.4-0.4,3.7,0,5.1,0c1.5,0,2.9,0,4.4,0c3.3,0,6.6,0,9.8,0
								c0.9,0,2.2,0.2,3,0c2.1-0.6,2.9-3.9,3.9-5.6c1-1.9-0.1-0.9,1.4-1.2c1-0.2,3.7,1.1,4.7,1.6c2.3,1.2,2.7,3.3,3.1,5.6
								c0.4,2.1,1.2,4,1.1,6.1c0,1.7-0.4,4,0.3,5.6c0.3,0.6,0.7,1.6,1.6,1.2c1-0.4,0.5-2.2,0.7-2.9c0.6-2,2.2-1.2,3.7-1.9
								c1.5-0.7,2.3-2.4,2.5-4c0.3-1.8,0.2-4.5-0.3-6.1c-0.8-2.3-1.1-4.7-1.8-7c-1.1-4-0.4-8.6-0.5-12.7c-0.1-2.8-0.2-3.3,2.7-4.8
								c1.6-0.8,3.1-2.4,4.7-3c3.3-1.3,9-0.2,11.5,2.1c2.5,2.3,4.9,6.3,5.6,9.7c1.1,5.5-1.1,11.2-2.9,16.3c-0.5,1.5-0.7,2.9-1.1,4.5
								c-0.7,2.4-2,4.6-2.6,7.1c-0.6,2.2-0.2,4.5-0.2,6.8c0,2-0.4,4,0.2,6c0.9,3,3.3,5.5,4.5,8.3c0.5,1.3,0.6,2.1,1.7,3.1
								c1.2,1.1,3.7,2,5.4,2c1.9-3.6,0.8-9.9,0.8-13.7c0-2,0-4,0-5.9c0-2,0.3-4.2,1.9-5.5c2.2-1.7,6.1-2.8,8.8-3.2
								c1.8-0.2,1.8-0.4,4.1-1.2c1.5-0.4,3-0.8,4.5-1.2c1.6-0.1,3.2-0.6,4.6-1.3c0.5-0.7-0.1-3.4,0-4.1c0.6-2.4,2.7-4.6,3.8-6.9
								c0.5-1.1,2.5-4,1.8-5.5c-0.4-0.9-1.8-0.7-2.5-1.3c-1-0.8-2.5-3.9-3-4.8c-1.8-3-2.6-6.3-4.2-9.4c-1.4-2.6-1.7-5.6-3-8.2
								c-0.7-1.4-1.7-2.5-2.4-3.9c-0.8-1.6-0.7-3-2.8-3.3c-4.5-0.5-9.5,0-14.1,0c-1.6,0-3.3,0.2-4.9-0.1c-2.7-0.5-5.1-1.6-7.6-2.7
								c-4.1-1.8-9.5-2.8-13.6-0.7c-1.9,1-3.9,2.6-5.5,4.1c-0.7,0.7-0.9,1.2-2,1.3c-1.4,0.1-2.7-0.8-4-1.3c-1.8-0.8-3.7-1.2-5.2-2.5
								c-1.9,0.5-3.5,3.2-4.6,4.7c-0.9,1.2-1.1,1.4-2.6,0.6c-1.4-0.8-2.9-4.2-4.8-4.1c-1.6,0.1-2.2,2.3-3.5,2.7
								c-0.4,0.1-2.2-0.4-2.7-0.5c-1.1-0.5-2.3-2-2.6-3.2c-0.2-0.7,0-1.8-0.1-2.5c-0.2-1.1-0.5-2.1-0.5-3.2
								c-0.1-1.3-0.3-2.4,0.6-3.5c2.4-3.1,5.8-5.4,7.9-8.8c1.1-1.6,1-3.1,1-4.9c0-1.1,0.2-3.6-0.6-4.5c-1.8-2-7.4,1.9-8.9,2.8
								c-1.8,1-2.5,1-4.4,0.1c-1.4-0.7-2.5-1.9-3.9-2.6c-1.4-0.7-3-0.5-4.7-0.4c-4.4,0-8.1,1.9-12.5,1c-1.2,1.7-1.6,3.7-2.2,5.8
								c-1,3.6-1.8,7.2-3,10.7c-0.8,2.5-2.3,3.2-3.9,5.3c-1.2,1.6-15.4,18.4-15.9,19.5c-1.6,3.3-5.1,4.3-7.2,7
								c0.1-0.3,0-0.4-0.3-0.5c-1.3,2-2.3,4-4,5.7c-1.6,1.6-3.4,2.9-5.2,4.3c-3.5,2.6-7.1,5.7-9.9,9.1c-3.4,4-5.7,9-7.7,13.8
								c-1.2,2.8-2.9,5.4-4.2,8.1c-3.2,6.3-7.3,12-10.2,18.4c-1.4,3.1-2.1,6.4-3.5,9.5c-1.8,4.1-5.5,6.6-5.5,11.3
								c0,3.6,1.8,6.5,2.5,9.8c0.6,2.8,0.2,6.2,0.1,9.1c0,4.7,0.6,9.2,0.6,13.8c0,3.7,1.1,6.3,1.8,9.8c0.2,0.8,0.1,1.5,0.5,2.2
								c0.3,0.5,0.9,0.8,1.2,1.3c1.7,2.6,0.7,5.6,3.5,7.8c1.2,1,2.5,1.3,3.3,2.6c0.9,1.6,1.6,3.6,2.3,5.3c1.9,4.1,3.8,7.4,3.8,12
								c0,3,1,4.4,2.5,7c1.4,2.4,2,4,1.9,6.7c-0.1,2,0.1,3.8,1.3,5.6c1.4,2.1,3.4,2.8,4.4,5.3c0.7,1.7,0.9,3.5,1.3,5.3
								c0.5,2.2,1.7,3.6,2.6,5.6c1,2.2,1.1,4.6,2.3,6.8C204.7,428.2,213.7,436,214.7,427.7z"/>
						</g>
						<g>
							<path class="st8" d="M211.7,431.6c-3.2,0-7.6-4.2-8.4-5.8c-0.6-1.2-1-2.5-1.3-3.7c-0.3-1-0.5-2.1-1-3.1
								c-0.3-0.6-0.7-1.2-1-1.8c-0.7-1.2-1.3-2.3-1.7-3.8c-0.1-0.4-0.2-0.8-0.3-1.2c-0.3-1.4-0.5-2.7-1.1-4.1
								c-0.5-1.4-1.4-2.2-2.4-3.1c-0.7-0.6-1.4-1.3-2-2.2c-1.3-2-1.4-3.9-1.4-5.7c0.1-2.7-0.5-4.3-1.8-6.6c-0.1-0.3-0.3-0.5-0.4-0.7
								c-1.3-2.2-2.1-3.6-2.1-6.4c0-3.8-1.4-6.7-2.9-10c-0.3-0.6-0.6-1.3-0.9-1.9c-0.3-0.6-0.5-1.3-0.8-1.9
								c-0.5-1.2-0.9-2.4-1.5-3.4c-0.5-0.8-1.2-1.3-2-1.7c-0.4-0.3-0.9-0.5-1.3-0.9c-1.7-1.3-2-3-2.4-4.6c-0.2-1.1-0.5-2.2-1.1-3.2
								c-0.1-0.2-0.3-0.4-0.5-0.6c-0.2-0.2-0.5-0.4-0.7-0.7c-0.3-0.5-0.3-1-0.4-1.5c0-0.2-0.1-0.5-0.1-0.7c-0.2-1.1-0.5-2.1-0.7-3
								c-0.6-2.2-1.1-4.3-1.1-6.9c0-2.3-0.1-4.6-0.3-6.9c-0.1-2.3-0.3-4.6-0.3-6.9c0-0.8,0-1.6,0.1-2.5c0.1-2.2,0.2-4.5-0.2-6.5
								c-0.3-1.3-0.7-2.5-1.1-3.7c-0.7-1.9-1.4-3.9-1.4-6.2c0-3.1,1.5-5.2,3.1-7.4c0.9-1.2,1.8-2.5,2.4-4c0.6-1.4,1.1-3,1.6-4.5
								c0.5-1.7,1.1-3.4,1.8-5c1.6-3.5,3.7-6.9,5.6-10.2c1.6-2.7,3.2-5.4,4.6-8.2c0.5-1,1.1-2.1,1.7-3.1c0.9-1.6,1.8-3.3,2.6-5
								c1.9-4.6,4.3-9.8,7.7-13.8c2.6-3.1,6-6.1,10-9.1l0.2-0.2c1.8-1.3,3.4-2.5,4.9-4.1c1.2-1.2,2.1-2.6,3-4.1
								c0.3-0.5,0.6-1.1,1-1.6l0.1-0.1l0.1,0c0.2,0,0.3,0.1,0.4,0.2c0.9-1,1.9-1.7,2.9-2.4c1.5-1.1,3.1-2.3,4-4.2
								c0.3-0.7,5.6-7.1,11.5-14.2c2.2-2.7,4-4.8,4.4-5.3c0.5-0.7,1.1-1.3,1.6-1.8c1-1,1.8-1.9,2.3-3.5c0.8-2.5,1.5-5.1,2.2-7.6
								c0.3-1,0.5-2.1,0.8-3.1c0.1-0.3,0.2-0.7,0.3-1c0.4-1.7,0.9-3.4,1.9-4.9l0.1-0.1l0.1,0c2.6,0.5,4.9,0.1,7.3-0.4
								c1.6-0.3,3.3-0.6,5.1-0.6c0.3,0,0.7,0,1,0c1.3-0.1,2.6-0.1,3.7,0.5c0.7,0.3,1.3,0.8,1.9,1.3c0.6,0.5,1.3,1,2,1.3
								c1.9,0.9,2.6,0.9,4.3-0.1c0.2-0.1,0.4-0.3,0.7-0.4c2.2-1.3,6.8-4.2,8.5-2.3c0.7,0.8,0.7,2.8,0.7,4.1c0,0.2,0,0.4,0,0.6l0,0.4
								c0,1.7,0,3.1-1,4.7c-1.2,1.8-2.8,3.4-4.3,4.8c-1.3,1.2-2.6,2.5-3.6,3.9c-0.7,0.9-0.6,1.8-0.5,2.8c0,0.2,0,0.3,0,0.5
								c0,0.7,0.2,1.3,0.3,2c0.1,0.4,0.2,0.8,0.2,1.2c0.1,0.4,0,0.8,0,1.2c0,0.5,0,1,0.1,1.3c0.3,1.2,1.5,2.6,2.5,3
								c0.4,0.2,2.2,0.6,2.5,0.5c0.5-0.1,0.9-0.6,1.4-1.2c0.6-0.7,1.2-1.4,2.1-1.5c0,0,0,0,0.1,0c1.2,0,2.2,1.2,3.2,2.4
								c0.6,0.7,1.2,1.4,1.7,1.7c1.4,0.7,1.5,0.6,2.4-0.5c0.2-0.3,0.4-0.6,0.7-0.9c1.1-1.5,2.5-3.4,4.1-3.8l0.1,0l0.1,0.1
								c1.1,0.9,2.4,1.4,3.7,1.9c0.5,0.2,1,0.4,1.5,0.6c0.3,0.1,0.6,0.3,0.9,0.4c1,0.5,1.9,1,2.9,0.9c0.8-0.1,1-0.3,1.5-0.8
								c0.1-0.1,0.3-0.3,0.5-0.5c1.5-1.4,3.5-3.1,5.5-4.1c5-2.6,11.3-0.4,13.7,0.7l0.7,0.3c2.2,0.9,4.5,1.9,6.8,2.3
								c1.1,0.2,2.3,0.1,3.5,0.1c0.5,0,1,0,1.4,0c1.5,0,3-0.1,4.5-0.1c3.2-0.1,6.5-0.3,9.6,0.1c1.7,0.2,2.1,1.2,2.5,2.3
								c0.1,0.4,0.3,0.7,0.5,1.1c0.3,0.7,0.8,1.3,1.2,1.9c0.4,0.6,0.9,1.3,1.3,2c0.7,1.3,1.1,2.7,1.5,4c0.4,1.4,0.8,2.8,1.5,4.2
								c0.7,1.4,1.3,2.8,1.8,4.2c0.7,1.7,1.4,3.5,2.3,5.1c0.1,0.2,0.3,0.5,0.5,0.9c0.7,1.3,1.7,3.2,2.4,3.8c0.2,0.2,0.6,0.3,0.9,0.3
								c0.6,0.1,1.3,0.3,1.6,1c0.6,1.3-0.6,3.5-1.4,5c-0.1,0.3-0.3,0.5-0.4,0.7c-0.4,0.9-1,1.8-1.6,2.6c-0.9,1.4-1.9,2.8-2.2,4.2
								c-0.1,0.2,0,0.8,0.1,1.4c0.1,1.1,0.2,2.3-0.1,2.7l0,0l0,0c-1.4,0.7-3,1.2-4.7,1.3l-4.4,1.2c-0.7,0.2-1.2,0.4-1.6,0.6
								c-0.9,0.3-1.3,0.5-2.5,0.6c-2.7,0.3-6.6,1.4-8.7,3.1c-1.7,1.3-1.9,3.6-1.9,5.4c0,1.3,0,2.6,0,3.9c0,0.7,0,1.4,0,2.1
								c0,0.9,0.1,2,0.1,3.2c0.2,3.5,0.5,7.9-1,10.6l-0.1,0.1l-0.1,0c-1.8,0-4.3-0.9-5.5-2c-0.8-0.8-1.1-1.5-1.4-2.3
								c-0.1-0.3-0.2-0.5-0.3-0.8c-0.5-1.3-1.3-2.5-2.1-3.7c-1-1.5-2-3-2.5-4.7c-0.4-1.4-0.3-2.9-0.3-4.3c0-0.6,0.1-1.1,0.1-1.7
								c0-0.6,0-1.2-0.1-1.9c-0.1-1.6-0.1-3.3,0.3-4.9c0.3-1.3,0.9-2.5,1.4-3.7c0.5-1.1,1-2.2,1.3-3.4c0.2-0.6,0.3-1.2,0.4-1.8
								c0.2-0.9,0.3-1.8,0.7-2.7l0.2-0.7c1.7-4.8,3.7-10.3,2.7-15.5c-0.6-3.2-2.9-7.1-5.5-9.6c-2.4-2.3-8.1-3.3-11.3-2.1
								c-0.9,0.3-1.7,1-2.6,1.6c-0.7,0.5-1.4,1-2.1,1.4c-2.6,1.3-2.6,1.8-2.6,4.2l0,0.4c0,1.2,0,2.5-0.1,3.8c-0.1,3-0.2,6.1,0.5,8.9
								c0.2,0.9,0.5,1.8,0.7,2.7c0.3,1.4,0.6,2.9,1.1,4.3c0.6,1.7,0.6,4.4,0.3,6.2c-0.2,1.5-1,3.4-2.6,4.2c-0.6,0.3-1.1,0.3-1.6,0.4
								c-0.9,0.1-1.6,0.2-2,1.4c-0.1,0.2-0.1,0.5-0.1,0.9c0,0.8,0,1.8-0.8,2.1c-1,0.4-1.5-0.6-1.8-1.2L306,265
								c-0.6-1.3-0.5-3-0.4-4.5c0-0.4,0.1-0.8,0.1-1.2c0-1.5-0.3-2.8-0.7-4.2c-0.2-0.6-0.3-1.2-0.4-1.9l0-0.2
								c-0.4-2.2-0.8-4.2-3-5.3c-1.4-0.7-3.8-1.7-4.5-1.5c-0.4,0.1-0.6,0.1-0.8,0c-0.1,0.2-0.2,0.5-0.5,1.1
								c-0.2,0.4-0.4,0.8-0.6,1.3c-0.7,1.7-1.7,3.9-3.4,4.4c-0.6,0.2-1.4,0.1-2.1,0.1c-0.3,0-0.6,0-0.9,0h0c-2.2,0-4.4,0-6.6,0
								l-7.7,0c-0.5,0-1,0-1.6-0.1c-1.2-0.1-2.5-0.2-3.4,0c-0.8,0.2-1.5,0.8-2.2,1.4c-0.4,0.4-0.9,0.7-1.3,1c-1.7,1-2.9,2.5-3.9,4.9
								c-0.8,1.9-1.2,5.4-0.5,7.4c0.4,1,0.9,2.1,1.3,3.2c0.4,0.8,0.8,1.7,1.1,2.5c0.5,1.3,1.1,2.2,1.9,3.2c0.2,0.2,0.3,0.5,0.5,0.7
								c0.6,0.8,1,1.7,1.3,2.5c0.3,0.7,0.6,1.4,1.1,2.1c0.1,0.2,0.3,0.3,0.4,0.4c0.2,0.1,0.3,0.3,0.5,0.7c0.1,0.3,0.2,0.8,0.2,1.2
								c0,0.4,0.1,0.8,0.2,1.1c0.8,2.3,1.5,2.6,3.5,2.5c0.4,0,0.8,0,1.3,0.1c0.8,0.1,1.6,0.2,2.1,0c3.3-1,3.7-6.3,3.6-9.3
								c0-0.2,0-0.4,0-0.6c-0.1-1.5,0-1.9,1.6-2.6c0.5-0.2,1-0.4,1.5-0.6c1.1-0.4,2.2-0.8,2.9-1.6c0.4-0.4,0.6-0.9,0.9-1.4
								c0.2-0.5,0.5-1,0.8-1.5c0.3-0.4,0.7-1,1.1-1.7c1.2-1.9,2.8-4.2,4.5-4.7l0.2,0l0.1,0.2c1.2,2.8,2.4,4.5,3.5,5
								c0.5,0.2,0.9,0.2,1.4,0.2c0.6,0,1.3,0,2.1,0.7c0.7,0.7,1,1.4,1.4,2.2c0.1,0.2,0.2,0.5,0.4,0.7c0.1,0.2,0.2,0.4,0.3,0.6
								c0.7,1.2,1.2,2.2,1.2,3.8c0,1.9-0.2,2.7-0.8,4.6c-1.2,3.9-1.2,7.7-1.1,11.8l0,0.4c0,1.1,0,1.6,0.6,2.6
								c0.6,1.1,1.5,1.9,2.4,2.7c0.9,0.9,1.9,1.7,2.5,2.9c0.7,1.3,0.7,2.4,0.7,3.8l0,0.2c0,2.3,0.4,5.2,1.2,7.8
								c0.3,1.1,0.5,1.3,0.8,1.7c0.1,0.1,0.2,0.3,0.4,0.5c0.3,0.4,0.5,0.6,0.8,0.9c0.7,0.8,1.3,1.4,1.3,2.9c0,1.8-0.8,5.7-2.8,7.2
								c-0.7,0.6-1.6,0.7-2.5,0.5l-0.1,0l0-0.1c-0.4-1.5-0.3-3.2-0.2-4.9c0-0.7,0.1-1.3,0.1-1.9c0-0.2,0-0.5,0-0.8
								c0.1-1,0.2-2.4-0.5-2.9c-0.6-0.4-2.4-0.5-3.7-0.6c-0.6,0-1.1,0-1.4-0.1c-3.1-0.4-5.5-0.7-8.1-0.6c-0.4,0-0.9,0-1.4-0.1
								c-1.5-0.1-3.3-0.3-4,0.7c-0.5,0.8-0.1,2.5,0.2,3.7c0.1,0.4,0.2,0.8,0.2,1.1c0.2,1.7,0.4,3.6,0,5.1l0,0.2l-0.2,0
								c-0.7,0-1.5,0.5-2.2,1c-0.4,0.3-0.8,0.6-1.2,0.7c-2,0.8-4.2,1.6-6.6,1.5c-1.6,0-3.4-0.1-5.2,0c-1.3,0-1.9,0.5-2.9,1.2
								c-0.2,0.1-0.3,0.2-0.5,0.4c-1,0.7-2.1,1-3.2,1.2c-0.6,0.1-1.2,0.3-1.7,0.5c-3.3,1.1-6.5,2.7-9.6,4.3c-1.9,1-3.9,2-6,2.9
								c-0.2,0.1-0.5,0.2-0.7,0.3c-1.4,0.6-2.8,1.2-4.4,1.3c-0.2,0-0.4,0-0.6,0c-0.7,0-1.1,0-1.8,0.5c-0.9,0.8-1.3,2.8-1.6,4.2
								c-0.1,0.4-0.2,0.8-0.2,1.1c-0.2,0.8-0.5,1.7-0.7,2.5c-0.2,0.7-0.4,1.4-0.6,2.1c-0.1,0.3-0.1,0.7-0.1,1.1
								c0,0.6-0.1,1.2-0.4,1.8c-1,1.8-4.5,1.5-7.1,1.3c-0.7-0.1-1.3-0.1-1.7-0.1c-0.4,0-1-0.1-1.7-0.1c-1.6-0.2-4.1-0.4-4.7,0.1
								c-0.5,0.4-0.4,1.6-0.3,2.5c0,0.3,0.1,0.7,0.1,0.9c0,1.2,0.1,2.4,0.1,3.6c0.1,2.8,0.3,5.7-0.2,8.3l0,0.1l-0.1,0
								c-2.2,1.1-4.3-0.4-5.3-2.3c-0.7-1.2-0.6-2.2-0.6-3.5l0-0.2c0-0.9,0.1-1.9,0.1-2.9c0.1-2.7,0.2-5.4-0.2-8
								c-0.3-2-0.8-3.1-2.2-4.2c-2-1.5-4.9-3.3-7.5-3.3c0,0-0.1,0-0.1,0c-0.6,0-1.4,0-2.1-0.1c-1.4-0.1-3-0.2-4.1,0.1
								c-0.3,0.1-0.6,0.2-0.8,0.3c-0.3,0.1-0.6,0.3-1,0.4l0,0l0,0c-1.4-0.1-2.8-0.1-4.2,0.1c-1.5,0.2-3.1,0.6-4.5,1.1l-0.3,0.1
								c-0.9,0.3-2.1,0.8-2.5,1.7c-0.2,0.5-0.1,1.6-0.1,2.4c0,0.3,0,0.5,0,0.7c0,2.1,0,4.2,0,6.3c0,0.6,0,1.1,0,1.6c0,2,0,4,0.1,6.1
								c0,0.3,0.1,0.6,0.1,1c0.1,1.9,0.3,4.2,1,5.7c0.7,1.5,1.9,2,3.3,2.5c0.4,0.2,0.8,0.3,1.3,0.5c2.5,1.1,2.9,2.6,3,5.3
								c0,0.8,0,1.5-0.1,2.3c-0.1,1.3-0.1,2.6,0,3.8c0.3,2.4,1.4,3.3,3.1,4.4c0.4,0.2,0.7,0.4,0.9,0.6c0.7,0.5,1.1,0.8,2.4,1.2
								c0.6,0.2,1.3,0.3,2.1,0.5c2.1,0.5,4.4,1,6,2.2c2.1,1.7,1.3,5.3,0.7,7.8c-0.1,0.3-0.1,0.5-0.2,0.8c-0.2,1.1-0.9,2.1-1.6,3
								c-0.8,1.2-1.7,2.4-1.7,4c0.1,1.7,1.2,3.5,2.2,5.1c0.3,0.4,0.5,0.8,0.8,1.2c0.4,0.7,0.8,1.3,1.2,2c1.1,1.8,2.3,3.6,2.9,5.7
								l0,0l0,0c-0.3,2.3-1.2,3.6-2.6,3.8C212.1,431.6,211.9,431.6,211.7,431.6z M217.7,229.7c-0.3,0.5-0.6,1-0.9,1.5
								c-0.9,1.5-1.8,2.9-3,4.2c-1.5,1.6-3.2,2.8-5,4.1l-0.2,0.2c-4,2.9-7.3,6-9.9,9c-3.4,4-5.7,9.2-7.7,13.7
								c-0.7,1.8-1.7,3.4-2.6,5.1c-0.6,1-1.1,2-1.7,3.1c-1.4,2.8-3,5.5-4.6,8.2c-2,3.3-4,6.7-5.6,10.2c-0.7,1.6-1.3,3.3-1.8,4.9
								c-0.5,1.5-1,3.1-1.6,4.5c-0.7,1.5-1.6,2.8-2.5,4.1c-1.6,2.2-3,4.2-3,7.2c0,2.2,0.7,4.1,1.4,6c0.4,1.2,0.9,2.4,1.1,3.7
								c0.4,2,0.3,4.4,0.2,6.6c0,0.9-0.1,1.7-0.1,2.5c0,2.3,0.1,4.7,0.3,6.9c0.1,2.3,0.3,4.6,0.3,6.9c0,2.6,0.5,4.6,1.1,6.8
								c0.3,1,0.5,2,0.7,3c0.1,0.3,0.1,0.5,0.1,0.8c0.1,0.5,0.1,0.9,0.3,1.4c0.1,0.3,0.3,0.4,0.6,0.6c0.2,0.2,0.4,0.4,0.6,0.6
								c0.7,1.1,1,2.2,1.2,3.4c0.3,1.6,0.7,3.1,2.2,4.4c0.4,0.3,0.8,0.6,1.3,0.8c0.8,0.5,1.6,0.9,2.1,1.9c0.6,1,1.1,2.3,1.6,3.4
								c0.3,0.7,0.5,1.3,0.8,1.9c0.3,0.7,0.6,1.3,0.9,1.9c1.6,3.3,2.9,6.2,2.9,10.1c0,2.6,0.8,4,2,6.2c0.1,0.2,0.3,0.5,0.4,0.7
								c1.4,2.4,2,4,1.9,6.9c-0.1,1.7,0,3.6,1.3,5.5c0.6,0.8,1.3,1.5,1.9,2.1c0.9,0.9,1.9,1.7,2.5,3.2c0.5,1.4,0.8,2.7,1.1,4.1
								c0.1,0.4,0.2,0.8,0.2,1.2c0.3,1.4,0.9,2.5,1.6,3.7c0.3,0.6,0.7,1.2,1,1.9c0.5,1,0.8,2.1,1,3.2c0.3,1.2,0.6,2.5,1.2,3.6
								c1,1.8,5.8,6.1,8.6,5.5c1.3-0.2,2.1-1.4,2.3-3.5c-0.6-2-1.7-3.9-2.8-5.6c-0.4-0.6-0.8-1.3-1.2-2c-0.2-0.4-0.5-0.8-0.8-1.2
								c-1-1.6-2.2-3.5-2.2-5.3c-0.1-1.8,0.9-3,1.7-4.2c0.7-0.9,1.3-1.8,1.5-2.8c0.1-0.2,0.1-0.5,0.2-0.8c0.5-2.3,1.4-5.9-0.6-7.4
								c-1.5-1.2-3.7-1.7-5.9-2.2c-0.7-0.2-1.4-0.3-2.1-0.5c-1.4-0.4-1.8-0.7-2.5-1.2c-0.2-0.2-0.5-0.4-0.9-0.6
								c-1.8-1.2-3-2.1-3.3-4.7c-0.1-1.3-0.1-2.6,0-3.9c0-0.8,0.1-1.5,0.1-2.3c0-2.5-0.4-3.9-2.7-4.9c-0.4-0.2-0.8-0.3-1.3-0.5
								c-1.4-0.5-2.8-1-3.6-2.7c-0.7-1.6-0.9-3.9-1.1-5.9c0-0.3-0.1-0.7-0.1-1c-0.2-2-0.2-4.1-0.1-6.1c0-0.5,0-1.1,0-1.6
								c0-2.1,0-4.2,0-6.3c0-0.2,0-0.4,0-0.6c-0.1-0.8-0.1-1.9,0.1-2.5c0.5-1.1,1.7-1.5,2.7-1.9l0.3-0.1c1.5-0.6,3-0.9,4.6-1.2
								c1.4-0.1,2.8-0.2,4.2-0.1c0.3-0.1,0.6-0.2,0.9-0.3c0.3-0.1,0.6-0.3,0.9-0.3c1.2-0.3,2.8-0.2,4.2-0.1c0.8,0,1.5,0.1,2.1,0.1
								c2.7,0,5.8,1.8,7.9,3.4c1.6,1.2,2,2.4,2.4,4.5c0.5,2.6,0.3,5.4,0.2,8.1c0,1-0.1,1.9-0.1,2.9l0,0.2c0,1.3,0,2.2,0.6,3.3
								c0.9,1.7,2.7,3.1,4.7,2.2c0.4-2.6,0.3-5.4,0.2-8.2c-0.1-1.2-0.1-2.5-0.1-3.7c0-0.2,0-0.5-0.1-0.9c-0.1-1-0.2-2.3,0.4-2.9
								c0.8-0.7,3.1-0.4,5-0.2c0.7,0.1,1.3,0.1,1.6,0.1c0.5,0,1.1,0.1,1.8,0.1c2.3,0.2,5.9,0.5,6.7-1.1c0.2-0.4,0.3-1,0.3-1.6
								c0-0.4,0-0.8,0.1-1.2c0.2-0.7,0.4-1.4,0.6-2.1c0.2-0.8,0.5-1.6,0.7-2.4c0.1-0.3,0.1-0.7,0.2-1.1c0.3-1.6,0.7-3.6,1.8-4.5
								c0.8-0.7,1.3-0.6,2-0.6c0.2,0,0.4,0,0.6,0c1.5,0,2.8-0.6,4.2-1.2c0.2-0.1,0.5-0.2,0.7-0.3c2-0.9,4-1.9,5.9-2.9
								c3.1-1.6,6.3-3.2,9.6-4.3c0.6-0.2,1.2-0.3,1.8-0.5c1.1-0.2,2.1-0.5,3.1-1.2c0.2-0.1,0.3-0.3,0.5-0.4c1-0.7,1.7-1.2,3.1-1.3
								c1.8-0.1,3.7,0,5.3,0c2.4,0.1,4.5-0.7,6.5-1.5c0.3-0.1,0.7-0.4,1.1-0.7c0.7-0.5,1.5-1,2.3-1c0.3-1.4,0.2-3.2-0.1-4.8
								c0-0.3-0.1-0.6-0.2-1.1c-0.3-1.4-0.7-3.1-0.1-4c0.8-1.2,2.7-1,4.3-0.9c0.5,0.1,1,0.1,1.4,0.1c2.9,0,5.7,0.3,8.1,0.6
								c0.3,0,0.8,0.1,1.4,0.1c1.4,0.1,3.2,0.1,3.9,0.6c0.9,0.6,0.8,2.2,0.7,3.3c0,0.3,0,0.6,0,0.8c0,0.6,0,1.2-0.1,1.9
								c-0.1,1.6-0.2,3.2,0.1,4.6c0.7,0.2,1.4,0,2-0.4c1.9-1.4,2.6-5.2,2.6-6.9c0-1.4-0.5-1.9-1.2-2.7c-0.2-0.3-0.5-0.6-0.8-0.9
								c-0.1-0.2-0.3-0.3-0.4-0.4c-0.4-0.4-0.5-0.6-0.9-1.8c-0.8-2.7-1.3-5.6-1.3-8l0-0.2c0-1.3,0-2.4-0.6-3.6
								c-0.6-1.1-1.5-1.9-2.5-2.8c-0.9-0.8-1.9-1.7-2.5-2.8c-0.7-1.1-0.7-1.7-0.7-2.8l0-0.4c-0.1-4.1-0.1-8,1.1-11.9
								c0.6-1.8,0.8-2.6,0.8-4.4c0-1.5-0.5-2.4-1.1-3.7c-0.1-0.2-0.2-0.4-0.3-0.6c-0.1-0.3-0.2-0.5-0.4-0.7
								c-0.4-0.8-0.7-1.5-1.3-2.1c-0.6-0.6-1.2-0.6-1.8-0.6c-0.5,0-1,0-1.5-0.2c-1.2-0.5-2.4-2.2-3.7-5.1c-1.5,0.5-2.9,2.7-4.1,4.5
								c-0.4,0.6-0.8,1.3-1.2,1.7c-0.3,0.4-0.6,0.9-0.8,1.4c-0.3,0.5-0.5,1.1-0.9,1.5c-0.8,0.9-1.9,1.3-3,1.7
								c-0.5,0.2-1,0.4-1.5,0.6c-1.5,0.7-1.5,0.9-1.4,2.3c0,0.2,0,0.4,0,0.6c0.1,3.9-0.5,8.7-3.9,9.7c-0.6,0.2-1.5,0.1-2.3,0
								c-0.4,0-0.9-0.1-1.2-0.1c-2.2,0.1-3.1-0.3-3.9-2.8c-0.1-0.3-0.2-0.7-0.2-1.2c0-0.4-0.1-0.8-0.2-1.1c-0.2-0.3-0.3-0.4-0.4-0.6
								c-0.1-0.1-0.3-0.2-0.5-0.5c-0.5-0.7-0.8-1.4-1.1-2.1c-0.4-0.8-0.7-1.7-1.3-2.4c-0.2-0.2-0.3-0.5-0.5-0.7
								c-0.8-1.1-1.4-1.9-2-3.3c-0.3-0.8-0.7-1.7-1.1-2.5c-0.5-1.1-1-2.2-1.3-3.2c-0.7-2-0.3-5.7,0.5-7.7c1-2.5,2.2-4,4-5.1
								c0.4-0.3,0.9-0.6,1.3-1c0.7-0.6,1.5-1.2,2.3-1.5c1-0.3,2.3-0.2,3.6-0.1c0.6,0,1.1,0.1,1.6,0.1l7.7,0c2.2,0,4.4,0,6.6,0h0
								c0.3,0,0.6,0,0.9,0c0.7,0,1.5,0.1,2,0c1.5-0.4,2.4-2.5,3.1-4.2c0.2-0.5,0.4-1,0.6-1.4c0.3-0.7,0.4-1,0.5-1.1
								c0-0.1,0-0.2,0.1-0.2c0.1,0,0.2,0,0.2,0c0.1,0,0.2,0.1,0.7,0c1.2-0.2,4.4,1.4,4.8,1.6c2.3,1.2,2.8,3.3,3.2,5.6l0,0.2
								c0.1,0.6,0.3,1.3,0.4,1.9c0.4,1.4,0.7,2.8,0.7,4.3c0,0.4,0,0.8-0.1,1.2c-0.1,1.4-0.2,3.1,0.4,4.3l0.1,0.1
								c0.3,0.7,0.7,1.2,1.3,1c0.5-0.2,0.5-1,0.5-1.8c0-0.4,0-0.7,0.1-1c0.4-1.4,1.3-1.5,2.3-1.6c0.5-0.1,1-0.1,1.5-0.4
								c1.5-0.7,2.2-2.5,2.4-3.9c0.3-1.7,0.2-4.4-0.3-6c-0.5-1.4-0.8-2.9-1.1-4.3c-0.2-0.9-0.4-1.8-0.6-2.7c-0.8-2.8-0.6-6-0.5-9
								c0-1.3,0.1-2.6,0.1-3.8l0-0.4c-0.1-2.5-0.1-3.1,2.8-4.5c0.7-0.3,1.4-0.8,2-1.3c0.9-0.6,1.8-1.3,2.7-1.7
								c3.4-1.3,9.2-0.2,11.7,2.2c2.7,2.5,5,6.5,5.6,9.8c1.1,5.3-0.9,10.9-2.7,15.7l-0.2,0.7c-0.3,0.9-0.5,1.7-0.6,2.6
								c-0.1,0.6-0.2,1.2-0.4,1.8c-0.3,1.2-0.8,2.3-1.3,3.4c-0.5,1.2-1,2.4-1.3,3.7c-0.4,1.6-0.3,3.2-0.3,4.8c0,0.6,0.1,1.3,0.1,1.9
								c0,0.6,0,1.1-0.1,1.7c-0.1,1.4-0.2,2.9,0.2,4.2c0.5,1.6,1.5,3.1,2.4,4.6c0.8,1.2,1.6,2.4,2.1,3.7c0.1,0.3,0.2,0.6,0.3,0.9
								c0.3,0.8,0.5,1.4,1.3,2.2c1.1,1.1,3.4,1.9,5.1,1.9c0,0,0,0,0,0c1.3-2.7,1.1-6.9,0.9-10.3c-0.1-1.2-0.1-2.3-0.1-3.2
								c0-0.7,0-1.4,0-2.1c0-1.3,0-2.6,0-3.9c0-1.9,0.2-4.3,2-5.7c2.2-1.7,6.1-2.9,8.9-3.2c1.2-0.1,1.6-0.3,2.4-0.6
								c0.4-0.1,0.9-0.3,1.6-0.6l4.5-1.2c1.6-0.1,3.1-0.6,4.5-1.3c0.2-0.4,0.1-1.6,0-2.4c-0.1-0.7-0.1-1.3-0.1-1.6
								c0.4-1.5,1.3-3,2.3-4.4c0.6-0.9,1.2-1.7,1.6-2.6c0.1-0.2,0.2-0.4,0.4-0.7c0.7-1.3,1.9-3.5,1.4-4.6c-0.2-0.5-0.8-0.6-1.3-0.8
								c-0.4-0.1-0.8-0.2-1.1-0.4c-0.8-0.6-1.8-2.6-2.5-3.9c-0.2-0.4-0.4-0.7-0.5-0.9c-1-1.7-1.7-3.5-2.4-5.2
								c-0.5-1.4-1.1-2.8-1.8-4.2c-0.7-1.4-1.1-2.8-1.6-4.2c-0.4-1.3-0.8-2.7-1.4-4c-0.3-0.7-0.8-1.3-1.2-2
								c-0.4-0.6-0.9-1.2-1.2-1.9c-0.2-0.4-0.3-0.8-0.5-1.1c-0.4-1.1-0.7-1.9-2.2-2c-3-0.4-6.3-0.2-9.5-0.1c-1.5,0.1-3,0.1-4.5,0.1
								c-0.5,0-0.9,0-1.4,0c-1.2,0-2.4,0.1-3.6-0.1c-2.4-0.4-4.7-1.4-6.9-2.4l-0.7-0.3c-2.4-1-8.6-3.2-13.4-0.7c-2,1-4,2.8-5.4,4.1
								c-0.2,0.2-0.3,0.3-0.5,0.5c-0.4,0.4-0.7,0.8-1.7,0.9c-1.1,0.1-2.2-0.4-3.2-0.9c-0.3-0.2-0.6-0.3-0.9-0.4
								c-0.5-0.2-1-0.4-1.5-0.6c-1.3-0.5-2.6-1-3.7-1.9c-1.4,0.5-2.7,2.2-3.8,3.7c-0.2,0.3-0.5,0.6-0.7,0.9
								c-0.9,1.2-1.3,1.5-2.9,0.6c-0.6-0.3-1.2-1-1.8-1.8c-0.9-1.1-1.9-2.3-2.9-2.3c-0.8,0-1.3,0.7-1.9,1.3
								c-0.5,0.6-0.9,1.1-1.6,1.3c-0.5,0.1-2.4-0.4-2.8-0.6c-1.1-0.5-2.4-2-2.7-3.3c-0.1-0.4-0.1-0.9-0.1-1.5c0-0.4,0-0.8,0-1.1
								c-0.1-0.4-0.1-0.8-0.2-1.2c-0.1-0.7-0.3-1.3-0.3-2c0-0.2,0-0.4,0-0.5c-0.1-1.1-0.1-2.1,0.6-3.1c1.1-1.4,2.4-2.7,3.7-4
								c1.5-1.5,3.1-3,4.2-4.8c1-1.5,1-2.8,0.9-4.4l0-0.4c0-0.2,0-0.4,0-0.6c0-1.1,0.1-3.1-0.6-3.8c-1.5-1.6-6,1.2-8,2.3
								c-0.3,0.2-0.5,0.3-0.7,0.4c-1.8,1-2.6,1.1-4.6,0.1c-0.8-0.4-1.4-0.9-2.1-1.4c-0.6-0.5-1.2-0.9-1.8-1.2
								c-1.1-0.5-2.3-0.5-3.5-0.4c-0.3,0-0.7,0-1,0c-1.7,0-3.4,0.3-5,0.6c-2.3,0.4-4.8,0.9-7.4,0.4c-1,1.4-1.4,3-1.8,4.6
								c-0.1,0.3-0.2,0.7-0.3,1c-0.3,1-0.6,2.1-0.8,3.1c-0.7,2.5-1.3,5.1-2.2,7.6c-0.6,1.7-1.4,2.6-2.4,3.6c-0.5,0.5-1,1-1.5,1.7
								c-0.4,0.5-2.2,2.6-4.4,5.3c-4.4,5.3-11.1,13.4-11.5,14.1c-1,2-2.6,3.2-4.1,4.3c-1.1,0.8-2.2,1.6-3.1,2.7l-0.6,0.8l0.3-0.9
								C217.8,229.9,217.8,229.8,217.7,229.7C217.7,229.8,217.7,229.8,217.7,229.7z"/>
						</g>
					</g>
				</g>
			</g>
		</g>
		<g>
			<g>
				
					<ellipse transform="matrix(0.7071 -0.7071 0.7071 0.7071 -284.9353 351.48)" class="st1" cx="281.8" cy="519.7" rx="8.9" ry="8.9"/>
			</g>
		</g>
		<g>
			<g>
				<circle class="st1" cx="445.4" cy="401" r="8.9"/>
			</g>
		</g>
		<g>
			<g>
				<circle class="st1" cx="458.8" cy="235.7" r="8.9"/>
			</g>
		</g>
		<g>
			<g>
				<circle class="st1" cx="229.7" cy="392.1" r="8.9"/>
			</g>
		</g>
		<g>
			<g>
				
					<ellipse transform="matrix(0.2298 -0.9732 0.9732 0.2298 -96.285 495.0375)" class="st1" cx="264.6" cy="308.3" rx="8.9" ry="8.9"/>
			</g>
		</g>
		<g>
			<g>
				<circle class="st1" cx="255.7" cy="226.8" r="8.9"/>
			</g>
		</g>
	</g>
	<g>
		<g>
			<g>
				<g>
					<g>
						<g>
							<path class="st9" d="M548.9,626.7c0,6.2-9.2,10-10.9,10.3c-1.1,0.2-1.5-1.2-1.7-2.1c1.2-0.3,2.6-0.9,4.5-3c3-3.2,3-5.2,3-5.2
								L548.9,626.7C548.9,626.6,548.9,626.6,548.9,626.7z"/>
						</g>
					</g>
				</g>
				<g>
					<g>
						<g>
							<path class="st8" d="M548.9,626.7c-0.2,6.1-8.6,9.5-10.3,9.8c-1.1,0.2-2.1-0.7-2.2-1.6c-0.4,0.1-1.8,0.5-2.2,0.7
								c-1.5,0.6-0.2,1.8,1.1,2.3c0.8,0.3,2.1,0.6,4.2,0.2c3.2-0.6,7.4-4.1,8.3-5.5l-0.1,5.5l2.1,0l0.1-6.7
								C550,628.2,549,626.8,548.9,626.7z"/>
						</g>
					</g>
				</g>
			</g>
			<g>
				<g>
					<g>
						<g>
							<path class="st9" d="M573.6,626.2c0.3,6.2-8.8,10.4-10.4,10.8c-1.1,0.3-1.5-1.1-1.8-2.1c1.2-0.4,2.6-1,4.4-3.2
								c2.8-3.3,2.8-5.3,2.8-5.3L573.6,626.2C573.6,626.1,573.6,626.1,573.6,626.2z"/>
						</g>
					</g>
				</g>
				<g>
					<g>
						<g>
							<path class="st8" d="M573.6,626.2c0,6.1-8.2,9.9-9.8,10.2c-1.1,0.3-2.1-0.6-2.3-1.5c-0.4,0.1-1.7,0.6-2.1,0.8
								c-1.5,0.7-0.1,1.8,1.2,2.3c0.8,0.3,2.1,0.5,4.2,0c3.1-0.7,7.2-4.5,8.1-5.9l0.2,5.9l2.1,0.2l-0.2-7.3
								C574.7,627.6,573.7,626.3,573.6,626.2z"/>
						</g>
					</g>
				</g>
			</g>
			<g>
				<g>
					<path class="st3" d="M532.3,552.1L532.3,552.1c-0.1-0.7,0-1.4,0.1-2l0,0l0,0c0-0.3,10-52.4,10-52.4c0,0,33.3,0,33.3,0
						c5.6,20.5,6.1,40.5,0,54.7l0,0l-2,73.9l-5.4,0.2l-11.6-83.3c-1.9,3.9-4,7.5-6.6,10.6l-1,73l-5.6-0.1
						C543.6,626.6,532.3,552.4,532.3,552.1z"/>
				</g>
			</g>
			<g>
				<g>
					<g>
						<path class="st8" d="M569.1,411.7c0,0,3.9,0.2,4.4,6.2c0.6,7.1-2.4,15.1-9.3,17.4c-9.2,3-13.8-6.5-13.8-6.5s2.7,0.9,2.2-3.9
							C552.1,420,569.1,411.7,569.1,411.7z"/>
					</g>
				</g>
			</g>
			<g>
				<g>
					<g>
						<g>
							<g>
								<path class="st10" d="M481.2,470.2c0.2-1.2,1.2-2.1,2.3-1.9c3.2,0.3,6.3,0.6,9.5,0.8c3.1,0.2,6.3,0.4,9.3,0.3
									c3.1,0,6.1-0.2,8.9-0.7c2.8-0.5,5.5-1.3,7.9-2.5c2.5-1.2,4.8-2.7,7-4.5c2.2-1.8,4.4-3.8,6.5-5.9c0.5-0.5,1.1-1.1,1.6-1.6
									l1.6-1.7c1-1.1,2.1-2.3,3.1-3.4c2.1-2.3,4.1-4.7,6.2-7.1c2.7-3,7.6-2.8,10.9,0.4l0,0c3.3,3.2,3.5,8.2,0.5,11
									c-2.4,2.1-4.9,4.2-7.4,6.3c-1.3,1.1-2.6,2.1-3.8,3.1l-2,1.5c-0.7,0.5-1.3,1-2,1.5c-2.7,2-5.6,4-8.6,5.7
									c-3.1,1.7-6.4,3.3-9.9,4.4c-3.5,1.1-7.2,1.6-10.7,1.7c-3.5,0.1-6.9-0.2-10.2-0.7c-3.3-0.5-6.5-1.1-9.7-1.8
									c-3.2-0.7-6.3-1.5-9.4-2.2C481.7,472.5,481,471.4,481.2,470.2z"/>
							</g>
						</g>
					</g>
				</g>
			</g>
			<g>
				<g>
					<path class="st11" d="M558.9,437L558.9,437c-13.4,0-23.7,11.9-21.7,25.2l5.2,35.4c9.6,3.6,22.2,3.1,33.3,0l1.3-41
						C577.8,446,569.5,437,558.9,437z"/>
				</g>
			</g>
			<g>
				<g>
					<path class="st3" d="M536.9,462.3l0.5,3.3c0.1,0,0.2,0,0.3,0l-0.5-3.3c-0.7-4.9,0.2-9.6,2.3-13.5l-0.3-0.2
						C537,452.7,536.2,457.5,536.9,462.3z M539.1,475.5c-0.1,0-0.2,0-0.3,0l1.4,9.5l0.3-0.1L539.1,475.5z M540.3,446.7l0.3,0.2
						c0.8-1.2,1.7-2.4,2.8-3.4c3.6-3.6,8.5-6,13.9-6.4l0.1-0.3c-5.9,0.4-11.4,3.2-15.3,7.7C541.4,445.2,540.8,445.9,540.3,446.7z
						 M541.1,489.1c-0.1,0.1-0.2,0.1-0.3,0.2l1.3,8.6l0.2,0.1c4.5,1.7,9.7,2.5,15.6,2.5c3.3,0,6.8-0.3,10.2-0.8l-0.1-0.3
						c-8.9,1.4-18.1,1.1-25.6-1.7L541.1,489.1z M573.3,443.6l-0.2,0.3c2.8,3.5,4.3,7.9,3.9,12.7l-0.3,8.6l0.3-0.1l0.3-8.5
						C577.7,451.9,576.2,447.2,573.3,443.6z M576.2,479.6l-0.4,12.6c0.1,0,0.2,0,0.3,0l0.4-12.7
						C576.5,479.6,576.4,479.6,576.2,479.6z"/>
				</g>
			</g>
			<g>
				<g>
					<g>
						<g>
							<path class="st9" d="M555.4,427.5l-1.6,13.4c2.7,2.2,5.6,2.6,8.7,1.1l1.6-13.4L555.4,427.5z"/>
						</g>
					</g>
				</g>
				<g>
					<g>
						<g>
							<path class="st10" d="M555.3,428.7l-0.4,3.3c1.2,0.9,2.7,1.6,4.3,1.9c0.1,0,0.2,0,0.3,0c1.5,0.2,3-0.2,4.2-1.1l0.4-3.1
								L555.3,428.7z"/>
						</g>
					</g>
				</g>
				<g>
					<g>
						<g>
							<path class="st9" d="M553.3,414.5l-0.8,8.2l-0.1,1.4c-0.4,4.3,2.6,8.2,6.9,8.9c0.6,0.1,1.3,0.1,1.9-0.1
								c0.6-0.2,1.3-0.5,1.8-0.9c1.2-1,2-2.1,2.8-3.2c0.2-0.2,0.3-0.5,0.5-0.7c1.3-2,2.3-4,2.4-6.4l-0.1-7l-12.3-3.1L553.3,414.5z"
								/>
						</g>
					</g>
				</g>
				<g>
					<g>
						<g>
							<g>
								<path class="st8" d="M565.8,414.7c0,0-5.8-2.5-9.5-0.9c-1.9,0.8-3,4.4-3.8,9.3c0,0-3.4-6.9,1.2-12.3s14.7-4.9,16.2,1.9
									L565.8,414.7z"/>
							</g>
						</g>
					</g>
					<g>
						<g>
							<g>
								<path class="st8" d="M565.8,414.7c0,0,2.5,3.9,0.8,10.3c0,0,2.8,1.5,3.6-0.9c0.8-2.4,3.2-9.2-1.9-11.5L565.8,414.7z"/>
							</g>
						</g>
					</g>
				</g>
				<g>
					<g>
						<g>
							<path class="st9" d="M565.5,422.9c-0.2,1.7,1,3.3,2.8,3.6s3.3-1,3.6-2.8c0.2-1.7-1-3.3-2.8-3.6
								C567.3,419.9,565.7,421.1,565.5,422.9z"/>
						</g>
					</g>
				</g>
			</g>
		</g>
		<g>
			<g>
				<g>
					<g>
						
							<rect x="471.4" y="431.8" transform="matrix(0.6941 -0.7199 0.7199 0.6941 -175.0069 482.8016)" class="st2" width="18.5" height="31"/>
					</g>
				</g>
			</g>
			<g>
				<g>
					<g>
						
							<rect x="511.8" y="443.6" transform="matrix(0.6941 -0.7199 0.7199 0.6941 -192.5125 528.5657)" class="st8" width="27.7" height="94.3"/>
					</g>
				</g>
			</g>
			<g>
				<g>
					<g>
						<path class="st8" d="M474.3,343.5c-27.9-26.9-72.5-26.1-99.4,1.8c-26.9,27.9-26.1,72.5,1.8,99.4c25.7,24.7,65.4,26.1,92.6,4.4
							c2.4-1.9,4.7-4,6.8-6.2c2.2-2.3,4.2-4.6,6-7.1C502.7,408,499.9,368.3,474.3,343.5z M389.5,431.5
							c-20.6-19.9-21.2-52.8-1.3-73.3c19.9-20.6,52.8-21.2,73.3-1.3c20.6,19.9,21.2,52.8,1.3,73.3
							C442.9,450.8,410,451.4,389.5,431.5z"/>
					</g>
				</g>
				<g class="st12">
					<g>
						<path class="st11" d="M462.8,430.2c-19.9,20.6-52.8,21.2-73.3,1.3c-20.6-19.9-21.2-52.8-1.3-73.3
							c19.9-20.6,52.8-21.2,73.3-1.3C482.1,376.7,482.7,409.6,462.8,430.2z"/>
					</g>
				</g>
			</g>
		</g>
		<g>
			<g>
				<g>
					<g>
						<g>
							<path class="st9" d="M533.7,520.7c-0.8-1-0.7-2.3,0.1-3c2.3-2.2,4.6-4.4,6.9-6.6c2.2-2.2,4.4-4.5,6.4-6.8
								c2-2.3,3.8-4.7,5.3-7.1c1.5-2.5,2.6-5,3.4-7.6c0.7-2.6,1.1-5.4,1.3-8.2c0.2-2.9,0.1-5.8-0.1-8.8c-0.1-0.8-0.1-1.5-0.2-2.3
								l-0.2-2.3c-0.2-1.5-0.3-3.1-0.5-4.6c-0.4-3.1-0.8-6.2-1.2-9.3c-0.5-4,2.9-7.6,7.5-7.9l0,0c4.6-0.3,8.5,2.8,8.5,6.9
								c0,3.2-0.1,6.5-0.2,9.8c0,1.6-0.1,3.3-0.2,4.9l-0.2,2.5c0,0.8-0.1,1.7-0.2,2.5c-0.3,3.4-0.7,6.8-1.4,10.2
								c-0.7,3.5-1.8,7-3.3,10.3c-1.5,3.3-3.6,6.4-5.8,9.1c-2.3,2.7-4.7,5.1-7.3,7.2c-2.5,2.2-5.1,4.1-7.7,6.1
								c-2.6,1.9-5.3,3.8-7.9,5.6C535.7,521.9,534.4,521.6,533.7,520.7z"/>
						</g>
					</g>
				</g>
			</g>
		</g>
	</g>
	<g>
		<g>
			<path class="st8" d="M639.5,645.7h-579c-2.2,0-3.9-1.8-3.9-3.9l0,0c0-2.2,1.8-3.9,3.9-3.9h579c2.2,0,3.9,1.8,3.9,3.9l0,0
				C643.4,644,641.7,645.7,639.5,645.7z"/>
		</g>
	</g>
	<g>
		<g>
			<path class="st1" d="M369.5,69.3c-0.4-1.7-1.1-3.3-2-4.8c-1-1.8-2.3-3.4-3.7-4.8c-2.3-2.2-5.2-3.9-8.5-4.8
				c-1.7-0.5-3.5-0.7-5.4-0.7c-1.9,0-3.7,0.2-5.4,0.7c-3.3,0.9-6.1,2.6-8.5,4.8c-1.5,1.4-2.7,3-3.7,4.8c-0.9,1.5-1.5,3.1-2,4.8
				c-0.4,1.5-0.7,3.1-0.7,4.8v0c0,1.6,0.1,3.2,0.5,4.8c0.3,1.2,0.6,2.3,1.1,3.5l15.8,38c1.1,2.5,4.7,2.5,5.7,0l15.8-38
				c0.5-1.1,0.8-2.3,1.1-3.5c0.4-1.6,0.5-3.2,0.5-4.8v0C370.2,72.4,370,70.8,369.5,69.3z M356.7,74.8c-0.6,2.2-2.3,4-4.4,4.8
				c0,0,0,0,0,0c-0.7,0.2-1.5,0.4-2.3,0.4c-0.8,0-1.5-0.1-2.3-0.4c0,0,0,0,0,0c-2.2-0.7-3.8-2.5-4.4-4.8c-0.2-0.6-0.2-1.2-0.2-1.8
				c0-1.1,0.2-2.1,0.7-3v0c1.1-2.3,3.5-4,6.3-4c2.8,0,5.2,1.6,6.3,4v0c0.4,0.9,0.7,1.9,0.7,3C356.9,73.7,356.8,74.3,356.7,74.8z"/>
		</g>
	</g>
	<g>
		<g>
			<g>
				<path class="st3" d="M440.4,88.2c-0.3-1.1-0.7-2.1-1.3-3.1c-0.6-1.1-1.5-2.2-2.4-3.1c-1.5-1.4-3.4-2.5-5.4-3.1
					c-1.1-0.3-2.2-0.5-3.4-0.5c-1.2,0-2.4,0.2-3.4,0.5c-2.1,0.6-3.9,1.6-5.4,3.1c-0.9,0.9-1.8,1.9-2.4,3.1c-0.5,1-1,2-1.3,3.1
					c-0.3,1-0.4,2-0.4,3.1v0c0,1,0.1,2,0.3,3.1c0.2,0.7,0.4,1.5,0.7,2.2l10.1,24.4c0.7,1.6,3,1.6,3.7,0l10.1-24.4
					c0.3-0.7,0.5-1.5,0.7-2.2c0.2-1,0.3-2.1,0.3-3.1v0C440.8,90.2,440.6,89.2,440.4,88.2z M432.1,91.8c-0.4,1.4-1.5,2.6-2.9,3.1
					c0,0,0,0,0,0c-0.5,0.2-0.9,0.2-1.4,0.2s-1-0.1-1.4-0.2c0,0,0,0,0,0c-1.4-0.5-2.5-1.6-2.9-3.1c-0.1-0.4-0.2-0.8-0.2-1.2
					c0-0.7,0.2-1.3,0.4-1.9v0c0.7-1.5,2.2-2.5,4-2.5c1.8,0,3.3,1,4,2.5v0c0.3,0.6,0.4,1.2,0.4,1.9C432.3,91,432.2,91.4,432.1,91.8z"
					/>
			</g>
		</g>
		<g>
			<g>
				<path class="st3" d="M284.7,88.2c-0.3-1.1-0.7-2.1-1.3-3.1c-0.6-1.1-1.5-2.2-2.4-3.1c-1.5-1.4-3.4-2.5-5.4-3.1
					c-1.1-0.3-2.2-0.5-3.4-0.5c-1.2,0-2.4,0.2-3.4,0.5c-2.1,0.6-3.9,1.6-5.4,3.1c-0.9,0.9-1.8,1.9-2.4,3.1c-0.5,1-1,2-1.3,3.1
					c-0.3,1-0.4,2-0.4,3.1v0c0,1,0.1,2,0.3,3.1c0.2,0.7,0.4,1.5,0.7,2.2l10.1,24.4c0.7,1.6,3,1.6,3.7,0l10.1-24.4
					c0.3-0.7,0.5-1.5,0.7-2.2c0.2-1,0.3-2.1,0.3-3.1v0C285.2,90.2,285,89.2,284.7,88.2z M276.5,91.8c-0.4,1.4-1.5,2.6-2.9,3.1
					c0,0,0,0,0,0c-0.5,0.2-0.9,0.2-1.4,0.2c-0.5,0-1-0.1-1.4-0.2c0,0,0,0,0,0c-1.4-0.5-2.5-1.6-2.9-3.1c-0.1-0.4-0.2-0.8-0.2-1.2
					c0-0.7,0.2-1.3,0.4-1.9v0c0.7-1.5,2.2-2.5,4-2.5c1.8,0,3.3,1,4,2.5v0c0.3,0.6,0.4,1.2,0.4,1.9C276.6,91,276.6,91.4,276.5,91.8z"
					/>
			</g>
		</g>
	</g>
	<g class="st12">
		<g>
			<rect x="129.4" y="341.7" class="st2" width="161.3" height="161.3"/>
		</g>
	</g>
	<g>
		<g>
			<polygon class="st11" points="227,414.1 218,407.7 208.1,421.7 199.5,415.6 193.1,424.5 210.6,437 217,428.1 217,428.1 			"/>
		</g>
	</g>
	<g>
		<g>
			<path class="st11" d="M210.1,482.9c-33.4,0-60.6-27.2-60.6-60.6c0-33.4,27.2-60.6,60.6-60.6s60.6,27.2,60.6,60.6
				C270.6,455.8,243.4,482.9,210.1,482.9z M210.1,365.7c-31.2,0-56.6,25.4-56.6,56.6s25.4,56.6,56.6,56.6
				c31.2,0,56.6-25.4,56.6-56.6S241.3,365.7,210.1,365.7z"/>
		</g>
	</g>
	<g>
		<g>
			<g>
				<path class="st8" d="M158.8,638.2l22-1c-0.1-0.8-0.2-1.5-0.7-2c-0.6-0.7-1.4-1-2.3-1.1c-0.8-0.1-1.7,0-2.6,0
					c-2.1,0-4.2-0.5-6.1-1.4c-1-0.5-1.9-1.1-2.9-1.4l-6,0.4c-0.8,0.9-1.3,2.1-1.4,3.3C158.7,636,158.7,637.1,158.8,638.2z"/>
			</g>
		</g>
		<g>
			<g>
				<path class="st8" d="M90.8,630.7l20.7,7.6c0.2-0.7,0.4-1.4,0.1-2.2c-0.3-0.8-0.9-1.4-1.7-1.9c-0.7-0.4-1.6-0.7-2.3-1
					c-1.9-0.8-3.7-2.1-5-3.7c-0.7-0.8-1.3-1.8-2.2-2.5l-5.7-1.9c-1.1,0.5-2,1.5-2.6,2.5C91.6,628.6,91.2,629.6,90.8,630.7z"/>
			</g>
		</g>
		<g>
			<g>
				<path class="st8" d="M161.3,564.6c-0.3-3.4-0.8-6.8-1.5-10.2c-2.5-11.8-9-41.7-9-41.7c0,0-47.4,3.8-47.4,3.8l4.2,44.1
					l-13.4,64.5l7.2,2.8l22.3-64.6c0-0.2,6.1-25.6,6.1-25.6l14.5,25.5l14.8,68.5l8.2-0.6L161.3,564.6z"/>
			</g>
		</g>
		<g>
			<g>
				<g>
					<g>
						<path class="st10" d="M176.6,510.6l-3.6-3.1l-2.9,4l4,2.4c1,0.6,2.3,0.5,2.9-0.4C177.8,512.7,177.6,511.4,176.6,510.6z"/>
					</g>
				</g>
			</g>
			<g>
				<g>
					<path class="st11" d="M170.1,511.9l3.5-4.6c-4.8-4.2-9.6-8.5-13.7-13.1c-2-2.3-3.9-4.7-5.4-7.2c-1.6-2.5-2.8-5.1-3.8-7.7
						c-1.9-5.4-2.5-11.2-2.5-17.1c0-3,0.3-6,0.6-9l0.3-2.3l0.3-2.3l0.2-1.1l0.2-1.1l0.4-2.3c0-0.1,0-0.2,0-0.3c0.1-1,0-1.9-0.3-2.9
						c-0.3-0.9-0.7-1.8-1.3-2.5c-1.2-1.5-2.9-2.6-5-2.9l0,0c-2.1-0.3-4.2,0.3-5.7,1.6c-1.6,1.3-2.6,3.2-2.8,5.4l-0.1,2.5l-0.1,1.3
						l0,1.3c0,0.8,0,1.7,0,2.5l0,2.6c0,3.4,0.2,6.9,0.6,10.3c0.4,3.5,1,7,1.9,10.4c0.9,3.5,2.1,6.9,3.8,10.1c1.6,3.3,3.6,6.3,5.8,9
						c2.2,2.8,4.7,5.2,7.2,7.5c2.5,2.3,5.2,4.3,7.8,6.3C164.7,508.2,167.4,510,170.1,511.9z"/>
				</g>
			</g>
			<g>
				<g>
					<g>
						<path class="st2" d="M149.4,449l0.3-0.1l0.1-0.4l0.2-1.1l0.6-3.4c0-0.1,0-0.2,0-0.3c0.1-1,0-2-0.3-3c-0.1-0.4-0.2-0.7-0.4-1
							l-0.2,0.2c0.1,0.3,0.2,0.6,0.3,0.9c0.3,0.9,0.4,1.9,0.3,2.9c0,0.1,0,0.2,0,0.3l-0.4,2.3l-0.2,1.1l-0.2,1.1L149.4,449z
							 M148.3,461.8l0.3,0c0-1.9,0.2-4,0.4-6.2l-0.3,0C148.4,457.6,148.3,459.7,148.3,461.8z M134.9,443.3l0.3,0.2l0-1.1
							c0.2-2.2,1.2-4.1,2.8-5.4c1.6-1.3,3.6-1.9,5.7-1.6l0,0c1.6,0.2,3,0.9,4.1,1.9l0.2-0.2c-1.2-1.1-2.7-1.8-4.3-2l0,0
							c-1.1-0.2-2.1-0.1-3.1,0.2c-1,0.3-2,0.8-2.8,1.4c-1.7,1.3-2.7,3.4-2.9,5.6L134.9,443.3z M138.3,477.3l0.3-0.1
							c-0.4-1.3-0.8-2.6-1.2-3.9c-0.9-3.5-1.5-7-1.9-10.4c-0.4-3.5-0.5-6.9-0.6-10.3l0-2.6c0,0,0,0,0-0.1l-0.3,0c0,0,0,0,0,0l0,2.6
							c0.1,3.8,0.2,7.2,0.6,10.4c0.4,3.8,1,7.2,1.9,10.5C137.5,474.7,137.9,476,138.3,477.3z M148.3,494.4c1.7,1.9,3.6,3.8,5.7,5.7
							c2.3,2,4.8,4,7.8,6.3c1.1,0.8,2.2,1.6,3.4,2.5l0-0.4c-1.1-0.8-2.2-1.6-3.2-2.3c-2.7-2-5.3-4-7.8-6.3c-2-1.8-3.9-3.7-5.7-5.7
							C148.4,494.2,148.4,494.3,148.3,494.4z M161.7,496.1l0.1-0.3c-0.6-0.6-1.2-1.2-1.7-1.9c-2.2-2.5-3.9-4.8-5.4-7.1
							c-1.6-2.5-2.9-5.1-3.8-7.7c-0.5-1.3-0.9-2.7-1.2-4.1l-0.3,0c0.3,1.4,0.7,2.8,1.2,4.2c0.9,2.7,2.2,5.3,3.8,7.7
							c1.6,2.5,3.4,4.9,5.4,7.2C160.5,494.8,161.1,495.5,161.7,496.1z M163.6,498c3.2,3.2,6.6,6.2,10,9.3l-1.6,2.1
							c0,0.1,0.1,0.2,0.1,0.3l1.9-2.4l-0.2-0.2c-3.2-2.8-6.7-5.9-10-9.3L163.6,498z"/>
					</g>
				</g>
			</g>
		</g>
		<g>
			<g>
				<path class="st11" d="M103.4,516.5c15.9,5.1,29.4,5.1,47.4-3.8l-0.7-48l-0.1-6.2l0-2.3l-0.1-4.4c0-0.6,0-1.2-0.1-1.8
					c-0.8-7.3-5.5-13.3-12-15.9c-0.6-0.3-1.3-0.5-1.9-0.7c-2.2-0.6-4.6-0.9-7.1-0.6c-0.7,0.1-1.3,0.2-1.9,0.3
					c-1.4,0.2-2.7,0.6-4,1.1c-7.2,2.7-12.7,8.7-14.7,16.2c-0.5,1.8-0.7,3.7-0.8,5.6l0,0.6l0,2.3l-0.1,2.9L103.4,516.5z"/>
			</g>
		</g>
		<g>
			<g>
				<g>
					<path class="st2" d="M150.5,464.7l0-0.2l-0.4-0.1l0,0.3l0.5,32h0.4L150.5,464.7z M118.5,435.9c-5.3,3.2-9.2,8.4-10.8,14.4
						c0,0.2-0.1,0.4-0.1,0.6l0.4,0.1c0-0.2,0.1-0.4,0.1-0.5c1.6-6,5.4-11.1,10.6-14.2L118.5,435.9z M103.7,507.2h0.4l2.9-42.3
						l-0.4-0.1L103.7,507.2z M150.2,451.9c0-0.6,0-1.2-0.1-1.8c-0.7-6.6-4.6-12.4-10.5-15.4l-0.1,0.4c5.5,2.9,9.6,8.5,10.2,15.1
						c0.1,0.6,0.1,1.2,0.1,1.8l0.1,4.4l0,0.7h0.4L150.2,451.9z M151,504.8h-0.4l0.1,7.9c-17.3,8.6-30.6,8.9-45.8,4.3l-0.1,0.4
						c6.7,2,12.6,3,18.3,3c4.5,0,8.9-0.6,13.5-1.8s9.3-3,14.3-5.5l0.2-0.1L151,504.8z"/>
				</g>
			</g>
		</g>
		<g>
			<g>
				<g>
					<path class="st1" d="M130.8,440.4c0.9-0.2,1.7-0.4,2.6-0.6c4.4,18.2,6.3,37.4,5.3,57c-1.4,1.9-2.8,3.7-4.2,5.5
						c-1.1-2-2.2-4-3.3-5.9C133.7,477.6,133.6,458.7,130.8,440.4z"/>
				</g>
			</g>
		</g>
		<g>
			<g>
				<g>
					<g>
						<path class="st9" d="M137,423l-1.4,14c-3.3,1.7-6.3,1.4-9.2-0.9l1.4-14L137,423z"/>
					</g>
				</g>
				<g>
					<g>
						<path class="st10" d="M137,423l-0.6,6.4c-0.7,0.2-1.4,0.3-2.1,0.3c-0.2,0-0.5,0-0.7,0c-2.5-0.2-4.8-1.6-6.1-3.7l0.4-3.8
							L137,423z"/>
					</g>
				</g>
				<g>
					<g>
						<path class="st9" d="M142,414.8l-1.1,8.2c-0.5,3.3-3.3,5.7-6.6,5.7h0c-3,0-5.7-1.9-6.8-4.7c-0.7-1.9-1.3-4-1.8-6.3
							c-0.9-3.6,0.3-7.5,3.1-9.9c2.4-2.1,5.2-2.5,8.5-1.2C140.6,408,142.5,411.3,142,414.8z"/>
					</g>
				</g>
			</g>
			<g>
				<g>
					<g>
						<path class="st8" d="M140.6,410.3c0,0,1.4,2.8,0.9,7.9c0,0,1.4-5,0.7-9.1L140.6,410.3z"/>
					</g>
				</g>
				<g>
					<g>
						<path class="st8" d="M122.7,417.5c0,0-4.1-6.9,0.8-11.8c5.3-5.3,8.6-4.6,12.1-3.4c4.5,1.4,6.8,3.1,8.6,2.8
							c0.9-0.2,1.8-0.9,1.9-0.4c0.1,0.5,0.2,3.6-2.5,5.8s-6.1,1.7-9.4-0.2c-3.3-1.9-4.8-1.7-6.3,0.3c-1.6,2.1,0.3,6.2,0.3,6.2
							l-1,0.3C127.1,417.1,123.4,414.7,122.7,417.5z"/>
					</g>
				</g>
			</g>
			<g>
				<g>
					
						<ellipse transform="matrix(8.941020e-02 -0.996 0.996 8.941020e-02 -300.7297 505.034)" class="st9" cx="125.8" cy="417" rx="3.1" ry="3.5"/>
				</g>
			</g>
		</g>
		<g>
			<g>
				<g>
					<path class="st13" d="M122.8,434.3l6.8,11.1l2.5-5.3l5.3,4.5l0.4-10.4c-0.6-0.3-1.2-0.4-1.8-0.6l-4,4.1l-5.3-4.5
						C125.3,433.5,124.1,433.8,122.8,434.3z"/>
				</g>
			</g>
		</g>
		<g>
			<g>
				<g>
					<g>
						<path class="st9" d="M193.6,437.9l-3.9,2.6l3.1,3.9l3.4-3.2c0.9-0.8,1.1-2.1,0.4-2.9C195.9,437.3,194.6,437.2,193.6,437.9z"/>
					</g>
				</g>
			</g>
			<g>
				<g>
					<path class="st11" d="M193,444.5l-3.4-4.6c-5.4,3.5-10.8,6.9-16.3,9.6c-2.8,1.3-5.6,2.5-8.4,3.3c-2.8,0.8-5.6,1.4-8.5,1.5
						c-5.7,0.4-11.4-0.6-17.1-2.3c-2.9-0.9-5.7-1.9-8.5-3l-2.1-0.9l-2.1-0.9l-1.1-0.5l-1.1-0.5l-2.1-1c-0.1,0-0.2-0.1-0.3-0.1
						c-0.9-0.4-1.9-0.5-2.8-0.5c-0.9,0-1.9,0.2-2.8,0.6c-1.8,0.7-3.3,2.1-4.1,4l0,0c-0.9,2-0.8,4.1,0,5.9c0.8,1.8,2.4,3.4,4.4,4.1
						l2.4,0.8l1.2,0.4l1.2,0.4c0.8,0.2,1.6,0.5,2.4,0.7l2.5,0.7c3.3,0.9,6.7,1.7,10.1,2.3c3.4,0.6,7,1,10.6,1
						c3.6,0.1,7.2-0.2,10.8-0.9c3.6-0.7,7-1.8,10.3-3.2c3.3-1.4,6.3-3.1,9.2-4.9c2.9-1.8,5.6-3.8,8.2-5.8
						C188,448.7,190.5,446.6,193,444.5z"/>
				</g>
			</g>
			<g>
				<g>
					<g>
						<path class="st2" d="M126.9,447.4l0-0.3l-0.4-0.2l-1.1-0.5l-3.2-1.5c-0.1,0-0.2-0.1-0.3-0.1c-0.9-0.4-1.9-0.6-2.9-0.6
							c-0.4,0-0.7,0-1.1,0.1l0.1,0.3c0.3,0,0.6-0.1,1-0.1c0.9,0,1.9,0.2,2.8,0.5c0.1,0,0.2,0.1,0.3,0.1l2.1,1l1.1,0.5l1.1,0.5
							L126.9,447.4z M138.9,451.9l0-0.3c-1.9-0.6-3.8-1.2-5.9-2l-0.1,0.3C134.9,450.6,136.9,451.3,138.9,451.9z M117.4,459.8
							l0.2-0.2l-1.1-0.4c-2.1-0.8-3.7-2.3-4.4-4.1c-0.8-1.8-0.8-4,0-5.9l0,0c0.7-1.5,1.7-2.6,3-3.4l-0.1-0.3
							c-1.4,0.8-2.4,2.1-3.1,3.6l0,0c-0.4,1-0.7,2-0.7,3.1c0,1.1,0.2,2.1,0.6,3.1c0.8,2,2.5,3.5,4.6,4.3L117.4,459.8z M151.1,465.7
							l-0.1-0.3c-1.4,0.1-2.8,0.1-4.1,0.1c-3.6-0.1-7.1-0.5-10.6-1c-3.4-0.6-6.8-1.4-10.1-2.3l-2.5-0.7c0,0,0,0-0.1,0l0,0.3l0,0
							l2.5,0.7c3.7,1,7,1.7,10.1,2.3c3.8,0.6,7.3,1,10.6,1C148.4,465.8,149.7,465.8,151.1,465.7z M170.3,460.7
							c2.3-1.1,4.6-2.4,7.1-4c2.6-1.6,5.2-3.5,8.2-5.8c1.1-0.8,2.2-1.7,3.3-2.6l-0.4-0.1c-1,0.8-2.1,1.7-3.1,2.5
							c-2.6,2-5.3,4-8.2,5.8c-2.2,1.4-4.6,2.8-7,4C170.2,460.6,170.2,460.6,170.3,460.7z M175.6,448.3l-0.2-0.2
							c-0.8,0.4-1.5,0.8-2.3,1.1c-3,1.4-5.7,2.5-8.3,3.3c-2.9,0.8-5.7,1.4-8.4,1.5c-1.4,0.1-2.8,0.1-4.3,0l-0.1,0.3
							c1.5,0.1,2.9,0.1,4.4,0c2.8-0.2,5.7-0.7,8.5-1.5c2.8-0.8,5.6-2,8.4-3.3C174,449.1,174.8,448.7,175.6,448.3z M177.9,447
							c3.9-2.2,7.8-4.6,11.6-7.1l1.6,2.1c0.1,0,0.2,0,0.3-0.1l-1.8-2.5l-0.2,0.1c-3.5,2.3-7.5,4.9-11.6,7.1L177.9,447z"/>
					</g>
				</g>
			</g>
		</g>
	</g>
</g>
</svg>
