<?xml version="1.0" encoding="utf-8"?>
<!-- Generator: Adobe Illustrator 24.2.0, SVG Export Plug-In . SVG Version: 6.00 Build 0)  -->
<svg version="1.1" id="图层_1" xmlns="http://www.w3.org/2000/svg" xmlns:xlink="http://www.w3.org/1999/xlink" x="0px" y="0px"
	 viewBox="0 0 700 700" style="enable-background:new 0 0 700 700;" xml:space="preserve">
<style type="text/css">
	.st0{fill:#84A9FF;}
	.st1{fill:#E5E6EB;}
	.st2{fill:#F5BDC8;}
	.st3{fill:#155BCD;}
	.st4{opacity:0;}
	.st5{fill:#050F64;}
	.st6{fill:#FFFFFF;}
	.st7{fill:#EA8096;}
	.st8{fill:#FFBD00;}
	.st9{opacity:0.5;}
	.st10{fill:#DCA000;}
	.st11{fill:#F4BCC7;}
</style>
<g>
	<g>
		<path class="st0" d="M31.1,233.7h-1.3V225h1.3V233.7z M31.1,216.4h-1.3v-8.7h1.3V216.4z M31.1,199h-1.3v-8.7h1.3V199z M31.1,181.7
			h-1.3v-8.7h1.3V181.7z M340.3,172.9h-3.9v-1.3h2.6v-4.7h1.3V172.9z M327.7,172.9h-8.7v-1.3h8.7V172.9z M310.4,172.9h-8.7v-1.3h8.7
			V172.9z M293.1,172.9h-8.7v-1.3h8.7V172.9z M31.1,164.4h-1.3v-8.7h1.3V164.4z M340.3,158.2H339v-8.7h1.3V158.2z M31.1,147.1h-1.3
			v-8.7h1.3V147.1z M340.3,140.9H339v-8.7h1.3V140.9z M31.1,129.8h-1.3v-8.7h1.3V129.8z M340.3,123.6H339V115h1.3V123.6z
			 M31.1,112.5h-1.3v-8.7h1.3V112.5z M340.3,106.3H339v-8.7h1.3V106.3z M333.5,95.9h-8.7v-1.3h8.7V95.9z M316.1,95.9h-8.7v-1.3h8.7
			V95.9z M298.8,95.9h-8.7v-1.3h8.7V95.9z M281.5,95.9h-8.7v-1.3h8.7V95.9z M264.2,95.9h-8.7v-1.3h8.7V95.9z M246.9,95.9h-8.7v-1.3
			h8.7V95.9z M229.6,95.9h-8.7v-1.3h8.7V95.9z M212.3,95.9h-8.7v-1.3h8.7V95.9z M195,95.9h-8.7v-1.3h8.7V95.9z M177.7,95.9H169v-1.3
			h8.7V95.9z M160.3,95.9h-8.7v-1.3h8.7V95.9z M143,95.9h-8.7v-1.3h8.7V95.9z M125.7,95.9h-8.7v-1.3h8.7V95.9z M108.4,95.9h-8.7
			v-1.3h8.7V95.9z M91.1,95.9h-8.7v-1.3h8.7V95.9z M73.8,95.9h-8.7v-1.3h8.7V95.9z M56.5,95.9h-8.7v-1.3h8.7V95.9z M39.2,95.9h-8.7
			v-1.3h8.7V95.9z"/>
	</g>
	<g>
		<path class="st1" d="M61.7,465.1c8,42.4,38.6,79.1,77.5,97.7s85,20,126.2,7.1c37.4-11.7,71.8-34.7,110.9-37.1
			c62.7-3.8,119.2,46.4,182,43.1c43.8-2.3,84.7-33.7,98.2-75.4c13.6-41.7-1.1-91.1-35.1-118.7c-17.5-14.2-41.7-26.9-42.2-49.4
			c-0.5-22.8,23.9-36.9,35.8-56.3c15.8-25.7,7-61.7-15.5-81.8s-55.3-25.5-84.9-20c-29.6,5.6-56.4,21-80.9,38.7
			c-23.1,16.7-46.1,36.3-74.3,40.3c-31.8,4.6-62.4-11.6-92.7-22.3c-38.1-13.5-91.3-13.9-103.4,33.6c-3,11.8-3.8,24.1-6.8,35.9
			c-4.2,16.2-13,31-24.8,42.7c-12.3,12.3-28.1,16.6-41.4,26.5C62,390.9,55.6,432.7,61.7,465.1z"/>
	</g>
	<g>
		<g>
			<polygon class="st2" points="370.4,289.6 379.5,342.9 382.6,342.4 383.5,289.1 			"/>
		</g>
		<g>
			<g>
				<path class="st3" d="M384.4,289.1l-14.7,0.6c-4-9.8-7.5-31.4-3.4-41.4l16.5,3.7L384.4,289.1z"/>
			</g>
			<g>
				
					<ellipse transform="matrix(0.7301 -0.6834 0.6834 0.7301 -71.0303 323.6428)" class="st3" cx="374.2" cy="251.7" rx="8.6" ry="8.6"/>
			</g>
			<g class="st4">
				<polygon class="st3" points="374.2,251.7 374.2,251.7 374.1,251.7 374.2,251.7 				"/>
			</g>
		</g>
		<g>
			<polygon class="st2" points="353.6,287.4 348.6,341.2 351.8,341.5 366.3,290.2 			"/>
		</g>
		<g>
			<path class="st3" d="M369.4,243.5c-3.5-1-7.1,0.2-9.2,2.9l0,0c0,0,0,0,0,0c-0.2,0.2-0.3,0.4-0.4,0.6c-6.2,9-8.2,30-6.8,40.2
				l14.4,3.2l7.9-36.2c0,0,0,0,0,0C376.5,249.6,373.9,244.8,369.4,243.5z"/>
		</g>
		<g>
			<path class="st0" d="M369.3,280.8l-2.1,9.6l-2.4-0.5l0,0.3l2.6,0.6l2.2-9.9L369.3,280.8z M356.5,252.7c-1.4,3.8-2.6,8.5-3.3,13.9
				c0,0.1,0,0.2,0,0.3l0.3,0c0.7-5,1.8-9.9,3.3-14L356.5,252.7z M352.2,278.5l0.3,0c0-2.4,0.2-4.9,0.4-7.4l-0.3,0
				C352.4,273.6,352.2,276.1,352.2,278.5z M352.8,287.2c-0.2-1.4-0.3-3-0.4-4.8l-0.3,0c0.1,1.7,0.2,3.4,0.4,4.8l0,0.2l8.7,1.9
				l0.1-0.3L352.8,287.2z M373.1,263.5l-1.9,8.6h0.3l1.9-8.6H373.1z"/>
		</g>
		<g>
			<path class="st5" d="M358.8,344.8c-0.2-0.4-0.7-0.6-1.1-0.8c-0.4-0.1-0.9-0.2-1.3-0.2c-1.1-0.2-2.2-0.6-3.1-1.3
				c-0.5-0.3-0.9-0.7-1.4-1l-3.2-0.3c-0.5,0.4-0.8,1-1,1.6c-0.2,0.6-0.3,1.1-0.3,1.7l-0.1,0.7l11.7,1.3l0.1-0.7l0,0
				C359,345.5,359,345.1,358.8,344.8z"/>
		</g>
		<g>
			<path class="st5" d="M390.1,343.8c-0.3-0.3-0.8-0.4-1.3-0.4c-0.5,0-0.9,0.1-1.4,0.1c-1.1,0.1-2.2,0-3.3-0.4
				c-0.5-0.2-1.1-0.5-1.6-0.6l-3.2,0.5c-0.4,0.5-0.6,1.2-0.6,1.8c0,0.6,0,1.2,0.2,1.7l0.1,0.7l11.6-1.7l-0.1-0.7l0,0
				C390.6,344.4,390.4,344,390.1,343.8z"/>
		</g>
	</g>
	<g>
		<g>
			<path class="st5" d="M601,570.4L601,570.4c0,13.1-8.2,23.8-18.3,23.8H126c-10.1,0-18.3-10.6-18.3-23.8l0,0H601z"/>
		</g>
		<g>
			<rect x="156.5" y="302" class="st0" width="395.7" height="248.5"/>
		</g>
		<g>
			<path class="st5" d="M149.6,275.8h409.6c7.6,0,13.8,6.2,13.8,13.8V552c0,7.6-6.2,13.8-13.8,13.8H149.6c-7.6,0-13.8-6.2-13.8-13.8
				V289.6C135.7,282,141.9,275.8,149.6,275.8z"/>
		</g>
		<g>
			<rect x="156.5" y="296.5" class="st6" width="395.7" height="248.5"/>
		</g>
		<g>
			<g>
				<polygon class="st1" points="411.4,570.4 510.9,570.4 510.6,566 510.2,560.5 412.2,560.5 				"/>
			</g>
			<g>
				<polygon class="st1" points="197.8,570.4 297.3,570.4 296.9,566 296.5,560.5 198.6,560.5 				"/>
			</g>
		</g>
		<g>
			<g>
				<rect x="156.5" y="296.5" class="st6" width="395.7" height="248.5"/>
			</g>
			<g>
				<rect x="176" y="486.8" class="st1" width="356.8" height="38.8"/>
			</g>
			<g>
				<rect x="283.9" y="408" class="st1" width="248.8" height="70.1"/>
			</g>
			<g>
				<rect x="176" y="350.9" class="st1" width="356.8" height="48.5"/>
			</g>
			<g>
				<rect x="176" y="316" class="st1" width="356.8" height="26.2"/>
			</g>
			<g>
				<rect x="176" y="408" class="st1" width="99.3" height="30.7"/>
			</g>
			<g>
				<rect x="176" y="447.4" class="st1" width="99.3" height="30.7"/>
			</g>
		</g>
	</g>
	<g>
		<g>
			<path class="st1" d="M62.9,271.5l-5.4-4.8l-5.7,5.1l4.1,6c-0.9,1.3-1.6,2.8-2.1,4.3l-7.2,0.5l-0.5,7.6l7.1,1.4
				c0.3,1.6,0.8,3.1,1.6,4.5l-4.8,5.4l5.1,5.7l6-4.1c1.3,0.9,2.8,1.6,4.3,2.1l0.5,7.2l7.6,0.5l1.4-7.1c1.6-0.3,3.1-0.8,4.5-1.6
				l5.4,4.8l5.7-5.1l-4.1-6c0.9-1.3,1.6-2.8,2.1-4.3l7.2-0.5l0.5-7.6l-7.1-1.4c-0.3-1.6-0.9-3.1-1.6-4.5l4.8-5.4l-5.1-5.7l-6,4.1
				c-1.3-0.9-2.8-1.6-4.3-2.1l-0.5-7.2l-7.6-0.5l-1.4,7.1C65.8,270.2,64.3,270.8,62.9,271.5z M79.8,284.9c1.7,4.8-0.9,10.1-5.7,11.8
				c-4.8,1.7-10.1-0.9-11.8-5.7c-1.7-4.8,0.9-10.1,5.7-11.8C72.9,277.5,78.1,280,79.8,284.9z"/>
		</g>
		<g>
			<path class="st1" d="M25,257l-5.1-2.4l-3.3,5l4.3,3.6c-0.4,1.2-0.6,2.4-0.7,3.7l-5.3,1.9l1.2,5.8l5.6-0.5
				c0.6,1.1,1.3,2.2,2.1,3.1l-2.4,5.1l5,3.3l3.6-4.3c1.2,0.4,2.4,0.6,3.7,0.7l1.9,5.3l5.8-1.2l-0.5-5.6c1.1-0.6,2.2-1.3,3.1-2.1
				l5.1,2.4l3.3-5l-4.3-3.6c0.4-1.2,0.6-2.4,0.7-3.7l5.3-1.9l-1.2-5.8l-5.6,0.5c-0.6-1.1-1.3-2.2-2.1-3.1l2.4-5.1l-5-3.3l-3.6,4.3
				c-1.2-0.4-2.4-0.6-3.7-0.7l-1.9-5.3l-5.8,1.2l0.5,5.6C27,255.5,26,256.2,25,257z M40.6,263.6c2.3,3.3,1.4,7.8-1.9,10.1
				c-3.3,2.3-7.8,1.4-10.1-1.9c-2.3-3.3-1.4-7.8,1.9-10.1C33.8,259.5,38.3,260.3,40.6,263.6z"/>
		</g>
	</g>
	<g>
		<g>
			<g>
				<g>
					<path class="st7" d="M428.8,242.5c0-0.9-0.6-1.6-1.5-1.7c-2.5-0.2-5-0.5-7.5-0.8c-2.5-0.3-4.9-0.7-7.3-1.1
						c-2.4-0.5-4.7-1.1-6.8-1.9c-2.1-0.8-4.1-1.9-5.9-3.2c-3.5-2.6-6.4-6.2-9.1-10.2c-0.3-0.5-0.7-1-1-1.5l-1-1.5
						c-0.6-1-1.3-2.1-1.9-3.1c-1.3-2.1-2.5-4.3-3.7-6.4c-1.6-2.7-5.2-3.6-7.9-1.8c-2.7,1.7-3.4,5.4-1.5,8c1.5,2,3.1,4.1,4.7,6.1
						c0.8,1,1.6,2,2.5,3l1.3,1.5c0.4,0.5,0.9,1,1.3,1.5c1.8,2,3.6,3.9,5.7,5.8c2.1,1.8,4.4,3.5,6.9,4.9c2.5,1.4,5.2,2.3,7.9,3
						c2.7,0.6,5.4,1,8,1.1c2.6,0.2,5.2,0.2,7.8,0.2c2.6,0,5.1-0.1,7.6-0.2C428.1,244,428.7,243.3,428.8,242.5z"/>
				</g>
			</g>
			<g>
				<path class="st5" d="M380.6,229.6l-7.3-10.6c-2.2-3.2-1.7-7.5,1.5-9.7l0,0c3.2-2.2,7.9-1.5,10.1,1.8l7.3,10.6L380.6,229.6z"/>
			</g>
		</g>
		<g>
			<rect x="406.5" y="235.3" class="st1" width="252.8" height="298.6"/>
		</g>
		<g>
			
				<rect x="384.9" y="259.5" transform="matrix(-1.836970e-16 1 -1 -1.836970e-16 917.4846 -148.26)" class="st6" width="296" height="250.2"/>
		</g>
		<g>
			<rect x="406.5" y="235.3" class="st3" width="252.8" height="90.4"/>
		</g>
		<g>
			<g>
				<circle class="st5" cx="472" cy="325.7" r="40.6"/>
			</g>
			<g>
				<g>
					<path class="st6" d="M472,327.6c-9.8,0-17.8,7.9-17.8,17.8v5.9h35.5v-5.9C489.8,335.5,481.8,327.6,472,327.6z"/>
				</g>
				<g>
					<path class="st6" d="M472,324c6.8,0,12.4-5.5,12.4-12.4s-5.5-12.4-12.4-12.4c-6.8,0-12.4,5.5-12.4,12.4S465.2,324,472,324z"/>
				</g>
			</g>
		</g>
		<g>
			<g>
				<rect x="424" y="458.6" class="st1" width="217.7" height="5.6"/>
			</g>
			<g>
				<rect x="424" y="476.4" class="st1" width="217.7" height="5.6"/>
			</g>
			<g>
				<rect x="424" y="494.1" class="st1" width="217.7" height="5.6"/>
			</g>
			<g>
				<rect x="424" y="511.9" class="st1" width="217.7" height="5.6"/>
			</g>
		</g>
		<g>
			<g>
				<g>
					<path class="st1" d="M624.8,431.9l-12.2-13c7.3-6.8,11.3-16,11.3-26h17.8C641.7,407.6,635.6,421.8,624.8,431.9z"/>
				</g>
			</g>
			<g>
				<g>
					<path class="st3" d="M641.7,392.8h-17.8c0-19.6-16-35.6-35.6-35.6c-4.2,0-8.3,0.7-12.3,2.2l-6.1-16.7
						c5.9-2.2,12.1-3.3,18.4-3.3C617.8,339.4,641.7,363.4,641.7,392.8z"/>
				</g>
			</g>
			<g>
				<g>
					<path class="st8" d="M588.4,446.2c-29.4,0-53.4-24-53.4-53.4c0-22.3,14.1-42.4,35-50.1l6.1,16.7c-13.9,5.1-23.3,18.5-23.3,33.4
						c0,19.6,16,35.6,35.6,35.6c9,0,17.6-3.4,24.2-9.5l12.2,13C614.8,441.1,601.9,446.2,588.4,446.2z"/>
				</g>
			</g>
		</g>
		<g>
			<path class="st0" d="M680,393.4h-8.7v-1.3h8.7V393.4z M662.7,393.4H654v-1.3h8.7V393.4z M685,388.5h-1.3v-8.7h1.3V388.5z
				 M685,371.2h-1.3v-8.7h1.3V371.2z M685,353.9h-1.3v-8.7h1.3V353.9z M685,336.6h-1.3v-8.7h1.3V336.6z M685,319.3h-1.3v-8.7h1.3
				V319.3z M685,301.9h-1.3v-8.7h1.3V301.9z M685,284.6h-1.3V276h1.3V284.6z M472.7,272.5h-1.3v-8.7h1.3V272.5z M685,267.3h-1.3
				v-8.7h1.3V267.3z M472.7,255.2h-1.3v-8.7h1.3V255.2z M685,250h-1.3v-8.7h1.3V250z M472.7,237.9h-1.3v-8.7h1.3V237.9z M685,232.7
				h-1.3V224h1.3V232.7z M472.7,220.6h-1.3v-8.7h1.3V220.6z M685,215.4h-1.3v-8.7h1.3V215.4z M472.7,203.3h-1.3V198h4.7v1.3h-3.4
				V203.3z M683.8,199.3h-8.7V198h8.7V199.3z M666.5,199.3h-8.7V198h8.7V199.3z M649.2,199.3h-8.7V198h8.7V199.3z M631.9,199.3h-8.7
				V198h8.7V199.3z M614.5,199.3h-8.7V198h8.7V199.3z M597.2,199.3h-8.7V198h8.7V199.3z M579.9,199.3h-8.7V198h8.7V199.3z
				 M562.6,199.3H554V198h8.7V199.3z M545.3,199.3h-8.7V198h8.7V199.3z M528,199.3h-8.7V198h8.7V199.3z M510.7,199.3H502V198h8.7
				V199.3z M493.4,199.3h-8.7V198h8.7V199.3z"/>
		</g>
		<g>
			<g>
				<path class="st5" d="M371.1,206.7L371.1,206.7c9.8,0.1,17.2,8.9,15.6,18.6l-3.9,26.1c-7,2.5-17,1.6-25.1-0.8l0-29.7
					C357.2,213.1,363.4,206.6,371.1,206.7z"/>
			</g>
			<g>
				<path class="st3" d="M357.4,237.7l0,11.3l0.3,0l0-11.3H357.4z M371.1,206.4c-0.1,0-0.1,0-0.2,0c-0.4,0-0.8,0-1.3,0.1l0,0.3
					c0.5,0,0.9-0.1,1.4-0.1c2.2,0,4.3,0.5,6.3,1.3l0.1-0.2C375.5,206.9,373.3,206.4,371.1,206.4z M383.4,212.2
					c-0.9-1-1.8-1.9-2.9-2.7l-0.2,0.2c4,2.9,6.6,7.7,6.6,12.9c0,0.9-0.1,1.7-0.2,2.6l-0.9,5.7l0.3,0.1l0.9-5.7
					C387.7,220.6,386.4,215.8,383.4,212.2z M382.8,251.3c-6.4,2.3-15.1,1.7-22.7-0.1l0,0.3c4.3,1.1,8.8,1.6,12.8,1.6
					c3.8,0,7.2-0.5,10-1.5l0.2-0.1l2.3-14.9l-0.3,0L382.8,251.3z M364.3,208.4l-0.1-0.3c-1.2,0.7-2.2,1.5-3.2,2.5
					c-2.6,2.8-3.9,6.4-3.6,10.1l0,7h0.3l0-7C357.4,215.5,360.1,210.9,364.3,208.4z"/>
			</g>
			<g>
				<g>
					<path class="st2" d="M375.7,202.2l-0.4,7.9c-2.2,1.2-4.4,1.1-6.4-0.5l0.4-7.9L375.7,202.2z"/>
				</g>
				<g>
					<path class="st7" d="M375.5,204.6l0,0.9c-1,0.5-2.2,0.8-3.4,0.7c-0.1,0-0.1,0-0.2,0c-1.1-0.1-2.1-0.5-2.8-1.3l0.1-2.3
						L375.5,204.6z"/>
				</g>
				<g>
					<path class="st2" d="M379,193.1l-0.6,5.7l-0.1,1.3c-0.3,3.1-3,5.5-6.2,5.4c-0.3,0-0.6-0.1-0.9-0.2c-0.1,0-0.2-0.1-0.4-0.1
						c0,0,0,0-0.1,0c-0.4-0.2-0.8-0.5-1.2-0.9c-0.7-0.8-1.1-1.8-1.5-2.7c-0.3-0.8-0.6-1.6-0.8-2.4c-0.2-1-0.3-2-0.2-3l0.2-3.9
						l10.1-1.6L379,193.1z"/>
				</g>
				<g>
					<path class="st5" d="M378.7,202.1c0,0,0-3.4-0.1-5v0c-0.1-1.6-0.5-3-1.6-2.9c-2.3,0.4-3.1-1.5-3.1-1.5s0,0,0,0
						c-0.6,0-1.3,0.1-2,0.3c-3.4,0.9-3.9,0-4.3-0.5c-0.9,2.6-0.5,6-0.5,6.3c0,0,0,0,0,0c0,0,0,0,0,0c0,0.2,0.1,0.3,0.1,0.5
						c0.2,0.8,0.5,1.6,0.8,2.4c0.3,0.7,0.7,1.5,1.1,2.2l0,0.5c-2.3-0.4-5.4-3-6-5.1c-2.5-7.8,1.7-12.5,7.7-13.6
						c5.2-1,8.1,3.8,9.1,8.2C380.6,196.4,379.3,201.4,378.7,202.1z"/>
				</g>
				<g>
					
						<ellipse transform="matrix(0.1171 -0.9931 0.9931 0.1171 127.9313 538.4241)" class="st2" cx="366.8" cy="197.3" rx="2.3" ry="2.3"/>
				</g>
			</g>
			<g>
				<g>
					<g>
						<path class="st2" d="M417.4,248.2c0-0.9-0.6-1.6-1.5-1.7c-2.5-0.3-5-0.6-7.5-0.9c-2.5-0.3-4.9-0.7-7.3-1.2
							c-2.4-0.5-4.7-1.1-6.8-2c-2.1-0.9-4.1-1.9-5.8-3.2c-3.5-2.6-6.3-6.3-9-10.3c-0.3-0.5-0.7-1-1-1.5l-1-1.5
							c-0.6-1.1-1.3-2.1-1.9-3.2c-1.2-2.1-2.5-4.3-3.7-6.5c-1.6-2.7-5.2-3.6-7.9-1.9c-2.7,1.7-3.5,5.4-1.6,8
							c1.5,2.1,3.1,4.1,4.6,6.2c0.8,1,1.6,2,2.4,3.1l1.3,1.5c0.4,0.5,0.9,1,1.3,1.5c1.7,2,3.6,4,5.6,5.8c2,1.9,4.3,3.6,6.8,5
							c2.5,1.4,5.2,2.4,7.9,3.1c2.7,0.7,5.3,1,8,1.2c2.6,0.2,5.2,0.3,7.7,0.3c2.6,0,5.1,0,7.6-0.1
							C416.7,249.8,417.4,249.1,417.4,248.2z"/>
					</g>
				</g>
				<g>
					<path class="st5" d="M369.2,234.5l-7.2-10.7c-2.2-3.2-1.6-7.5,1.7-9.7l0,0c3.2-2.2,7.9-1.4,10.1,1.9l7.2,10.7L369.2,234.5z"/>
				</g>
				<g>
					<path class="st3" d="M369.2,212.7c-1.3-0.2-2.5-0.1-3.7,0.2l0.1,0.3c3-0.9,6.4,0.1,8.2,2.7l0.6,0.9l0.2-0.2l-0.6-0.9
						C372.9,214.2,371.2,213.1,369.2,212.7z M380.9,226.6l-9.5,6.4l0.2,0.2l9.8-6.5l-4.1-6.1l-0.2,0.2L380.9,226.6z M362.6,214.6
						c-2.2,2.1-2.7,5.4-1.3,8.3l0.3-0.1c-1.3-2.7-0.8-5.9,1.2-7.9L362.6,214.6z M368.5,233.9l0.2-0.1l-3.4-5.2l-0.2,0.1L368.5,233.9
						z"/>
				</g>
			</g>
		</g>
	</g>
	<g>
		<g>
			<g>
				<path class="st5" d="M47.2,392.1l-16.8-16.8l135.8-135.8l16.8,16.8L47.2,392.1z M36.3,375.4l10.9,10.9l129.9-129.9l-10.9-10.9
					L36.3,375.4z"/>
			</g>
		</g>
		<g>
			<g>
				<g>
					<circle class="st8" cx="238.6" cy="290.2" r="17.5"/>
				</g>
			</g>
			<g>
				<g>
					<polygon class="st3" points="183.3,272 149.8,225.5 173.9,201.4 220.4,234.9 					"/>
				</g>
			</g>
			<g>
				<g>
					<path class="st0" d="M191.7,320.7L191.7,320.7c-16.9-16.9-16.9-44.2,0-61l16.4-16.4c16.9-16.9,44.2-16.9,61,0v0L191.7,320.7z"
						/>
				</g>
			</g>
			<g class="st9">
				<g>
					<path class="st5" d="M269.1,243.3l-7.6,7.6c-13.1-13.1-35-17.2-50.9-10c-0.2,0.1,0.1-0.1,0,0l0,0l-44.4-32l7.6-7.6l46.4,33.4
						C236.2,227.3,255.9,230.1,269.1,243.3z"/>
				</g>
			</g>
			<g>
				<g>
					<path class="st5" d="M191.7,320.7L191.7,320.7l77.4-77.4l0,0c4.5,4.5,4.5,11.8,0,16.3l-61.1,61.1
						C203.6,325.2,196.3,325.2,191.7,320.7z"/>
				</g>
			</g>
			<g>
				<g>
					<polygon class="st5" points="154.3,221 148.3,212 160.5,199.8 169.4,205.9 					"/>
				</g>
			</g>
		</g>
		<g>
			<g>
				<path class="st5" d="M182.5,568.9l-147.7-188l18.6-14.6l147.7,188L182.5,568.9z M40.6,381.6l142.6,181.5l12.1-9.5L52.8,372.1
					L40.6,381.6z"/>
			</g>
		</g>
		<g>
			<g>
				<circle class="st5" cx="50.3" cy="375.4" r="23.7"/>
			</g>
		</g>
		<g>
			<g>
				<circle class="st3" cx="50.3" cy="375.4" r="12.5"/>
			</g>
		</g>
		<g>
			<g>
				<rect x="107.7" y="549.4" class="st3" width="123.4" height="20.9"/>
			</g>
		</g>
		<g>
			<g>
				<polygon class="st5" points="201.8,549.4 137,549.4 144.1,528.5 194.8,528.5 				"/>
			</g>
		</g>
	</g>
	<g>
		<g>
			<g>
				<path class="st8" d="M100.6,139.7l-2.3,0c-0.6,0-1.2-0.5-1.2-1.2l0.1-20.8c0-0.6,0.5-1.2,1.2-1.2l2.3,0c0.6,0,1.2,0.5,1.2,1.2
					l-0.1,20.8C101.8,139.2,101.2,139.7,100.6,139.7z"/>
			</g>
		</g>
		<g>
			<g>
				<path class="st8" d="M75.4,149.1l-1.6,1.6c-0.5,0.5-1.2,0.5-1.7,0L57.5,136c-0.5-0.5-0.5-1.2,0-1.7l1.6-1.6
					c0.5-0.5,1.2-0.5,1.7,0l14.6,14.8C75.9,147.9,75.9,148.7,75.4,149.1z"/>
			</g>
		</g>
		<g>
			<g>
				<path class="st8" d="M64.3,173.6l0,2.3c0,0.6-0.5,1.2-1.2,1.2L42.3,177c-0.6,0-1.2-0.5-1.2-1.2l0-2.3c0-0.6,0.5-1.2,1.2-1.2
					l20.8,0.1C63.8,172.4,64.3,172.9,64.3,173.6z"/>
			</g>
		</g>
		<g>
			<g>
				<path class="st8" d="M73.7,198.7l1.6,1.6c0.5,0.5,0.5,1.2,0,1.7l-14.8,14.6c-0.5,0.5-1.2,0.5-1.7,0l-1.6-1.6
					c-0.5-0.5-0.5-1.2,0-1.7L72,198.7C72.5,198.3,73.2,198.3,73.7,198.7z"/>
			</g>
		</g>
		<g>
			<g>
				<path class="st8" d="M123.3,200.5l1.6-1.6c0.5-0.5,1.2-0.5,1.7,0l14.6,14.8c0.5,0.5,0.5,1.2,0,1.7l-1.6,1.6
					c-0.5,0.5-1.2,0.5-1.7,0l-14.6-14.8C122.8,201.7,122.9,200.9,123.3,200.5z"/>
			</g>
		</g>
		<g>
			<g>
				<path class="st8" d="M134.4,176l0-2.3c0-0.6,0.5-1.2,1.2-1.2l20.8,0.1c0.6,0,1.2,0.5,1.2,1.2l0,2.3c0,0.6-0.5,1.2-1.2,1.2
					l-20.8-0.1C135,177.2,134.4,176.7,134.4,176z"/>
			</g>
		</g>
		<g>
			<g>
				<path class="st8" d="M125,150.9l-1.6-1.6c-0.5-0.5-0.5-1.2,0-1.7l14.8-14.6c0.5-0.5,1.2-0.5,1.7,0l1.6,1.6
					c0.5,0.5,0.5,1.2,0,1.7l-14.8,14.6C126.2,151.3,125.5,151.3,125,150.9z"/>
			</g>
		</g>
		<g>
			<g>
				<g>
					<g>
						<path class="st8" d="M129.6,174.9c0,8.6-3.7,16.4-9.5,21.9c-1.9,1.8-3.4,4-4.5,6.4c-1,2.4-1.6,5-1.6,7.7
							c0,2.8-1.1,5.3-2.8,7.3c-1.5,1.7-3.4,2.9-5.6,3.4c-0.9,0.2-1.8,0.3-2.7,0.3l-7.8,0c-3.1,0-5.8-1.3-7.8-3.3
							c-2-2-3.2-4.8-3.2-7.8c0-5.4-2.2-10.5-6-14.2c-5.7-5.5-9.2-13.3-9.2-21.9c0-4.3,0.9-8.4,2.6-12c0.3-0.6,0.6-1.3,0.9-1.9
							c5.1-9.6,15.2-16.2,26.7-16.3C116,144.4,129.7,158.1,129.6,174.9z"/>
					</g>
				</g>
				<g>
					<g>
						<path class="st10" d="M111.4,218.2c-1.5,1.7-3.4,2.9-5.6,3.4c-0.9,0.2-1.8,0.3-2.7,0.3l-7.8,0c-3.1,0-5.8-1.3-7.8-3.3
							c-2-2-3.2-4.8-3.2-7.8c0-5.4-2.2-10.5-6-14.2c-5.7-5.5-9.2-13.3-9.2-21.9c0-4.3,0.9-8.4,2.6-12c1.9,11.3,6.6,26.9,18.3,37.4
							C89.9,200,86.6,220.3,111.4,218.2z"/>
					</g>
				</g>
				<g>
					<g>
						
							<ellipse transform="matrix(0.7618 -0.6478 0.6478 0.7618 -78.0459 113.0091)" class="st6" cx="114.7" cy="162.6" rx="6.4" ry="14.7"/>
					</g>
				</g>
				<g>
					<g>
						<path class="st3" d="M113.8,221.7c0,0.8-0.3,1.5-0.9,2.1c-0.1,0.1-0.3,0.3-0.5,0.4c-0.5,0.3-1,0.5-1.6,0.5l-23.6-0.1
							c-0.6,0-1.1-0.2-1.6-0.5c-0.8-0.5-1.3-1.4-1.3-2.5c0-0.8,0.3-1.5,0.9-2.1c0.5-0.5,1.3-0.8,2.1-0.8l23.6,0.1
							C112.5,218.8,113.8,220.1,113.8,221.7z"/>
					</g>
				</g>
				<g>
					<g>
						<path class="st3" d="M112.4,227.4c0,0.8-0.3,1.5-0.9,2.1c-0.1,0.1-0.3,0.3-0.5,0.4c-0.4,0.3-0.9,0.4-1.4,0.5
							c-0.1,0-0.1,0-0.2,0l-20.7-0.1c-0.1,0-0.1,0-0.2,0c-0.5,0-1-0.2-1.4-0.5c-0.8-0.5-1.3-1.4-1.3-2.5c0-0.8,0.3-1.5,0.9-2.1
							c0.5-0.5,1.3-0.9,2.1-0.8l20.7,0.1C111.1,224.5,112.4,225.8,112.4,227.4z"/>
					</g>
				</g>
				<g>
					<g>
						<path class="st3" d="M101.8,242.7l-5.4,0c-2.5,0-4.5-2.1-4.5-4.6l0-5l14.5,0.1l0,5C106.4,240.7,104.3,242.7,101.8,242.7z"/>
					</g>
				</g>
				<g>
					<g>
						<path class="st3" d="M109.9,233.2c0,0.8-0.3,1.5-0.9,2.1c-0.1,0.1-0.3,0.3-0.5,0.4c-0.5,0.3-1,0.5-1.6,0.5l-15.6-0.1
							c-0.6,0-1.1-0.2-1.6-0.5c-0.8-0.5-1.3-1.4-1.3-2.5c0-0.8,0.3-1.5,0.9-2.1c0.5-0.5,1.3-0.9,2.1-0.8l15.6,0.1
							C108.6,230.3,109.9,231.6,109.9,233.2z"/>
					</g>
				</g>
				<g>
					<g>
						<path class="st5" d="M112.5,224.1c-0.5,0.3-1,0.5-1.6,0.5l-23.6-0.1c-0.6,0-1.1-0.2-1.6-0.5L112.5,224.1z"/>
					</g>
				</g>
				<g>
					<g>
						<path class="st5" d="M111.1,229.9l-1.4,0.5l-21.1-0.1c-0.5,0-1-0.2-1.4-0.5L111.1,229.9z"/>
					</g>
				</g>
				<g>
					<g>
						<path class="st5" d="M108.6,235.7c-0.5,0.3-1,0.5-1.6,0.5l-15.6-0.1c-0.6,0-1.1-0.2-1.6-0.5L108.6,235.7z"/>
					</g>
				</g>
			</g>
			<g>
				<g>
					<path class="st10" d="M110.5,173.7c-1.1-1-2.7-1.6-4.3-1.5c-1.5,0.1-2.8,0.7-3.7,1.7c-1.1,1.3-1.5,2.9-1.7,4.3
						c-0.2,1.2-0.2,3.6-0.3,6.5c-0.4,0-2.2,0-2.6,0c0-2.9-0.1-5.3-0.3-6.5c-0.2-1.4-0.6-3-1.7-4.3c-0.9-1-2.2-1.6-3.7-1.7
						c-1.6-0.1-3.2,0.5-4.3,1.5c-2,1.9-2.6,5.1-1.5,7.8c1,2.3,3.1,4.2,5.7,5.1c0.9,0.3,1.9,0.6,3,0.7c0,6.1-0.1,31.3-0.1,31.4
						l2.7,0.1c0-0.5,0.1-25.4,0.1-31.4c0.4,0,2.2,0,2.6,0c0,6,0.1,30.9,0.1,31.4l2.7-0.1c0-0.1-0.1-25.3-0.1-31.4
						c1.1-0.1,2.1-0.3,3-0.7c2.7-0.9,4.8-2.8,5.7-5.1C113.1,178.7,112.5,175.5,110.5,173.7z M93.2,184.1c-1.9-0.7-3.5-2-4.2-3.6
						c-0.7-1.7-0.4-3.7,0.8-4.8c0.6-0.5,1.4-0.8,2.2-0.8c0.1,0,0.1,0,0.2,0c0.8,0,1.4,0.3,1.8,0.8c0.6,0.7,0.9,1.9,1,2.9
						c0.1,1,0.2,3.3,0.2,6C94.6,184.5,93.9,184.3,93.2,184.1z M109.5,180.4c-0.7,1.6-2.2,3-4.2,3.6c-0.7,0.2-1.4,0.4-2.1,0.5
						c0-2.7,0.1-5,0.2-6c0.1-1,0.4-2.2,1-2.9c0.4-0.5,1.1-0.8,1.8-0.8c0.1,0,0.1,0,0.2,0c0.8,0,1.6,0.3,2.2,0.8
						C109.9,176.7,110.2,178.7,109.5,180.4z"/>
				</g>
			</g>
		</g>
	</g>
	<g>
		<g>
			<g>
				<rect x="329.4" y="541.4" class="st8" width="188.3" height="29"/>
			</g>
			<g>
				<rect x="355.2" y="541.4" class="st10" width="1.3" height="8.5"/>
			</g>
			<g>
				<rect x="382.3" y="541.4" class="st10" width="1.3" height="8.5"/>
			</g>
			<g>
				<rect x="409.4" y="541.4" class="st10" width="1.3" height="8.5"/>
			</g>
			<g>
				<rect x="436.5" y="541.4" class="st10" width="1.3" height="8.5"/>
			</g>
			<g>
				<rect x="463.6" y="541.4" class="st10" width="1.3" height="8.5"/>
			</g>
			<g>
				<rect x="490.7" y="541.4" class="st10" width="1.3" height="8.5"/>
			</g>
		</g>
		<g>
			<g>
				<rect x="248.2" y="541.4" class="st8" width="188.3" height="29"/>
			</g>
			<g>
				<rect x="274" y="541.4" class="st10" width="1.3" height="8.5"/>
			</g>
			<g>
				<rect x="301.1" y="541.4" class="st10" width="1.3" height="8.5"/>
			</g>
			<g>
				<rect x="328.2" y="541.4" class="st10" width="1.3" height="8.5"/>
			</g>
			<g>
				<rect x="355.2" y="541.4" class="st10" width="1.3" height="8.5"/>
			</g>
			<g>
				<rect x="382.3" y="541.4" class="st10" width="1.3" height="8.5"/>
			</g>
			<g>
				<rect x="409.4" y="541.4" class="st10" width="1.3" height="8.5"/>
			</g>
		</g>
	</g>
	<g>
		<g>
			<path class="st5" d="M493.1,570.4l16,0c0-0.5-0.1-1.1-0.5-1.5c-0.4-0.5-1-0.7-1.6-0.9c-0.6-0.1-1.2-0.1-1.9-0.1
				c-1.5-0.1-3-0.5-4.3-1.3c-0.7-0.4-1.3-0.9-2.1-1.1l-4.4,0.1c-0.6,0.6-1,1.5-1.2,2.4C493,568.8,493,569.6,493.1,570.4z"/>
		</g>
		<g>
			<polygon class="st2" points="493.1,560.9 494.4,565.6 498.7,565.5 498.5,560.4 			"/>
		</g>
		<g>
			<path class="st3" d="M499.9,520.5c0.1-3-0.2-6.1-0.8-9.1c-2.1-10.3-5.9-30.1-5.9-30.1c-0.6-4.3-4.1-5.5-8.4-4.9
				c-2.5,0.3-25.8,5.2-25.8,5.4l5.1,78.9l6.5-0.2l6.9-62.2l10.7,19.5l0,0l4.5,43l6.2-0.4L499.9,520.5z"/>
		</g>
		<g>
			<path class="st5" d="M463.9,570.4h16c0-0.5-0.1-1.1-0.5-1.5c-0.4-0.5-1-0.7-1.6-0.9c-0.6-0.1-1.2-0.1-1.9-0.1
				c-1.5-0.1-3-0.5-4.3-1.3c-0.7-0.4-1.3-0.9-2.1-1.1l-4.4,0.1c-0.6,0.6-1,1.5-1.2,2.4C463.8,568.8,463.8,569.6,463.9,570.4z"/>
		</g>
		<g>
			<polygon class="st2" points="464.6,560.8 465.2,565.6 469.5,565.5 470.2,560.6 			"/>
		</g>
		<g>
			<g>
				<g>
					<path class="st7" d="M529,420.8c-0.8-0.1-1.6,0.3-1.8,1.1c-0.6,2.2-1.4,4.4-2.3,6.4c-1,2-2.1,3.8-3.5,5.3
						c-1.4,1.5-3,2.6-4.8,3.2c-0.9,0.3-1.8,0.6-2.7,0.7c-0.9,0.1-1.9,0.2-2.9,0.1c-2-0.1-4-0.5-6.1-1.1c-2-0.6-4.1-1.4-6.1-2.3
						c-2-0.9-4-1.9-5.9-3.1c-1.9-1.1-3.9-2.3-5.8-3.6c-1.2-0.8-2.7-0.9-4-0.5c-1.4,0.4-2.6,1.3-3.5,2.7v0c-0.8,1.4-1,2.9-0.7,4.3
						c0.4,1.4,1.3,2.7,2.7,3.4c2.2,1.1,4.5,2.1,6.8,3c2.3,0.9,4.7,1.8,7.1,2.5c2.4,0.7,5,1.3,7.6,1.7c2.6,0.4,5.3,0.5,8,0.3
						c1.4-0.1,2.8-0.4,4.1-0.8c1.4-0.4,2.7-0.9,4-1.6c2.5-1.4,4.6-3.4,6.2-5.6c1.6-2.2,2.6-4.6,3.4-7c0.8-2.4,1.2-4.9,1.5-7.3
						C530.4,421.7,529.8,421,529,420.8z"/>
				</g>
			</g>
			<g>
				<path class="st6" d="M496.2,447.3l-13.2-6.8c-4-2.1-5.8-6.7-3.8-10.7l0,0c2.1-4,7.2-5.8,11.2-3.7l13.2,6.8L496.2,447.3z"/>
			</g>
		</g>
		<g>
			<path class="st6" d="M476.7,425.2L476.7,425.2c8.7-0.8,16.3,6.1,16.3,14.9l0.2,41.3c-14,6.8-21.9,4.5-34.2,0.5l0.9-38.8
				C460.2,433.7,467.4,426.1,476.7,425.2z"/>
		</g>
		<g>
			<path class="st0" d="M493.3,440.1c0-8.4-6.9-15.2-15.3-15.2c-0.5,0-0.9,0-1.4,0.1c-0.2,0-0.4,0-0.7,0.1c0,0.1,0,0.2-0.1,0.3
				c0.2,0,0.5-0.1,0.8-0.1c0.5,0,0.9-0.1,1.4-0.1c8.2,0,14.9,6.6,15,14.9l0.1,15.1h0.3L493.3,440.1z M474.3,485.6l0,0.3
				c0.8,0.1,1.6,0.1,2.4,0.1c1.8,0,3.7-0.2,5.5-0.5l-0.1-0.3C479.4,485.7,476.9,485.8,474.3,485.6z M459.6,443.1l-0.2,9.4h0.3
				l0.2-9.4c0.1-4.8,2.1-9.1,5.2-12.3c-0.1-0.1-0.1-0.1-0.2-0.2C461.7,433.8,459.8,438.2,459.6,443.1z M459.2,473.2l-0.3,0l-0.2,8.9
				l0.2,0.1c1.5,0.5,3,1,4.3,1.4c0-0.1,0-0.2,0-0.3c-1.4-0.4-2.8-0.9-4.3-1.4L459.2,473.2z M493.4,466.7h-0.3l0.1,14.7
				c-0.9,0.5-1.9,0.9-2.8,1.3l0.1,0.3c0.9-0.4,1.9-0.8,2.8-1.3l0.2-0.1L493.4,466.7z"/>
		</g>
		<g>
			<g>
				<path class="st2" d="M481,420.5l-0.3,10.7c-2.4,1.4-4.7,1.4-6.9-0.2l0.3-10.7L481,420.5z"/>
			</g>
			<g>
				<path class="st7" d="M481,420.5l-0.1,4.8c-0.5,0.2-1,0.3-1.6,0.3c-0.2,0-0.4,0-0.5,0c-1.9-0.1-3.7-1-4.8-2.5l0.1-2.9L481,420.5z
					"/>
			</g>
			<g>
				<path class="st2" d="M484.3,414.1l-0.4,6.3c-0.2,2.5-2.2,4.5-4.7,4.6l0,0c-2.3,0.1-4.4-1.2-5.3-3.2c-0.6-1.4-1.2-3-1.7-4.6
					c-0.8-2.7-0.2-5.6,1.8-7.6c1.7-1.7,3.8-2.1,6.3-1.3C482.9,409,484.5,411.4,484.3,414.1z"/>
			</g>
		</g>
		<g>
			<g>
				<g>
					<path class="st2" d="M476.3,496.3c0.6-0.6,0.8-1.4,0.5-2.1c-1.1-1.9-2-4.1-2.7-6.3c-0.7-2.2-1.2-4.5-1.6-6.8
						c-0.1-0.6-0.2-1.1-0.3-1.7l-0.2-1.7l-0.2-1.7c-0.1-0.6-0.1-1.2-0.1-1.7l-0.1-0.9l0-0.9c0-0.6,0-1.2-0.1-1.7c0-1.2,0-2.3,0-3.5
						c0.2-9.4,1.7-18.7,3.9-27.8c0.1-0.4,0.1-0.7,0.1-1.1c0-0.4,0-0.7-0.1-1.1c-0.1-0.7-0.4-1.4-0.8-1.9c-0.8-1.2-2.1-2.1-3.7-2.4h0
						c-1.6-0.3-3.1,0-4.3,0.9c-0.6,0.4-1.1,1-1.5,1.6c-0.2,0.3-0.4,0.7-0.5,1c-0.1,0.4-0.2,0.7-0.3,1.1c-1,10-1.2,20.1,0,30.1
						c0.1,1.3,0.3,2.5,0.5,3.7c0.1,0.6,0.2,1.2,0.3,1.9l0.2,0.9l0.2,0.9c0.1,0.6,0.2,1.2,0.4,1.9l0.4,1.8l0.5,1.8
						c0.2,0.6,0.4,1.2,0.5,1.8c0.8,2.4,1.7,4.8,2.7,7.1c1.1,2.3,2.3,4.5,4,6.6C474.6,496.7,475.7,496.8,476.3,496.3z"/>
				</g>
			</g>
			<g>
				<path class="st6" d="M460.8,454.8l1.4-14.8c0.4-4.5,4.1-7.9,8.6-7.5l0,0c4.5,0.4,8,4.5,7.6,9l-1.4,14.8L460.8,454.8z"/>
			</g>
			<g>
				<path class="st0" d="M470.8,432.3c-0.3,0-0.5,0-0.8,0c-2.7,0-5.1,1.4-6.5,3.5l0.2,0.1c1.6-2.2,4.1-3.6,7.1-3.3
					c2.2,0.2,4.1,1.3,5.5,2.8l0.2-0.2C475.1,433.6,473,432.5,470.8,432.3z M478.1,444.6l-0.7,7.5h0.3l0.7-7.4L478.1,444.6z
					 M477,456.4l-8.8-0.8l0,0.3l9,0.9l0.1-1.4l-0.3,0L477,456.4z M461.5,444.5l-0.8,8.5l0.3,0l0.8-8.6H461.5z"/>
			</g>
		</g>
		<g>
			<g>
				<path class="st5" d="M483.1,410.7c0,0,1.2,2.1,1.1,5.9c0,0,0.8-3.9,0-6.9L483.1,410.7z"/>
			</g>
			<g>
				<path class="st5" d="M470,417.1c0,0-3.5-5,0-8.9c3.7-4.3,6.2-3.9,8.9-3.2c3.4,0.8,5.3,2,6.6,1.7c0.7-0.2,1.3-0.8,1.4-0.4
					c0.1,0.4,0.4,2.7-1.6,4.5c-1.9,1.8-4.5,1.6-7,0.3s-3.7-1.1-4.7,0.5c-1.1,1.7,0.5,4.6,0.5,4.6l-0.8,0.3
					C473.3,416.6,470.3,415,470,417.1z"/>
			</g>
		</g>
		<g>
			<path class="st2" d="M474.9,416.6c0,1.3-1.2,2.3-2.7,2.2s-2.6-1.1-2.5-2.4c0-1.3,1.2-2.3,2.7-2.2
				C473.8,414.3,474.9,415.3,474.9,416.6z"/>
		</g>
	</g>
	<g>
		<g>
			<path class="st5" d="M424.1,568.6c0.3-0.4,0.7-0.5,1.2-0.6c0.4-0.1,0.9-0.1,1.4-0.1c1.1-0.1,2.2-0.4,3.2-0.9
				c0.5-0.3,1-0.6,1.5-0.8l3.2,0.1c0.4,0.5,0.7,1.1,0.9,1.7c0.1,0.6,0.1,1.2,0.1,1.8v0.7h-11.7v-0.7h0
				C423.7,569.3,423.8,568.9,424.1,568.6z"/>
		</g>
		<g>
			<polygon class="st2" points="434.9,562.7 434.5,566.2 431.3,566.1 431.1,562.9 			"/>
		</g>
		<g>
			<path class="st5" d="M392.8,567.3c0.3-0.3,0.8-0.5,1.2-0.5c0.5,0,0.9,0,1.4,0.1c1.1,0.1,2.2-0.1,3.3-0.6c0.5-0.2,1-0.5,1.6-0.7
				l3.2,0.4c0.4,0.5,0.6,1.2,0.7,1.8c0.1,0.6,0,1.2-0.1,1.8l-0.1,0.7l-11.7-1.3l0.1-0.7l0,0C392.4,568,392.6,567.6,392.8,567.3z"/>
		</g>
		<g>
			<path class="st5" d="M437.7,511.1c0.7-12.4,0.6-29.9-2.8-39.8c0-0.2-25.9,2.1-25.9,2.1l-6,24.9c-2.1,8.7-3.2,17.7-3.1,26.7
				l0.3,37.3l4.4,0.3l8.1-49.4c3-5.9,6.2-12.6,8.7-19.2l9.4,68.8l4.4-0.2C435.2,562.7,437.7,511.2,437.7,511.1L437.7,511.1z"/>
		</g>
		<g>
			<polygon class="st2" points="404.3,562.7 403.5,566.1 400.3,565.7 400.5,562.4 			"/>
		</g>
		<g>
			<g>
				<g>
					<path class="st7" d="M357.7,426.7c0.4-0.8,1.3-1.1,2-0.8c4.5,1.7,9.1,3.3,13.7,4.6c4.6,1.3,9.3,2.3,13.9,2.9
						c4.7,0.6,9.3,0.9,14,0.8c2.3-0.1,4.6-0.2,6.9-0.4c0.6-0.1,1.1-0.1,1.7-0.2l1.7-0.2c1.1-0.2,2.3-0.4,3.4-0.6
						c0.4-0.1,0.7-0.1,1.1-0.1c0.3,0,0.7,0.1,1,0.2c0.7,0.2,1.3,0.5,1.9,0.9c1.1,0.8,2,2.2,2.3,3.7c0.3,1.6-0.1,3.1-1,4.3
						c-0.4,0.6-1,1.1-1.7,1.5c-0.3,0.2-0.7,0.3-1.1,0.5c-0.4,0.1-0.8,0.2-1.2,0.2c-1.3,0.1-2.6,0.1-3.9,0.1l-1.9,0
						c-0.6,0-1.3,0-1.9,0c-2.6-0.1-5.2-0.3-7.7-0.6c-5.1-0.6-10.1-1.6-15-3c-4.9-1.4-9.6-3.1-14.2-5c-4.6-2-9-4.2-13.3-6.6
						C357.6,428.4,357.3,427.5,357.7,426.7z"/>
				</g>
			</g>
			<g>
				<path class="st0" d="M401.8,445.9l12.8-0.9c3.9-0.3,6.9-3.4,6.7-7.2l0,0c-0.3-3.9-3.8-7.1-7.6-6.8l-12.8,0.9L401.8,445.9z"/>
			</g>
		</g>
		<g>
			<path class="st0" d="M423,429.6L423,429.6c-9.8-0.1-17.4,8.5-16,18.2l2,25.7c10.9,3.9,18.9,1.8,25.9-2.1l1.2-27.4
				C436.8,436.3,430.8,429.7,423,429.6z"/>
		</g>
		<g>
			<path class="st6" d="M433.9,435l-0.2,0.2c1.1,1.5,1.8,3.3,2.2,5.1l0.3,0C435.8,438.4,435.1,436.6,433.9,435z M423.1,475.4v0.3
				c2.4-0.3,4.7-0.9,7.1-1.8l-0.1-0.3C427.9,474.5,425.6,475.1,423.1,475.4z M428.7,430.6c-1.8-0.8-3.7-1.3-5.7-1.3h-0.2
				c-4.7,0-9.2,2-12.3,5.6c-1.8,2.1-3,4.5-3.6,7.1l0.3,0.1c1.6-7.1,8-12.6,15.8-12.5c2,0,3.9,0.5,5.6,1.3L428.7,430.6z M408.7,470.3
				c-0.1,0-0.2,0.1-0.3,0.1l0.3,3.3l0.2,0.1c2.4,0.9,4.8,1.5,7.2,1.8v-0.3c-2.2-0.3-4.6-0.9-7.1-1.8L408.7,470.3z M406.8,447.9l1,13
				h0.3l-1-13H406.8z"/>
		</g>
		<g>
			<path class="st5" d="M425.4,411.7c0,0,6.8,1.6,5.1,9.1c-1.1,5-4.8,7.6-10,8.4L425.4,411.7z"/>
		</g>
		<g>
			<g>
				<path class="st2" d="M418.4,424.4l0.5,7.8c2.2,1.3,4.3,1.2,6.4-0.3l-0.5-7.8L418.4,424.4z"/>
			</g>
			<g>
				<path class="st7" d="M418.4,425.2l0.1,2.4c1,0.5,2.1,0.8,3.3,0.8c0.1,0,0.1,0,0.2,0c1.1-0.1,2.1-0.5,2.9-1.3l-0.1-2.2
					L418.4,425.2z"/>
			</g>
			<g>
				<path class="st2" d="M415.2,415.3l0.4,5.7l0.1,1.3c0.3,3.2,2.9,5.6,6.1,5.6c0.3,0,0.6,0,0.9-0.1c0.1,0,0.2-0.1,0.4-0.1
					c0,0,0,0,0.1,0c0.4-0.2,0.9-0.5,1.2-0.9c0.7-0.8,1.2-1.7,1.6-2.7c0.4-0.8,0.7-1.6,0.9-2.4c0.3-1,0.4-2,0.3-3l-0.4-5l-9.7-0.7
					L415.2,415.3z"/>
			</g>
			<g>
				<path class="st5" d="M425.3,413.8c0,0-11.1,0.7-9,10.5c0,0-3.5-7.1,0.1-11.8c3.9-5.2,9.2-3.5,11-1c1.9,2.5,3.3,6.6-1.9,9.6
					C425.5,421,427.2,417.3,425.3,413.8z"/>
			</g>
			<g>
				<path class="st2" d="M425,419.8c0.1,1.3,1.2,2.3,2.4,2.2c1.3-0.1,2.3-1.2,2.2-2.4c-0.1-1.3-1.2-2.3-2.4-2.2
					C426,417.4,425,418.5,425,419.8z"/>
			</g>
		</g>
		<g>
			<g>
				
					<rect x="350.4" y="413.4" transform="matrix(0.7136 -0.7006 0.7006 0.7136 -215.7342 400.8448)" class="st1" width="63.9" height="101.8"/>
			</g>
			<g>
				
					<rect x="351.3" y="414.3" transform="matrix(0.7136 -0.7006 0.7006 0.7136 -215.7342 400.8449)" class="st6" width="62" height="99.9"/>
			</g>
			<g>
				
					<rect x="361.7" y="433.8" transform="matrix(0.7136 -0.7006 0.7006 0.7136 -231.002 394.2736)" class="st1" width="10" height="91.8"/>
			</g>
			<g>
				
					<rect x="379" y="446.2" transform="matrix(0.7136 -0.7006 0.7006 0.7136 -223.8676 408.787)" class="st1" width="18" height="64"/>
			</g>
			<g>
				
					<rect x="384.5" y="410.1" transform="matrix(0.7136 -0.7006 0.7006 0.7136 -207.5616 404.362)" class="st1" width="12.5" height="91.8"/>
			</g>
			<g>
				
					<rect x="395.8" y="401.8" transform="matrix(0.7136 -0.7006 0.7006 0.7136 -199.337 407.904)" class="st1" width="6.7" height="91.8"/>
			</g>
			<g>
				
					<rect x="354.7" y="428.3" transform="matrix(0.7136 -0.7006 0.7006 0.7136 -206.2836 377.6287)" class="st1" width="7.9" height="25.5"/>
			</g>
			<g>
				
					<rect x="347.5" y="435.4" transform="matrix(0.7136 -0.7006 0.7006 0.7136 -213.3267 374.598)" class="st1" width="7.9" height="25.5"/>
			</g>
		</g>
		<g>
			<g>
				<g>
					<path class="st2" d="M412.1,498.1c-0.8-0.4-1.1-1.3-0.8-2c1.9-4.5,3.6-9,5-13.5c1.4-4.6,2.6-9.2,3.3-13.8
						c0.8-4.6,1.2-9.3,1.3-13.9c0-2.3-0.1-4.6-0.2-6.9c0-0.6-0.1-1.1-0.1-1.7l-0.2-1.7c-0.1-1.1-0.3-2.3-0.5-3.4c0-0.4,0-0.7,0-1.1
						c0-0.3,0.1-0.7,0.2-1c0.2-0.7,0.5-1.3,1-1.8c0.9-1.1,2.2-1.9,3.8-2.2c1.6-0.2,3.1,0.2,4.3,1.1c0.6,0.5,1.1,1.1,1.4,1.7
						c0.2,0.3,0.3,0.7,0.4,1.1c0.1,0.4,0.2,0.8,0.2,1.2c0,1.3,0,2.6,0,3.9l-0.1,1.9c0,0.6-0.1,1.3-0.1,1.9c-0.2,2.6-0.4,5.1-0.8,7.7
						c-0.8,5.1-1.9,10-3.5,14.9c-1.5,4.8-3.4,9.5-5.5,14c-2.1,4.5-4.5,8.9-7,13.1C413.8,498.3,412.9,498.5,412.1,498.1z"/>
				</g>
			</g>
			<g>
				<path class="st0" d="M432.9,454.5l-0.5-12.8c-0.1-3.9-3.1-7-7-6.9l0,0c-3.9,0.1-7.2,3.5-7,7.4l0.5,12.8L432.9,454.5z"/>
			</g>
			<g>
				<path class="st6" d="M427.7,434.8c-0.7-0.2-1.5-0.3-2.3-0.3c-1.9,0.1-3.8,0.9-5.2,2.4c-0.2,0.2-0.4,0.5-0.6,0.7l0.2,0.1
					c1.3-1.7,3.4-2.9,5.6-3c2.9-0.1,5.3,1.7,6.4,4.2l0.2-0.2C431.2,436.9,429.7,435.4,427.7,434.8z M432.7,441.6c0,0,0-0.1,0-0.1
					l-0.3,0.2l0.1,3.9l0.3,0L432.7,441.6z M432.9,447l-0.3,0.1l0.1,3.6l0.3-0.1L432.9,447z M433.1,452.5l-0.3,0.1l0.1,1.9l-10.8,0.4
					l0,0.3l11.1-0.4L433.1,452.5z M418.2,443.9l0.3,9.4l0.3,0l-0.3-9.4L418.2,443.9z"/>
			</g>
		</g>
	</g>
	<g>
		<g>
			<g>
				<path class="st7" d="M301.4,432.8c-0.5-0.7-1.5-0.8-2.3-0.3c-0.9,0.6-1.9,1.2-2.9,1.8l-0.7,0.4c-0.4,0.2-0.8,0.5-1.2,0.7
					c-0.2,0.1-0.4,0.3-0.6,0.4l-0.9,0.5l-0.9,0.5c-0.2,0.1-0.4,0.2-0.6,0.4c-0.4,0.2-0.8,0.4-1.2,0.7l-1.8,1l-1.9,0.9
					c-0.4,0.2-0.8,0.4-1.2,0.6c-0.2,0.1-0.5,0.2-0.7,0.3c-2.7,1.2-5.2,2-7.6,2.6c-2.6,0.6-5.2,0.9-7.6,0.9
					c-4.6-0.1-9.3-1.3-14.9-3.8c-2.2-1-4.6-2.2-7.3-3.6c-2.2-1.2-4.5-2.5-7.2-4.1c-1.4-0.8-3.2-1.1-4.7-0.6
					c-1.4,0.4-2.5,1.3-3.2,2.5c-0.7,1.2-0.8,2.6-0.3,4c0.5,1.6,1.7,2.9,3.3,3.6c3.1,1.4,5.6,2.5,8,3.5c3.1,1.3,5.8,2.2,8.4,3.1
					c3.2,1,6.1,1.7,8.9,2.1c0.3,0,0.6,0.1,0.8,0.1c3,0.4,5.8,0.5,8.6,0.2c3-0.3,6.1-1,9.1-2.1c2.6-1,5.3-2.2,8.2-3.9
					c0.2-0.1,0.4-0.3,0.7-0.4c0.4-0.2,0.8-0.5,1.2-0.7l1.9-1.2l1.8-1.2c0.4-0.3,0.8-0.5,1.2-0.8c0.2-0.2,0.4-0.3,0.6-0.4l0.9-0.6
					l0.9-0.7c0.2-0.2,0.4-0.3,0.6-0.5c0.4-0.3,0.7-0.6,1.1-0.9l0.6-0.5c0.9-0.7,1.8-1.5,2.7-2.2C301.8,434.5,302,433.5,301.4,432.8z
					"/>
			</g>
			<g>
				<g>
					<path class="st3" d="M248.5,451.1l-12.9-6.3c-3.9-1.9-5.7-6.4-3.8-10.3l0.2-0.2c1.9-3.9,6.6-5.5,10.5-3.6l12.9,6.3L248.5,451.1
						z"/>
				</g>
			</g>
		</g>
		<g>
			<path class="st5" d="M250.2,570.4h15.7c0-0.5-0.1-1.1-0.4-1.5c-0.4-0.5-1-0.7-1.6-0.8c-0.6-0.1-1.2-0.1-1.8-0.1
				c-1.5-0.1-3-0.5-4.3-1.2c-0.7-0.4-1.3-0.8-2-1.1l-4.3,0.1c-0.6,0.6-1,1.5-1.1,2.3C250.2,568.8,250.2,569.6,250.2,570.4z"/>
		</g>
		<g>
			<path class="st5" d="M219.7,570.4h15.7c0-0.5-0.1-1.1-0.4-1.5c-0.4-0.5-1-0.7-1.6-0.8c-0.6-0.1-1.2-0.1-1.8-0.1
				c-1.5-0.1-3-0.5-4.3-1.2c-0.7-0.4-1.3-0.8-2-1.1l-4.3,0.1c-0.6,0.6-1,1.5-1.1,2.3C219.6,568.8,219.6,569.6,219.7,570.4z"/>
		</g>
		<g>
			<path class="st5" d="M256.6,565.6l-1.7-48.4c0,0-0.1-0.9-0.1-1l-4.2-33.6c-0.3-4.2-33.8,2.5-33.8,2.5l3.8,80.6l5.5-0.2l7.8-65.8
				l9.4,18.6l7.6,47.4L256.6,565.6z"/>
		</g>
		<g>
			<path class="st3" d="M230.8,428L230.8,428c8.5-1.3,16.3,5,16.9,13.6l3,41.1c-13.3,7.5-21.5,5.7-33.8,2.5l-1.4-38.7
				C215.2,437.3,221.8,429.4,230.8,428z"/>
		</g>
		<g>
			<path class="st6" d="M215.6,450.4h-0.5l0.7,18.8h0.5L215.6,450.4z M250.2,469.5l-0.5,0l1,13.1c-12.6,7.1-20.6,5.8-31.9,3l0,0.5
				c5.3,1.4,9.6,2.3,14.1,2.3c5.9,0,11.5-1.6,18-5.3l0.3-0.1L250.2,469.5z M233,427.9c7.6,0,14.1,5.9,14.6,13.7l0.9,12.6h0.5
				l-0.9-12.6c-0.5-7.9-7.2-14.2-15.1-14.2c-0.8,0-1.5,0.1-2.3,0.2c-0.1,0-0.1,0-0.2,0l0,0.5c0.1,0,0.2,0,0.3,0
				C231.6,427.9,232.3,427.9,233,427.9z"/>
		</g>
		<g>
			<g>
				<g>
					<path class="st2" d="M236.5,423.7l-1.3,10.4c-2.4,1.2-4.7,0.9-6.8-0.9l1.3-10.4L236.5,423.7z"/>
				</g>
				<g>
					<path class="st7" d="M236.5,423.7l-0.6,4.7c-0.5,0.1-1,0.2-1.6,0.2c-0.2,0-0.3,0-0.5,0c-1.9-0.2-3.5-1.3-4.4-2.9l0.4-2.8
						L236.5,423.7z"/>
				</g>
				<g>
					<path class="st2" d="M240.4,417.8l-0.7,4.3l-0.3,1.7c-0.4,2.4-2.5,4.2-5,4.1c-0.8,0-1.6-0.2-2.3-0.6c-0.2-0.1-0.3-0.2-0.5-0.3
						c-0.1-0.1-0.2-0.1-0.3-0.2c-0.9-0.6-1.5-1.5-1.9-2.6c-0.3-0.9-0.6-1.9-0.8-2.9c-0.1-0.6-0.3-1.2-0.4-1.8
						c-0.6-2.7,0.4-5.5,2.5-7.2c1.8-1.5,3.9-1.7,6.3-0.7C239.4,412.7,240.8,415.2,240.4,417.8z"/>
				</g>
			</g>
			<g>
				<path class="st5" d="M241.7,419.1c0.5-0.4,0.6-1.2,0.6-1.9c0-0.7-0.1-1.4,0.2-2c0.4-0.8,1.3-1.2,1.5-2c0.2-0.8-0.3-1.6-0.8-2.1
					c-1.4-1.5-2.7-3-4.1-4.4c-0.6-0.6-1.1-1.2-1.8-1.6c-0.7-0.3-1.6-0.3-2.3,0.2c-0.4,0.3-0.6,0.7-1,1c-0.8,0.6-1.8,0.3-2.7,0
					c-1.1-0.3-2.3-0.5-3.4,0.1c-1.1,0.5-2,2-1.8,3.3c0.1,0.6,0.4,1.1,0.7,1.7c0.2,0.6,0.4,1.2,0.2,1.8c-0.3,0.8-1.1,1.1-1.8,1.6
					c-0.9,0.7-1.6,1.8-1.7,3.1c-0.1,1.2,0.2,2.5,1,3.2c0.6,0.7,1.8,0.9,2.4,0.1c0.7-0.9,0.5-2.7,1.4-3.3c1.1-0.7,2.3,1.5,3.4,0.8
					c0.6-0.4,0.8-1.3,1.3-1.9c0.7-0.7,1.6-0.3,2.3,0c0.8,0.3,1.5,0.5,2.3,0.6c0.7,0.1,1.3,0.5,1.9,1
					C240.1,418.9,240.9,419.7,241.7,419.1z"/>
			</g>
			<g>
				<path class="st2" d="M231.6,419.9c-0.2,1.2-1.4,2.1-2.8,1.9c-1.4-0.2-2.4-1.3-2.2-2.6c0.2-1.2,1.4-2.1,2.8-1.9
					S231.8,418.6,231.6,419.9z"/>
			</g>
		</g>
		<g>
			<g>
				<g>
					<path class="st11" d="M280.3,473.3c-1.2,0-2.3,0-3.5-0.1l-0.8,0c-0.5,0-0.9,0-1.4-0.1c-0.3,0-0.5,0-0.8,0l-1.1-0.1l-1.1-0.1
						c-0.3,0-0.5,0-0.8-0.1c-0.4,0-0.9-0.1-1.4-0.1l-2.1-0.2l-2.1-0.3c-0.4-0.1-0.9-0.1-1.3-0.2c-0.2,0-0.5-0.1-0.7-0.1
						c-3-0.5-5.5-1.2-7.9-2.1c-2.6-1-4.9-2.2-7-3.6c-3.8-2.7-7.1-6.4-10.5-11.7c-1.3-2.1-2.6-4.4-4.1-7.2c-1.1-2.2-2.3-4.6-3.7-7.6
						c-0.7-1.5-2.1-2.7-3.6-3.2c-1.4-0.5-2.9-0.4-4.1,0.3c-1.3,0.7-2.2,1.8-2.6,3.2c-0.5,1.6-0.2,3.4,0.7,4.9
						c1.8,2.9,3.3,5.3,4.8,7.5c1.9,2.9,3.6,5.2,5.3,7.4c2.1,2.7,4.2,5,6.3,6.9c2.5,2.3,5.1,4.2,7.7,5.7c2.7,1.5,5.7,2.6,8.9,3.5
						c2.8,0.7,5.8,1.2,9.1,1.4c0.3,0,0.5,0,0.8,0c0.5,0,1,0.1,1.5,0.1l2.2,0.1l2.2,0c0,0,0,0,0,0c0.5,0,0.9,0,1.4,0
						c0.3,0,0.5,0,0.8,0l1.1,0l1.1-0.1c0.3,0,0.5,0,0.8,0c0.5,0,1-0.1,1.4-0.1l0.8-0.1c1.2-0.1,2.4-0.2,3.6-0.3
						c1-0.1,1.7-0.8,1.6-1.7C282,474,281.3,473.3,280.3,473.3z"/>
				</g>
				<g>
					<path class="st3" d="M227.3,460.1l-7.5-12.6c-2.3-3.8-1.3-8.7,2.5-10.9l0.3,0c3.8-2.3,8.7-1,11,2.8l7.5,12.6L227.3,460.1z"/>
				</g>
				<g>
					<path class="st6" d="M233.9,439.1c-1.5-2.5-4.3-4.1-7.3-4.1c-0.7,0-1.4,0.1-2.1,0.3l0.2,0.4c3.3-0.8,7,0.6,8.8,3.7l2,3.3
						l0.4-0.2L233.9,439.1z M239.9,449l-0.4,0.2l1.6,2.6l-8.4,5l0.2,0.4l8.8-5.2L239.9,449z M221.5,437.1l-0.2-0.4
						c-1.5,1.1-2.6,2.8-3,4.7c-0.5,2.1-0.1,4.4,1.1,6.4l5.9,9.9l0.4-0.2l-5.9-10C217.7,444,218.3,439.5,221.5,437.1z"/>
				</g>
			</g>
			<g>
				<g>
					<g>
						
							<rect x="261.9" y="449.3" transform="matrix(0.1609 -0.987 0.987 0.1609 -244.5502 654.4183)" class="st10" width="1.5" height="43.4"/>
					</g>
				</g>
				<g>
					<g>
						<polygon class="st8" points="284.1,473.8 257.5,469.5 269.3,449 295.9,453.4 						"/>
					</g>
				</g>
				<g>
					<g>
						
							<ellipse transform="matrix(0.3888 -0.9213 0.9213 0.3888 -257.5573 537.6692)" class="st6" cx="276.5" cy="463" rx="4.2" ry="1.6"/>
					</g>
				</g>
			</g>
			<g>
				<path class="st11" d="M235.5,465.2c0.5,0.5,1,1,1.5,1.4c2.5,2.3,5.1,4.2,7.7,5.7c2.7,1.5,5.7,2.6,8.9,3.5
					c2.7,0.7,5.6,1.1,8.9,1.4l1.7-5c0,0-0.1,0-0.1,0c-0.2,0-0.5-0.1-0.7-0.1c-3-0.5-5.5-1.2-7.9-2.1c-2.6-1-4.9-2.2-7-3.6
					c-2.4-1.7-4.6-3.8-6.7-6.4c-0.3,0.4-0.6,0.9-1,1.3c-0.5,0.6-1,1.2-1.5,1.7c-0.4,0.5-0.9,1-1.5,1.3c-0.3,0.2-0.7,0.4-1,0.6
					C236.4,465,236,465.1,235.5,465.2z"/>
			</g>
		</g>
	</g>
	<g>
		<path class="st1" d="M648.3,605.4H60.4c-3,0-5.4-2.4-5.4-5.4l0,0c0-3,2.4-5.4,5.4-5.4h587.8c3,0,5.4,2.4,5.4,5.4l0,0
			C653.7,603,651.3,605.4,648.3,605.4z"/>
	</g>
	<g>
		<g>
			<rect x="221.4" y="149.4" class="st1" width="50.2" height="50.2"/>
		</g>
		<g>
			<rect x="226.3" y="144.5" class="st6" width="50.2" height="50.2"/>
		</g>
		<g>
			<rect x="232" y="150.5" class="st0" width="38.7" height="30.6"/>
		</g>
		<g>
			<path class="st3" d="M232,181.1l13.5-13.3c1-1,2.8-0.9,3.7,0.2l4.2,5.4l10.1-12c1.1-1.3,3.1-1.1,4,0.3l3.4,5.4v14H232z"/>
		</g>
		<g>
			<circle class="st6" cx="242.6" cy="159" r="5.6"/>
		</g>
	</g>
</g>
</svg>
