<?xml version="1.0" encoding="utf-8"?>
<!-- Generator: Adobe Illustrator 23.0.2, SVG Export Plug-In . SVG Version: 6.00 Build 0)  -->
<svg version="1.1" id="图层_1" xmlns="http://www.w3.org/2000/svg" xmlns:xlink="http://www.w3.org/1999/xlink" x="0px" y="0px"
	 viewBox="0 0 700 618.7" style="enable-background:new 0 0 700 618.7;" xml:space="preserve">
<style type="text/css">
	.st0{fill:#E5E6EB;}
	.st1{fill:#FFFFFF;}
	.st2{fill:#8AD9FF;}
	.st3{fill:#5FA7FF;}
	.st4{fill:#FF654F;}
	.st5{opacity:0.5;}
	.st6{fill:#050F64;}
	.st7{fill:#B0D8FF;}
	.st8{fill:#3584FF;}
	.st9{fill:#84A9FF;}
	.st10{fill:#155BCD;}
	.st11{clip-path:url(#SVGID_3_);}
	.st12{fill:#F5BDC8;}
	.st13{fill:#4A96FF;}
	.st14{opacity:0.55;fill:#050F64;}
	.st15{opacity:0;}
	.st16{fill:#EA8096;}
</style>
<g>
	<g>
		<g>
			<g>
				<g>
					<path class="st0" d="M35.1,266.6l37.4-48.4l49.8,29.2c10.3-7.9,21.5-14.2,33.3-19v-57.7l60.7-7.8l14.6,55.9
						c12.6,1.7,25,5,37,10l40.8-40.8l48.4,37.4l-29.2,49.8c7.9,10.3,14.2,21.5,19,33.3h57.7l7.8,60.7l-55.9,14.6
						c-1.7,12.6-5,25-10,37l40.8,40.8L349.9,510l-49.8-29.2c-10.3,7.9-21.5,14.2-33.3,19v57.7l-60.7,7.8l-14.6-55.9
						c-12.6-1.7-25-5-37-10l-40.8,40.8l-48.4-37.4L94.5,453c-7.9-10.3-14.2-21.5-19-33.3H17.8L10,359l55.9-14.6c1.7-12.6,5-25,10-37
						L35.1,266.6z"/>
				</g>
			</g>
			<g>
				<g>
					<path class="st1" d="M121.7,294.9c-10.9,14.1-18,30.1-21.3,46.5l5.7-0.2l0,0c3.3-15.2,9.9-29.8,20-42.9
						c7.7-10,16.8-18.2,26.9-24.7l-3.4-4.4C139.2,276,129.7,284.5,121.7,294.9z M98.7,375.4c3,29.8,17.8,58.4,43.3,78.1
						c30.1,23.3,68.4,29,102.3,18.6l-3-4.8c-31.9,9.3-67.7,3.7-96-18.1c-24.4-18.9-38.4-46.2-41.2-74.7L98.7,375.4z M251.4,258.3
						l0.3,6c8.9,3.6,17.4,8.4,25.3,14.6c47,36.3,55.6,104,19.3,151c-0.2,0.3-0.5,0.6-0.8,1l3.6,4.3c0.5-0.6,1-1.3,1.5-1.9
						c38.1-49.3,29-120.5-20.3-158.7C271.4,267.6,261.6,262.2,251.4,258.3z"/>
				</g>
			</g>
			<g>
				<g>
					<path class="st1" d="M184.1,394.3l-2.6,5c0.5,0.4,1,0.8,1.5,1.2c20.1,15.5,49.1,11.8,64.7-8.3c13.8-17.8,12.4-42.6-2-58.8
						l-3.4,4.4c12.1,14.3,13,35.6,1.1,51.1c-13.7,17.7-39.3,21-57,7.3C185.6,395.6,184.8,395,184.1,394.3z M174.7,335.9
						c-10.8,13.9-12.3,32.1-5.5,47.2l4.7-2.9c-5.6-13.1-4.2-28.8,5.2-40.9c10-13,26.4-18.2,41.4-14.7l1.8-5.2
						C205.1,315.1,186.2,321,174.7,335.9z"/>
				</g>
			</g>
		</g>
		<g>
			<g>
				<g>
					<path class="st0" d="M391.2,438l9.4-44.5l42.8,3.5c4.4-8.6,9.8-16.5,16.1-23.5l-18.6-38.7L479,310l27.8,32.7
						c9-2.9,18.4-4.7,28-5.2L549,297l44.5,9.4l-3.5,42.8c8.6,4.4,16.5,9.8,23.5,16.1l38.7-18.6l24.8,38.1l-32.7,27.8
						c2.9,9,4.7,18.4,5.2,28l40.5,14.2l-9.4,44.5l-42.8-3.5c-4.4,8.6-9.8,16.5-16.1,23.5l18.6,38.7l-38.1,24.8l-27.8-32.7
						c-9,2.9-18.4,4.7-28,5.2l-14.2,40.5l-44.5-9.4l3.5-42.8c-8.6-4.4-16.5-9.8-23.5-16.1L429,546.1L404.2,508l32.7-27.8
						c-2.9-9-4.7-18.4-5.2-28L391.2,438z"/>
				</g>
			</g>
			<g>
				<g>
					<path class="st1" d="M458.4,429c-2.8,13-2.3,25.9,0.8,38l3.7-2l0,0c-2.7-11.2-3-23.2-0.5-35.2c1.9-9.2,5.4-17.6,10-25.2
						l-3.7-1.9C463.9,410.6,460.4,419.4,458.4,429z M469,490.3c11.7,19,30.8,33.4,54.2,38.3c27.7,5.9,55.1-2.7,74.5-20.6l-3.5-2.3
						c-18.4,16.6-44.2,24.5-70.2,19c-22.4-4.7-40.7-18.5-51.7-36.7L469,490.3z M533.4,362.6l2.1,3.9c7.1-0.5,14.4,0,21.7,1.6
						c43.2,9.1,70.8,51.7,61.7,94.8c-0.1,0.3-0.1,0.6-0.2,0.9l3.8,1.7c0.1-0.6,0.3-1.2,0.4-1.8c9.6-45.4-19.5-90.1-64.8-99.7
						C549.7,362.4,541.5,361.9,533.4,362.6z"/>
				</g>
			</g>
			<g>
				<g>
					<path class="st1" d="M532.2,475.4l-0.1,4.2c0.5,0.1,0.9,0.2,1.4,0.3c18.5,3.9,36.7-7.9,40.6-26.4c3.5-16.4-5.4-32.5-20.4-38.7
						l-0.9,4.1c12.7,5.7,20.2,19.7,17.2,33.8c-3.5,16.3-19.5,26.7-35.8,23.3C533.6,475.8,532.9,475.6,532.2,475.4z M507.1,439.3
						c-2.7,12.8,2.1,25.5,11.5,33.4l2.2-3.5c-8-7-12.1-18-9.8-29.1c2.5-11.9,11.8-20.7,23-23.2l-0.5-4.1
						C520.7,415.6,510,425.6,507.1,439.3z"/>
				</g>
			</g>
		</g>
		<g>
			<g>
				<g>
					<path class="st0" d="M362.9,186.8l8.1-29.5l28.6,4c3.3-5.6,7.2-10.7,11.7-15.1l-11-26.7l26.6-15.2l17.4,23
						c6.1-1.6,12.5-2.5,19-2.4l11-26.6l29.5,8.1l-4,28.6c5.6,3.3,10.7,7.2,15.1,11.7l26.7-11l15.2,26.6l-23,17.4
						c1.6,6.1,2.5,12.5,2.4,19l26.6,11.1l-8.1,29.5l-28.6-4c-3.3,5.6-7.2,10.7-11.7,15.1l11,26.7l-26.6,15.2l-17.4-23
						c-6.1,1.6-12.5,2.5-19,2.4l-11.1,26.6l-29.5-8.1l4-28.6c-5.6-3.3-10.7-7.2-15.1-11.7l-26.7,11l-15-26.6l23-17.4
						c-1.6-6.1-2.5-12.5-2.4-19L362.9,186.8z"/>
				</g>
			</g>
			<g>
				<g>
					<path class="st1" d="M408.3,183.4c-2.4,8.6-2.6,17.3-1,25.6l2.6-1.2l0,0c-1.4-7.6-1.1-15.7,1-23.6c1.7-6.1,4.3-11.6,7.7-16.5
						l-2.4-1.4C412.8,171.3,410.1,177.1,408.3,183.4z M413.1,225c7.1,13.2,19.4,23.6,34.9,27.8c18.4,5,37.1,0.3,50.8-10.9l-2.3-1.7
						c-13,10.4-30.6,14.6-47.8,9.9c-14.9-4.1-26.6-14-33.3-26.6L413.1,225z M461.3,141.7l1.3,2.7c4.8,0,9.6,0.6,14.5,1.9
						c28.6,7.8,45.5,37.4,37.7,66.1c-0.1,0.2-0.1,0.4-0.2,0.6l2.5,1.3c0.1-0.4,0.2-0.8,0.3-1.2c8.2-30.1-9.6-61.2-39.7-69.4
						C472.3,142.2,466.7,141.6,461.3,141.7z"/>
				</g>
			</g>
			<g>
				<g>
					<path class="st1" d="M456.1,217.4l-0.2,2.8c0.3,0.1,0.6,0.2,0.9,0.3c12.3,3.3,24.9-3.9,28.3-16.2c3-10.9-2.4-22.1-12.2-26.8
						l-0.7,2.7c8.3,4.3,12.8,14,10.3,23.4c-2.9,10.8-14.1,17.2-24.9,14.2C457.1,217.7,456.6,217.6,456.1,217.4z M440.7,192.2
						c-2.3,8.5,0.5,17.2,6.4,22.8l1.6-2.2c-5.1-5-7.4-12.5-5.4-19.9c2.2-7.9,8.7-13.4,16.3-14.7l-0.2-2.7
						C450.7,176.8,443.1,183.1,440.7,192.2z"/>
				</g>
			</g>
		</g>
	</g>
	<g>
		<g>
			<g>
				<path class="st2" d="M286.6,271.4v319.2c0,2.1-1.7,3.8-3.8,3.8H122c-2.1,0-3.8-1.7-3.8-3.8V271.4c0-2.1,1.7-3.8,3.8-3.8h160.8
					C284.9,267.6,286.6,269.3,286.6,271.4z"/>
			</g>
			<g>
				<g>
					<g>
						<path class="st3" d="M260.4,545.9H144.5c-3.5,0-6.4,2.9-6.4,6.4v22.3c0,3.5,2.9,6.4,6.4,6.4h115.9c3.5,0,6.4-2.9,6.4-6.4
							v-22.3C266.8,548.7,263.9,545.9,260.4,545.9z"/>
					</g>
					<g>
						<g>
							<polygon class="st1" points="262,567.1 258.8,567.1 258.8,553.8 208.8,553.8 208.8,550.7 262,550.7 							"/>
						</g>
					</g>
					<g>
						<rect x="144.5" y="552.4" class="st4" width="20.7" height="22.1"/>
					</g>
				</g>
				<g>
					<g>
						<path class="st3" d="M260.4,501.7H144.5c-3.5,0-6.4,2.9-6.4,6.4v22.3c0,3.5,2.9,6.4,6.4,6.4h115.9c3.5,0,6.4-2.9,6.4-6.4
							v-22.3C266.8,504.6,263.9,501.7,260.4,501.7z"/>
					</g>
					<g>
						<g>
							<polygon class="st1" points="262,523 258.8,523 258.8,509.7 208.8,509.7 208.8,506.5 262,506.5 							"/>
						</g>
					</g>
					<g>
						<rect x="144.5" y="508.2" class="st4" width="20.7" height="22.1"/>
					</g>
				</g>
				<g>
					<g>
						<path class="st3" d="M260.4,457.6H144.5c-3.5,0-6.4,2.9-6.4,6.4v22.3c0,3.5,2.9,6.4,6.4,6.4h115.9c3.5,0,6.4-2.9,6.4-6.4V464
							C266.8,460.4,263.9,457.6,260.4,457.6z"/>
					</g>
					<g>
						<g>
							<polygon class="st1" points="262,478.8 258.8,478.8 258.8,465.6 208.8,465.6 208.8,462.4 262,462.4 							"/>
						</g>
					</g>
					<g>
						<rect x="144.5" y="464.1" class="st4" width="20.7" height="22.1"/>
					</g>
				</g>
				<g>
					<g>
						<path class="st3" d="M260.4,413.4H144.5c-3.5,0-6.4,2.9-6.4,6.4v22.3c0,3.5,2.9,6.4,6.4,6.4h115.9c3.5,0,6.4-2.9,6.4-6.4
							v-22.3C266.8,416.3,263.9,413.4,260.4,413.4z"/>
					</g>
					<g>
						<g>
							<polygon class="st1" points="262,434.7 258.8,434.7 258.8,421.4 208.8,421.4 208.8,418.2 262,418.2 							"/>
						</g>
					</g>
					<g>
						<rect x="144.5" y="419.9" class="st4" width="20.7" height="22.1"/>
					</g>
				</g>
				<g>
					<g>
						<path class="st3" d="M260.4,369.3H144.5c-3.5,0-6.4,2.9-6.4,6.4V398c0,3.5,2.9,6.4,6.4,6.4h115.9c3.5,0,6.4-2.9,6.4-6.4v-22.3
							C266.8,372.2,263.9,369.3,260.4,369.3z"/>
					</g>
					<g>
						<g>
							<polygon class="st1" points="262,390.6 258.8,390.6 258.8,377.3 208.8,377.3 208.8,374.1 262,374.1 							"/>
						</g>
					</g>
					<g>
						<rect x="144.5" y="375.8" class="st4" width="20.7" height="22.1"/>
					</g>
				</g>
				<g>
					<g>
						<path class="st3" d="M260.4,325.2H144.5c-3.5,0-6.4,2.9-6.4,6.4v22.3c0,3.5,2.9,6.4,6.4,6.4h115.9c3.5,0,6.4-2.9,6.4-6.4
							v-22.3C266.8,328,263.9,325.2,260.4,325.2z"/>
					</g>
					<g>
						<g>
							<polygon class="st1" points="262,346.4 258.8,346.4 258.8,333.1 208.8,333.1 208.8,329.9 262,329.9 							"/>
						</g>
					</g>
					<g>
						<rect x="144.5" y="331.6" class="st4" width="20.7" height="22.1"/>
					</g>
				</g>
				<g>
					<g>
						<path class="st3" d="M260.4,281H144.5c-3.5,0-6.4,2.9-6.4,6.4v22.3c0,3.5,2.9,6.4,6.4,6.4h115.9c3.5,0,6.4-2.9,6.4-6.4v-22.3
							C266.8,283.9,263.9,281,260.4,281z"/>
					</g>
					<g>
						<g>
							<polygon class="st1" points="262,302.3 258.8,302.3 258.8,289 208.8,289 208.8,285.8 262,285.8 							"/>
						</g>
					</g>
					<g>
						<rect x="144.5" y="287.5" class="st4" width="20.7" height="22.1"/>
					</g>
				</g>
			</g>
		</g>
		<g>
			<g>
				<path class="st2" d="M581.8,271.4v319.2c0,2.1-1.7,3.8-3.8,3.8H417.2c-2.1,0-3.8-1.7-3.8-3.8V271.4c0-2.1,1.7-3.8,3.8-3.8H578
					C580.1,267.6,581.8,269.3,581.8,271.4z"/>
			</g>
			<g>
				<g>
					<g>
						<path class="st3" d="M555.5,545.9H439.6c-3.5,0-6.4,2.9-6.4,6.4v22.3c0,3.5,2.9,6.4,6.4,6.4h115.9c3.5,0,6.4-2.9,6.4-6.4
							v-22.3C561.9,548.7,559.1,545.9,555.5,545.9z"/>
					</g>
					<g>
						<g>
							<polygon class="st1" points="557.1,567.1 554,567.1 554,553.8 504,553.8 504,550.7 557.1,550.7 							"/>
						</g>
					</g>
					<g>
						<rect x="439.6" y="552.4" class="st4" width="20.7" height="22.1"/>
					</g>
				</g>
				<g>
					<g>
						<path class="st3" d="M555.5,501.7H439.6c-3.5,0-6.4,2.9-6.4,6.4v22.3c0,3.5,2.9,6.4,6.4,6.4h115.9c3.5,0,6.4-2.9,6.4-6.4
							v-22.3C561.9,504.6,559.1,501.7,555.5,501.7z"/>
					</g>
					<g>
						<g>
							<polygon class="st1" points="557.1,523 554,523 554,509.7 504,509.7 504,506.5 557.1,506.5 							"/>
						</g>
					</g>
					<g>
						<rect x="439.6" y="508.2" class="st4" width="20.7" height="22.1"/>
					</g>
				</g>
				<g>
					<g>
						<path class="st3" d="M555.5,457.6H439.6c-3.5,0-6.4,2.9-6.4,6.4v22.3c0,3.5,2.9,6.4,6.4,6.4h115.9c3.5,0,6.4-2.9,6.4-6.4V464
							C561.9,460.4,559.1,457.6,555.5,457.6z"/>
					</g>
					<g>
						<g>
							<polygon class="st1" points="557.1,478.8 554,478.8 554,465.6 504,465.6 504,462.4 557.1,462.4 							"/>
						</g>
					</g>
					<g>
						<rect x="439.6" y="464.1" class="st4" width="20.7" height="22.1"/>
					</g>
				</g>
				<g>
					<g>
						<path class="st3" d="M555.5,413.4H439.6c-3.5,0-6.4,2.9-6.4,6.4v22.3c0,3.5,2.9,6.4,6.4,6.4h115.9c3.5,0,6.4-2.9,6.4-6.4
							v-22.3C561.9,416.3,559.1,413.4,555.5,413.4z"/>
					</g>
					<g>
						<g>
							<polygon class="st1" points="557.1,434.7 554,434.7 554,421.4 504,421.4 504,418.2 557.1,418.2 							"/>
						</g>
					</g>
					<g>
						<rect x="439.6" y="419.9" class="st4" width="20.7" height="22.1"/>
					</g>
				</g>
				<g>
					<g>
						<path class="st3" d="M555.5,369.3H439.6c-3.5,0-6.4,2.9-6.4,6.4V398c0,3.5,2.9,6.4,6.4,6.4h115.9c3.5,0,6.4-2.9,6.4-6.4v-22.3
							C561.9,372.2,559.1,369.3,555.5,369.3z"/>
					</g>
					<g>
						<g>
							<polygon class="st1" points="557.1,390.6 554,390.6 554,377.3 504,377.3 504,374.1 557.1,374.1 							"/>
						</g>
					</g>
					<g>
						<rect x="439.6" y="375.8" class="st4" width="20.7" height="22.1"/>
					</g>
				</g>
				<g>
					<g>
						<path class="st3" d="M555.5,325.2H439.6c-3.5,0-6.4,2.9-6.4,6.4v22.3c0,3.5,2.9,6.4,6.4,6.4h115.9c3.5,0,6.4-2.9,6.4-6.4
							v-22.3C561.9,328,559.1,325.2,555.5,325.2z"/>
					</g>
					<g>
						<g>
							<polygon class="st1" points="557.1,346.4 554,346.4 554,333.1 504,333.1 504,329.9 557.1,329.9 							"/>
						</g>
					</g>
					<g>
						<rect x="439.6" y="331.6" class="st4" width="20.7" height="22.1"/>
					</g>
				</g>
				<g>
					<g>
						<path class="st3" d="M555.5,281H439.6c-3.5,0-6.4,2.9-6.4,6.4v22.3c0,3.5,2.9,6.4,6.4,6.4h115.9c3.5,0,6.4-2.9,6.4-6.4v-22.3
							C561.9,283.9,559.1,281,555.5,281z"/>
					</g>
					<g>
						<g>
							<polygon class="st1" points="557.1,302.3 554,302.3 554,289 504,289 504,285.8 557.1,285.8 							"/>
						</g>
					</g>
					<g>
						<rect x="439.6" y="287.5" class="st4" width="20.7" height="22.1"/>
					</g>
				</g>
			</g>
		</g>
	</g>
	<g class="st5">
		<g>
			<path class="st6" d="M290.6,271.4v319.2c0,2.1-1.7,3.8-3.8,3.8h-40.5c-0.4-1.3-0.6-2.7-0.6-4.2V267.6h41.1
				C288.9,267.6,290.6,269.3,290.6,271.4z"/>
		</g>
		<g>
			<path class="st6" d="M454.3,267.6v322.6c0,1.4-0.2,2.8-0.6,4.2h-40.5c-2.1,0-3.8-1.7-3.8-3.8V271.4c0-2.1,1.7-3.8,3.8-3.8H454.3
				L454.3,267.6z"/>
		</g>
	</g>
	<g>
		<g>
			<path class="st7" d="M441,594.4H259c-0.8,0-1.5-0.7-1.5-1.5v-356c0-0.8,0.7-1.5,1.5-1.5h182c0.8,0,1.5,0.7,1.5,1.5v355.9
				C442.5,593.7,441.8,594.4,441,594.4z"/>
		</g>
		<g>
			<g>
				<g>
					<path class="st6" d="M413.7,541.1H286.3c-3.9,0-7,3.1-7,7v24.5c0,3.9,3.1,7,7,7h127.4c3.9,0,7-3.1,7-7v-24.5
						C420.7,544.2,417.5,541.1,413.7,541.1z"/>
				</g>
				<g>
					<g>
						<polygon class="st1" points="415.4,564.4 411.9,564.4 411.9,549.9 357,549.9 357,546.3 415.4,546.3 						"/>
					</g>
				</g>
				<g>
					<rect x="286.3" y="548.2" class="st4" width="22.8" height="24.3"/>
				</g>
			</g>
			<g>
				<g>
					<path class="st6" d="M413.7,492.6H286.3c-3.9,0-7,3.1-7,7v24.5c0,3.9,3.1,7,7,7h127.4c3.9,0,7-3.1,7-7v-24.5
						C420.7,495.7,417.5,492.6,413.7,492.6z"/>
				</g>
				<g>
					<g>
						<polygon class="st1" points="415.4,516 411.9,516 411.9,501.4 357,501.4 357,497.9 415.4,497.9 						"/>
					</g>
				</g>
				<g>
					<rect x="286.3" y="499.7" class="st4" width="22.8" height="24.3"/>
				</g>
			</g>
			<g>
				<g>
					<path class="st6" d="M413.7,444.1H286.3c-3.9,0-7,3.1-7,7v24.5c0,3.9,3.1,7,7,7h127.4c3.9,0,7-3.1,7-7v-24.5
						C420.7,447.3,417.5,444.1,413.7,444.1z"/>
				</g>
				<g>
					<g>
						<polygon class="st1" points="415.4,467.5 411.9,467.5 411.9,452.9 357,452.9 357,449.4 415.4,449.4 						"/>
					</g>
				</g>
				<g>
					<rect x="286.3" y="451.2" class="st4" width="22.8" height="24.3"/>
				</g>
			</g>
			<g>
				<g>
					<path class="st6" d="M413.7,395.6H286.3c-3.9,0-7,3.1-7,7v24.5c0,3.9,3.1,7,7,7h127.4c3.9,0,7-3.1,7-7v-24.5
						C420.7,398.8,417.5,395.6,413.7,395.6z"/>
				</g>
				<g>
					<g>
						<polygon class="st1" points="415.4,419 411.9,419 411.9,404.4 357,404.4 357,400.9 415.4,400.9 						"/>
					</g>
				</g>
				<g>
					<rect x="286.3" y="402.8" class="st4" width="22.8" height="24.3"/>
				</g>
			</g>
			<g>
				<g>
					<path class="st6" d="M413.7,347.1H286.3c-3.9,0-7,3.1-7,7v24.5c0,3.9,3.1,7,7,7h127.4c3.9,0,7-3.1,7-7v-24.5
						C420.7,350.3,417.5,347.1,413.7,347.1z"/>
				</g>
				<g>
					<g>
						<polygon class="st1" points="415.4,370.5 411.9,370.5 411.9,355.9 357,355.9 357,352.4 415.4,352.4 						"/>
					</g>
				</g>
				<g>
					<rect x="286.3" y="354.3" class="st4" width="22.8" height="24.3"/>
				</g>
			</g>
			<g>
				<g>
					<path class="st6" d="M413.7,298.7H286.3c-3.9,0-7,3.1-7,7v24.5c0,3.9,3.1,7,7,7h127.4c3.9,0,7-3.1,7-7v-24.5
						C420.7,301.8,417.5,298.7,413.7,298.7z"/>
				</g>
				<g>
					<g>
						<polygon class="st1" points="415.4,322 411.9,322 411.9,307.4 357,307.4 357,303.9 415.4,303.9 						"/>
					</g>
				</g>
				<g>
					<rect x="286.3" y="305.8" class="st4" width="22.8" height="24.3"/>
				</g>
			</g>
			<g>
				<g>
					<path class="st8" d="M413.7,250.2H286.3c-3.9,0-7,3.1-7,7v24.5c0,3.9,3.1,7,7,7h127.4c3.9,0,7-3.1,7-7v-24.5
						C420.7,253.3,417.5,250.2,413.7,250.2z"/>
				</g>
				<g>
					<g>
						<polygon class="st1" points="415.4,273.5 411.9,273.5 411.9,258.9 357,258.9 357,255.4 415.4,255.4 						"/>
					</g>
				</g>
				<g>
					<rect x="286.3" y="257.3" class="st4" width="22.8" height="24.3"/>
				</g>
			</g>
		</g>
	</g>
	<g>
		<g>
			<path class="st9" d="M230.8,216.4v164.5c0,4.4-3.5,7.9-7.9,7.9H66c-4.4,0-7.9-3.5-7.9-7.9V216.4c0-4.4,3.5-7.9,7.9-7.9h156.9
				C227.2,208.5,230.8,212,230.8,216.4z"/>
		</g>
		<g>
			<path class="st10" d="M230.8,216.4v13.8H58.1v-13.8c0-4.4,3.5-7.9,7.9-7.9h156.9C227.2,208.5,230.8,212,230.8,216.4z"/>
		</g>
		<g>
			<rect x="86.8" y="340" class="st6" width="115.2" height="14"/>
		</g>
		<g>
			<rect x="86.8" y="358" class="st6" width="115.2" height="14"/>
		</g>
		<g>
			<rect x="94.9" y="344.9" class="st1" width="99.1" height="4.4"/>
		</g>
		<g>
			<circle class="st1" cx="77.8" cy="219.3" r="3.1"/>
		</g>
		<g>
			<circle class="st1" cx="94.3" cy="219.3" r="3.1"/>
		</g>
		<g>
			<circle class="st1" cx="110.8" cy="219.3" r="3.1"/>
		</g>
		<g>
			<g>
				<g>
					<circle id="SVGID_1_" class="st1" cx="144.5" cy="283.6" r="46"/>
				</g>
				<g>
					<g>
						<defs>
							<circle id="SVGID_2_" cx="144.5" cy="283.6" r="46"/>
						</defs>
						<clipPath id="SVGID_3_">
							<use xlink:href="#SVGID_2_"  style="overflow:visible;"/>
						</clipPath>
						<g class="st11">
							<g>
								<path class="st10" d="M175.3,302.4v27.3h-61.6v-27.4c0-3.4,2-6.4,5.1-7.8l10.3-4.5l14.3-6.3l1.2,0.5l15.4,6.2l10.2,4.1
									C173.2,295.8,175.3,298.9,175.3,302.4z"/>
							</g>
							<g>
								<path class="st6" d="M159.9,290.4c-0.6,2.5-3.5,14.8-8.1,18.2c0,0-6.7-2.3-7.2-5.3c-0.6,3-7.2,5.3-7.2,5.3
									c-5.2-3.8-8.2-18.6-8.2-18.6l14.3-6.3l1.2,0.5L159.9,290.4z"/>
							</g>
							<g>
								<path class="st12" d="M155.8,264.4v-5.8l-22.5-0.2v6c-1,0-1.9,0.8-1.9,1.9v7c0,1,0.8,1.9,1.9,1.9v1.9c0,2.6,0.9,5,2.4,7v8
									c0,4.9,4,8.9,8.9,8.9s8.9-4,8.9-8.9v-8c1.5-1.9,2.4-4.3,2.4-7v-1.9c1,0,1.9-0.8,1.9-1.9v-7
									C157.6,265.2,156.8,264.4,155.8,264.4z"/>
							</g>
							<g>
								<path class="st6" d="M149,250.7c-3.2-1-6-1.1-9,0c-4.8,1.8-8.5,5.6-7.4,10.7l1.3,9.3c0,0,8.2-10,18.2-9.8l3.4,9.8l1-9.3
									C157.5,256.3,153.9,252.2,149,250.7z"/>
							</g>
							<g>
								<circle class="st6" cx="144.5" cy="310.3" r="1.2"/>
							</g>
							<g>
								<circle class="st6" cx="144.5" cy="316.6" r="1.2"/>
							</g>
							<g>
								<path class="st6" d="M145.7,322.8c0,0.7-0.6,1.2-1.2,1.2c-0.7,0-1.2-0.6-1.2-1.2c0-0.7,0.6-1.2,1.2-1.2
									C145.2,321.6,145.7,322.2,145.7,322.8z"/>
							</g>
						</g>
					</g>
				</g>
			</g>
		</g>
		<g>
			<g>
				<circle class="st1" cx="98.6" cy="365" r="2.5"/>
			</g>
			<g>
				<circle class="st1" cx="105.7" cy="365" r="2.5"/>
			</g>
			<g>
				<circle class="st1" cx="112.7" cy="365" r="2.5"/>
			</g>
			<g>
				<circle class="st1" cx="119.8" cy="365" r="2.5"/>
			</g>
			<g>
				<circle class="st1" cx="126.8" cy="365" r="2.5"/>
			</g>
			<g>
				<circle class="st1" cx="133.9" cy="365" r="2.5"/>
			</g>
			<g>
				<circle class="st1" cx="140.9" cy="365" r="2.5"/>
			</g>
			<g>
				<circle class="st1" cx="148" cy="365" r="2.5"/>
			</g>
			<g>
				<circle class="st1" cx="155" cy="365" r="2.5"/>
			</g>
			<g>
				<circle class="st1" cx="162.1" cy="365" r="2.5"/>
			</g>
			<g>
				<circle class="st1" cx="169.1" cy="365" r="2.5"/>
			</g>
			<g>
				<circle class="st1" cx="176.2" cy="365" r="2.5"/>
			</g>
			<g>
				<path class="st1" d="M185.7,365c0,1.4-1.1,2.5-2.5,2.5s-2.5-1.1-2.5-2.5s1.1-2.5,2.5-2.5S185.7,363.7,185.7,365z"/>
			</g>
			<g>
				<path class="st1" d="M192.7,365c0,1.4-1.1,2.5-2.5,2.5s-2.5-1.1-2.5-2.5s1.1-2.5,2.5-2.5S192.7,363.7,192.7,365z"/>
			</g>
		</g>
	</g>
	<g>
		<g>
			<path class="st9" d="M645.5,230.4c0.6,127.9-73.7,145.8-73.7,145.8s-6.2-1.5-15.1-6.8c-4-2.4-8.6-5.6-13.4-9.7
				c-9.1-8-19-19.6-27.2-36.4c-3-6.1-5.7-12.8-8.1-20.3c-1-3.1-2-6.4-2.8-9.8c-1.2-4.5-2.2-9.3-3.1-14.3c-2.6-14.1-4-30.2-3.9-48.5
				c0,0,23.2-6.1,22.1-25.7c0,0,8.8-3.6,22.4-6.3c3.5-0.7,7.2-1.3,11.3-1.8c2.6-0.3,5.3-0.6,8.2-0.8c3.2-0.2,6.5-0.4,9.9-0.4
				c2.9,0,5.7,0.1,8.5,0.3c20.2,1.2,36.1,6.4,41.3,8.3c1.2,0.4,1.8,0.7,1.8,0.7c-0.4,7.8,3,13.5,7.3,17.5
				C637.2,228.2,645.5,230.4,645.5,230.4z"/>
		</g>
		<g>
			<path class="st13" d="M571.8,364.7c-5.3-2-17.7-7.9-30-21.9c-20.6-23.5-31.9-59.7-32.8-105c8.8-4.4,18.7-12.5,21.4-25.1
				c8.1-2.5,23.5-6.3,41.4-6.3s33.3,3.8,41.4,6.3c2.6,12.6,12.6,20.8,21.4,25.1c-0.9,45.3-12.2,81.5-32.8,105
				C589.5,356.8,577.1,362.7,571.8,364.7z"/>
		</g>
		<g>
			<path class="st14" d="M571.8,364.7c-5.9-2.2-11.4-5.2-16.5-8.8c-2.5-1.8-5-3.8-7.3-5.9s-4.5-4.3-6.7-6.6
				c-4.2-4.7-7.9-9.8-11.3-15.1c-3.3-5.4-6.1-11-8.6-16.8c-4.9-11.6-8.3-23.8-10.5-36.2c-2.3-12.4-3.4-24.9-3.7-37.5v-1.2l1.1-0.5
				c4.9-2.5,9.4-5.7,13-9.8c3.6-4,6.2-8.9,7.3-14.1l0.2-1.2l1.1-0.4c6.8-2.1,13.7-3.7,20.8-4.8c7-1.1,14.1-1.7,21.2-1.7
				c7.1,0,14.2,0.6,21.2,1.7c7,1.1,14,2.7,20.8,4.8l1.1,0.4l0.2,1.2c1.1,5.2,3.7,10,7.3,14.1c3.6,4,8.1,7.3,13,9.8l1.1,0.5v1.2
				c-0.3,12.5-1.5,25.1-3.7,37.5s-5.7,24.6-10.5,36.2c-2.5,5.8-5.3,11.4-8.6,16.8c-3.4,5.3-7.1,10.4-11.3,15.1
				c-2.1,2.3-4.3,4.6-6.7,6.6c-2.3,2.1-4.8,4.1-7.3,5.9C583.2,359.5,577.7,362.5,571.8,364.7z M571.8,364.7c5.8-2.4,11.1-5.7,16-9.5
				c2.5-1.9,4.8-3.9,7-6.1c2.2-2.1,4.3-4.4,6.4-6.8c4-4.8,7.5-9.9,10.6-15.2c3.1-5.4,5.7-11,8.1-16.7c4.5-11.5,7.7-23.5,9.6-35.8
				c2-12.2,3-24.6,3.2-37l1,1.7c-5.3-2.6-10.2-6.1-14.2-10.5c-2-2.2-3.8-4.7-5.2-7.4s-2.5-5.6-3.1-8.5l1.4,1.5
				c-6.6-2-13.4-3.5-20.2-4.6s-13.7-1.6-20.6-1.6c-6.9,0-13.8,0.5-20.6,1.6c-6.8,1-13.6,2.6-20.2,4.6l1.4-1.5
				c-0.6,3-1.7,5.8-3.1,8.5c-1.4,2.7-3.2,5.1-5.2,7.4c-4,4.4-9,7.9-14.2,10.5l1-1.7c0.2,12.4,1.2,24.8,3.2,37
				c1.9,12.2,5.2,24.2,9.6,35.8c2.3,5.7,5,11.3,8.1,16.7c3.1,5.3,6.6,10.4,10.6,15.2c2,2.3,4.1,4.6,6.4,6.8c2.2,2.1,4.6,4.2,7,6.1
				C560.7,359,566,362.3,571.8,364.7z"/>
		</g>
		<g>
			<g>
				<rect x="562.9" y="253.1" class="st1" width="17.9" height="46.9"/>
			</g>
			<g>
				<rect x="548.4" y="267.7" class="st1" width="46.9" height="17.9"/>
			</g>
		</g>
	</g>
	<g>
		<g class="st15">
			<path class="st9" d="M593.4,474L593.4,474L593.4,474z"/>
		</g>
		<g>
			<path class="st12" d="M572.2,520l2.5-12.3l20.1,5.1l-5.3,11.3l-0.8,60.5v4.4l-4.3-0.1l-0.8-3.8l-11.5-61.3l0,0v-0.1
				c-0.1-0.3-0.1-0.5-0.1-0.8l0,0C571.9,521.8,572,520.9,572.2,520z"/>
		</g>
		<g>
			<path class="st6" d="M574.8,507.6l8-38.1c0.9-6.3,32.9-0.3,32.9-0.3c5.2,6.4,6.3,16.2,6.6,27.6c0.1,4.4-0.1,8.7-0.6,12.8
				l-23.4,3.6l-0.2-2.9c-0.5,1-0.9,2-1.4,2.9L574.8,507.6z"/>
		</g>
		<g class="st15">
			<path class="st9" d="M604.9,474L604.9,474L604.9,474z"/>
		</g>
		<g>
			<path class="st6" d="M601.8,592c0.4-0.5,1-0.7,1.6-0.8s1.2-0.1,1.8-0.1c1.5-0.1,3-0.5,4.3-1.2c0.7-0.4,1.3-0.9,2-1.1l4.3,0.1
				c0.6,0.6,1,1.5,1.2,2.3s0.2,1.6,0.1,2.3v0.9h-15.7v-0.9l0,0C601.4,593,601.5,592.5,601.8,592z"/>
		</g>
		<g>
			<polygon class="st12" points="599.4,513 619.9,509.8 615.8,588.8 611.5,588.7 			"/>
		</g>
		<g>
			<path class="st6" d="M599.4,411.4c0,0,9.4,3,10.4-12.3c0,0-3.4-3.4-3.6-3.6c-0.2-0.2-5.6,9.5-5.6,9.5L599.4,411.4z"/>
		</g>
		<g>
			<g>
				<g>
					<path class="st16" d="M523.6,445.5c0-1.1,0.8-2.1,1.9-2.1l2.3-0.1l2.3-0.2c1.5-0.1,3-0.3,4.5-0.4c3-0.3,5.9-0.7,8.8-1.2
						c2.9-0.5,5.7-1.2,8.4-2s5.3-1.9,7.7-3.1c2.4-1.3,4.7-2.8,6.9-4.5s4.3-3.6,6.5-5.7c2.1-2,4.3-4.2,6.5-6.3
						c2.2-2.1,4.5-4.3,6.8-6.4c1.5-1.3,3.4-1.8,5.3-1.5c1.9,0.3,3.7,1.3,5,3.1l0,0c1.3,1.7,1.8,3.8,1.6,5.6c-0.2,1.9-1,3.5-2.6,4.6
						c-2.5,1.7-4.9,3.4-7.4,5.1c-2.5,1.8-4.9,3.6-7.5,5.4s-5.3,3.6-8.2,5.3c-2.9,1.7-6,3.1-9.2,4.2s-6.4,1.9-9.7,2.4
						c-3.2,0.5-6.4,0.7-9.6,0.8c-3.2,0.1-6.3,0-9.4-0.1c-1.5-0.1-3.1-0.1-4.6-0.3l-2.3-0.2l-2.3-0.2
						C524.3,447.6,523.5,446.6,523.6,445.5z"/>
				</g>
			</g>
			<g>
				<path class="st9" d="M581.1,438.8l13.6-10.6c4.1-3.2,5.2-8.9,2-13l0,0c-3.2-4.1-9.5-5.1-13.6-1.9l-13.6,10.6L581.1,438.8z"/>
			</g>
		</g>
		<g>
			<path class="st9" d="M602.6,409.5L602.6,409.5c-13.1-0.8-23.8,10.2-22.7,23.2l2.8,36.8c9.1,4.1,21.9,2.1,32.9-0.3l3.4-39.5
				C620.5,419.5,613,410.2,602.6,409.5z"/>
		</g>
		<g>
			<path class="st1" d="M583.5,418.3l0.3,0.2c2.5-3.5,6-6.2,10-7.7l-0.2-0.3c-3.2,1.2-6.1,3.1-8.4,5.7
				C584.6,416.8,584,417.6,583.5,418.3z M581.5,457.7l0.9,12l0.2,0.1c1.4,0.6,3,1.2,4.7,1.5v-0.4c-1.6-0.4-3.1-0.9-4.6-1.5
				l-0.9-11.7H581.5z M615.7,469.2c-4.5,1-9.3,1.9-14.1,2.3v0.4c4.9-0.5,9.8-1.4,14.1-2.3l0.3-0.1l0.8-9.4l-0.4-0.1L615.7,469.2z
				 M619.1,429.7l-1,12.1l0.4,0.1l1-12.1c0.2-1.1,0.2-2.3,0.2-3.4l-0.4,0.1C619.3,427.5,619.2,428.6,619.1,429.7z M579.6,432.8
				l0.7,8.9h0.4l-0.7-8.9c-0.4-4.1,0.5-8,2.2-11.4l-0.3-0.2C580,424.7,579.2,428.7,579.6,432.8z M610.2,411.8
				c3.4,1.9,6.1,4.9,7.6,8.5h0.4c-0.7-1.6-1.6-3.1-2.7-4.5c-1.5-1.8-3.2-3.3-5.2-4.4L610.2,411.8z"/>
		</g>
		<g>
			<g>
				<path class="st12" d="M595.5,406l0.4,9.9c3,1.7,5.8,1.5,8.5-0.6l-0.4-9.9L595.5,406z"/>
			</g>
			<g>
				<path class="st16" d="M595.6,407.2l0.2,3.3c1.3,0.7,2.8,1,4.4,1c0.1,0,0.2,0,0.3,0c1.5-0.1,2.9-0.8,3.8-1.8l-0.2-3L595.6,407.2z
					"/>
			</g>
			<g>
				<path class="st12" d="M590.5,398.3l0.9,3.2l0.6,1.7c0.4,4.2,4,7.4,8.3,7.3c0.4,0,0.9-0.1,1.3-0.2c0.2-0.1,0.3-0.1,0.5-0.2h0.1
					c0.6-0.3,1.1-0.7,1.6-1.2c0.9-1.1,1.5-2.3,2.1-3.6c0.5-1.1,0.9-2.2,1.2-3.3c0.3-1.3,0.5-2.6,0.3-4l-0.5-8l-12.6,2.8L590.5,398.3
					z"/>
			</g>
			<g>
				<path class="st6" d="M591.6,395.7c0,0,0.1-2.8,1.6-5.5c1.3-2.3,6-5.3,10.1-2.9c0.1-1.4,0.8-2.7,2.1-3.6c2.3-1.6,5.4-0.9,7.1,1.5
					c1.6,2.4,1.1,5.6-1.1,7.1c-0.7,0.5-1.5,0.7-2.2,0.8c0.1,0.1,0.1,0.3,0.1,0.4c0.7,2.2,1.1,6.7-1.5,8.3c-0.9,0.5-3-0.1-3.2-3.1
					c0-0.2,0.4-5-0.2-6.3c-0.3,0.5-1.4,1.5-4.6,1c-1.6-0.3-2.9-0.2-4,0.2c-1.7,1.4-2.9,2.9-4.1,4.2c-1.3,1.2-0.5,2.5,0.4,3.6
					c1.3,1.7,0,4.2-1.4,4.8c0,0,2.3-2.3-0.1-4.5C588.8,400,590,396.1,591.6,395.7z"/>
			</g>
			<g>
				<circle class="st12" cx="607.5" cy="399.5" r="3.1"/>
			</g>
		</g>
		<g>
			<g>
				<g>
					<path class="st12" d="M625.6,492.1c-1.1-0.2-1.9-1.1-1.8-2.1l0.2-2.3l0.2-2.3c0.1-1.5,0.2-3,0.2-4.5c0.1-3,0.2-6,0.1-8.9
						c-0.1-2.9-0.3-5.8-0.8-8.6c-0.4-2.8-1.1-5.5-2-8.1s-2-5-3.4-7.4s-3-4.8-4.7-7.2c-1.7-2.4-3.5-4.9-5.3-7.4s-3.6-5-5.3-7.6
						c-1.1-1.7-1.3-3.7-0.7-5.5s1.9-3.5,3.8-4.5c1.9-1,4-1.2,5.8-0.8c1.8,0.4,3.4,1.5,4.2,3.2c1.3,2.7,2.6,5.3,4,8s2.8,5.4,4.2,8.2
						c1.4,2.8,2.8,5.7,4,8.8c1.2,3.1,2.2,6.4,2.8,9.7c0.6,3.3,0.9,6.6,0.9,9.9s-0.2,6.5-0.6,9.6c-0.4,3.1-0.9,6.2-1.4,9.3
						c-0.3,1.5-0.6,3-0.9,4.5l-0.5,2.3l-0.5,2.2C627.8,491.7,626.8,492.3,625.6,492.1z"/>
				</g>
			</g>
			<g>
				<path class="st9" d="M627.4,434.2l-8.5-15c-2.6-4.5-8.1-6.4-12.6-3.9l0,0c-4.5,2.6-6.4,8.6-3.8,13.2l8.5,15L627.4,434.2z"/>
			</g>
			<g>
				<path class="st1" d="M610.8,444l3-1.7l-0.2-0.3l-2.7,1.5l-2-3.5l-0.4,0.1L610.8,444z M606.7,436l-3.5-6.2l-0.3,0.2l3.5,6.2
					L606.7,436z M601,425l0.4,0.1c-0.4-3.8,1.5-7.7,4.9-9.7c2-1.1,4.3-1.4,6.3-0.9l0.1-0.4c-2.3-0.5-4.6-0.2-6.6,1
					c-0.5,0.3-1,0.6-1.5,1C602,418.3,600.7,421.7,601,425z M616.4,440.5l0.2,0.3l5.8-3.3l-0.2-0.3L616.4,440.5z M619.5,420.4
					l6.6,11.7l0.3-0.2l-6.6-11.8L619.5,420.4z"/>
			</g>
		</g>
		<g>
			<path class="st6" d="M574.8,592c0.4-0.5,1-0.7,1.6-0.8s1.2-0.1,1.8-0.1c1.5-0.1,3-0.5,4.3-1.2c0.7-0.4,1.3-0.8,2-1.1l4.3,0.1
				c0.6,0.6,1,1.5,1.1,2.3c0.2,0.8,0.2,1.6,0.1,2.3v0.9h-15.7v-0.9l0,0C574.4,593,574.5,592.5,574.8,592z"/>
		</g>
	</g>
	<g>
		<g>
			<path class="st6" d="M116.2,592.9l20.5,0.1c0-0.7-0.1-1.4-0.6-1.9c-0.5-0.6-1.3-1-2-1.1c-0.8-0.1-1.6-0.1-2.4-0.2
				c-1.9-0.1-3.9-0.7-5.5-1.6c-0.9-0.5-1.7-1.1-2.7-1.5l-5.6,0.1c-0.8,0.8-1.3,1.9-1.5,3C116.2,590.8,116.1,591.9,116.2,592.9z"/>
		</g>
		<g>
			<path class="st6" d="M59.5,589.1l19.8,5.3c0.2-0.7,0.2-1.4-0.1-2c-0.3-0.7-1-1.3-1.7-1.6s-1.5-0.5-2.3-0.7c-1.9-0.6-3.6-1.6-5-3
				c-0.7-0.7-1.4-1.5-2.2-2.1l-5.4-1.3c-0.9,0.6-1.7,1.5-2.2,2.5C60,587.1,59.7,588.1,59.5,589.1z"/>
		</g>
		<g>
			<path class="st6" d="M124.6,581.8l-2.1-56.5v-0.1l-5.4-42.1l0,0c-0.4-5.5-41.9-11.8-43.5-6.5l0,0l0,0l0,0
				c-0.3,1.1-0.4,2.1-0.4,3.1l-11.1,98.4l8.2,1.2l23.7-75l13.5,23.5l9.1,54.1L124.6,581.8z"/>
		</g>
		<g>
			<g>
				<g>
					<path class="st16" d="M146.4,480.5c0.7-0.8,0.8-2,0.1-2.7c-4.1-4.2-8.1-8.4-11.3-12.9c-1.6-2.3-3.1-4.6-4.4-7
						c-1.3-2.4-2.4-4.9-3.4-7.5c-1-2.6-1.8-5.2-2.5-7.9c-0.4-1.3-0.7-2.7-1-4.1l-0.4-2.1c-0.1-0.7-0.3-1.4-0.4-2.1
						c-0.5-2.7-0.9-5.5-1.3-8.3c-0.3-2.8-0.6-5.6-0.9-8.5c-0.1-0.9-0.4-1.7-0.9-2.5c-0.5-0.7-1.1-1.4-1.8-1.9
						c-1.5-1-3.4-1.5-5.4-1.3c-2,0.3-3.8,1.3-4.9,2.7c-0.6,0.7-1,1.5-1.2,2.4s-0.2,1.8,0,2.7c0.7,2.9,1.4,5.9,2.2,8.8
						c0.8,2.9,1.7,5.8,2.7,8.7c0.2,0.7,0.5,1.4,0.8,2.2l0.8,2.2c0.6,1.4,1.1,2.9,1.7,4.3c1.2,2.8,2.5,5.6,4.1,8.4
						c1.5,2.7,3.2,5.4,5,7.9s3.9,4.9,6,7.1c2.1,2.2,4.4,4.2,6.7,6.1s4.6,3.7,7,5.5C144.5,481.5,145.7,481.3,146.4,480.5z"/>
				</g>
			</g>
			<g>
				<path class="st1" d="M107.4,442.4l-3-18.7c-0.9-5.7,2.5-11.1,8.2-12l0,0c5.7-0.9,11.4,3.1,12.3,8.7l3,18.7L107.4,442.4z"/>
			</g>
		</g>
		<g>
			<path class="st1" d="M102.1,408.1L102.1,408.1c11.2,0,20,9.6,19.1,20.8l-4.3,53.5c-18.5,7-28.8,3.1-44-3.5l5.8-50.1
				C80.1,417,90.2,408.1,102.1,408.1z"/>
		</g>
		<g>
			<path class="st9" d="M118.4,464.2l-1.5,18.3c-3.4,1.3-6.6,2.2-9.5,2.8v0.6c3.1-0.6,6.3-1.6,9.8-2.9l0.4-0.1l1.5-18.7L118.4,464.2
				z M117.9,415.4l-0.5,0.4c2.4,3.2,3.9,7.2,3.9,11.5c0,0.5,0,1.1-0.1,1.7l-0.8,10.1c0.2,0,0.4,0,0.6,0l0.8-10
				C122.2,423.9,120.7,419.1,117.9,415.4z M78.9,481.5l-0.2,0.5c4.4,1.8,8.4,3.2,12.5,4l0.1-0.6C87.2,484.6,83.2,483.2,78.9,481.5z
				 M105.1,407.7c-1-0.2-2-0.2-3-0.2c-7.1,0-13.5,3-17.9,8l0.5,0.3c4.3-4.7,10.5-7.7,17.4-7.7c3.9,0,7.5,1.2,10.5,3.1l0.4-0.4
				C110.7,409.3,108,408.2,105.1,407.7z"/>
		</g>
		<g>
			<g>
				<g>
					<path class="st12" d="M79.9,496.2c1-0.4,1.6-1.4,1.3-2.5c-0.8-3.1-1.6-6.2-2.3-9.3c-0.7-3.1-1.4-6.2-1.9-9.2
						c-0.5-3.1-0.8-6.1-0.7-9c0-2.9,0.4-5.7,1.2-8.4c1.6-5.4,4.6-10.4,8.2-15.4c0.5-0.6,0.9-1.2,1.4-1.9l1.4-1.8
						c1-1.2,1.9-2.5,2.9-3.7c2-2.4,4-4.9,6-7.3c2.5-3.1,1.9-7.8-1.3-10.3c-3.3-2.5-8-1.7-10.3,1.7c-1.7,2.7-3.5,5.5-5.2,8.3
						c-0.9,1.4-1.7,2.8-2.5,4.3l-1.2,2.2c-0.4,0.7-0.8,1.5-1.2,2.2c-1.6,3-3.1,6.1-4.4,9.4s-2.3,6.8-2.8,10.4s-0.5,7.3-0.1,10.7
						c0.4,3.5,1.2,6.8,2.2,10s2.1,6.3,3.2,9.3c1.2,3,2.4,6,3.6,9C77.7,496.1,78.9,496.6,79.9,496.2z"/>
				</g>
			</g>
			<g>
				<path class="st1" d="M70.8,435.5L81.7,420c3.3-4.7,9.6-6.2,14.2-2.9l0,0c4.7,3.3,6,10.1,2.7,14.8l-10.9,15.5L70.8,435.5z"/>
			</g>
			<g>
				<path class="st9" d="M89.7,444.8l-1.9,2.7L73,437.1l-0.3,0.5l15.2,10.7l2.2-3.1L89.7,444.8z M81.1,420l-9.7,13.7l0.4,0.4
					l9.8-13.9L81.1,420z M100.5,427.2c-0.2,1.7-0.7,3.4-1.8,4.8l-4.4,6.2l0.5,0.3l4.3-6.1c1.1-1.5,1.7-3.3,1.9-5.2L100.5,427.2
					L100.5,427.2z M96.3,416.7c-1.5-1-3.1-1.7-4.9-1.8v0.5c1.6,0.2,3.1,0.7,4.5,1.7c2.2,1.5,3.6,3.8,4.2,6.3c0.2,0,0.4-0.1,0.5-0.1
					C100.1,420.7,98.5,418.3,96.3,416.7z"/>
			</g>
		</g>
		<g>
			<g>
				<g>
					<path class="st12" d="M108.2,402.6l-1.6,13.5c-3.2,1.6-6.1,1.2-8.8-1.1l1.6-13.5L108.2,402.6z"/>
				</g>
				<g>
					<path class="st16" d="M108.2,402.6l-0.7,6.1c-0.6,0.2-1.3,0.2-2,0.2c-0.2,0-0.4,0-0.7-0.1c-2.4-0.3-4.6-1.7-5.8-3.7l0.4-3.6
						L108.2,402.6z"/>
				</g>
				<g>
					<path class="st12" d="M113.2,394.8l-1.3,7.9c-0.5,3.2-3.3,5.4-6.5,5.3l0,0c-2.9-0.1-5.5-2-6.4-4.7c-0.6-1.8-1.1-3.9-1.6-6.1
						c-0.8-3.5,0.4-7.2,3.2-9.5c2.4-1.9,5.1-2.3,8.2-1C111.9,388.1,113.7,391.5,113.2,394.8z"/>
				</g>
			</g>
			<g>
				<path class="st6" d="M112.8,396.8c0,0,2.9-7.6-2.6-11.7c-1.9-1.4-4.6-2.3-7.3-2.1c-0.2-1.2-0.9-2.4-2-3c-2-1.2-4.8-0.3-6.1,2
					c-1.2,2.1-0.8,4.6,0.9,5.9c-0.9,1.9-1.3,4.4-1.2,7.6l3.3,0.1l1.3,2.4l1.5-0.7l0.6-0.1l-0.3-3.8l1.1-3.2c0,0,4.6-2.3,10,0.4
					l1,2.3l-0.1,1.7L112.8,396.8z"/>
			</g>
			<g>
				<path class="st12" d="M100.8,396.9c-0.2,1.6-1.8,2.8-3.7,2.5c-1.8-0.2-3.1-1.7-3-3.3c0.2-1.6,1.8-2.8,3.7-2.5
					C99.7,393.8,101,395.3,100.8,396.9z"/>
			</g>
		</g>
		<g>
			<polygon class="st12" points="117.1,581.9 117.9,586.8 123.5,586.7 123.9,581.8 			"/>
		</g>
		<g>
			<polygon class="st12" points="62.8,578.2 62.6,583.7 68.1,585 69.8,579.3 			"/>
		</g>
	</g>
	<g>
		<path class="st6" d="M674,602.3H26c-0.8,0-1.4-0.6-1.4-1.4v-5c0-0.8,0.6-1.4,1.4-1.4h648c0.8,0,1.4,0.6,1.4,1.4v5
			C675.5,601.6,674.8,602.3,674,602.3z"/>
	</g>
	<g>
		<path class="st9" d="M508.5,187.5c0,13.3-6.7,24.9-17,31.8H358.2c-14.7-4.5-25.4-18.1-25.4-34.2c0-19.8,16-35.8,35.8-35.8
			c0.3,0,0.7,0,1.1,0c7.6-21.6,28-37,52.1-37c24.2,0,44.7,15.6,52.2,37.2C493.4,151.5,508.5,167.7,508.5,187.5z"/>
	</g>
</g>
<g>
	<g>
		<path class="st8" d="M413.7,395.2H286.3c-3.9,0-7,3.1-7,7v24.5c0,3.9,3.1,7,7,7h127.4c3.9,0,7-3.1,7-7v-24.5
			C420.7,398.3,417.5,395.2,413.7,395.2z"/>
	</g>
	<g>
		<g>
			<polygon class="st1" points="415.4,418.5 411.9,418.5 411.9,403.9 357,403.9 357,400.4 415.4,400.4 			"/>
		</g>
	</g>
	<g>
		<rect x="286.3" y="402.3" class="st4" width="22.8" height="24.3"/>
	</g>
</g>
<g>
	<g>
		<path class="st8" d="M413.7,298.4H286.3c-3.9,0-7,3.1-7,7v24.5c0,3.9,3.1,7,7,7h127.4c3.9,0,7-3.1,7-7v-24.5
			C420.7,301.5,417.5,298.4,413.7,298.4z"/>
	</g>
	<g>
		<g>
			<polygon class="st1" points="415.4,321.7 411.9,321.7 411.9,307.1 357,307.1 357,303.6 415.4,303.6 			"/>
		</g>
	</g>
	<g>
		<rect x="286.3" y="305.5" class="st4" width="22.8" height="24.3"/>
	</g>
</g>
<g>
	<g>
		<path class="st8" d="M413.7,346.8H286.3c-3.9,0-7,3.1-7,7v24.5c0,3.9,3.1,7,7,7h127.4c3.9,0,7-3.1,7-7v-24.5
			C420.7,349.9,417.5,346.8,413.7,346.8z"/>
	</g>
	<g>
		<g>
			<polygon class="st1" points="415.4,370.1 411.9,370.1 411.9,355.5 357,355.5 357,352 415.4,352 			"/>
		</g>
	</g>
	<g>
		<rect x="286.3" y="353.9" class="st4" width="22.8" height="24.3"/>
	</g>
</g>
<g>
	<path class="st8" d="M413.7,443.1H286.3c-3.9,0-7,3.1-7,7v24.5c0,3.9,3.1,7,7,7h127.4c3.9,0,7-3.1,7-7v-24.5
		C420.7,446.2,417.5,443.1,413.7,443.1z"/>
</g>
<g>
	<g>
		<polygon class="st1" points="415.4,466.4 411.9,466.4 411.9,451.8 357,451.8 357,448.3 415.4,448.3 		"/>
	</g>
</g>
<g>
	<rect x="286.3" y="450.2" class="st4" width="22.8" height="24.3"/>
</g>
<g>
	<path class="st9" d="M357,456.2c0,11.7-6,22-15,28.1H224.1c-13-4-22.4-16-22.4-30.3c0-17.5,14.2-31.6,31.7-31.6c0.3,0,0.6,0,0.9,0
		c6.7-19.1,24.8-32.7,46.1-32.7c21.4,0,39.5,13.8,46.2,32.9C343.6,424.3,357,438.7,357,456.2z"/>
</g>
<g>
	<path class="st8" d="M413.7,492.6H286.3c-3.9,0-7,3.1-7,7v24.5c0,3.9,3.1,7,7,7h127.4c3.9,0,7-3.1,7-7v-24.5
		C420.7,495.7,417.5,492.6,413.7,492.6z"/>
</g>
<g>
	<g>
		<polygon class="st1" points="415.4,515.9 411.9,515.9 411.9,501.3 357,501.3 357,497.8 415.4,497.8 		"/>
	</g>
</g>
<g>
	<rect x="286.3" y="499.7" class="st4" width="22.8" height="24.3"/>
</g>
<g>
	<g>
		<path class="st8" d="M413.7,541.1H286.3c-3.9,0-7,3.1-7,7v24.5c0,3.9,3.1,7,7,7h127.4c3.9,0,7-3.1,7-7v-24.5
			C420.7,544.2,417.5,541.1,413.7,541.1z"/>
	</g>
	<g>
		<g>
			<polygon class="st1" points="415.4,564.4 411.9,564.4 411.9,549.8 357,549.8 357,546.3 415.4,546.3 			"/>
		</g>
	</g>
	<g>
		<rect x="286.3" y="548.2" class="st4" width="22.8" height="24.3"/>
	</g>
</g>
<g>
	<g>
		<g>
			<g>
				<path class="st0" d="M421.4,509.4v9.7h50v-9.7L421.4,509.4L421.4,509.4z M446.3,470.4c-21.5,0-39,17.5-39,39v23.7H438
					c2.3-1.7,5.2-2.7,8.4-2.7c3.1,0,6,1,8.4,2.7h30.6v-23.7C485.3,487.9,467.8,470.4,446.3,470.4z M421.4,509.4
					c0-13.8,11.2-25,25-25s25,11.2,25,25H421.4z"/>
			</g>
		</g>
	</g>
	<g>
		<g>
			<path class="st9" d="M485.3,510.1c-1.6-0.5-3.2-0.7-5-0.7h-68.1c-1.7,0-3.4,0.3-5,0.7c-7.1,2.1-12.2,8.7-12.2,16.5v50.6
				c0,9.5,7.7,17.2,17.2,17.2h68.1c9.5,0,17.2-7.7,17.2-17.2v-50.6C497.6,518.8,492.4,512.3,485.3,510.1z M488.4,577.2
				c0,4.4-3.6,8.1-8,8.1h-68.1c-4.4,0-8.1-3.6-8.1-8.1v-50.6c0-3.5,2.3-6.7,5.7-7.7h0.1c0.7-0.2,1.5-0.3,2.3-0.3h68.1
				c0.8,0,1.6,0.1,2.3,0.3c3.4,1,5.7,4.2,5.7,7.7V577.2z"/>
		</g>
	</g>
	<g>
		<g>
			<path class="st6" d="M483.3,517c-0.9-0.3-1.9-0.4-2.9-0.4h-68.1c-1,0-2,0.1-2.9,0.4h-0.1c-4.2,1.3-7.2,5.2-7.2,9.6v50.6
				c0,5.6,4.5,10.1,10.1,10.1h68.1c5.6,0,10.1-4.5,10.1-10.1v-50.6C490.5,522.2,487.5,518.2,483.3,517z M488.4,577.2
				c0,4.4-3.6,8.1-8,8.1h-68.1c-4.4,0-8.1-3.6-8.1-8.1v-50.6c0-3.5,2.3-6.7,5.7-7.7h0.1c0.7-0.2,1.5-0.3,2.3-0.3h68.1
				c0.8,0,1.6,0.1,2.3,0.3c3.4,1,5.7,4.2,5.7,7.7V577.2z"/>
		</g>
		<g>
			<path class="st10" d="M488.4,526.6v50.6c0,4.4-3.6,8.1-8,8.1h-68.1c-4.4,0-8.1-3.6-8.1-8.1v-50.6c0-3.5,2.3-6.7,5.7-7.7h0.1
				c0.7-0.2,1.5-0.3,2.3-0.3h68.1c0.8,0,1.6,0.1,2.3,0.3C486.1,519.9,488.4,523.1,488.4,526.6z"/>
		</g>
	</g>
	<g>
		<g>
			<path class="st9" d="M463.1,537c-1.8-0.6-3.6-1.2-5.4-1.6l0,0l0,0c-4.8-2-8.6-4.7-11.3-8.2c-2.7,3.5-6.5,6.2-11.3,8.2l0,0
				c-2,0.8-4.2,1.5-6.6,2v16.2c0,3.8,2.6,8.4,7.6,13.9c2.4,2.6,4.9,4.9,6.6,6.3c1.5,1.3,2.6,2.1,2.6,2.1l1,0.8l1-0.8
				c0.2-0.1,4.2-3.2,8.3-7.5c5.7-5.9,8.6-10.9,8.6-14.8v-16.2l0,0L463.1,537z"/>
		</g>
	</g>
</g>
</svg>
