<?xml version="1.0" encoding="utf-8"?>
<!-- Generator: Adobe Illustrator 24.2.0, SVG Export Plug-In . SVG Version: 6.00 Build 0)  -->
<svg version="1.1" id="图层_1" xmlns="http://www.w3.org/2000/svg" xmlns:xlink="http://www.w3.org/1999/xlink" x="0px" y="0px"
	 viewBox="0 0 700 700" style="enable-background:new 0 0 700 700;" xml:space="preserve">
<style type="text/css">
	.st0{fill:#F2F5FA;}
	.st1{fill:#FFFFFF;}
	.st2{fill:none;stroke:#F2F5FA;stroke-width:0.696;stroke-linecap:round;stroke-linejoin:round;stroke-miterlimit:10;}
	.st3{fill:none;stroke:#F0CAB3;stroke-width:0.4015;stroke-linecap:round;stroke-miterlimit:10;}
	.st4{fill:#4055EC;}
	.st5{fill:#C3D1FF;}
	.st6{fill:none;stroke:#FFFFFF;stroke-width:0.696;stroke-linecap:round;stroke-linejoin:round;stroke-miterlimit:10;}
	.st7{fill:#9FC3FD;}
	.st8{fill:none;stroke:#C3D1FF;stroke-width:1.392;stroke-linecap:round;stroke-linejoin:round;stroke-miterlimit:10;}
	.st9{fill:#E2EAF5;}
	.st10{opacity:0.3;}
	.st11{fill:#85A9FF;}
	.st12{fill:#EDF1F4;}
	.st13{opacity:0.3;fill:#FFFFFF;}
	.st14{fill:#D1DCE4;}
	.st15{fill:none;stroke:#4055EC;stroke-width:0.928;stroke-linecap:round;stroke-miterlimit:10;}
	.st16{fill-rule:evenodd;clip-rule:evenodd;fill:#FF7206;}
	.st17{fill-rule:evenodd;clip-rule:evenodd;fill:#FF5500;}
	.st18{opacity:0.54;fill:#CC6600;}
	.st19{fill-rule:evenodd;clip-rule:evenodd;fill:#FFFFFF;}
	.st20{fill-rule:evenodd;clip-rule:evenodd;fill:#FDA118;}
	.st21{fill-rule:evenodd;clip-rule:evenodd;fill:#FFCAE1;}
	.st22{fill-rule:evenodd;clip-rule:evenodd;fill:#FDB2D0;}
	.st23{fill:#FDB2D0;}
	.st24{fill-rule:evenodd;clip-rule:evenodd;fill:#342DEC;}
	.st25{fill:#FF5500;}
	.st26{fill:#FF7206;}
	.st27{opacity:0.53;fill-rule:evenodd;clip-rule:evenodd;fill:#0600A0;}
	.st28{fill:none;stroke:#E8685B;stroke-width:0.232;stroke-miterlimit:10;}
	.st29{opacity:0.75;}
	.st30{fill:none;stroke:#F88329;stroke-width:0.696;stroke-linecap:round;stroke-linejoin:round;stroke-miterlimit:10;}
	.st31{opacity:0.44;fill:#FCAA23;}
	.st32{opacity:0.44;fill-rule:evenodd;clip-rule:evenodd;fill:#FCAA23;}
	.st33{fill-rule:evenodd;clip-rule:evenodd;fill:#0600A0;}
	.st34{fill:none;stroke:#0600A0;stroke-width:1.624;stroke-linecap:round;stroke-miterlimit:10;}
</style>
<g>
	<path class="st0" d="M114.3,547.9c-4.9,0-12.3-11.6-15.5-15.1c-7.6-8.2-15.1-16.4-21.9-25.3c-28.1-36.8-49.1-81.3-46.6-128.6
		c2.3-44.3,34.3-83.5,68.2-109.5c44.5-34.2,95.7-60.6,149.6-76.2c48.1-13.9,98.7-19.4,148.6-14.1c6.8,0.7,13.8,1.5,20.4,3.5
		c17.9,5.4,55.3,10,58.2,33.5c2.1,17.3-17.4,26.7-25,39.7c-2.9,4.9-4.5,10.7-3.4,16.2c4.7,22.6,40.1,26.4,57.6,31.8
		c22.4,6.9,45.2,12.9,66.1,23.8c20.6,10.8,40.3,27.2,50.3,48.6c12.1,25.8,3.5,52.3-12.2,74.4c-19,26.7-41.9,51-63.4,75.7
		c-2.5,2.9-13.2,18.8-16.3,18.8C528.9,545.2,114.7,547.9,114.3,547.9z"/>
	<g>
		<g>
			<g>
				<path class="st1" d="M640,422.8c0.4-7.7,0.3-14.3-3.3-21.2c-3.6-6.9-11.4-10.5-18.9-7.9c-3.5,1.2-5.9,4.4-9.7,5.1
					c-1.6,0.3-3.5-0.1-4.7-1.1c-1.7-1.5-1.4-3.4-0.8-5.1c3.4-8.7,7.4-16.6,12.2-24.5c4.8-7.9,10.2-15.3,9.5-24.9
					c-0.2-2.4-0.9-4.2-2.4-6c-1.2-1.6-2.5-1.9-4.5-2.7c-9.4-3.8-9.4-12-6.7-20.8c2.3-7.3,4.4-15,5.3-22.8c0.1-1.3,0.4-2.7-0.3-3.9
					c-0.8-1.5-2.1-2.6-3.9-2.9c-8.6-1.5-13.1,4.2-16.3,11.2c-3.2,7-4.6,13.8-11.7,17.5c-4.4,2.3-9.7,1.4-14.5,2.2
					c-8.6,1.4-17.5,4.9-20.8,13.4c-7,18.6,11.9,40.1,10.3,61.3c-1.2,15.5-19.7,24.5-21.4,39.3c-1.5,13.4,15,29.6,23.8,37.3
					c9.7,8.5,34.4,41.8,48,31.3c8.7-6.7,16.6-23.8,17.1-34.4C627.1,446.7,639.2,437.5,640,422.8z"/>
			</g>
		</g>
		<path class="st2" d="M608.9,285.9c-46.3,123-16.4,171.7,53.5,278.2"/>
		<path class="st3" d="M624.6,430.3c-1.1,0.5-1.7,1.7-2,2.8c-5.5,17-3.6,42.6-1,60.2"/>
	</g>
	<g>
		<path class="st4" d="M675.9,409.8c-11.8,26.6-26.5,34.1-53,44.8C646.6,439.6,660.1,434.3,675.9,409.8z"/>
		<path class="st4" d="M695.8,413.6c-8.1,9.9-24.4,29.1-38.5,23.8C669,423.8,675.4,412,695.8,413.6z"/>
		<path class="st4" d="M698,379.9c-3.5,15.3-12.7,32.3-26.7,39.4c-2.4-11.4,5.7-25,13.6-30.8C692.7,382.7,698.5,379.5,698,379.9z"/>
		<path class="st4" d="M662.7,430.9c4.1-8.8,3.7-16.3-4-22.7c-3.6,8.2-5.2,17.4,2.5,23.6C661.7,431.5,662.2,431.2,662.7,430.9z"/>
	</g>
	<g>
		<path class="st5" d="M103.7,545.8c-6.1-1.4-12.5-3.1-16.9-7.5c-4.5-4.4-6.1-12.3-1.8-16.9c2-2.1,5-3.3,6.4-6
			c0.6-1.2,0.8-2.6,0.2-3.8c-0.9-1.8-2.5-1.9-4.1-1.9c-7.7-0.3-15.4-0.6-23.2-0.9c-7.8-0.3-16.3-0.9-22.2-6
			c-1.5-1.3-2.8-2.8-3.3-4.7c-0.4-1.6-0.3-3.2,0.2-4.7c2.3-7.4-1.2-15.3-8.3-18.4c-5.9-2.6-11.7-5.5-17.3-8.6
			c-0.9-0.5-1.9-1.1-2.5-2.1c-0.6-1.1-0.5-2.6,0-3.8c2.4-5.6,10.2-5.9,16-4.3c5.8,1.6,12.2,4.2,17.6,1.6c3.3-1.6,5.5-4.8,8.1-7.5
			c4.6-4.8,11.4-8,17.7-6.3c13.8,3.9,14.2,26.6,27.8,31.2c9.9,3.4,23-11.2,33.3-9.6c9.4,1.4,19,16.2,23.8,24.4
			c5.2,9.1,27.5,33.8,16.9,41.7c-6.7,5-23.3,9-31.1,8.3C129.3,539,115.4,548.4,103.7,545.8z"/>
		<path class="st6" d="M14,459.7c79.5,23.6,103.2,10.2,160.1,70.2"/>
		<path class="st6" d="M117,520.1c0.7-0.8,1.8-1.1,2.9-1.2c17-1.9,34.5,0.6,50.3,7.2"/>
	</g>
	<g>
		<g>
			<path class="st7" d="M681.9,365.4c0.6-5.4,1.3-11.4-1.1-16.5s-6.8-8.3-12.6-7.7c-2.8,0.3-4.4,1.9-6.3,3.8
				c-14.6,15.2-15.1,37-21.7,56c-8.6,24.6-25,37.8-37,60.9c-14.3,27.4,8.8,9,19.5-0.7C649.8,436.6,677.5,404.8,681.9,365.4z"/>
		</g>
		<path class="st8" d="M596.9,474.4c37-27.9,66.2-64.7,73.4-111.7"/>
		<path class="st5" d="M647,347.8c-1.1-16.1-3.9-31-15.4-42.9c-3.7-3.9-7.5-6-12.9-5.7c-13.7,0.8-20.6,10.6-21.9,23.9
			c-1.2,13.4,2.6,24.9,6.7,38.3c11.8,38.4-3,66.7-21.4,99.7c-2,3.5-3.8,6.4-4.8,10.2c-0.9,3.8,0,7.5,3.5,9.1
			c19.2,9.2,42.6-38.7,48.8-50.8C644.7,400.5,649.3,379.4,647,347.8z"/>
		<path class="st2" d="M578.5,484c44.9-45.1,61.2-102.4,46.1-163.5c-0.8-3.3-2.1-5.7-4.8-7.5"/>
	</g>
	<path class="st9" d="M149.1,317.4c-1.1-19.4-13.4-35.3-28.3-48.5c-28.7-25.5-63.9-24.4-91.5,2.6c-63.8,62.6-0.8,110.8,37.6,113.3
		c33.1,2.1,74.3-19.4,81.2-54.1C149,326,149.3,321.6,149.1,317.4z"/>
	<path class="st9" d="M174.6,149.1c-30,15.2-59,54.5-35.1,84.7c26,32.9,91.6,43.6,120.2,7.9c13.7-17.2,13.3-45,5.4-64.4
		c-12.7-31.4-48.8-41.6-79.4-32.6C182.1,145.7,178.4,147.2,174.6,149.1z"/>
	<path class="st9" d="M390.9,147.9c-12.2,0.5-24.7,4.5-34.7,11.2c-37.2,25-17.6,71.5,16,88.6c12.2,6.2,25.1,9.5,38.1,3.4
		c26-12.1,31.7-53.8,22.9-78.2C426.8,155.1,408.9,147.2,390.9,147.9z"/>
	<g>
		<path class="st7" d="M43.2,313.9l2.5,31.4c0.3,3.6,26.1,9.2,33.3,8.6c7.2-0.6,31.8-10.2,31.5-13.8l-2.5-31.4L43.2,313.9z"/>
		<polygon class="st10" points="44.4,328.4 77.8,338 109.2,323.2 108.3,311.8 43.5,317 		"/>
		<polygon class="st7" points="73.5,285 14.3,312.9 77.2,331.1 136.4,303.1 		"/>
		<polygon class="st11" points="77.2,331.1 14.8,313.1 15.1,316.2 77.5,334.2 136.2,306.5 136,303.4 		"/>
		<g>
			<path class="st1" d="M113.9,333.8l-0.2,0l-2.3,0.2l-0.2,0c0,0-5.3,8.9-0.7,17.1c0.9-0.1,1.7-0.1,2.2-0.2l0,0c0,0,0.4,0,2.3-0.2
				c0,0,0,0,0,0c0.6,0,1.3-0.1,2.2-0.2C120.6,341.8,113.9,333.8,113.9,333.8z"/>
			<g>
				<g>
					<path class="st7" d="M116,349.2c0.1-0.8-0.1-1.7-0.1-2.7c0-0.5-0.1-1-0.2-1.5c-0.1-0.5-0.2-1-0.3-1.5c-0.1-0.5-0.2-1-0.3-1.5
						c-0.1-0.5-0.3-1-0.4-1.4c-0.3-0.9-0.6-1.8-0.9-2.4c-0.5-1.4-1-2.3-1-2.3c0,0,0.4,0.9,0.8,2.3c0.3,0.7,0.4,1.6,0.7,2.5
						c0.1,0.5,0.2,0.9,0.3,1.4c0.1,0.5,0.2,1,0.2,1.5c0,0.5,0.1,1,0.1,1.5c0.1,0.5,0.1,1,0.1,1.4c0,0.9,0,1.8-0.1,2.5
						c-0.1,0.7-0.2,1.2-0.2,1.6c0.1,0,0.2,0,0.3,0c0,0,0,0,0,0c0.2,0,0.5,0,0.8-0.1C115.9,350.3,115.9,349.8,116,349.2z"/>
					<path class="st7" d="M112.6,349.3c-0.2-0.7-0.3-1.6-0.5-2.5c-0.1-0.5-0.2-0.9-0.2-1.4c0-0.5-0.1-1-0.1-1.5c-0.1-0.5,0-1,0-1.5
						c0-0.5,0-1,0-1.5c0.1-0.9,0.1-1.8,0.3-2.6c0.2-1.5,0.5-2.5,0.5-2.5c0,0-0.3,0.9-0.6,2.4c-0.2,0.7-0.3,1.6-0.5,2.5
						c0,0.5-0.1,1-0.1,1.5c0,0.5-0.1,1-0.1,1.5c0,0.5,0,1,0,1.5c0,0.5,0,1,0.1,1.5c0.1,1,0.1,1.9,0.3,2.7c0.1,0.5,0.2,1,0.3,1.4
						c0.3,0,0.5,0,0.8-0.1l0,0c0,0,0.1,0,0.3,0C113,350.5,112.8,349.9,112.6,349.3z"/>
					<path class="st7" d="M117.8,347.9c0-0.5,0-1,0-1.6c0-0.5-0.1-1.1-0.2-1.6c-0.1-0.6-0.3-1.1-0.4-1.6c-0.6-2.1-1.7-4-2.6-5.2
						c-0.9-1.2-1.6-1.9-1.6-1.9s0.7,0.8,1.5,2.1c0.8,1.3,1.7,3.2,2.2,5.3c0.1,0.5,0.2,1,0.3,1.5c0.1,0.5,0.1,1,0.1,1.5
						c0,0.5,0,0.9-0.1,1.4c0,0.4-0.1,0.8-0.2,1.2c-0.2,0.7-0.4,1.3-0.5,1.7c0,0,0,0,0,0c0.4,0,0.8-0.1,1.2-0.1
						c0.1-0.2,0.1-0.4,0.2-0.6c0.1-0.2,0.1-0.5,0.1-0.7C117.7,348.8,117.8,348.4,117.8,347.9z"/>
					<path class="st7" d="M112.7,335.9l0.6,14.9c0.3,0,0.6,0,1.1-0.1L112.7,335.9z"/>
					<path class="st7" d="M111.7,350.9c-0.2-0.4-0.5-0.9-0.8-1.6c-0.2-0.3-0.3-0.7-0.4-1.2c-0.1-0.4-0.2-0.9-0.3-1.4
						c-0.1-0.5-0.1-1-0.2-1.5c-0.1-0.5,0-1,0-1.6c0.1-2.1,0.8-4.1,1.3-5.6c0.6-1.4,1.1-2.3,1.1-2.3s-0.6,0.8-1.3,2.2
						c-0.7,1.4-1.5,3.4-1.8,5.6c0,0.6-0.1,1.1-0.1,1.7c0,0.6,0,1.1,0.1,1.6c0,0.5,0.1,1.1,0.2,1.5c0.1,0.5,0.2,0.9,0.4,1.3
						c0.1,0.3,0.2,0.5,0.3,0.7c0.1,0.2,0.2,0.3,0.3,0.5C111,351,111.4,351,111.7,350.9C111.7,351,111.7,351,111.7,350.9z"/>
				</g>
			</g>
		</g>
		<path class="st1" d="M109.5,334.1c-0.1-1.7,1.1-3.2,2.8-3.3c1.7-0.1,3.2,1.1,3.3,2.8c0.1,1.7-1.1,3.2-2.8,3.3
			C111.1,337.1,109.6,335.9,109.5,334.1z"/>
		
			<ellipse transform="matrix(0.9968 -7.987744e-02 7.987744e-02 0.9968 -24.3632 7.0048)" class="st10" cx="75.4" cy="308" rx="9.7" ry="5.8"/>
		<path class="st1" d="M85,308.4c-0.3,1-0.9,1.9-1.8,2.7l0,0.2l26.5,5.6L111,334l3.2-0.3l-1.6-19.5L85,308.4z"/>
		<path class="st11" d="M65.6,308c-0.2-2.7,3.3-5.3,8-5.6c4.6-0.4,8.5,1.5,8.8,4.3c0.2,2.7-3.3,5.2-8,5.6
			C69.7,312.7,65.8,310.7,65.6,308z"/>
	</g>
	<g>
		<path class="st7" d="M246.6,176.3l-20.8,25.8L201,232.9c-2.1,2.6-5.9,3-8.5,0.9l-1.8-1.4c-2.6-2.1-3-5.9-0.9-8.5l15.6-19.3
			l30.1-37.3L246.6,176.3z"/>
		<path class="st12" d="M226.4,218c0.1-11.3-6.2-21.1-15.5-26c-0.7-0.4-1.3-1.3-1.3-2.1l0.3-30.1l-24.1-0.3l-0.3,30.1
			c0,0.8-0.6,1.7-1.3,2.1c-9.4,4.7-15.9,14.4-16,25.7c-0.1,6.2,1.8,12,5.1,16.8c0.5,0.7,1.5,1.2,2.3,1.2l42.9,0.5
			c0.8,0,1.9-0.5,2.4-1.2C224.3,230,226.4,224.2,226.4,218z"/>
		<path class="st7" d="M220.9,234.7c3.4-4.7,5.4-10.5,5.5-16.7c0.1-4.6-1-8.9-2.8-12.8l-52.3-0.6c-1.9,3.8-3,8.1-3.1,12.7
			c-0.1,6.2,1.8,12,5.1,16.8c0.5,0.7,1.5,1.2,2.3,1.2l42.9,0.5C219.4,235.8,220.5,235.3,220.9,234.7z"/>
		<path class="st1" d="M187.1,222.3c-3,0-5.5-2.5-5.4-5.6c0-3,2.5-5.5,5.6-5.4c3,0,5.5,2.5,5.4,5.6
			C192.6,219.9,190.2,222.3,187.1,222.3z M187.2,212.7c-2.2,0-4.1,1.8-4.1,4c0,2.2,1.8,4.1,4,4.1s4.1-1.8,4.1-4
			C191.2,214.6,189.4,212.8,187.2,212.7z"/>
		<path class="st11" d="M202.4,203.2c-3,0-5.5-2.5-5.4-5.6c0-3,2.5-5.5,5.6-5.4c3,0,5.5,2.5,5.4,5.6
			C207.9,200.8,205.4,203.2,202.4,203.2z M202.5,193.6c-2.2,0-4.1,1.8-4.1,4c0,2.2,1.8,4.1,4,4.1c2.2,0,4.1-1.8,4.1-4
			C206.5,195.5,204.7,193.7,202.5,193.6z"/>
		<path class="st1" d="M205.6,226.4c-2.3,0-4.1-1.9-4.1-4.2c0-2.3,1.9-4.1,4.2-4.1c2.3,0,4.1,1.9,4.1,4.2
			C209.7,224.6,207.8,226.4,205.6,226.4z M205.6,219.6c-1.5,0-2.7,1.2-2.7,2.7c0,1.5,1.2,2.7,2.7,2.7c1.5,0,2.7-1.2,2.7-2.7
			C208.3,220.8,207.1,219.6,205.6,219.6z"/>
		<path class="st11" d="M194.4,187.7c-2.3,0-4.1-1.9-4.1-4.2c0-2.3,1.9-4.1,4.2-4.1c2.3,0,4.1,1.9,4.1,4.2
			C198.5,185.9,196.7,187.8,194.4,187.7z M194.4,180.9c-1.5,0-2.7,1.2-2.7,2.7c0,1.5,1.2,2.7,2.7,2.7c1.5,0,2.7-1.2,2.7-2.7
			C197.1,182.1,195.9,180.9,194.4,180.9z"/>
		<path class="st11" d="M211.7,190.7c-0.3-0.1-0.5-0.6-0.5-0.8l0.3-27.1c1.1-0.5,1.9-1.6,1.9-2.9c0-1.8-1.4-3.3-3.3-3.3l-24.1-0.3
			c-1.8,0-3.3,1.4-3.3,3.3c0,1.3,0.7,2.4,1.8,3l-0.3,27.1c0,0.2-0.3,0.7-0.5,0.8c-10.3,5.2-16.7,15.5-16.8,27
			c-0.1,6.3,1.8,12.4,5.4,17.7c0.7,1.1,2.2,1.8,3.5,1.8l42.9,0.5c1.3,0,2.8-0.7,3.6-1.8c3.7-5.1,5.7-11.2,5.8-17.5
			C228,206.5,221.8,196.1,211.7,190.7z M219.8,233.8c-0.2,0.3-0.8,0.5-1.2,0.5l-42.9-0.5c-0.3,0-1-0.3-1.1-0.6
			c-3.2-4.7-4.9-10.2-4.9-16c0.1-10.4,5.9-19.7,15.2-24.4c1.2-0.6,2.1-2,2.2-3.4l0.3-26.8l21.1,0.2l-0.3,26.8c0,1.3,0.9,2.8,2.1,3.4
			c9.2,4.9,14.8,14.3,14.7,24.7C224.9,223.7,223.1,229.2,219.8,233.8z"/>
		<path class="st13" d="M175.3,223.9c0.2-14.2,8.2-27.1,20.9-33.5c0.3-0.2,0.7-0.7,0.7-1l0.4-33.1l-11.2-0.1c-1.8,0-3.3,1.4-3.3,3.3
			c0,1.3,0.7,2.4,1.8,3l-0.3,27.1c0,0.2-0.3,0.7-0.5,0.8c-10.3,5.2-16.7,15.5-16.8,27c-0.1,6.3,1.8,12.4,5.4,17.7
			c0.7,1.1,2.2,1.8,3.5,1.8l1.7,0C176,232.7,175.2,228.4,175.3,223.9z"/>
		<path class="st11" d="M205.8,142.1c-0.1,2.3-2.1,4.1-4.4,4c-2.3-0.1-4.1-2.1-4-4.4c0.1-2.3,2.1-4.1,4.4-4
			C204.2,137.8,206,139.7,205.8,142.1z"/>
		<circle class="st11" cx="218.7" cy="134" r="6.6"/>
		<path class="st7" d="M216.2,146.6c-0.1,1.6-1.4,2.8-3,2.7c-1.6-0.1-2.8-1.4-2.7-3c0.1-1.6,1.4-2.8,3-2.7
			C215,143.6,216.2,145,216.2,146.6z"/>
	</g>
	<g>
		<rect x="366.7" y="224.5" class="st14" width="48.7" height="6.2"/>
		<path class="st1" d="M359.1,211.7l6.5,18.1c0.2,0.6,1,1.1,1.6,0.9l18.9-3.4l4.4-7.6l-27-15.6L359.1,211.7z"/>
		<path class="st11" d="M370.8,222.6c-2.4-1.4-5.3-1.3-7.8,0l2.6,7.1c0.2,0.6,1,1.1,1.6,0.9l7.5-1.4
			C374.5,226.6,373.2,224,370.8,222.6z"/>
		<polygon class="st7" points="370.3,210.4 359.1,211.7 382.6,171 390.4,175.5 		"/>
		<polygon class="st11" points="381.6,217 372.6,219.5 370.3,210.4 390.4,175.5 401.8,182.1 		"/>
		<polygon class="st7" points="386.1,227.3 381.6,217 401.8,182.1 409.6,186.6 		"/>
		<rect x="395" y="161.3" transform="matrix(0.5 -0.866 0.866 0.5 45.4409 432.4193)" class="st1" width="4.5" height="31.2"/>
		<path class="st11" d="M414.6,172.6l-22.3-12.9c-1.3-0.7-2.9-0.3-3.7,1l-3.7,6.4l27,15.6l3.7-6.4
			C416.3,175,415.9,173.3,414.6,172.6z"/>
	</g>
	<g>
		<path class="st15" d="M188,537.8c-10.4-8.7-20.7-17.4-30.5-26.8c-26.7-25.7-50-58-53.1-95"/>
		<path class="st4" d="M96.3,397.2c0.3-1.7,1-3.7,2.6-4.4c1.6-0.7,3.6,0.2,4.7,1.6c1.1,1.4,1.5,3.2,1.8,5c0.7,3.6,6.4,27-3.1,20.7
			C96.3,416.1,95.2,403.5,96.3,397.2z"/>
		<path class="st4" d="M93.3,459.4c-1.7-0.2-3.7-0.7-4.7-2c-1-1.3-0.4-3,0.7-3.9c1.2-0.9,2.9-1.3,4.5-1.6c3.3-0.7,24.8-6.1,20.5,1.9
			C111.6,458.8,99.6,460.1,93.3,459.4z"/>
		<path class="st4" d="M166.1,515c-1.5,0.3-3.2,0.4-4.4-0.5c-1.1-0.8-1.1-2.3-0.4-3.4c0.7-1.1,2-1.8,3.3-2.5
			c2.6-1.4,19-11.4,17.4-3.7C181,509.8,171.4,514,166.1,515z"/>
		<path class="st4" d="M139.4,519.1c-1.4,0.4-3,0.7-4.1,0c-1.2-0.7-1.3-2.1-0.7-3.1c0.6-1.1,1.7-1.9,2.8-2.7
			c2.2-1.6,16.5-12.6,15.8-5.3C152.7,512.7,144.2,517.6,139.4,519.1z"/>
		<path class="st4" d="M81.1,438.4c-2.7-1.2-5.6-3.6-5.1-6.5c0.3-1.8,2-3.2,3.7-3.7c1.8-0.5,3.7-0.4,5.5-0.3c6.8,0.5,13.7,1,20,3.5
			c7.9,3.1-4.5,7.7-7.5,8.4C92.2,441.1,86.3,440.7,81.1,438.4z"/>
		<path class="st4" d="M109.7,493.2c-2.6,0-5.9-0.9-6.5-3.4c-0.4-1.6,0.4-3.3,1.7-4.4c1.2-1.1,2.8-1.7,4.4-2.2
			c5.7-2.1,11.5-4.2,17.5-4.5c7.6-0.3-0.8,7.9-3,9.6C119.7,491.3,114.7,493.2,109.7,493.2z"/>
		<path class="st4" d="M129.1,449.2c2.4-1.2,4.9-2.4,7.4-3c2.5-0.6,5.1-0.6,7,0.5c0.2,0.1,0.5,0.3,0.6,0.6c0.2,0.5-0.2,1.3-0.7,1.8
			c-3,3.9-7.6,6.8-12.2,8.2c-4.6,1.4-9.2,1.6-13.5,1.1C110.2,457.6,127.1,450.1,129.1,449.2z"/>
		<path class="st4" d="M122.3,433.7c2.4-1.2,4.8-2.5,7.3-3.2c2.5-0.7,5-0.8,6.8,0.2c0.2,0.1,0.5,0.3,0.5,0.5
			c0.2,0.5-0.3,1.2-0.7,1.8c-3,3.9-7.6,6.8-12.1,8.4c-4.5,1.6-9,1.9-13.1,1.7C103.6,442.6,120.3,434.7,122.3,433.7z"/>
		<path class="st4" d="M157,494.5c1.8-0.7,3.6-1.5,5.5-1.7c1.9-0.2,4,0,5.5,1.2c0.2,0.2,0.4,0.3,0.5,0.6c0.2,0.5,0,1-0.3,1.5
			c-1.9,2.9-5.1,4.8-8.6,5.5c-3.4,0.7-7,0.3-10.4-0.5C143.2,499.5,155.6,495.1,157,494.5z"/>
		<path class="st4" d="M147.8,480.2c2.3-0.8,4.6-1.5,6.9-1.8c2.3-0.3,4.6-0.1,6,1.1c0.2,0.1,0.4,0.3,0.4,0.6c0.1,0.5-0.4,1-0.9,1.5
			c-3.2,3-7.6,5-11.8,5.8c-4.2,0.8-8.2,0.5-11.9-0.3C130.1,485.5,146,480.8,147.8,480.2z"/>
		<path class="st4" d="M120.1,464.3c-4.7-1.1-9.8-0.2-13.8,2.5c-1.4,0.9-2.7,2.1-3.3,3.6c-0.6,1.5-0.4,3.5,0.9,4.5
			c1.8,1.4,4.4,0.5,6.4-0.6c2.9-1.7,5.6-3.7,8.1-6c0.7-0.7,1.5-1.5,1.7-2.4c0.2-1-0.3-2.2-1.3-2.4"/>
		<path class="st4" d="M141.4,495.2c-4.7-1.1-9.8-0.2-13.8,2.5c-1.4,0.9-2.7,2.1-3.3,3.6c-0.6,1.5-0.4,3.5,0.9,4.5
			c1.8,1.4,4.4,0.5,6.4-0.6c2.9-1.7,5.6-3.7,8.1-6c0.7-0.7,1.5-1.5,1.7-2.4c0.2-1-0.3-2.2-1.3-2.4"/>
		<path class="st4" d="M147,460.1c1.3-0.3,3-0.5,3.8,0.6c0.9,1.1,0.4,2.8-0.5,4c-2.3,3-6.2,4.1-9.8,5c-4,1-7.9,2.1-11.9,3
			c-5.2,1.2-3.7-1.4-0.6-3.8C133.6,464.6,140.2,461.6,147,460.1z"/>
	</g>
	<path class="st16" d="M179.8,474.3c6.2-12.8-5-32.6,4.2-46.9c5-18.1,9.4-50.9-4.5-65c-12.2,13.7-0.5-7.5-16,16.6
		c-8.7,13.6-21.2,75.3-27.9,94.4l-2.5,76.5h28.2L179.8,474.3z"/>
	<path class="st17" d="M322.9,431.1c-0.1,7.2-0.7,20.6-1.5,35.6c-1.3,25.8-2.9,56.7-3,70.8c0,3.6,0,7.3,0.1,10.3
		c0,0.1-0.5-2.8-0.5-2.7l-135,0.4c-1.2-22-9.3-93.9-9.6-113.1c-0.3-19.6-5-48-0.7-59.5c4.3-11.5-2.5-3.8,7.4-9.8
		c9.9-6,30.9-8.7,43.1-13.7c8.3,1.3,14.7,1.8,22.3,3.2c7.9-1.7,14.8-2.3,23.6-3.8c1.9,0.7,3.9,1.3,6.1,1.9c0,0,0,0,0,0
		c12,3.3,27.9,5.7,37.6,9.8c0,0,0,0,0,0l7.3,4.7l2,1.3c0,0,0,0,0,0c0.2,1,0.6,2.6,1.6,5.2C328.4,383.2,323.2,411.5,322.9,431.1z"/>
	<path class="st18" d="M247.5,365.8c0.7,0.8-3,1.5-3.4,1.6c-1.2,0.4-2.3,0.8-3.4,1.3c-2.2,1.1-4,2.8-5.1,4.9
		c-3.9,7.3,1.3,13.9,3.8,20.6c1.7,4.7,3.2,9.5,4.4,14.4c2.3,9.3,3.8,18.9,4.5,28.5c1.1,16,0.6,32.6-5.2,47.7
		c-3.4,8.7-8.5,3.1-14-0.3c-2.2-1.4-5.3-2.7-7.1-4.6c-1.1-1.1-5.5-111.1-5.5-111.1l3.5-18.6c0,0,8.3,9.1,18.1,12.6
		c1.6,0.6,3.2,1.2,4.8,1.8c0.7,0.2,1.4,0.3,2.1,0.5C245.5,365.2,247,365.3,247.5,365.8C247.5,365.8,247.5,365.8,247.5,365.8z"/>
	<path class="st19" d="M268.7,348.2C268.6,348.2,268.6,348.2,268.7,348.2c-7.8,1.2-15.4,2.7-23.1,4.4c-7.4-1.2-14.7-2.4-22.1-3.4
		c-2.4,0.7-4.7,1.4-7.1,2.1c0.4,1.1,0.9,2,1.8,2.9c17.6,15.8,34.7,16.1,52.1,2.5c0,0,0.1-0.1,0.1-0.1c0.1-0.2,0.1-0.4,0.2-0.5
		c0.8-2.2,1.3-4.5,1.9-6.9C271.2,348.8,269.9,348.5,268.7,348.2z"/>
	<path class="st16" d="M326.2,369.8l0,0.8c1.7,16.6,2,36.9-0.2,54.9c-0.6,4.6-1.3,12.1-1.7,18.1c-0.5,6.5-0.3,17.5,0.1,29.6
		c0.7,19.8,2.2,42.5,2.9,53.3c0.1,1.4,0.1,2,0.2,3.6c0.3,4.1,0.6,8.4,0.9,12.8c0.1,1.7-0.1,0.7,0,2.8c-3.4-0.5-60.3-0.3-60.3-0.3
		c-2.6-17.5-12.1-95.4-12.5-107.8c-0.9-27.3,5.9-43.4,8.7-60.8c0.6-3.6,2-6.9,3.2-10.4c1-3.2,1.8-6.5,2.9-9.7l3.1-5.5
		c0.7,0,1.2-0.2,1.8-0.5c0,0,0,0,0,0c0.8-0.4,1.7-1,3.1-1.2c9.9-1,23.7,4.8,34.5,11c0,0,0,0,0,0c2.7,1.5,5.2,3.1,7.4,4.6
		c0.7,0.4,1.3,0.9,1.9,1.3c0,0,0,0,0,0c1.2,0.9,2.3,1.7,3.2,2.4L326.2,369.8z"/>
	<path class="st20" d="M270.9,348.8c1.3-0.1,0.4-1.3,2.3-0.8s6.1,2.6,8.7,3.8c2.2,5.3-1.4,11.8-3.1,16.7c-2.5,7.2-5.4,14.2-7.1,21.8
		c-0.2,0.9-0.4,1.8-0.9,2.6c-1.6,2.7-10.1,0-10.7,3.8c1.2-7.8,2.5-13.9,4.7-21.9c2.2-7.9,5.3-17.3,7.7-25.5
		C272,349,271.5,349,270.9,348.8z"/>
	<path class="st16" d="M219.9,349.7c3.5,14.4,4.6,11.3,7.4,28.9c2.8,17.6,12,32.2,12.7,59.1c0.3,12-6.8,97.4-9.1,114.2
		c-20,1.4-40-2.3-60-2.4c0.2-3.1,2.8-48.8,2.9-51.9c1.2-21.4-0.4-50-2.8-69.8c-2.4-19.8-2-40.2-0.1-54.9c0.2-1.8,0.5-3.8,1.1-5.5
		c0.6-1.7,2.2-2.3,3.7-3.1c7.2-3.8,15.2-5.6,22.9-7.9c6.7-2,13.6-3.7,20.2-6.1C218.8,350.2,219.9,349.8,219.9,349.7z"/>
	<path class="st20" d="M221.4,349.7c-1.2-0.1-0.4-1.3-2.2-0.8c-1.8,0.5-5.5,2.7-7.8,3.8c-1.9,6.2,6.8,29.7,7.5,35.8
		c0.7,6.1,8.9,4.3,14,8.8c-1.7-7.7-3.2-13.8-5.2-21.8c-2-7.9-5-17.3-7.7-25.4C220.4,350,220.8,350,221.4,349.7z"/>
	<path class="st21" d="M262.6,353.7c-9.4,5.7-21.6,6.3-31.3,1.2c-2.8-1.5-5.5-3.5-7.7-5.9c0.2-0.2,0.7-0.1,0.9-0.2
		c0.8-0.2,1.4-0.1,2.2-0.3c1.9-0.6,3.8,0.2,5.6-1.2c1.8-1.4,3-1.6,3.1-5.3c0-1.6,0-3.6,0-5.9c0-0.2,0-0.4,0-0.7
		c-0.1-5.6-0.3-12.4-0.4-16c-0.1-5.3-0.4-6-0.5-10.4c4.3,0.8,8.6,1.5,12.8,2.5c4.2-1.4,8.4-2.5,12.7-3.8c0.1,4.3-0.2,5.4-0.1,10.5
		c0.1,3.1,0.2,8.8,0.2,14c-1.2,0.9-2.5,1.7-3.8,2.4c-0.9,3.7-1,6.7,0.3,8.6C259.3,347.1,260,351.1,262.6,353.7z"/>
	<path class="st22" d="M272,295.6c0.3,0,0.4,0.1,0.6,0.1c0,0,0,0,0,0c0,0,0,0,0,0c4-1.6,6.6,4.1,6.7,7.7c0.2,4.2-2.7,8.3-7.4,8.5
		c-4.7,0.2-8-3-8.6-7.6c-0.3-2.7,0.9-4.8,2.6-6.7c0,2.7,0.6,5,3.5,5.6c0-1.4-0.3-3.4-0.3-4.7C269.2,296.6,270.3,295.9,272,295.6z"/>
	<path class="st21" d="M265.3,304.1c0.9,7.1-6.6,20.9-8.9,30.6c-3.4,1.8-7.3,2.8-11.6,2.8c-2.5,0-4.9-0.3-7.2-0.8c0,0,0,0,0,0
		c-0.7-0.2-1.4-0.4-2.1-0.6c-10.2-3.2-17.5-11.6-19.3-22.7c-0.2-0.9-0.3-1.9-0.4-2.8c-0.5-6.6-1-18.5-1.1-24.5
		c-0.5-17.3,9.9-27.9,26.3-28.2c16.4-0.3,27.5,6.8,29.1,26.7c0,0,0.3,5.4,0.6,11.3l-22-11.8C249,284.4,264.1,294.5,265.3,304.1z"/>
	<g>
		<path class="st23" d="M230.1,282.4C229.9,282.4,227.2,282.2,230.1,282.4L230.1,282.4z"/>
	</g>
	<path class="st24" d="M276.4,293.7L276.4,293.7c-0.5,0.9-1.1,1.8-1.7,2.6c-1.8,0.2-3.7,1.3-3.9,3.1c-0.2,1.7,0.2,2.5,0.1,4.1
		c-1.1-0.1-1.9-0.8-2.5-1.8c-0.9-1.6-0.7-3.2-0.8-5c0-0.1,0.1-0.3,0-0.4c-3.4-3.9-2.9-5.9-2.9-11.2c0-5.2-11.6-7.8-16.6-8.3
		c-5-0.5-10.8-0.8-15.9-1.3c-2.4,0.7-4.8,1.3-7.2,2c-2.2,2.6-4.3,5.2-6.5,7.8l-0.5,13.3c0,1.4,0.2,2.2,0.1,3.6c0,1.5-1,3.4-2.7,3.7
		c-0.2-1.5,0.1-2.3-0.3-4c-0.3-1.6-2.4-2.6-4.2-2.6c-4.2-4.2-10.2-9.6-11-15.5c-0.4-2.6-0.1-5,0.6-7.2c0.7-2.4,1.7-4.7,2.6-7.2
		c0.9-2.6,2-5,3.4-7.3c0.6-1,1.3-2,2.1-3c1.6-2,3.9-3.2,6.4-3.5c1.1-0.2,2.2,0.2,3.2,0c3.2-0.6,3.8-3.6,5.8-5.6
		c1.6-1.6,3.4-2.9,5.6-3.8c4.5-1.8,9.1-2.6,14-2.3c9.7,0.8,19,3.4,26.7,9.7c5,4.1,8.2,9.5,9.7,15.3
		C282.1,277.2,280.9,286.2,276.4,293.7z"/>
	<path class="st22" d="M260.1,332.3c-1.2,0.9-2.5,1.7-3.8,2.4c2.3-9.7,9.8-23.5,8.9-30.6c-1.2-9.7-16.3-19.7-16.8-20l22,11.8
		c0.3,4.9,0.5,10.2,0.6,13C271.5,317.9,267.3,326.9,260.1,332.3z"/>
	<path class="st24" d="M211.5,294.3c-5.3-13.6-2.9-25.7,13-29c4.6-7.2,10.4-10.1,19-8.2c8.6,1.9,18.2,4.9,25.7-1.7
		c1.7,4,1.1,7.6-1.1,11.2c9.1,8.5,9.1,17.6,1.7,27.2c-3.3-14-34.1,0.9-40.3-12.7C227.2,293.4,218.9,288.6,211.5,294.3z"/>
	<path class="st24" d="M280.1,286.4c-0.5,2.1-1.2,4.2-1.9,6.2c-1.8,5-4.2,9.7-6.6,14.6c-0.1,0.3-0.3,0.5-0.4,0.8
		c-1.7-0.2-2.1-2-2.5-3.4c-0.2-0.6-0.3-1-0.4-1.5c-0.4-1.7-0.6-3.3-0.7-5.1c0-0.2,0-0.4,0-0.6c-7.1-9.4-33.1-3.6-38.2-16.2
		c-1.1,5.9-3.6,7.8-6.7,8.9c-2.6,0.9-4.5,3.3-4.6,6.1l-0.2,5.3c-0.1,1.3,0,0.8,0,1.1c-0.1,1.9-0.2,2.5-0.4,4.5
		c-0.1,1.3,0,5.5-1.8,6.2c-3.2-5.2-6.2-10.4-9.4-15.7c-3-4.8-5.7-9.5-6.5-15.3c-0.1-0.5-0.1-1,0.1-1.4c1.4-2.5,4.1,0.8,5.6,1.5
		c1.6,0.8,2.8,0.8,4.3,0.7c3.4-0.6,6.5-2,9.4-3.9c0.8-0.5,1.6-1.1,2.3-1.6c2.1-1.5,4-3.3,5.8-5c0,0,0.1,0.1,0.1,0.1c0,0,0-0.1,0-0.1
		c0.1,0.1,0.2,0.2,0.2,0.3c1.4,1,2.6,1.9,3.7,2.5c0.1,0.1,0.2,0.1,0.3,0.1c0,0,0,0,0,0c3.7,2,7,2.4,14.2,2.9
		c4.5,0.3,14.8-1.8,21.7-5.8c0.9-0.6,1.9-1.3,2.8-2.1c0.6-0.5,1.1-1,1.6-1.6c2.1-2.4,3.3-5,4.2-8.2c0-0.2,0.1-0.3,0.1-0.5
		c3.1,5.3,4.7,10.7,4.8,16.4C281.3,279.8,280.9,283.1,280.1,286.4z"/>
	<path class="st25" d="M327.6,530C311,498.3,303.7,429.6,308,394.5c0.2-1.2,0.7-4.5,0.9-6c1.4,16,3.7,33,10.6,47.7
		c1.2,2.7,2.9,5.1,4.9,7.2c-1.3,17.6,2,65.4,3,83C327.4,527.9,327.5,528.6,327.6,530z"/>
	<g>
		<path class="st26" d="M359.7,467.8l-5.6,77.2l-19.1,0l-6.2-61.7c-1.4-3.4-2.8-6.8-4.4-10.1c-1-2.2-2-4.3-3.1-6.5
			c0-0.1-0.1-0.1-0.1-0.2c-0.6-1.1-1.6-3.4-2.3-4.5c0,0,0,0,0,0c0,0,0,0,0,0c0,0,0,0,0,0c0,0,0,0,0,0c-0.1-0.1-0.2-0.3-0.3-0.6
			c-0.7-1.3-3.1-5.8-3.9-7.4c0,0,0-0.1-0.1-0.1c-4.7-8.5-7.6-18.1-8.4-28.1c-0.6-6.7-0.7-13.4-0.1-21.8c0.9-11.9,3.8-30.6,14.1-38.6
			c0,0,0,0,0,0c0,0,0.1,0,0.1,0c0.7,0.4,1.3,0.9,1.9,1.3c0,0,0,0,0,0c1.5,1.1,3,2.1,4.1,3.5c0.4,0.6,1,1.1,1.4,1.6
			c0.5,0.6,1,1.2,1.5,1.8c1.1,1.5,1.8,2.7,2.7,4.7c1.2,2.6,1.6,3.3,3,6.7C345.9,411.5,353.5,439.3,359.7,467.8z"/>
	</g>
	<polygon class="st21" points="354.9,489.4 345.5,545.8 327.5,545.8 328.7,472.6 	"/>
	
		<rect x="565.7" y="287.2" transform="matrix(0.9403 -0.3403 0.3403 0.9403 -74.3977 219.3624)" class="st16" width="45" height="69.2"/>
	
		<rect x="561.7" y="285.7" transform="matrix(0.9403 -0.3403 0.3403 0.9403 -74.129 217.9276)" class="st20" width="45" height="69.2"/>
	<path class="st21" d="M577.9,314.2c0,1.4-0.3,2.8-0.8,4c-0.5,1.3-1.3,2.4-2.3,3.4l-8,8c-1.1,1.1-1.6,2.7-1.2,4.2l1.9,8.9l-15.6,11
		l-42.2,29.8l-14.4,10.2l-7.4-25.7c0,0,77.7-42.3,88.7-54.3C577.1,313.2,577.9,313.5,577.9,314.2z"/>
	<path class="st24" d="M467.6,433.3c-0.7,4.1-1.5,8.3-2.6,12.2c-1.8,6.2-4.5,11.7-9.5,14.8c-1.5,0.9-3.3,1.7-5.3,2.1
		c-4.5,1-10.2,0.7-17.7-1.5c-9.1-2.7-18.9-7.4-28.2-12.6c-5-2.8-9.8-5.8-14.2-8.6c-13.3-8.6-23-16.4-23-16.4s8.4-9.4,12.8-21.5
		c0.5-1.4,1-2.8,1.3-4.3c0.9-3.5,1.4-7.1,1.3-10.8c-0.2-3.9-1.2-7.9-3.3-11.7c-5.7-10.1-9.2-21.5-10.6-33
		c-0.7-5.8-0.9-11.7-0.6-17.5c0.5-8.1,3-16.7,8.6-22.9c3.1-3.4,12.3-10.1,17.6-8c1.4,0.6,2.6,1.7,3.3,3.8c-0.4-1.3,2.9-3.3,3.7-3.8
		c1.6-0.9,3.4-1.3,5.2-1.5c1.9-0.1,3.8,0,5.6,0.1c3.3,0.2,6.6,0.7,9.9,1.6c6.6,1.6,13.2,4.4,18.5,8.8c2.7,2.3,5.1,5,6.4,8.3
		c9.8,24.4-9.2,46.5,0,69.4c0.5,1.2,1,2.5,1.6,3.7c4.1,8.7,10.1,17.7,14.3,26.6c1.5,3.1,2.8,6.2,3.7,9.3
		C467.8,424.5,468.3,429,467.6,433.3z"/>
	<path class="st22" d="M552,353.7l-42.2,29.8c0.2-6.6,2-13.8,9.1-17.2C527.4,362.2,552,353.7,552,353.7z"/>
	<path class="st27" d="M406,358.5l4.9,35.2c0,0,15.5-2.9,15.5-2.9c-3.8,0.7-7.4-8.4-8.1-11c-1.5-5.7-0.6-12,2.6-17
		c1.5-2.3,3.7-4.8,3.9-7.7C425.6,342.1,406,358.5,406,358.5z"/>
	<path class="st27" d="M467.6,433.3c-0.7,4.1-1.5,8.3-2.6,12.2c-1.8,6.2-4.5,11.7-9.5,14.8c-1.5,0.9-3.3,1.7-5.3,2.1v-3.7
		c0,0-2-70.3-4.9-80.2c-2.5-8.6-5.6-17-7.6-25.7c-2.4-10.3,3.5-22.9-2.7-32.8c-5.3-8.5-17.8-13.5-27.1-16c-3-0.8-6-1.4-8.7-2.9
		c-2.7-1.5-4.9-4.2-4.9-7.3c1.5,0.6,2.7,1.9,3.2,3.4c2.4-4.8,8.9-5.3,14.3-4.9c12.5,1,26,5,32.9,15.4c4,5.9,5.3,13.3,5.1,20.5
		c-0.5,17.4-10,34.8-3,52.1c0.5,1.2,1,2.5,1.6,3.7c4.1,8.7,10.1,17.7,14.3,26.6c1.5,3.1,2.8,6.2,3.7,9.3
		C467.8,424.5,468.3,429,467.6,433.3z"/>
	<path class="st19" d="M514.2,404.3c-11.6,9.8-35.4,14.1-47.8,15.8c-1.8,0.2-3.3,0.4-4.6,0.6c-1,0.1-1.9,0.5-2.7,1.1
		c-0.8,0.6-1.4,1.4-1.8,2.3c-3.1,7.7-4.2,16.1-3.3,24.4l0,0.3l1.3,11.6l9.4,85.5L355.3,545l4-25.7v-0.2l0-7l0.2-45l-0.4,8.8
		l-0.1,1.5l-0.5,12.2c-0.2,3.6-2.1,4.7-4.7,4.3c-2.6-0.4-5.9-2.2-8.9-4.3l-27.7-21.3c0,0,20.7-48.4,24.4-64.2
		c0.3-1.2,0.7-2.3,1.2-3.4c0.5-1.1,1.2-2.1,2-3c6-6.9,14.6-10.9,23.8-11l13.9,0l7.5,0h0l8.3,0l13.2-0.8l0.8,0h0l2.3-0.1l29.2-1.2
		c1.5-0.1,3-0.2,4.5-0.5c2.8-0.5,5.4-1.4,8-2.6h0c0.2-0.1,0.3-0.2,0.5-0.2l48.2-23.7l0.3,0.7l9,22l3.5,8.6c0.2,0.6,0.4,1.2,0.6,1.7
		v0C519.8,395.6,518.2,400.9,514.2,404.3z"/>
	<path class="st21" d="M422,389.9c-0.7,1.2-1.4,2.2-2.2,3.2c-9.2,11.4-26,11-35.5-2.8c0,0.1,1.7-0.7,1.8-0.8
		c2.4-0.9,5.1-2.6,4.9-6.5c-0.1-1.3-0.3-5.2-0.6-9.7c-0.4-7.1-0.9-15.5-0.9-15.5l-1-10.7c0,0,5.3,1.5,10.9,3.5
		c5.3-1.8,10.5-3.1,10.5-3.1l0.3,10.6c0,0,0.4,6.3,0.8,12.7c0,0.1,0,0.2,0,0.2c0,0.1,0,0.2,0,0.4c0.3,5.1,0.6,10.1,0.7,11.7
		c0,0,0,0.1,0,0.1c0.1,2.2,1.3,4.3,2.9,5.2c1.5,0.9,3.2,0.6,4.8,0.8c0.6,0.1,1.2,0.1,1.8,0.2C421.4,389.7,421.9,389.7,422,389.9z"/>
	<path class="st22" d="M417.9,392.5c-2.9-1.1-5.8-2.7-7.8-3.9c-2.5-1.5-3.5-5.1-3.9-7.8c-0.3-2-0.5-4.3,0.2-6.2c0.4-1,0.9-1.7,1.9-2
		c1-0.4,1.9-0.8,2.6-1.4c0,0.1,0,0.2,0,0.2c0,0.1,0,0.2,0,0.4c0.3,5.1,0.6,10.1,0.7,11.7c0,0,0,0.1,0,0.1c0.1,0.8,0.3,1.7,0.6,2.5
		l-0.8,0c0.2,0.3,0.3,0.6,0.3,0.6c1.5,2.3,3.6,4.4,5.9,5.8C417.8,392.4,417.9,392.4,417.9,392.5z"/>
	
		<ellipse transform="matrix(0.2298 -0.9732 0.9732 0.2298 -12.8901 679.8224)" class="st22" cx="423.1" cy="348.1" rx="8.4" ry="8.4"/>
	<path class="st21" d="M423,350.1c0,8.1-3.9,15.3-10,19.8c-0.6,0.5-1.3,0.9-2,1.3c-0.6,0.3-1.1,0.7-1.7,0.9
		c-0.6,0.3-1.2,0.6-1.8,0.8c-2.7,1.1-5.7,1.7-8.8,1.7c-2.9,0-5.6-0.5-8.2-1.4c-9.5-3.3-16.4-12.4-16.5-23l-0.1-22.3
		c-0.1-15,10.8-22.9,22.3-23.7c0.7,0,1.4-0.1,2.1-0.1c1.3,0,2.7,0.1,4,0.3c9.8,1.4,18.8,8,20.4,19.7c0.2,1.1,0.2,2.3,0.2,3.5
		C422.9,327.9,423,350.1,423,350.1z"/>
	<path class="st22" d="M406,334.8c-8.6-2.5-13.8-17.3-13.8-17.3l4-13.1l1.3-3.5l4.9,3.7l20.4,19.7c0.2,1.1,0.2,2.3,0.2,3.5
		c0,0,0.1,22.3,0.1,22.3c0,8.1-3.9,15.3-10,19.8c4-4.4,7.1-13.8,5.1-15.2C415.4,353.1,414.6,337.3,406,334.8z"/>
	<path class="st24" d="M423.1,350.2l-0.2-10.6l8.4-12.4l-13.4-16.4c-4.1-5-14.9-10.4-21.3-10.4l-13.3,2.5c0,0-17.3,30.7-9.4,31.2
		c7.9,0.5,24-25,24-25s1.2,19,14.1,20C424.8,330.2,414.2,355.6,423.1,350.2z"/>
	<g class="st29">
		<polygon class="st30" points="423,414.8 442.2,409.7 449.8,427.9 		"/>
		<polygon class="st30" points="377.1,396.7 374.4,404.1 387.2,398.9 		"/>
		<polygon class="st30" points="392.2,437 379.9,453.4 412.1,455.7 		"/>
		<polygon class="st30" points="361.4,480.7 366.9,469.9 374.4,477.8 		"/>
		<polygon class="st30" points="405.9,473.3 412.1,460.8 415.5,469.9 		"/>
		<polygon class="st30" points="434,502.8 426.5,489.7 434,489.7 		"/>
		<polygon class="st30" points="377.1,527.8 390.2,517 392.2,526 		"/>
		<polygon class="st30" points="393.6,494.8 392.2,499.9 401.1,497.1 		"/>
	</g>
	<path class="st31" d="M359.3,519.1l0-7l0.2-45l-0.4,8.8l-0.1,1.5l0.5-36.3C371.1,510.1,362,518.2,359.3,519.1z"/>
	<path class="st32" d="M514.2,404.3c-11.6,9.8-35.4,14.1-47.8,15.8c-1.8,0.2-3.3,0.4-4.6,0.6c-1,0.1-1.9,0.5-2.7,1.1
		c-0.8,0.6-1.4,1.4-1.8,2.3c-3.1,7.7-4.2,16.1-3.3,24.4l0,0.3c-0.7-1.9-4.8-14.6,0.1-30c1-3.3,4.2-5.8,8.5-7.9
		c16.8-8.1,51.7-9.4,55.7-20.1C519.8,395.6,518.2,400.9,514.2,404.3z"/>
	<path class="st33" d="M280.1,286.4c-0.5,2.1-1.2,4.2-1.9,6.2c0.4-7.7-2.3-16.5-6.2-23.6c-1-1.8-2-3.4-3.2-4.9
		c-5-6.8-9.4-12.5-18.3-14.3c-9.5-2-16.3,4.9-22.2,11.3c-2.8,3-6.2,5.9-10.3,6.1c-4.2,0.3-8.1-2.3-11.3-5c1.1-3.2,4-5.6,7.3-6.2
		c1.7-0.3,3.5-0.1,5.1-0.8c2-0.9,3.1-2.8,4.6-4.5c4.8-5.5,12.8-7.1,20.1-6.7c12.4,0.7,25.5,6.5,32.4,16.8c2.1,3.2,3.7,6.9,4.4,11
		c0.3,1.5,0.5,3.1,0.6,4.8C281.3,279.8,280.9,283.1,280.1,286.4z"/>
	<path class="st22" d="M269.2,348.3c-1.9,2.1-4.2,3.9-6.6,5.4c-2.7-2.6-3.3-6.6-5.9-10.4c-1.3-1.9-1.2-5-0.3-8.6
		c1.3-0.7,2.6-1.5,3.8-2.4c0.1,3.4,0.1,6.6,0.2,8.6c0.1,1.4,0.3,3,1.3,4c0.8,0.8,1.9,1.1,2.9,1.6C266,347.2,267.6,348,269.2,348.3z"
		/>
	<path class="st24" d="M270.3,356.6c0,0,0.1-0.1,0.1-0.1C270.4,356.6,270.4,356.6,270.3,356.6L270.3,356.6
		C270.4,356.6,270.3,356.6,270.3,356.6z"/>
	<path class="st22" d="M422,389.9c-0.7,1.2-1.4,2.2-2.2,3.2c-0.6-0.2-1.3-0.4-1.9-0.6c-0.1,0-0.1-0.1-0.2-0.1
		c-2.3-1.4-4.4-3.5-5.9-5.8c0,0-0.1-0.3-0.3-0.6l0.8,0h0c0.5,1.2,1.3,2.2,2.3,2.7c1.5,0.9,3.2,0.6,4.8,0.8c0.6,0.1,1.2,0.1,1.8,0.2
		C421.4,389.7,421.9,389.7,422,389.9z"/>
	<path class="st32" d="M456.4,381.5c-0.1,0.2-0.2,0.3-0.2,0.5c0,1.6-3.8,3.4-4.9,4c-2.7,1.4-5.6,2.3-8.5,3.2
		c-4.5,1.3-9,2.3-13.6,3.1c-2.6,0.5-5.4,1.3-8,1.1c-1.1-0.1-2.2-0.4-3.2-1c0.6,0.2,1.3,0.4,1.9,0.6c0.8-1,1.5-2.1,2.2-3.2
		c-0.2-0.2-0.6-0.1-0.8-0.2c-0.6-0.1-1.2-0.1-1.8-0.2c-1.6-0.2-3.2,0-4.8-0.8c-1-0.5-1.8-1.6-2.3-2.7l2.3-0.1l29.2-1.2
		c1.5-0.1,3-0.2,4.5-0.5C451.2,383.6,453.9,382.7,456.4,381.5z"/>
	<path class="st34" d="M304.5,545h120.6c2.2,0,4.1,1.8,4.1,4l0,0c0,2.3-1.8,4.2-4.1,4.2h-1.8c-4.6,0-8.4,3.8-8.4,8.4l0,0
		c0,4.6,3.8,8.4,8.4,8.4h264.4"/>
	<g>
		<path class="st7" d="M220,528.2L38.3,538.7c-3.5,0.2-6.2,3.1-6.2,6.6l0,2.9c0,3.5,2.8,6.4,6.3,6.5l181.7,7.9L220,528.2z"/>
		<path class="st7" d="M318.3,545.1L277,517.8l-89.3,27.6l89.4,27.2L318.3,545.1z M262.8,546c-0.6-5.8,4.2-10.7,10.1-10.1
			c4.3,0.4,7.8,3.9,8.2,8.2c0.6,5.8-4.2,10.7-10.1,10.1C266.7,553.7,263.2,550.3,262.8,546z"/>
		
			<rect x="204.6" y="539.5" transform="matrix(2.313643e-03 1 -1 2.313643e-03 770.5946 318.2221)" class="st11" width="42.4" height="11.6"/>
	</g>
	<g>
		<path class="st7" d="M698,482.2v-52.8c0-2.3-1.9-4.2-4.2-4.2h-208v0h-13.4v0H469c-2.3,0-4.2,1.9-4.2,4.2v46.2l-0.9,0.2
			c-14.9,0.5-22,6.2-25.3,18.9h8.8v2.5h-9.3c-0.2,0.9-0.4,1.8-0.5,2.7h9.9v2.5h-10.2c-0.1,0.9-0.2,1.8-0.3,2.7h10.6v2.5h-10.8
			c-0.1,0.9-0.2,1.8-0.2,2.7h11v2.5h-11.1c0,0.9-0.1,1.8-0.1,2.7h11.2v2.5h-11.3c-0.1,3-0.1,6.1-0.1,9.5h-3.3v6.9h38.8
			c-0.1-0.8-0.1-1.6-0.1-2.4c0-16.2,13.2-29.3,29.3-29.3c16.2,0,29.3,13.2,29.3,29.3c0,0.8-0.1,1.6-0.1,2.4h91
			c-0.1-0.8-0.1-1.6-0.1-2.4c0-16.2,13.2-29.3,29.3-29.3c16.2,0,29.3,13.2,29.3,29.3c0,0.8-0.1,1.6-0.1,2.4h14.4
			c2.3,0,4.2-1.9,4.2-4.2v-29H517.2v-6.6H698v-6H517.2v-6.3H698z M656.4,441.2H689v27.1h-32.6V441.2z M610.9,441.2h36.9v27.1h-36.9
			V441.2z M565.3,441.2h36.9v27.1h-36.9V441.2z M519.8,441.2h36.9v27.1h-36.9V441.2z M483.6,475.2h-16.1v-33.7h16.1V475.2z
			 M499.5,497.2h-9.6v-55.7h9.6V497.2z M512.9,497.2h-9.6v-55.7h9.6V497.2z"/>
		<path class="st4" d="M475.7,494.7v-2.5H467c-0.2,0.8-0.4,1.6-0.6,2.5H475.7z"/>
		<path class="st4" d="M475.8,498.7v-2.5H466c-0.1,0.8-0.2,1.6-0.3,2.5H475.8z"/>
		<path class="st4" d="M475.9,502.7v-2.5h-10.6c-0.1,0.8-0.1,1.6-0.2,2.5H475.9z"/>
		<path class="st4" d="M475.9,506.7v-2.5h-11c-0.1,0.8-0.1,1.6-0.1,2.5H475.9z"/>
		<path class="st4" d="M476,510.7v-2.5h-11.2c0,0.8-0.1,1.6-0.1,2.5H476z"/>
		<path class="st7" d="M650.2,505.6c-14.6,0-26.4,11.8-26.4,26.4c0,14.6,11.8,26.4,26.4,26.4c14.6,0,26.4-11.8,26.4-26.4
			C676.6,517.5,664.7,505.6,650.2,505.6z M650.2,544.8c-7,0-12.7-5.7-12.7-12.7c0-7,5.7-12.7,12.7-12.7c7,0,12.7,5.7,12.7,12.7
			C662.9,539.1,657.2,544.8,650.2,544.8z"/>
		<path class="st1" d="M650.2,502.7c-16.2,0-29.3,13.2-29.3,29.3c0,0.8,0,1.6,0.1,2.4c1.2,15.1,13.8,27,29.2,27
			c15.4,0,28-11.9,29.2-27c0.1-0.8,0.1-1.6,0.1-2.4C679.5,515.9,666.3,502.7,650.2,502.7z M650.2,558.4c-14.6,0-26.4-11.8-26.4-26.4
			c0-14.6,11.8-26.4,26.4-26.4c14.6,0,26.4,11.8,26.4,26.4C676.6,546.6,664.7,558.4,650.2,558.4z"/>
		<path class="st4" d="M637.4,532c0,7,5.7,12.7,12.7,12.7c7,0,12.7-5.7,12.7-12.7c0-7-5.7-12.7-12.7-12.7
			C643.1,519.3,637.4,525,637.4,532z"/>
		<path class="st7" d="M500.7,505.6c-14.6,0-26.4,11.8-26.4,26.4c0,14.6,11.8,26.4,26.4,26.4s26.4-11.8,26.4-26.4
			C527.2,517.5,515.3,505.6,500.7,505.6z M500.7,544.8c-7,0-12.7-5.7-12.7-12.7c0-7,5.7-12.7,12.7-12.7c7,0,12.7,5.7,12.7,12.7
			C513.5,539.1,507.8,544.8,500.7,544.8z"/>
		<path class="st1" d="M500.7,502.7c-16.2,0-29.3,13.2-29.3,29.3c0,0.8,0.1,1.6,0.1,2.4c1.2,15.1,13.8,27,29.2,27
			c15.4,0,28-11.9,29.2-27c0.1-0.8,0.1-1.6,0.1-2.4C530.1,515.9,516.9,502.7,500.7,502.7z M500.7,558.4c-14.6,0-26.4-11.8-26.4-26.4
			c0-14.6,11.8-26.4,26.4-26.4s26.4,11.8,26.4,26.4C527.2,546.6,515.3,558.4,500.7,558.4z"/>
		<path class="st4" d="M488,532c0,7,5.7,12.7,12.7,12.7c7,0,12.7-5.7,12.7-12.7c0-7-5.7-12.7-12.7-12.7C493.7,519.3,488,525,488,532
			z"/>
		<rect x="489.9" y="441.4" class="st1" width="9.6" height="55.7"/>
		<rect x="503.3" y="441.4" class="st1" width="9.6" height="55.7"/>
		<rect x="519.8" y="441.2" class="st1" width="36.9" height="27.1"/>
		<rect x="565.3" y="441.2" class="st1" width="36.9" height="27.1"/>
		<rect x="610.9" y="441.2" class="st1" width="36.9" height="27.1"/>
		<rect x="656.4" y="441.2" class="st1" width="32.6" height="27.1"/>
		<rect x="517.2" y="482.2" class="st4" width="180.8" height="6.3"/>
		<rect x="517.2" y="494.5" class="st4" width="180.8" height="6.6"/>
		<rect x="467.6" y="441.4" class="st1" width="16.1" height="33.7"/>
	</g>
</g>
</svg>
