<?xml version="1.0" encoding="utf-8"?>
<!-- Generator: Adobe Illustrator 24.2.0, SVG Export Plug-In . SVG Version: 6.00 Build 0)  -->
<svg version="1.1" id="图层_1" xmlns="http://www.w3.org/2000/svg" xmlns:xlink="http://www.w3.org/1999/xlink" x="0px" y="0px"
	 viewBox="0 0 700 700" style="enable-background:new 0 0 700 700;" xml:space="preserve">
<style type="text/css">
	.st0{fill:#D3E0F1;}
	.st1{fill:#C3D1FF;}
	.st2{fill:#9FC3FD;}
	.st3{fill:#4055EC;}
	.st4{fill:#E2EAF5;}
	.st5{fill:#FFFFFF;}
	.st6{fill:none;stroke:#000000;stroke-width:0.2327;stroke-miterlimit:10;}
	.st7{fill:none;stroke:#D3E0F1;stroke-width:0.9307;stroke-linecap:round;stroke-linejoin:round;stroke-miterlimit:10;}
	.st8{fill:none;stroke:#FFFFFF;stroke-width:0.9307;stroke-linecap:round;stroke-miterlimit:10;}
	.st9{fill:none;stroke:#F8DA7D;stroke-width:0.9307;stroke-linecap:round;stroke-linejoin:round;stroke-miterlimit:10;}
	.st10{fill:#4052F2;}
	.st11{fill:#0600A0;}
	.st12{fill:none;stroke:#18186D;stroke-width:1.1633;stroke-miterlimit:10;}
	.st13{fill:#FFFFFF;stroke:#15858E;stroke-width:1.8613;stroke-linecap:round;stroke-linejoin:round;stroke-miterlimit:10;}
	.st14{fill:#F7B94A;stroke:#D3E0F1;stroke-width:1.8613;stroke-linecap:round;stroke-miterlimit:10;}
	.st15{opacity:0.79;}
	.st16{fill:#7789F2;}
	.st17{fill:#EEEEEF;}
	.st18{fill:#FFFFFE;}
	.st19{opacity:0.74;fill:#FFFFFF;}
	.st20{fill:none;stroke:#FFFFFF;stroke-width:1.8613;stroke-linecap:round;stroke-linejoin:round;stroke-miterlimit:10;}
	.st21{opacity:0.94;fill:#FFFFFF;}
	.st22{fill:none;stroke:#F2F5FA;stroke-width:1.8613;stroke-linecap:round;stroke-linejoin:round;stroke-miterlimit:10;}
	.st23{fill:#451ABF;}
	.st24{fill:#F88329;}
	.st25{fill:#FFCAE1;}
	.st26{fill:#FDB2D0;}
	.st27{fill:#FFBDDD;}
	.st28{fill:#F2AE87;}
	.st29{fill:#F19C63;}
	.st30{fill:none;stroke:#DD600F;stroke-width:0.698;stroke-linecap:round;stroke-linejoin:round;stroke-miterlimit:10;}
	.st31{fill:none;stroke:#DD600F;stroke-width:0.698;stroke-linecap:round;stroke-linejoin:round;}
	.st32{fill:none;stroke:#DD600F;stroke-width:0.698;stroke-linecap:round;stroke-linejoin:round;stroke-dasharray:2.7792,2.7792;}
	.st33{fill:#186581;}
	.st34{opacity:0.1;}
	.st35{opacity:0.2;}
	.st36{fill:#BD6615;}
	.st37{fill:#15455B;}
	.st38{fill:none;stroke:#DD600F;stroke-width:0.698;stroke-linecap:round;stroke-linejoin:round;stroke-dasharray:2.8094,2.8094;}
	
		.st39{clip-path:url(#SVGID_2_);fill:none;stroke:#F8DA7D;stroke-width:0.698;stroke-linecap:round;stroke-linejoin:round;stroke-miterlimit:10;}
	.st40{clip-path:url(#SVGID_4_);fill:#FFFFFF;}
	.st41{fill:none;stroke:#F8DA7D;stroke-width:0.698;stroke-linecap:round;stroke-linejoin:round;stroke-miterlimit:10;}
	.st42{fill:#F9F9E8;}
	.st43{fill:#18186D;}
	.st44{fill:none;}
	.st45{fill:none;stroke:#100C4D;stroke-width:0.4653;stroke-linecap:round;stroke-linejoin:round;}
	.st46{fill:none;stroke:#100C4D;stroke-width:0.4653;stroke-linecap:round;stroke-linejoin:round;stroke-dasharray:2.7695,2.7695;}
	.st47{fill:#EE834D;}
	.st48{fill:#422224;}
	.st49{opacity:5.000000e-02;}
	.st50{opacity:0.65;fill:#F9F9E8;}
	.st51{opacity:0.1;fill:#FF7206;}
	.st52{fill:#100C4D;}
	.st53{fill:none;stroke:#F9F9E8;stroke-width:0.2327;stroke-linecap:round;stroke-miterlimit:10;}
	.st54{fill:none;stroke:#F9F9E8;stroke-width:0.2327;stroke-linecap:round;stroke-miterlimit:10;stroke-dasharray:2.8371,2.8371;}
	.st55{opacity:0.17;}
	
		.st56{fill:none;stroke:#100C4D;stroke-width:0.349;stroke-linecap:round;stroke-linejoin:round;stroke-miterlimit:10;stroke-dasharray:2.792;}
	.st57{fill:#342DEC;}
	.st58{opacity:0.75;}
	.st59{fill:none;stroke:#F88329;stroke-width:0.698;stroke-linecap:round;stroke-linejoin:round;stroke-miterlimit:10;}
	.st60{fill:#FF7206;}
	.st61{fill:url(#SVGID_5_);}
	.st62{fill:url(#SVGID_6_);}
	.st63{fill:url(#SVGID_7_);}
	
		.st64{opacity:0.79;fill:none;stroke:#FFFFFF;stroke-width:1.8613;stroke-linecap:round;stroke-linejoin:round;stroke-miterlimit:10;}
	.st65{fill:#96ACAD;}
	.st66{fill:#85A9FF;}
	.st67{fill:none;stroke:#186581;stroke-width:0.2327;stroke-linecap:round;stroke-miterlimit:10;}
	.st68{opacity:0.66;}
	.st69{fill:#01017F;}
	.st70{opacity:4.000000e-02;fill:#FF7206;}
</style>
<g>
	<g>
		<g>
			<path class="st0" d="M41.9,351c0,0,52.5,26.6,82.2,66.5"/>
			<path class="st0" d="M56.6,320.2c0,0,42.8,34.3,27,57.7C83.6,377.9,38.6,359.4,56.6,320.2z"/>
			<path class="st0" d="M1.6,316.9c0,0,49.7,9,53,41.3c0,0-30.3,4.5-43.8-21.7C-2.6,310.4,1.6,316.9,1.6,316.9z"/>
			<path class="st0" d="M71.8,371c0,0-26.9-11.1-45.2,6.8c0,0,29.9,12.7,46.3-4.5"/>
		</g>
	</g>
	<path class="st1" d="M5.8,394.5c0,0,0,87.6,63.8,80.7s43.8-56.4,43.8-56.4S74.1,381.3,5.8,394.5z"/>
	<g>
		<g>
			<path class="st2" d="M639.6,408.7c0,0-18.3,67.1-56.3,119.5L639.6,408.7z"/>
			<path class="st2" d="M677,405.2c0,0-28.9,62-58.2,60.1C618.8,465.3,629.6,410.3,677,405.2z"/>
			<path class="st2" d="M668.9,349.3c0,0,0.6,54.1-34.5,76.1c0,0-11.5-27.2,14.7-55.7S668.9,349.3,668.9,349.3z"/>
			<path class="st2" d="M623.8,449.7c0,0,6.6-32.9-17.2-40.5c0,0-7.7,36.8,14.9,42.9L623.8,449.7z"/>
		</g>
	</g>
	<g>
		<g>
			<path class="st1" d="M650.8,464.4c0,0-39.4,57.3-92.5,94.3L650.8,464.4z"/>
			<path class="st1" d="M687.2,473.4c0,0-47.7,49-74.8,37.6C612.5,511,640.8,462.6,687.2,473.4z"/>
			<path class="st1" d="M698,417.9c0,0-17.3,51.3-57.6,60.5c0,0-1.8-29.5,32.2-47.7S698,417.9,698,417.9z"/>
			<path class="st1" d="M622.4,497.9c0,0,17.1-28.9-2.9-43.9c0,0-19.4,32.2-0.1,45.4L622.4,497.9z"/>
		</g>
	</g>
	<path class="st3" d="M625,516.3c-2.8,3.1-6.7,5-10.3,7.1c-11.7,6.5-22.9,15.3-28.8,27.3c-0.3,0.5-0.5,1-0.7,1.6
		c-2.4,5.5-3.5,11.7-3,17.7h-51.7c0.1-26.2,6.9-51.5,16.4-75.7c0.6-1.5,1.2-2.9,1.8-4.4c1.5-3.8,3.8-7.5,7.5-9.3
		c2.6-1.3,5.6-1.5,8.4-2.1c7.4-1.7,12.1-6,16-11.2v0c3.7-5,6.6-10.9,10.4-16.1c0,0,0,0,0,0c0.5-0.6,0.9-1.3,1.4-1.9
		c0.1-0.1,0.2-0.2,0.2-0.3c0,0,0,0,0,0c0.9-1.1,1.8-2.1,2.8-3c1-1,2-1.8,3.1-2.7c7.7-5.7,16.4-3.2,21.2,2.7
		c3.5,4.4,4.9,10.6,2.1,16.8c-2.3,5.2-6.5,9.3-10.8,13c-5.3,4.4-10.6,8.9-16.2,12.9c-5.2,3.7-12.9,6-16.6,11.6
		c-10.2,15.5,13,11.8,20.5,7.4c6.9-4.1,24.1-15.7,29.4-2.7C629.5,508.6,627.9,513.2,625,516.3z"/>
	<g>
		<g>
			<path class="st3" d="M90.3,473c0,0,18.2,37.5,46.4,63.9"/>
			<path class="st3" d="M68,475.3c0,0,23.9,33.2,40.9,28.7C108.9,503.9,96.4,472.8,68,475.3z"/>
			<path class="st3" d="M66.5,441.4c0,0,5.6,32,28.8,40.9c0,0,3.7-17.4-14.8-31.1C61.9,437.4,66.5,441.4,66.5,441.4z"/>
			<path class="st3" d="M104.2,495.3c0,0-7.6-18.7,5.7-25.9c0,0,8.6,20.8-4,27"/>
		</g>
	</g>
	<path class="st4" d="M581.9,497.7l-17.9-8c0.2-1.1,0.4-2.1,0.5-3.2c2.5-15.7,2.7-31.5,0.8-46.9l31.4-11.9l17.5-6.7l4.5-1.7
		c-0.8-4.3-1.7-8.5-2.8-12.8c-5.6-22.7-14.7-44.4-27-64.4l-32.6,12.4l-20.9,7.9c-9.2-13-20.2-24.7-33-34.8l23.4-52.2
		c-11.2-7.8-23.3-14.6-36.1-20.4c-12.9-5.8-26-10.3-39.2-13.5l-23.4,52.2c-16.2-2.9-32.6-3.3-48.5-1.5l-20.3-53.5
		c-27.3,4.9-53.6,14.8-77.3,29.2l20.3,53.4c-13.5,9.3-25.7,20.7-36.1,33.9L213,332c-7.8,11.2-14.6,23.3-20.4,36.1
		c-3.6,8.1-6.7,16.2-9.3,24.5c-1.6,4.9-2.9,9.8-4.1,14.8l52.2,23.4c0,0,0,0.1,0,0.1l8.8,3.9l35.2,15.8l12.3,5.5l50.4,22.6h-8.3v89.7
		h207.9v-0.1l0.4,0.2h56.7c2.9-5.3,5.6-10.7,8.1-16.2c0.4-1,0.9-2,1.3-3c5.2-11.9,9.2-24.1,12.2-36.3l-30.6-13.8L581.9,497.7z"/>
	<path class="st0" d="M345.2,548.9c-0.6,4.3-1.8,8.6-3.2,12.5c-1.1,3.3-2.8,6.3-5,9c-0.3,0.4-0.6,0.7-0.9,1.1H60.4
		c-0.1-0.1-0.1-0.1-0.2-0.2c-14.6-20.9-2.1-50.2,18.3-62.9c17.8-11,39.2-3.6,57.9-10.6c13.3-5,17.9-21.1,7.5-31.3
		c-7.2-7.1-18.4-8.2-24.8-16.7c-3.6-4.8-4.8-11.1-4.2-17.1c2.2-20.7,22.3-25.9,38.5-33.3c13-5.9,26.2-11.9,40-16.2
		c6.5-2,13.2-3.7,20-4.7c29.2-4.4,46.9,15.1,41.7,44c-0.4,1.9-0.7,3.9-0.9,5.9c-0.6,4.3-0.9,8.6-0.7,12.9c0.1,2.3,0.6,4.6,1.4,6.8
		c1.6,4.2,4.5,7.6,8.7,8.3c3.2,0.6,5.5-0.6,7.6-2.3c2.6-2.2,4.8-5.2,8-6.9c4.1-2.1,8.4-2.6,12.7-2c0.9,0.1,1.8,0.3,2.6,0.5
		c3.9,0.9,7.5,2.8,10.5,5.4c6.7,5.7,10.9,15,9.8,24.7c0,0,0,0,0,0c-0.2,2.3-0.8,4.5-1.6,6.8c-0.4,1-0.8,2-1.2,2.9
		c-0.5,1-1,2.1-1.6,3.1c-1.6,2.8-3.4,5.5-5.1,8.2c-1.5,2.3-4.2,5.9-5.6,9.6c-0.1,0.1-0.1,0.3-0.2,0.4c-0.9,2.6-1,5.2,0.6,7.3
		c1.3,1.7,3.2,2.5,5.1,3.1c6.1,1.9,12.5,2,18.8,3.2c0.2,0,0.4,0.1,0.7,0.1c5.3,1,10.6,3.1,14.6,7c0,0,0,0,0.1,0.1
		c0.9,0.9,1.7,1.9,2.5,3C345.5,536.1,346,542.5,345.2,548.9z"/>
	<path class="st5" d="M473.2,569.9c-0.6,0-1.7-4.3-1.8-4.8c-1.2-4.2-1.5-9-0.8-13.3c1.6-9.7,6.6-17.9,12.6-24.2
		c5.7-6,12.3-10.6,18.5-15.7c11-9.2,23.1-24,19-42.4c-1.6-6.9-6-12.7-11.8-13.5c-19-2.8-22,34.6-39.8,32.7c-2.1-0.2-4.1-1.5-5.3-3.6
		c-4-7.4,3.7-16.1,5.9-22.3c5.3-14.7,11.1-29.5,13.8-45.4c1.2-7.5,1.7-16.3-1.2-23.4c-2.4-5.8-7.2-9.9-12.2-11.7
		c-3.4-1.2-7.1-1.1-10.3,0.8c-8.7,5.2-7.3,20.3-6.9,30.3c0.4,9.9,1.9,19.7,2.2,29.6c0,1.3,0.1,2.7-0.2,3.9c-0.3,1.3-0.9,2.5-1.8,3
		c-0.8,0.5-1.7,0.6-2.6,0.3c-6.5-1.8-14.9,3.3-16.7,10.7c-0.2,0.6-13.5-6.6-14.2-6.6c-9.3,0.1-11.3-13.4-16.4-27.8
		c-2.3-6.4-9.3-17-16.5-15.3c-2.3,0.5-4.3,2.6-5.6,5.1c-4.2,8-3.6,19.3-1,28c1.8,6.1,4.8,11.6,8.4,16.3c3,4,6.1,8.2,7.4,13.6
		c1.4,5.7-0.4,10.7-4.6,13.3c-0.7,0.4-1.5,0.9-2.3,1.1c0.5-0.1,2.2,1.7,2.5,2c2,1.7,3.9,3.5,5.7,5.5c4,4.5,8.4,10.6,8.4,17.7
		c0,8.9-7.6,15.6-13.5,18.5c-14.2,6.9-17.8-17.4-27.1-25c-3.4-2.8-7.8-3.6-10.7,0.5c-2.8,3.9-2.9,9.6-1.1,14.2
		c1.9,4.6,5.4,7.8,9,10.3c6.3,4.3,45.2,26.3,29.4,38.9C391.6,571.1,422,567.9,473.2,569.9z"/>
	<path class="st5" d="M366.7,564c-0.3,0.4-0.6,0.8-0.9,1.2c-2.1,2.6-5,4.4-8.2,5.8c0,0,0,0,0,0c-0.3,0.1-0.6,0.3-0.9,0.4H139.3
		c-1.4-4.7-1.6-9.6,1.2-13.9c2.9-4.4,8-6.7,13-8c5-1.3,10.3-1.9,15.2-3.7c1.5-0.5,3-1.2,3.9-2.5c2.8-3.7-2.7-8.9-5-11.4
		c-2.6-2.9-5.2-5.7-7-9.1c-5.7-10.8,1.7-23.2,12.9-26.5c4-1.2,8.2-1.5,12.2-0.1c4.7,1.6,7.1,6.5,12.8,5.1c4.9-1.2,7.3-6.3,7.2-11
		c-0.1-4.3-1.1-8.6-2.3-12.7c-5.7-19.3,7.3-33.8,30.6-32.9c6.9,0.3,14,1.4,20.9,3.3c5.7,1.5,11.2,3.6,16.3,6
		c0.2,0.1,0.5,0.2,0.7,0.3c9.1,4.5,19.5,1.4,28.9,4.6c6.3,2.2,11.7,8.2,13.5,14.6c0.2,0.7,0.4,1.5,0.5,2.2c0,0,0,0,0,0
		c0.5,3.4-0.1,6.9-1.8,9.7c-0.3,0.5-0.6,1-1,1.5c-0.5,0.6-1,1.1-1.5,1.6c-3.9,3.5-9.4,4.7-13.7,7.6c-1.8,1.2-3.4,2.7-4.5,4.4
		c-2,3-2.9,6.6-2.1,10.4c0.3,1.5,0.8,2.8,1.5,3.8c0,0,0,0,0,0c4,6.1,13.9,6.1,20.6,6.1c3.8,0,7.8-0.3,11.8-0.4
		c8-0.3,16.1-0.3,23.3,2.8c2.6,1.1,5.1,2.6,7.3,4.3c0,0,0,0,0.1,0.1c4.2,3.2,7.7,7.4,10.2,12.1c0.3,0.5,0.5,1,0.8,1.6
		c1.1,2.3,2,4.8,2.7,7.3C369.7,554.1,369.6,559.5,366.7,564z"/>
	<path class="st0" d="M470.4,475.3L470.4,475.3c-2.6,0.3-4.8,1-6.3,1.9c-1.5,0.9-3.7,2.7-6.4,5.2c-5.2,4.6-12.1,11.2-19.1,16.9h0
		c-1.6,1.3-3.2,2.6-4.8,3.8h0c-1.8,1.3-3.5,2.6-5.2,3.6c-7.6,4.8-13.9,6.3-16.1-0.2c-0.9-2.8-0.9-5.1-0.2-7.1
		c3-8.9,19.3-12.1,29.2-24.2c2.2-2.7,4.2-5.9,5.5-9.7c2-5.5,2.3-10,1.4-13.6v0c-3-12.4-19.6-14.6-28.9-11.8
		c-8.7,2.6-32,12.4-36.6,45.6c0,0.2,0,0.3-0.1,0.5c-0.8,6.1-1,12.9-0.3,20.6c0,0,0,0.1,0,0.1c0.5,6.4,1.6,13.3,3.4,20.9
		c0,0,0,0,0,0.1c0.5,2.1,1,4.3,1.7,6.6c0,0,1.2,2.8,3.4,7.1h-38v29.9h57.4h6.6h19.9c-0.4-3.8,1.6-8.1,10-11
		c19.3-6.7,31.8-7.6,34.9-19.8c3.2-12.2-18.5-5.3-22.3-2.9c-3.8,2.4-28.4,23.6-29.3-1.9c-0.4-10.8,9.4-15.4,21.4-18.7
		c16.5-4.6,37.4-7,42.3-19.7C501,479.1,482.2,473.8,470.4,475.3z"/>
	<g>
		<g>
			<path class="st7" d="M321.6,550.4c0,0-52.9-53.5-80.2-68.7"/>
			<path class="st7" d="M296.7,526.4c0,0-21,7.2-46,9.5c-22.2,2-47.5,0.3-64.3-13.8"/>
			<path class="st7" d="M158.1,560.4c0,0,66,3.7,92.8-23.6"/>
		</g>
	</g>
	<g>
		<g>
			<path class="st8" d="M468.3,496.5l-80.7,50.3c0,0,12.1-66,45.1-84.9"/>
			<path class="st8" d="M473.1,540.5c-13.7,9-27.9,17.7-44.8,18.5c-17,0.9-33.1-5.9-48.5-12.2"/>
		</g>
	</g>
	<path class="st9" d="M177.9,415.8c-5.9,7.7-0.5,10.9,2.3,9c2.7-1.8-0.9-8.1-0.9-8.1L177.9,415.8z"/>
	<path class="st10" d="M532.8,569.3h17.1l-11.2-68.1l-0.8-4.7h-69.5l-0.8,4.7l-11.2,68.1h17.1l4-24.6h51.2L532.8,569.3z
		 M479.6,532.1l1.5-8.9c0.1,0,0.3,0,0.3,0h43.8l1.5,8.9H479.6z"/>
	<polygon class="st11" points="538.7,501.2 467.6,501.2 468.4,496.5 537.9,496.5 	"/>
	<line class="st12" x1="27.9" y1="570.2" x2="676" y2="570.4"/>
	<path class="st4" d="M157.3,225.6c0,1.5,0,3-0.2,4.6c-1.7,17.1-13.6,38.9-22.9,53.7c-7.5,12-19.9,26-34,18.2
		c-14.3-8-30.8-21.4-30.7-40.2c0.1-10.8,6-21.4,13.8-29.4c9.7-9.9,23-18.7,35.4-24.2C136.6,200.4,156.8,204.5,157.3,225.6z"/>
	<path class="st4" d="M624.1,289.1c-1.6,0.5-3.3,0.8-5.1,1.1c-19,2.9-45.1-4.4-63.2-10.7c-14.5-5.1-32.4-15.1-26.6-33.4
		c5.8-18.5,17.2-41.1,37.6-46.3c11.8-3,24.5,0.7,34.8,7.3c12.8,8.2,25.1,20.8,33.6,33.3C647.3,258.5,647,282.6,624.1,289.1z"/>
	<path class="st2" d="M93.6,205.3L93.6,205.3l-0.5,0.9C93.2,205.8,93.4,205.5,93.6,205.3z"/>
	<g>
		<line class="st14" x1="366.2" y1="112.6" x2="371.2" y2="107.4"/>
		<line class="st14" x1="355.9" y1="112.2" x2="356.3" y2="104.5"/>
		<line class="st14" x1="342.8" y1="105.2" x2="347.4" y2="112.4"/>
		<path class="st4" d="M306.9,150.4c1.1-1.2,2.3-2.4,3.7-3.6c14.3-12.3,40-19.8,58.4-24c14.8-3.3,34.9-4.2,39.6,14
			c4.8,18.5,7,43.3-7.4,58.2c-8.3,8.6-20.9,12.2-32.9,12c-14.9-0.2-31.7-4.3-45.4-10.4C303.5,188.1,291.2,167.8,306.9,150.4z"/>
		<g>
			<path class="st5" d="M388.8,152.7l1-1.2c1-1.1,1.5-2.6,1.3-4.1c-0.3-2.9-3-4.9-5.8-4.6l-4,0.8l2.3-3c1-1.3,1.5-2.9,1.3-4.5
				c-0.4-3.1-3-5.3-6-5.3l-1.3,0l-0.2-1.3c-0.6-4.9-5-8.4-9.9-7.8c-0.4,0.1-0.8,0.1-1.2,0.3l-1.1,0.3l-0.5-1
				c-1.4-2.9-4.5-4.6-7.7-4.2c-4.1,0.5-7.1,4.3-6.6,8.4c-0.5-4.1-4.3-7.1-8.4-6.6c-3.2,0.4-5.8,2.8-6.4,5.9l-0.3,1.1l-1.2,0
				c-0.4,0-0.8,0-1.2,0.1c-4.9,0.6-8.4,5-7.8,10l0.2,1.3l-1.2,0.3c-3,0.7-5,3.5-4.6,6.6c0.2,1.6,1,3,2.3,4l2.9,2.3l-4.1,0.2
				c-2.9,0.3-4.9,3-4.6,5.8c0.2,1.5,1,2.8,2.3,3.7l1.3,0.9l-1,1.2c-1.1,1.3-1.5,2.9-1.3,4.6c0.4,3,3,5.4,6,5.4l1.9,0l-0.6,1.8
				c-0.3,0.8-0.4,1.7-0.3,2.6c0.4,3.3,3.4,5.7,6.7,5.3c0.2,0,0.5-0.1,0.7-0.1l1.3-0.3l0.4,1.3c0.8,2.5,3.3,4.1,5.9,3.8
				c1.1-0.1,2.1-0.6,3-1.3l1.5-1.3l0.8,1.8c1.1,2.7,4,4.4,6.9,4c3.6-0.4,6.2-3.7,5.8-7.4c0.4,3.6,3.7,6.2,7.4,5.8
				c2.9-0.4,5.3-2.7,5.7-5.6l0.3-2l1.8,0.9c1,0.5,2.1,0.7,3.2,0.6c2.6-0.3,4.7-2.5,4.8-5.1l0.1-1.3l1.3,0c0.2,0,0.5,0,0.7,0
				c3.3-0.4,5.7-3.4,5.3-6.7c-0.1-0.9-0.4-1.7-0.9-2.4l-1-1.6l1.9-0.5c3-0.8,4.9-3.6,4.5-6.7c-0.2-1.7-1-3.1-2.4-4.1L388.8,152.7z"
				/>
			<path class="st2" d="M390,153.6l-1.2-0.9l1-1.2c1-1.1,1.5-2.6,1.3-4.1c-0.3-2.9-3-4.9-5.8-4.6l-4,0.8l2.3-3
				c1-1.3,1.5-2.9,1.3-4.5c-0.4-3.1-3-5.3-6-5.3l-1.3,0l-0.2-1.3c-0.6-4.9-5-8.4-9.9-7.8c-0.4,0.1-0.8,0.1-1.2,0.3l-1.1,0.3l-0.5-1
				c-1.4-2.9-4.5-4.6-7.7-4.2c-4.1,0.5-7.1,4.3-6.6,8.4l6.9,56.9c0.4,3.6,3.7,6.2,7.4,5.8c2.9-0.4,5.3-2.7,5.7-5.6l0.3-2l1.8,0.9
				c1,0.5,2.1,0.7,3.2,0.6c2.6-0.3,4.7-2.5,4.8-5.1l0.1-1.3l1.3,0c0.2,0,0.5,0,0.7,0c3.3-0.4,5.7-3.4,5.3-6.7
				c-0.1-0.9-0.4-1.7-0.9-2.4l-1-1.6l1.9-0.5c3-0.8,4.9-3.6,4.5-6.7C392.2,156.1,391.3,154.7,390,153.6z"/>
			<g>
				<g>
					<g>
						<path class="st4" d="M341.6,134.6c-1.3,0.2-2.6-0.1-3.7-0.8c-2.1-1.2-3.3-3.7-3.2-6.6c0-0.9,0.8-1.6,1.7-1.6
							c0.9,0,1.6,0.8,1.6,1.7c-0.1,1.8,0.5,3.1,1.6,3.7c0.8,0.5,1.8,0.5,2.6,0c0.2-0.1,0.4-0.3,0.4-0.5c0-0.1-0.1-0.2-0.1-0.3
							c-0.8,0.3-1.6,0-2-0.8c-0.4-0.8-0.1-1.8,0.7-2.2c1.5-0.8,3.3-0.2,4.2,1.4c0.9,1.5,0.7,3.8-1.5,5.1
							C343.2,134.3,342.4,134.5,341.6,134.6z"/>
					</g>
					<g>
						<path class="st4" d="M332,144.7C332,144.7,332,144.7,332,144.7c-2.9,0.2-6.2-1.9-6.9-6.1c-0.1-0.9,0.5-1.7,1.3-1.9
							c0.9-0.2,1.7,0.4,1.9,1.3c0.4,2.5,2.2,3.5,3.4,3.4c0.9-0.1,1.7,0.6,1.7,1.5C333.5,143.9,332.9,144.6,332,144.7z"/>
					</g>
					<g>
						<path class="st4" d="M333.6,153.8c-3,0.4-6.3-0.4-8.1-1.3c-0.8-0.4-1.1-1.4-0.7-2.2c0.4-0.8,1.4-1.1,2.2-0.7
							c2.3,1.2,7.6,1.9,9.2-0.4c0.5-0.7,1.5-0.9,2.3-0.4c0.7,0.5,0.9,1.5,0.4,2.3C337.7,152.7,335.7,153.5,333.6,153.8z"/>
					</g>
					<g>
						<path class="st4" d="M326.8,173.2c-0.3,0-0.5,0-0.8-0.1c-0.8-0.3-1.3-1.3-0.9-2.1c2.2-5.7,10.1-7,13.4-6.8
							c1.3,0.1,3.1-0.1,3.9-1c0.5-0.6,0.6-1.7,0.2-3.1c-0.4-1.4-1.2-2-2.6-2c-1.5,0-2.7,0.9-2.8,1.3c0.1,0.9-0.6,1.7-1.5,1.7
							c-0.9,0.1-1.7-0.6-1.8-1.5c-0.2-2.4,2.3-4.2,4.8-4.7c3.2-0.6,6,1,6.9,4.2c0.9,3.1,0.1,5-0.8,6.1c-1.9,2.3-5.3,2.3-6.6,2.2
							c-2.7-0.2-8.6,1-10.1,4.7C327.9,172.8,327.4,173.2,326.8,173.2z"/>
					</g>
					<g>
						<path class="st4" d="M333.5,181.1c-0.8,0.1-1.5-0.4-1.8-1.1c-1.1-3.7,0.3-6.1,1.3-7.2c1.5-1.6,3.8-2.5,5.7-2.2
							c0.9,0.2,1.5,1,1.3,1.9c-0.2,0.9-1,1.5-1.9,1.3c-0.6-0.1-1.8,0.2-2.7,1.1c-0.9,1-1.1,2.4-0.6,4c0.3,0.9-0.2,1.8-1.1,2
							C333.7,181.1,333.6,181.1,333.5,181.1z"/>
					</g>
					<g>
						<path class="st4" d="M324.2,162.6c-1.2,0.1-2.4-0.1-3.6-0.6c-0.8-0.4-1.1-1.4-0.8-2.2c0.4-0.8,1.4-1.2,2.2-0.8
							c0.8,0.4,1.7,0.4,2.6,0.1c1.1-0.4,2-1.3,2.3-2c0.4-0.8,1.3-1.2,2.1-0.9c0.8,0.4,1.2,1.3,0.8,2.1c-0.7,1.6-2.3,3-4.2,3.7
							C325.3,162.4,324.8,162.6,324.2,162.6z"/>
					</g>
					<g>
						<path class="st4" d="M344.1,184c-0.7,0.1-1.4-0.3-1.7-0.9c-1-2.3-0.9-4.6,0.3-6.3c1.1-1.6,2.9-2.4,4.8-2.3
							c2.7,0.2,4,2.1,4.1,3.9c0.1,1.8-0.9,3.2-2.6,3.6c-0.9,0.2-1.7-0.4-1.9-1.3c-0.2-0.9,0.4-1.7,1.3-1.9c0,0,0-0.2-0.1-0.5
							c-0.2-0.3-0.5-0.5-1-0.5c-0.8-0.1-1.5,0.3-1.9,0.9c-0.5,0.8-0.5,1.9,0,3.1c0.4,0.8,0,1.8-0.8,2.2
							C344.4,183.9,344.2,183.9,344.1,184z"/>
					</g>
				</g>
			</g>
			<g>
				<g>
					<g>
						<path class="st4" d="M361.4,132.3c-0.8,0.1-1.6,0-2.3-0.2c-2.4-0.8-3.1-2.9-2.6-4.6c0.5-1.8,2.1-2.8,3.7-2.4
							c0.9,0.2,1.4,1.1,1.2,2c-0.2,0.8-1,1.3-1.8,1.2c0,0.1-0.1,0.2,0,0.3c0,0.2,0.3,0.3,0.5,0.4c0.8,0.3,1.8,0,2.5-0.6
							c0.9-0.9,1.1-2.3,0.7-4c-0.2-0.9,0.3-1.8,1.1-2c0.8-0.2,1.8,0.3,2,1.1c0.8,2.9,0.2,5.5-1.5,7.2
							C363.9,131.6,362.6,132.1,361.4,132.3z"/>
					</g>
					<g>
						<path class="st4" d="M373.1,139.8c-0.9,0.1-1.7-0.5-1.8-1.3c-0.1-0.9,0.4-1.7,1.3-1.9c1.1-0.2,2.6-1.6,2.5-4.1
							c-0.1-0.9,0.7-1.7,1.5-1.7c0.9-0.1,1.7,0.6,1.7,1.5C378.6,136.6,375.9,139.4,373.1,139.8C373.1,139.8,373.1,139.8,373.1,139.8
							z"/>
					</g>
					<g>
						<path class="st4" d="M373.7,149c-2.1,0.2-4.2-0.1-5.8-1.5c-0.7-0.6-0.7-1.6-0.1-2.3c0.6-0.7,1.6-0.7,2.3-0.1
							c2.1,1.9,7.1-0.1,9.1-1.8c0.7-0.6,1.7-0.5,2.3,0.2c0.6,0.7,0.5,1.7-0.2,2.3C379.7,147.1,376.7,148.6,373.7,149z"/>
					</g>
					<g>
						<path class="st4" d="M384.9,166.3c-0.6,0.1-1.2-0.2-1.5-0.7c-2.3-3.3-8.3-3.1-10.9-2.2c-1.3,0.4-4.6,1.2-7-0.6
							c-1.1-0.8-2.3-2.5-2.2-5.7c0.2-3.3,2.4-5.5,5.7-5.7c2.5-0.1,5.4,1,5.8,3.4c0.1,0.9-0.5,1.7-1.4,1.9c-0.9,0.2-1.7-0.5-1.9-1.4
							c-0.2-0.3-1.5-0.9-3-0.6c-1.3,0.3-1.9,1.1-2,2.5c-0.1,1.5,0.2,2.5,0.9,3c0.9,0.7,2.7,0.5,4,0.1c3.1-1,11.1-1.5,14.6,3.4
							c0.5,0.7,0.3,1.8-0.4,2.3C385.4,166.2,385.2,166.3,384.9,166.3z"/>
					</g>
					<g>
						<path class="st4" d="M380.2,175.6c-0.1,0-0.2,0-0.3,0c-0.9-0.1-1.6-0.8-1.5-1.7c0.1-1.7-0.4-3.1-1.5-3.8
							c-1.1-0.7-2.4-0.7-2.9-0.5c-0.8,0.4-1.8,0-2.2-0.8c-0.4-0.8,0-1.8,0.8-2.2c1.8-0.8,4.3-0.5,6.1,0.8c1.2,0.8,3.1,2.8,2.9,6.7
							C381.6,174.9,381,175.5,380.2,175.6z"/>
					</g>
					<g>
						<path class="st4" d="M384.9,155.4c-0.5,0.1-1.1,0.1-1.6,0c-1.9-0.2-3.9-1.3-4.9-2.6c-0.5-0.7-0.4-1.7,0.3-2.3
							c0.7-0.5,1.7-0.4,2.3,0.3c0.4,0.6,1.5,1.2,2.7,1.4c1,0.1,1.8-0.1,2.5-0.7c0.7-0.6,1.7-0.5,2.3,0.2c0.6,0.7,0.5,1.7-0.2,2.3
							C387.2,154.8,386.1,155.2,384.9,155.4z"/>
					</g>
					<g>
						<path class="st4" d="M370.6,180.8c-0.2,0-0.3,0-0.5,0c-0.9-0.2-1.5-1-1.3-1.9c0.2-1.3,0-2.4-0.7-3c-0.5-0.5-1.3-0.6-2.1-0.4
							c-0.4,0.1-0.7,0.4-0.8,0.7c-0.1,0.3,0,0.5,0.1,0.5c0.9,0,1.6,0.7,1.7,1.5c0,0.9-0.7,1.6-1.6,1.7c-1.7,0.1-3-1.1-3.3-2.9
							c-0.3-1.7,0.5-4,3.1-4.8c1.9-0.6,3.8-0.2,5.2,1.1c1.6,1.4,2.2,3.6,1.8,6.1C371.9,180.2,371.3,180.7,370.6,180.8z"/>
					</g>
				</g>
			</g>
		</g>
	</g>
	<g class="st15">
		<path class="st16" d="M606.5,202.7l-22.9-4.1l-22.9-4.1c-1.4-0.2-2.7,0.7-3,2.1l-11.4,64c-0.2,1.4,0.7,2.7,2.1,3l22.9,4.1
			l22.9,4.1c1.4,0.2,2.7-0.7,3-2.1l11.4-64C608.8,204.3,607.9,202.9,606.5,202.7z"/>
		<path class="st10" d="M583.6,198.6l22.9,4.1c1.4,0.2,2.3,1.6,2.1,3l-11.4,64c-0.2,1.4-1.6,2.3-3,2.1l-22.9-4.1L583.6,198.6z"/>
		
			<rect x="550.5" y="215.1" transform="matrix(0.1752 -0.9845 0.9845 0.1752 246.1386 761.1782)" class="st17" width="53.8" height="37.1"/>
		
			<rect x="541.3" y="222.8" transform="matrix(0.1752 -0.9845 0.9845 0.1752 240.205 750.8455)" class="st18" width="53.8" height="18.6"/>
		<g>
			<g>
				<g>
					
						<rect x="579.5" y="200.1" transform="matrix(0.1752 -0.9845 0.9845 0.1752 265.8942 749.9183)" class="st2" width="1.9" height="32.4"/>
				</g>
				<g>
					
						<rect x="579" y="203" transform="matrix(0.1752 -0.9845 0.9845 0.1752 262.5692 751.8282)" class="st2" width="1.9" height="32.4"/>
				</g>
				<g>
					
						<rect x="574.4" y="209.4" transform="matrix(0.1752 -0.9845 0.9845 0.1752 256.5472 749.0443)" class="st2" width="1.9" height="24"/>
				</g>
				<g>
					
						<rect x="574.1" y="230.7" transform="matrix(0.1752 -0.9845 0.9845 0.1752 231.2133 769.835)" class="st2" width="1.9" height="32.4"/>
				</g>
				<g>
					
						<rect x="573.6" y="233.7" transform="matrix(0.1752 -0.9845 0.9845 0.1752 227.8876 771.7445)" class="st2" width="1.9" height="32.4"/>
				</g>
				<g>
					
						<rect x="571" y="238.3" transform="matrix(0.1752 -0.9845 0.9845 0.1752 223.2133 771.308)" class="st2" width="1.9" height="28.2"/>
				</g>
				<g>
					
						<rect x="576.5" y="217" transform="matrix(0.1752 -0.9845 0.9845 0.1752 246.7711 760.9008)" class="st2" width="1.9" height="32.4"/>
				</g>
				<g>
					
						<rect x="573.9" y="221.6" transform="matrix(0.1752 -0.9845 0.9845 0.1752 242.0952 760.4647)" class="st2" width="1.9" height="28.2"/>
				</g>
			</g>
		</g>
	</g>
	<g>
		<path class="st16" d="M609,229.2l-7.5,42.1c-0.3,1.7-1.9,2.8-3.6,2.5l-28.1-5c-0.2-0.2-0.4-0.5-0.6-0.8c-2.2-3-3.6-6.3-4.5-9.7
			c-0.7-2.7-0.9-5.5-0.8-8.2c0-0.8,0.1-1.6,0.2-2.3c0.1-0.4,0.1-0.9,0.2-1.3c0.1-0.8,0.3-1.5,0.5-2.3c0.1-0.4,0.2-0.8,0.4-1.3
			c0.2-0.8,0.5-1.5,0.8-2.2c1.6-3.7,4-7.2,7.1-10c0.7-0.7,1.5-1.3,2.3-1.9l0.1-0.1c0.5-0.4,1-0.7,1.5-1l0-0.1l0.1,0
			c1.1-0.7,2.2-1.3,3.4-1.8c6.4-2.9,13.6-3.1,20.1-1C603.6,225.8,606.4,227.3,609,229.2z"/>
		<path class="st10" d="M609,229.2l-7.5,42.1c-0.3,1.7-1.9,2.8-3.6,2.5l-28-5l7.3-41.1l0.1,0c1.1-0.7,2.2-1.3,3.4-1.8
			c6.4-2.9,13.6-3.1,20.1-1C603.6,225.8,606.4,227.3,609,229.2z"/>
		<path class="st17" d="M600.7,224.9l-6.9,38.6l-29.1-5.2c-0.7-2.7-0.9-5.5-0.8-8.2c0-0.8,0.1-1.6,0.2-2.3c0.1-0.4,0.1-0.9,0.2-1.3
			c0.1-0.8,0.3-1.5,0.5-2.3c0.1-0.4,0.2-0.8,0.4-1.3c0.2-0.8,0.5-1.5,0.8-2.2c1.6-3.7,4-7.2,7.1-10c0.7-0.7,1.5-1.3,2.3-1.9l0.1-0.1
			c0.5-0.4,1-0.7,1.5-1l0-0.1l0.1,0c1.1-0.7,2.2-1.3,3.4-1.8C587,223,594.2,222.8,600.7,224.9z"/>
		<path class="st18" d="M577.1,227.7l-5.7,31.8l-6.8-1.2c-0.7-2.7-0.9-5.5-0.8-8.2c0-0.8,0.1-1.6,0.2-2.3c0.1-0.4,0.1-0.9,0.2-1.3
			c0.1-0.8,0.3-1.5,0.5-2.3c0.1-0.4,0.2-0.8,0.4-1.3c0.2-0.8,0.5-1.5,0.8-2.2c1.6-3.7,4-7.2,7.1-10c0.7-0.7,1.5-1.3,2.3-1.9l0.1-0.1
			C576.1,228.4,576.6,228,577.1,227.7z"/>
		<g>
			<g>
				<g>
					<path class="st2" d="M594.2,245.7l-0.4,2.3l-28.5-5.1c0.2-0.8,0.5-1.5,0.8-2.2L594.2,245.7z"/>
				</g>
				<g>
					<path class="st2" d="M593.5,249.3l-0.4,2.3l-28.7-5.1c0.1-0.8,0.3-1.5,0.5-2.3L593.5,249.3z"/>
				</g>
				<g>
					<path class="st2" d="M587.8,252l-0.4,2.3l-23.4-4.2c0-0.8,0.1-1.6,0.2-2.3L587.8,252z"/>
				</g>
				<g>
					<path class="st2" d="M597.2,228.8l-0.4,2.3l-19.5-3.5c1.1-0.7,2.2-1.3,3.4-1.8L597.2,228.8z"/>
				</g>
				<g>
					<path class="st2" d="M591.4,231.5l-0.4,2.3l-17.8-3.2c0.7-0.7,1.5-1.3,2.3-1.9l0.1-0.1L591.4,231.5z"/>
				</g>
			</g>
		</g>
	</g>
	
		<ellipse transform="matrix(0.3895 -0.921 0.921 0.3895 129.6931 698.7539)" class="st19" cx="591.9" cy="251.6" rx="25.9" ry="25.9"/>
	<path class="st2" d="M575.5,228.8c-12.6,9.1-15.4,26.7-6.3,39.2c8.4,11.6,23.9,14.9,36.2,8.3l12.8,17.7c1.2,1.6,3.4,2,5,0.8
		c1.6-1.2,2-3.4,0.8-5l-12.8-17.7c10.2-9.5,11.9-25.4,3.6-36.9C605.7,222.6,588.1,219.7,575.5,228.8z M609.2,270
		c-0.8,0.7-1.6,1.4-2.5,2c-0.9,0.6-1.8,1.2-2.7,1.7c-11,6-25,3-32.5-7.4c-8.1-11.3-5.6-27.1,5.7-35.2c11.3-8.1,27.1-5.6,35.2,5.7
		C619.9,247.2,618.3,261.4,609.2,270z"/>
	<path class="st20" d="M587.5,233.2c0,0,13.1-2.9,20.9,8.8"/>
	<g>
		<g>
			<path class="st5" d="M581.7,235.6c1.2,0,1.2-1.8,0-1.8C580.5,233.7,580.5,235.6,581.7,235.6L581.7,235.6z"/>
		</g>
	</g>
	<path class="st2" d="M129,258c0.9,1.3,2.9,1.1,3.6-0.3l6.6-14.4l6.6-14.4c0.7-1.4-0.5-3.1-2.1-2.9l-15.8,1.4l-15.8,1.4
		c-1.6,0.1-2.4,1.9-1.5,3.2l3.9,5.5c0.7,0.9,0.4,2.2-0.5,2.9L79.5,265c-0.9,0.7-1.2,1.9-0.5,2.9l5.7,8.1c0.7,0.9,1.9,1.2,2.9,0.5
		l34.7-24.5c0.9-0.7,2.2-0.4,2.9,0.5L129,258z"/>
	<path class="st21" d="M145.6,226.8l-63.8,45l-2.8-4c-0.7-0.9-0.4-2.2,0.5-2.9l34.7-24.5c0.9-0.7,1.2-1.9,0.5-2.9l-3.9-5.5
		c-0.9-1.3-0.1-3.1,1.5-3.2l15.8-1.4l15.8-1.4C144.6,225.9,145.2,226.3,145.6,226.8z"/>
	<polyline class="st22" points="76.5,283.5 106.7,286.9 114.2,263.6 136.7,266.3 149.1,244.1 169,246.5 	"/>
	<path class="st23" d="M539.1,383.5l-5.9,92.6l-0.1,1.2c-0.1,1.1-0.9,2-2.1,2.1l-5.6,0.4l-1.5,0.1l-11.8-95.4v0l-0.3-2.7l-0.2,1.8
		l-7.2,54.8l-5.3,40c-0.3,2.5-2.7,4.2-5.1,3.7l-6.2-1.2l-0.9-117.5l0-1.3l0-0.3c0,0.1,0,0.2,0.1,0.3c3,3.9,7.4,6.7,12.5,7.6
		c0,0,5.5,1,11.9,2.2c4.1,0.8,8.6,1.6,12.3,2.3c4.6,0.9,8.1,1.5,8.1,1.5c2.7,0.5,5,0.2,6.7-0.9c0.3,1.6,0.5,3.3,0.6,4.9
		C539.1,381,539.1,382.2,539.1,383.5z"/>
	<path class="st11" d="M511.6,383.5c-2.8,20.9-5.6,41.8-8.5,62.7c-1,6.9-1.9,13.8-2.9,20.6c0.4-16.3,0.3-32.9,2.6-49
		c0.9-6.7,2.3-13.4,3.1-20.2c0.4-3.3,0.6-6.7,0.6-10c-0.1-4.1-0.9-7.7-3.5-10.9c-1.9-2.3-4.5-4.3-6.9-6c-2.5-1.7-6.1-3.4-9.1-1.9
		c-0.1-2.2-0.2-4.5-0.3-6.7c0,0.6,1.7,1.9,2.1,2.4c0.9,0.8,1.8,1.6,2.8,2.2c1.9,1.3,4.1,2.3,6.4,2.9c4.3,1.1,8.9,1.7,13.3,2.5
		L511.6,383.5z"/>
	<path class="st11" d="M534.3,459.2c-2.5-1.9-2.7-5.1-3.1-8.4c-0.4-2.8-0.6-5.7-0.9-8.5c-0.4-4.7-0.8-9.4-1.1-14.1
		c-0.3-4.9-0.6-9.8-0.8-14.7c-0.2-3.9-0.3-7.8-0.4-11.6c-0.1-4.8,0.3-10.5-2.1-14.9c-2.5-4.6-9.5-7.9-14.6-8.2l-0.4-6.9l5.2,0
		c3.6,0.7,7.1,1.5,10.6,2.6c0,0.1,0,0.3,0,0.4c0,2.2,0,4.5,0,6.7c0-2.2,0.1-4.5,0.1-6.7c0-0.2,0-0.5,0-0.7c3.1,1,6.3,2,9.4,1.6
		c0.8-0.1,1.5-0.3,2.2-0.6c0.1,0,0.2-0.1,0.3-0.1c0,0.9,0,1.8,0.1,2.8c0.1,3.6,0,7.1,0,10.7L534.3,459.2z"/>
	<path class="st24" d="M223.8,544.3c0.2-2.1,0.1-0.2,0.1-0.2l-8.6,4l-14.1-35.5v0l-27.3-68.5l-0.4-0.9l-18.1,42.9l-3.2,7.7
		c-0.8,1.9-1.9,3.7-3.2,5.4l-3.6,4.4L101.2,558l-14.7-6.5l45.8-95.6c2-4.1,3.2-8.4,3.6-12.9l0.5-5.1l0.3-2.8l0.2-1.9l2.7-28.6
		l57.7-11.9l1.8,8.3c-7.6,0.8-15.7,4.3-15.7,4.3l-44.4,28.4c1.5,0.2,3.2,0.2,5.1-0.2c0.1,0,24.5-4.5,36-6.6c3.6-0.7,5.9-1.1,5.9-1.1
		c5.3-1,9.9-3.5,13.5-7c0,0,0,0,0.1-0.1c0.2-0.2,0.5-0.4,0.7-0.7c0.7-0.7,1.4-1.5,2-2.3c0-0.1,0.1-0.1,0.1-0.2l0.1,0.3l0,0.1l2,9.2
		l12.1,55.4l3.6,16.4l9.7,44.5L223.8,544.3z"/>
	<polygon class="st25" points="229.1,540.7 232.5,557.4 224.2,560.6 216.3,542.9 	"/>
	<path class="st26" d="M223.1,541.7l1.1-0.2c-0.6,3.3-2.3,15.4,4.3,17.4l-4.3,1.6l-6.5-14.4L223.1,541.7z"/>
	<polygon class="st27" points="277.7,367.3 271.6,367.7 244,358.1 240.8,357 218.3,349.1 213.6,347.5 210,346.2 219.1,327 
		240.9,342 244,344.1 259.3,354.6 263.8,357.7 263.8,357.8 	"/>
	<path class="st26" d="M228.5,558.9l-4.3,1.6l-6.5-14.4l5.4-4.5l1.2-1c0,0-0.1,0.3-0.2,0.8C223.6,544.8,221.9,556.9,228.5,558.9z"/>
	<polygon class="st28" points="533.1,475.5 532.8,479.3 532.2,487.6 526.6,487.5 525.7,481.6 525.4,479.7 525,476.9 	"/>
	<polygon class="st29" points="532.8,479.3 532.7,480.9 525.7,481.6 525.4,479.7 	"/>
	<polygon class="st28" points="487.9,479.1 487.6,489.9 493.1,491 496.1,479.2 	"/>
	<polygon class="st29" points="487.9,480.8 487.8,483.4 494.6,485.2 495.4,481.8 	"/>
	<polygon class="st25" points="99.9,554.6 87.8,570.6 80,566.6 87.8,548.9 	"/>
	<path class="st25" d="M99.9,554.6l-1.9,2.5c-1.9,0.3-4.3,0.5-6.9,0.4c-4.5-0.3-6.3,6-5.8,11.9l-5.4-2.8l7.4-16.9l0.4-0.9l11.6,5.5
		L99.9,554.6z"/>
	<path class="st24" d="M229.6,541.4l-14.2,7.1l-14.3-35.9v0l-27.3-68.5l-0.4-0.9l-18.1,42.9l-3.2,7.7c-0.8,1.9-1.9,3.7-3.2,5.4
		l-3.6,4.4L101.2,558l-14.7-6.5l45.8-95.6c2-4.1,3.2-8.4,3.6-12.9l0.5-5.1l0.3-2.8l0.2-1.9l2.7-28.6l57.7-11.9l1.8,8.3
		c-7.6,0.8-15.7,4.3-15.7,4.3l-44.4,28.4c1.5,0.2,3.2,0.2,5.1-0.2c0.1,0,24.5-4.5,36-6.6c3.6-0.7,5.9-1.1,5.9-1.1
		c5.3-1,9.9-3.5,13.5-7c0,0,0,0,0.1-0.1c0.2-0.2,0.5-0.4,0.7-0.7c0.7-0.7,1.4-1.5,2-2.3c0-0.1,0.1-0.1,0.1-0.2l0.1,0.3l0,0.1l2,9.2
		l12.1,55.4l3.6,16.4L229.6,541.4z"/>
	<path class="st24" d="M198.9,401c-7.6,0.8-15.7,4.3-15.7,4.3l-21.1,13.5l-23.3,14.9c1.5,0.2,3.2,0.2,5.1-0.2c0,0,7-1.3,15.2-2.8
		c-10.6,36.6-33.2,81.1-65.1,105.4l38.4-80.1c2-4.1,3.2-8.4,3.6-12.9l0.5-5.1l0.3-2.8l0.2-1.9l2.7-28.6l25.9-5.3l31.7-6.6L198.9,401
		z"/>
	<path class="st30" d="M173.5,443.3c0,0,8.4-17.3,8.4-28.8"/>
	<g>
		<g>
			<g>
				<line class="st31" x1="218.1" y1="546.5" x2="217.6" y2="545.2"/>
				<line class="st32" x1="216.6" y1="542.6" x2="177" y2="440.2"/>
				<line class="st31" x1="176.5" y1="438.9" x2="176" y2="437.6"/>
			</g>
		</g>
	</g>
	<g>
		<g class="st34">
			<polygon points="173.9,444.1 201.2,512.6 201.2,512.7 			"/>
		</g>
	</g>
	<g>
		<g class="st35">
			<path d="M188.3,432.5c-5.1,9.3-1,18.5,1.7,27.7c1.7,5.7,3.3,11.3,4.8,17c2.7,10,6,20.6,6.5,31.1c0.1,1.4,0.1,2.9-0.2,4.3
				l-27.3-68.5c0.8-3.6,2.6-10.8,5.9-17.3c4.4-8.7,11.5-16,22.2-11.1c0.1,0,0.1,0.1,0.2,0.1c0,0,0,0,0.1,0c0,0,0,0-0.1,0
				c-0.7,0.7-1.5,1.4-2.2,2.2c-0.2,0.2-0.5,0.5-0.7,0.7c0,0,0,0-0.1,0.1C195.1,423,191.1,427.4,188.3,432.5z"/>
		</g>
	</g>
	<path class="st11" d="M80.3,565.2l9.3,4.4c0.1,0.1,0.2,0.1,0.3,0.2l20.5,20.6c1.2,1.2,1.5,2.9,0.8,4.4l0,0
		c-0.2,0.5-0.9,0.7-1.4,0.5l-33.8-17.1c-2.5-1.2-3.6-4.1-2.7-6.7c1-2.6,2.8-5.4,6.1-6.5C79.8,565.1,80.1,565.1,80.3,565.2z"/>
	<path class="st11" d="M223.5,559.4l9.5-4c0.1,0,0.2-0.1,0.3-0.1l29-1.5c1.6-0.1,3.2,0.8,3.8,2.3l0,0c0.2,0.5,0,1.1-0.5,1.3
		l-35.3,13.8c-2.6,1-5.5-0.1-6.8-2.5c-1.3-2.4-2.2-5.7-0.7-8.9C223,559.7,223.2,559.5,223.5,559.4z"/>
	<polygon class="st33" points="537.6,370.4 486.8,360.6 486.7,343.3 529.9,329.5 	"/>
	<path class="st36" d="M494.2,488l-6.5-0.3c-0.1,0-0.1,0-0.2,0l-17.5,5.5c-1,0.3-1.7,1.2-1.8,2.2l0,0c0,0.4,0.3,0.7,0.6,0.7
		l23.8,0.4c1.7,0,3.2-1.2,3.5-3c0.2-1.7,0.1-3.8-1.5-5.4C494.5,488.1,494.3,488,494.2,488z"/>
	<path class="st36" d="M532.7,485l-6.4,0.8c-0.1,0-0.1,0-0.2,0.1l-16.3,8.4c-0.9,0.5-1.5,1.5-1.3,2.5l0,0c0,0.4,0.4,0.6,0.7,0.6
		l23.6-3.7c1.7-0.3,3-1.8,2.9-3.5c-0.1-1.7-0.6-3.8-2.4-5.1C533,485.1,532.9,485,532.7,485z"/>
	<g>
		<g>
			<g>
				<path class="st31" d="M149.1,432.5c0,0-0.1,0.5-0.2,1.4"/>
				<path class="st38" d="M148.5,436.7c-0.9,5.5-2.6,15.1-4.8,20.2c-3.5,8-44,79.3-52.1,93.5"/>
				<path class="st31" d="M90.9,551.6c-0.4,0.8-0.7,1.2-0.7,1.2"/>
			</g>
		</g>
	</g>
	<path class="st33" d="M486.8,360.6l0,1.2c-0.1-0.7-0.1-1.2-0.1-1.2L486.8,360.6z"/>
	<path class="st28" d="M537.7,369.9c-0.4,0.3-0.8,0.6-1.2,0.9c-1.7,1-3.8,1.3-6.4,0.8c-0.1,0-30.7-5.7-30.7-5.7
		c-4.9-0.9-9-3.6-11.9-7.3c0,0,0,0,0-0.1c-2.5-3.3-4-7.4-4-11.8l0-23.6l0-4.2l-0.6-0.2l-15.7-2.3l13.2-7.8l3.1-0.9V305l-7.3,2.3
		l-10.6,3.4l-0.4,0.1l-4.4,0.8l-7.1,1.3l-1.2,0.2l-4.7,0.9l-2.6,0.5l-8.9,1.6l-5.1,0.9l5.3-2.9l3.5-2l4.7-2.6l10.9-6.1l27.3-15.2
		c1-0.5,2-1,3.1-1.4l6.6-2.4c1.5-0.5,3-0.8,4.5-0.9c2.2-0.3,4.3-0.7,6.5-1c1.4-0.2,2.7-0.4,4.1-0.6c10.7-1.3,22.4,8.4,25,18.3
		C535.1,310,549.5,359.5,537.7,369.9z"/>
	<path class="st24" d="M539.7,373.9c-0.4,0.3-0.8,0.6-1.2,0.9c-1.8,1-4,1.4-6.7,0.9c-0.1,0-32.3-6-32.3-6c-5.1-0.9-9.5-3.7-12.5-7.6
		c0,0,0,0-0.1-0.1c-2.6-3.4-4.2-7.7-4.2-12.3v-0.1l0-14.2l0-10.7l0-4.4l-0.7-0.2l-16.5-2.4l13.9-8.2l1-0.4l2.2-0.9l0-2.5l-3.4,1.1
		l-4.2,1.3l-5.4-13.1l12.4-7.1c1-0.6,2.1-1.1,3.2-1.5l6.9-2.5c1.5-0.5,3.1-0.9,4.7-0.9c2.3-0.3,4.6-0.7,6.8-1
		c1.4-0.2,2.9-0.4,4.3-0.6c11.3-1.4,23.6,8.8,26.3,19.3c0.9,3.3,3,10.7,5.1,19.8c2.3,10.2,4.7,22.3,5.1,32.6
		C544.8,362.5,543.7,370.4,539.7,373.9z"/>
	<g>
		<defs>
			<path id="SVGID_1_" d="M207.3,361.8l0,37.9c0,0.7,0,1.4-0.1,2c-0.4,5.1-2.2,9.9-5.2,13.8c-3.9,5.2-9.6,9-16.4,10.2
				c0,0-41.8,7.7-41.8,7.7c-1.9,0.3-3.6,0.4-5.1,0.2c-0.7-0.1-1.4-0.3-2-0.5c-21.8-7.7,0.1-82.7,3.7-96.7c2.4-9,6.8-15.4,15.5-19.3
				c3.4-1.5,11.1-6.7,14.9-6.2l0.2,0c0,0,17.9,2.6,17.9,2.6c5.5,0.2,10.7,2.5,15.6,4.8c1.4,0.7,14.1,8.2,14,8.7
				c0,0-5.9,18.5-5.9,18.5l-5.4-2.8v3.7"/>
		</defs>
		<use xlink:href="#SVGID_1_"  style="overflow:visible;fill:#F9F9E8;"/>
		<clipPath id="SVGID_2_">
			<use xlink:href="#SVGID_1_"  style="overflow:visible;"/>
		</clipPath>
		<polygon class="st39" points="215,331.1 209.6,345 217.9,348.6 		"/>
		<polygon class="st39" points="131.8,405.1 138.1,413.3 130.9,413.3 		"/>
		<polygon class="st39" points="214.5,375.3 197.4,379.8 202.3,387 		"/>
		<polygon class="st39" points="126,351.1 145,356.1 136.4,381.9 		"/>
	</g>
	<g>
		<defs>
			<path id="SVGID_3_" d="M207.3,361.8l0,37.9c0,0.7,0,1.4-0.1,2c-0.4,5.1-2.2,9.9-5.2,13.8c-3.9,5.2-9.6,9-16.4,10.2
				c0,0-41.8,7.7-41.8,7.7c-1.9,0.3-3.6,0.4-5.1,0.2c-0.7-0.1-1.4-0.3-2-0.5c-21.8-7.7,0.1-82.7,3.7-96.7c2.4-9,6.8-15.4,15.5-19.3
				c3.4-1.5,11.1-6.7,14.9-6.2l0.2,0c0,0,17.9,2.6,17.9,2.6c5.5,0.2,10.7,2.5,15.6,4.8c1.4,0.7,15.6,8.1,15.4,8.7
				c0,0-6.9,20.2-6.9,20.2l-6-1.3l0.2,0.5V361.8z"/>
		</defs>
		<use xlink:href="#SVGID_3_"  style="overflow:visible;fill:#FFFFFF;"/>
		<clipPath id="SVGID_4_">
			<use xlink:href="#SVGID_3_"  style="overflow:visible;"/>
		</clipPath>
		<polygon class="st40" points="215,331.1 209.6,345 217.9,348.6 		"/>
		<polygon class="st40" points="131.8,405.1 138.1,413.3 130.9,413.3 		"/>
		<polygon class="st40" points="214.5,375.3 197.4,379.8 202.3,387 		"/>
		<polygon class="st40" points="126,351.1 145,356.1 136.4,381.9 		"/>
	</g>
	<polygon class="st41" points="131.8,405.1 138.1,413.3 130.9,413.3 	"/>
	<path class="st42" d="M179.2,320.2c-2.1,9-31.4,32.7-16.8,54.6c5.5,8.2,4,30.1-3.4,55.9c-8.2,1.5-15.1,2.8-15.2,2.8
		c-1.9,0.3-3.6,0.4-5.1,0.2c-0.7-0.1-1.4-0.3-2-0.5c-21.8-7.7,0.1-82.7,3.7-96.7c2.4-9,6.8-15.4,15.5-19.3
		c3.4-1.5,11.1-6.7,14.9-6.2l0.2,0l8.1,1.2C179.7,314.8,179.9,317.5,179.2,320.2z"/>
	<path class="st25" d="M194.7,280.2c-0.2-0.9-0.5-1.8-0.9-2.8c-0.9-2.4-2.1-4.9-3.9-7.3l-17.5-1.6l-5.3,15.9l-1.5-0.2l-0.8-0.1
		l-1.9,3c0.1,0.6,0.3,1.1,0.6,1.6c0.1,0.1,0.2,0.3,0.3,0.4l4.3,4.8c0.5,2.1,3.4,4.7,6.3,6.9c1.9,1.4,3.7,2.6,4.9,3.3
		c0.8,0.5,1.7,0.8,2.6,0.9l4.1,0.5c0,0,0.3-0.1,0.8-0.2c2.3-0.8,9.2-4.2,8.9-15.1c0,0,0-0.1,0-0.4v0
		C195.8,288.6,195.9,284.8,194.7,280.2z"/>
	<path class="st26" d="M186.8,308c-0.5,0.2-0.8,0.2-0.8,0.2l-4.1-0.5c-0.9-0.1-1.8-0.4-2.6-0.9c-0.6-0.4-1.5-1-2.5-1.6
		c-1.1-2.3-2.1-3.9-2.3-4.3c1.8,1.4,3.6,2.6,4.8,3.3c0.8,0.5,1.7,0.8,2.6,0.9l4.1,0.5c0,0,0.3-0.1,0.8-0.2L186.8,308z"/>
	<path class="st25" d="M182.5,319.8c-0.9-0.5-1.8-1.1-2.9-2c0.3-4.6-1.3-9.3-2.8-12.5c1,0.7,1.8,1.2,2.5,1.6
		c0.8,0.5,1.7,0.8,2.6,0.9l4.1,0.5c0,0,0.3-0.1,0.8-0.2l0.1,5l2,0.6l0.2,1.1C190,318.6,186,321.6,182.5,319.8z"/>
	<path class="st11" d="M200,268.4c-0.1,2-0.3,4.1-1.2,5.9c-0.9,1.9-2.8,2.7-4.8,3c-0.7,0.1-1.5,0.1-2.3,0.1
		c-3.1-0.1-6.6-0.8-9.3-2.3c-2.4-1.3-4.6-2.8-6.8-4.4c-1.2-0.9-2.9,0-2.9,1.5c0.1,4.1-0.6,10.4-5.2,12c-0.1,0-0.3,0.1-0.4,0.1
		l-0.7-0.4c-1.1-0.7-2.7-0.3-3.2,1c-0.2,0.5-0.4,1.1-0.4,1.6c0,0.2,0,0.4,0,0.6l-0.1,0.1c0,0-1.6-10-0.9-18.2
		c0.5-5.1,4.8-8.9,9.9-8.7c4.8,0.2,11.4,0.8,16.9,1.1c5.8,0.3,10.5,0.1,10.5-1.4C199.8,262.6,200.1,265.6,200,268.4z"/>
	<g>
		<g>
			<path class="st43" d="M163,270.5c0-0.9,0.1-1.8,0.4-2.6c0.1-0.2,0.1-0.4,0.2-0.6l0.1-0.3c0-0.1,0.1-0.2,0.1-0.3
				c0.1-0.2,0.2-0.4,0.3-0.6l0.3-0.6c1-1.5,2.3-2.7,3.9-3.5c0.8-0.4,1.7-0.7,2.5-0.8l0.3-0.1c0.1,0,0.2,0,0.3,0l0.7-0.1l1.3,0
				c1.8,0,3.5,0,5.3-0.1c3.5,0,7.1,0,10.6-0.1c1.8-0.1,3.5-0.1,5.3-0.3c0.9-0.1,1.8-0.2,2.6-0.4c0.4-0.1,0.9-0.2,1.2-0.4
				c0.2-0.1,0.4-0.2,0.5-0.4c0.2-0.1,0.3-0.3,0.3-0.6l0-0.4l0.1,0.3c0.5,1.8,0.9,3.7,1.1,5.6c0.1,0.9,0.2,1.9,0.2,2.8
				c0,0.9,0,1.9-0.1,2.8c-0.1,0.9-0.3,1.9-0.6,2.8c-0.3,0.9-0.9,1.7-1.6,2.3c-0.7,0.6-1.6,1-2.5,1.3c-0.9,0.3-1.8,0.4-2.8,0.4
				c0.9,0,1.9-0.2,2.8-0.4c0.9-0.3,1.8-0.7,2.5-1.3c0.7-0.6,1.3-1.4,1.6-2.3c0.3-0.9,0.5-1.8,0.6-2.7c0.1-0.9,0.1-1.9,0.1-2.8
				c0-0.9-0.1-1.9-0.2-2.8c-0.2-1.9-0.6-3.7-1.1-5.5l0.1,0c0,0.2-0.1,0.5-0.3,0.6c-0.2,0.2-0.4,0.3-0.6,0.4
				c-0.4,0.2-0.8,0.3-1.3,0.4c-0.9,0.2-1.7,0.3-2.6,0.4c-1.8,0.2-3.5,0.3-5.3,0.3c-3.5,0.1-7.1,0.1-10.6,0.1c-1.8,0-3.5,0-5.3,0
				l-1.3,0l-0.7,0.1c-0.1,0-0.2,0-0.3,0l-0.3,0.1c-0.9,0.1-1.7,0.4-2.5,0.8c-1.6,0.8-3,2-3.9,3.5l-0.3,0.6c-0.1,0.2-0.2,0.4-0.3,0.6
				c0,0.1-0.1,0.2-0.1,0.3l-0.1,0.3c-0.1,0.2-0.2,0.4-0.2,0.6C163.2,268.7,163.1,269.6,163,270.5z"/>
		</g>
	</g>
	<g>
		<g>
			<path class="st43" d="M162.3,283c-0.2-0.5-0.4-1.1-0.6-1.6c-0.2-0.5-0.3-1.1-0.5-1.6c-0.3-1.1-0.5-2.2-0.6-3.4
				c-0.1-0.6-0.1-1.1-0.2-1.7c0-0.6-0.1-1.1-0.1-1.7c0-0.6,0-1.1,0-1.7c0-0.6,0-1.1,0.1-1.7c0.1-1.1,0.4-2.3,1-3.3
				c0.5-1,1.2-2,2.1-2.7c0.8-0.8,1.8-1.4,2.9-1.8c1.1-0.4,2.2-0.7,3.3-0.7c-2.3,0.1-4.5,1-6.2,2.6c-1.7,1.6-2.7,3.7-3,6
				c-0.1,0.6-0.1,1.1-0.1,1.7c0,0.6,0,1.1,0,1.7c0,0.6,0.1,1.1,0.1,1.7c0.1,0.6,0.1,1.1,0.2,1.7c0.1,1.1,0.3,2.3,0.6,3.4
				c0.1,0.6,0.3,1.1,0.5,1.7C161.9,282,162.1,282.5,162.3,283z"/>
		</g>
	</g>
	<g>
		<g>
			<g>
				<line class="st45" x1="533.3" y1="377.8" x2="533.3" y2="379.2"/>
				<line class="st46" x1="533.2" y1="381.9" x2="531.3" y2="474.7"/>
				<line class="st45" x1="531.3" y1="476.1" x2="531.3" y2="477.5"/>
			</g>
		</g>
	</g>
	<path class="st25" d="M511.2,261.8l-2.2-1.7l-0.3,0.1l0.3-0.1L511.2,261.8c0-0.1-0.1-0.3-0.1-0.4c-0.1-0.4-0.4-0.8-0.7-1.1
		c-0.7-0.8-2-0.7-2.6,0.1l-0.4,0.5l0.5-0.3l-0.5,0.3l-8-10.2l-12.3,5.6c-0.7,2.2-0.9,4.4-1,6.3c0,0.8,0,1.5,0.1,2.3
		c0.3,3.7,1.3,6.4,1.7,7.3c0.1,0.2,0.1,0.3,0.1,0.3c2.5,7.9,8.2,8.7,10.3,8.7c0,0,0.1,0,0.1,0c0.1,0,0.2,0,0.3,0l0.2,0
		c0,0,0.1,0,0.1,0l2.9-1.4c0.3-0.1,0.5-0.3,0.8-0.5c0.4-0.4,0.8-0.8,1.2-1.2c0.6-0.7,1.3-1.7,2-2.8c0.1-0.2,0.2-0.3,0.3-0.5
		c0.3-0.5,0.7-1,1-1.6c1.1-1.9,2-3.8,1.9-5.1l1.9-4.6c0-0.1,0.1-0.2,0.1-0.4C511.3,262.7,511.3,262.3,511.2,261.8z"/>
	<path class="st26" d="M507,276.7l-0.7-1.9c-0.1,0.2-0.2,0.3-0.3,0.5c-0.1,0.1-0.1,0.2-0.2,0.3c0,0,0,0.1-0.1,0.1
		c-0.2,0.3-0.4,0.6-0.7,0.9c-0.1,0.1-0.2,0.3-0.3,0.4c-0.3,0.4-0.6,0.8-0.8,1.1c-0.1,0.1-0.2,0.3-0.3,0.4c-0.3,0.3-0.5,0.6-0.9,0.8
		c-0.2,0.2-0.5,0.4-0.8,0.5l-2.9,1.4l0,0c0,0,0,0-0.1,0c0,0-0.1,0-0.2,0c-0.1,0-0.2,0-0.3,0l0.6,1.9c0.4,0,0.6,0,0.6,0l2.9-1.4
		c0.6-0.3,1.2-0.8,1.7-1.3c0.6-0.8,1.6-2.1,2.6-3.6C506.9,276.8,507,276.7,507,276.7L507,276.7z"/>
	<path class="st29" d="M504,278.1c0.6-0.8,1.5-2,2.4-3.3C505.7,275.8,504.9,277,504,278.1z"/>
	<path class="st47" d="M506.9,276.8c-1.7,4.3-7.2,7.9-7.2,7.9l-0.5-1.6c0.4,0,0.6,0,0.6,0l2.9-1.4c0.6-0.3,1.2-0.8,1.7-1.3
		C505,279.6,506,278.3,506.9,276.8z"/>
	<path class="st25" d="M499.3,288.7c0,0.2,0,0.5,0.1,0.7c0.8,2.5,4.3,3.1,6,1.2c1.3-1.4,2.6-3.7,3.7-7.8c0-0.1,0-0.1,0-0.2l-2.1-6
		c0,0-0.1,0.1-0.1,0.1c-1.7,4.3-8,5.4-8,5.4s1.5,4.6,1.5,4.6c0.1,0.2-0.6,0.7-0.7,0.9C499.4,288,499.3,288.3,499.3,288.7z"/>
	<g>
		<g>
			<path class="st48" d="M503.7,243.3c1.6,0.7,2.9,1.8,4,3.2c1.1,1.3,1.8,2.9,2.3,4.5c0.2,0.8,0.5,1.6,0.6,2.5
				c0.2,0.8,0.3,1.7,0.5,2.5c0.2,0.8,0.4,1.7,0.7,2.5c0.1,0.4,0.3,0.8,0.6,1.1c0.2,0.3,0.5,0.7,0.9,0.9c-0.4-0.2-0.7-0.5-0.9-0.9
				c-0.2-0.4-0.4-0.7-0.6-1.1c-0.3-0.8-0.5-1.6-0.7-2.5c-0.2-0.8-0.3-1.7-0.5-2.5c-0.2-0.8-0.4-1.7-0.7-2.5
				c-0.5-1.6-1.2-3.2-2.3-4.5c-0.5-0.7-1.1-1.3-1.7-1.8C505.2,244.1,504.5,243.6,503.7,243.3z"/>
		</g>
	</g>
	<g>
		<g class="st49">
			<path d="M163.7,411.1c-0.2,1.2-0.5,2.5-0.7,3.7C163.2,413.5,163.5,412.3,163.7,411.1z"/>
		</g>
	</g>
	<g>
		<g class="st49">
			<path d="M165.1,401.5c-0.1,0.8-0.2,1.5-0.3,2.3C165,403,165.1,402.2,165.1,401.5z"/>
		</g>
	</g>
	<g>
		<g class="st35">
			<path d="M159,430.7c-10.6,36.6-33.2,81.1-65.1,105.4l38.4-80.1c2-4.1,3.2-8.4,3.6-12.9l0.5-5.1l0.3-2.8l0.2-1.9
				c0.6,0.2,1.3,0.4,2,0.5c1.5,0.2,3.2,0.2,5.1-0.2C143.9,433.5,150.8,432.2,159,430.7z"/>
		</g>
	</g>
	<path class="st28" d="M179.6,317.8c-1.5-1.3-3.2-3.2-5-5.9c0-0.1-0.1-0.1-0.1-0.2v-10.8c0,0,0.1,0.1,0.1,0.1c0.2,0.4,1.2,2,2.3,4.3
		C178.4,308.5,179.9,313.2,179.6,317.8z"/>
	<path class="st26" d="M179.6,317.8c-1.5-1.3-3.2-3.2-5-5.9c0-0.1-0.1-0.1-0.1-0.2v-10.8c0,0,0.1,0.1,0.1,0.1c0.2,0.4,1.2,2,2.3,4.3
		C178.4,308.5,179.9,313.2,179.6,317.8z"/>
	<path class="st50" d="M155.5,486.2l-3.2,7.7c-0.8,1.9-1.9,3.7-3.2,5.4l-3.6,4.4c-2.1-1.8-1.4-6.7,1.6-11.3
		C149.6,488.5,153,486.1,155.5,486.2z"/>
	<path class="st50" d="M219.9,496.9c-2.4,0.4-5.2-2.7-6.3-7.1c-1.1-4.5,0-8.6,2.5-9.2c0.1,0,0.1,0,0.2,0L219.9,496.9z"/>
	<path class="st51" d="M179.2,320.2c-1.6,6.6-8.4,12.7-12,18.2c-4.2,6.3-9.2,13.5-8.5,21.4c0.4,4.3,1.9,8.4,3.2,12.6
		c4,13.1,4.2,25.1,1.9,38.5c0,0,0,0.1,0,0.1c-0.2,1.2-0.5,2.5-0.7,3.7c-0.3,1.3-0.6,2.6-0.9,3.9c-0.1,0.5-0.2,1-0.3,1.5
		c-0.1,0.5-0.2,1-0.3,1.5c-0.1,0.5-0.2,1-0.4,1.5c-0.1,0.3-0.2,0.6-0.2,0.9c-0.1,0.3-0.2,0.6-0.2,1c-0.2,0.9-0.5,1.7-0.7,2.6
		c-0.1,0.3-0.2,0.6-0.3,1c-0.2,0.7-0.4,1.4-0.6,2.1c-8.2,1.5-15.1,2.8-15.2,2.8c-1.9,0.3-3.6,0.4-5.1,0.2c-0.7-0.1-1.4-0.3-2-0.5
		c-21.8-7.7,0.1-82.7,3.7-96.7c2.4-9,6.8-15.4,15.5-19.3c3.4-1.5,11.1-6.7,14.9-6.2l0.2,0l8.1,1.2
		C179.7,314.8,179.9,317.5,179.2,320.2z"/>
	<path class="st26" d="M98.8,557c-0.3,0-0.5,0.1-0.8,0.1c-1.9,0.3-4.2,0.5-6.9,0.4c-4.5-0.3-6.3,6-5.8,11.9l-5.4-2.8l6.6-15
		L98.8,557z"/>
	<path class="st52" d="M109.5,595.3l-33.5-16.9c-2.5-1.2-3.6-4.1-2.7-6.7c0.9-2.6,2.8-5.4,6.1-6.5c0.3-0.1,0.5,0,0.8,0.1l4.9,2.3
		c0,3.6,0.9,7.4,2.4,9.7C91,581.9,108.9,589.4,109.5,595.3z"/>
	<path class="st52" d="M109.5,595.3l-33.5-16.9c-2.5-1.2-3.6-4.1-2.7-6.7c0.9-2.6,2.8-5.4,6.1-6.5c0.3-0.1,0.5,0,0.8,0.1l4.9,2.3
		c0,3.6,0.9,7.4,2.4,9.7C91,581.9,108.9,589.4,109.5,595.3z"/>
	<path class="st52" d="M261.7,559.1l-31.3,12.2c-2.6,1-5.5-0.1-6.8-2.5c-1.3-2.4-2.2-5.7-0.7-8.9c0.1-0.2,0.3-0.4,0.6-0.5l3.3-1.4
		c1.1,0.9,2.6,1.3,4.5,1.2C241.5,558.4,261.2,554.7,261.7,559.1z"/>
	<path class="st25" d="M263.8,357.8l-19.8,0.3l-3.2-1.1l-22.5-7.9c0.3-1.4,1.2-3,3.8-3.9c7.2-2.6,10.3,1,21.8-1.2l15.3,10.6
		L263.8,357.8L263.8,357.8C263.8,357.8,263.8,357.8,263.8,357.8z"/>
	<path class="st24" d="M539.7,373.9c-0.4,0.3-0.8,0.6-1.3,0.9c-1.8,1-4,1.4-6.7,0.9c0,0-3.5-0.6-8.1-1.5c0.1-9.8,0.6-17.6,1.2-21.7
		c3-18.9-12.5-21.5-23.6-35.7c-11.2-14.2,12-30.5,5.2-33.1c-0.8-0.3-1.3-0.9-1.7-1.8c1.1-0.2,2.2-0.3,3.3-0.5
		c11.3-1.4,23.6,8.8,26.3,19.3c0.9,3.3,3,10.7,5.1,19.8c2.3,10.2,4.7,22.3,5.1,32.6C544.8,362.5,543.7,370.4,539.7,373.9z"/>
	<path class="st29" d="M507,276.7c0,0.1,0,0.1-0.1,0.2c-0.6,0.9-1.2,1.7-1.7,2.4c-0.3,0.5-0.7,0.9-0.9,1.2c0,0-0.1,0.1-0.1,0.1
		c0-0.1-0.1-0.3-0.1-0.4c-0.1-0.6-0.2-1.3-0.2-2c0.2-0.3,0.5-0.7,0.8-1.1c0.1-0.1,0.2-0.3,0.3-0.4c0.2-0.3,0.4-0.6,0.7-0.9
		c0,0,0-0.1,0.1-0.1c0.1-0.1,0.1-0.2,0.2-0.3c0.1-0.2,0.2-0.3,0.3-0.5L507,276.7z"/>
	<path class="st26" d="M509.1,282.7c0,0.1,0,0.1,0,0.2c-1.1,4.1-2.4,6.4-3.7,7.8c0,0,0,0-0.1,0.1c2.2-3.6,3.4-6.1,1-7
		c-1.1-0.4-1.8-1.6-2.1-3.2c0-0.1-0.1-0.3-0.1-0.4c0.4-0.3,0.7-0.5,1.1-0.9c0.7-0.7,1.3-1.4,1.7-2.4c0,0,0.1-0.1,0.1-0.1
		L509.1,282.7z"/>
	<g>
		<g>
			<g>
				<path class="st53" d="M522,314.2c0,0,0.2,0.5,0.5,1.3"/>
				<path class="st54" d="M523.3,318.2c3.3,10.3,11.3,38,6.6,54.3"/>
				<path class="st53" d="M529.5,373.9c-0.2,0.4-0.3,0.9-0.5,1.3"/>
			</g>
		</g>
	</g>
	<path class="st26" d="M509.1,282.7c0,0.1,0,0.1,0,0.2c-1.1,4.1-2.4,6.4-3.7,7.8c0,0,0,0-0.1,0.1c2.2-3.6,3.4-6.1,1-7
		c-1.1-0.4-1.8-1.6-2.1-3.2c0-0.1-0.1-0.3-0.1-0.4c-0.1-0.6-0.2-1.3-0.2-2c0.2-0.3,0.5-0.7,0.8-1.1c0.1-0.1,0.2-0.3,0.3-0.4
		c0.2-0.3,0.4-0.6,0.7-0.9c0,0,0-0.1,0.1-0.1c0.1-0.1,0.1-0.2,0.2-0.3c0.1-0.2,0.2-0.3,0.3-0.5l0.7,1.9c0,0.1,0,0.1-0.1,0.2
		c0,0,0.1-0.1,0.1-0.1L509.1,282.7z"/>
	<path class="st28" d="M511.2,263.2c0,0.1-0.1,0.2-0.1,0.3l-1.9,4.6c0.1,1.3-0.7,3.2-1.9,5.1c-0.3,0.5-0.6,1-1,1.6
		c-0.1,0.2-0.2,0.3-0.3,0.5c-0.7,1.1-1.5,2.1-2,2.8c-0.4-9.1,4.1-25-5.6-18.6c-5,3.4-9.1,3.9-12.1,3.3v-0.1c0-2,0.3-4.1,1-6.3
		l12.3-5.6l8,10.2l0.4-0.5c0.6-0.8,1.9-0.9,2.6-0.1c0.3,0.3,0.5,0.7,0.7,1.1c0.1,0.1,0.1,0.3,0.1,0.4
		C511.3,262.3,511.3,262.7,511.2,263.2z"/>
	<path class="st26" d="M511.2,263.2c0,0.1-0.1,0.2-0.1,0.3l-1.9,4.6c0.1,1.3-0.7,3.2-1.9,5.1c-0.3,0.5-0.6,1-1,1.6
		c-0.1,0.2-0.2,0.3-0.3,0.5c-0.7,1.1-1.5,2.1-2,2.8c-0.4-9.1,4.1-25-5.6-18.6c-5,3.4-9.1,3.9-12.1,3.3v-0.1c0-2,0.3-4.1,1-6.3
		l12.3-5.6l8,10.2l0.4-0.5c0.6-0.8,1.9-0.9,2.6-0.1c0.3,0.3,0.5,0.7,0.7,1.1c0.1,0.1,0.1,0.3,0.1,0.4
		C511.3,262.3,511.3,262.7,511.2,263.2z"/>
	<g>
		<g class="st55">
			<path d="M539.7,373.9c-0.4,0.3-0.8,0.6-1.3,0.9c-1.8,1-4,1.4-6.7,0.9c0,0-3.5-0.6-8.1-1.5c0.1-4.9,0.1-10,0.6-14.9
				c0.5-5.3,1.6-10.6,0.3-15.8c-1.1-4.5-3.8-8.4-7-11.7c-5.3-5.4-11.5-8.9-16.3-15c-11.2-14.2,12-30.5,5.2-33.1
				c-0.8-0.3-1.3-0.9-1.7-1.8c1.1-0.2,2.2-0.3,3.3-0.5c11.3-1.4,23.6,8.8,26.3,19.3c0.9,3.3,3,10.7,5.1,19.8
				c2.3,10.2,4.7,22.3,5.1,32.6C544.8,362.5,543.7,370.4,539.7,373.9z"/>
		</g>
	</g>
	<path class="st56" d="M496.8,481.6l14.3-102.4c0,0-2.2-6.5-2.2-7.3"/>
	<path class="st48" d="M485.3,243.7c-3.4,1.6-6,4.1-6.3,8.4c-0.4,6.3,4.7,13,11.2,8.9c1.9-1.2,3.6-2.8,5.1-4.5
		c0.7-0.8,4.5-4.8,4.3-5.8c0,0,2,10.6,8,10.2l0.4-0.5c0.7-0.8,1.9-0.9,2.6-0.1c0.3,0.3,0.5,0.7,0.7,1.1c0,0.1,0.1,0.3,0.1,0.4
		c0,0,0.1,0.1,0.1,0.1c-0.2-0.2-0.1-2-0.1-2.3c-0.1-1.5-0.2-2.9-0.4-4.4c-0.5-3.7-1.8-7.8-4.5-10.4c-4.8-4.8-10.3-4.3-16.6-2.7
		C488.2,242.5,486.6,243,485.3,243.7z"/>
	<path class="st57" d="M511.3,261.9L511.3,261.9c-0.1-0.2-0.2-0.4-0.2-0.5c-0.1-0.4-0.4-0.8-0.7-1.1c-0.7-0.8-2-0.7-2.6,0.1
		l-0.4,0.5c-5.8,0.4-7.8-9.6-8-10.2c0.1,1.1-3.6,4.9-4.3,5.8c-1.5,1.7-3.2,3.3-5.1,4.5c-6.5,4.1-11.6-2.6-11.2-8.9
		c0.2-3.3,1.8-5.6,4.2-7.2c0.7-0.5,1.4-0.9,2.1-1.2c1.4-0.7,2.9-1.2,4.4-1.6c6.3-1.6,11.8-2.1,16.6,2.7c2.7,2.7,4,6.7,4.5,10.4
		c0.1,0.6,0.2,1.2,0.2,1.9c0.1,0.9,0.2,1.7,0.2,2.5C511.3,259.9,511.1,261.7,511.3,261.9z"/>
	<g>
		<g>
			<path class="st48" d="M506.4,247.8c-0.5-1-1.2-2-1.9-2.8c-0.8-0.9-1.6-1.6-2.5-2.3c-1.9-1.3-4.1-2-6.4-2.2
				c-1.1-0.1-2.3,0-3.4,0.2c-1.1,0.2-2.2,0.4-3.3,0.8c-2.2,0.7-4.2,1.8-6,3.2c-1.8,1.4-3.2,3.3-4,5.4c-0.8,2.1-1,4.5-0.6,6.7
				c0.2,1.1,0.5,2.2,1,3.2c0.3,0.5,0.6,1,1,1.4c0.4,0.4,0.9,0.7,1.4,1c1,0.5,2.2,0.6,3.3,0.4c1.1-0.2,2.2-0.5,3.2-1
				c-1,0.5-2.1,0.9-3.2,1.1c-1.1,0.2-2.3,0.1-3.4-0.4c-0.5-0.2-1-0.6-1.4-1c-0.4-0.4-0.7-0.9-1-1.4c-0.5-1-0.9-2.1-1-3.2
				c-0.4-2.2-0.2-4.6,0.6-6.8c0.8-2.1,2.2-4,4-5.5c1.8-1.5,3.8-2.5,6-3.2c1.1-0.3,2.2-0.6,3.3-0.8c1.1-0.2,2.3-0.2,3.4-0.2
				c2.3,0.1,4.5,0.9,6.4,2.2c0.9,0.6,1.8,1.4,2.5,2.3C505.3,245.8,505.9,246.7,506.4,247.8z"/>
		</g>
	</g>
	<g class="st58">
		<polygon class="st59" points="183.1,336.9 195.8,332.8 200.7,347.3 		"/>
		<polygon class="st59" points="152.8,322.4 151,328.3 162.8,322.4 		"/>
		<polygon class="st59" points="162.8,354.5 154.6,367.6 175.9,369.4 		"/>
		<polygon class="st59" points="142.4,389.3 146,380.7 151,387 		"/>
		<polygon class="st59" points="171.8,383.4 175.9,373.5 178.1,380.7 		"/>
		<polygon class="st59" points="190.3,406.9 185.4,396.5 190.3,396.5 		"/>
		<polygon class="st59" points="152.8,426.8 161.4,418.2 162.8,425.5 		"/>
		<polygon class="st59" points="163.7,400.6 162.8,404.7 168.6,402.4 		"/>
	</g>
	<path class="st24" d="M529,302.2c0.4,12.1-12.1,13.7-12.1,13.7l-14.5,2.3l-4,0.6l-5.3-15.8l6.9-3l17.8-7.7
		C517.8,292.4,528.7,290,529,302.2z"/>
	<g>
		<g>
			<g>
				<path class="st60" d="M461.1,340.9l-25,1l-15.8,0.6l-160.1,6.4l-2.2,0.1l-3.6,0.1l-16.2,0.6l-3.6,0.1c-0.9,0-1.7,0.3-2.4,0.8
					c-0.9,0.6-1.6,1.5-1.9,2.5c-0.2,0.6-0.3,1.2-0.2,1.8c0.3,3.2,0.6,6.5,1.1,9.7c0.1,0.6,0.2,1.2,0.3,1.8c0.3,2.2,0.7,4.3,1.1,6.5
					c0.1,0.6,0.2,1.2,0.4,1.9c1.9,9.2,4.4,18.3,7.6,27.3v0l201.1,23.9c2,0.2,3.9-0.8,4.8-2.6c12-24.6,19.6-51.2,19.6-77.4v-0.4
					C466,343,463.8,340.8,461.1,340.9z"/>
			</g>
			<g>
				<path class="st60" d="M460.6,340l-24.6-1.2l-15.9-0.8L235.6,329c-2.8-0.1-4.9-2.7-4.4-5.5c9.5-54.5,61.5-95.9,116.6-95.9
					c47.7,0,91.8,29.7,109.8,73.9c4.4,10.8,7,22.1,8,33.4C465.8,337.7,463.5,340.1,460.6,340z"/>
			</g>
			<g>
				<path class="st60" d="M255.6,420.1l181.2,7.5c3.5,0.1,5.6,3.9,3.9,7c-11.1,20-24.9,38.4-39.3,53.4c-0.9,0.9-2.1,1.4-3.4,1.4
					H297.7c-1.3,0-2.5-0.5-3.4-1.4c-16.7-17.4-31.7-38.3-43.1-61.1C249.6,423.7,252,419.9,255.6,420.1z"/>
			</g>
		</g>
	</g>
	
		<ellipse transform="matrix(0.2298 -0.9732 0.9732 0.2298 101.9148 730.585)" class="st42" cx="512.5" cy="300.9" rx="8.6" ry="8.6"/>
	
		<ellipse transform="matrix(0.2298 -0.9732 0.9732 0.2298 73.7335 739.2899)" class="st42" cx="503.9" cy="323.1" rx="11.3" ry="11.3"/>
	<path class="st42" d="M489.9,305.4c0,3-2.4,5.4-5.4,5.4c-1.6,0-3-0.7-4-1.8l2.2-0.9l0-2.5l-3.4,1.1c-0.1-0.4-0.2-0.9-0.2-1.3
		c0-3,2.4-5.4,5.4-5.4C487.5,300,489.9,302.4,489.9,305.4z"/>
	<g>
		<linearGradient id="SVGID_5_" gradientUnits="userSpaceOnUse" x1="272.0961" y1="421.4441" x2="445.6195" y2="336.0743">
			<stop  offset="0" style="stop-color:#FFFFFF"/>
			<stop  offset="1" style="stop-color:#F8D660"/>
		</linearGradient>
		<path class="st61" d="M450.9,347.8v0.4c0,23.8-6.4,48-16.5,70.3c-0.7,1.6-2.4,2.6-4,2.4l-169.2-21.7v0c-2.7-8.1-4.9-16.4-6.4-24.8
			c-0.1-0.6-0.2-1.1-0.3-1.7c-0.3-2-0.7-3.9-0.9-5.9c-0.1-0.5-0.2-1.1-0.2-1.6c-0.4-2.9-0.7-5.9-0.9-8.8c0-0.6,0-1.1,0.2-1.6
			c0.3-0.9,0.9-1.8,1.6-2.3c0.6-0.4,1.3-0.7,2-0.7l3.1-0.1l13.7-0.6l3-0.1l1.9-0.1l134.7-5.8l13-0.6l15.8-0.7l5.5-0.2
			C449,343.4,450.9,345.4,450.9,347.8z"/>
		<linearGradient id="SVGID_6_" gradientUnits="userSpaceOnUse" x1="261.144" y1="347.8386" x2="420.9685" y2="269.2084">
			<stop  offset="0" style="stop-color:#FFFFFF"/>
			<stop  offset="1" style="stop-color:#F8D660"/>
		</linearGradient>
		<path class="st62" d="M440.4,335.5c-0.2,0-0.4,0-0.5,0l-15.5-0.8l-5-0.2l-13.2-0.7l-153.4-7.6c-2.3-0.1-4.1-2.3-3.7-4.6
			c7.9-45.9,51.1-80.9,96.9-80.9c39.7,0,76.3,25,91.3,62.3c3.7,9.1,5.8,18.6,6.6,28.2C444.1,333.4,442.5,335.3,440.4,335.5z"/>
		<linearGradient id="SVGID_7_" gradientUnits="userSpaceOnUse" x1="290.891" y1="480.3804" x2="420.2812" y2="416.7232">
			<stop  offset="0" style="stop-color:#FFFFFF"/>
			<stop  offset="1" style="stop-color:#F8D660"/>
		</linearGradient>
		<path class="st63" d="M426.6,434.1l-154.9-7.1c-3.1-0.1-5.2,3.4-3.8,6.4c9.7,21.5,22.6,41.4,36.8,57.8c0.8,0.9,1.8,1.4,2.9,1.4
			h85.7c1.1,0,2.1-0.5,2.9-1.4c12.4-14.3,24.2-31.6,33.6-50.6C431.4,437.9,429.6,434.3,426.6,434.1z"/>
	</g>
	<path class="st64" d="M339.7,491.5l2-170.3c0-2.3-1.8-4.2-4.2-4.2h0c-2.3,0-4.2,1.9-4.2,4.2v0.1c0,2.3,1.9,4.2,4.2,4.2h25.7
		c2.3,0,4.2-1.9,4.2-4.2v-0.1c0-2.3-1.9-4.2-4.2-4.2h-0.6c-2.3,0-4.2,1.9-4.2,4.2v175.1"/>
	<g>
		<g>
			<path class="st65" d="M367.1,562.2c0.4,0,0.4-0.7,0-0.7C366.7,561.6,366.7,562.2,367.1,562.2L367.1,562.2z"/>
		</g>
	</g>
	<path class="st66" d="M406.1,506.8H293.2c-1.1,0-2-0.9-2-2v-17c0-1.1,0.9-2,2-2h112.9c1.1,0,2,0.9,2,2v17
		C408.2,505.9,407.3,506.8,406.1,506.8z"/>
	<path class="st10" d="M406.4,527.8H293.4c-1.1,0-2-0.9-2-2v-17c0-1.1,0.9-2,2-2h112.9c1.1,0,2,0.9,2,2v17
		C408.4,526.9,407.5,527.8,406.4,527.8z"/>
	<path class="st43" d="M408.6,538.3c0,1.7-0.4,3.2-1.1,4.7c-0.5,1-1.2,2-2,2.8c-0.1,0.1-0.2,0.2-0.3,0.3c-1.9,1.7-4.4,2.8-7.1,2.8
		h-95.9c-2.7,0-5.1-1-7-2.7c-1.1-0.9-1.9-2.1-2.5-3.4c-0.6-1.4-1-2.9-1-4.5c0-2.9,1.2-5.5,3.1-7.4c1.9-1.9,4.5-3.1,7.4-3.1h95.9
		C403.9,527.8,408.6,532.5,408.6,538.3z"/>
	<path class="st57" d="M408.6,538.3c0,1.7-0.4,3.2-1.1,4.7c-0.7,1-1.5,2.1-2.3,3.1c-12.9,16.2-33,25.3-55.3,25.3
		c-22.3,0-41.8-9-54.7-25.2c-0.9-1.1-1.7-2.2-2.5-3.4c-0.6-1.4-1-2.9-1-4.5c0-2.9,1.2-5.5,3.1-7.4c1.9-1.9,4.5-3.1,7.4-3.1h95.9
		C403.9,527.8,408.6,532.5,408.6,538.3z"/>
	<path class="st25" d="M445.5,314.3c0.3-0.1,0.6-0.1,0.8,0l0.2,0.1l3.5,1.6l4.5,2.1c1,0.5,2.1,0.6,3.2,0.4l0,0l1.8-0.4l2.1-0.4
		l1.8,5.1l-0.8,0.2l-3.1,0.8l-0.1,0l-7,3.7c-1.4,0.7-3.1,0.8-4.6,0.3l-6.4-2.5c-1.1-0.4-1.9-1.4-2.2-2.5l-0.1-0.5l-0.4-1.5l-0.3-1.2
		c-0.2-0.7,0.4-1.3,1-1.2l1.3,0.1c0,0,7.8,1.9,9.1,0.8l-4.4-3.3C444.8,315.5,444.9,314.6,445.5,314.3L445.5,314.3z"/>
	<path class="st25" d="M278.9,364l-0.5,1.9l-0.6,2.3l-0.2,0.7c-0.5,1.8-1.7,3.2-3.4,3.9l-7.2,2.8l-2.8,1.1c-2.3,0.9-4.9,0.8-7.2-0.4
		l-10.9-5.7l-0.2-0.1l-1-0.3l-3.8-1l-1.2-0.3l0.6-1.8l2.1-6.1l0-0.1l1.5,0.3l0.6,0.1l1.3,0.2l2.9,0.6c1.7,0.3,3.4,0.1,4.9-0.6l7-3.2
		l5.4-2.5l0.3-0.1c0.4-0.2,0.9-0.2,1.3,0c1,0.5,1.1,1.8,0.2,2.5l-6.8,5.1c2.1,1.7,14.2-1.2,14.2-1.2l2-0.2
		C278.3,362.1,279.2,363,278.9,364z"/>
	<g>
		<g>
			<path class="st25" d="M245.7,370.2c-0.3,0-0.5,0.1-0.8,0.1c-16.6,2.6-37.5,0.1-54.8-3.7c-0.2,0-0.4-0.1-0.6-0.1
				c-7.3-1.6-14.1-3.5-20.2-5.6c-1.8-0.6-3.4-1.2-5.1-1.8c-5.9-2.2-9.9-4.4-12.5-6.6c-1-1.2-1.9-2.6-2.6-4.2
				c-0.8-1.9-1.4-4.1-1.5-6.6c0,0,0-0.1,0-0.2c0.4-2.2,1.2-4.4,1.9-6.8c0.5-1.6,0.8-3.4,1.1-5.1c0-0.1,0-0.2,0-0.3
				c0.2-0.3,0.5-0.5,0.7-0.7c4.9-4.6,12.3-3,12.3-3l16.8,7.3c6,3.9,12.5,7.9,19.3,11.6c0.4,0.2,0.7,0.4,1.1,0.6
				c13.1,7,27.2,13.5,41.7,15.9c0.5,0.1,1,0.2,1.5,0.2c0.2,0,0.4,0.1,0.6,0.1l0,0l0.9,7.9L245.7,370.2z"/>
		</g>
	</g>
	<path class="st25" d="M460.1,318.1l57.7-25.7c0,0,10.9-2.4,11.2,9.8s-12.1,13.8-12.1,13.8l-57.3,7.6"/>
	<path class="st24" d="M498.4,318.9l18.6-3c0,0,12.5-1.6,12.1-13.8s-11.2-9.8-11.2-9.8l-24.7,10.7L498.4,318.9z"/>
	<g>
		<g class="st34">
			<path d="M529,302.2c0.4,12.1-12.1,13.7-12.1,13.7l-14.5,2.3c-0.4-0.5-0.8-1-1.2-1.5c-4.4-5.5-3.5-11.4-1.2-16.7l17.8-7.7
				C517.8,292.4,528.7,290,529,302.2z"/>
		</g>
	</g>
	<g class="st68">
		<path class="st5" d="M433.9,335.5c-0.2,0-0.4,0-0.5,0l-15.5-0.8c-1.7-11.3-4.9-21.9-9.4-31.4c-9.7-20.3-22.5-29.4-22.6-29.5
			c-3.6-2.4-4.5-7.3-2.1-10.9c2.4-3.6,7.3-4.5,10.9-2.1c0.6,0.4,15.8,10.9,27.4,34.6C428,307.7,432,321.1,433.9,335.5z"/>
		<path class="st5" d="M428.4,408.3c-0.9,3.5-3.9,5.8-7.3,5.9c-0.7,0-1.5-0.1-2.2-0.2c-4.2-1.1-6.8-5.3-5.7-9.5
			c5.4-21.5,7.3-41.7,5.8-60.1l15.8-0.7C436.3,363.6,434.2,385.4,428.4,408.3z"/>
	</g>
	<path class="st42" d="M490.8,342.5c0,2.9-1.7,5.3-4.1,6.5c-1,0.5-2,0.7-3.1,0.7c-0.3,0-0.6,0-1-0.1v-0.1l0-14.2
		c0.3,0,0.6-0.1,0.9-0.1c3.8,0,7,3,7.2,6.7C490.8,342.2,490.8,342.3,490.8,342.5z"/>
	<circle class="st42" cx="506.6" cy="356.1" r="3.6"/>
	<path class="st42" d="M544.4,353.1c-4.2-4-7-11.7-7-20.6c0-4.4,0.7-8.5,1.9-12C541.6,330.7,544,342.8,544.4,353.1z"/>
	<path class="st69" d="M188.8,261.4c-1.8,1.4-3.8,2.3-5.9,3c-4.1,1.2-8.3,0.6-11.8,3.6c-4.9,4.1-5.3,10.7-3.5,16.4
		c-0.1,0-0.3,0.1-0.4,0.1l-0.7-0.4c-1.1-0.7-2.7-0.3-3.2,1c-0.2,0.5-0.4,1.1-0.4,1.6c0,0.2,0,0.4,0,0.6l-0.1,0.1
		c0,0-1.6-10-0.9-18.2c0.5-5.1,4.8-8.9,9.9-8.7C176.7,260.5,183.3,261.2,188.8,261.4z"/>
	<path class="st26" d="M162.9,287.2c0.1,0.6,0.3,1.1,0.6,1.6c0.1,0.1,0.2,0.3,0.3,0.4l4.3,4.8c0.5,2.1,3.4,4.7,6.3,6.9
		c0,0,0,0,0.1,0c0,0,0,0,0,0c-0.8-5.1-6.2-14.8-7.2-16.5l-0.3,0.1l-0.7-0.4c-1.1-0.7-2.7-0.3-3.2,1c-0.2,0.5-0.4,1.1-0.4,1.6
		C162.8,286.8,162.9,287,162.9,287.2"/>
	<path class="st5" d="M174.2,329.5c-2.4,3.1-5.1,6.1-7,9c-3.8,5.8-8.4,12.3-8.6,19.4c0,0-0.1,0-0.1-0.1c-0.3-0.1-0.6-0.3-0.8-0.5
		c-0.1-0.1-0.3-0.2-0.4-0.2c-1.9-1.1-3.9-2.6-5.5-4.6c-1-1.2-1.9-2.6-2.6-4.1c-2.7-6.1-2-15.5,3-20.3c3.1-3,7.6-3.8,11.7-2.9
		c2.7,0.6,5.2,1.8,7.7,3C172.5,328.6,173.3,329,174.2,329.5z"/>
	<path class="st51" d="M174.2,329.5c-2.4,3.1-5.1,6.1-7,9c-3.8,5.8-8.4,12.3-8.6,19.4c0,0-0.1,0-0.1-0.1c-0.3-0.1-0.6-0.3-0.8-0.5
		c-0.1-0.1-0.3-0.2-0.4-0.2c-1.9-1.1-3.9-2.6-5.5-4.6c-1-1.2-1.9-2.6-2.6-4.1c-2.7-6.1-2-15.5,3-20.3c3.1-3,7.6-3.8,11.7-2.9
		c2.7,0.6,5.2,1.8,7.7,3C172.5,328.6,173.3,329,174.2,329.5z"/>
	<path class="st5" d="M201.1,344.9l-0.1,0.3l-1.2,2.4l-7,13.9c0,0-3,5.9-3,5.9l0,0l-20.9-6.1l-1.1-0.3l-4.1-1.1c0,0-1.3-0.3-3.1-1.1
		c-0.1,0-0.1-0.1-0.2-0.1c-0.1-0.1-0.3-0.1-0.4-0.2c-0.4-0.2-0.8-0.4-1.3-0.6c0.1-3.1,1-6,2.3-8.9l0,0c1.7-3.8,4.1-7.3,6.3-10.6
		c1.9-2.8,4.6-5.8,7-9C183.4,334.2,192.2,339.6,201.1,344.9z"/>
	<path class="st70" d="M164.1,343.3c-0.3,0.5-0.6,0.9-0.9,1.4C163.5,344.2,163.7,343.7,164.1,343.3z"/>
	<path class="st26" d="M190.1,366.7c7.4,1.6,15,2.9,22.5,3.7c6,0.7,12,1.1,18,1c2.9,0,5.7-0.1,8.6-0.4c2.6-0.2,5.5-1.2,7.9,0.1
		c2.3,1.2,4.6,2.5,6.9,3.7c1.8,1,3.7,2,5.8,2.3c2.5,0.4,5-0.3,7.2-1.5c0-1-0.7-1.9-1.6-2.5c-0.9-0.5-1.9-0.7-2.9-0.8
		c-2.1-0.2-4.1,0-6.2-0.3c-2.2-0.4-4.3-1.3-6.4-2.1c-2.3-0.9-4.7-1.6-7.1-2.1c-6.1-1.4-12.3-2-18.4-2.9c-6.3-0.9-12.5-1.8-18.8-2.3
		c-4.3-0.4-8.6-0.8-12.9-1.1L190.1,366.7z"/>
	<path class="st70" d="M156.5,353.6c0.2,0.1,0.5,0.3,0.7,0.4C157,353.9,156.8,353.7,156.5,353.6z"/>
	<path class="st70" d="M192.7,361.5c-0.2,0.3-2.2,4.3-2.9,5.8l-20.9-6.1l-1.1-0.3l-4.1-1.1c0,0-1.3-0.3-3.1-1.1
		c-0.1,0-0.1-0.1-0.2-0.1c-0.1-0.1-0.3-0.1-0.4-0.2c-0.4-0.2-0.8-0.4-1.3-0.6c0.1-3.1,1-6,2.3-8.9l0,0c0.5-1,1.1-2,1.7-3
		c-3.5,7.4,7.5,12.3,13.7,13.8c4,0.9,8.2,1.1,12.2,1.4C188.9,361.2,192.4,361.8,192.7,361.5z"/>
	<path class="st11" d="M511,257.1c-5.1-1.9-9.9-11.2-9.9-11.2s-2.6,5.6-12.9,4.7c-4.7-0.4-5.6-3-5.1-5.7c0.7-0.5,1.4-0.9,2.1-1.2
		c1.4-0.7,2.9-1.2,4.4-1.6c6.3-1.6,11.8-2.1,16.6,2.7c2.7,2.7,4,6.7,4.5,10.4C510.9,255.8,511,256.5,511,257.1z"/>
</g>
</svg>
