<?xml version="1.0" encoding="utf-8"?>
<!-- Generator: Adobe Illustrator 24.2.0, SVG Export Plug-In . SVG Version: 6.00 Build 0)  -->
<svg version="1.1" id="图层_1" xmlns="http://www.w3.org/2000/svg" xmlns:xlink="http://www.w3.org/1999/xlink" x="0px" y="0px"
	 viewBox="0 0 700 700" style="enable-background:new 0 0 700 700;" xml:space="preserve">
<style type="text/css">
	.st0{clip-path:url(#SVGID_2_);}
	.st1{clip-path:url(#SVGID_4_);}
	.st2{fill:#FFFFFF;}
	.st3{fill:#050F64;}
	.st4{fill:#155BCD;}
	.st5{fill:#84A9FF;}
	.st6{fill:#E5E6EB;}
	.st7{fill:#F5BDC8;}
	.st8{fill:#F5B48E;}
	.st9{fill:#FF654F;}
	.st10{fill:#FFBD00;}
	.st11{fill:#DCA000;}
	.st12{fill:#FEBD1D;}
	.st13{fill:#FFD45B;}
	.st14{fill:#D6A02F;}
	.st15{fill:#E4A218;}
	.st16{opacity:0.1;}
	.st17{fill:#0C9197;}
	.st18{fill:#F9E288;}
	.st19{opacity:0.2;}
	.st20{fill:#F4BCC7;}
	.st21{fill:#EA8096;}
</style>
<g>
	<g>
		<defs>
			<rect id="SVGID_1_" x="20" y="74.7" width="629.7" height="550.6"/>
		</defs>
		<clipPath id="SVGID_2_">
			<use xlink:href="#SVGID_1_"  style="overflow:visible;"/>
		</clipPath>
		<g class="st0">
			<g>
				<defs>
					<circle id="SVGID_3_" cx="350" cy="383.4" r="292.5"/>
				</defs>
				<use xlink:href="#SVGID_3_"  style="overflow:visible;fill:#E5E6EB;"/>
				<clipPath id="SVGID_4_">
					<use xlink:href="#SVGID_3_"  style="overflow:visible;"/>
				</clipPath>
				<g class="st1">
					<g>
						<path class="st2" d="M455.8,500.1c0-1.4-0.3-2.9,0.1-4.2c0.7-2.3,2.9-4.5,3.1-6.9c0-0.4,0.1-1.3,0-1.7c-0.1-0.5-0.3-0.6-0.6-1
							c-1-1.4-2.3-2.6-3.3-3.9c-2-2.5-3.9-5.2-4.8-8.3c-0.6-2.1-0.4-3.2,1.1-4.6c1.5-1.4-1-3.8,0.1-5.7c1.4-2.5,4.2-3.8,5.5-6.4
							c1.1-2.2,1.2-4.3,1.2-6.8c0-2.7,0-5.4,0.3-8c0.3-3.2,1.5-4.3,4.1-6.2c1.3-1,1.5-1.1,1.4-2.6c-0.1-1.7-0.1-3.3,0.3-4.9
							c0.6-2.1,1.5-4.3,3.1-5.8c1.9-1.7,2.3-5,2.8-7.4c0.3-1.4,0.4-2.3,1.4-3.3c0.9-0.9,1.3-1.9,1.8-3.1c1.9-5.2,2.7-10.5,4-15.7
							c0.5-2,1.2-3.8,2-5.7c0.4-1,1.4-4.7,2.6-5.2c0.6-0.3,1.2,0,1.8-0.3c1.9-0.9,2.9-4.2,5-4.6c0.8-0.2,1.6,0.5,2.3,0.7
							c1.2,0.4,1.7,0.1,2.7-0.7c1.9-1.5,3.9-3.4,5.4-5.3c1.5-1.9,3.5-3.1,5.3-4.8c1.4-1.3,2.8-2.7,4.2-4c0.4-0.4,2.9-3,4-3.6
							c1.1-0.5,1,0.1,1.8,0.6c2.9,1.8,4.9-4.7,6.7-5.9c0.2-0.2,0.7-0.1,0.9-0.3c0.8-0.5,1.3-2.1,1.6-3c0.6-1.5,0.7-3.8,2.3-2
							c1,1.2,1.5,2.8,2,4.3c0.3,0.7,0.8,3.7,1.5,4.1c0.6,0.4,1.1,0.2,1.9,0.3c2.8,0.4,4.3,2.8,7,3.5c2.7,0.7,5.6-1.2,7.7-2.7
							c1.1-0.7,2.3-2.1,3.8-1.8c1.8,0.3,3.6,2,5.1,2.9c1.7-0.7,2.4-2.7,3.6-4c1.1-1.3,1.5-2.4,2.2-4c1.5-3.8,1.5-8.6,4.4-11.7
							c1-1.1,1.9-1.5,3.3-2.2c2.3-1.1,4.5-2.5,6.8-3.6c2.6-1.2,6.6-1.9,8.8-4c1.3-1.2,0.9-3.9,0.9-5.4c0-3.7-0.3-7.5,0-11.1
							c0.1-0.9,0.4-1.7,0.5-2.6c0.2-2.6-0.8-5.5-1.2-8c-0.4-2.1-0.4-4.7-1.9-6.3c-1.3-1.5-2.5-0.3-4,0.6c-2,1.2-4.2,2.3-6.1,3.7
							c-1,0.8-2.1,2.4-3.3,2.9c-1,0.4-2.5,0-3.6,0.1c-1.5,0-2.9,0-4.4-0.4c-3.6-1.2-6.9-5.5-6.8-9.3c0-0.6-0.1-1.3,0-1.9
							c0-1.6,0.8-2.9,1-4.5c0.2-1.9,0.2-4.7-0.1-6.5c-0.4-2.2-1-4.8-1.7-6.9c-0.4-1.3-1.1-2.5-0.9-3.9c0.4-3.1,3.5-2.6,5.7-2
							c1.4,0.4,5.4,1.7,6.3-0.1c0.6-1.3,0.6-3.1,0.6-4.5c0-2.5,0-4.8-1-7.2c-1.4-0.2-2,1.8-3.3,2.2c-1.9,0.5-5,0-6.9,0
							c-2,0-3.9,0.1-5.9,0c-1,0-2.2,0.1-3.1-0.6c-1.2-0.9-2-2.9-2.8-4.2c-0.3-0.5-0.9-2.3-1.6-2.5c-0.6,2.5,0,5.5,0,8.1
							c0,1.4-0.3,2.7-0.5,4c-0.1,0.9-0.2,1.7-0.3,2.5c-0.2,0.9-0.2,1.8,0,2.7c0.3,1.4,0.4,2.5,0.3,4c0,1.3-0.2,3.1,0.4,4.3
							c0.4,0.7,0.9,1.2,1.8,1.3c0.7,0.5,1.3,1.1,1.7,1.8c0.5,0.6,1.2,1.3,1.4,2.1c0.6,1.5,0.2,3.3,0.7,4.8c0.4,1,1.1,1.6,1.6,2.4
							c0.8,1.3,0.4,3.4,0.4,4.9c0,2.4,0,4.9,0,7.3c0,1.5-0.1,3.2,0.3,4.6c0.3,1,0.6,1.5,0.6,2.5c0,0.8-0.2,1.7,0.1,2.4
							c0.6,1.3,2.2,2.4,3.3,3.2c0.9,0.6,3.8,2.6,2.7,4c-0.7,1-5.1,0.4-5.6,0.3c-3-0.2-4.2-0.5-6.3-2.6c-2.3-2.4-4.1-5.2-6.3-7.8
							c-0.9-1.2-2-2.3-3.2-3.2c-0.4-0.3-0.7-0.6-1.1-0.9c-0.8-0.2-1.1,0.6-1.7,0.8c-0.5,0.2-1.2,0.1-1.8,0.1c-3.4,0-6.8-0.3-10,0.7
							c-2.3,0.7-4.5,1.9-6.5,3.2c2.1,2.8,6.7,5.2,10.3,5.5c3.4,0.3,7.2,0.9,10.2,2.7c1.6,1,2.6,2.5,3.3,4.2c0.7,1.8,0.3,3.4,0.6,5.2
							c0.3,2.3,1.8,4.4,1.9,6.7c-2.9-1.1-5.8-2.6-8.2-4.6c-2.5-2.1-4.6-5.5-6.7-8.1c-0.4-0.5-2.1-2.9-3.3-2.7
							c-0.9,0.1-1.6,1.5-2.1,2c-2.2,2.3-3.9,2.7-6.8,1.3c-1.5-0.7-2.9-1.6-4.3-2.5c-0.8-0.6-2.1-1-2.2-2.1
							c-2.7,2.8-4.3,6.9-5.7,10.5c-0.7,1.9-1.7,3.7-2.4,5.5c-0.3,0.8-0.4,1.1-0.2,2c0.2,1,0.8,1.9,1.1,2.9c0.5,1.3,0.6,2.9,0.5,4.2
							c-0.2,2.1-1.3,2.8-2.3,4.5c-0.6,1-0.5,1.9-0.5,3.1c0.1,2.6,0,5.1,0,7.7c0,2.4,0.4,5.1,0.1,7.4c-0.4,2.8-4.1,4.2-6.3,5.4
							c-1.3,0.7-3,0.6-4.5,0.9c-3.2,0.5-5.5,2.4-8.2,4c-0.9,0.5-1.4,1.6-2.3,1.8c-3.4,1-7.1-3.2-8.9-5.4c-2.2-2.8-4.2-6.1-5.4-9.4
							c-0.6-1.8-0.5-3.5-0.5-5.3c0-2.1,0-4.2,0-6.3c0-1.5-0.6-3.3,1.2-3.7c2.4-0.5,5.4-0.2,7.5-1.8c2.2-1.7,4.1-3,6.7-4.2
							c1.4-0.6,2.8-1.3,4.1-1.9c1.4,0,2.3-0.6,2.9-1.6c-1.3-0.6-2.5-1.2-3.7-1.9c-1.6-1-2.4-2.6-3.5-4.1c-1.8-2.5-2.3-6.1-2.9-9.1
							c-0.3-1.5-0.2-3.1-0.2-4.6c0-1.5-0.3-2.3-1-3.7c-1.3-2.6-2-6-2.1-8.8c-0.2-3.2-0.2-6.5,0-9.7c0.1-1.7,0.5-3.4,1.4-4.9
							c0.9-1.6,2.3-2.6,3.4-4c0.3-0.4,0.5-0.8,0.7-1.2c0.5-0.8,1.2-1.1,2.2-1.6c1.5-0.7,3.3-1.1,4.5-2.4c0.3-0.3,0.5-0.8,0.8-1.1
							c0.7-0.8,2-1.3,2.7-2c0.4-0.5,0.4-1.3,0.2-2c-0.4-1.6-2.3-2.3-2.3-4.1c0-0.9,0.5-1.7,0.9-2.5c0.8-1.2,1.4-2.4,2.1-3.7
							c0.7-1.2,1.3-1.8,2.4-2.6c0.7-0.5,1.7-1,2.2-1.7c-0.7-0.6,1.5-4.3,1.4-4.9c-0.5-2.3-1.3-4.6-2.3-6.8c-1.1-2.6-2.5-4.8-4.6-6.7
							c-2.6-2.4-6.1-3.7-8.8-5.9c-1.4-1.1-2.5-2-2.7-3.9c-0.2-1.8-0.2-3.8,0.2-5.7c0.2-1.2,0.7-1.8,0.7-2.9c0-0.9-0.3-1.8-0.4-2.7
							c-0.1-1,0-1.8-1.2-2.3c-1.2-0.6-2.2,0.2-3.3,0.6c-2.9,1-5.2,1.8-8.4,1.5c-2.6-0.3-4.6-1.9-6.5-3.5c-0.7-0.6-1.6-1.8-2.6-1.9
							c-0.5,0.6-0.4,1.4-0.5,2.1c-0.1,3.8,1.8,7.2,3.6,10.3c2,3.4,5.4,6.1,7,9.7c0.5,1.2,0.6,2.7,0.6,3.9c0,2.8,0.2,4.5,2.3,6.8
							c1.1,1.2,2.3,2.3,3.7,3.1c0.9,0.4,1.7,1.1,2.2,1.9c0.3,0.7,0.1,0.9,0.2,1.6c0.1,0.5,0.4,0.8,0.7,1.3c0.7,1.5,0.5,3.7-0.7,4.9
							c-1.4,1.3-4.2,1.3-5.8,1.1c-3.8-0.4-7.8-1.7-11.3-3.2c-2.8-1.3-5.3-2.8-7-5.5c-1.4-2.1-1.9-3.8-2.2-6.2
							c-0.3-2.2-1.2-4.4-1.3-6.7c0-0.7,0.2-1.4,0-2.2c-0.3-2.2-2.8-5.5-3.7-7c-2-3.5-4.3-7-6.1-10.7c-2.1-4.1-1.7-8.2-1.8-12.7
							c0-2.2-0.5-5,0.2-7.1c0.7-2.3,2.7-4.1,3.8-6.2c0.3-0.6,0.2-1.3,0.5-1.8c0.5-0.8,2-0.4,2.8-0.4c1.4,0,3.1,0,4.4-0.6
							c0.5-0.2,1-0.5,1.5-0.7c0.8-0.2,1.8-0.3,2.7,0c1.4,1.1,2.8,2.4,4.2,3.6c1.2,0.9,2.5,1.8,3.7,2.7c1.4,0.9,3.1,2.2,4.8,1.4
							c1.2-0.6,1.8-1.7,2.8-2.4c3.8-2.4,6.9,4.2,8.3,6.7c-0.4-3.8-1.2-7.5-2-11.2c-0.8-3.7-1.2-7.9-2.9-11.4c-0.5-1.1-1.2-2.4-2-3.2
							c-1.6-1.7-4.2-2.6-6-4.1c-1.3-1.1-2.4-2.2-3.4-3.5c-1.1-1.4-2.6-2.4-4-3.4c-3.7-2.6-8.4-4.2-12.5-6c-1.7-0.7-5.6-2.1-7.4-3.6
							c-1.9-1.5-2.6-4.1-4.4-5.7c-1.1-1-2.4-0.4-3.9-0.5c-1.8-0.1-3.4-1.2-4.8-2.2c-2.2-1.6-4.3-2.9-6.6-4.3c-2-1.1-4-2.3-6-3.4
							c-0.9-0.5-2-0.2-3.1-0.6c-0.4-0.2-0.8-0.5-1.2-0.7c-0.8-0.4-1.8-0.5-2.6-0.8c-1.4-0.5-2.6-1.2-4-1.7c-1.7-0.6-3.6-1-5.4-1.4
							c-4-0.9-8-1.3-12-2.4c-1.3-0.4-1.9-1-3.1-1.6c-1.3-0.6-1.9-1.4-2.6-2.7c-0.5-1-1.2-1.9-1.8-2.9c-1-1.9-1.5-4.3-3.8-4.7
							c-3.9-0.7-8-2-11.9-2.2c-2.5-0.1-6,0.8-8-1c-1.8-1.6-2.9-5.7-5.9-5.3c-1.8,0.2-3.5,1.9-5.2,2.7c-1.7,0.7-3.2,1.3-4.9,1.6
							c-2.4,0.5-4.7,1.3-7,2.1c-2.2,0.8-5.2,2.8-7.6,2.7c-3.3-0.1-5.9-1.8-8.8-3c-2.4-0.9-5.4,0.1-7.6,1c-1.2,0.5-2.7,1.6-4,1.8
							c-0.3,0.1-0.7-0.1-1,0c-1.6,0.2-3.3,1.2-4.8,1.6c-4.5,1.2-8.5,4.1-13,5.1c-1.1,0.2-2.3,0.1-3.5,0.1c-2.2,0-4.4,0-6.6,0
							c-1.9,0-3.6,0.2-4.9-1.3c-1-1.1-0.9-2.3-0.8-3.6c0-2.9,0.3-6-0.1-8.9c4.7-2,10.3-1.6,15-3.9c2.9-1.4,5.9-2.3,8.8-3.6
							c2.6-1.2,4.9-2.7,7.3-4.2c0.9-0.6,3.9-2.5,3.8-3.8c-0.2-3.3,6.3-4.7,8.9-6.1c8.1-4.4,16.9-8.5,26-10.3
							c3.9-0.7,9.3-1.4,13.1,0.4c2.2,1,4.1,2.4,6.3,3.3c6.2,2.5,12.7,4.2,19.4,3.8c4.5-0.2,9.2-0.4,13.5-1.8c1.9-0.6,3.7-1.3,5.6-2
							c4.2-1.5,8.6-2.2,13-3.1c4.3-0.8,8.3-0.7,12.7-0.7c4.3,0,8.5-0.3,12.8,0.1c5.7,0.5,11.2,2.3,16.9,3c7.2,0.8,14.5,0.4,21.7,1.3
							c5.5,0.8,10.8,2.2,16.2,3.3c2.1,0.4,4.3,0.8,6.4,1.3c1.8,0.4,4,0.6,5.7,1.6c1.9,1.1,3.7,2.3,5.5,3.7c0.1,1.1,3.2,1.5,3.9,2.3
							c2.6,3,5.6,5.4,8.7,7.8c9,7,18.9,12.9,27.9,20c10.9,8.6,20.7,18.6,30,28.9c16.3,18.2,32.7,37.3,44.8,58.5
							c9.9,17.2,15.3,36.6,24,54.4c3.9,8,8,15.9,12.8,23.4c4.4,6.9,9.3,13.4,13.6,20.4c6.6,10.7,11.5,22.5,14.6,34.7
							c4,15.6,9.1,30.9,12.4,46.6c2.2,10.3,5.7,20.6,5.6,31.3c-0.2,11.2-2.2,22.6-4.8,33.5c-1.5,6.5-3.4,12.9-4.9,19.4
							c-1.7,7.6-3.3,15.1-5.9,22.5c-2.6,7.3-6,14.5-9.1,21.6c-1.9,4.4-3.6,9.1-6.1,13.2c-1.7,2.8-3.8,5.1-5.8,7.7
							c-2.9,3.7-5.4,7.7-8.4,11.3c-11.6,13.9-26.5,24.8-40,36.7c-5.3,4.7-10.8,9.2-16,14.1c-2.5,2.4-5.2,4.6-7.9,6.8
							c-1.1,0.9-3,3-4.6,3.1c-0.7,0-1.8-0.5-2-0.9c-0.6-1.6-1.4-3.2-2.2-4.7c-1.1-2.1-2.6-4.2-4.1-6.1c-0.7-0.9-1.4-1.7-2.5-2.2
							c-1.9-0.7-4-0.4-6-0.4c-1.2,0-3.4-0.4-4.6,0.1c-0.6-0.8-0.3-2.8-0.3-3.6c0-1.3,0.1-2.4,0.4-3.8c0.5-2,1.2-4,2.3-5.8
							c0.3-0.5,0.7-0.9,1-1.4c0.3-0.5,0.5-1.2,0.8-1.7c0.1-0.2,0.3-0.2,0.3-0.4c0.1-0.9,0.1-1.6,0.3-2.6c0.6-2.3,0.9-4.5,0.8-6.9
							c0-0.9,0.1-1.8-0.1-2.7c-0.2-1-0.8-1.7-0.9-2.8c-0.2-2.1,0.1-3.7,1.2-5.5c1.8-2.9,4.2-5.3,6-8.3c0.3-0.6,0.6-1,0.8-1.6
							c0.4-1.3,1.2-2.3,1.8-3.5c0.8-1.7,1.3-3.7,1.5-5.6c0.2-1.8-0.1-3.5-0.5-5.3c-0.7-3.4-0.9-7-0.6-10.5c0.1-1.6,0.2-3.2,0.2-4.9
							c0-0.4,0.1-1.1,0.1-1.5c-0.1-0.8-0.7-1.2-1.2-1.6c-1-0.9-1.7-1.6-2.3-2.8c-0.7-1.4-1.2-3-1.8-4.5c-0.7-1.8-1.4-3.6-2.1-5.3
							c-0.4-1-0.8-2-1.2-3c-0.5-2.2,0.3-4.6-0.1-6.9c-0.4-2.2-2.1-2.2-3.9-2.1c-3.6,0.2-7.1,1.2-10.6,1.8c-3.8,0.6-7.4,2.7-10.9,4.2
							c-3.2,1.4-6.5,2.5-9.7,3.9c0.4-0.2-4.5,1.8-4.7,2.6c-0.3,1,0.3,2.2-0.1,3.3c-0.9,2.9-3.2,5.2-5.7,6.8c-1.3,0.8-2.7,1.5-4,2.4
							c-0.7,0.5-1.2,0.8-1.9,1.2c-1.8,0.8-3.5,1.7-5.5,1.7c-1.3,0-2.5,0-3.7-0.3c-0.6-0.2-1.2-0.5-1.8-0.6c-0.2,0-0.5-0.1-0.7-0.1
							c-1,0.1-1.9,0.5-2.7,1.1c-1.6,0.9-3.2,1.8-4.8,2.5c-1.5,0.6-2.4,0.3-3.6-0.9c-1-1-1.6-2.2-2.5-3.3c-0.9-1-2-2-3.1-2.8
							c-1-0.8-2.4-2.2-3.8-2.2c-1.9,0-4,0.3-5.8-0.3c-0.6-0.2-1.3-0.4-1.9-0.6c-2.3-0.8-3.5-2.6-5.4-4.1c-1.3-1.1-3-1.8-3.9-3.2
							c-0.5-0.9-1.3-1-2-1.6c-0.5-0.4-0.9-0.8-1.4-1.1c-0.3-0.2-0.7-0.4-1-0.6c-0.9-0.8-1.3-2-1.6-3.1c-0.3-1.1-0.5-3.2-1.7-3.7
							c-0.5-0.2-1.5,0-2,0c-0.2,0-0.6-0.1-0.8,0C456.9,500.4,456.3,500.2,455.8,500.1z"/>
					</g>
					<g>
						<path class="st2" d="M154.7,532.2c-0.8,4.3-3.2,8.3-4.1,12.6c-0.5,2.4-1.5,5.9,0,8.3c1.9,3.1,7.2,5.9,9.9,7.3
							c3.6,1.8,7.2,3.2,10.9,4.7c2.5,1,2,0.4,2.3,2.1c0.3,1.6-0.3,3.6,0.1,5.4c0.9,4.1,3.2,8,6,11.2c1.6,1.8,3.6,3.2,5.2,5.1
							c2.3,2.7,3.6,6.3,5.6,9.3c2,3,4.8,5.9,6.2,9.2c1.3,3.1,1.1,6.5,2.5,9.6c2.2,5,6.4,8.7,8.9,13.6c1.1,2.3,2.8,5,2.9,7.6
							c0.1,2-0.4,2.7,0.9,4.5c2.5,3.5,7.3,5.7,10.8,8c3.7,2.5,5.8,6.4,9.8,8.5c9.6,5.2,20.6,4.4,31,4.8c3.2,0.1,5.7,1.8,8.9,2
							c4.3,0.3,9.6-0.2,13.6-1.6c3.7-1.2,6.8-3.2,9.3-6c1.7-1.5,3.3-3.2,4.7-5c1.4-1,2-0.9,3.7-1c2.7-0.1,4.7-1.2,7.4-2
							c2.3-0.7,4.6-1.2,6.9-1.5c1.8-0.2,2.6-0.4,4.6-1.1c4-1.3,8.4-2.3,12.1-4.4c3.7-2.2,7-6.6,11-7.9c1.3-0.4,3.1,0.5,4.2-0.2
							c2.3-1.3,0.9-7.5,1-9.7c0-1.5-0.2-2.4,0.8-3.5c0.6-0.6,1.9-0.9,2.7-1.5c1.6-1.3,3-2.9,4.5-4.3c1.3-1.1,3.4-2.2,4.5-3.4
							c1.5-1.6,0.7-3.6,1.1-5.7c0.3-1.4,0.8-2.7,0.9-4.1c0.3-4-2.2-6.2-5.1-8.5c-8.1-6.8-16.8-12.4-27.6-12.8
							c-1.3,0-2.9,0.2-4.1-0.1c-0.7-0.2-3.1-2.3-3.3-2.4c-3.4-2.2-7.7-2.2-11.6-3.2c-5.9-1.5-6.9-7.7-9.6-12.5
							c-4-7-9.3-13.8-16.4-17.9c-2.7-1.5-5.6-2.3-8.6-3.2c-5.2-1.5-10-4.1-14.7-6.7c-2.8-1.5-5.7-3.5-8.8-4.3
							c-1.8-0.5-3.4-0.3-5-0.7c-1.7-0.4-3.1-2.2-4.4-3.3c-3.5-2.7-7-5.4-10.4-8.2c-1.7-1.4-3.4-3-5.6-3.5c-1.1-0.2-1.7,0-2.7-0.5
							c-1.3-0.6-1.7-1.3-3.2-1.8c-4.9-1.6-9.6-2.6-14-5.4c-3.5-2.2-6.9-4.5-10.5-6.5c-2.7-1.6-5.8-4.1-9-4.6c-3-0.4-3,2-5.3,2.7
							c-1.6,0.5-3.8-0.3-5.4,0c-1,2.2,0,4.7-0.9,6.9c-0.5,1.1-1.1,1.5-1.9,2.3c-1.8,2.1-3.5,4.5-5.5,6.3c-1.6,1.5-3.9,2.1-5.8,3.2
							C164.4,519.6,157.5,522.6,154.7,532.2z"/>
					</g>
					<g>
						<path class="st2" d="M151.1,428.8c6.3-0.5,11.8,3.5,16.6,7.1c1.9,1.5,5,3.5,6.1,5.8c0.5,1.1,0.2,2,0.6,3.1
							c0.4,1.1,1.8,2.5,2.5,3.5c0.8,0.7,1.4,1.6,1.7,2.6c0.1,1.5,0.2,2.9,0.3,4.4c0.7,3.6,4,7,6.8,9.1c1.3,1,3.1,2,4.2,3.1
							c0.9,0.8,1.2,2.2,2.1,3c1.5,1.4,2.7,1,4.5,1.2c4.1,0.6,8.2,1.3,12.3,1.6c1.5,0.1,1.6,0.2,2.9,0.8c2.7,1.4,5.9,1.9,8.3,3.6
							c1.7,1.2,3.2,2.6,5,3.8c1.5,1,2.5,2.6,4.4,3c-0.4-0.6-1.2-1-1.5-1.7c-0.4-0.9-0.1-2.2-0.3-3.2c-0.3-1.4-1.4-3.2-2.3-4.2
							c-1.3-1.4-3.3-2-4.9-2.9c-1.6-1-2.9-2-4.4-3.1c-1.9-1.5-4.1-2.2-5.9-3.8c-1.8-1.6-3.1-2.6-5.4-3.6c-1.3-0.6-2.6-1.2-3.9-1.9
							c-1.7-1-5.1-2-6.4-3.3c-1.2-1.2-1.4-4.2-2-5.9c-0.7-1.9-1.5-3.9-2.7-5.6c-2.6-3.9-4.8-6.7-8.9-9c-4.9-2.7-9.8-5.7-14.5-8.7
							c-2.2-1.5-2.7-3.3-4.1-5.4c-1.6-2.4-3.6-3.7-6.7-3C155,420.8,155.6,423.5,151.1,428.8z"/>
					</g>
					<g>
						<path class="st2" d="M158.2,492.1c-1.2-4-3.7-7.3-5.8-10.9c-1.6-2.7-4.1-5.9-4.2-9.1c-0.1-4.2,3.8-6.4,4.6-9.9
							c0.7-3.3,2.5-9.3-0.7-11.8c-3-2.3-7.8-2.8-11.4-3.9c-2.5-0.7-2.7-1.2-4.8-2.6c-2.7-1.8-4.2-3.1-4.5-6.5
							c-0.3-2.8,0.1-5.9,0-8.7c0-3.5-0.6-5.7-4-7.2c-2.7-1.2-5.3-1.5-6.7-4.4c-1.2-2.6-1.3-6.9-1.6-9.6c-0.3-3.6-0.2-7.3-0.2-10.9
							c0-3,0-6,0-9c0-0.9-0.3-3.3,0.1-4.4c0.7-1.5,2.7-2.1,4.2-2.7c2.1-0.8,4.3-1.3,6.5-1.6c2-0.2,4-0.2,6-0.1c1-0.2,1.7-0.7,2.6-1
							c2.5-0.6,6.4,0.1,8.9,0c3.7-0.1,8,2.5,11,4.7c2.2,1.7,2.8,3.4,3.3,6.2c0.9,4.9,0.2,10.4,0.2,15.4c0,2-0.1,3.4,0.8,5.1
							c1.3,2.5,4.1,4.7,7.1,3.1c0.9-5.4,0.1-11.4,0.1-16.9c0-1.4-0.7-4.1,0.4-5.1c1.4-1.2,7.3-0.1,9.3-0.1c2.9,0,10.6,1.6,12.3-1.5
							c0.6-1.1,0.3-2.7,0.7-4c0.6-2.2,1.3-4.3,1.8-6.5c0.5-2.1,1-6.2,2.7-7.7c1.3-1.1,1.9-0.8,3.5-0.8c2.6,0,4.7-1.2,7.1-2.2
							c7.4-3.2,14.3-7.5,22-10.1c2.5-0.9,4.9-0.8,7-2.4c1.8-1.3,2.7-2.2,5-2.3c2.5-0.1,5,0,7.4,0.1c3.3,0.1,6.3-0.9,9.3-2.1
							c1.4-0.6,3.3-2.5,4.9-2.4c0.6-2.1,0.3-4.9,0-7.1c-0.2-1.6-1.6-5.3-0.6-7c1.4-2.2,5.6-1,7.9-1c3.9-0.1,7.6,0.4,11.5,0.9
							c1.6,0.2,6,0,7.3,1c1.4,1,0.8,4.1,0.8,5.5c0,3-0.6,6.6,0.1,9.5c4.9,1.4,7.1-7,7.1-10.6c0-2.8-1.4-3.3-2.9-5.3
							c-0.9-1.2-1.1-1-1.7-3.2c-1-3.4-1.8-7.6-1.8-11.2c0-2.1,0.1-3.7-0.9-5.6c-1.7-3.1-5.3-4.8-7.1-7.9c-0.9-1.6-0.9-2.3-0.9-4.1
							c-0.1-5.9-0.2-11.4,1.6-17.1c0.8-2.6,1.1-3.7,1.1-6.4c0-2.6-0.9-4-2.1-6.2c-0.8-1.5-1.2-2.9-2.5-4.1c-1.7-1.6-3-0.4-4.8-1.2
							c-2.2-1-4.1-5-5.1-7.3c-3.1,0.8-6,6.6-7.8,8.9c-1,1.3-1.4,2.9-2.4,4.1c-1.5,1.7-4.3,2.1-6.3,3.1c-2.5,1.2-2.2,1.6-2.1,4.3
							c0.1,4.4-0.4,12-5.3,13.5c-1.3,0.4-3.5-0.1-4.8-0.1c-3,0.1-4.2-0.5-5.3-3.8c-0.3-0.9-0.2-2.4-0.6-3.2c-0.4-1-0.7-0.7-1.3-1.5
							c-1.4-2.1-1.9-4.4-3.4-6.5c-1.5-2.1-2.6-3.3-3.5-5.6c-1-2.7-2.5-5.5-3.4-8.1c-1-2.8-0.4-7.9,0.7-10.7c1.3-3,2.8-5.4,5.6-7.1
							c1.7-1.1,3.2-2.9,5.1-3.4c1.9-0.5,5.2,0.1,7.2,0.1c2.1,0,4.2,0,6.3,0c4.6,0,9.3,0,13.9,0c1.2,0,3.1,0.3,4.3,0
							c2.9-0.9,4.2-5.5,5.5-8c1.4-2.7-0.1-1.3,1.9-1.7c1.4-0.3,5.2,1.5,6.6,2.2c3.3,1.6,3.8,4.6,4.5,7.9c0.6,3,1.6,5.6,1.6,8.7
							c-0.1,2.5-0.6,5.7,0.5,7.9c0.4,0.9,1,2.2,2.3,1.7c1.4-0.5,0.7-3.1,1-4.1c0.9-2.8,3.1-1.7,5.2-2.7c2.1-1,3.2-3.4,3.6-5.7
							c0.4-2.5,0.3-6.4-0.4-8.7c-1.1-3.3-1.6-6.6-2.5-10c-1.5-5.7-0.5-12.2-0.6-18c-0.1-4-0.3-4.7,3.8-6.8c2.2-1.1,4.4-3.4,6.7-4.2
							c4.7-1.8,12.8-0.3,16.3,3c3.5,3.3,6.9,8.9,7.9,13.7c1.6,7.8-1.5,15.9-4.1,23.1c-0.8,2.1-0.9,4.2-1.5,6.3
							c-1,3.5-2.9,6.6-3.7,10.1c-0.8,3.1-0.3,6.4-0.3,9.6c0,2.8-0.5,5.7,0.3,8.4c1.3,4.2,4.7,7.7,6.4,11.8c0.8,1.9,0.9,3,2.4,4.4
							c1.7,1.6,5.2,2.9,7.6,2.8c2.7-5.1,1.2-14.1,1.2-19.5c0-2.8,0-5.6,0-8.4c0-2.9,0.4-6,2.7-7.8c3.1-2.5,8.7-4,12.5-4.5
							c2.6-0.3,2.5-0.6,5.8-1.7c2.1-0.6,4.2-1.1,6.3-1.7c2.3-0.2,4.5-0.8,6.5-1.9c0.7-1-0.2-4.8,0-5.8c0.8-3.4,3.9-6.6,5.4-9.8
							c0.8-1.6,3.5-5.7,2.5-7.8c-0.6-1.3-2.6-1.1-3.5-1.8c-1.4-1.1-3.5-5.5-4.2-6.7c-2.5-4.2-3.7-9-5.9-13.3
							c-1.9-3.7-2.4-7.9-4.3-11.7c-1-1.9-2.5-3.6-3.5-5.5c-1.1-2.2-1-4.3-4-4.6c-6.4-0.8-13.5,0-20,0c-2.3,0-4.7,0.3-7-0.1
							c-3.8-0.7-7.3-2.3-10.7-3.8c-5.8-2.5-13.4-4-19.2-1c-2.7,1.4-5.5,3.7-7.7,5.8c-1.1,1-1.2,1.7-2.9,1.8c-2,0.2-3.9-1.1-5.6-1.9
							c-2.5-1.1-5.3-1.8-7.4-3.6c-2.7,0.7-4.9,4.5-6.5,6.6c-1.3,1.6-1.6,2-3.7,0.8c-2-1.1-4.2-6-6.8-5.9c-2.3,0.1-3.1,3.3-4.9,3.8
							c-0.6,0.2-3.2-0.5-3.8-0.8c-1.6-0.7-3.2-2.8-3.7-4.5c-0.3-1,0.1-2.5-0.1-3.6c-0.2-1.6-0.7-3-0.7-4.6c-0.1-1.9-0.4-3.4,0.8-5
							c3.3-4.4,8.2-7.7,11.2-12.4c1.5-2.3,1.4-4.4,1.4-7c0-1.6,0.3-5.1-0.9-6.4c-2.6-2.8-10.5,2.7-12.7,3.9
							c-2.5,1.4-3.6,1.4-6.3,0.1c-2-1-3.6-2.7-5.5-3.7c-2-1-4.2-0.6-6.6-0.6c-6.2,0-11.4,2.7-17.7,1.4c-1.8,2.5-2.3,5.3-3.1,8.2
							c-1.4,5.1-2.6,10.2-4.3,15.2c-1.2,3.5-3.2,4.5-5.5,7.5c-1.7,2.2-21.8,26.1-22.5,27.6c-2.3,4.7-7.2,6.1-10.2,9.9
							c0.1-0.4,0-0.6-0.4-0.7c-1.8,2.8-3.3,5.7-5.6,8.1c-2.3,2.3-4.8,4.2-7.3,6.1c-5,3.7-10,8.1-14.1,12.9
							c-4.8,5.6-8.1,12.8-10.9,19.6c-1.7,4-4.1,7.7-6,11.5c-4.5,8.9-10.3,17.1-14.5,26.1c-2,4.4-3,9.1-4.9,13.4
							c-2.5,5.8-7.8,9.3-7.8,16c0,5.1,2.6,9.2,3.6,13.9c0.8,4,0.2,8.8,0.2,12.9c0,6.6,0.9,13,0.8,19.6c0,5.3,1.6,9,2.6,13.9
							c0.2,1.1,0.1,2.1,0.7,3.1c0.4,0.8,1.2,1.1,1.7,1.8c2.3,3.6,1,7.9,4.9,11.1c1.7,1.4,3.6,1.8,4.7,3.8c1.3,2.3,2.2,5.1,3.3,7.5
							c2.6,5.9,5.4,10.4,5.4,17c0,4.2,1.5,6.3,3.5,9.9c1.9,3.4,2.8,5.6,2.7,9.6c-0.1,2.9,0.2,5.4,1.9,7.9c2,3,4.9,4,6.2,7.5
							c1,2.5,1.3,5,1.9,7.5c0.7,3.1,2.4,5.2,3.7,7.9c1.4,3.1,1.6,6.6,3.2,9.6C144,492.8,156.8,503.8,158.2,492.1z"/>
					</g>
				</g>
			</g>
		</g>
	</g>
	<g>
		<g>
			<path class="st3" d="M147.2,316.2v226.7c0,8.7,7.1,15.8,15.8,15.8h374c8.7,0,15.8-7.1,15.8-15.8V316.2c0-8.7-7.1-15.8-15.8-15.8
				H163C154.3,300.4,147.2,307.5,147.2,316.2z"/>
		</g>
		<g>
			<rect x="168.8" y="324" class="st2" width="362.3" height="198"/>
		</g>
		<g>
			<path class="st2" d="M161.4,314.6v216.8h377.2V314.6H161.4z M526.8,519.5H173.2V326.4h353.5V519.5z"/>
		</g>
		<g>
			<rect x="267.1" y="558.6" class="st4" width="165.7" height="36.4"/>
		</g>
		<g>
			<polygon class="st4" points="457.5,618.2 242.5,618.2 267.1,594.1 432.9,594.1 			"/>
		</g>
		<g>
			<g>
				<g>
					<rect x="225" y="385.4" class="st5" width="16.2" height="66.8"/>
				</g>
				<g>
					<rect x="245.1" y="373.5" class="st4" width="16.2" height="78.7"/>
				</g>
				<g>
					<g>
						<rect x="204.8" y="413" class="st4" width="16.2" height="39.2"/>
					</g>
				</g>
				<g>
					<rect x="265.3" y="380.4" class="st5" width="16.2" height="71.8"/>
				</g>
				<g>
					<rect x="285.5" y="354.1" class="st4" width="16.2" height="98.2"/>
				</g>
				<g>
					<g>
						<g>
							<path class="st3" d="M193.5,407.9c-1.8,0-3.7-0.2-5.5-0.6c-7.2-1.7-11.4-8-13.9-12.6l2.3-1.2c3.6,6.6,7.5,10.2,12.2,11.3
								c9.5,2.3,19.6-2.3,23.3-10.6c1.5-3.2,2.2-6.8,3-10.3c0.1-0.6,0.3-1.2,0.4-1.8c1-4.7,2.7-10.7,6.6-15.5
								c4.7-5.8,11.5-8.6,18.1-7.6c2.5,0.4,4.9,1.1,7.2,1.8c4.7,1.4,9.1,2.8,13.7,1.4c7.4-2.2,12.7-8.4,18-14.5
								c4.5-5.2,9.1-10.6,15-13.5l1.2,2.3c-5.5,2.7-9.7,7.7-14.2,12.9c-5.5,6.3-11.1,12.9-19.2,15.3c-5.3,1.6-10.4,0.1-15.2-1.4
								c-2.4-0.7-4.6-1.4-6.9-1.7c-5.7-0.9-11.5,1.6-15.7,6.7c-3.6,4.4-5.1,10-6.1,14.4c-0.1,0.6-0.3,1.2-0.4,1.8
								c-0.8,3.6-1.6,7.3-3.1,10.8C210.8,403,202.4,407.9,193.5,407.9z"/>
						</g>
					</g>
					<g>
						<g>
							<g>
								<polygon class="st3" points="294.9,339.5 299.9,333.5 292.2,332.2 								"/>
							</g>
						</g>
					</g>
				</g>
			</g>
			<g>
				<g>
					<g>
						<g>
							<g>
								<path class="st5" d="M181.3,491.8c0.5-6.9,6-12.4,12.8-12.8v-7.1c-5.2,0.2-10.1,2.4-13.9,6.1s-5.9,8.6-6.1,13.9H181.3z"/>
							</g>
							<g>
								<path class="st5" d="M196.1,478.9c6.9,0.5,12.4,6,12.8,12.8h7.1c-0.2-5.2-2.4-10.1-6.1-13.9c-3.7-3.7-8.6-5.9-13.9-6.1
									V478.9z"/>
							</g>
							<g>
								<path class="st5" d="M194.1,506.6c-6.9-0.5-12.4-6-12.8-12.8h-7.1c0.2,5.2,2.4,10.1,6.1,13.9c3.7,3.7,8.6,5.9,13.9,6.1
									V506.6z"/>
							</g>
							<g>
								<path class="st5" d="M208.9,493.7c-0.5,6.9-6,12.4-12.8,12.8v7.1c5.2-0.2,10.1-2.4,13.9-6.1c3.7-3.7,5.9-8.6,6.1-13.9H208.9
									z"/>
							</g>
						</g>
						<g>
							<rect x="187" y="489" class="st6" width="16.3" height="7.5"/>
						</g>
					</g>
					<g>
						<g>
							<g>
								<path class="st5" d="M237.4,491.8c0.5-6.9,6-12.4,12.8-12.8v-7.1c-5.2,0.2-10.1,2.4-13.9,6.1s-5.9,8.6-6.1,13.9H237.4z"/>
							</g>
							<g>
								<path class="st5" d="M252.2,478.9c6.9,0.5,12.4,6,12.8,12.8h7.1c-0.2-5.2-2.4-10.1-6.1-13.9c-3.7-3.7-8.6-5.9-13.9-6.1
									V478.9z"/>
							</g>
							<g>
								<path class="st5" d="M250.2,506.6c-6.9-0.5-12.4-6-12.8-12.8h-7.1c0.2,5.2,2.4,10.1,6.1,13.9c3.7,3.7,8.6,5.9,13.9,6.1
									V506.6z"/>
							</g>
							<g>
								<path class="st5" d="M265.1,493.7c-0.5,6.9-6,12.4-12.8,12.8v7.1c5.2-0.2,10.1-2.4,13.9-6.1c3.7-3.7,5.9-8.6,6.1-13.9H265.1
									z"/>
							</g>
						</g>
						<g>
							<rect x="243.1" y="489" class="st6" width="16.3" height="7.5"/>
						</g>
					</g>
					<g>
						<g>
							<g>
								<path class="st5" d="M293.5,491.8c0.5-6.9,6-12.4,12.8-12.8v-7.1c-5.2,0.2-10.1,2.4-13.9,6.1c-3.7,3.7-5.9,8.6-6.1,13.9
									H293.5z"/>
							</g>
							<g>
								<path class="st5" d="M308.3,478.9c6.9,0.5,12.4,6,12.8,12.8h7.1c-0.2-5.2-2.4-10.1-6.1-13.9c-3.7-3.7-8.6-5.9-13.9-6.1
									V478.9z"/>
							</g>
							<g>
								<path class="st5" d="M306.4,506.6c-6.9-0.5-12.4-6-12.8-12.8h-7.1c0.2,5.2,2.4,10.1,6.1,13.9c3.7,3.7,8.6,5.9,13.9,6.1
									V506.6z"/>
							</g>
							<g>
								<path class="st5" d="M321.2,493.7c-0.5,6.9-6,12.4-12.8,12.8v7.1c5.2-0.2,10.1-2.4,13.9-6.1c3.7-3.7,5.9-8.6,6.1-13.9H321.2
									z"/>
							</g>
						</g>
						<g>
							<rect x="299.2" y="489" class="st6" width="16.3" height="7.5"/>
						</g>
					</g>
				</g>
				<g>
					<g>
						<g>
							<g>
								<path class="st5" d="M349.6,491.8c0.5-6.9,6-12.4,12.8-12.8v-7.1c-5.2,0.2-10.1,2.4-13.9,6.1c-3.7,3.7-5.9,8.6-6.1,13.9
									H349.6z"/>
							</g>
							<g>
								<path class="st5" d="M364.4,478.9c6.9,0.5,12.4,6,12.8,12.8h7.1c-0.2-5.2-2.4-10.1-6.1-13.9c-3.7-3.7-8.6-5.9-13.9-6.1
									V478.9z"/>
							</g>
							<g>
								<path class="st5" d="M362.5,506.6c-6.9-0.5-12.4-6-12.8-12.8h-7.1c0.2,5.2,2.4,10.1,6.1,13.9c3.7,3.7,8.6,5.9,13.9,6.1
									V506.6z"/>
							</g>
							<g>
								<path class="st5" d="M377.3,493.7c-0.5,6.9-6,12.4-12.8,12.8v7.1c5.2-0.2,10.1-2.4,13.9-6.1c3.7-3.7,5.9-8.6,6.1-13.9H377.3
									z"/>
							</g>
						</g>
						<g>
							<rect x="355.3" y="489" class="st6" width="16.3" height="7.5"/>
						</g>
					</g>
					<g>
						<g>
							<g>
								<path class="st5" d="M405.7,491.8c0.5-6.9,6-12.4,12.8-12.8v-7.1c-5.2,0.2-10.1,2.4-13.9,6.1c-3.7,3.7-5.9,8.6-6.1,13.9
									H405.7z"/>
							</g>
							<g>
								<path class="st5" d="M420.5,478.9c6.9,0.5,12.4,6,12.8,12.8h7.1c-0.2-5.2-2.4-10.1-6.1-13.9c-3.7-3.7-8.6-5.9-13.9-6.1
									V478.9z"/>
							</g>
							<g>
								<path class="st5" d="M418.6,506.6c-6.9-0.5-12.4-6-12.8-12.8h-7.1c0.2,5.2,2.4,10.1,6.1,13.9c3.7,3.7,8.6,5.9,13.9,6.1
									V506.6z"/>
							</g>
							<g>
								<path class="st5" d="M433.4,493.7c-0.5,6.9-6,12.4-12.8,12.8v7.1c5.2-0.2,10.1-2.4,13.9-6.1c3.7-3.7,5.9-8.6,6.1-13.9H433.4
									z"/>
							</g>
						</g>
						<g>
							<rect x="410.4" y="489" class="st6" width="16.3" height="7.5"/>
						</g>
					</g>
				</g>
			</g>
			<g>
				<g>
					<rect x="458.8" y="476.2" class="st6" width="56.5" height="5.7"/>
				</g>
				<g>
					<rect x="458.8" y="485.4" class="st6" width="67.1" height="5.7"/>
				</g>
				<g>
					<rect x="458.8" y="494.5" class="st6" width="50.2" height="5.7"/>
				</g>
				<g>
					<rect x="458.8" y="503.7" class="st6" width="62.6" height="5.7"/>
				</g>
			</g>
			<g>
				<g>
					<path class="st3" d="M360.1,396.5l7-32.7c-1.5-0.2-3-0.3-4.6-0.3c-19.4,0-35.1,15.7-35.1,35.1c0,3.2,0.4,6.3,1.2,9.2
						L360.1,396.5z"/>
				</g>
				<g>
					<path class="st4" d="M372.5,364.9l-7.6,35.8L330.4,413c5.5,12.2,17.8,20.7,32,20.7c19.4,0,35.1-15.7,35.1-35.1
						C397.6,382.7,387,369.2,372.5,364.9z"/>
				</g>
			</g>
			<g>
				<g>
					<g>
						<g>
							<rect x="435.3" y="339.6" class="st6" width="65.2" height="5.7"/>
						</g>
						<g>
							<rect x="435.3" y="348.8" class="st6" width="77.4" height="5.7"/>
						</g>
						<g>
							<rect x="435.3" y="358" class="st6" width="57.9" height="5.7"/>
						</g>
						<g>
							<rect x="435.3" y="367.1" class="st6" width="72.2" height="5.7"/>
						</g>
					</g>
					<g>
						<path class="st5" d="M418.6,339.6L418.6,339.6c-4.1,0-7.4,3.3-7.4,7.4v0c0,4.1,3.3,7.4,7.4,7.4l0,0c4.1,0,7.4-3.3,7.4-7.4v0
							C426,342.9,422.7,339.6,418.6,339.6z"/>
					</g>
				</g>
				<g>
					<g>
						<g>
							<rect x="435.3" y="383.8" class="st6" width="52.9" height="5.7"/>
						</g>
						<g>
							<rect x="435.3" y="392.9" class="st6" width="65.2" height="5.7"/>
						</g>
						<g>
							<rect x="435.3" y="402.1" class="st6" width="80" height="5.7"/>
						</g>
						<g>
							<rect x="435.3" y="411.3" class="st6" width="72.2" height="5.7"/>
						</g>
					</g>
					<g>
						<path class="st5" d="M418.6,383.8L418.6,383.8c-4.1,0-7.4,3.3-7.4,7.4l0,0c0,4.1,3.3,7.4,7.4,7.4l0,0c4.1,0,7.4-3.3,7.4-7.4
							l0,0C426,387.1,422.7,383.8,418.6,383.8z"/>
					</g>
				</g>
				<g>
					<g>
						<g>
							<rect x="435.3" y="427.9" class="st6" width="80" height="5.7"/>
						</g>
						<g>
							<rect x="435.3" y="437.1" class="st6" width="68.5" height="5.7"/>
						</g>
						<g>
							<rect x="435.3" y="446.3" class="st6" width="48.6" height="5.7"/>
						</g>
						<g>
							<rect x="435.3" y="455.4" class="st6" width="62.9" height="5.7"/>
						</g>
					</g>
					<g>
						<path class="st5" d="M418.6,427.9L418.6,427.9c-4.1,0-7.4,3.3-7.4,7.4v0c0,4.1,3.3,7.4,7.4,7.4l0,0c4.1,0,7.4-3.3,7.4-7.4v0
							C426,431.2,422.7,427.9,418.6,427.9z"/>
					</g>
				</g>
			</g>
		</g>
	</g>
	<g>
		<g>
			<path class="st7" d="M391.3,462.3l0.5,10.1c-0.1,0-0.2-0.1-0.2-0.1c-2.3-1.4-4.5-3.2-6.4-5.3c-1.7-1.8-3.2-3.7-4.8-6.2
				c-1.2-1.8-2.4-3.8-3.9-6.5c-1.3-2.4-2.5-4.7-3.5-6.5c-0.1-0.2-0.2-0.5-0.2-0.8c0-0.8,0.4-1.5,1.1-1.9c1-0.6,2.2-0.4,2.8,0.5
				c1.7,2.4,3,4.2,4.3,5.8c1.7,2.2,3.1,4,4.5,5.5c1.7,1.9,3.3,3.4,4.8,4.7C390.6,461.8,391,462.1,391.3,462.3z"/>
		</g>
		<g>
			<path class="st8" d="M427.9,476l-0.3-4.9c0.3,0.7,0.5,1.5,0.6,2.4c0,0.2,0,0.5,0,0.7C428.2,474.9,428,475.5,427.9,476z"/>
		</g>
		<g>
			<path class="st2" d="M422.1,480.6c-1.5-0.2-3-0.4-4.4-0.6l-0.1-2.7l-5.4-0.8l-0.3,2.6l0,0c-1-0.2-1.9-0.3-2.9-0.5
				c-2.1-0.4-4.4-0.9-6.8-1.5c-2.6-0.7-4.8-1.5-6.9-2.4c-0.3-0.1-0.7-0.3-1-0.5l2.4-1.8l-17.3-16.2l-1.8,1.3c-0.6-1-1.2-2-1.8-3
				l-0.2-0.4l5.8-3.8l0.3,0.3c1.4,1.8,2.6,3.4,3.9,4.9c1.5,1.7,2.8,3.2,4.1,4.3c1.4,1.3,2.9,2.4,4.4,3.3c1.5,0.9,3.1,1.5,4.9,2.1
				c0.5,0.2,1,0.3,1.6,0.4l-0.5,2.2l14.5,3.6l0.4-4.3c2.7,0.1,5.5,0.1,8.1,0.1c2.8,0,5.1,2.7,5.3,6.1c0,0.3,0,0.6,0,0.9
				c-0.1,2.1-1,4-2.4,5.1C424.7,480.3,423.4,480.7,422.1,480.6z"/>
		</g>
		<g>
			<path class="st9" d="M422.2,480.1c-4.3-0.5-8.7-1.1-13.2-1.9c-2.2-0.4-4.5-0.9-6.7-1.5c-2.3-0.6-4.6-1.4-6.8-2.3
				c-2.3-1-4.5-2.3-6.5-3.8c-2-1.5-3.8-3.2-5.3-5c-1.5-1.8-2.9-3.7-4.1-5.6c-1.2-1.9-2.4-3.8-3.4-5.7l5.1-3.3
				c1.3,1.7,2.5,3.4,3.9,4.9c1.3,1.6,2.7,3.1,4.1,4.4c1.4,1.3,2.9,2.4,4.5,3.3c1.6,0.9,3.2,1.6,5,2.1c3.5,1.1,7.5,1.5,11.6,1.7
				c4.1,0.2,8.3,0.3,12.6,0.3c2.8,0,5,2.9,4.8,6.5C427.6,477.8,425,480.5,422.2,480.1z"/>
		</g>
	</g>
	<g>
		<g>
			<g>
				<path class="st10" d="M353,242.5l-5.6,0c-1.6,0-2.9-1.3-2.9-2.9l0.2-50.8c0-1.6,1.3-2.9,2.9-2.9l5.6,0c1.6,0,2.9,1.3,2.9,2.9
					l-0.2,50.8C355.8,241.2,354.6,242.5,353,242.5z"/>
			</g>
		</g>
		<g>
			<g>
				<path class="st10" d="M291.6,265.4l-4,4c-1.1,1.1-2.9,1.1-4.1,0l-35.8-36c-1.1-1.1-1.1-2.9,0-4.1l4-4c1.1-1.1,2.9-1.1,4.1,0
					l35.8,36C292.7,262.5,292.7,264.3,291.6,265.4z"/>
			</g>
		</g>
		<g>
			<g>
				<path class="st10" d="M264.4,325.1l0,5.6c0,1.6-1.3,2.9-2.9,2.9l-50.8-0.2c-1.6,0-2.9-1.3-2.9-2.9l0-5.6c0-1.6,1.3-2.9,2.9-2.9
					l50.8,0.2C263.1,322.2,264.4,323.5,264.4,325.1z"/>
			</g>
		</g>
		<g>
			<g>
				<path class="st10" d="M287.4,386.5l4,4c1.1,1.1,1.1,2.9,0,4.1l-36,35.8c-1.1,1.1-2.9,1.1-4.1,0l-4-4c-1.1-1.1-1.1-2.9,0-4.1
					l36-35.8C284.4,385.4,286.2,385.4,287.4,386.5z"/>
			</g>
		</g>
		<g>
			<g>
				<path class="st10" d="M408.4,390.7l4-4c1.1-1.1,2.9-1.1,4.1,0l35.8,36c1.1,1.1,1.1,2.9,0,4.1l-4,4c-1.1,1.1-2.9,1.1-4.1,0
					l-35.8-36C407.3,393.7,407.3,391.9,408.4,390.7z"/>
			</g>
		</g>
		<g>
			<g>
				<path class="st10" d="M435.6,331.1l0-5.6c0-1.6,1.3-2.9,2.9-2.9l50.8,0.2c1.6,0,2.9,1.3,2.9,2.9l0,5.6c0,1.6-1.3,2.9-2.9,2.9
					l-50.8-0.2C436.9,333.9,435.6,332.7,435.6,331.1z"/>
			</g>
		</g>
		<g>
			<g>
				<path class="st10" d="M412.6,269.7l-4-4c-1.1-1.1-1.1-2.9,0-4.1l36-35.8c1.1-1.1,2.9-1.1,4.1,0l4,4c1.1,1.1,1.1,2.9,0,4.1
					l-36,35.8C415.6,270.8,413.8,270.8,412.6,269.7z"/>
			</g>
		</g>
		<g>
			<g>
				<g>
					<g>
						<path class="st10" d="M423.9,328.4c-0.1,21.1-8.9,40-23.1,53.4c-4.7,4.5-8.4,9.8-10.9,15.7c-2.5,5.8-3.8,12.2-3.9,18.7
							c0,6.8-2.6,13-6.7,17.8c-3.6,4-8.3,7-13.7,8.3c-2.1,0.5-4.4,0.8-6.7,0.8l-19-0.1c-7.5,0-14.2-3.1-19.1-8
							c-4.9-4.9-7.9-11.7-7.8-19.1c0-13.1-5.4-25.6-14.8-34.7c-13.9-13.5-22.5-32.5-22.4-53.4c0-10.4,2.3-20.4,6.2-29.4
							c0.7-1.6,1.4-3.1,2.2-4.6c12.4-23.5,37-39.6,65.3-39.8C390.7,253.9,424,287.3,423.9,328.4z"/>
					</g>
				</g>
				<g>
					<g>
						<path class="st4" d="M385.3,442.5c0,2-0.8,3.8-2.1,5c-0.4,0.4-0.7,0.7-1.2,0.9c-1.1,0.7-2.5,1.1-3.9,1.1l-57.5-0.2
							c-1.4,0-2.8-0.4-3.9-1.2c-2-1.3-3.2-3.5-3.2-6c0-2,0.8-3.8,2.1-5c1.3-1.3,3.1-2.1,5.1-2.1l57.5,0.2
							C382.1,435.4,385.3,438.6,385.3,442.5z"/>
					</g>
				</g>
				<g>
					<g>
						<path class="st4" d="M381.8,456.5c0,2-0.8,3.8-2.1,5c-0.3,0.3-0.7,0.7-1.1,0.9c-1,0.7-2.2,1.1-3.5,1.1c-0.1,0-0.3,0-0.4,0
							l-50.6-0.2c-0.1,0-0.3,0-0.4,0c-1.3-0.1-2.5-0.5-3.5-1.2c-1.9-1.3-3.2-3.5-3.2-6c0-2,0.8-3.8,2.1-5c1.3-1.3,3.1-2.1,5.1-2.1
							l50.6,0.2C378.6,449.4,381.8,452.6,381.8,456.5z"/>
					</g>
				</g>
				<g>
					<g>
						<path class="st4" d="M356,493.8l-13.2-0.1c-6.1,0-11.1-5-11-11.1l0-12.3l35.4,0.1l0,12.3C367.1,488.9,362.1,493.9,356,493.8z"
							/>
					</g>
				</g>
				<g>
					<g>
						<path class="st4" d="M375.7,470.7c0,2-0.8,3.8-2.1,5c-0.4,0.4-0.7,0.7-1.2,0.9c-1.1,0.7-2.5,1.1-3.9,1.1l-38.2-0.1
							c-1.4,0-2.8-0.4-3.9-1.2c-2-1.3-3.2-3.5-3.2-6c0-2,0.8-3.8,2.1-5c1.3-1.3,3.1-2.1,5.1-2.1l38.2,0.1
							C372.5,463.6,375.7,466.8,375.7,470.7z"/>
					</g>
				</g>
				<g>
					<g>
						<path class="st3" d="M382,448.5c-1.1,0.7-2.5,1.1-3.9,1.1l-57.5-0.2c-1.4,0-2.8-0.4-3.9-1.2L382,448.5z"/>
					</g>
				</g>
				<g>
					<g>
						<path class="st3" d="M378.5,462.5l-3.5,1.1l-51.5-0.2c-1.3-0.1-2.5-0.5-3.5-1.2L378.5,462.5z"/>
					</g>
				</g>
				<g>
					<g>
						<path class="st3" d="M372.4,476.7c-1.1,0.7-2.5,1.1-3.9,1.1l-38.2-0.1c-1.4,0-2.8-0.4-3.9-1.2L372.4,476.7z"/>
					</g>
				</g>
			</g>
			<g>
				<g>
					<path class="st11" d="M377.3,325.3c-2.7-2.6-6.6-3.9-10.5-3.7c-3.6,0.2-6.8,1.7-9.1,4.2c-2.7,3.1-3.5,7-4,10.4
						c-0.4,2.8-0.6,8.8-0.7,15.9c-1,0-5.4,0-6.4,0c-0.1-7-0.3-13.1-0.7-15.9c-0.5-3.5-1.4-7.4-4-10.4c-2.2-2.5-5.4-4-9.1-4.2
						c-3.9-0.2-7.7,1.2-10.5,3.7c-4.9,4.5-6.3,12.3-3.5,19c2.4,5.6,7.5,10.2,14,12.5c2.3,0.8,4.7,1.4,7.3,1.6
						c0,14.9-0.3,76.4-0.3,76.6l6.5,0.1c0-1.1,0.4-62,0.3-76.6c1,0,5.3,0,6.3,0c0,14.6,0.3,75.5,0.3,76.6l6.5-0.1
						c0-0.3-0.4-61.8-0.3-76.6c2.6-0.3,5.1-0.8,7.3-1.6c6.5-2.3,11.6-6.9,14-12.5C383.6,337.7,382.1,329.9,377.3,325.3z M335,350.7
						c-4.7-1.7-8.5-5-10.2-8.9c-1.7-4.1-0.9-9,2-11.7c1.3-1.3,3.3-2,5.3-2c0.1,0,0.3,0,0.4,0c1.9,0.1,3.5,0.8,4.5,2
						c1.6,1.8,2.1,4.6,2.5,7.1c0.4,2.5,0.5,8.1,0.6,14.7C338.3,351.7,336.6,351.3,335,350.7z M374.8,341.8
						c-1.6,3.9-5.4,7.2-10.2,8.9c-1.6,0.6-3.3,1-5.1,1.2c0.1-6.6,0.2-12.2,0.6-14.7c0.4-2.5,0.9-5.3,2.5-7.1c1-1.2,2.6-1.9,4.5-2
						c0.1,0,0.3,0,0.4,0c2,0,4,0.7,5.3,2C375.7,332.8,376.6,337.7,374.8,341.8z"/>
				</g>
			</g>
		</g>
	</g>
	<g>
		<g>
			<g>
				<g>
					<path class="st9" d="M349.9,273.2c-30.5,0-55.1,24.6-55.1,55.1c0,30.5,24.6,55.1,55.1,55.1c30.5,0,55.1-24.6,55.1-55.1
						C405,297.8,380.4,273.2,349.9,273.2z M349.9,375.5c-17.5,0-32.8-9.5-40.9-23.6c-4-6.9-6.3-15-6.3-23.6s2.3-16.7,6.3-23.6
						c8.2-14.1,23.4-23.6,40.9-23.6c17.5,0,32.8,9.5,40.9,23.6c4,6.9,6.3,15,6.3,23.6s-2.3,16.7-6.3,23.6
						C382.7,366,367.4,375.5,349.9,375.5z"/>
				</g>
				<g>
					<path class="st2" d="M390.9,304.6c-8.2-14.1-23.4-23.6-40.9-23.6c-17.5,0-32.8,9.5-40.9,23.6c-4,6.9-6.3,15-6.3,23.6
						s2.3,16.7,6.3,23.6c8.2,14.1,23.4,23.6,40.9,23.6c17.5,0,32.8-9.5,40.9-23.6c4-6.9,6.3-15,6.3-23.6S394.9,311.6,390.9,304.6z
						 M384,348c-6.8,11.8-19.5,19.7-34.1,19.7c-14.6,0-27.3-7.9-34.1-19.7c-3.3-5.8-5.3-12.5-5.3-19.7c0-7.2,1.9-13.9,5.3-19.7
						c6.8-11.8,19.5-19.7,34.1-19.7c14.6,0,27.3,7.9,34.1,19.7c3.3,5.8,5.3,12.5,5.3,19.7C389.3,335.4,387.4,342.2,384,348z"/>
				</g>
				<g>
					<path class="st9" d="M384,308.6c-6.8-11.8-19.5-19.7-34.1-19.7c-14.6,0-27.3,7.9-34.1,19.7c-3.3,5.8-5.3,12.5-5.3,19.7
						c0,7.2,1.9,13.9,5.3,19.7c6.8,11.8,19.5,19.7,34.1,19.7c14.6,0,27.3-7.9,34.1-19.7c3.3-5.8,5.3-12.5,5.3-19.7
						C389.3,321.1,387.4,314.4,384,308.6z M377.2,344c-5.4,9.4-15.6,15.7-27.3,15.7c-11.7,0-21.8-6.3-27.3-15.7
						c-2.7-4.6-4.2-10-4.2-15.7c0-5.7,1.5-11.1,4.2-15.8c5.4-9.4,15.6-15.7,27.3-15.7c11.7,0,21.8,6.3,27.3,15.7
						c2.7,4.6,4.2,10,4.2,15.7C381.4,334,379.9,339.4,377.2,344z"/>
				</g>
				<g>
					<path class="st2" d="M377.2,312.5c-5.4-9.4-15.6-15.7-27.3-15.7c-11.7,0-21.8,6.3-27.3,15.7c-2.7,4.6-4.2,10-4.2,15.8
						c0,5.7,1.5,11.1,4.2,15.7c5.4,9.4,15.6,15.7,27.3,15.7c11.7,0,21.8-6.3,27.3-15.7c2.7-4.6,4.2-10,4.2-15.7
						C381.4,322.5,379.9,317.1,377.2,312.5z M370.4,340.1c-4.1,7.1-11.7,11.8-20.5,11.8c-8.8,0-16.4-4.7-20.5-11.8
						c-2-3.5-3.2-7.5-3.2-11.8c0-4.3,1.1-8.3,3.2-11.8c4.1-7.1,11.7-11.8,20.5-11.8c8.7,0,16.4,4.7,20.5,11.8
						c2,3.5,3.2,7.5,3.2,11.8C373.6,332.6,372.4,336.6,370.4,340.1z"/>
				</g>
				<g>
					<path class="st9" d="M370.4,316.5c-4.1-7.1-11.7-11.8-20.5-11.8c-8.8,0-16.4,4.7-20.5,11.8c-2,3.5-3.2,7.5-3.2,11.8
						c0,4.3,1.1,8.3,3.2,11.8c4.1,7.1,11.7,11.8,20.5,11.8c8.7,0,16.4-4.7,20.5-11.8c2-3.5,3.2-7.5,3.2-11.8
						C373.6,324,372.4,319.9,370.4,316.5z M363.6,336.1c-2.7,4.7-7.8,7.9-13.6,7.9c-5.8,0-10.9-3.2-13.6-7.9c-1.3-2.3-2.1-5-2.1-7.9
						c0-2.9,0.8-5.6,2.1-7.9c2.7-4.7,7.8-7.9,13.6-7.9c5.8,0,10.9,3.2,13.6,7.9c1.3,2.3,2.1,5,2.1,7.9
						C365.7,331.1,364.9,333.8,363.6,336.1z"/>
				</g>
				<g>
					<path class="st2" d="M363.6,320.4c-2.7-4.7-7.8-7.9-13.6-7.9c-5.8,0-10.9,3.2-13.6,7.9c-1.3,2.3-2.1,5-2.1,7.9
						c0,2.9,0.8,5.6,2.1,7.9c2.7,4.7,7.8,7.9,13.6,7.9c5.8,0,10.9-3.2,13.6-7.9c1.3-2.3,2.1-5,2.1-7.9
						C365.7,325.4,364.9,322.7,363.6,320.4z M349.9,336.1c-2.9,0-5.5-1.6-6.8-3.9c-0.7-1.2-1.1-2.5-1.1-3.9c0-1.4,0.4-2.8,1.1-3.9
						c1.4-2.4,3.9-3.9,6.8-3.9c2.9,0,5.5,1.6,6.8,3.9c0.7,1.2,1.1,2.5,1.1,3.9c0,1.4-0.4,2.8-1.1,3.9
						C355.4,334.6,352.9,336.1,349.9,336.1z"/>
				</g>
			</g>
			<g>
				<g>
					<path class="st9" d="M357.8,328.3c0,1.4-0.4,2.8-1.1,3.9c-1.4,2.4-3.9,3.9-6.8,3.9c-2.9,0-5.5-1.6-6.8-3.9
						c-0.7-1.2-1.1-2.5-1.1-3.9c0-1.4,0.4-2.8,1.1-3.9c1.4-2.4,3.9-3.9,6.8-3.9c2.9,0,5.5,1.6,6.8,3.9
						C357.4,325.5,357.8,326.8,357.8,328.3z"/>
				</g>
			</g>
		</g>
		<g>
			<g>
				<g>
					<g>
						<g>
							<polygon class="st3" points="386.8,291.6 396.5,294.6 405.2,286 396.2,282.1 							"/>
						</g>
					</g>
				</g>
			</g>
			<g>
				<g>
					<g>
						<g>
							<polygon class="st3" points="386.8,291.6 383.7,281.8 392.4,273.2 396.2,282.1 							"/>
						</g>
					</g>
				</g>
			</g>
			<g>
				<g>
					<g>
						<g>
							<path class="st4" d="M396.2,283.9l-46.1,45.7l-1.7-1.7l46.1-45.7c0.4-0.4,1.1-0.5,1.6-0.1
								C396.7,282.6,396.8,283.4,396.2,283.9z"/>
						</g>
					</g>
				</g>
			</g>
		</g>
	</g>
	<g>
		<path class="st3" d="M649.7,625.3H50.3c-1.9,0-3.5-1.6-3.5-3.5l0,0c0-1.9,1.6-3.5,3.5-3.5h599.4c1.9,0,3.5,1.6,3.5,3.5l0,0
			C653.2,623.7,651.7,625.3,649.7,625.3z"/>
	</g>
	<g>
		<g>
			<g>
				<rect x="421.9" y="511.1" class="st12" width="88.2" height="11.5"/>
			</g>
			<g>
				<rect x="422" y="509" class="st13" width="88.2" height="2.1"/>
			</g>
			<g>
				<rect x="422" y="522.5" class="st14" width="88.2" height="2.1"/>
			</g>
			<g>
				<g>
					<rect x="427.3" y="511.1" class="st15" width="2.1" height="11.5"/>
				</g>
				<g>
					<rect x="434.8" y="511.1" class="st15" width="2.1" height="11.5"/>
				</g>
				<g>
					<rect x="442.4" y="511.1" class="st15" width="2.1" height="11.5"/>
				</g>
				<g>
					<rect x="449.9" y="511.1" class="st15" width="2.1" height="11.5"/>
				</g>
				<g>
					<rect x="457.4" y="511.1" class="st15" width="2.1" height="11.5"/>
				</g>
				<g>
					<rect x="465" y="511.1" class="st15" width="2.1" height="11.5"/>
				</g>
				<g>
					<rect x="472.5" y="511.1" class="st15" width="2.1" height="11.5"/>
				</g>
				<g>
					<rect x="480.1" y="511.1" class="st15" width="2.1" height="11.5"/>
				</g>
				<g>
					<rect x="487.6" y="511.1" class="st15" width="2.1" height="11.5"/>
				</g>
				<g>
					<rect x="495.1" y="511.1" class="st15" width="2.1" height="11.5"/>
				</g>
				<g>
					<rect x="502.7" y="511.1" class="st15" width="2.1" height="11.5"/>
				</g>
			</g>
		</g>
		<g>
			<g>
				<rect x="414.4" y="526.7" class="st12" width="88.2" height="11.5"/>
			</g>
			<g>
				<rect x="414.4" y="524.6" class="st13" width="88.2" height="2.1"/>
			</g>
			<g>
				<rect x="414.4" y="538.1" class="st14" width="88.2" height="2.1"/>
			</g>
			<g>
				<g>
					<rect x="419.7" y="526.7" class="st15" width="2.1" height="11.5"/>
				</g>
				<g>
					<rect x="427.3" y="526.7" class="st15" width="2.1" height="11.5"/>
				</g>
				<g>
					<rect x="434.8" y="526.7" class="st15" width="2.1" height="11.5"/>
				</g>
				<g>
					<rect x="442.4" y="526.7" class="st15" width="2.1" height="11.5"/>
				</g>
				<g>
					<rect x="449.9" y="526.7" class="st15" width="2.1" height="11.5"/>
				</g>
				<g>
					<rect x="457.4" y="526.7" class="st15" width="2.1" height="11.5"/>
				</g>
				<g>
					<rect x="465" y="526.7" class="st15" width="2.1" height="11.5"/>
				</g>
				<g>
					<rect x="472.5" y="526.7" class="st15" width="2.1" height="11.5"/>
				</g>
				<g>
					<rect x="480" y="526.7" class="st15" width="2.1" height="11.5"/>
				</g>
				<g>
					<rect x="487.6" y="526.7" class="st15" width="2.1" height="11.5"/>
				</g>
				<g>
					<rect x="495.1" y="526.7" class="st15" width="2.1" height="11.5"/>
				</g>
			</g>
		</g>
		<g>
			<g>
				<rect x="421.9" y="542.3" class="st12" width="88.2" height="11.5"/>
			</g>
			<g>
				<rect x="422" y="540.2" class="st13" width="88.2" height="2.1"/>
			</g>
			<g>
				<rect x="422" y="553.7" class="st14" width="88.2" height="2.1"/>
			</g>
			<g>
				<g>
					<rect x="427.3" y="542.3" class="st15" width="2.1" height="11.5"/>
				</g>
				<g>
					<rect x="434.8" y="542.3" class="st15" width="2.1" height="11.5"/>
				</g>
				<g>
					<rect x="442.4" y="542.3" class="st15" width="2.1" height="11.5"/>
				</g>
				<g>
					<rect x="449.9" y="542.3" class="st15" width="2.1" height="11.5"/>
				</g>
				<g>
					<rect x="457.4" y="542.3" class="st15" width="2.1" height="11.5"/>
				</g>
				<g>
					<rect x="465" y="542.3" class="st15" width="2.1" height="11.5"/>
				</g>
				<g>
					<rect x="472.5" y="542.3" class="st15" width="2.1" height="11.5"/>
				</g>
				<g>
					<rect x="480.1" y="542.3" class="st15" width="2.1" height="11.5"/>
				</g>
				<g>
					<rect x="487.6" y="542.3" class="st15" width="2.1" height="11.5"/>
				</g>
				<g>
					<rect x="495.1" y="542.3" class="st15" width="2.1" height="11.5"/>
				</g>
				<g>
					<rect x="502.7" y="542.3" class="st15" width="2.1" height="11.5"/>
				</g>
			</g>
		</g>
		<g>
			<g>
				<rect x="427.4" y="557.9" class="st12" width="88.2" height="11.5"/>
			</g>
			<g>
				<rect x="427.4" y="555.8" class="st13" width="88.2" height="2.1"/>
			</g>
			<g>
				<rect x="427.4" y="569.3" class="st14" width="88.2" height="2.1"/>
			</g>
			<g>
				<g>
					<rect x="432.8" y="557.9" class="st15" width="2.1" height="11.5"/>
				</g>
				<g>
					<rect x="440.3" y="557.9" class="st15" width="2.1" height="11.5"/>
				</g>
				<g>
					<rect x="447.8" y="557.9" class="st15" width="2.1" height="11.5"/>
				</g>
				<g>
					<rect x="455.4" y="557.9" class="st15" width="2.1" height="11.5"/>
				</g>
				<g>
					<rect x="462.9" y="557.9" class="st15" width="2.1" height="11.5"/>
				</g>
				<g>
					<rect x="470.4" y="557.9" class="st15" width="2.1" height="11.5"/>
				</g>
				<g>
					<rect x="478" y="557.9" class="st15" width="2.1" height="11.5"/>
				</g>
				<g>
					<rect x="485.5" y="557.9" class="st15" width="2.1" height="11.5"/>
				</g>
				<g>
					<rect x="493.1" y="557.9" class="st15" width="2.1" height="11.5"/>
				</g>
				<g>
					<rect x="500.6" y="557.9" class="st15" width="2.1" height="11.5"/>
				</g>
				<g>
					<rect x="508.1" y="557.9" class="st15" width="2.1" height="11.5"/>
				</g>
			</g>
		</g>
		<g>
			<g>
				<rect x="420.9" y="573.5" class="st12" width="88.2" height="11.5"/>
			</g>
			<g>
				<rect x="420.9" y="571.4" class="st13" width="88.2" height="2.1"/>
			</g>
			<g>
				<rect x="420.9" y="584.9" class="st14" width="88.2" height="2.1"/>
			</g>
			<g>
				<g>
					<rect x="426.3" y="573.5" class="st15" width="2.1" height="11.5"/>
				</g>
				<g>
					<rect x="433.8" y="573.5" class="st15" width="2.1" height="11.5"/>
				</g>
				<g>
					<rect x="441.3" y="573.5" class="st15" width="2.1" height="11.5"/>
				</g>
				<g>
					<rect x="448.9" y="573.5" class="st15" width="2.1" height="11.5"/>
				</g>
				<g>
					<rect x="456.4" y="573.5" class="st15" width="2.1" height="11.5"/>
				</g>
				<g>
					<rect x="463.9" y="573.5" class="st15" width="2.1" height="11.5"/>
				</g>
				<g>
					<rect x="471.5" y="573.5" class="st15" width="2.1" height="11.5"/>
				</g>
				<g>
					<rect x="479" y="573.5" class="st15" width="2.1" height="11.5"/>
				</g>
				<g>
					<rect x="486.6" y="573.5" class="st15" width="2.1" height="11.5"/>
				</g>
				<g>
					<rect x="494.1" y="573.5" class="st15" width="2.1" height="11.5"/>
				</g>
				<g>
					<rect x="501.6" y="573.5" class="st15" width="2.1" height="11.5"/>
				</g>
			</g>
		</g>
		<g>
			<g>
				<rect x="427.4" y="589.1" class="st12" width="88.2" height="11.5"/>
			</g>
			<g>
				<rect x="427.4" y="587" class="st13" width="88.2" height="2.1"/>
			</g>
			<g>
				<rect x="427.4" y="600.5" class="st14" width="88.2" height="2.1"/>
			</g>
			<g>
				<g>
					<rect x="432.8" y="589.1" class="st15" width="2.1" height="11.5"/>
				</g>
				<g>
					<rect x="440.3" y="589.1" class="st15" width="2.1" height="11.5"/>
				</g>
				<g>
					<rect x="447.8" y="589.1" class="st15" width="2.1" height="11.5"/>
				</g>
				<g>
					<rect x="455.4" y="589.1" class="st15" width="2.1" height="11.5"/>
				</g>
				<g>
					<rect x="462.9" y="589.1" class="st15" width="2.1" height="11.5"/>
				</g>
				<g>
					<rect x="470.4" y="589.1" class="st15" width="2.1" height="11.5"/>
				</g>
				<g>
					<rect x="478" y="589.1" class="st15" width="2.1" height="11.5"/>
				</g>
				<g>
					<rect x="485.5" y="589.1" class="st15" width="2.1" height="11.5"/>
				</g>
				<g>
					<rect x="493.1" y="589.1" class="st15" width="2.1" height="11.5"/>
				</g>
				<g>
					<rect x="500.6" y="589.1" class="st15" width="2.1" height="11.5"/>
				</g>
				<g>
					<rect x="508.1" y="589.1" class="st15" width="2.1" height="11.5"/>
				</g>
			</g>
		</g>
		<g>
			<g>
				<rect x="418.8" y="604.7" class="st12" width="88.2" height="11.5"/>
			</g>
			<g>
				<rect x="418.8" y="602.6" class="st13" width="88.2" height="2.1"/>
			</g>
			<g>
				<rect x="418.8" y="616.1" class="st14" width="88.2" height="2.1"/>
			</g>
			<g>
				<g>
					<rect x="424.2" y="604.7" class="st15" width="2.1" height="11.5"/>
				</g>
				<g>
					<rect x="431.7" y="604.7" class="st15" width="2.1" height="11.5"/>
				</g>
				<g>
					<rect x="439.2" y="604.7" class="st15" width="2.1" height="11.5"/>
				</g>
				<g>
					<rect x="446.8" y="604.7" class="st15" width="2.1" height="11.5"/>
				</g>
				<g>
					<rect x="454.3" y="604.7" class="st15" width="2.1" height="11.5"/>
				</g>
				<g>
					<rect x="461.9" y="604.7" class="st15" width="2.1" height="11.5"/>
				</g>
				<g>
					<rect x="469.4" y="604.7" class="st15" width="2.1" height="11.5"/>
				</g>
				<g>
					<rect x="476.9" y="604.7" class="st15" width="2.1" height="11.5"/>
				</g>
				<g>
					<rect x="484.5" y="604.7" class="st15" width="2.1" height="11.5"/>
				</g>
				<g>
					<rect x="492" y="604.7" class="st15" width="2.1" height="11.5"/>
				</g>
				<g>
					<rect x="499.5" y="604.7" class="st15" width="2.1" height="11.5"/>
				</g>
			</g>
		</g>
		<g class="st16">
			<g>
				<path class="st17" d="M507,535.2v83h-21.6c-6.1-3.3-11.4-7.9-15.4-13.5c-5.1-7.2-8.1-16-8.1-25.4c0-24.3,19.7-44.1,44.1-44.1
					C506.3,535.2,506.7,535.2,507,535.2z"/>
			</g>
		</g>
		<g>
			<g>
				<g>
					<path class="st12" d="M551.1,574.1c0,24.3-19.7,44.1-44.1,44.1c-7.2,0-14-1.7-20-4.8c-6.4-3.3-11.9-8.1-16-13.9
						c-5.1-7.2-8.1-16-8.1-25.4c0-24.3,19.7-44.1,44.1-44.1c4.4,0,8.7,0.7,12.7,1.9c8.4,2.5,15.8,7.6,21.3,14.2
						C547.3,553.7,551.1,563.5,551.1,574.1z"/>
				</g>
			</g>
			<g>
				<g>
					<path class="st13" d="M507,614.3c-22.1,0-40.1-18-40.1-40.1c0-22.1,18-40.1,40.1-40.1c22.1,0,40.1,18,40.1,40.1
						C547.1,596.2,529.1,614.3,507,614.3z M507,536.7c-20.6,0-37.4,16.8-37.4,37.4s16.8,37.4,37.4,37.4c20.6,0,37.4-16.8,37.4-37.4
						S527.6,536.7,507,536.7z"/>
				</g>
			</g>
			<g>
				<g>
					<path class="st18" d="M519.9,578.7c-1-1.6-2.2-3-3.6-4.1c-1.3-1.1-3.1-2.2-5.3-3.5c-1.8-1.1-3.1-2-4.1-2.7
						c-0.9-0.7-1.7-1.5-2.3-2.4c-0.6-0.8-0.8-1.7-0.8-2.8c0-1.2,0.3-2,0.8-2.4c0.6-0.5,1.5-0.8,2.7-0.8c1.2,0,2.1,0.3,2.7,0.8
						c0.5,0.5,0.8,1.3,0.8,2.4v2.8h10.5v-2.4c0-3.2-0.9-5.8-2.7-7.7c-1.6-1.8-4-3-6.9-3.6V549h-9.4v3.4c-2.9,0.6-5.2,1.8-6.8,3.6
						c-1.8,2-2.7,4.5-2.7,7.7c0,2.2,0.5,4.2,1.5,5.9c1,1.6,2.2,3,3.6,4.1c1.3,1.1,3.1,2.2,5.3,3.5c1.8,1.1,3.1,2,4.1,2.7
						c0.9,0.7,1.7,1.5,2.3,2.4c0.6,0.8,0.8,1.8,0.8,2.8c0,1.5-0.4,3.1-3.6,3.1s-3.6-1.6-3.6-3.1v-4.4h-10.6v3.9
						c0,3.2,0.9,5.8,2.7,7.8c1.6,1.8,4,3,7,3.6v3.3h9.4V596c3-0.6,5.3-1.8,7-3.6c1.8-2,2.8-4.6,2.8-7.8
						C521.4,582.4,520.9,580.4,519.9,578.7z"/>
				</g>
			</g>
			<g class="st19">
				<g>
					<path class="st2" d="M541,546.1L487,613.4c-6.4-3.3-11.9-8.1-16-13.9l48.7-67.6C528.1,534.4,535.5,539.5,541,546.1z"/>
				</g>
			</g>
		</g>
	</g>
	<g>
		<g>
			<g>
				
					<ellipse transform="matrix(0.7071 -0.7071 0.7071 0.7071 -122.6824 166.2881)" class="st9" cx="139.4" cy="231.2" rx="58.6" ry="58.6"/>
			</g>
		</g>
		<g>
			<g>
				
					<ellipse transform="matrix(0.1602 -0.9871 0.9871 0.1602 -111.1898 331.7815)" class="st2" cx="139.4" cy="231.2" rx="47.8" ry="47.8"/>
			</g>
		</g>
		<g>
			<g>
				<rect x="138.5" y="186" class="st3" width="1.8" height="7.6"/>
			</g>
		</g>
		<g>
			<g>
				<path class="st3" d="M155.1,194.9l-11.3,30.8l-1.5,4.1c-0.5-1.1-1.6-1.8-2.9-1.8c-0.5,0-0.9,0.1-1.3,0.3l1.5-4.1l11.3-30.8
					c0.4-1.2,1.7-1.8,2.9-1.3C154.9,192.4,155.5,193.7,155.1,194.9z"/>
			</g>
		</g>
		<g>
			<g>
				<path class="st9" d="M168.5,251.1c-0.4,0.6-1.1,1-1.9,1c-0.4,0-0.9-0.1-1.3-0.4l-21.6-14.8l-3.6-2.5c1.5-0.3,2.6-1.6,2.6-3.2
					c0-0.2,0-0.3,0-0.5l3.6,2.5l21.6,14.8C168.9,248.7,169.1,250.1,168.5,251.1z"/>
			</g>
		</g>
		<g>
			<g>
				<g>
					<path class="st9" d="M143.8,225.7c-1.2-0.9-2.6-1.5-4.2-1.5c-0.1,0-0.1,0-0.2,0c-3.9,0-7.1,3.2-7.1,7.1c0,3.9,3.2,7.1,7.1,7.1
						c1.6,0,3.1-0.5,4.3-1.5c1.2-0.9,2.1-2.2,2.5-3.7c0.2-0.6,0.3-1.3,0.3-2C146.5,229,145.5,227,143.8,225.7z M140.1,234.4
						c-0.2,0.1-0.5,0.1-0.7,0.1c-1.8,0-3.3-1.5-3.3-3.3c0-1.4,0.8-2.5,2-3c0.4-0.2,0.8-0.3,1.3-0.3c1.3,0,2.4,0.7,2.9,1.8
						c0.2,0.3,0.3,0.6,0.3,1c0,0.2,0,0.3,0,0.5C142.7,232.8,141.6,234.1,140.1,234.4z"/>
				</g>
			</g>
		</g>
		<g>
			<g>
				
					<rect x="97.1" y="227.4" transform="matrix(6.123234e-17 -1 1 6.123234e-17 -133.2212 329.2482)" class="st3" width="1.8" height="7.6"/>
			</g>
		</g>
		<g>
			<g>
				
					<rect x="138.5" y="268.8" transform="matrix(-1 -1.224647e-16 1.224647e-16 -1 278.7725 545.215)" class="st3" width="1.8" height="7.6"/>
			</g>
		</g>
		<g>
			<g>
				
					<rect x="179.8" y="227.4" transform="matrix(-1.836970e-16 1 -1 -1.836970e-16 411.9938 50.4757)" class="st3" width="1.8" height="7.6"/>
			</g>
		</g>
	</g>
	<g>
		<g>
			<path class="st4" d="M121.1,540.9l5.8-5.8l-5.4-6.9l-7.1,4.2c-1.4-1.1-3-2-4.7-2.7l0-8.2l-8.7-1.1l-2,8c-1.8,0.3-3.6,0.7-5.3,1.4
				l-5.8-5.8l-6.9,5.4l4.2,7.1c-1.1,1.4-2,3-2.7,4.7l-8.2,0l-1.1,8.7l8,2c0.3,1.8,0.7,3.6,1.5,5.3l-5.8,5.8l5.4,6.9l7.1-4.2
				c1.4,1.1,3,2,4.7,2.7l0,8.2l8.7,1.1l2-8c1.8-0.3,3.6-0.7,5.3-1.5l5.8,5.8l6.9-5.4l-4.2-7.1c1.1-1.4,2-3,2.7-4.7l8.2,0l1.1-8.7
				l-8-2C122.3,544.3,121.8,542.5,121.1,540.9z M104.7,559.2c-5.6,1.6-11.4-1.7-13-7.4c-1.6-5.6,1.7-11.4,7.4-13
				c5.6-1.6,11.4,1.7,13,7.4C113.6,551.8,110.3,557.6,104.7,559.2z"/>
		</g>
		<g>
			<path class="st4" d="M305.6,164.5l5.8-5.8l-5.4-6.9L299,156c-1.4-1.1-3-2-4.7-2.7l0-8.2l-8.7-1.1l-2,8c-1.8,0.3-3.6,0.7-5.3,1.4
				l-5.8-5.8l-6.9,5.4l4.2,7.1c-1.1,1.4-2,3-2.7,4.7l-8.2,0l-1.1,8.7l8,2c0.3,1.8,0.7,3.6,1.5,5.3l-5.8,5.8l5.4,6.9l7.1-4.2
				c1.4,1.1,3,2,4.7,2.7l0,8.2l8.7,1.1l2-8c1.8-0.3,3.6-0.7,5.3-1.5l5.8,5.8l6.9-5.4l-4.2-7.1c1.1-1.4,2-3,2.7-4.7l8.2,0l1.1-8.7
				l-8-2C306.8,167.9,306.3,166.2,305.6,164.5z M289.2,182.8c-5.6,1.6-11.4-1.7-13-7.4c-1.6-5.6,1.7-11.4,7.4-13
				c5.6-1.6,11.4,1.7,13,7.4C298.1,175.4,294.8,181.3,289.2,182.8z"/>
		</g>
		<g>
			<path class="st4" d="M621.2,387.6l5.8-5.8l-5.4-6.9l-7.1,4.2c-1.4-1.1-3-2-4.7-2.7l0-8.2l-8.7-1.1l-2,8c-1.8,0.3-3.6,0.7-5.3,1.4
				l-5.8-5.8l-6.9,5.4l4.2,7.1c-1.1,1.4-2,3-2.7,4.7l-8.2,0l-1.1,8.7l8,2c0.3,1.8,0.7,3.6,1.5,5.3l-5.8,5.8l5.4,6.9l7.1-4.2
				c1.4,1.1,3,2,4.7,2.7l0,8.2l8.7,1.1l2-8c1.8-0.3,3.6-0.7,5.3-1.5l5.8,5.8l6.9-5.4l-4.2-7.1c1.1-1.4,2-3,2.7-4.7l8.2,0l1.1-8.7
				l-8-2C622.4,391.1,621.9,389.3,621.2,387.6z M604.8,405.9c-5.6,1.6-11.4-1.7-13-7.4c-1.6-5.6,1.7-11.4,7.4-13
				c5.6-1.6,11.4,1.7,13,7.4C613.7,398.6,610.4,404.4,604.8,405.9z"/>
		</g>
	</g>
	<g>
		<g>
			<g>
				<path class="st5" d="M98.9,426.8c0.5-1.1,0.7-2.3,0.7-3.5c0-4.9-4-8.9-8.9-8.9c-1.3,0-2.5,0.3-3.7,0.8c0.3-1,0.4-2,0.4-3.1
					c0-6.2-5-11.3-11.3-11.3c-1.9,0-3.8,0.5-5.4,1.4c-2-6.7-8.2-11.5-15.6-11.5c-9,0-16.3,7.3-16.3,16.3c0,0.4,0,0.9,0.1,1.3
					c-0.4-0.1-0.8-0.1-1.2-0.1c-4.9,0-8.9,4-8.9,8.9c0,0.5,0.1,1.1,0.1,1.6c0,0-0.1,0-0.1,0c-4.7,0-8.5,3.6-8.9,8.2H98.9z"/>
			</g>
		</g>
		<g>
			<g>
				<path class="st5" d="M547.5,273.2c-0.3-0.6-0.4-1.3-0.4-2c0-2.8,2.3-5.1,5.1-5.1c0.8,0,1.5,0.2,2.1,0.5
					c-0.2-0.6-0.3-1.2-0.3-1.8c0-3.6,2.9-6.5,6.5-6.5c1.1,0,2.2,0.3,3.1,0.8c1.2-3.8,4.7-6.6,9-6.6c5.2,0,9.4,4.2,9.4,9.4
					c0,0.3,0,0.5,0,0.8c0.2,0,0.5,0,0.7,0c2.8,0,5.1,2.3,5.1,5.1c0,0.3,0,0.6-0.1,0.9c0,0,0.1,0,0.1,0c2.7,0,4.9,2.1,5.1,4.7H547.5z
					"/>
			</g>
		</g>
		<g>
			<path class="st5" d="M485.8,180.1c-1-2.7-3-5-5.6-6.3c0.5-1.3,0.8-2.8,0.8-4.3c0-6.4-5.2-11.6-11.6-11.6c-0.6,0-1.1,0-1.7,0.1
				c-1.8-8-9-14.1-17.6-14.1c-7.5,0-14,4.6-16.7,11.2c-1.5-0.7-3.1-1.1-4.9-1.1c-6.4,0-11.6,5.2-11.6,11.6c0,0.6,0,1.1,0.1,1.7
				c-0.8-0.2-1.6-0.2-2.4-0.2c-6.4,0-11.6,5.2-11.6,11.6c0,0.5,0,1,0.1,1.4H485.8z"/>
		</g>
		<g>
			<path class="st5" d="M661.7,463.8c-3.5,0-6.8,1-9.7,2.7c-2.3-4.1-6.7-6.9-11.7-6.9c-6.3,0-11.6,4.4-13,10.2
				c-3-4.8-8.4-7.9-14.4-7.9c-9.3,0-16.8,7.4-17.1,16.6c-5,2.5-8.4,7.6-8.4,13.5c0,0.5,0,0.9,0.1,1.3h16h18.9h53.8
				c2.4-3.1,3.9-7,3.9-11.3C680,472,671.8,463.8,661.7,463.8z"/>
		</g>
	</g>
	<g>
		<g>
			<g>
				<g>
					<path class="st20" d="M221.4,609.5c0,4.6,6.9,7.5,8.2,7.8c0.8,0.2,1.1-0.9,1.2-1.6c-0.9-0.3-2-0.7-3.4-2.3
						c-2.2-2.4-2.3-3.9-2.3-3.9L221.4,609.5C221.4,609.5,221.4,609.5,221.4,609.5z"/>
				</g>
			</g>
			<g>
				<g>
					<path class="st3" d="M221.4,609.5c0.2,4.6,6.5,7.1,7.7,7.4c0.8,0.2,1.6-0.5,1.7-1.2c0.3,0.1,1.3,0.4,1.6,0.5
						c1.1,0.5,0.2,1.3-0.8,1.8c-0.6,0.3-1.6,0.4-3.2,0.1c-2.4-0.4-5.6-3.1-6.3-4.2l0.1,4.1l-1.6,0l-0.1-5
						C220.7,610.7,221.4,609.6,221.4,609.5z"/>
				</g>
			</g>
		</g>
		<g>
			<g>
				<g>
					<path class="st20" d="M202.9,609.2c-0.2,4.6,6.6,7.8,7.8,8.1c0.8,0.2,1.2-0.8,1.3-1.6c-0.9-0.3-1.9-0.8-3.3-2.4
						c-2.1-2.5-2.1-4-2.1-4L202.9,609.2C202.9,609.2,202.9,609.2,202.9,609.2z"/>
				</g>
			</g>
			<g>
				<g>
					<path class="st3" d="M202.9,609.2c0,4.6,6.2,7.4,7.4,7.7c0.8,0.2,1.6-0.4,1.7-1.2c0.3,0.1,1.3,0.4,1.6,0.6
						c1.1,0.5,0.1,1.3-0.9,1.7c-0.6,0.2-1.6,0.4-3.2,0c-2.4-0.6-5.4-3.4-6.1-4.4l-0.1,4.1l-1.6,0l0.2-5
						C202.1,610.3,202.8,609.2,202.9,609.2z"/>
				</g>
			</g>
		</g>
		<g>
			<path class="st3" d="M234,553.5L234,553.5c0-0.5,0-1,0-1.5l0,0l0,0c0-0.2-7.6-39.4-7.6-39.4c0,0-25,0-25,0
				c-4.2,15.4-4.6,30.4,0,41.1l0,0l1.5,55.6l4,0.1l8.7-62.6c1.4,2.9,3,5.6,5,8l0.8,54.9l4.2-0.1C225.5,609.5,233.9,553.7,234,553.5z
				"/>
		</g>
		<g>
			<g>
				<path class="st3" d="M206.3,447.9c0,0-2.9,0.2-3.3,4.6c-0.5,5.3,1.8,11.4,7,13c7,2.2,10.4-4.9,10.4-4.9s-2,0.7-1.7-3
					C219,454.1,206.3,447.9,206.3,447.9z"/>
			</g>
		</g>
		<g>
			<g>
				<g>
					<g>
						<path class="st21" d="M268,444.5c-0.8-0.4-1.8-0.2-2.2,0.5c-1.2,2-2.5,4.1-3.8,6.1c-1.3,2-2.6,3.9-4,5.8
							c-1.4,1.8-2.9,3.5-4.5,5c-1.6,1.5-3.3,2.7-5.1,3.6c-1.8,0.9-3.8,1.6-5.9,2.2c-2.1,0.5-4.3,0.9-6.5,1.3
							c-0.6,0.1-1.1,0.2-1.7,0.2l-1.7,0.2c-1.2,0.1-2.3,0.2-3.5,0.3c-2.3,0.2-4.7,0.4-7,0.5c-3,0.3-5.2,3.3-4.7,6.7l0,0
							c0.4,3.4,3.3,5.8,6.4,5.2c2.4-0.5,4.8-1,7.2-1.6c1.2-0.3,2.4-0.6,3.6-0.9l1.8-0.5c0.6-0.2,1.2-0.4,1.8-0.5
							c2.4-0.7,4.9-1.5,7.3-2.6c2.4-1,4.9-2.3,7.1-4c2.2-1.6,4.2-3.6,5.8-5.7c1.7-2.1,3-4.3,4.2-6.4c1.2-2.2,2.3-4.4,3.3-6.6
							c1-2.2,2-4.4,2.9-6.7C269.2,445.8,268.8,444.9,268,444.5z"/>
					</g>
				</g>
			</g>
		</g>
		<g>
			<path class="st4" d="M214,466.9L214,466.9c10.1,0,17.8,9,16.3,19l-3.9,26.6c-7.2,2.7-16.7,2.3-25,0l-1-30.9
				C199.7,473.7,206,466.9,214,466.9z"/>
		</g>
		<g>
			<g>
				<g>
					<path class="st20" d="M216.6,459.7l1.2,10c-2,1.7-4.2,1.9-6.5,0.8l-1.2-10L216.6,459.7z"/>
				</g>
			</g>
			<g>
				<g>
					<path class="st21" d="M216.7,460.7l0.3,2.5c-0.9,0.7-2,1.2-3.2,1.4c-0.1,0-0.1,0-0.2,0c-1.1,0.1-2.3-0.2-3.2-0.8l-0.3-2.3
						L216.7,460.7z"/>
				</g>
			</g>
			<g>
				<g>
					<path class="st20" d="M218.1,450l0.6,6.1l0.1,1c0.3,3.3-2,6.2-5.2,6.7c-0.5,0.1-1,0.1-1.5-0.1c-0.5-0.1-1-0.3-1.4-0.7
						c-0.9-0.7-1.5-1.6-2.1-2.4c-0.1-0.2-0.2-0.3-0.3-0.5c-1-1.5-1.7-3-1.8-4.8l0.1-5.3l9.3-2.4L218.1,450z"/>
				</g>
			</g>
			<g>
				<g>
					<g>
						<path class="st3" d="M208.8,450.1c0,0,4.4-1.9,7.1-0.7c1.4,0.6,2.2,3.3,2.9,7c0,0,2.6-5.2-0.9-9.2c-3.5-4-11-3.7-12.2,1.4
							L208.8,450.1z"/>
					</g>
				</g>
				<g>
					<g>
						<path class="st3" d="M208.8,450.1c0,0-1.8,2.9-0.6,7.7c0,0-2.1,1.1-2.7-0.7s-2.4-6.9,1.4-8.6L208.8,450.1z"/>
					</g>
				</g>
			</g>
			<g>
				<g>
					<circle class="st20" cx="206.6" cy="456.6" r="2.4"/>
				</g>
			</g>
		</g>
		<g>
			<g>
				<g>
					<g>
						<path class="st20" d="M261.8,458.3c-0.7-0.6-1.7-0.6-2.3,0c-1.6,1.7-3.3,3.5-5,5.1c-1.7,1.7-3.4,3.3-5.1,4.8
							c-1.7,1.5-3.5,2.9-5.4,4c-1.9,1.1-3.8,1.9-5.7,2.5c-2,0.5-4,0.8-6.2,0.9c-2.1,0.1-4.4,0-6.6-0.1c-0.6,0-1.1-0.1-1.7-0.1
							l-1.7-0.2c-1.2-0.1-2.3-0.3-3.5-0.4c-2.3-0.3-4.7-0.6-7-1c-3-0.4-5.7,2.1-6,5.6v0c-0.3,3.4,2,6.4,5.1,6.5c2.4,0,4.9,0,7.4-0.1
							c1.2,0,2.5-0.1,3.7-0.1l1.9-0.1c0.6,0,1.3-0.1,1.9-0.1c2.5-0.2,5.1-0.5,7.7-1c2.6-0.5,5.2-1.3,7.8-2.4
							c2.5-1.1,4.8-2.6,6.9-4.3c2.1-1.7,3.8-3.5,5.5-5.4c1.6-1.9,3.1-3.8,4.6-5.8c1.5-2,2.9-3.9,4.2-5.9
							C262.7,459.9,262.5,458.9,261.8,458.3z"/>
					</g>
				</g>
			</g>
		</g>
	</g>
	<g>
		<g>
			<path class="st3" d="M415.2,618.1l-16.9,0.1c0-0.6,0.1-1.1,0.5-1.6c0.4-0.5,1-0.8,1.7-0.9c0.6-0.1,1.3-0.1,2-0.1
				c1.6-0.1,3.2-0.6,4.6-1.4c0.7-0.4,1.4-0.9,2.2-1.2l4.6,0.1c0.6,0.7,1,1.6,1.2,2.5C415.3,616.4,415.3,617.3,415.2,618.1z"/>
		</g>
		<g>
			<path class="st3" d="M452.8,618.2l-16.9,0.1c0-0.6,0.1-1.1,0.5-1.6c0.4-0.5,1-0.8,1.7-0.9c0.6-0.1,1.3-0.1,2-0.1
				c1.6-0.1,3.2-0.6,4.6-1.4c0.7-0.4,1.4-0.9,2.2-1.2l4.6,0.1c0.6,0.7,1,1.6,1.2,2.5C452.8,616.5,452.8,617.3,452.8,618.2z"/>
		</g>
		<g>
			<path class="st3" d="M450.7,525.3c0,0-16.5,0.1-16.5,0.1l0,0c0,0.9-19.5-4.9-19.8-0.4c0,0-3.9,32.2-3.9,32.2
				c-0.3,2.6-0.5,5.1-0.6,7.7l-1.4,48.4l5.9,0l17.2-68.7l14.4,68.6l5.9,0.1L450.7,525.3z"/>
		</g>
		<g>
			<path class="st9" d="M450.7,525.3c-13,4.3-21.5,6.8-36.3-0.3l0.2-33.9l0-5.1l0-1.9l0-3.6c0-0.5,0-1,0.1-1.5
				c0.6-6,4.4-10.9,9.7-13.1c0.7-0.3,1.4-0.5,2.2-0.7c1.7-0.4,3.5-0.6,5.3-0.4c0.3,0,0.5,0,0.8,0.1c1.3,0.2,2.6,0.5,3.8,0.9
				c6.1,2.1,10.8,7.1,12.4,13.3c0.4,1.5,0.6,3,0.7,4.6l0,0.5l0,1.9l0.1,2.4L450.7,525.3z"/>
		</g>
		<g>
			<path class="st2" d="M414.2,507.1l-0.1,16.5l0.3,0l0.1-16.5H414.2z M431.9,464.5c-0.5,0-1-0.1-1.4-0.1c-1.3,0-2.7,0.2-3.9,0.5
				c-0.8,0.2-1.5,0.4-2.2,0.7c-5.5,2.3-9.3,7.4-9.9,13.3c0,0.5-0.1,1-0.1,1.5l0,3.6l0,1.9l0,5h0.3l0-5l0-1.9l0-3.6
				c0-0.5,0-1,0.1-1.5c0.6-6,4.4-10.9,9.7-13.1c0.7-0.3,1.4-0.5,2.2-0.7c1.7-0.4,3.5-0.6,5.3-0.4c0.1,0,0.1,0,0.2,0v-0.3
				C432,464.6,432,464.5,431.9,464.5z M450,488.4L450,486l0-1.3l-0.3,0l0,1.3l0.1,2.4l0.3,11.8h0.3L450,488.4z M450.8,519.3h-0.3
				l0.2,6c-9.4,3.1-16.5,5.3-25.3,3.5l-0.3,0.2c2.2,0.5,4.3,0.7,6.5,0.7c6,0,11.5-1.7,19.1-4.2l0.2-0.1L450.8,519.3z"/>
		</g>
		<g>
			<g>
				<g>
					<path class="st7" d="M428.8,457.8l-0.8,11.3c2.3,1.8,4.8,1.9,7.4,0.5l0.8-11.3L428.8,457.8z"/>
				</g>
				<g>
					<path class="st21" d="M428.8,457.8l-0.4,5.1c0.5,0.2,1,0.4,1.6,0.5c0.2,0,0.4,0,0.6,0.1c2,0.1,4-0.7,5.3-2.1l0.2-3L428.8,457.8
						z"/>
				</g>
				<g>
					<path class="st7" d="M425.9,450.6l-0.2,4.7l-0.1,1.9c-0.1,2.7,1.8,5,4.5,5.4c0.9,0.1,1.7,0.1,2.6-0.2c0.2-0.1,0.4-0.1,0.6-0.2
						c0.1,0,0.2-0.1,0.3-0.1c1-0.5,1.9-1.3,2.5-2.4c0.5-0.9,1-1.9,1.5-2.9c0.3-0.6,0.5-1.2,0.8-1.8c1.2-2.7,0.8-5.9-1.1-8.2
						c-1.6-2-3.8-2.7-6.5-2.1C428,445.3,426,447.8,425.9,450.6z"/>
				</g>
			</g>
			<g>
				<g>
					<path class="st3" d="M438.9,453.5c2.3-5.6-0.6-6.9-0.6-6.9c0,0,0.1-0.7,0.1-0.8c0-0.3-0.1-0.6-0.2-0.8
						c-0.7-1.9-2.7-1.8-4.4-1.9c-1-0.1-1.7-0.4-2.4-1.1c-0.7-0.7-1-1.7-1.8-2.4c-1.2-1-3.1-0.5-4,0.6c-0.2,0.3-0.4,0.6-0.5,0.9
						c-0.6,1.7-0.6,3.9,0.5,5.5c1,1.4,2.8,1.9,4.4,2.3c0.5,0.1,1,0.2,1.6,0.3c2.7,0.4,4.1-1.7,4.1-1.7c-0.7,0.6-1.1,2.5-0.7,3.8
						c0.4,1.3-0.3,3.5-0.3,3.5l0.2,0C436.3,452.9,437.8,452.4,438.9,453.5z"/>
				</g>
				<g>
					<path class="st3" d="M427.2,447.9c0,0-1,2.3-1.4,5.8c0,0-0.6-3.9,0.5-6.6L427.2,447.9z"/>
				</g>
			</g>
			<g>
				<path class="st7" d="M434.8,454.7c-0.1,1.4,1.1,2.5,2.6,2.7c1.5,0.1,2.8-0.9,2.9-2.3s-1.1-2.5-2.6-2.7
					C436.2,452.3,434.9,453.3,434.8,454.7z"/>
			</g>
		</g>
		<g>
			<g>
				<path class="st7" d="M405.2,487.8l6.2,8c-0.1,0-0.2,0-0.3,0c-2.7,0.1-5.5-0.1-8.3-0.7c-2.4-0.5-4.8-1.3-7.5-2.4
					c-2-0.8-4.2-1.8-6.9-3.1c-2.4-1.2-4.8-2.4-6.6-3.4c-0.2-0.1-0.5-0.3-0.6-0.5c-0.5-0.6-0.6-1.5-0.2-2.2c0.5-1,1.6-1.6,2.6-1.2
					c2.8,1,4.9,1.7,6.9,2.3c2.7,0.9,4.9,1.5,6.8,1.9c2.5,0.6,4.7,0.9,6.6,1.1C404.3,487.8,404.8,487.8,405.2,487.8z"/>
			</g>
			<g>
				<path class="st8" d="M443,478.1l-3-3.8c0.7,0.4,1.3,1,1.8,1.6c0.1,0.2,0.3,0.4,0.4,0.6C442.6,477,442.8,477.6,443,478.1z"/>
			</g>
			<g>
				<path class="st2" d="M440.9,485.2c-1.4,0.7-2.7,1.4-3.9,2.1l-1.7-2.1l-4.9,2.5l1.2,2.3l0,0c-0.9,0.4-1.7,0.8-2.6,1.2
					c-2,0.9-4.1,1.8-6.4,2.7c-2.5,0.9-4.8,1.6-7,2c-0.4,0.1-0.7,0.1-1.1,0.2l0.9-2.9l-23.4-3.4l-0.8,2.1c-1-0.5-2.1-0.9-3.2-1.5
					l-0.4-0.2l2.6-6.4l0.4,0.1c2.2,0.7,4.1,1.3,6,1.8c2.2,0.6,4.1,1,5.8,1.2c1.9,0.3,3.8,0.3,5.5,0.2c1.7-0.2,3.4-0.5,5.2-1.1
					c0.5-0.2,1-0.3,1.5-0.6l0.8,2.1l14-5.4l-2.1-3.7c2.3-1.5,4.5-3.1,6.7-4.5c2.3-1.6,5.7-0.7,7.8,2c0.2,0.2,0.3,0.5,0.5,0.7
					c1.1,1.8,1.5,3.8,1,5.6C442.9,483.5,442.1,484.5,440.9,485.2z"/>
			</g>
			<g>
				<path class="st9" d="M440.7,484.8c-3.9,2-7.8,4.1-11.9,6c-2.1,0.9-4.2,1.8-6.4,2.6c-2.2,0.8-4.5,1.5-6.9,2
					c-2.4,0.5-4.9,0.7-7.4,0.6c-2.5-0.1-4.9-0.5-7.2-1.1c-2.3-0.6-4.5-1.4-6.6-2.2c-2.1-0.8-4.1-1.8-6.1-2.7l2.3-5.6
					c2,0.7,4,1.3,6,1.8c2,0.5,4,1,5.9,1.2c1.9,0.3,3.8,0.3,5.6,0.2c1.8-0.2,3.6-0.5,5.3-1.1c3.5-1.2,7-3.1,10.5-5.2
					c3.5-2.2,7-4.5,10.5-7c2.3-1.6,5.8-0.5,7.6,2.5C443.8,479.7,443.2,483.4,440.7,484.8z"/>
			</g>
		</g>
	</g>
</g>
</svg>
